<?xml version="1.0" standalone="no"?>
 <!DOCTYPE svg PUBLIC "-//W3C//DTD SVG 1.1//EN" 
 "http://www.w3.org/Graphics/SVG/1.1/DTD/svg11.dtd"> 
<svg
  xmlns:svg="http://www.w3.org/2000/svg"
  xmlns="http://www.w3.org/2000/svg"
  xmlns:xlink="http://www.w3.org/1999/xlink"
  version="1.1"
  width="29.700220cm" height="21.000720cm" viewBox="0 0 11693000 8268000">
<title>SVG Picture created as hillside-User_Eco2.svg date 2022/02/03 10:00:20 </title>
  <desc>Picture generated by PCBNEW </desc>
<g style="fill:#000000; fill-opacity:1.000000;stroke:#000000; stroke-opacity:1.000000;
stroke-linecap:round; stroke-linejoin:round;"
 transform="translate(0 0) scale(1 1)">
</g>
<g style="fill:#000000; fill-opacity:0.0; 
stroke:#000000; stroke-width:0.000000; stroke-opacity:1; 
stroke-linecap:round; stroke-linejoin:round;">
</g>
<g style="fill:#000000; fill-opacity:0.0; 
stroke:#000000; stroke-width:5905.511811; stroke-opacity:1; 
stroke-linecap:round; stroke-linejoin:round;">
<text x="5230000.000000" y="5939685.039370"
textLength="223275.196850" font-size="52493.425197" lengthAdjust="spacingAndGlyphs"
text-anchor="middle" opacity="0">3.00 in</text>
<g class="stroked-text"><desc>3.00 in</desc>
<path d="M5127825 5898440
L5152197 5898440
L5139073 5913438
L5144698 5913438
L5148447 5915313
L5150322 5917187
L5152197 5920937
L5152197 5930311
L5150322 5934060
L5148447 5935935
L5144698 5937810
L5133449 5937810
L5129700 5935935
L5127825 5934060
" />
<path d="M5169070 5934060
L5170944 5935935
L5169070 5937810
L5167195 5935935
L5169070 5934060
L5169070 5937810
" />
<path d="M5195316 5898440
L5199066 5898440
L5202815 5900314
L5204690 5902189
L5206565 5905939
L5208440 5913438
L5208440 5922812
L5206565 5930311
L5204690 5934060
L5202815 5935935
L5199066 5937810
L5195316 5937810
L5191567 5935935
L5189692 5934060
L5187817 5930311
L5185942 5922812
L5185942 5913438
L5187817 5905939
L5189692 5902189
L5191567 5900314
L5195316 5898440
" />
<path d="M5232812 5898440
L5236561 5898440
L5240311 5900314
L5242185 5902189
L5244060 5905939
L5245935 5913438
L5245935 5922812
L5244060 5930311
L5242185 5934060
L5240311 5935935
L5236561 5937810
L5232812 5937810
L5229062 5935935
L5227187 5934060
L5225313 5930311
L5223438 5922812
L5223438 5913438
L5225313 5905939
L5227187 5902189
L5229062 5900314
L5232812 5898440
" />
<path d="M5292804 5937810
L5292804 5911563
" />
<path d="M5292804 5898440
L5290929 5900314
L5292804 5902189
L5294679 5900314
L5292804 5898440
L5292804 5902189
" />
<path d="M5311552 5911563
L5311552 5937810
" />
<path d="M5311552 5915313
L5313427 5913438
L5317176 5911563
L5322800 5911563
L5326550 5913438
L5328425 5917187
L5328425 5937810
" />
</g></g>
<g style="fill:#000000; fill-opacity:0.0; 
stroke:#000000; stroke-width:3937.007874; stroke-opacity:1; 
stroke-linecap:round; stroke-linejoin:round;">
<path d="M3730000 5970314
L3730000 5896912
" />
<path d="M6730000 5970314
L6730000 5896912
" />
<path d="M3730000 5920000
L5099563 5920000
" />
<path d="M5360436 5920000
L6730000 5920000
" />
<path d="M3730000 5920000
L3774350 5943087
" />
<path d="M3730000 5920000
L3774350 5896912
" />
<path d="M6730000 5920000
L6685649 5896912
" />
<path d="M6730000 5920000
L6685649 5943087
" />
</g>
<g style="fill:#000000; fill-opacity:0.0; 
stroke:#000000; stroke-width:5905.511811; stroke-opacity:1; 
stroke-linecap:round; stroke-linejoin:round;">
<text x="5108267.716535" y="5760551.181102"
textLength="273893.897638" font-size="52493.425197" lengthAdjust="spacingAndGlyphs"
text-anchor="middle" opacity="0">70.0 mm</text>
<g class="stroked-text"><desc>70.0 mm</desc>
<path d="M4980783 5719306
L5007030 5719306
L4990157 5758676
" />
<path d="M5029527 5719306
L5033277 5719306
L5037026 5721181
L5038901 5723055
L5040776 5726805
L5042650 5734304
L5042650 5743678
L5040776 5751177
L5038901 5754926
L5037026 5756801
L5033277 5758676
L5029527 5758676
L5025777 5756801
L5023903 5754926
L5022028 5751177
L5020153 5743678
L5020153 5734304
L5022028 5726805
L5023903 5723055
L5025777 5721181
L5029527 5719306
" />
<path d="M5059523 5754926
L5061398 5756801
L5059523 5758676
L5057649 5756801
L5059523 5754926
L5059523 5758676
" />
<path d="M5085770 5719306
L5089520 5719306
L5093269 5721181
L5095144 5723055
L5097019 5726805
L5098893 5734304
L5098893 5743678
L5097019 5751177
L5095144 5754926
L5093269 5756801
L5089520 5758676
L5085770 5758676
L5082020 5756801
L5080146 5754926
L5078271 5751177
L5076396 5743678
L5076396 5734304
L5078271 5726805
L5080146 5723055
L5082020 5721181
L5085770 5719306
" />
<path d="M5145762 5758676
L5145762 5732429
" />
<path d="M5145762 5736179
L5147637 5734304
L5151387 5732429
L5157011 5732429
L5160761 5734304
L5162635 5738053
L5162635 5758676
" />
<path d="M5162635 5738053
L5164510 5734304
L5168260 5732429
L5173884 5732429
L5177634 5734304
L5179508 5738053
L5179508 5758676
" />
<path d="M5198256 5758676
L5198256 5732429
" />
<path d="M5198256 5736179
L5200131 5734304
L5203880 5732429
L5209505 5732429
L5213254 5734304
L5215129 5738053
L5215129 5758676
" />
<path d="M5215129 5738053
L5217004 5734304
L5220753 5732429
L5226377 5732429
L5230127 5734304
L5232002 5738053
L5232002 5758676
" />
</g></g>
<g style="fill:#000000; fill-opacity:0.0; 
stroke:#000000; stroke-width:3937.007874; stroke-opacity:1; 
stroke-linecap:round; stroke-linejoin:round;">
<path d="M3730314 5809763
L3730314 5717778
" />
<path d="M6486220 5809763
L6486220 5717778
" />
<path d="M3730314 5740866
L4952521 5740866
" />
<path d="M5264013 5740866
L6486220 5740866
" />
<path d="M3730314 5740866
L3774665 5763953
" />
<path d="M3730314 5740866
L3774665 5717778
" />
<path d="M6486220 5740866
L6441869 5717778
" />
<path d="M6486220 5740866
L6441869 5763953
" />
</g>
<g style="fill:#000000; fill-opacity:0.0; 
stroke:#000000; stroke-width:1968.503937; stroke-opacity:1; 
stroke-linecap:round; stroke-linejoin:round;">
<path d="M6210629 2155511
L5630314 2155511
" />
<path d="M8728194 5669430
L8383670 6014067
" />
<path d="M8271653.554942 6015428.334525 A79248.425197 79248.425197 0.0 0 0 8383670.776420 6014067.863289" />
<path d="M8084645 5828420
L8271653 6015428
" />
<path d="M3435039 2982283
L3435039 4812992
" />
<path d="M4114173 3001968
L4114173 2982283
" />
<path d="M8484251.968504 2549212.598425 A78740.118110 78740.118110 0.0 0 0 8405511.811024 2470472.440945" />
<path d="M8084645.662207 5828420.479518 A2690625.196850 2690625.196850 0.0 0 0 6181102.362205 5039370.078740" />
<path d="M8821863 5444517
L8821863 4723109
" />
<path d="M4035433.070866 4891732.283465 A78740.118110 78740.118110 0.0 0 0 4114173.228346 4812992.125984" />
<path d="M4921259 5088582
L5453937 5088582
" />
<path d="M4153543.307087 3996062.992126 A19685.039370 19685.039370 0.0 0 0 4114173.228346 3996062.992126" />
<path d="M4153543 3996062
L4153543 4596456
" />
<path d="M8728194.644743 5669430.432141 A318328.700787 318328.700787 0.0 0 0 8821863.231417 5444517.598431" />
<path d="M8700787 4153937
L8700787 2984076
" />
<path d="M4114173 3799212
L4114173 3198818
" />
<path d="M7696850.393701,2470472.440945 C6889763.779528,2470472.440945 7559055.118110,2155511.811024 6210629.921260,2155511.811024" />
<path d="M5630314.960630,2155511.811024 C4429133.858268,2155511.811024 5137795.275591,2893700.787402 4232283.464567,2903543.307087" />
<path d="M4153543 3198818
L4153543 3799212
" />
<path d="M4035433 2903543
L3513779 2903543
" />
<path d="M4153543.307087 4793307.086614 A19685.039370 19685.039370 0.0 0 0 4114173.228346 4793307.086614" />
<path d="M8700787.401575,2984076.141732 C8700787.401575,2836614.173228 8484251.968504,2751181.102362 8484251.968504,2604724.409449" />
<path d="M4153543.307087 3198818.897638 A19685.039370 19685.039370 0.0 0 0 4114173.228346 3198818.897638" />
<path d="M4114173.228346 3001968.503937 A19685.039370 19685.039370 0.0 0 0 4153543.307087 3001968.503937" />
<path d="M4114173 4812992
L4114173 4793307
" />
<path d="M4035433 4891732
L3513779 4891732
" />
<path d="M3435039.370079 4812992.125984 A78740.118110 78740.118110 0.0 0 0 3513779.527559 4891732.283465" />
<path d="M8484251 2549212
L8484251 2604724
" />
<path d="M4921259.842520,5088582.677165 C4740944.881890,5088582.677165 4740944.881890,4891732.283465 4561417.322835,4891732.283465" />
<path d="M8821863.228346,4723109.606299 C8821863.228346,4429133.858268 8700787.401575,4429133.858268 8700787.401575,4153937.007874" />
<path d="M4114173.228346 2982283.464567 A78740.118110 78740.118110 0.0 0 0 4035433.070866 2903543.307087" />
<path d="M4114173 4596456
L4114173 3996062
" />
<path d="M4232283.464567 2903543.307087 A78740.118110 78740.118110 0.0 0 0 4153543.307087 2982283.464567" />
<path d="M4561417 4891732
L4232283 4891732
" />
<path d="M4153543 4793307
L4153543 4812992
" />
<path d="M4153543 3001968
L4153543 2982283
" />
<path d="M6181102.362205,5039370.078740 C5688976.377953,5039370.078740 5692125.984252,5088582.677165 5453937.007874,5088582.677165" />
<path d="M8405511 2470472
L7696850 2470472
" />
<path d="M4114173.228346 3799212.598425 A19685.039370 19685.039370 0.0 0 0 4153543.307087 3799212.598425" />
<path d="M4114173.228346 4596456.692913 A19685.039370 19685.039370 0.0 0 0 4153543.307087 4596456.692913" />
<path d="M4153543.307087 4812992.125984 A78740.118110 78740.118110 0.0 0 0 4232283.464567 4891732.283465" />
<path d="M3513779.527559 2903543.307087 A78740.118110 78740.118110 0.0 0 0 3435039.370079 2982283.464567" />
</g>
<g style="fill:#000000; fill-opacity:0.0; 
stroke:#000000; stroke-width:5905.511811; stroke-opacity:1; 
stroke-linecap:round; stroke-linejoin:round;">
<path d="M4890043 4437287
L5500279 4437287
" />
<path d="M5500279 5086893
L4890043 5086893
" />
<path d="M4850673 4476657
L4850673 5047523
" />
<path d="M5539649 4476657
L5539649 5047523
" />
<path d="M4850673.503937 5047523.858268 A39370.196850 39370.196850 0.0 0 0 4890043.582677 5086893.937008" />
<path d="M4890043.582677 4437287.637795 A39370.196850 39370.196850 0.0 0 0 4850673.503937 4476657.716535" />
<path d="M5539649.881890 4476657.716535 A39370.196850 39370.196850 0.0 0 0 5500279.803150 4437287.637795" />
<path d="M5500279.803150 5086893.937008 A39370.196850 39370.196850 0.0 0 0 5539649.881890 5047523.858268" />
<path d="M4084645 4891732
L3474409 4891732
" />
<path d="M3474409 4242125
L4084645 4242125
" />
<path d="M4124015 4281496
L4124015 4852362
" />
<path d="M3435039 4281496
L3435039 4852362
" />
<path d="M3435039.370079 4852362.204724 A39370.196850 39370.196850 0.0 0 0 3474409.448819 4891732.283464" />
<path d="M4124015.748031 4281496.062992 A39370.196850 39370.196850 0.0 0 0 4084645.669291 4242125.984252" />
<path d="M4084645.669291 4891732.283464 A39370.196850 39370.196850 0.0 0 0 4124015.748031 4852362.204724" />
<path d="M3474409.448819 4242125.984252 A39370.196850 39370.196850 0.0 0 0 3435039.370079 4281496.062992" />
<path d="M4143700 4281496
L4143700 4852362
" />
<path d="M4183070 4242125
L4793307 4242125
" />
<path d="M4832677 4281496
L4832677 4852362
" />
<path d="M4793307 4891732
L4183070 4891732
" />
<path d="M4793307.086614 4891732.283464 A39370.196850 39370.196850 0.0 0 0 4832677.165354 4852362.204724" />
<path d="M4143700.787402 4852362.204724 A39370.196850 39370.196850 0.0 0 0 4183070.866142 4891732.283464" />
<path d="M4832677.165354 4281496.062992 A39370.196850 39370.196850 0.0 0 0 4793307.086614 4242125.984252" />
<path d="M4183070.866142 4242125.984252 A39370.196850 39370.196850 0.0 0 0 4143700.787402 4281496.062992" />
<path d="M4084645 3553149
L3474409 3553149
" />
<path d="M4124015 2942913
L4124015 3513779
" />
<path d="M3474409 2903543
L4084645 2903543
" />
<path d="M3435039 2942913
L3435039 3513779
" />
<path d="M4124015.748031 2942913.385827 A39370.196850 39370.196850 0.0 0 0 4084645.669291 2903543.307087" />
<path d="M4084645.669291 3553149.606299 A39370.196850 39370.196850 0.0 0 0 4124015.748031 3513779.527559" />
<path d="M3474409.448819 2903543.307087 A39370.196850 39370.196850 0.0 0 0 3435039.370079 2942913.385827" />
<path d="M3435039.370079 3513779.527559 A39370.196850 39370.196850 0.0 0 0 3474409.448819 3553149.606299" />
<path d="M5541338 2470472
L5541338 3041338
" />
<path d="M5501968 3080708
L4891732 3080708
" />
<path d="M4852362 2470472
L4852362 3041338
" />
<path d="M4891732 2431102
L5501968 2431102
" />
<path d="M5541338.582677 2470472.440945 A39370.196850 39370.196850 0.0 0 0 5501968.503937 2431102.362205" />
<path d="M5501968.503937 3080708.661417 A39370.196850 39370.196850 0.0 0 0 5541338.582677 3041338.582677" />
<path d="M4852362.204725 3041338.582677 A39370.196850 39370.196850 0.0 0 0 4891732.283465 3080708.661417" />
<path d="M4891732.283465 2431102.362205 A39370.196850 39370.196850 0.0 0 0 4852362.204725 2470472.440945" />
<path d="M5561023 2194881
L5561023 2765748
" />
<path d="M5600393 2155511
L6210629 2155511
" />
<path d="M6250000 2194881
L6250000 2765748
" />
<path d="M6210629 2805118
L5600393 2805118
" />
<path d="M6250000.000000 2194881.889764 A39370.196850 39370.196850 0.0 0 0 6210629.921260 2155511.811024" />
<path d="M5600393.700787 2155511.811024 A39370.196850 39370.196850 0.0 0 0 5561023.622047 2194881.889764" />
<path d="M6210629.921260 2805118.110236 A39370.196850 39370.196850 0.0 0 0 6250000.000000 2765748.031496" />
<path d="M5561023.622047 2765748.031496 A39370.196850 39370.196850 0.0 0 0 5600393.700787 2805118.110236" />
<path d="M4143700 3612204
L4143700 4183070
" />
<path d="M4793307 4222440
L4183070 4222440
" />
<path d="M4832677 3612204
L4832677 4183070
" />
<path d="M4183070 3572834
L4793307 3572834
" />
<path d="M4143700.787402 4183070.866142 A39370.196850 39370.196850 0.0 0 0 4183070.866142 4222440.944882" />
<path d="M4793307.086614 4222440.944882 A39370.196850 39370.196850 0.0 0 0 4832677.165354 4183070.866142" />
<path d="M4183070.866142 3572834.645669 A39370.196850 39370.196850 0.0 0 0 4143700.787402 3612204.724409" />
<path d="M4832677.165354 3612204.724409 A39370.196850 39370.196850 0.0 0 0 4793307.086614 3572834.645669" />
<path d="M5501968 3750000
L4891732 3750000
" />
<path d="M5541338 3139763
L5541338 3710629
" />
<path d="M4891732 3100393
L5501968 3100393
" />
<path d="M4852362 3139763
L4852362 3710629
" />
<path d="M5541338.582677 3139763.779528 A39370.196850 39370.196850 0.0 0 0 5501968.503937 3100393.700788" />
<path d="M4891732.283465 3100393.700788 A39370.196850 39370.196850 0.0 0 0 4852362.204725 3139763.779528" />
<path d="M4852362.204725 3710629.921260 A39370.196850 39370.196850 0.0 0 0 4891732.283465 3750000.000000" />
<path d="M5501968.503937 3750000.000000 A39370.196850 39370.196850 0.0 0 0 5541338.582677 3710629.921260" />
<path d="M5600393 2824803
L6210629 2824803
" />
<path d="M6250000 2864173
L6250000 3435039
" />
<path d="M5561023 2864173
L5561023 3435039
" />
<path d="M6210629 3474409
L5600393 3474409
" />
<path d="M5600393.700787 2824803.149606 A39370.196850 39370.196850 0.0 0 0 5561023.622047 2864173.228346" />
<path d="M5561023.622047 3435039.370079 A39370.196850 39370.196850 0.0 0 0 5600393.700787 3474409.448819" />
<path d="M6250000.000000 2864173.228346 A39370.196850 39370.196850 0.0 0 0 6210629.921260 2824803.149606" />
<path d="M6210629.921260 3474409.448819 A39370.196850 39370.196850 0.0 0 0 6250000.000000 3435039.370079" />
<path d="M4852362 3809055
L4852362 4379921
" />
<path d="M5541338 3809055
L5541338 4379921
" />
<path d="M5501968 4419291
L4891732 4419291
" />
<path d="M4891732 3769685
L5501968 3769685
" />
<path d="M4891732.283465 3769685.039370 A39370.196850 39370.196850 0.0 0 0 4852362.204725 3809055.118110" />
<path d="M4852362.204725 4379921.259843 A39370.196850 39370.196850 0.0 0 0 4891732.283465 4419291.338583" />
<path d="M5501968.503937 4419291.338583 A39370.196850 39370.196850 0.0 0 0 5541338.582677 4379921.259843" />
<path d="M5541338.582677 3809055.118110 A39370.196850 39370.196850 0.0 0 0 5501968.503937 3769685.039370" />
<path d="M6250000 3533464
L6250000 4104330
" />
<path d="M6210629 4143700
L5600393 4143700
" />
<path d="M5600393 3494094
L6210629 3494094
" />
<path d="M5561023 3533464
L5561023 4104330
" />
<path d="M5600393.700787 3494094.488189 A39370.196850 39370.196850 0.0 0 0 5561023.622047 3533464.566929" />
<path d="M6210629.921260 4143700.787401 A39370.196850 39370.196850 0.0 0 0 6250000.000000 4104330.708661" />
<path d="M6250000.000000 3533464.566929 A39370.196850 39370.196850 0.0 0 0 6210629.921260 3494094.488189" />
<path d="M5561023.622047 4104330.708661 A39370.196850 39370.196850 0.0 0 0 5600393.700787 4143700.787401" />
<path d="M6958661 2411417
L6958661 2982283
" />
<path d="M6919291 3021653
L6309055 3021653
" />
<path d="M6269685 2411417
L6269685 2982283
" />
<path d="M6309055 2372047
L6919291 2372047
" />
<path d="M6958661.417323 2411417.322835 A39370.196850 39370.196850 0.0 0 0 6919291.338583 2372047.244095" />
<path d="M6309055.118110 2372047.244095 A39370.196850 39370.196850 0.0 0 0 6269685.039370 2411417.322835" />
<path d="M6919291.338583 3021653.543307 A39370.196850 39370.196850 0.0 0 0 6958661.417323 2982283.464567" />
<path d="M6269685.039370 2982283.464567 A39370.196850 39370.196850 0.0 0 0 6309055.118110 3021653.543307" />
<path d="M6978346 2509842
L6978346 3080708
" />
<path d="M7667322 2509842
L7667322 3080708
" />
<path d="M7017716 2470472
L7627952 2470472
" />
<path d="M7627952 3120078
L7017716 3120078
" />
<path d="M7667322.834645 2509842.519685 A39370.196850 39370.196850 0.0 0 0 7627952.755906 2470472.440945" />
<path d="M7017716.535433 2470472.440945 A39370.196850 39370.196850 0.0 0 0 6978346.456693 2509842.519685" />
<path d="M7627952.755906 3120078.740157 A39370.196850 39370.196850 0.0 0 0 7667322.834645 3080708.661417" />
<path d="M6978346.456693 3080708.661417 A39370.196850 39370.196850 0.0 0 0 7017716.535433 3120078.740157" />
<path d="M6958661 3080708
L6958661 3651574
" />
<path d="M6269685 3080708
L6269685 3651574
" />
<path d="M6919291 3690944
L6309055 3690944
" />
<path d="M6309055 3041338
L6919291 3041338
" />
<path d="M6269685.039370 3651574.803150 A39370.196850 39370.196850 0.0 0 0 6309055.118110 3690944.881890" />
<path d="M6919291.338583 3690944.881890 A39370.196850 39370.196850 0.0 0 0 6958661.417323 3651574.803150" />
<path d="M6309055.118110 3041338.582677 A39370.196850 39370.196850 0.0 0 0 6269685.039370 3080708.661417" />
<path d="M6958661.417323 3080708.661417 A39370.196850 39370.196850 0.0 0 0 6919291.338583 3041338.582677" />
<path d="M7017716 3139763
L7627952 3139763
" />
<path d="M7627952 3789370
L7017716 3789370
" />
<path d="M6978346 3179133
L6978346 3750000
" />
<path d="M7667322 3179133
L7667322 3750000
" />
<path d="M6978346.456693 3750000.000000 A39370.196850 39370.196850 0.0 0 0 7017716.535433 3789370.078740" />
<path d="M7627952.755906 3789370.078740 A39370.196850 39370.196850 0.0 0 0 7667322.834645 3750000.000000" />
<path d="M7667322.834645 3179133.858268 A39370.196850 39370.196850 0.0 0 0 7627952.755906 3139763.779528" />
<path d="M7017716.535433 3139763.779528 A39370.196850 39370.196850 0.0 0 0 6978346.456693 3179133.858268" />
<path d="M6309055 3710629
L6919291 3710629
" />
<path d="M6958661 3750000
L6958661 4320866
" />
<path d="M6919291 4360236
L6309055 4360236
" />
<path d="M6269685 3750000
L6269685 4320866
" />
<path d="M6958661.417323 3750000.000000 A39370.196850 39370.196850 0.0 0 0 6919291.338583 3710629.921260" />
<path d="M6309055.118110 3710629.921260 A39370.196850 39370.196850 0.0 0 0 6269685.039370 3750000.000000" />
<path d="M6269685.039370 4320866.141732 A39370.196850 39370.196850 0.0 0 0 6309055.118110 4360236.220472" />
<path d="M6919291.338583 4360236.220472 A39370.196850 39370.196850 0.0 0 0 6958661.417323 4320866.141732" />
<path d="M7667322 3848425
L7667322 4419291
" />
<path d="M7017716 3809055
L7627952 3809055
" />
<path d="M6978346 3848425
L6978346 4419291
" />
<path d="M7627952 4458661
L7017716 4458661
" />
<path d="M7017716.535433 3809055.118110 A39370.196850 39370.196850 0.0 0 0 6978346.456693 3848425.196850" />
<path d="M7627952.755906 4458661.417323 A39370.196850 39370.196850 0.0 0 0 7667322.834645 4419291.338583" />
<path d="M7667322.834645 3848425.196850 A39370.196850 39370.196850 0.0 0 0 7627952.755906 3809055.118110" />
<path d="M6978346.456693 4419291.338583 A39370.196850 39370.196850 0.0 0 0 7017716.535433 4458661.417323" />
<path d="M5856299 4990157
L5856299 4419291
" />
<path d="M6505905 5029527
L5895669 5029527
" />
<path d="M6545275 4990157
L6545275 4419291
" />
<path d="M5895669 4379921
L6505905 4379921
" />
<path d="M5895669.291339 4379921.259843 A39370.196850 39370.196850 0.0 0 0 5856299.212599 4419291.338583" />
<path d="M5856299.212599 4990157.480315 A39370.196850 39370.196850 0.0 0 0 5895669.291339 5029527.559055" />
<path d="M6505905.511811 5029527.559055 A39370.196850 39370.196850 0.0 0 0 6545275.590551 4990157.480315" />
<path d="M6545275.590551 4419291.338583 A39370.196850 39370.196850 0.0 0 0 6505905.511811 4379921.259843" />
<path d="M4832677 2942913
L4832677 3513779
" />
<path d="M4183070 2903543
L4793307 2903543
" />
<path d="M4793307 3553149
L4183070 3553149
" />
<path d="M4143700 2942913
L4143700 3513779
" />
<path d="M4183070.866142 2903543.307087 A39370.196850 39370.196850 0.0 0 0 4143700.787402 2942913.385827" />
<path d="M4832677.165354 2942913.385827 A39370.196850 39370.196850 0.0 0 0 4793307.086614 2903543.307087" />
<path d="M4143700.787402 3513779.527559 A39370.196850 39370.196850 0.0 0 0 4183070.866142 3553149.606299" />
<path d="M4793307.086614 3553149.606299 A39370.196850 39370.196850 0.0 0 0 4832677.165354 3513779.527559" />
<path d="M6762178 4425666
L7351621 4583607
" />
<path d="M7231709 5183239
L7379460 4631825
" />
<path d="M7183490 5211078
L6594047 5053138
" />
<path d="M6566209 5004919
L6713960 4453505
" />
<path d="M6566209.166686 5004919.772576 A39370.078740 39370.078740 0.0 0 0 6594047.996354 5053138.015717" />
<path d="M7183490.904118 5211078.824099 A39370.118110 39370.118110 0.0 0 0 7231709.198115 5183239.956749" />
<path d="M7379460.203393 4631825.581755 A39370.078740 39370.078740 0.0 0 0 7351621.373725 4583607.338614" />
<path d="M6762178.465961 4425666.530232 A39370.118110 39370.118110 0.0 0 0 6713960.171964 4453505.397582" />
<path d="M8137047 5045127
L7851614 5539511
" />
<path d="M7594156 4686228
L8122636 4991346
" />
<path d="M7797833 5553922
L7269353 5248804
" />
<path d="M7540376 4700639
L7254943 5195023
" />
<path d="M7797833.649259 5553922.393812 A39370.078740 39370.078740 0.0 0 0 7851614.128733 5539511.965545" />
<path d="M8137047.221215 5045127.411096 A39370.118110 39370.118110 0.0 0 0 8122636.771332 4991346.850951" />
<path d="M7254943.093746 5195023.770007 A39370.118110 39370.118110 0.0 0 0 7269353.543629 5248804.330152" />
<path d="M7594156.665702 4686228.787290 A39370.078740 39370.078740 0.0 0 0 7540376.186227 4700639.215557" />
<path d="M8132479 4974299
L7603999 4669181
" />
<path d="M8471692 4465504
L8186259 4959888
" />
<path d="M7875021 4121015
L7589588 4615400
" />
<path d="M7928802 4106605
L8457282 4411723
" />
<path d="M7928802.334993 4106605.480203 A39370.078740 39370.078740 0.0 0 0 7875021.855519 4121015.908471" />
<path d="M8132479.318550 4974299.086726 A39370.078740 39370.078740 0.0 0 0 8186259.798025 4959888.658458" />
<path d="M8471692.890506 4465504.104009 A39370.118110 39370.118110 0.0 0 0 8457282.440623 4411723.543864" />
<path d="M7589588.763037 4615400.462920 A39370.118110 39370.118110 0.0 0 0 7603999.212920 4669181.023065" />
<path d="M8354370 6043502
L8758033 5639838
" />
<path d="M7867190 5556322
L8270853 5152659
" />
<path d="M8298692 6043502
L7867190 5612000
" />
<path d="M8326531 5152659
L8758033 5584161
" />
<path d="M8326531.554657 5152659.035894 A39370.118110 39370.118110 0.0 0 0 8270853.858729 5152659.055579" />
<path d="M8298692.697311 6043502.223949 A39370.118110 39370.118110 0.0 0 0 8354370.393240 6043502.204264" />
<path d="M8758033.672488 5639838.869338 A39370.078740 39370.078740 0.0 0 0 8758033.692173 5584161.229087" />
<path d="M7867190.579481 5556322.390504 A39370.078740 39370.078740 0.0 0 0 7867190.559796 5612000.030755" />
<path d="M3474409 3572834
L4084645 3572834
" />
<path d="M4084645 4222440
L3474409 4222440
" />
<path d="M3435039 3612204
L3435039 4183070
" />
<path d="M4124015 3612204
L4124015 4183070
" />
<path d="M4124015.748031 3612204.724409 A39370.196850 39370.196850 0.0 0 0 4084645.669291 3572834.645669" />
<path d="M4084645.669291 4222440.944882 A39370.196850 39370.196850 0.0 0 0 4124015.748031 4183070.866142" />
<path d="M3474409.448819 3572834.645669 A39370.196850 39370.196850 0.0 0 0 3435039.370079 3612204.724409" />
<path d="M3435039.370079 4183070.866142 A39370.196850 39370.196850 0.0 0 0 3474409.448819 4222440.944882" />
<g >
</g>
<g >
</g>
<g >
</g>
<g >
</g>
<g >
</g>
<g >
</g>
<g >
</g>
<g >
</g>
<g >
</g>
<g >
</g>
<g >
</g>
<g >
</g>
<g >
</g>
<g >
</g>
<g >
</g>
<g >
</g>
<g >
</g>
<g >
</g>
<g >
</g>
<g >
</g>
<g >
</g>
<g >
</g>
<g >
</g>
<g >
</g>
<g >
</g>
<g >
</g>
<g >
</g>
<g >
</g>
<g >
</g>
<g >
</g>
<g >
</g>
<g >
</g>
<g >
</g>
<g >
</g>
<g >
</g>
<g >
</g>
<g >
</g>
<g >
</g>
<g >
</g>
<g >
</g>
<g >
</g>
<g >
</g>
<g >
</g>
<g >
</g>
<g >
</g>
<g >
</g>
<g >
</g>
<g >
</g>
<g >
</g>
<g >
</g>
<g >
</g>
<g >
</g>
<g >
</g>
<g >
</g>
<g >
</g>
<g >
</g>
<g >
</g>
<g >
</g>
<g >
</g>
<g >
</g>
<g >
</g>
<g >
</g>
<g >
</g>
<g >
</g>
</g> 
</svg>
