<?xml version="1.0" standalone="no"?>
 <!DOCTYPE svg PUBLIC "-//W3C//DTD SVG 1.1//EN" 
 "http://www.w3.org/Graphics/SVG/1.1/DTD/svg11.dtd"> 
<svg
  xmlns:svg="http://www.w3.org/2000/svg"
  xmlns="http://www.w3.org/2000/svg"
  xmlns:xlink="http://www.w3.org/1999/xlink"
  version="1.1"
  width="13.657580cm" height="9.791700cm" viewBox="0 0 53770 38550">
<title>SVG Picture created as hillside-brd.svg date 2021/11/09 11:20:03 </title>
  <desc>Picture generated by PCBNEW </desc>
<g style="fill:#000000; fill-opacity:1;stroke:#000000; stroke-opacity:1;
stroke-linecap:round; stroke-linejoin:round;"
 transform="translate(0 0) scale(1 1)">
</g>
<g style="fill:#000000; fill-opacity:0.0; 
stroke:#000000; stroke-width:-0.000393701; stroke-opacity:1; 
stroke-linecap:round; stroke-linejoin:round;">
</g>
<g style="fill:#000000; fill-opacity:0.0; 
stroke:#000000; stroke-width:59.0551; stroke-opacity:1; 
stroke-linecap:round; stroke-linejoin:round;">
<path d="M33523.9 28317 A393.701 393.701 0.0 0 0 33917.6 28710.7" />
<path d="M33917.6 23277.7 A393.701 393.701 0.0 0 0 33523.9 23671.4" />
<path d="M38957 23671.4 A393.701 393.701 0.0 0 0 38563.3 23277.7" />
<path d="M38563.3 28710.7 A393.701 393.701 0.0 0 0 38957 28317" />
<path d="M33523 23671
L33523 28317
" />
<path d="M38563 23277
L33917 23277
" />
<path d="M38957 28317
L38957 23671
" />
<path d="M33917 28710
L38563 28710
" />
<path d="M45649.9 26742.2 A393.701 393.701 0.0 0 0 46043.6 26348.5" />
<path d="M46043.6 21702.9 A393.701 393.701 0.0 0 0 45649.9 21309.1" />
<path d="M41004.3 21309.1 A393.701 393.701 0.0 0 0 40610.6 21702.9" />
<path d="M40610.6 26348.5 A393.701 393.701 0.0 0 0 41004.3 26742.2" />
<path d="M40610 21702
L40610 26348
" />
<path d="M45649 21309
L41004 21309
" />
<path d="M46043 26348
L46043 21702
" />
<path d="M41004 26742
L45649 26742
" />
<path d="M45649.9 20049.3 A393.701 393.701 0.0 0 0 46043.6 19655.6" />
<path d="M46043.6 15009.9 A393.701 393.701 0.0 0 0 45649.9 14616.2" />
<path d="M41004.3 14616.2 A393.701 393.701 0.0 0 0 40610.6 15009.9" />
<path d="M40610.6 19655.6 A393.701 393.701 0.0 0 0 41004.3 20049.3" />
<path d="M40610 15009
L40610 19655
" />
<path d="M45649 14616
L41004 14616
" />
<path d="M46043 19655
L46043 15009
" />
<path d="M41004 20049
L45649 20049
" />
<path d="M52736.5 20049.3 A393.701 393.701 0.0 0 0 53130.2 19655.6" />
<path d="M53130.2 15009.9 A393.701 393.701 0.0 0 0 52736.5 14616.2" />
<path d="M48090.9 14616.2 A393.701 393.701 0.0 0 0 47697.2 15009.9" />
<path d="M47697.2 19655.6 A393.701 393.701 0.0 0 0 48090.9 20049.3" />
<path d="M47697 15009
L47697 19655
" />
<path d="M52736 14616
L48090 14616
" />
<path d="M53130 19655
L53130 15009
" />
<path d="M48090 20049
L52736 20049
" />
<path d="M8646.23 34615.6 A393.701 393.701 0.0 0 0 8646.23 34058.8" />
<path d="M5361.24 30773.8 A393.701 393.701 0.0 0 0 4804.47 30773.8" />
<path d="M1519.48 34058.8 A393.701 393.701 0.0 0 0 1519.48 34615.6" />
<path d="M4804.47 37900.6 A393.701 393.701 0.0 0 0 5361.24 37900.6" />
<path d="M1519 34615
L4804 37900
" />
<path d="M4804 30773
L1519 34058
" />
<path d="M8646 34058
L5361 30773
" />
<path d="M5361 37900
L8646 34615
" />
<path d="M11272.5 24952.1 A393.701 393.701 0.0 0 0 11416.6 24414.3" />
<path d="M9093.74 20391 A393.701 393.701 0.0 0 0 8555.93 20246.9" />
<path d="M4532.67 22569.7 A393.701 393.701 0.0 0 0 4388.56 23107.6" />
<path d="M6711.4 27130.8 A393.701 393.701 0.0 0 0 7249.2 27274.9" />
<path d="M4388 23107
L6711 27130
" />
<path d="M8555 20246
L4532 22569
" />
<path d="M11416 24414
L9093 20391
" />
<path d="M7249 27274
L11272 24952
" />
<path d="M14618.9 30748.3 A393.701 393.701 0.0 0 0 14763 30210.5" />
<path d="M12440.2 26187.2 A393.701 393.701 0.0 0 0 11902.4 26043.1" />
<path d="M7879.12 28366 A393.701 393.701 0.0 0 0 7735.02 28903.8" />
<path d="M10057.9 32927.1 A393.701 393.701 0.0 0 0 10595.7 33071.2" />
<path d="M7735 28903
L10057 32927
" />
<path d="M11902 26043
L7879 28365
" />
<path d="M14763 30210
L12440 26187
" />
<path d="M10595 33071
L14618 30748
" />
<path d="M21427.4 28562.9 A393.701 393.701 0.0 0 0 21705.8 28080.7" />
<path d="M20503.4 23593.3 A393.701 393.701 0.0 0 0 20021.2 23315" />
<path d="M15533.9 24517.3 A393.701 393.701 0.0 0 0 15255.5 24999.5" />
<path d="M16457.9 29486.9 A393.701 393.701 0.0 0 0 16940 29765.3" />
<path d="M15255 24999
L16457 29486
" />
<path d="M20021 23314
L15533 24517
" />
<path d="M21705 28080
L20503 23593
" />
<path d="M16940 29765
L21427 28562
" />
<path d="M28523.9 28120.2 A393.701 393.701 0.0 0 0 28917.6 27726.5" />
<path d="M28917.6 23080.8 A393.701 393.701 0.0 0 0 28523.9 22687.1" />
<path d="M23878.3 22687.1 A393.701 393.701 0.0 0 0 23484.6 23080.8" />
<path d="M23484.6 27726.5 A393.701 393.701 0.0 0 0 23878.3 28120.2" />
<path d="M23484 23080
L23484 27726
" />
<path d="M28523 22687
L23878 22687
" />
<path d="M28917 27726
L28917 23080
" />
<path d="M23878 28120
L28523 28120
" />
<path d="M17303.5 22411.5 A393.701 393.701 0.0 0 0 17697.2 22017.8" />
<path d="M17697.2 17372.1 A393.701 393.701 0.0 0 0 17303.5 16978.4" />
<path d="M12657.8 16978.4 A393.701 393.701 0.0 0 0 12264.1 17372.1" />
<path d="M12264.1 22017.8 A393.701 393.701 0.0 0 0 12657.8 22411.5" />
<path d="M12264 17372
L12264 22017
" />
<path d="M17303 16978
L12657 16978
" />
<path d="M17697 22017
L17697 17372
" />
<path d="M12657 22411
L17303 22411
" />
<path d="M24390.1 21427.3 A393.701 393.701 0.0 0 0 24783.8 21033.6" />
<path d="M24783.8 16387.9 A393.701 393.701 0.0 0 0 24390.1 15994.2" />
<path d="M19744.4 15994.2 A393.701 393.701 0.0 0 0 19350.7 16387.9" />
<path d="M19350.7 21033.6 A393.701 393.701 0.0 0 0 19744.4 21427.3" />
<path d="M19350 16387
L19350 21033
" />
<path d="M24390 15994
L19744 15994
" />
<path d="M24783 21033
L24783 16387
" />
<path d="M19744 21427
L24390 21427
" />
<path d="M17303.5 15718.6 A393.701 393.701 0.0 0 0 17697.2 15324.9" />
<path d="M17697.2 10679.2 A393.701 393.701 0.0 0 0 17303.5 10285.5" />
<path d="M12657.8 10285.5 A393.701 393.701 0.0 0 0 12264.1 10679.2" />
<path d="M12264.1 15324.9 A393.701 393.701 0.0 0 0 12657.8 15718.6" />
<path d="M12264 10679
L12264 15324
" />
<path d="M17303 10285
L12657 10285
" />
<path d="M17697 15324
L17697 10679
" />
<path d="M12657 15718
L17303 15718
" />
<path d="M24390.1 14734.3 A393.701 393.701 0.0 0 0 24783.8 14340.6" />
<path d="M24783.8 9694.98 A393.701 393.701 0.0 0 0 24390.1 9301.28" />
<path d="M19744.4 9301.28 A393.701 393.701 0.0 0 0 19350.7 9694.98" />
<path d="M19350.7 14340.6 A393.701 393.701 0.0 0 0 19744.4 14734.3" />
<path d="M19350 9694
L19350 14340
" />
<path d="M24390 9301
L19744 9301
" />
<path d="M24783 14340
L24783 9694
" />
<path d="M19744 14734
L24390 14734
" />
<path d="M17303.5 9025.69 A393.701 393.701 0.0 0 0 17697.2 8631.98" />
<path d="M17697.2 3986.32 A393.701 393.701 0.0 0 0 17303.5 3592.61" />
<path d="M12657.8 3592.61 A393.701 393.701 0.0 0 0 12264.1 3986.32" />
<path d="M12264.1 8631.98 A393.701 393.701 0.0 0 0 12657.8 9025.69" />
<path d="M12264 3986
L12264 8631
" />
<path d="M17303 3592
L12657 3592
" />
<path d="M17697 8631
L17697 3986
" />
<path d="M12657 9025
L17303 9025
" />
<path d="M24390.1 8041.43 A393.701 393.701 0.0 0 0 24783.8 7647.73" />
<path d="M24783.8 3002.06 A393.701 393.701 0.0 0 0 24390.1 2608.36" />
<path d="M19744.4 2608.36 A393.701 393.701 0.0 0 0 19350.7 3002.06" />
<path d="M19350.7 7647.73 A393.701 393.701 0.0 0 0 19744.4 8041.43" />
<path d="M19350 3002
L19350 7647
" />
<path d="M24390 2608
L19744 2608
" />
<path d="M24783 7647
L24783 3002
" />
<path d="M19744 8041
L24390 8041
" />
<path d="M31476.7 19261.9 A393.701 393.701 0.0 0 0 31870.4 18868.2" />
<path d="M31870.4 14222.5 A393.701 393.701 0.0 0 0 31476.7 13828.8" />
<path d="M26831 13828.8 A393.701 393.701 0.0 0 0 26437.3 14222.5" />
<path d="M26437.3 18868.2 A393.701 393.701 0.0 0 0 26831 19261.9" />
<path d="M26437 14222
L26437 18868
" />
<path d="M31476 13828
L26831 13828
" />
<path d="M31870 18868
L31870 14222
" />
<path d="M26831 19261
L31476 19261
" />
<path d="M38563.3 22017.8 A393.701 393.701 0.0 0 0 38957 21624.1" />
<path d="M38957 16978.4 A393.701 393.701 0.0 0 0 38563.3 16584.7" />
<path d="M33917.6 16584.7 A393.701 393.701 0.0 0 0 33523.9 16978.4" />
<path d="M33523.9 21624.1 A393.701 393.701 0.0 0 0 33917.6 22017.8" />
<path d="M33523 16978
L33523 21624
" />
<path d="M38563 16584
L33917 16584
" />
<path d="M38957 21624
L38957 16978
" />
<path d="M33917 22017
L38563 22017
" />
<path d="M31476.7 12569 A393.701 393.701 0.0 0 0 31870.4 12175.3" />
<path d="M31870.4 7529.62 A393.701 393.701 0.0 0 0 31476.7 7135.92" />
<path d="M26831 7135.92 A393.701 393.701 0.0 0 0 26437.3 7529.62" />
<path d="M26437.3 12175.3 A393.701 393.701 0.0 0 0 26831 12569" />
<path d="M26437 7529
L26437 12175
" />
<path d="M31476 7135
L26831 7135
" />
<path d="M31870 12175
L31870 7529
" />
<path d="M26831 12568
L31476 12568
" />
<path d="M38563.3 15324.9 A393.701 393.701 0.0 0 0 38957 14931.2" />
<path d="M38957 10285.5 A393.701 393.701 0.0 0 0 38563.3 9891.83" />
<path d="M33917.6 9891.83 A393.701 393.701 0.0 0 0 33523.9 10285.5" />
<path d="M33523.9 14931.2 A393.701 393.701 0.0 0 0 33917.6 15324.9" />
<path d="M33523 10285
L33523 14931
" />
<path d="M38563 9891
L33917 9891
" />
<path d="M38957 14931
L38957 10285
" />
<path d="M33917 15324
L38563 15324
" />
<path d="M52736.5 26742.2 A393.701 393.701 0.0 0 0 53130.2 26348.5" />
<path d="M53130.2 21702.9 A393.701 393.701 0.0 0 0 52736.5 21309.1" />
<path d="M48090.9 21309.1 A393.701 393.701 0.0 0 0 47697.2 21702.9" />
<path d="M47697.2 26348.5 A393.701 393.701 0.0 0 0 48090.9 26742.2" />
<path d="M47697 21702
L47697 26348
" />
<path d="M52736 21309
L48090 21309
" />
<path d="M53130 26348
L53130 21702
" />
<path d="M48090 26742
L52736 26742
" />
<path d="M45649.9 13356.4 A393.701 393.701 0.0 0 0 46043.6 12962.7" />
<path d="M46043.6 8317.02 A393.701 393.701 0.0 0 0 45649.9 7923.32" />
<path d="M41004.3 7923.32 A393.701 393.701 0.0 0 0 40610.6 8317.02" />
<path d="M40610.6 12962.7 A393.701 393.701 0.0 0 0 41004.3 13356.4" />
<path d="M40610 8317
L40610 12962
" />
<path d="M45649 7923
L41004 7923
" />
<path d="M46043 12962
L46043 8317
" />
<path d="M41004 13356
L45649 13356
" />
<path d="M31476.7 5876.08 A393.701 393.701 0.0 0 0 31870.4 5482.38" />
<path d="M31870.4 836.709 A393.701 393.701 0.0 0 0 31476.7 443.008" />
<path d="M26831 443.008 A393.701 393.701 0.0 0 0 26437.3 836.709" />
<path d="M26437.3 5482.38 A393.701 393.701 0.0 0 0 26831 5876.08" />
<path d="M26437 836
L26437 5482
" />
<path d="M31476 443
L26831 443
" />
<path d="M31870 5482
L31870 836
" />
<path d="M26831 5876
L31476 5876
" />
<path d="M38563.3 8631.98 A393.701 393.701 0.0 0 0 38957 8238.28" />
<path d="M38957 3592.61 A393.701 393.701 0.0 0 0 38563.3 3198.91" />
<path d="M33917.6 3198.91 A393.701 393.701 0.0 0 0 33523.9 3592.61" />
<path d="M33523.9 8238.28 A393.701 393.701 0.0 0 0 33917.6 8631.98" />
<path d="M33523 3592
L33523 8238
" />
<path d="M38563 3198
L33917 3198
" />
<path d="M38957 8238
L38957 3592
" />
<path d="M33917 8631
L38563 8631
" />
<path d="M52736.5 13356.4 A393.701 393.701 0.0 0 0 53130.2 12962.7" />
<path d="M53130.2 8317.02 A393.701 393.701 0.0 0 0 52736.5 7923.32" />
<path d="M48090.9 7923.32 A393.701 393.701 0.0 0 0 47697.2 8317.02" />
<path d="M47697.2 12962.7 A393.701 393.701 0.0 0 0 48090.9 13356.4" />
<path d="M47697 8317
L47697 12962
" />
<path d="M52736 7923
L48090 7923
" />
<path d="M53130 12962
L53130 8317
" />
<path d="M48090 13356
L52736 13356
" />
<g >
</g>
<g >
</g>
<g >
</g>
<g >
</g>
<g >
</g>
<g >
</g>
<g >
</g>
<g >
</g>
<g >
</g>
<g >
</g>
<g >
</g>
<g >
</g>
<g >
</g>
<g >
</g>
<g >
</g>
<g >
</g>
<g >
</g>
<g >
</g>
<g >
</g>
<g >
</g>
<g >
</g>
<g >
</g>
<g >
</g>
<g >
</g>
<g >
</g>
<g >
</g>
<g >
</g>
<g >
</g>
<g >
</g>
<g >
</g>
<g >
</g>
<g >
</g>
<g >
</g>
<g >
</g>
<g >
</g>
<g >
</g>
<g >
</g>
<g >
</g>
<g >
</g>
<g >
</g>
<g >
</g>
<g >
</g>
<g >
</g>
<g >
</g>
<g >
</g>
<g >
</g>
<g >
</g>
<g >
</g>
<g >
</g>
<g >
</g>
<g >
</g>
<g >
</g>
<g >
</g>
<g >
</g>
<g >
</g>
<g >
</g>
<g >
</g>
<g >
</g>
<g >
</g>
<g >
</g>
<g >
</g>
<g >
</g>
<g >
</g>
<g >
</g>
<g >
</g>
<g >
</g>
<g >
</g>
<g >
</g>
<g >
</g>
<g >
</g>
<g >
</g>
<g >
</g>
<g >
</g>
<g >
</g>
<g >
</g>
<g >
</g>
<g >
</g>
<g >
</g>
</g>
<g style="fill:#000000; fill-opacity:0.0; 
stroke:#000000; stroke-width:59.0551; stroke-opacity:1; 
stroke-linecap:round; stroke-linejoin:round;">
</g>
<g style="fill:#000000; fill-opacity:0.0; 
stroke:#000000; stroke-width:59.0551; stroke-opacity:1; 
stroke-linecap:round; stroke-linejoin:round;">
<path d="M47067 8474
L47067 8277
" />
<path d="M47067 26387
L47067 26191
" />
<path d="M46673 26191
L46673 26387
" />
<path d="M0.314536 32608.4 A3183.29 3183.29 0.0 0 0 937 34857.5" />
<path d="M8685.35 4266.67 A4441.26 4441.26 0.0 0 0 10988.5 3628.05" />
<path d="M32658.3 111.932 A2826.77 2826.77 0.0 0 0 31905.8 9.9374" />
<path d="M142.047 24368.2 A3937.04 3937.04 0.0 0 0 1.73228 25394.3" />
<path d="M1063.31 20921.8 A3937.04 3937.04 0.0 0 0 1203.62 19895.8" />
<path d="M1063 20921
L142 24368
" />
<path d="M3366 5053
L3366 5509
" />
<path d="M2789 6901
L1779 7911
" />
<path d="M2789.89 6901.88 A1968.5 1968.5 0.0 0 0 3366.46 5509.94" />
<path d="M1779.84 7911.51 A1968.5 1968.5 0.0 0 0 1203.28 9303.45" />
<path d="M1203 19895
L1203 9303
" />
<path d="M33669 29143
L26338 28635
" />
<path d="M52972.8 27175.3 A787.402 787.402 0.0 0 0 53760.2 26387.9" />
<path d="M26338.9 28635.2 A26906.3 26906.3 0.0 0 0 7303.46 36525.7" />
<path d="M42594.8 27175.3 A1968.5 1968.5 0.0 0 0 41202.9 27751.9" />
<path d="M38996.4 29143.8 A1968.5 1968.5 0.0 0 0 40388.3 28567.2" />
<path d="M47067.2 26191 A196.85 196.85 0.0 0 0 46673.5 26191" />
<path d="M4153.86 4265.84 A787.402 787.402 0.0 0 0 3366.46 5053.24" />
<path d="M46671 8080
L46673 8474
" />
<path d="M46671.7 8080.8 A785.557 785.557 0.0 0 0 46495.8 7585.4" />
<path d="M47854.6 7490.25 A787.402 787.402 0.0 0 0 47067.2 8277.65" />
<path d="M46673.5 8474.5 A196.85 196.85 0.0 0 0 47067.2 8474.5" />
<path d="M47067.2 26387.9 A787.402 787.402 0.0 0 0 47854.6 27175.3" />
<path d="M53760.2 8277.65 A787.402 787.402 0.0 0 0 52972.8 7490.25" />
<path d="M53760 8277
L53760 26387
" />
<path d="M47854 27175
L52972 27175
" />
<path d="M0 32608
L1 25394
" />
<path d="M38996 29143
L33669 29143
" />
<path d="M4382.24 38303.9 A792.484 792.484 0.0 0 0 5502.41 38317.5" />
<path d="M937 34857
L4382 38303
" />
<path d="M7303 36525
L5502 38317
" />
<path d="M42594 27175
L45886 27175
" />
<path d="M45886.1 27175.3 A787.402 787.402 0.0 0 0 46673.5 26387.9" />
<path d="M26004 9
L31905 9
" />
<path d="M41202 27751
L40388 28567
" />
<path d="M8685 4266
L4153 4265
" />
<path d="M46495.8 7585.4 A33626.1 33626.1 0.0 0 0 32658.3 111.932" />
<path d="M26004.3 9.84291 A32967.2 32967.2 0.0 0 0 10988.5 3628.05" />
<path d="M47854 7490
L52972 7490
" />
<g >
</g>
<g >
</g>
<g >
</g>
<g >
</g>
<g >
</g>
<g >
</g>
<g >
</g>
<g >
</g>
<g >
</g>
<g >
</g>
<g >
</g>
<g >
</g>
<g >
</g>
<g >
</g>
<g >
</g>
<g >
</g>
<g >
</g>
<g >
</g>
<g >
</g>
<g >
</g>
<g >
</g>
<g >
</g>
<g >
</g>
<g >
</g>
<g >
</g>
<g >
</g>
<g >
</g>
<g >
</g>
<g >
</g>
<g >
</g>
<g >
</g>
<g >
</g>
<g >
</g>
<g >
</g>
<g >
</g>
<g >
</g>
<g >
</g>
<g >
</g>
<g >
</g>
<g >
</g>
<g >
</g>
<g >
</g>
<g >
</g>
<g >
</g>
<g >
</g>
<g >
</g>
<g >
</g>
<g >
</g>
<g >
</g>
<g >
</g>
<g >
</g>
<g >
</g>
<g >
</g>
<g >
</g>
<g >
</g>
<g >
</g>
<g >
</g>
<g >
</g>
<g >
</g>
<g >
</g>
<g >
</g>
<g >
</g>
<g >
</g>
<g >
</g>
<g >
</g>
<g >
</g>
<g >
</g>
<g >
</g>
<g >
</g>
<g >
</g>
<g >
</g>
<g >
</g>
<g >
</g>
<g >
</g>
<g >
</g>
<g >
</g>
<g >
</g>
<g >
</g>
</g> 
</svg>
