M48
; DRILL file {KiCad (5.1.10-1-10_14)} date Tuesday, November 02, 2021 at 05:36:50 PM
; FORMAT={-:-/ absolute / metric / decimal}
; #@! TF.CreationDate,2021-11-02T17:36:50-07:00
; #@! TF.GenerationSoftware,Kicad,Pcbnew,(5.1.10-1-10_14)
; #@! TF.FileFunction,Plated,1,2,PTH
FMAT,2
METRIC
T1C0.400
T2C0.700
T3C0.813
T4C0.900
T5C1.000
T6C1.200
T7C1.700
T8C2.200
T9C2.500
%
G90
G05
T1
X102.69Y-124.14
X108.14Y-101.45
X110.95Y-102.7
X111.0Y-81.55
X111.0Y-100.2
X111.16Y-119.86
X116.3Y-81.55
X116.3Y-98.55
X116.3Y-115.55
X118.0Y-77.65
X118.0Y-94.65
X118.0Y-111.65
X119.7Y-81.55
X119.7Y-98.55
X119.7Y-115.55
X121.08Y-97.4
X125.96Y-89.81
X126.027Y-120.957
X126.2Y-124.06
X127.02Y-115.14
X127.963Y-115.11
X129.49Y-95.5
X129.785Y-117.451
X132.22Y-103.5
X133.5Y-121.0
X134.3Y-69.55
X134.3Y-86.55
X134.3Y-103.55
X135.459Y-115.051
X135.899Y-115.959
X136.0Y-65.65
X136.0Y-82.65
X136.0Y-99.65
X137.7Y-69.55
X137.7Y-86.55
X137.7Y-103.55
X138.79Y-98.19
X139.44Y-101.72
X140.99Y-95.84
X146.03Y-105.47
X146.14Y-101.22
X146.39Y-92.32
X146.66Y-77.35
X147.6Y-76.64
X152.3Y-96.55
X154.0Y-92.65
X155.7Y-96.55
X156.023Y-114.139
X157.02Y-114.83
X157.676Y-113.661
X158.114Y-93.686
X159.04Y-101.3
X164.18Y-90.29
X165.261Y-113.727
X165.52Y-115.014
X167.39Y-98.22
X167.515Y-95.245
X168.65Y-95.92
X169.9Y-117.87
X170.29Y-107.5
X170.3Y-68.05
X170.3Y-85.05
X170.3Y-102.05
X172.0Y-64.15
X172.0Y-81.15
X172.0Y-98.15
X173.7Y-68.05
X173.7Y-85.05
X173.7Y-102.05
X175.046Y-98.883
X175.82Y-96.61
X177.89Y-114.83
X178.01Y-115.97
X179.446Y-116.036
X180.07Y-74.53
X181.62Y-103.34
X182.48Y-94.99
X185.02Y-86.61
X185.94Y-97.03
X186.75Y-119.33
X186.91Y-113.0
X187.19Y-118.01
X188.3Y-104.55
X190.0Y-100.65
X191.7Y-104.55
X193.24Y-100.26
X193.59Y-96.33
X193.64Y-75.8
X193.92Y-106.09
X193.93Y-92.57
X195.22Y-103.0
X197.31Y-96.53
X197.948Y-97.552
X197.948Y-125.838
X198.6Y-101.37
X198.99Y-125.53
X199.625Y-122.728
X200.404Y-123.496
X201.12Y-104.09
X203.37Y-117.75
X203.93Y-86.1
X203.97Y-88.7
X203.99Y-101.3
X204.0Y-83.6
X204.0Y-96.3
X204.002Y-93.742
X204.01Y-98.8
X204.07Y-91.2
X204.68Y-106.22
X205.07Y-73.42
X205.1Y-75.96
X205.16Y-83.58
X205.16Y-93.74
X205.16Y-96.28
X205.17Y-91.2
X205.23Y-86.12
X205.24Y-88.66
X205.27Y-101.36
X205.28Y-98.83
X205.64Y-106.762
X206.943Y-127.222
X207.38Y-72.16
X207.4Y-70.03
X207.41Y-123.78
X207.792Y-127.714
X208.2Y-136.55
X208.45Y-81.02
X208.849Y-121.639
X209.55Y-101.99
X210.48Y-71.425
X210.84Y-101.99
X211.6Y-70.03
X211.63Y-74.69
X211.985Y-108.126
X212.44Y-110.84
X212.78Y-134.55
X212.94Y-82.312
X213.44Y-111.45
X213.708Y-78.502
X214.388Y-84.852
X216.024Y-141.403
X218.428Y-143.807
X218.8Y-101.96
X219.984Y-139.848
X220.86Y-89.36
X220.86Y-93.56
X220.86Y-95.38
X220.86Y-99.58
X223.28Y-93.48
T2
X222.85Y-137.1
X226.55Y-137.1
T3
X201.11Y-73.422
X201.11Y-75.962
X201.11Y-78.502
X201.11Y-81.042
X201.11Y-83.582
X201.11Y-86.122
X201.11Y-88.662
X201.11Y-91.202
X201.11Y-93.742
X201.11Y-96.282
X201.11Y-98.822
X201.11Y-101.362
X202.436Y-72.152
X202.436Y-74.692
X202.436Y-77.232
X202.436Y-79.772
X202.436Y-82.312
X202.436Y-84.852
X202.436Y-87.392
X202.436Y-89.932
X202.436Y-92.472
X202.436Y-95.012
X202.436Y-97.552
X202.436Y-100.092
X204.9Y-70.1
X213.8Y-70.1
X216.35Y-73.422
X216.35Y-75.962
X216.35Y-78.502
X216.35Y-81.042
X216.35Y-83.582
X216.35Y-86.122
X216.35Y-88.662
X216.35Y-91.202
X216.35Y-93.742
X216.35Y-96.282
X216.35Y-98.822
X216.35Y-101.362
X217.656Y-72.152
X217.656Y-74.692
X217.656Y-77.232
X217.656Y-79.772
X217.656Y-82.312
X217.656Y-84.852
X217.656Y-87.392
X217.656Y-89.932
X217.656Y-92.472
X217.656Y-95.012
X217.656Y-97.552
X217.656Y-100.092
T4
X217.198Y-110.182
X218.255Y-112.447
X219.311Y-114.713
X220.189Y-108.787
X221.245Y-111.053
X222.302Y-113.318
T5
X129.0Y-121.0
X129.0Y-126.0
X143.5Y-121.0
X143.5Y-123.5
X143.5Y-126.0
X210.395Y-104.55
X212.935Y-104.55
X215.475Y-104.55
X218.015Y-104.55
X220.555Y-104.55
T6
X95.0Y-88.3
X95.0Y-105.3
X95.0Y-122.3
X100.0Y-90.4
X100.0Y-107.4
X100.0Y-124.4
X105.0Y-88.3
X105.0Y-105.3
X105.0Y-122.3
X113.0Y-88.3
X113.0Y-105.3
X113.0Y-122.3
X118.0Y-90.4
X118.0Y-107.4
X118.0Y-124.4
X123.0Y-88.3
X123.0Y-105.3
X123.0Y-122.3
X131.0Y-76.3
X131.0Y-93.3
X131.0Y-110.3
X131.0Y-127.3
X136.0Y-78.4
X136.0Y-95.4
X136.0Y-112.4
X136.0Y-129.4
X141.0Y-76.3
X141.0Y-93.3
X141.0Y-110.3
X141.0Y-127.3
X149.0Y-69.3
X149.0Y-86.3
X149.0Y-103.3
X154.0Y-71.4
X154.0Y-88.4
X154.0Y-105.4
X156.5Y-125.8
X159.0Y-69.3
X159.0Y-86.3
X159.0Y-103.3
X161.5Y-127.9
X166.5Y-125.8
X167.0Y-74.8
X167.0Y-91.8
X167.0Y-108.8
X172.0Y-76.9
X172.0Y-93.9
X172.0Y-110.9
X175.297Y-127.263
X177.0Y-74.8
X177.0Y-91.8
X177.0Y-108.8
X179.583Y-130.586
X184.956Y-129.851
X185.0Y-77.3
X185.0Y-94.3
X185.0Y-111.3
X190.0Y-79.4
X190.0Y-96.4
X190.0Y-113.4
X193.248Y-133.341
X195.0Y-77.3
X195.0Y-94.3
X195.0Y-111.3
X196.528Y-137.659
X201.748Y-118.618
X201.908Y-138.341
X205.028Y-122.937
X208.918Y-143.843
X210.408Y-123.618
X210.968Y-148.863
X215.989Y-150.914
T7
X141.5Y-123.5
T8
X127.0Y-81.0
X127.0Y-110.0
X143.96Y-81.96
X163.01Y-62.91
X163.01Y-101.01
X181.0Y-68.0
X181.0Y-110.5
X182.06Y-81.96
T9
X202.2Y-108.795
X221.8Y-119.67
X222.225Y-85.2
T5
X214.93Y-127.26G85X214.43Y-127.26
G05
X214.93Y-129.71G85X214.43Y-129.71
G05
X216.43Y-125.51G85X215.93Y-125.51
G05
X216.43Y-131.46G85X215.93Y-131.46
G05
X220.43Y-125.51G85X219.93Y-125.51
G05
X220.43Y-131.46G85X219.93Y-131.46
G05
X223.43Y-125.51G85X222.93Y-125.51
G05
X223.43Y-131.46G85X222.93Y-131.46
G05
T0
M30
