%TF.GenerationSoftware,KiCad,Pcbnew,(5.1.10-1-10_14)*%
%TF.CreationDate,2021-11-02T17:36:35-07:00*%
%TF.ProjectId,hillside,68696c6c-7369-4646-952e-6b696361645f,0.1.0*%
%TF.SameCoordinates,Original*%
%TF.FileFunction,Soldermask,Top*%
%TF.FilePolarity,Negative*%
%FSLAX46Y46*%
G04 Gerber Fmt 4.6, Leading zero omitted, Abs format (unit mm)*
G04 Created by KiCad (PCBNEW (5.1.10-1-10_14)) date 2021-11-02 17:36:35*
%MOMM*%
%LPD*%
G01*
G04 APERTURE LIST*
%ADD10C,0.270000*%
%ADD11C,0.100000*%
%ADD12C,4.400000*%
%ADD13C,2.200000*%
%ADD14R,1.700000X1.700000*%
%ADD15O,1.700000X1.700000*%
%ADD16C,5.000000*%
%ADD17C,1.397000*%
%ADD18C,1.524000*%
%ADD19R,1.100000X1.800000*%
%ADD20C,1.600000*%
%ADD21C,3.400000*%
%ADD22C,1.700000*%
%ADD23C,2.000000*%
%ADD24R,0.800000X0.900000*%
%ADD25R,1.700000X0.820000*%
%ADD26C,1.200000*%
%ADD27O,2.500000X1.700000*%
%ADD28C,0.800000*%
%ADD29R,3.200000X2.000000*%
%ADD30R,2.000000X2.000000*%
G04 APERTURE END LIST*
D10*
X147112857Y-110214285D02*
X147112857Y-108414285D01*
X147112857Y-109271428D02*
X148141428Y-109271428D01*
X148141428Y-110214285D02*
X148141428Y-108414285D01*
X148998571Y-110214285D02*
X148998571Y-109014285D01*
X148998571Y-108414285D02*
X148912857Y-108500000D01*
X148998571Y-108585714D01*
X149084285Y-108500000D01*
X148998571Y-108414285D01*
X148998571Y-108585714D01*
X150112857Y-110214285D02*
X149941428Y-110128571D01*
X149855714Y-109957142D01*
X149855714Y-108414285D01*
X151055714Y-110214285D02*
X150884285Y-110128571D01*
X150798571Y-109957142D01*
X150798571Y-108414285D01*
X151655714Y-110128571D02*
X151827142Y-110214285D01*
X152170000Y-110214285D01*
X152341428Y-110128571D01*
X152427142Y-109957142D01*
X152427142Y-109871428D01*
X152341428Y-109700000D01*
X152170000Y-109614285D01*
X151912857Y-109614285D01*
X151741428Y-109528571D01*
X151655714Y-109357142D01*
X151655714Y-109271428D01*
X151741428Y-109100000D01*
X151912857Y-109014285D01*
X152170000Y-109014285D01*
X152341428Y-109100000D01*
X153198571Y-110214285D02*
X153198571Y-109014285D01*
X153198571Y-108414285D02*
X153112857Y-108500000D01*
X153198571Y-108585714D01*
X153284285Y-108500000D01*
X153198571Y-108414285D01*
X153198571Y-108585714D01*
X154827142Y-110214285D02*
X154827142Y-108414285D01*
X154827142Y-110128571D02*
X154655714Y-110214285D01*
X154312857Y-110214285D01*
X154141428Y-110128571D01*
X154055714Y-110042857D01*
X153970000Y-109871428D01*
X153970000Y-109357142D01*
X154055714Y-109185714D01*
X154141428Y-109100000D01*
X154312857Y-109014285D01*
X154655714Y-109014285D01*
X154827142Y-109100000D01*
X156370000Y-110128571D02*
X156198571Y-110214285D01*
X155855714Y-110214285D01*
X155684285Y-110128571D01*
X155598571Y-109957142D01*
X155598571Y-109271428D01*
X155684285Y-109100000D01*
X155855714Y-109014285D01*
X156198571Y-109014285D01*
X156370000Y-109100000D01*
X156455714Y-109271428D01*
X156455714Y-109442857D01*
X155598571Y-109614285D01*
X158941428Y-108414285D02*
X159112857Y-108414285D01*
X159284285Y-108500000D01*
X159370000Y-108585714D01*
X159455714Y-108757142D01*
X159541428Y-109100000D01*
X159541428Y-109528571D01*
X159455714Y-109871428D01*
X159370000Y-110042857D01*
X159284285Y-110128571D01*
X159112857Y-110214285D01*
X158941428Y-110214285D01*
X158770000Y-110128571D01*
X158684285Y-110042857D01*
X158598571Y-109871428D01*
X158512857Y-109528571D01*
X158512857Y-109100000D01*
X158598571Y-108757142D01*
X158684285Y-108585714D01*
X158770000Y-108500000D01*
X158941428Y-108414285D01*
X160312857Y-110042857D02*
X160398571Y-110128571D01*
X160312857Y-110214285D01*
X160227142Y-110128571D01*
X160312857Y-110042857D01*
X160312857Y-110214285D01*
X162112857Y-110214285D02*
X161084285Y-110214285D01*
X161598571Y-110214285D02*
X161598571Y-108414285D01*
X161427142Y-108671428D01*
X161255714Y-108842857D01*
X161084285Y-108928571D01*
D11*
%TO.C,H3*%
G36*
X145874033Y-123523804D02*
G01*
X145935715Y-123536074D01*
X145995897Y-123554330D01*
X146054000Y-123578397D01*
X146109465Y-123608043D01*
X146161756Y-123642983D01*
X146210371Y-123682881D01*
X146254841Y-123727351D01*
X146294739Y-123775966D01*
X146304911Y-123791189D01*
X146335107Y-123800349D01*
X146368776Y-123814295D01*
X146400917Y-123831475D01*
X146431218Y-123851722D01*
X146459389Y-123874841D01*
X146485159Y-123900611D01*
X146508278Y-123928782D01*
X146528525Y-123959083D01*
X146545705Y-123991224D01*
X146559651Y-124024893D01*
X146570230Y-124059767D01*
X146577340Y-124095510D01*
X146580912Y-124131778D01*
X146580912Y-124168222D01*
X146577340Y-124204490D01*
X146570230Y-124240233D01*
X146559651Y-124275107D01*
X146545705Y-124308776D01*
X146528525Y-124340917D01*
X146508278Y-124371218D01*
X146485159Y-124399389D01*
X146459389Y-124425159D01*
X146444414Y-124437449D01*
X146445705Y-124439865D01*
X146459651Y-124473534D01*
X146470230Y-124508408D01*
X146477340Y-124544151D01*
X146480912Y-124580419D01*
X146480912Y-124616863D01*
X146477340Y-124653131D01*
X146470230Y-124688874D01*
X146459651Y-124723748D01*
X146445705Y-124757417D01*
X146428525Y-124789558D01*
X146408278Y-124819859D01*
X146385159Y-124848030D01*
X146359389Y-124873800D01*
X146331218Y-124896919D01*
X146300917Y-124917166D01*
X146268776Y-124934346D01*
X146235107Y-124948292D01*
X146200233Y-124958871D01*
X146164490Y-124965981D01*
X146128222Y-124969553D01*
X146091778Y-124969553D01*
X146060844Y-124966506D01*
X145897000Y-125144807D01*
X145897000Y-125867846D01*
X145981346Y-125991884D01*
X145986037Y-126000491D01*
X145988958Y-126009847D01*
X145989998Y-126019594D01*
X145989117Y-126029356D01*
X145986348Y-126038758D01*
X145981798Y-126047440D01*
X145975642Y-126055067D01*
X145968116Y-126061346D01*
X145959509Y-126066037D01*
X145950153Y-126068958D01*
X145940000Y-126070000D01*
X145650000Y-126070000D01*
X145640245Y-126069039D01*
X145630866Y-126066194D01*
X145622221Y-126061573D01*
X145614645Y-126055355D01*
X145608427Y-126047779D01*
X145603806Y-126039134D01*
X145600961Y-126029755D01*
X145600000Y-126020000D01*
X145600961Y-126010245D01*
X145604924Y-125998363D01*
X145643000Y-125919038D01*
X145643000Y-125175866D01*
X145378343Y-124918173D01*
X145357777Y-124916148D01*
X145323520Y-124909334D01*
X145290097Y-124899195D01*
X145257828Y-124885829D01*
X145227024Y-124869364D01*
X145197983Y-124849959D01*
X145170983Y-124827801D01*
X145146286Y-124803104D01*
X145124128Y-124776104D01*
X145104723Y-124747063D01*
X145088258Y-124716259D01*
X145074892Y-124683990D01*
X145064753Y-124650567D01*
X145057939Y-124616310D01*
X145054516Y-124581551D01*
X145054516Y-124546623D01*
X145057939Y-124511864D01*
X145064753Y-124477607D01*
X145074892Y-124444184D01*
X145088258Y-124411915D01*
X145091431Y-124405979D01*
X145084841Y-124399389D01*
X145061722Y-124371218D01*
X145041475Y-124340917D01*
X145024295Y-124308776D01*
X145010349Y-124275107D01*
X144999770Y-124240233D01*
X144992660Y-124204490D01*
X144989088Y-124168222D01*
X144989088Y-124131778D01*
X144992660Y-124095510D01*
X144999770Y-124059767D01*
X145010349Y-124024893D01*
X145024295Y-123991224D01*
X145041475Y-123959083D01*
X145061722Y-123928782D01*
X145084841Y-123900611D01*
X145110611Y-123874841D01*
X145138782Y-123851722D01*
X145169083Y-123831475D01*
X145201224Y-123814295D01*
X145234893Y-123800349D01*
X145252547Y-123794994D01*
X145265261Y-123775966D01*
X145305159Y-123727351D01*
X145349629Y-123682881D01*
X145398244Y-123642983D01*
X145450535Y-123608043D01*
X145506000Y-123578397D01*
X145564103Y-123554330D01*
X145624285Y-123536074D01*
X145685967Y-123523804D01*
X145748555Y-123517640D01*
X145811445Y-123517640D01*
X145874033Y-123523804D01*
G37*
G36*
X151414033Y-121613804D02*
G01*
X151475715Y-121626074D01*
X151535897Y-121644330D01*
X151594000Y-121668397D01*
X151649465Y-121698043D01*
X151701756Y-121732983D01*
X151750371Y-121772881D01*
X151794841Y-121817351D01*
X151834739Y-121865966D01*
X151844911Y-121881189D01*
X151875107Y-121890349D01*
X151908776Y-121904295D01*
X151940917Y-121921475D01*
X151971218Y-121941722D01*
X151999389Y-121964841D01*
X152025159Y-121990611D01*
X152048278Y-122018782D01*
X152068525Y-122049083D01*
X152085705Y-122081224D01*
X152099651Y-122114893D01*
X152110230Y-122149767D01*
X152117340Y-122185510D01*
X152120912Y-122221778D01*
X152120912Y-122258222D01*
X152117340Y-122294490D01*
X152110230Y-122330233D01*
X152099651Y-122365107D01*
X152085705Y-122398776D01*
X152068525Y-122430917D01*
X152056136Y-122449458D01*
X152057340Y-122455510D01*
X152060912Y-122491778D01*
X152060912Y-122528222D01*
X152057340Y-122564490D01*
X152050230Y-122600233D01*
X152039651Y-122635107D01*
X152025705Y-122668776D01*
X152008525Y-122700917D01*
X151988278Y-122731218D01*
X151965159Y-122759389D01*
X151939389Y-122785159D01*
X151911218Y-122808278D01*
X151880917Y-122828525D01*
X151848776Y-122845705D01*
X151815107Y-122859651D01*
X151780233Y-122870230D01*
X151744490Y-122877340D01*
X151708222Y-122880912D01*
X151671778Y-122880912D01*
X151635510Y-122877340D01*
X151630232Y-122876290D01*
X151437000Y-123086572D01*
X151437000Y-123957846D01*
X151521346Y-124081884D01*
X151526037Y-124090491D01*
X151528958Y-124099847D01*
X151529998Y-124109594D01*
X151529117Y-124119356D01*
X151526348Y-124128758D01*
X151521798Y-124137440D01*
X151515642Y-124145067D01*
X151508116Y-124151346D01*
X151499509Y-124156037D01*
X151490153Y-124158958D01*
X151480000Y-124160000D01*
X151190000Y-124160000D01*
X151180245Y-124159039D01*
X151170866Y-124156194D01*
X151162221Y-124151573D01*
X151154645Y-124145355D01*
X151148427Y-124137779D01*
X151143806Y-124129134D01*
X151140961Y-124119755D01*
X151140000Y-124110000D01*
X151140961Y-124100245D01*
X151144924Y-124088363D01*
X151183000Y-124009038D01*
X151183000Y-123076392D01*
X151068495Y-122964900D01*
X151062223Y-122966148D01*
X151027464Y-122969571D01*
X150992536Y-122969571D01*
X150957777Y-122966148D01*
X150923520Y-122959334D01*
X150890097Y-122949195D01*
X150857828Y-122935829D01*
X150827024Y-122919364D01*
X150797983Y-122899959D01*
X150770983Y-122877801D01*
X150746286Y-122853104D01*
X150724128Y-122826104D01*
X150704723Y-122797063D01*
X150688258Y-122766259D01*
X150674892Y-122733990D01*
X150664753Y-122700567D01*
X150657939Y-122666310D01*
X150654516Y-122631551D01*
X150654516Y-122596623D01*
X150657939Y-122561864D01*
X150664753Y-122527607D01*
X150664958Y-122526933D01*
X150650611Y-122515159D01*
X150624841Y-122489389D01*
X150601722Y-122461218D01*
X150581475Y-122430917D01*
X150564295Y-122398776D01*
X150550349Y-122365107D01*
X150539770Y-122330233D01*
X150532660Y-122294490D01*
X150529088Y-122258222D01*
X150529088Y-122221778D01*
X150532660Y-122185510D01*
X150539770Y-122149767D01*
X150550349Y-122114893D01*
X150564295Y-122081224D01*
X150581475Y-122049083D01*
X150601722Y-122018782D01*
X150624841Y-121990611D01*
X150650611Y-121964841D01*
X150678782Y-121941722D01*
X150709083Y-121921475D01*
X150741224Y-121904295D01*
X150774893Y-121890349D01*
X150792547Y-121884994D01*
X150805261Y-121865966D01*
X150845159Y-121817351D01*
X150889629Y-121772881D01*
X150938244Y-121732983D01*
X150990535Y-121698043D01*
X151046000Y-121668397D01*
X151104103Y-121644330D01*
X151164285Y-121626074D01*
X151225967Y-121613804D01*
X151288555Y-121607640D01*
X151351445Y-121607640D01*
X151414033Y-121613804D01*
G37*
G36*
X149834033Y-112953804D02*
G01*
X149895715Y-112966074D01*
X149955897Y-112984330D01*
X150014000Y-113008397D01*
X150069465Y-113038043D01*
X150121756Y-113072983D01*
X150170371Y-113112881D01*
X150214841Y-113157351D01*
X150254739Y-113205966D01*
X150264911Y-113221189D01*
X150295107Y-113230349D01*
X150328776Y-113244295D01*
X150360917Y-113261475D01*
X150391218Y-113281722D01*
X150419389Y-113304841D01*
X150445159Y-113330611D01*
X150468278Y-113358782D01*
X150488525Y-113389083D01*
X150505705Y-113421224D01*
X150519651Y-113454893D01*
X150530230Y-113489767D01*
X150537340Y-113525510D01*
X150540912Y-113561778D01*
X150540912Y-113598222D01*
X150537340Y-113634490D01*
X150530230Y-113670233D01*
X150519651Y-113705107D01*
X150505705Y-113738776D01*
X150488525Y-113770917D01*
X150476136Y-113789458D01*
X150477340Y-113795510D01*
X150480912Y-113831778D01*
X150480912Y-113868222D01*
X150477340Y-113904490D01*
X150470230Y-113940233D01*
X150459651Y-113975107D01*
X150445705Y-114008776D01*
X150428525Y-114040917D01*
X150408278Y-114071218D01*
X150385159Y-114099389D01*
X150359389Y-114125159D01*
X150331218Y-114148278D01*
X150300917Y-114168525D01*
X150268776Y-114185705D01*
X150235107Y-114199651D01*
X150200233Y-114210230D01*
X150164490Y-114217340D01*
X150128222Y-114220912D01*
X150106796Y-114220912D01*
X149857000Y-114519910D01*
X149857000Y-115297846D01*
X149941346Y-115421884D01*
X149946037Y-115430491D01*
X149948958Y-115439847D01*
X149949998Y-115449594D01*
X149949117Y-115459356D01*
X149946348Y-115468758D01*
X149941798Y-115477440D01*
X149935642Y-115485067D01*
X149928116Y-115491346D01*
X149919509Y-115496037D01*
X149910153Y-115498958D01*
X149900000Y-115500000D01*
X149610000Y-115500000D01*
X149600245Y-115499039D01*
X149590866Y-115496194D01*
X149582221Y-115491573D01*
X149574645Y-115485355D01*
X149568427Y-115477779D01*
X149563806Y-115469134D01*
X149560961Y-115459755D01*
X149560000Y-115450000D01*
X149560961Y-115440245D01*
X149564924Y-115428363D01*
X149603000Y-115349038D01*
X149603000Y-114496655D01*
X149409513Y-114308260D01*
X149386480Y-114315247D01*
X149352223Y-114322061D01*
X149317464Y-114325484D01*
X149282536Y-114325484D01*
X149247777Y-114322061D01*
X149213520Y-114315247D01*
X149180097Y-114305108D01*
X149147828Y-114291742D01*
X149117024Y-114275277D01*
X149087983Y-114255872D01*
X149060983Y-114233714D01*
X149036286Y-114209017D01*
X149014128Y-114182017D01*
X148994723Y-114152976D01*
X148978258Y-114122172D01*
X148964892Y-114089903D01*
X148954753Y-114056480D01*
X148947939Y-114022223D01*
X148944516Y-113987464D01*
X148944516Y-113952536D01*
X148947939Y-113917777D01*
X148954753Y-113883520D01*
X148964892Y-113850097D01*
X148978258Y-113817828D01*
X148987812Y-113799953D01*
X148981970Y-113795159D01*
X148956200Y-113769389D01*
X148933081Y-113741218D01*
X148912834Y-113710917D01*
X148895654Y-113678776D01*
X148881708Y-113645107D01*
X148871129Y-113610233D01*
X148864019Y-113574490D01*
X148860447Y-113538222D01*
X148860447Y-113501778D01*
X148864019Y-113465510D01*
X148871129Y-113429767D01*
X148881708Y-113394893D01*
X148895654Y-113361224D01*
X148912834Y-113329083D01*
X148933081Y-113298782D01*
X148956200Y-113270611D01*
X148981970Y-113244841D01*
X149010141Y-113221722D01*
X149040442Y-113201475D01*
X149072583Y-113184295D01*
X149106252Y-113170349D01*
X149141126Y-113159770D01*
X149176869Y-113152660D01*
X149213137Y-113149088D01*
X149249581Y-113149088D01*
X149271284Y-113151226D01*
X149309629Y-113112881D01*
X149358244Y-113072983D01*
X149410535Y-113038043D01*
X149466000Y-113008397D01*
X149524103Y-112984330D01*
X149584285Y-112966074D01*
X149645967Y-112953804D01*
X149708555Y-112947640D01*
X149771445Y-112947640D01*
X149834033Y-112953804D01*
G37*
G36*
X154711773Y-116243012D02*
G01*
X154724157Y-116243791D01*
X154736405Y-116245775D01*
X154748401Y-116248945D01*
X154760031Y-116253270D01*
X154771183Y-116258709D01*
X154781751Y-116265211D01*
X154791634Y-116272712D01*
X154800738Y-116281143D01*
X154808976Y-116290421D01*
X154816269Y-116300459D01*
X154822548Y-116311161D01*
X154827752Y-116322425D01*
X154831833Y-116334143D01*
X154834750Y-116346203D01*
X154836477Y-116358490D01*
X154836997Y-116370887D01*
X154836304Y-116383275D01*
X154834406Y-116395537D01*
X154831320Y-116407555D01*
X154827077Y-116419214D01*
X154821715Y-116430404D01*
X154815288Y-116441017D01*
X154807855Y-116450953D01*
X154799489Y-116460115D01*
X154790268Y-116468418D01*
X154780281Y-116475781D01*
X154769623Y-116482134D01*
X154758396Y-116487417D01*
X154746707Y-116491580D01*
X154734668Y-116494581D01*
X154722393Y-116496394D01*
X154710000Y-116497000D01*
X153312605Y-116497000D01*
X149949803Y-119859803D01*
X149949512Y-119860090D01*
X149949489Y-119860115D01*
X149949460Y-119860141D01*
X149948540Y-119861048D01*
X149944353Y-119864740D01*
X149940268Y-119868418D01*
X149939738Y-119868809D01*
X149939233Y-119869254D01*
X149934723Y-119872506D01*
X149930281Y-119875781D01*
X149929706Y-119876124D01*
X149929169Y-119876511D01*
X149924410Y-119879281D01*
X149919623Y-119882134D01*
X149919017Y-119882419D01*
X149918445Y-119882752D01*
X149913417Y-119885054D01*
X149908396Y-119887417D01*
X149907771Y-119887640D01*
X149907163Y-119887918D01*
X149901902Y-119889730D01*
X149896707Y-119891580D01*
X149896065Y-119891740D01*
X149895432Y-119891958D01*
X149890010Y-119893249D01*
X149884668Y-119894581D01*
X149884013Y-119894678D01*
X149883361Y-119894833D01*
X149877850Y-119895588D01*
X149872393Y-119896394D01*
X149871730Y-119896426D01*
X149871069Y-119896517D01*
X149865525Y-119896730D01*
X149860000Y-119897000D01*
X144110000Y-119897000D01*
X144108227Y-119896988D01*
X144095843Y-119896209D01*
X144083595Y-119894225D01*
X144071599Y-119891055D01*
X144059969Y-119886730D01*
X144048817Y-119881291D01*
X144038249Y-119874789D01*
X144028366Y-119867288D01*
X144019262Y-119858857D01*
X144011024Y-119849579D01*
X144003731Y-119839541D01*
X143997452Y-119828839D01*
X143992248Y-119817575D01*
X143988167Y-119805857D01*
X143985250Y-119793797D01*
X143983523Y-119781510D01*
X143983003Y-119769113D01*
X143983696Y-119756725D01*
X143985594Y-119744463D01*
X143988680Y-119732445D01*
X143992923Y-119720786D01*
X143998285Y-119709596D01*
X144004712Y-119698983D01*
X144012145Y-119689047D01*
X144020511Y-119679885D01*
X144029732Y-119671582D01*
X144039719Y-119664219D01*
X144050377Y-119657866D01*
X144061604Y-119652583D01*
X144073293Y-119648420D01*
X144085332Y-119645419D01*
X144097607Y-119643606D01*
X144110000Y-119643000D01*
X149807394Y-119643000D01*
X153170197Y-116280198D01*
X153170481Y-116279918D01*
X153170511Y-116279885D01*
X153170548Y-116279851D01*
X153171460Y-116278952D01*
X153175647Y-116275260D01*
X153179732Y-116271582D01*
X153180262Y-116271191D01*
X153180767Y-116270746D01*
X153185277Y-116267494D01*
X153189719Y-116264219D01*
X153190294Y-116263876D01*
X153190831Y-116263489D01*
X153195590Y-116260719D01*
X153200377Y-116257866D01*
X153200983Y-116257581D01*
X153201555Y-116257248D01*
X153206583Y-116254946D01*
X153211604Y-116252583D01*
X153212229Y-116252360D01*
X153212837Y-116252082D01*
X153218060Y-116250284D01*
X153223293Y-116248420D01*
X153223945Y-116248257D01*
X153224568Y-116248043D01*
X153229940Y-116246763D01*
X153235332Y-116245419D01*
X153235988Y-116245322D01*
X153236639Y-116245167D01*
X153242150Y-116244412D01*
X153247607Y-116243606D01*
X153248270Y-116243574D01*
X153248931Y-116243483D01*
X153254475Y-116243270D01*
X153260000Y-116243000D01*
X154710000Y-116243000D01*
X154711773Y-116243012D01*
G37*
G36*
X155411773Y-113553012D02*
G01*
X155424157Y-113553791D01*
X155436405Y-113555775D01*
X155448401Y-113558945D01*
X155460031Y-113563270D01*
X155471183Y-113568709D01*
X155481751Y-113575211D01*
X155491634Y-113582712D01*
X155500738Y-113591143D01*
X155508976Y-113600421D01*
X155516269Y-113610459D01*
X155522548Y-113621161D01*
X155527752Y-113632425D01*
X155531833Y-113644143D01*
X155534750Y-113656203D01*
X155536477Y-113668490D01*
X155536997Y-113680887D01*
X155536304Y-113693275D01*
X155534406Y-113705537D01*
X155531320Y-113717555D01*
X155527077Y-113729214D01*
X155521715Y-113740404D01*
X155515288Y-113751017D01*
X155507855Y-113760953D01*
X155499489Y-113770115D01*
X155490268Y-113778418D01*
X155480281Y-113785781D01*
X155469623Y-113792134D01*
X155458396Y-113797417D01*
X155446707Y-113801580D01*
X155434668Y-113804581D01*
X155422393Y-113806394D01*
X155410000Y-113807000D01*
X153452605Y-113807000D01*
X149049803Y-118209803D01*
X149049512Y-118210090D01*
X149049489Y-118210115D01*
X149049460Y-118210141D01*
X149048540Y-118211048D01*
X149044353Y-118214740D01*
X149040268Y-118218418D01*
X149039738Y-118218809D01*
X149039233Y-118219254D01*
X149034723Y-118222506D01*
X149030281Y-118225781D01*
X149029706Y-118226124D01*
X149029169Y-118226511D01*
X149024410Y-118229281D01*
X149019623Y-118232134D01*
X149019017Y-118232419D01*
X149018445Y-118232752D01*
X149013417Y-118235054D01*
X149008396Y-118237417D01*
X149007771Y-118237640D01*
X149007163Y-118237918D01*
X149001902Y-118239730D01*
X148996707Y-118241580D01*
X148996065Y-118241740D01*
X148995432Y-118241958D01*
X148990010Y-118243249D01*
X148984668Y-118244581D01*
X148984013Y-118244678D01*
X148983361Y-118244833D01*
X148977850Y-118245588D01*
X148972393Y-118246394D01*
X148971730Y-118246426D01*
X148971069Y-118246517D01*
X148965525Y-118246730D01*
X148960000Y-118247000D01*
X142910000Y-118247000D01*
X142908227Y-118246988D01*
X142895843Y-118246209D01*
X142883595Y-118244225D01*
X142871599Y-118241055D01*
X142859969Y-118236730D01*
X142848817Y-118231291D01*
X142838249Y-118224789D01*
X142828366Y-118217288D01*
X142819262Y-118208857D01*
X142811024Y-118199579D01*
X142803731Y-118189541D01*
X142797452Y-118178839D01*
X142792248Y-118167575D01*
X142788167Y-118155857D01*
X142785250Y-118143797D01*
X142783523Y-118131510D01*
X142783003Y-118119113D01*
X142783696Y-118106725D01*
X142785594Y-118094463D01*
X142788680Y-118082445D01*
X142792923Y-118070786D01*
X142798285Y-118059596D01*
X142804712Y-118048983D01*
X142812145Y-118039047D01*
X142820511Y-118029885D01*
X142829732Y-118021582D01*
X142839719Y-118014219D01*
X142850377Y-118007866D01*
X142861604Y-118002583D01*
X142873293Y-117998420D01*
X142885332Y-117995419D01*
X142897607Y-117993606D01*
X142910000Y-117993000D01*
X148907394Y-117993000D01*
X153310197Y-113590198D01*
X153310483Y-113589915D01*
X153310511Y-113589885D01*
X153310545Y-113589854D01*
X153311459Y-113588952D01*
X153315673Y-113585237D01*
X153319732Y-113581582D01*
X153320262Y-113581191D01*
X153320767Y-113580746D01*
X153325277Y-113577494D01*
X153329719Y-113574219D01*
X153330294Y-113573876D01*
X153330831Y-113573489D01*
X153335590Y-113570719D01*
X153340377Y-113567866D01*
X153340983Y-113567581D01*
X153341555Y-113567248D01*
X153346583Y-113564946D01*
X153351604Y-113562583D01*
X153352229Y-113562360D01*
X153352837Y-113562082D01*
X153358060Y-113560284D01*
X153363293Y-113558420D01*
X153363945Y-113558257D01*
X153364568Y-113558043D01*
X153369909Y-113556771D01*
X153375332Y-113555419D01*
X153375996Y-113555321D01*
X153376638Y-113555168D01*
X153382105Y-113554419D01*
X153387607Y-113553606D01*
X153388270Y-113553574D01*
X153388931Y-113553483D01*
X153394475Y-113553270D01*
X153400000Y-113553000D01*
X155410000Y-113553000D01*
X155411773Y-113553012D01*
G37*
G36*
X155163761Y-129343185D02*
G01*
X155167520Y-129343224D01*
X155169938Y-129343487D01*
X155172379Y-129343606D01*
X155176119Y-129344158D01*
X155179855Y-129344564D01*
X155182233Y-129345061D01*
X155184653Y-129345418D01*
X155188317Y-129346332D01*
X155192000Y-129347101D01*
X155194329Y-129347831D01*
X155196692Y-129348420D01*
X155200232Y-129349680D01*
X155203840Y-129350811D01*
X155206091Y-129351767D01*
X155208381Y-129352582D01*
X155211797Y-129354189D01*
X155215262Y-129355660D01*
X155217390Y-129356820D01*
X155219609Y-129357864D01*
X155222856Y-129359800D01*
X155226156Y-129361599D01*
X155228175Y-129362971D01*
X155230266Y-129364218D01*
X155233307Y-129366460D01*
X155236418Y-129368574D01*
X155238277Y-129370123D01*
X155240254Y-129371580D01*
X155243073Y-129374118D01*
X155245951Y-129376516D01*
X155247656Y-129378245D01*
X155249475Y-129379883D01*
X155254123Y-129384498D01*
X155350012Y-129470234D01*
X155451488Y-129544503D01*
X155559718Y-129608510D01*
X155673684Y-129661653D01*
X155792288Y-129703419D01*
X155914401Y-129733413D01*
X156038863Y-129751350D01*
X156164476Y-129757054D01*
X156290054Y-129750472D01*
X156414381Y-129731669D01*
X156536289Y-129700822D01*
X156654596Y-129658229D01*
X156768194Y-129604289D01*
X156875974Y-129539528D01*
X156976921Y-129464558D01*
X157074677Y-129375918D01*
X157075999Y-129374736D01*
X157085696Y-129366995D01*
X157096102Y-129360237D01*
X157107118Y-129354527D01*
X157118639Y-129349919D01*
X157130554Y-129346458D01*
X157142750Y-129344176D01*
X157155110Y-129343094D01*
X157167518Y-129343224D01*
X157179853Y-129344564D01*
X157191998Y-129347101D01*
X157203838Y-129350811D01*
X157215260Y-129355660D01*
X157226154Y-129361599D01*
X157236416Y-129368574D01*
X157245949Y-129376516D01*
X157254661Y-129385351D01*
X157262469Y-129394993D01*
X157269300Y-129405352D01*
X157275087Y-129416328D01*
X157279775Y-129427815D01*
X157283319Y-129439706D01*
X157285687Y-129451886D01*
X157286855Y-129464239D01*
X157286812Y-129476646D01*
X157285558Y-129488991D01*
X157283105Y-129501154D01*
X157279477Y-129513020D01*
X157274709Y-129524475D01*
X157268846Y-129535410D01*
X157261944Y-129545720D01*
X157254068Y-129555309D01*
X157245294Y-129564082D01*
X157142940Y-129656892D01*
X157141618Y-129658074D01*
X157137434Y-129661414D01*
X157133351Y-129664768D01*
X157022437Y-129747139D01*
X157022428Y-129747147D01*
X157022416Y-129747155D01*
X157020997Y-129748194D01*
X157016522Y-129751100D01*
X157012117Y-129754049D01*
X156893684Y-129825211D01*
X156892158Y-129826114D01*
X156887410Y-129828576D01*
X156882749Y-129831075D01*
X156757937Y-129890340D01*
X156756330Y-129891089D01*
X156751380Y-129893069D01*
X156746483Y-129895108D01*
X156616483Y-129941911D01*
X156614811Y-129942500D01*
X156609678Y-129943991D01*
X156604616Y-129945539D01*
X156470681Y-129979429D01*
X156470671Y-129979432D01*
X156470660Y-129979434D01*
X156468948Y-129979855D01*
X156463701Y-129980837D01*
X156458508Y-129981884D01*
X156321893Y-130002545D01*
X156320138Y-130002798D01*
X156314822Y-130003263D01*
X156309549Y-130003799D01*
X156171571Y-130011031D01*
X156169800Y-130011112D01*
X156164430Y-130011056D01*
X156159162Y-130011074D01*
X156021137Y-130004806D01*
X156019366Y-130004714D01*
X156014045Y-130004136D01*
X156008784Y-130003639D01*
X155872031Y-129983932D01*
X155872028Y-129983932D01*
X155872025Y-129983931D01*
X155870276Y-129983667D01*
X155865062Y-129982578D01*
X155859849Y-129981564D01*
X155725669Y-129948606D01*
X155723950Y-129948171D01*
X155718839Y-129946570D01*
X155713779Y-129945061D01*
X155583456Y-129899167D01*
X155581787Y-129898567D01*
X155576833Y-129896464D01*
X155571968Y-129894479D01*
X155446745Y-129836087D01*
X155445143Y-129835327D01*
X155440431Y-129832758D01*
X155435769Y-129830300D01*
X155316850Y-129759972D01*
X155316841Y-129759967D01*
X155316831Y-129759960D01*
X155315322Y-129759054D01*
X155310921Y-129756063D01*
X155306483Y-129753137D01*
X155194987Y-129671534D01*
X155193563Y-129670477D01*
X155189453Y-129667053D01*
X155185344Y-129663725D01*
X155160200Y-129641243D01*
X155142942Y-129656892D01*
X155141620Y-129658074D01*
X155137436Y-129661414D01*
X155133353Y-129664768D01*
X155022439Y-129747139D01*
X155022430Y-129747147D01*
X155022418Y-129747155D01*
X155020999Y-129748194D01*
X155016524Y-129751100D01*
X155012119Y-129754049D01*
X154893686Y-129825211D01*
X154892160Y-129826114D01*
X154887412Y-129828576D01*
X154882751Y-129831075D01*
X154757939Y-129890340D01*
X154756332Y-129891089D01*
X154751382Y-129893069D01*
X154746485Y-129895108D01*
X154616485Y-129941911D01*
X154614813Y-129942500D01*
X154609680Y-129943991D01*
X154604618Y-129945539D01*
X154470683Y-129979429D01*
X154470673Y-129979432D01*
X154470662Y-129979434D01*
X154468950Y-129979855D01*
X154463703Y-129980837D01*
X154458510Y-129981884D01*
X154321895Y-130002545D01*
X154320140Y-130002798D01*
X154314824Y-130003263D01*
X154309551Y-130003799D01*
X154171573Y-130011031D01*
X154169802Y-130011112D01*
X154164432Y-130011056D01*
X154159164Y-130011074D01*
X154021139Y-130004806D01*
X154019368Y-130004714D01*
X154014047Y-130004136D01*
X154008786Y-130003639D01*
X153872033Y-129983932D01*
X153872030Y-129983932D01*
X153872027Y-129983931D01*
X153870278Y-129983667D01*
X153865064Y-129982578D01*
X153859851Y-129981564D01*
X153725671Y-129948606D01*
X153723952Y-129948171D01*
X153718841Y-129946570D01*
X153713781Y-129945061D01*
X153583458Y-129899167D01*
X153581789Y-129898567D01*
X153576835Y-129896464D01*
X153571970Y-129894479D01*
X153446747Y-129836087D01*
X153445145Y-129835327D01*
X153440433Y-129832758D01*
X153435771Y-129830300D01*
X153316852Y-129759972D01*
X153316843Y-129759967D01*
X153316833Y-129759960D01*
X153315324Y-129759054D01*
X153310923Y-129756063D01*
X153306485Y-129753137D01*
X153194989Y-129671534D01*
X153193565Y-129670477D01*
X153189455Y-129667053D01*
X153185346Y-129663725D01*
X153160202Y-129641243D01*
X153142944Y-129656892D01*
X153141622Y-129658074D01*
X153137438Y-129661414D01*
X153133355Y-129664768D01*
X153022441Y-129747139D01*
X153022432Y-129747147D01*
X153022420Y-129747155D01*
X153021001Y-129748194D01*
X153016526Y-129751100D01*
X153012121Y-129754049D01*
X152893688Y-129825211D01*
X152892162Y-129826114D01*
X152887414Y-129828576D01*
X152882753Y-129831075D01*
X152757941Y-129890340D01*
X152756334Y-129891089D01*
X152751384Y-129893069D01*
X152746487Y-129895108D01*
X152616487Y-129941911D01*
X152614815Y-129942500D01*
X152609682Y-129943991D01*
X152604620Y-129945539D01*
X152470685Y-129979429D01*
X152470675Y-129979432D01*
X152470664Y-129979434D01*
X152468952Y-129979855D01*
X152463705Y-129980837D01*
X152458512Y-129981884D01*
X152321897Y-130002545D01*
X152320142Y-130002798D01*
X152314826Y-130003263D01*
X152309553Y-130003799D01*
X152171575Y-130011031D01*
X152169804Y-130011112D01*
X152164434Y-130011056D01*
X152159166Y-130011074D01*
X152021141Y-130004806D01*
X152019370Y-130004714D01*
X152014049Y-130004136D01*
X152008788Y-130003639D01*
X151872035Y-129983932D01*
X151872032Y-129983932D01*
X151872029Y-129983931D01*
X151870280Y-129983667D01*
X151865066Y-129982578D01*
X151859853Y-129981564D01*
X151725673Y-129948606D01*
X151723954Y-129948171D01*
X151718843Y-129946570D01*
X151713783Y-129945061D01*
X151583460Y-129899167D01*
X151581791Y-129898567D01*
X151576837Y-129896464D01*
X151571972Y-129894479D01*
X151446749Y-129836087D01*
X151445147Y-129835327D01*
X151440435Y-129832758D01*
X151435773Y-129830300D01*
X151316854Y-129759972D01*
X151316845Y-129759967D01*
X151316835Y-129759960D01*
X151315326Y-129759054D01*
X151310925Y-129756063D01*
X151306487Y-129753137D01*
X151194991Y-129671534D01*
X151193567Y-129670477D01*
X151189457Y-129667053D01*
X151185348Y-129663725D01*
X151160204Y-129641243D01*
X151142946Y-129656892D01*
X151141624Y-129658074D01*
X151137440Y-129661414D01*
X151133357Y-129664768D01*
X151022443Y-129747139D01*
X151022434Y-129747147D01*
X151022422Y-129747155D01*
X151021003Y-129748194D01*
X151016528Y-129751100D01*
X151012123Y-129754049D01*
X150893690Y-129825211D01*
X150892164Y-129826114D01*
X150887416Y-129828576D01*
X150882755Y-129831075D01*
X150757943Y-129890340D01*
X150756336Y-129891089D01*
X150751386Y-129893069D01*
X150746489Y-129895108D01*
X150616489Y-129941911D01*
X150614817Y-129942500D01*
X150609684Y-129943991D01*
X150604622Y-129945539D01*
X150470687Y-129979429D01*
X150470677Y-129979432D01*
X150470666Y-129979434D01*
X150468954Y-129979855D01*
X150463707Y-129980837D01*
X150458514Y-129981884D01*
X150321899Y-130002545D01*
X150320144Y-130002798D01*
X150314828Y-130003263D01*
X150309555Y-130003799D01*
X150171577Y-130011031D01*
X150169806Y-130011112D01*
X150164436Y-130011056D01*
X150159168Y-130011074D01*
X150021143Y-130004806D01*
X150019372Y-130004714D01*
X150014051Y-130004136D01*
X150008790Y-130003639D01*
X149872037Y-129983932D01*
X149872034Y-129983932D01*
X149872031Y-129983931D01*
X149870282Y-129983667D01*
X149865068Y-129982578D01*
X149859855Y-129981564D01*
X149725675Y-129948606D01*
X149723956Y-129948171D01*
X149718845Y-129946570D01*
X149713785Y-129945061D01*
X149583462Y-129899167D01*
X149581793Y-129898567D01*
X149576839Y-129896464D01*
X149571974Y-129894479D01*
X149446751Y-129836087D01*
X149445149Y-129835327D01*
X149440437Y-129832758D01*
X149435775Y-129830300D01*
X149316856Y-129759972D01*
X149316847Y-129759967D01*
X149316837Y-129759960D01*
X149315328Y-129759054D01*
X149310927Y-129756063D01*
X149306489Y-129753137D01*
X149194993Y-129671534D01*
X149193569Y-129670477D01*
X149189459Y-129667053D01*
X149185350Y-129663725D01*
X149160206Y-129641243D01*
X149142948Y-129656892D01*
X149141626Y-129658074D01*
X149137442Y-129661414D01*
X149133359Y-129664768D01*
X149022445Y-129747139D01*
X149022436Y-129747147D01*
X149022424Y-129747155D01*
X149021005Y-129748194D01*
X149016530Y-129751100D01*
X149012125Y-129754049D01*
X148893692Y-129825211D01*
X148892166Y-129826114D01*
X148887418Y-129828576D01*
X148882757Y-129831075D01*
X148757945Y-129890340D01*
X148756338Y-129891089D01*
X148751388Y-129893069D01*
X148746491Y-129895108D01*
X148616491Y-129941911D01*
X148614819Y-129942500D01*
X148609686Y-129943991D01*
X148604624Y-129945539D01*
X148470689Y-129979429D01*
X148470679Y-129979432D01*
X148470668Y-129979434D01*
X148468956Y-129979855D01*
X148463709Y-129980837D01*
X148458516Y-129981884D01*
X148321901Y-130002545D01*
X148320146Y-130002798D01*
X148314830Y-130003263D01*
X148309557Y-130003799D01*
X148171579Y-130011031D01*
X148169808Y-130011112D01*
X148164438Y-130011056D01*
X148159170Y-130011074D01*
X148021145Y-130004806D01*
X148019374Y-130004714D01*
X148014053Y-130004136D01*
X148008792Y-130003639D01*
X147872039Y-129983932D01*
X147872036Y-129983932D01*
X147872033Y-129983931D01*
X147870284Y-129983667D01*
X147865070Y-129982578D01*
X147859857Y-129981564D01*
X147725677Y-129948606D01*
X147723958Y-129948171D01*
X147718847Y-129946570D01*
X147713787Y-129945061D01*
X147583464Y-129899167D01*
X147581795Y-129898567D01*
X147576841Y-129896464D01*
X147571976Y-129894479D01*
X147446753Y-129836087D01*
X147445151Y-129835327D01*
X147440439Y-129832758D01*
X147435777Y-129830300D01*
X147316858Y-129759972D01*
X147316849Y-129759967D01*
X147316839Y-129759960D01*
X147315330Y-129759054D01*
X147310929Y-129756063D01*
X147306491Y-129753137D01*
X147194995Y-129671534D01*
X147193571Y-129670477D01*
X147189461Y-129667053D01*
X147185352Y-129663725D01*
X147160208Y-129641243D01*
X147142950Y-129656892D01*
X147141628Y-129658074D01*
X147137444Y-129661414D01*
X147133361Y-129664768D01*
X147022447Y-129747139D01*
X147022438Y-129747147D01*
X147022426Y-129747155D01*
X147021007Y-129748194D01*
X147016532Y-129751100D01*
X147012127Y-129754049D01*
X146893694Y-129825211D01*
X146892168Y-129826114D01*
X146887420Y-129828576D01*
X146882759Y-129831075D01*
X146757947Y-129890340D01*
X146756340Y-129891089D01*
X146751390Y-129893069D01*
X146746493Y-129895108D01*
X146616493Y-129941911D01*
X146614821Y-129942500D01*
X146609688Y-129943991D01*
X146604626Y-129945539D01*
X146470691Y-129979429D01*
X146470681Y-129979432D01*
X146470670Y-129979434D01*
X146468958Y-129979855D01*
X146463711Y-129980837D01*
X146458518Y-129981884D01*
X146321903Y-130002545D01*
X146320148Y-130002798D01*
X146314832Y-130003263D01*
X146309559Y-130003799D01*
X146171581Y-130011031D01*
X146169810Y-130011112D01*
X146164440Y-130011056D01*
X146159172Y-130011074D01*
X146021147Y-130004806D01*
X146019376Y-130004714D01*
X146014055Y-130004136D01*
X146008794Y-130003639D01*
X145872041Y-129983932D01*
X145872038Y-129983932D01*
X145872035Y-129983931D01*
X145870286Y-129983667D01*
X145865072Y-129982578D01*
X145859859Y-129981564D01*
X145725679Y-129948606D01*
X145723960Y-129948171D01*
X145718849Y-129946570D01*
X145713789Y-129945061D01*
X145583466Y-129899167D01*
X145581797Y-129898567D01*
X145576843Y-129896464D01*
X145571978Y-129894479D01*
X145446755Y-129836087D01*
X145445153Y-129835327D01*
X145440441Y-129832758D01*
X145435779Y-129830300D01*
X145316860Y-129759972D01*
X145316851Y-129759967D01*
X145316841Y-129759960D01*
X145315332Y-129759054D01*
X145310931Y-129756063D01*
X145306493Y-129753137D01*
X145194997Y-129671534D01*
X145193573Y-129670477D01*
X145189463Y-129667053D01*
X145185354Y-129663725D01*
X145160210Y-129641243D01*
X145142952Y-129656892D01*
X145141630Y-129658074D01*
X145137446Y-129661414D01*
X145133363Y-129664768D01*
X145022449Y-129747139D01*
X145022440Y-129747147D01*
X145022428Y-129747155D01*
X145021009Y-129748194D01*
X145016534Y-129751100D01*
X145012129Y-129754049D01*
X144893696Y-129825211D01*
X144892170Y-129826114D01*
X144887422Y-129828576D01*
X144882761Y-129831075D01*
X144757949Y-129890340D01*
X144756342Y-129891089D01*
X144751392Y-129893069D01*
X144746495Y-129895108D01*
X144616495Y-129941911D01*
X144614823Y-129942500D01*
X144609690Y-129943991D01*
X144604628Y-129945539D01*
X144470693Y-129979429D01*
X144470683Y-129979432D01*
X144470672Y-129979434D01*
X144468960Y-129979855D01*
X144463713Y-129980837D01*
X144458520Y-129981884D01*
X144321905Y-130002545D01*
X144320150Y-130002798D01*
X144314834Y-130003263D01*
X144309561Y-130003799D01*
X144171583Y-130011031D01*
X144169812Y-130011112D01*
X144164442Y-130011056D01*
X144159174Y-130011074D01*
X144021149Y-130004806D01*
X144019378Y-130004714D01*
X144014057Y-130004136D01*
X144008796Y-130003639D01*
X143872043Y-129983932D01*
X143872040Y-129983932D01*
X143872037Y-129983931D01*
X143870288Y-129983667D01*
X143865074Y-129982578D01*
X143859861Y-129981564D01*
X143725681Y-129948606D01*
X143723962Y-129948171D01*
X143718851Y-129946570D01*
X143713791Y-129945061D01*
X143583468Y-129899167D01*
X143581799Y-129898567D01*
X143576845Y-129896464D01*
X143571980Y-129894479D01*
X143446757Y-129836087D01*
X143445155Y-129835327D01*
X143440443Y-129832758D01*
X143435781Y-129830300D01*
X143316862Y-129759972D01*
X143316853Y-129759967D01*
X143316843Y-129759960D01*
X143315334Y-129759054D01*
X143310933Y-129756063D01*
X143306495Y-129753137D01*
X143194999Y-129671534D01*
X143193575Y-129670477D01*
X143189465Y-129667053D01*
X143185356Y-129663725D01*
X143160212Y-129641243D01*
X143142954Y-129656892D01*
X143141632Y-129658074D01*
X143137448Y-129661414D01*
X143133365Y-129664768D01*
X143022451Y-129747139D01*
X143022442Y-129747147D01*
X143022430Y-129747155D01*
X143021011Y-129748194D01*
X143016536Y-129751100D01*
X143012131Y-129754049D01*
X142893698Y-129825211D01*
X142892172Y-129826114D01*
X142887424Y-129828576D01*
X142882763Y-129831075D01*
X142757951Y-129890340D01*
X142756344Y-129891089D01*
X142751394Y-129893069D01*
X142746497Y-129895108D01*
X142616497Y-129941911D01*
X142614825Y-129942500D01*
X142609692Y-129943991D01*
X142604630Y-129945539D01*
X142470695Y-129979429D01*
X142470685Y-129979432D01*
X142470674Y-129979434D01*
X142468962Y-129979855D01*
X142463715Y-129980837D01*
X142458522Y-129981884D01*
X142321907Y-130002545D01*
X142320152Y-130002798D01*
X142314836Y-130003263D01*
X142309563Y-130003799D01*
X142171585Y-130011031D01*
X142169814Y-130011112D01*
X142164444Y-130011056D01*
X142159176Y-130011074D01*
X142021151Y-130004806D01*
X142019380Y-130004714D01*
X142014059Y-130004136D01*
X142008798Y-130003639D01*
X141872045Y-129983932D01*
X141872042Y-129983932D01*
X141872039Y-129983931D01*
X141870290Y-129983667D01*
X141865076Y-129982578D01*
X141859863Y-129981564D01*
X141725683Y-129948606D01*
X141723964Y-129948171D01*
X141718853Y-129946570D01*
X141713793Y-129945061D01*
X141583470Y-129899167D01*
X141581801Y-129898567D01*
X141576847Y-129896464D01*
X141571982Y-129894479D01*
X141446759Y-129836087D01*
X141445157Y-129835327D01*
X141440445Y-129832758D01*
X141435783Y-129830300D01*
X141316864Y-129759972D01*
X141316855Y-129759967D01*
X141316845Y-129759960D01*
X141315336Y-129759054D01*
X141310935Y-129756063D01*
X141306497Y-129753137D01*
X141195001Y-129671534D01*
X141193577Y-129670477D01*
X141189467Y-129667053D01*
X141185358Y-129663725D01*
X141082358Y-129571632D01*
X141081044Y-129570442D01*
X141079322Y-129568696D01*
X141077521Y-129567074D01*
X141070515Y-129560117D01*
X141069265Y-129558859D01*
X141067641Y-129557030D01*
X141065899Y-129555288D01*
X141063517Y-129552385D01*
X141061027Y-129549581D01*
X141059577Y-129547584D01*
X141057993Y-129545654D01*
X141055913Y-129542541D01*
X141053734Y-129539543D01*
X141052472Y-129537392D01*
X141051068Y-129535291D01*
X141049315Y-129532012D01*
X141047455Y-129528841D01*
X141046398Y-129526553D01*
X141045193Y-129524299D01*
X141043782Y-129520892D01*
X141042250Y-129517577D01*
X141041412Y-129515171D01*
X141040424Y-129512785D01*
X141039358Y-129509272D01*
X141038170Y-129505859D01*
X141037567Y-129503366D01*
X141036806Y-129500858D01*
X141036095Y-129497283D01*
X141035252Y-129493799D01*
X141034890Y-129491226D01*
X141034375Y-129488635D01*
X141034021Y-129485041D01*
X141033525Y-129481513D01*
X141033415Y-129478892D01*
X141033153Y-129476232D01*
X141033153Y-129472644D01*
X141033005Y-129469116D01*
X141033153Y-129466466D01*
X141033153Y-129463768D01*
X141033501Y-129460236D01*
X141033697Y-129456727D01*
X141034109Y-129454067D01*
X141034375Y-129451365D01*
X141035061Y-129447916D01*
X141035595Y-129444466D01*
X141036270Y-129441838D01*
X141036806Y-129439142D01*
X141037823Y-129435790D01*
X141038681Y-129432448D01*
X141039615Y-129429882D01*
X141040424Y-129427215D01*
X141041758Y-129423995D01*
X141042925Y-129420788D01*
X141044114Y-129418305D01*
X141045193Y-129415701D01*
X141046822Y-129412654D01*
X141048286Y-129409597D01*
X141049728Y-129407217D01*
X141051068Y-129404709D01*
X141052980Y-129401848D01*
X141054714Y-129398984D01*
X141056398Y-129396733D01*
X141057993Y-129394346D01*
X141060147Y-129391721D01*
X141062146Y-129389049D01*
X141064062Y-129386950D01*
X141065899Y-129384712D01*
X141068276Y-129382335D01*
X141070512Y-129379886D01*
X141072649Y-129377962D01*
X141074712Y-129375899D01*
X141077291Y-129373782D01*
X141079733Y-129371584D01*
X141082072Y-129369859D01*
X141084346Y-129367993D01*
X141087081Y-129366165D01*
X141089719Y-129364220D01*
X141092248Y-129362712D01*
X141094709Y-129361068D01*
X141097592Y-129359527D01*
X141100377Y-129357867D01*
X141103063Y-129356603D01*
X141103694Y-129356266D01*
X141105701Y-129355193D01*
X141108691Y-129353954D01*
X141111603Y-129352584D01*
X141114430Y-129351577D01*
X141117215Y-129350424D01*
X141120298Y-129349489D01*
X141123293Y-129348422D01*
X141126230Y-129347689D01*
X141129142Y-129346806D01*
X141130892Y-129346458D01*
X141132248Y-129346188D01*
X141135331Y-129345419D01*
X141138374Y-129344970D01*
X141141365Y-129344375D01*
X141144480Y-129344068D01*
X141147607Y-129343606D01*
X141150711Y-129343454D01*
X141153768Y-129343153D01*
X141156870Y-129343153D01*
X141159999Y-129343000D01*
X141163128Y-129343153D01*
X141166232Y-129343153D01*
X141169290Y-129343454D01*
X141172393Y-129343606D01*
X141175529Y-129344069D01*
X141178635Y-129344375D01*
X141181616Y-129344968D01*
X141184667Y-129345418D01*
X141187772Y-129346192D01*
X141190858Y-129346806D01*
X141193743Y-129347681D01*
X141196706Y-129348420D01*
X141199740Y-129349500D01*
X141202785Y-129350424D01*
X141205553Y-129351571D01*
X141208395Y-129352582D01*
X141211340Y-129353967D01*
X141214299Y-129355193D01*
X141216904Y-129356585D01*
X141219623Y-129357864D01*
X141222443Y-129359546D01*
X141225291Y-129361068D01*
X141227120Y-129362290D01*
X141227727Y-129362696D01*
X141230280Y-129364218D01*
X141232947Y-129366184D01*
X141235654Y-129367993D01*
X141237886Y-129369825D01*
X141240268Y-129371580D01*
X141242767Y-129373830D01*
X141245288Y-129375899D01*
X141247309Y-129377920D01*
X141249489Y-129379883D01*
X141254137Y-129384498D01*
X141350026Y-129470234D01*
X141451502Y-129544503D01*
X141559732Y-129608510D01*
X141673698Y-129661653D01*
X141792302Y-129703419D01*
X141914415Y-129733413D01*
X142038877Y-129751350D01*
X142164490Y-129757054D01*
X142290068Y-129750472D01*
X142414395Y-129731669D01*
X142536303Y-129700822D01*
X142654610Y-129658229D01*
X142768208Y-129604289D01*
X142875988Y-129539528D01*
X142976935Y-129464558D01*
X143074691Y-129375918D01*
X143076013Y-129374736D01*
X143077928Y-129373207D01*
X143079731Y-129371584D01*
X143082754Y-129369355D01*
X143085710Y-129366995D01*
X143087754Y-129365667D01*
X143089717Y-129364220D01*
X143092954Y-129362290D01*
X143096116Y-129360237D01*
X143098286Y-129359112D01*
X143100375Y-129357867D01*
X143103777Y-129356266D01*
X143107132Y-129354527D01*
X143109399Y-129353620D01*
X143111601Y-129352584D01*
X143115142Y-129351323D01*
X143118653Y-129349919D01*
X143121006Y-129349235D01*
X143123291Y-129348422D01*
X143126943Y-129347511D01*
X143130568Y-129346458D01*
X143132953Y-129346012D01*
X143135329Y-129345419D01*
X143139087Y-129344864D01*
X143142764Y-129344176D01*
X143145174Y-129343965D01*
X143147605Y-129343606D01*
X143151389Y-129343421D01*
X143155124Y-129343094D01*
X143157554Y-129343119D01*
X143159997Y-129343000D01*
X143163773Y-129343185D01*
X143167532Y-129343224D01*
X143169950Y-129343487D01*
X143172391Y-129343606D01*
X143176131Y-129344158D01*
X143179867Y-129344564D01*
X143182245Y-129345061D01*
X143184665Y-129345418D01*
X143188329Y-129346332D01*
X143192012Y-129347101D01*
X143194341Y-129347831D01*
X143196704Y-129348420D01*
X143200244Y-129349680D01*
X143203852Y-129350811D01*
X143206103Y-129351767D01*
X143208393Y-129352582D01*
X143211809Y-129354189D01*
X143215274Y-129355660D01*
X143217402Y-129356820D01*
X143219621Y-129357864D01*
X143222868Y-129359800D01*
X143226168Y-129361599D01*
X143228187Y-129362971D01*
X143230278Y-129364218D01*
X143233319Y-129366460D01*
X143236430Y-129368574D01*
X143238289Y-129370123D01*
X143240266Y-129371580D01*
X143243085Y-129374118D01*
X143245963Y-129376516D01*
X143247668Y-129378245D01*
X143249487Y-129379883D01*
X143254135Y-129384498D01*
X143350024Y-129470234D01*
X143451500Y-129544503D01*
X143559730Y-129608510D01*
X143673696Y-129661653D01*
X143792300Y-129703419D01*
X143914413Y-129733413D01*
X144038875Y-129751350D01*
X144164488Y-129757054D01*
X144290066Y-129750472D01*
X144414393Y-129731669D01*
X144536301Y-129700822D01*
X144654608Y-129658229D01*
X144768206Y-129604289D01*
X144875986Y-129539528D01*
X144976933Y-129464558D01*
X145074689Y-129375918D01*
X145076011Y-129374736D01*
X145077926Y-129373207D01*
X145079729Y-129371584D01*
X145082752Y-129369355D01*
X145085708Y-129366995D01*
X145087752Y-129365667D01*
X145089715Y-129364220D01*
X145092952Y-129362290D01*
X145096114Y-129360237D01*
X145098284Y-129359112D01*
X145100373Y-129357867D01*
X145103775Y-129356266D01*
X145107130Y-129354527D01*
X145109397Y-129353620D01*
X145111599Y-129352584D01*
X145115140Y-129351323D01*
X145118651Y-129349919D01*
X145121004Y-129349235D01*
X145123289Y-129348422D01*
X145126941Y-129347511D01*
X145130566Y-129346458D01*
X145132951Y-129346012D01*
X145135327Y-129345419D01*
X145139085Y-129344864D01*
X145142762Y-129344176D01*
X145145172Y-129343965D01*
X145147603Y-129343606D01*
X145151387Y-129343421D01*
X145155122Y-129343094D01*
X145157552Y-129343119D01*
X145159995Y-129343000D01*
X145163771Y-129343185D01*
X145167530Y-129343224D01*
X145169948Y-129343487D01*
X145172389Y-129343606D01*
X145176129Y-129344158D01*
X145179865Y-129344564D01*
X145182243Y-129345061D01*
X145184663Y-129345418D01*
X145188327Y-129346332D01*
X145192010Y-129347101D01*
X145194339Y-129347831D01*
X145196702Y-129348420D01*
X145200242Y-129349680D01*
X145203850Y-129350811D01*
X145206101Y-129351767D01*
X145208391Y-129352582D01*
X145211807Y-129354189D01*
X145215272Y-129355660D01*
X145217400Y-129356820D01*
X145219619Y-129357864D01*
X145222866Y-129359800D01*
X145226166Y-129361599D01*
X145228185Y-129362971D01*
X145230276Y-129364218D01*
X145233317Y-129366460D01*
X145236428Y-129368574D01*
X145238287Y-129370123D01*
X145240264Y-129371580D01*
X145243083Y-129374118D01*
X145245961Y-129376516D01*
X145247666Y-129378245D01*
X145249485Y-129379883D01*
X145254133Y-129384498D01*
X145350022Y-129470234D01*
X145451498Y-129544503D01*
X145559728Y-129608510D01*
X145673694Y-129661653D01*
X145792298Y-129703419D01*
X145914411Y-129733413D01*
X146038873Y-129751350D01*
X146164486Y-129757054D01*
X146290064Y-129750472D01*
X146414391Y-129731669D01*
X146536299Y-129700822D01*
X146654606Y-129658229D01*
X146768204Y-129604289D01*
X146875984Y-129539528D01*
X146976931Y-129464558D01*
X147074687Y-129375918D01*
X147076009Y-129374736D01*
X147077924Y-129373207D01*
X147079727Y-129371584D01*
X147082750Y-129369355D01*
X147085706Y-129366995D01*
X147087750Y-129365667D01*
X147089713Y-129364220D01*
X147092950Y-129362290D01*
X147096112Y-129360237D01*
X147098282Y-129359112D01*
X147100371Y-129357867D01*
X147103773Y-129356266D01*
X147107128Y-129354527D01*
X147109395Y-129353620D01*
X147111597Y-129352584D01*
X147115138Y-129351323D01*
X147118649Y-129349919D01*
X147121002Y-129349235D01*
X147123287Y-129348422D01*
X147126939Y-129347511D01*
X147130564Y-129346458D01*
X147132949Y-129346012D01*
X147135325Y-129345419D01*
X147139083Y-129344864D01*
X147142760Y-129344176D01*
X147145170Y-129343965D01*
X147147601Y-129343606D01*
X147151385Y-129343421D01*
X147155120Y-129343094D01*
X147157550Y-129343119D01*
X147159993Y-129343000D01*
X147163769Y-129343185D01*
X147167528Y-129343224D01*
X147169946Y-129343487D01*
X147172387Y-129343606D01*
X147176127Y-129344158D01*
X147179863Y-129344564D01*
X147182241Y-129345061D01*
X147184661Y-129345418D01*
X147188325Y-129346332D01*
X147192008Y-129347101D01*
X147194337Y-129347831D01*
X147196700Y-129348420D01*
X147200240Y-129349680D01*
X147203848Y-129350811D01*
X147206099Y-129351767D01*
X147208389Y-129352582D01*
X147211805Y-129354189D01*
X147215270Y-129355660D01*
X147217398Y-129356820D01*
X147219617Y-129357864D01*
X147222864Y-129359800D01*
X147226164Y-129361599D01*
X147228183Y-129362971D01*
X147230274Y-129364218D01*
X147233315Y-129366460D01*
X147236426Y-129368574D01*
X147238285Y-129370123D01*
X147240262Y-129371580D01*
X147243081Y-129374118D01*
X147245959Y-129376516D01*
X147247664Y-129378245D01*
X147249483Y-129379883D01*
X147254131Y-129384498D01*
X147350020Y-129470234D01*
X147451496Y-129544503D01*
X147559726Y-129608510D01*
X147673692Y-129661653D01*
X147792296Y-129703419D01*
X147914409Y-129733413D01*
X148038871Y-129751350D01*
X148164484Y-129757054D01*
X148290062Y-129750472D01*
X148414389Y-129731669D01*
X148536297Y-129700822D01*
X148654604Y-129658229D01*
X148768202Y-129604289D01*
X148875982Y-129539528D01*
X148976929Y-129464558D01*
X149074685Y-129375918D01*
X149076007Y-129374736D01*
X149077922Y-129373207D01*
X149079725Y-129371584D01*
X149082748Y-129369355D01*
X149085704Y-129366995D01*
X149087748Y-129365667D01*
X149089711Y-129364220D01*
X149092948Y-129362290D01*
X149096110Y-129360237D01*
X149098280Y-129359112D01*
X149100369Y-129357867D01*
X149103771Y-129356266D01*
X149107126Y-129354527D01*
X149109393Y-129353620D01*
X149111595Y-129352584D01*
X149115136Y-129351323D01*
X149118647Y-129349919D01*
X149121000Y-129349235D01*
X149123285Y-129348422D01*
X149126937Y-129347511D01*
X149130562Y-129346458D01*
X149132947Y-129346012D01*
X149135323Y-129345419D01*
X149139081Y-129344864D01*
X149142758Y-129344176D01*
X149145168Y-129343965D01*
X149147599Y-129343606D01*
X149151383Y-129343421D01*
X149155118Y-129343094D01*
X149157548Y-129343119D01*
X149159991Y-129343000D01*
X149163767Y-129343185D01*
X149167526Y-129343224D01*
X149169944Y-129343487D01*
X149172385Y-129343606D01*
X149176125Y-129344158D01*
X149179861Y-129344564D01*
X149182239Y-129345061D01*
X149184659Y-129345418D01*
X149188323Y-129346332D01*
X149192006Y-129347101D01*
X149194335Y-129347831D01*
X149196698Y-129348420D01*
X149200238Y-129349680D01*
X149203846Y-129350811D01*
X149206097Y-129351767D01*
X149208387Y-129352582D01*
X149211803Y-129354189D01*
X149215268Y-129355660D01*
X149217396Y-129356820D01*
X149219615Y-129357864D01*
X149222862Y-129359800D01*
X149226162Y-129361599D01*
X149228181Y-129362971D01*
X149230272Y-129364218D01*
X149233313Y-129366460D01*
X149236424Y-129368574D01*
X149238283Y-129370123D01*
X149240260Y-129371580D01*
X149243079Y-129374118D01*
X149245957Y-129376516D01*
X149247662Y-129378245D01*
X149249481Y-129379883D01*
X149254129Y-129384498D01*
X149350018Y-129470234D01*
X149451494Y-129544503D01*
X149559724Y-129608510D01*
X149673690Y-129661653D01*
X149792294Y-129703419D01*
X149914407Y-129733413D01*
X150038869Y-129751350D01*
X150164482Y-129757054D01*
X150290060Y-129750472D01*
X150414387Y-129731669D01*
X150536295Y-129700822D01*
X150654602Y-129658229D01*
X150768200Y-129604289D01*
X150875980Y-129539528D01*
X150976927Y-129464558D01*
X151074683Y-129375918D01*
X151076005Y-129374736D01*
X151077920Y-129373207D01*
X151079723Y-129371584D01*
X151082746Y-129369355D01*
X151085702Y-129366995D01*
X151087746Y-129365667D01*
X151089709Y-129364220D01*
X151092946Y-129362290D01*
X151096108Y-129360237D01*
X151098278Y-129359112D01*
X151100367Y-129357867D01*
X151103769Y-129356266D01*
X151107124Y-129354527D01*
X151109391Y-129353620D01*
X151111593Y-129352584D01*
X151115134Y-129351323D01*
X151118645Y-129349919D01*
X151120998Y-129349235D01*
X151123283Y-129348422D01*
X151126935Y-129347511D01*
X151130560Y-129346458D01*
X151132945Y-129346012D01*
X151135321Y-129345419D01*
X151139079Y-129344864D01*
X151142756Y-129344176D01*
X151145166Y-129343965D01*
X151147597Y-129343606D01*
X151151381Y-129343421D01*
X151155116Y-129343094D01*
X151157546Y-129343119D01*
X151159989Y-129343000D01*
X151163765Y-129343185D01*
X151167524Y-129343224D01*
X151169942Y-129343487D01*
X151172383Y-129343606D01*
X151176123Y-129344158D01*
X151179859Y-129344564D01*
X151182237Y-129345061D01*
X151184657Y-129345418D01*
X151188321Y-129346332D01*
X151192004Y-129347101D01*
X151194333Y-129347831D01*
X151196696Y-129348420D01*
X151200236Y-129349680D01*
X151203844Y-129350811D01*
X151206095Y-129351767D01*
X151208385Y-129352582D01*
X151211801Y-129354189D01*
X151215266Y-129355660D01*
X151217394Y-129356820D01*
X151219613Y-129357864D01*
X151222860Y-129359800D01*
X151226160Y-129361599D01*
X151228179Y-129362971D01*
X151230270Y-129364218D01*
X151233311Y-129366460D01*
X151236422Y-129368574D01*
X151238281Y-129370123D01*
X151240258Y-129371580D01*
X151243077Y-129374118D01*
X151245955Y-129376516D01*
X151247660Y-129378245D01*
X151249479Y-129379883D01*
X151254127Y-129384498D01*
X151350016Y-129470234D01*
X151451492Y-129544503D01*
X151559722Y-129608510D01*
X151673688Y-129661653D01*
X151792292Y-129703419D01*
X151914405Y-129733413D01*
X152038867Y-129751350D01*
X152164480Y-129757054D01*
X152290058Y-129750472D01*
X152414385Y-129731669D01*
X152536293Y-129700822D01*
X152654600Y-129658229D01*
X152768198Y-129604289D01*
X152875978Y-129539528D01*
X152976925Y-129464558D01*
X153074681Y-129375918D01*
X153076003Y-129374736D01*
X153077918Y-129373207D01*
X153079721Y-129371584D01*
X153082744Y-129369355D01*
X153085700Y-129366995D01*
X153087744Y-129365667D01*
X153089707Y-129364220D01*
X153092944Y-129362290D01*
X153096106Y-129360237D01*
X153098276Y-129359112D01*
X153100365Y-129357867D01*
X153103767Y-129356266D01*
X153107122Y-129354527D01*
X153109389Y-129353620D01*
X153111591Y-129352584D01*
X153115132Y-129351323D01*
X153118643Y-129349919D01*
X153120996Y-129349235D01*
X153123281Y-129348422D01*
X153126933Y-129347511D01*
X153130558Y-129346458D01*
X153132943Y-129346012D01*
X153135319Y-129345419D01*
X153139077Y-129344864D01*
X153142754Y-129344176D01*
X153145164Y-129343965D01*
X153147595Y-129343606D01*
X153151379Y-129343421D01*
X153155114Y-129343094D01*
X153157544Y-129343119D01*
X153159987Y-129343000D01*
X153163763Y-129343185D01*
X153167522Y-129343224D01*
X153169940Y-129343487D01*
X153172381Y-129343606D01*
X153176121Y-129344158D01*
X153179857Y-129344564D01*
X153182235Y-129345061D01*
X153184655Y-129345418D01*
X153188319Y-129346332D01*
X153192002Y-129347101D01*
X153194331Y-129347831D01*
X153196694Y-129348420D01*
X153200234Y-129349680D01*
X153203842Y-129350811D01*
X153206093Y-129351767D01*
X153208383Y-129352582D01*
X153211799Y-129354189D01*
X153215264Y-129355660D01*
X153217392Y-129356820D01*
X153219611Y-129357864D01*
X153222858Y-129359800D01*
X153226158Y-129361599D01*
X153228177Y-129362971D01*
X153230268Y-129364218D01*
X153233309Y-129366460D01*
X153236420Y-129368574D01*
X153238279Y-129370123D01*
X153240256Y-129371580D01*
X153243075Y-129374118D01*
X153245953Y-129376516D01*
X153247658Y-129378245D01*
X153249477Y-129379883D01*
X153254125Y-129384498D01*
X153350014Y-129470234D01*
X153451490Y-129544503D01*
X153559720Y-129608510D01*
X153673686Y-129661653D01*
X153792290Y-129703419D01*
X153914403Y-129733413D01*
X154038865Y-129751350D01*
X154164478Y-129757054D01*
X154290056Y-129750472D01*
X154414383Y-129731669D01*
X154536291Y-129700822D01*
X154654598Y-129658229D01*
X154768196Y-129604289D01*
X154875976Y-129539528D01*
X154976923Y-129464558D01*
X155074679Y-129375918D01*
X155076001Y-129374736D01*
X155077916Y-129373207D01*
X155079719Y-129371584D01*
X155082742Y-129369355D01*
X155085698Y-129366995D01*
X155087742Y-129365667D01*
X155089705Y-129364220D01*
X155092942Y-129362290D01*
X155096104Y-129360237D01*
X155098274Y-129359112D01*
X155100363Y-129357867D01*
X155103765Y-129356266D01*
X155107120Y-129354527D01*
X155109387Y-129353620D01*
X155111589Y-129352584D01*
X155115130Y-129351323D01*
X155118641Y-129349919D01*
X155120994Y-129349235D01*
X155123279Y-129348422D01*
X155126931Y-129347511D01*
X155130556Y-129346458D01*
X155132941Y-129346012D01*
X155135317Y-129345419D01*
X155139075Y-129344864D01*
X155142752Y-129344176D01*
X155145162Y-129343965D01*
X155147593Y-129343606D01*
X155151377Y-129343421D01*
X155155112Y-129343094D01*
X155157542Y-129343119D01*
X155159985Y-129343000D01*
X155163761Y-129343185D01*
G37*
G36*
X155563761Y-128543185D02*
G01*
X155567520Y-128543224D01*
X155569938Y-128543487D01*
X155572379Y-128543606D01*
X155576119Y-128544158D01*
X155579855Y-128544564D01*
X155582233Y-128545061D01*
X155584653Y-128545418D01*
X155588317Y-128546332D01*
X155592000Y-128547101D01*
X155594329Y-128547831D01*
X155596692Y-128548420D01*
X155600232Y-128549680D01*
X155603840Y-128550811D01*
X155606091Y-128551767D01*
X155608381Y-128552582D01*
X155611797Y-128554189D01*
X155615262Y-128555660D01*
X155617390Y-128556820D01*
X155619609Y-128557864D01*
X155622856Y-128559800D01*
X155626156Y-128561599D01*
X155628175Y-128562971D01*
X155630266Y-128564218D01*
X155633307Y-128566460D01*
X155636418Y-128568574D01*
X155638277Y-128570123D01*
X155640254Y-128571580D01*
X155643073Y-128574118D01*
X155645951Y-128576516D01*
X155647656Y-128578245D01*
X155649475Y-128579883D01*
X155654123Y-128584498D01*
X155750012Y-128670234D01*
X155851488Y-128744503D01*
X155959718Y-128808510D01*
X156073684Y-128861653D01*
X156192288Y-128903419D01*
X156314401Y-128933413D01*
X156438863Y-128951350D01*
X156564476Y-128957054D01*
X156690054Y-128950472D01*
X156814381Y-128931669D01*
X156936289Y-128900822D01*
X157054596Y-128858229D01*
X157168194Y-128804289D01*
X157275974Y-128739528D01*
X157376921Y-128664558D01*
X157474677Y-128575918D01*
X157475999Y-128574736D01*
X157485696Y-128566995D01*
X157496102Y-128560237D01*
X157507118Y-128554527D01*
X157518639Y-128549919D01*
X157530554Y-128546458D01*
X157542750Y-128544176D01*
X157555110Y-128543094D01*
X157567518Y-128543224D01*
X157579853Y-128544564D01*
X157591998Y-128547101D01*
X157603838Y-128550811D01*
X157615260Y-128555660D01*
X157626154Y-128561599D01*
X157636416Y-128568574D01*
X157645949Y-128576516D01*
X157654661Y-128585351D01*
X157662469Y-128594993D01*
X157669300Y-128605352D01*
X157675087Y-128616328D01*
X157679775Y-128627815D01*
X157683319Y-128639706D01*
X157685687Y-128651886D01*
X157686855Y-128664239D01*
X157686812Y-128676646D01*
X157685558Y-128688991D01*
X157683105Y-128701154D01*
X157679477Y-128713020D01*
X157674709Y-128724475D01*
X157668846Y-128735410D01*
X157661944Y-128745720D01*
X157654068Y-128755309D01*
X157645294Y-128764082D01*
X157542940Y-128856892D01*
X157541618Y-128858074D01*
X157537434Y-128861414D01*
X157533351Y-128864768D01*
X157422437Y-128947139D01*
X157422428Y-128947147D01*
X157422416Y-128947155D01*
X157420997Y-128948194D01*
X157416522Y-128951100D01*
X157412117Y-128954049D01*
X157293684Y-129025211D01*
X157292158Y-129026114D01*
X157287410Y-129028576D01*
X157282749Y-129031075D01*
X157157937Y-129090340D01*
X157156330Y-129091089D01*
X157151380Y-129093069D01*
X157146483Y-129095108D01*
X157016483Y-129141911D01*
X157014811Y-129142500D01*
X157009678Y-129143991D01*
X157004616Y-129145539D01*
X156870681Y-129179429D01*
X156870671Y-129179432D01*
X156870660Y-129179434D01*
X156868948Y-129179855D01*
X156863701Y-129180837D01*
X156858508Y-129181884D01*
X156721893Y-129202545D01*
X156720138Y-129202798D01*
X156714822Y-129203263D01*
X156709549Y-129203799D01*
X156571571Y-129211031D01*
X156569800Y-129211112D01*
X156564430Y-129211056D01*
X156559162Y-129211074D01*
X156421137Y-129204806D01*
X156419366Y-129204714D01*
X156414045Y-129204136D01*
X156408784Y-129203639D01*
X156272031Y-129183932D01*
X156272028Y-129183932D01*
X156272025Y-129183931D01*
X156270276Y-129183667D01*
X156265062Y-129182578D01*
X156259849Y-129181564D01*
X156125669Y-129148606D01*
X156123950Y-129148171D01*
X156118839Y-129146570D01*
X156113779Y-129145061D01*
X155983456Y-129099167D01*
X155981787Y-129098567D01*
X155976833Y-129096464D01*
X155971968Y-129094479D01*
X155846745Y-129036087D01*
X155845143Y-129035327D01*
X155840431Y-129032758D01*
X155835769Y-129030300D01*
X155716850Y-128959972D01*
X155716841Y-128959967D01*
X155716831Y-128959960D01*
X155715322Y-128959054D01*
X155710921Y-128956063D01*
X155706483Y-128953137D01*
X155594987Y-128871534D01*
X155593563Y-128870477D01*
X155589453Y-128867053D01*
X155585344Y-128863725D01*
X155560200Y-128841243D01*
X155542942Y-128856892D01*
X155541620Y-128858074D01*
X155537436Y-128861414D01*
X155533353Y-128864768D01*
X155422439Y-128947139D01*
X155422430Y-128947147D01*
X155422418Y-128947155D01*
X155420999Y-128948194D01*
X155416524Y-128951100D01*
X155412119Y-128954049D01*
X155293686Y-129025211D01*
X155292160Y-129026114D01*
X155287412Y-129028576D01*
X155282751Y-129031075D01*
X155157939Y-129090340D01*
X155156332Y-129091089D01*
X155151382Y-129093069D01*
X155146485Y-129095108D01*
X155016485Y-129141911D01*
X155014813Y-129142500D01*
X155009680Y-129143991D01*
X155004618Y-129145539D01*
X154870683Y-129179429D01*
X154870673Y-129179432D01*
X154870662Y-129179434D01*
X154868950Y-129179855D01*
X154863703Y-129180837D01*
X154858510Y-129181884D01*
X154721895Y-129202545D01*
X154720140Y-129202798D01*
X154714824Y-129203263D01*
X154709551Y-129203799D01*
X154571573Y-129211031D01*
X154569802Y-129211112D01*
X154564432Y-129211056D01*
X154559164Y-129211074D01*
X154421139Y-129204806D01*
X154419368Y-129204714D01*
X154414047Y-129204136D01*
X154408786Y-129203639D01*
X154272033Y-129183932D01*
X154272030Y-129183932D01*
X154272027Y-129183931D01*
X154270278Y-129183667D01*
X154265064Y-129182578D01*
X154259851Y-129181564D01*
X154125671Y-129148606D01*
X154123952Y-129148171D01*
X154118841Y-129146570D01*
X154113781Y-129145061D01*
X153983458Y-129099167D01*
X153981789Y-129098567D01*
X153976835Y-129096464D01*
X153971970Y-129094479D01*
X153846747Y-129036087D01*
X153845145Y-129035327D01*
X153840433Y-129032758D01*
X153835771Y-129030300D01*
X153716852Y-128959972D01*
X153716843Y-128959967D01*
X153716833Y-128959960D01*
X153715324Y-128959054D01*
X153710923Y-128956063D01*
X153706485Y-128953137D01*
X153594989Y-128871534D01*
X153593565Y-128870477D01*
X153589455Y-128867053D01*
X153585346Y-128863725D01*
X153560202Y-128841243D01*
X153542944Y-128856892D01*
X153541622Y-128858074D01*
X153537438Y-128861414D01*
X153533355Y-128864768D01*
X153422441Y-128947139D01*
X153422432Y-128947147D01*
X153422420Y-128947155D01*
X153421001Y-128948194D01*
X153416526Y-128951100D01*
X153412121Y-128954049D01*
X153293688Y-129025211D01*
X153292162Y-129026114D01*
X153287414Y-129028576D01*
X153282753Y-129031075D01*
X153157941Y-129090340D01*
X153156334Y-129091089D01*
X153151384Y-129093069D01*
X153146487Y-129095108D01*
X153016487Y-129141911D01*
X153014815Y-129142500D01*
X153009682Y-129143991D01*
X153004620Y-129145539D01*
X152870685Y-129179429D01*
X152870675Y-129179432D01*
X152870664Y-129179434D01*
X152868952Y-129179855D01*
X152863705Y-129180837D01*
X152858512Y-129181884D01*
X152721897Y-129202545D01*
X152720142Y-129202798D01*
X152714826Y-129203263D01*
X152709553Y-129203799D01*
X152571575Y-129211031D01*
X152569804Y-129211112D01*
X152564434Y-129211056D01*
X152559166Y-129211074D01*
X152421141Y-129204806D01*
X152419370Y-129204714D01*
X152414049Y-129204136D01*
X152408788Y-129203639D01*
X152272035Y-129183932D01*
X152272032Y-129183932D01*
X152272029Y-129183931D01*
X152270280Y-129183667D01*
X152265066Y-129182578D01*
X152259853Y-129181564D01*
X152125673Y-129148606D01*
X152123954Y-129148171D01*
X152118843Y-129146570D01*
X152113783Y-129145061D01*
X151983460Y-129099167D01*
X151981791Y-129098567D01*
X151976837Y-129096464D01*
X151971972Y-129094479D01*
X151846749Y-129036087D01*
X151845147Y-129035327D01*
X151840435Y-129032758D01*
X151835773Y-129030300D01*
X151716854Y-128959972D01*
X151716845Y-128959967D01*
X151716835Y-128959960D01*
X151715326Y-128959054D01*
X151710925Y-128956063D01*
X151706487Y-128953137D01*
X151594991Y-128871534D01*
X151593567Y-128870477D01*
X151589457Y-128867053D01*
X151585348Y-128863725D01*
X151560204Y-128841243D01*
X151542946Y-128856892D01*
X151541624Y-128858074D01*
X151537440Y-128861414D01*
X151533357Y-128864768D01*
X151422443Y-128947139D01*
X151422434Y-128947147D01*
X151422422Y-128947155D01*
X151421003Y-128948194D01*
X151416528Y-128951100D01*
X151412123Y-128954049D01*
X151293690Y-129025211D01*
X151292164Y-129026114D01*
X151287416Y-129028576D01*
X151282755Y-129031075D01*
X151157943Y-129090340D01*
X151156336Y-129091089D01*
X151151386Y-129093069D01*
X151146489Y-129095108D01*
X151016489Y-129141911D01*
X151014817Y-129142500D01*
X151009684Y-129143991D01*
X151004622Y-129145539D01*
X150870687Y-129179429D01*
X150870677Y-129179432D01*
X150870666Y-129179434D01*
X150868954Y-129179855D01*
X150863707Y-129180837D01*
X150858514Y-129181884D01*
X150721899Y-129202545D01*
X150720144Y-129202798D01*
X150714828Y-129203263D01*
X150709555Y-129203799D01*
X150571577Y-129211031D01*
X150569806Y-129211112D01*
X150564436Y-129211056D01*
X150559168Y-129211074D01*
X150421143Y-129204806D01*
X150419372Y-129204714D01*
X150414051Y-129204136D01*
X150408790Y-129203639D01*
X150272037Y-129183932D01*
X150272034Y-129183932D01*
X150272031Y-129183931D01*
X150270282Y-129183667D01*
X150265068Y-129182578D01*
X150259855Y-129181564D01*
X150125675Y-129148606D01*
X150123956Y-129148171D01*
X150118845Y-129146570D01*
X150113785Y-129145061D01*
X149983462Y-129099167D01*
X149981793Y-129098567D01*
X149976839Y-129096464D01*
X149971974Y-129094479D01*
X149846751Y-129036087D01*
X149845149Y-129035327D01*
X149840437Y-129032758D01*
X149835775Y-129030300D01*
X149716856Y-128959972D01*
X149716847Y-128959967D01*
X149716837Y-128959960D01*
X149715328Y-128959054D01*
X149710927Y-128956063D01*
X149706489Y-128953137D01*
X149594993Y-128871534D01*
X149593569Y-128870477D01*
X149589459Y-128867053D01*
X149585350Y-128863725D01*
X149560206Y-128841243D01*
X149542948Y-128856892D01*
X149541626Y-128858074D01*
X149537442Y-128861414D01*
X149533359Y-128864768D01*
X149422445Y-128947139D01*
X149422436Y-128947147D01*
X149422424Y-128947155D01*
X149421005Y-128948194D01*
X149416530Y-128951100D01*
X149412125Y-128954049D01*
X149293692Y-129025211D01*
X149292166Y-129026114D01*
X149287418Y-129028576D01*
X149282757Y-129031075D01*
X149157945Y-129090340D01*
X149156338Y-129091089D01*
X149151388Y-129093069D01*
X149146491Y-129095108D01*
X149016491Y-129141911D01*
X149014819Y-129142500D01*
X149009686Y-129143991D01*
X149004624Y-129145539D01*
X148870689Y-129179429D01*
X148870679Y-129179432D01*
X148870668Y-129179434D01*
X148868956Y-129179855D01*
X148863709Y-129180837D01*
X148858516Y-129181884D01*
X148721901Y-129202545D01*
X148720146Y-129202798D01*
X148714830Y-129203263D01*
X148709557Y-129203799D01*
X148571579Y-129211031D01*
X148569808Y-129211112D01*
X148564438Y-129211056D01*
X148559170Y-129211074D01*
X148421145Y-129204806D01*
X148419374Y-129204714D01*
X148414053Y-129204136D01*
X148408792Y-129203639D01*
X148272039Y-129183932D01*
X148272036Y-129183932D01*
X148272033Y-129183931D01*
X148270284Y-129183667D01*
X148265070Y-129182578D01*
X148259857Y-129181564D01*
X148125677Y-129148606D01*
X148123958Y-129148171D01*
X148118847Y-129146570D01*
X148113787Y-129145061D01*
X147983464Y-129099167D01*
X147981795Y-129098567D01*
X147976841Y-129096464D01*
X147971976Y-129094479D01*
X147846753Y-129036087D01*
X147845151Y-129035327D01*
X147840439Y-129032758D01*
X147835777Y-129030300D01*
X147716858Y-128959972D01*
X147716849Y-128959967D01*
X147716839Y-128959960D01*
X147715330Y-128959054D01*
X147710929Y-128956063D01*
X147706491Y-128953137D01*
X147594995Y-128871534D01*
X147593571Y-128870477D01*
X147589461Y-128867053D01*
X147585352Y-128863725D01*
X147560208Y-128841243D01*
X147542950Y-128856892D01*
X147541628Y-128858074D01*
X147537444Y-128861414D01*
X147533361Y-128864768D01*
X147422447Y-128947139D01*
X147422438Y-128947147D01*
X147422426Y-128947155D01*
X147421007Y-128948194D01*
X147416532Y-128951100D01*
X147412127Y-128954049D01*
X147293694Y-129025211D01*
X147292168Y-129026114D01*
X147287420Y-129028576D01*
X147282759Y-129031075D01*
X147157947Y-129090340D01*
X147156340Y-129091089D01*
X147151390Y-129093069D01*
X147146493Y-129095108D01*
X147016493Y-129141911D01*
X147014821Y-129142500D01*
X147009688Y-129143991D01*
X147004626Y-129145539D01*
X146870691Y-129179429D01*
X146870681Y-129179432D01*
X146870670Y-129179434D01*
X146868958Y-129179855D01*
X146863711Y-129180837D01*
X146858518Y-129181884D01*
X146721903Y-129202545D01*
X146720148Y-129202798D01*
X146714832Y-129203263D01*
X146709559Y-129203799D01*
X146571581Y-129211031D01*
X146569810Y-129211112D01*
X146564440Y-129211056D01*
X146559172Y-129211074D01*
X146421147Y-129204806D01*
X146419376Y-129204714D01*
X146414055Y-129204136D01*
X146408794Y-129203639D01*
X146272041Y-129183932D01*
X146272038Y-129183932D01*
X146272035Y-129183931D01*
X146270286Y-129183667D01*
X146265072Y-129182578D01*
X146259859Y-129181564D01*
X146125679Y-129148606D01*
X146123960Y-129148171D01*
X146118849Y-129146570D01*
X146113789Y-129145061D01*
X145983466Y-129099167D01*
X145981797Y-129098567D01*
X145976843Y-129096464D01*
X145971978Y-129094479D01*
X145846755Y-129036087D01*
X145845153Y-129035327D01*
X145840441Y-129032758D01*
X145835779Y-129030300D01*
X145716860Y-128959972D01*
X145716851Y-128959967D01*
X145716841Y-128959960D01*
X145715332Y-128959054D01*
X145710931Y-128956063D01*
X145706493Y-128953137D01*
X145594997Y-128871534D01*
X145593573Y-128870477D01*
X145589463Y-128867053D01*
X145585354Y-128863725D01*
X145560210Y-128841243D01*
X145542952Y-128856892D01*
X145541630Y-128858074D01*
X145537446Y-128861414D01*
X145533363Y-128864768D01*
X145422449Y-128947139D01*
X145422440Y-128947147D01*
X145422428Y-128947155D01*
X145421009Y-128948194D01*
X145416534Y-128951100D01*
X145412129Y-128954049D01*
X145293696Y-129025211D01*
X145292170Y-129026114D01*
X145287422Y-129028576D01*
X145282761Y-129031075D01*
X145157949Y-129090340D01*
X145156342Y-129091089D01*
X145151392Y-129093069D01*
X145146495Y-129095108D01*
X145016495Y-129141911D01*
X145014823Y-129142500D01*
X145009690Y-129143991D01*
X145004628Y-129145539D01*
X144870693Y-129179429D01*
X144870683Y-129179432D01*
X144870672Y-129179434D01*
X144868960Y-129179855D01*
X144863713Y-129180837D01*
X144858520Y-129181884D01*
X144721905Y-129202545D01*
X144720150Y-129202798D01*
X144714834Y-129203263D01*
X144709561Y-129203799D01*
X144571583Y-129211031D01*
X144569812Y-129211112D01*
X144564442Y-129211056D01*
X144559174Y-129211074D01*
X144421149Y-129204806D01*
X144419378Y-129204714D01*
X144414057Y-129204136D01*
X144408796Y-129203639D01*
X144272043Y-129183932D01*
X144272040Y-129183932D01*
X144272037Y-129183931D01*
X144270288Y-129183667D01*
X144265074Y-129182578D01*
X144259861Y-129181564D01*
X144125681Y-129148606D01*
X144123962Y-129148171D01*
X144118851Y-129146570D01*
X144113791Y-129145061D01*
X143983468Y-129099167D01*
X143981799Y-129098567D01*
X143976845Y-129096464D01*
X143971980Y-129094479D01*
X143846757Y-129036087D01*
X143845155Y-129035327D01*
X143840443Y-129032758D01*
X143835781Y-129030300D01*
X143716862Y-128959972D01*
X143716853Y-128959967D01*
X143716843Y-128959960D01*
X143715334Y-128959054D01*
X143710933Y-128956063D01*
X143706495Y-128953137D01*
X143594999Y-128871534D01*
X143593575Y-128870477D01*
X143589465Y-128867053D01*
X143585356Y-128863725D01*
X143560212Y-128841243D01*
X143542954Y-128856892D01*
X143541632Y-128858074D01*
X143537448Y-128861414D01*
X143533365Y-128864768D01*
X143422451Y-128947139D01*
X143422442Y-128947147D01*
X143422430Y-128947155D01*
X143421011Y-128948194D01*
X143416536Y-128951100D01*
X143412131Y-128954049D01*
X143293698Y-129025211D01*
X143292172Y-129026114D01*
X143287424Y-129028576D01*
X143282763Y-129031075D01*
X143157951Y-129090340D01*
X143156344Y-129091089D01*
X143151394Y-129093069D01*
X143146497Y-129095108D01*
X143016497Y-129141911D01*
X143014825Y-129142500D01*
X143009692Y-129143991D01*
X143004630Y-129145539D01*
X142870695Y-129179429D01*
X142870685Y-129179432D01*
X142870674Y-129179434D01*
X142868962Y-129179855D01*
X142863715Y-129180837D01*
X142858522Y-129181884D01*
X142721907Y-129202545D01*
X142720152Y-129202798D01*
X142714836Y-129203263D01*
X142709563Y-129203799D01*
X142571585Y-129211031D01*
X142569814Y-129211112D01*
X142564444Y-129211056D01*
X142559176Y-129211074D01*
X142421151Y-129204806D01*
X142419380Y-129204714D01*
X142414059Y-129204136D01*
X142408798Y-129203639D01*
X142272045Y-129183932D01*
X142272042Y-129183932D01*
X142272039Y-129183931D01*
X142270290Y-129183667D01*
X142265076Y-129182578D01*
X142259863Y-129181564D01*
X142125683Y-129148606D01*
X142123964Y-129148171D01*
X142118853Y-129146570D01*
X142113793Y-129145061D01*
X141983470Y-129099167D01*
X141981801Y-129098567D01*
X141976847Y-129096464D01*
X141971982Y-129094479D01*
X141846759Y-129036087D01*
X141845157Y-129035327D01*
X141840445Y-129032758D01*
X141835783Y-129030300D01*
X141716864Y-128959972D01*
X141716855Y-128959967D01*
X141716845Y-128959960D01*
X141715336Y-128959054D01*
X141710935Y-128956063D01*
X141706497Y-128953137D01*
X141595001Y-128871534D01*
X141593577Y-128870477D01*
X141589467Y-128867053D01*
X141585358Y-128863725D01*
X141482358Y-128771632D01*
X141481044Y-128770442D01*
X141479322Y-128768696D01*
X141477521Y-128767074D01*
X141470515Y-128760117D01*
X141469265Y-128758859D01*
X141467641Y-128757030D01*
X141465899Y-128755288D01*
X141463517Y-128752385D01*
X141461027Y-128749581D01*
X141459577Y-128747584D01*
X141457993Y-128745654D01*
X141455913Y-128742541D01*
X141453734Y-128739543D01*
X141452472Y-128737392D01*
X141451068Y-128735291D01*
X141449315Y-128732012D01*
X141447455Y-128728841D01*
X141446398Y-128726553D01*
X141445193Y-128724299D01*
X141443782Y-128720892D01*
X141442250Y-128717577D01*
X141441412Y-128715171D01*
X141440424Y-128712785D01*
X141439358Y-128709272D01*
X141438170Y-128705859D01*
X141437567Y-128703366D01*
X141436806Y-128700858D01*
X141436095Y-128697283D01*
X141435252Y-128693799D01*
X141434890Y-128691226D01*
X141434375Y-128688635D01*
X141434021Y-128685041D01*
X141433525Y-128681513D01*
X141433415Y-128678892D01*
X141433153Y-128676232D01*
X141433153Y-128672644D01*
X141433005Y-128669116D01*
X141433153Y-128666466D01*
X141433153Y-128663768D01*
X141433501Y-128660236D01*
X141433697Y-128656727D01*
X141434109Y-128654067D01*
X141434375Y-128651365D01*
X141435061Y-128647916D01*
X141435595Y-128644466D01*
X141436270Y-128641838D01*
X141436806Y-128639142D01*
X141437823Y-128635790D01*
X141438681Y-128632448D01*
X141439615Y-128629882D01*
X141440424Y-128627215D01*
X141441758Y-128623995D01*
X141442925Y-128620788D01*
X141444114Y-128618305D01*
X141445193Y-128615701D01*
X141446822Y-128612654D01*
X141448286Y-128609597D01*
X141449728Y-128607217D01*
X141451068Y-128604709D01*
X141452980Y-128601848D01*
X141454714Y-128598984D01*
X141456398Y-128596733D01*
X141457993Y-128594346D01*
X141460147Y-128591721D01*
X141462146Y-128589049D01*
X141464062Y-128586950D01*
X141465899Y-128584712D01*
X141468276Y-128582335D01*
X141470512Y-128579886D01*
X141472649Y-128577962D01*
X141474712Y-128575899D01*
X141477291Y-128573782D01*
X141479733Y-128571584D01*
X141482072Y-128569859D01*
X141484346Y-128567993D01*
X141487081Y-128566165D01*
X141489719Y-128564220D01*
X141492248Y-128562712D01*
X141494709Y-128561068D01*
X141497592Y-128559527D01*
X141500377Y-128557867D01*
X141503063Y-128556603D01*
X141503694Y-128556266D01*
X141505701Y-128555193D01*
X141508691Y-128553954D01*
X141511603Y-128552584D01*
X141514430Y-128551577D01*
X141517215Y-128550424D01*
X141520298Y-128549489D01*
X141523293Y-128548422D01*
X141526230Y-128547689D01*
X141529142Y-128546806D01*
X141530892Y-128546458D01*
X141532248Y-128546188D01*
X141535331Y-128545419D01*
X141538374Y-128544970D01*
X141541365Y-128544375D01*
X141544480Y-128544068D01*
X141547607Y-128543606D01*
X141550711Y-128543454D01*
X141553768Y-128543153D01*
X141556870Y-128543153D01*
X141559999Y-128543000D01*
X141563128Y-128543153D01*
X141566232Y-128543153D01*
X141569290Y-128543454D01*
X141572393Y-128543606D01*
X141575529Y-128544069D01*
X141578635Y-128544375D01*
X141581616Y-128544968D01*
X141584667Y-128545418D01*
X141587772Y-128546192D01*
X141590858Y-128546806D01*
X141593743Y-128547681D01*
X141596706Y-128548420D01*
X141599740Y-128549500D01*
X141602785Y-128550424D01*
X141605553Y-128551571D01*
X141608395Y-128552582D01*
X141611340Y-128553967D01*
X141614299Y-128555193D01*
X141616904Y-128556585D01*
X141619623Y-128557864D01*
X141622443Y-128559546D01*
X141625291Y-128561068D01*
X141627120Y-128562290D01*
X141627727Y-128562696D01*
X141630280Y-128564218D01*
X141632947Y-128566184D01*
X141635654Y-128567993D01*
X141637886Y-128569825D01*
X141640268Y-128571580D01*
X141642767Y-128573830D01*
X141645288Y-128575899D01*
X141647309Y-128577920D01*
X141649489Y-128579883D01*
X141654137Y-128584498D01*
X141750026Y-128670234D01*
X141851502Y-128744503D01*
X141959732Y-128808510D01*
X142073698Y-128861653D01*
X142192302Y-128903419D01*
X142314415Y-128933413D01*
X142438877Y-128951350D01*
X142564490Y-128957054D01*
X142690068Y-128950472D01*
X142814395Y-128931669D01*
X142936303Y-128900822D01*
X143054610Y-128858229D01*
X143168208Y-128804289D01*
X143275988Y-128739528D01*
X143376935Y-128664558D01*
X143474691Y-128575918D01*
X143476013Y-128574736D01*
X143477928Y-128573207D01*
X143479731Y-128571584D01*
X143482754Y-128569355D01*
X143485710Y-128566995D01*
X143487754Y-128565667D01*
X143489717Y-128564220D01*
X143492954Y-128562290D01*
X143496116Y-128560237D01*
X143498286Y-128559112D01*
X143500375Y-128557867D01*
X143503777Y-128556266D01*
X143507132Y-128554527D01*
X143509399Y-128553620D01*
X143511601Y-128552584D01*
X143515142Y-128551323D01*
X143518653Y-128549919D01*
X143521006Y-128549235D01*
X143523291Y-128548422D01*
X143526943Y-128547511D01*
X143530568Y-128546458D01*
X143532953Y-128546012D01*
X143535329Y-128545419D01*
X143539087Y-128544864D01*
X143542764Y-128544176D01*
X143545174Y-128543965D01*
X143547605Y-128543606D01*
X143551389Y-128543421D01*
X143555124Y-128543094D01*
X143557554Y-128543119D01*
X143559997Y-128543000D01*
X143563773Y-128543185D01*
X143567532Y-128543224D01*
X143569950Y-128543487D01*
X143572391Y-128543606D01*
X143576131Y-128544158D01*
X143579867Y-128544564D01*
X143582245Y-128545061D01*
X143584665Y-128545418D01*
X143588329Y-128546332D01*
X143592012Y-128547101D01*
X143594341Y-128547831D01*
X143596704Y-128548420D01*
X143600244Y-128549680D01*
X143603852Y-128550811D01*
X143606103Y-128551767D01*
X143608393Y-128552582D01*
X143611809Y-128554189D01*
X143615274Y-128555660D01*
X143617402Y-128556820D01*
X143619621Y-128557864D01*
X143622868Y-128559800D01*
X143626168Y-128561599D01*
X143628187Y-128562971D01*
X143630278Y-128564218D01*
X143633319Y-128566460D01*
X143636430Y-128568574D01*
X143638289Y-128570123D01*
X143640266Y-128571580D01*
X143643085Y-128574118D01*
X143645963Y-128576516D01*
X143647668Y-128578245D01*
X143649487Y-128579883D01*
X143654135Y-128584498D01*
X143750024Y-128670234D01*
X143851500Y-128744503D01*
X143959730Y-128808510D01*
X144073696Y-128861653D01*
X144192300Y-128903419D01*
X144314413Y-128933413D01*
X144438875Y-128951350D01*
X144564488Y-128957054D01*
X144690066Y-128950472D01*
X144814393Y-128931669D01*
X144936301Y-128900822D01*
X145054608Y-128858229D01*
X145168206Y-128804289D01*
X145275986Y-128739528D01*
X145376933Y-128664558D01*
X145474689Y-128575918D01*
X145476011Y-128574736D01*
X145477926Y-128573207D01*
X145479729Y-128571584D01*
X145482752Y-128569355D01*
X145485708Y-128566995D01*
X145487752Y-128565667D01*
X145489715Y-128564220D01*
X145492952Y-128562290D01*
X145496114Y-128560237D01*
X145498284Y-128559112D01*
X145500373Y-128557867D01*
X145503775Y-128556266D01*
X145507130Y-128554527D01*
X145509397Y-128553620D01*
X145511599Y-128552584D01*
X145515140Y-128551323D01*
X145518651Y-128549919D01*
X145521004Y-128549235D01*
X145523289Y-128548422D01*
X145526941Y-128547511D01*
X145530566Y-128546458D01*
X145532951Y-128546012D01*
X145535327Y-128545419D01*
X145539085Y-128544864D01*
X145542762Y-128544176D01*
X145545172Y-128543965D01*
X145547603Y-128543606D01*
X145551387Y-128543421D01*
X145555122Y-128543094D01*
X145557552Y-128543119D01*
X145559995Y-128543000D01*
X145563771Y-128543185D01*
X145567530Y-128543224D01*
X145569948Y-128543487D01*
X145572389Y-128543606D01*
X145576129Y-128544158D01*
X145579865Y-128544564D01*
X145582243Y-128545061D01*
X145584663Y-128545418D01*
X145588327Y-128546332D01*
X145592010Y-128547101D01*
X145594339Y-128547831D01*
X145596702Y-128548420D01*
X145600242Y-128549680D01*
X145603850Y-128550811D01*
X145606101Y-128551767D01*
X145608391Y-128552582D01*
X145611807Y-128554189D01*
X145615272Y-128555660D01*
X145617400Y-128556820D01*
X145619619Y-128557864D01*
X145622866Y-128559800D01*
X145626166Y-128561599D01*
X145628185Y-128562971D01*
X145630276Y-128564218D01*
X145633317Y-128566460D01*
X145636428Y-128568574D01*
X145638287Y-128570123D01*
X145640264Y-128571580D01*
X145643083Y-128574118D01*
X145645961Y-128576516D01*
X145647666Y-128578245D01*
X145649485Y-128579883D01*
X145654133Y-128584498D01*
X145750022Y-128670234D01*
X145851498Y-128744503D01*
X145959728Y-128808510D01*
X146073694Y-128861653D01*
X146192298Y-128903419D01*
X146314411Y-128933413D01*
X146438873Y-128951350D01*
X146564486Y-128957054D01*
X146690064Y-128950472D01*
X146814391Y-128931669D01*
X146936299Y-128900822D01*
X147054606Y-128858229D01*
X147168204Y-128804289D01*
X147275984Y-128739528D01*
X147376931Y-128664558D01*
X147474687Y-128575918D01*
X147476009Y-128574736D01*
X147477924Y-128573207D01*
X147479727Y-128571584D01*
X147482750Y-128569355D01*
X147485706Y-128566995D01*
X147487750Y-128565667D01*
X147489713Y-128564220D01*
X147492950Y-128562290D01*
X147496112Y-128560237D01*
X147498282Y-128559112D01*
X147500371Y-128557867D01*
X147503773Y-128556266D01*
X147507128Y-128554527D01*
X147509395Y-128553620D01*
X147511597Y-128552584D01*
X147515138Y-128551323D01*
X147518649Y-128549919D01*
X147521002Y-128549235D01*
X147523287Y-128548422D01*
X147526939Y-128547511D01*
X147530564Y-128546458D01*
X147532949Y-128546012D01*
X147535325Y-128545419D01*
X147539083Y-128544864D01*
X147542760Y-128544176D01*
X147545170Y-128543965D01*
X147547601Y-128543606D01*
X147551385Y-128543421D01*
X147555120Y-128543094D01*
X147557550Y-128543119D01*
X147559993Y-128543000D01*
X147563769Y-128543185D01*
X147567528Y-128543224D01*
X147569946Y-128543487D01*
X147572387Y-128543606D01*
X147576127Y-128544158D01*
X147579863Y-128544564D01*
X147582241Y-128545061D01*
X147584661Y-128545418D01*
X147588325Y-128546332D01*
X147592008Y-128547101D01*
X147594337Y-128547831D01*
X147596700Y-128548420D01*
X147600240Y-128549680D01*
X147603848Y-128550811D01*
X147606099Y-128551767D01*
X147608389Y-128552582D01*
X147611805Y-128554189D01*
X147615270Y-128555660D01*
X147617398Y-128556820D01*
X147619617Y-128557864D01*
X147622864Y-128559800D01*
X147626164Y-128561599D01*
X147628183Y-128562971D01*
X147630274Y-128564218D01*
X147633315Y-128566460D01*
X147636426Y-128568574D01*
X147638285Y-128570123D01*
X147640262Y-128571580D01*
X147643081Y-128574118D01*
X147645959Y-128576516D01*
X147647664Y-128578245D01*
X147649483Y-128579883D01*
X147654131Y-128584498D01*
X147750020Y-128670234D01*
X147851496Y-128744503D01*
X147959726Y-128808510D01*
X148073692Y-128861653D01*
X148192296Y-128903419D01*
X148314409Y-128933413D01*
X148438871Y-128951350D01*
X148564484Y-128957054D01*
X148690062Y-128950472D01*
X148814389Y-128931669D01*
X148936297Y-128900822D01*
X149054604Y-128858229D01*
X149168202Y-128804289D01*
X149275982Y-128739528D01*
X149376929Y-128664558D01*
X149474685Y-128575918D01*
X149476007Y-128574736D01*
X149477922Y-128573207D01*
X149479725Y-128571584D01*
X149482748Y-128569355D01*
X149485704Y-128566995D01*
X149487748Y-128565667D01*
X149489711Y-128564220D01*
X149492948Y-128562290D01*
X149496110Y-128560237D01*
X149498280Y-128559112D01*
X149500369Y-128557867D01*
X149503771Y-128556266D01*
X149507126Y-128554527D01*
X149509393Y-128553620D01*
X149511595Y-128552584D01*
X149515136Y-128551323D01*
X149518647Y-128549919D01*
X149521000Y-128549235D01*
X149523285Y-128548422D01*
X149526937Y-128547511D01*
X149530562Y-128546458D01*
X149532947Y-128546012D01*
X149535323Y-128545419D01*
X149539081Y-128544864D01*
X149542758Y-128544176D01*
X149545168Y-128543965D01*
X149547599Y-128543606D01*
X149551383Y-128543421D01*
X149555118Y-128543094D01*
X149557548Y-128543119D01*
X149559991Y-128543000D01*
X149563767Y-128543185D01*
X149567526Y-128543224D01*
X149569944Y-128543487D01*
X149572385Y-128543606D01*
X149576125Y-128544158D01*
X149579861Y-128544564D01*
X149582239Y-128545061D01*
X149584659Y-128545418D01*
X149588323Y-128546332D01*
X149592006Y-128547101D01*
X149594335Y-128547831D01*
X149596698Y-128548420D01*
X149600238Y-128549680D01*
X149603846Y-128550811D01*
X149606097Y-128551767D01*
X149608387Y-128552582D01*
X149611803Y-128554189D01*
X149615268Y-128555660D01*
X149617396Y-128556820D01*
X149619615Y-128557864D01*
X149622862Y-128559800D01*
X149626162Y-128561599D01*
X149628181Y-128562971D01*
X149630272Y-128564218D01*
X149633313Y-128566460D01*
X149636424Y-128568574D01*
X149638283Y-128570123D01*
X149640260Y-128571580D01*
X149643079Y-128574118D01*
X149645957Y-128576516D01*
X149647662Y-128578245D01*
X149649481Y-128579883D01*
X149654129Y-128584498D01*
X149750018Y-128670234D01*
X149851494Y-128744503D01*
X149959724Y-128808510D01*
X150073690Y-128861653D01*
X150192294Y-128903419D01*
X150314407Y-128933413D01*
X150438869Y-128951350D01*
X150564482Y-128957054D01*
X150690060Y-128950472D01*
X150814387Y-128931669D01*
X150936295Y-128900822D01*
X151054602Y-128858229D01*
X151168200Y-128804289D01*
X151275980Y-128739528D01*
X151376927Y-128664558D01*
X151474683Y-128575918D01*
X151476005Y-128574736D01*
X151477920Y-128573207D01*
X151479723Y-128571584D01*
X151482746Y-128569355D01*
X151485702Y-128566995D01*
X151487746Y-128565667D01*
X151489709Y-128564220D01*
X151492946Y-128562290D01*
X151496108Y-128560237D01*
X151498278Y-128559112D01*
X151500367Y-128557867D01*
X151503769Y-128556266D01*
X151507124Y-128554527D01*
X151509391Y-128553620D01*
X151511593Y-128552584D01*
X151515134Y-128551323D01*
X151518645Y-128549919D01*
X151520998Y-128549235D01*
X151523283Y-128548422D01*
X151526935Y-128547511D01*
X151530560Y-128546458D01*
X151532945Y-128546012D01*
X151535321Y-128545419D01*
X151539079Y-128544864D01*
X151542756Y-128544176D01*
X151545166Y-128543965D01*
X151547597Y-128543606D01*
X151551381Y-128543421D01*
X151555116Y-128543094D01*
X151557546Y-128543119D01*
X151559989Y-128543000D01*
X151563765Y-128543185D01*
X151567524Y-128543224D01*
X151569942Y-128543487D01*
X151572383Y-128543606D01*
X151576123Y-128544158D01*
X151579859Y-128544564D01*
X151582237Y-128545061D01*
X151584657Y-128545418D01*
X151588321Y-128546332D01*
X151592004Y-128547101D01*
X151594333Y-128547831D01*
X151596696Y-128548420D01*
X151600236Y-128549680D01*
X151603844Y-128550811D01*
X151606095Y-128551767D01*
X151608385Y-128552582D01*
X151611801Y-128554189D01*
X151615266Y-128555660D01*
X151617394Y-128556820D01*
X151619613Y-128557864D01*
X151622860Y-128559800D01*
X151626160Y-128561599D01*
X151628179Y-128562971D01*
X151630270Y-128564218D01*
X151633311Y-128566460D01*
X151636422Y-128568574D01*
X151638281Y-128570123D01*
X151640258Y-128571580D01*
X151643077Y-128574118D01*
X151645955Y-128576516D01*
X151647660Y-128578245D01*
X151649479Y-128579883D01*
X151654127Y-128584498D01*
X151750016Y-128670234D01*
X151851492Y-128744503D01*
X151959722Y-128808510D01*
X152073688Y-128861653D01*
X152192292Y-128903419D01*
X152314405Y-128933413D01*
X152438867Y-128951350D01*
X152564480Y-128957054D01*
X152690058Y-128950472D01*
X152814385Y-128931669D01*
X152936293Y-128900822D01*
X153054600Y-128858229D01*
X153168198Y-128804289D01*
X153275978Y-128739528D01*
X153376925Y-128664558D01*
X153474681Y-128575918D01*
X153476003Y-128574736D01*
X153477918Y-128573207D01*
X153479721Y-128571584D01*
X153482744Y-128569355D01*
X153485700Y-128566995D01*
X153487744Y-128565667D01*
X153489707Y-128564220D01*
X153492944Y-128562290D01*
X153496106Y-128560237D01*
X153498276Y-128559112D01*
X153500365Y-128557867D01*
X153503767Y-128556266D01*
X153507122Y-128554527D01*
X153509389Y-128553620D01*
X153511591Y-128552584D01*
X153515132Y-128551323D01*
X153518643Y-128549919D01*
X153520996Y-128549235D01*
X153523281Y-128548422D01*
X153526933Y-128547511D01*
X153530558Y-128546458D01*
X153532943Y-128546012D01*
X153535319Y-128545419D01*
X153539077Y-128544864D01*
X153542754Y-128544176D01*
X153545164Y-128543965D01*
X153547595Y-128543606D01*
X153551379Y-128543421D01*
X153555114Y-128543094D01*
X153557544Y-128543119D01*
X153559987Y-128543000D01*
X153563763Y-128543185D01*
X153567522Y-128543224D01*
X153569940Y-128543487D01*
X153572381Y-128543606D01*
X153576121Y-128544158D01*
X153579857Y-128544564D01*
X153582235Y-128545061D01*
X153584655Y-128545418D01*
X153588319Y-128546332D01*
X153592002Y-128547101D01*
X153594331Y-128547831D01*
X153596694Y-128548420D01*
X153600234Y-128549680D01*
X153603842Y-128550811D01*
X153606093Y-128551767D01*
X153608383Y-128552582D01*
X153611799Y-128554189D01*
X153615264Y-128555660D01*
X153617392Y-128556820D01*
X153619611Y-128557864D01*
X153622858Y-128559800D01*
X153626158Y-128561599D01*
X153628177Y-128562971D01*
X153630268Y-128564218D01*
X153633309Y-128566460D01*
X153636420Y-128568574D01*
X153638279Y-128570123D01*
X153640256Y-128571580D01*
X153643075Y-128574118D01*
X153645953Y-128576516D01*
X153647658Y-128578245D01*
X153649477Y-128579883D01*
X153654125Y-128584498D01*
X153750014Y-128670234D01*
X153851490Y-128744503D01*
X153959720Y-128808510D01*
X154073686Y-128861653D01*
X154192290Y-128903419D01*
X154314403Y-128933413D01*
X154438865Y-128951350D01*
X154564478Y-128957054D01*
X154690056Y-128950472D01*
X154814383Y-128931669D01*
X154936291Y-128900822D01*
X155054598Y-128858229D01*
X155168196Y-128804289D01*
X155275976Y-128739528D01*
X155376923Y-128664558D01*
X155474679Y-128575918D01*
X155476001Y-128574736D01*
X155477916Y-128573207D01*
X155479719Y-128571584D01*
X155482742Y-128569355D01*
X155485698Y-128566995D01*
X155487742Y-128565667D01*
X155489705Y-128564220D01*
X155492942Y-128562290D01*
X155496104Y-128560237D01*
X155498274Y-128559112D01*
X155500363Y-128557867D01*
X155503765Y-128556266D01*
X155507120Y-128554527D01*
X155509387Y-128553620D01*
X155511589Y-128552584D01*
X155515130Y-128551323D01*
X155518641Y-128549919D01*
X155520994Y-128549235D01*
X155523279Y-128548422D01*
X155526931Y-128547511D01*
X155530556Y-128546458D01*
X155532941Y-128546012D01*
X155535317Y-128545419D01*
X155539075Y-128544864D01*
X155542752Y-128544176D01*
X155545162Y-128543965D01*
X155547593Y-128543606D01*
X155551377Y-128543421D01*
X155555112Y-128543094D01*
X155557542Y-128543119D01*
X155559985Y-128543000D01*
X155563761Y-128543185D01*
G37*
G36*
X147019203Y-121220854D02*
G01*
X147028614Y-121223594D01*
X147037310Y-121228117D01*
X147045750Y-121235044D01*
X147283000Y-121477686D01*
X147283000Y-121420000D01*
X147537000Y-121420000D01*
X147537000Y-121737459D01*
X147595750Y-121797544D01*
X147601883Y-121805190D01*
X147606406Y-121813886D01*
X147609146Y-121823297D01*
X147610000Y-121832500D01*
X147610000Y-122420000D01*
X147609039Y-122429755D01*
X147606194Y-122439134D01*
X147601573Y-122447779D01*
X147595355Y-122455355D01*
X147587779Y-122461573D01*
X147579134Y-122466194D01*
X147569755Y-122469039D01*
X147560000Y-122470000D01*
X147110000Y-122470000D01*
X147100245Y-122469039D01*
X147090866Y-122466194D01*
X147082221Y-122461573D01*
X147074645Y-122455355D01*
X147068427Y-122447779D01*
X147063806Y-122439134D01*
X147060961Y-122429755D01*
X147060000Y-122420000D01*
X147060000Y-122070000D01*
X146760000Y-122070000D01*
X146760000Y-122420000D01*
X146759039Y-122429755D01*
X146756194Y-122439134D01*
X146751573Y-122447779D01*
X146745355Y-122455355D01*
X146737779Y-122461573D01*
X146729134Y-122466194D01*
X146719755Y-122469039D01*
X146710000Y-122470000D01*
X146460000Y-122470000D01*
X146450245Y-122469039D01*
X146440866Y-122466194D01*
X146432221Y-122461573D01*
X146424645Y-122455355D01*
X146418427Y-122447779D01*
X146413806Y-122439134D01*
X146410961Y-122429755D01*
X146410000Y-122420000D01*
X146410000Y-121832500D01*
X146410961Y-121822745D01*
X146413806Y-121813366D01*
X146418427Y-121804721D01*
X146424250Y-121797544D01*
X146974250Y-121235044D01*
X146981756Y-121228741D01*
X146990348Y-121224024D01*
X146999695Y-121221073D01*
X147009438Y-121220003D01*
X147019203Y-121220854D01*
G37*
G36*
X150469203Y-119870854D02*
G01*
X150478614Y-119873594D01*
X150487310Y-119878117D01*
X150495750Y-119885044D01*
X150733000Y-120127686D01*
X150733000Y-120070000D01*
X150987000Y-120070000D01*
X150987000Y-120387459D01*
X151045750Y-120447544D01*
X151051883Y-120455190D01*
X151056406Y-120463886D01*
X151059146Y-120473297D01*
X151060000Y-120482500D01*
X151060000Y-121070000D01*
X151059039Y-121079755D01*
X151056194Y-121089134D01*
X151051573Y-121097779D01*
X151045355Y-121105355D01*
X151037779Y-121111573D01*
X151029134Y-121116194D01*
X151019755Y-121119039D01*
X151010000Y-121120000D01*
X150560000Y-121120000D01*
X150550245Y-121119039D01*
X150540866Y-121116194D01*
X150532221Y-121111573D01*
X150524645Y-121105355D01*
X150518427Y-121097779D01*
X150513806Y-121089134D01*
X150510961Y-121079755D01*
X150510000Y-121070000D01*
X150510000Y-120720000D01*
X150210000Y-120720000D01*
X150210000Y-121070000D01*
X150209039Y-121079755D01*
X150206194Y-121089134D01*
X150201573Y-121097779D01*
X150195355Y-121105355D01*
X150187779Y-121111573D01*
X150179134Y-121116194D01*
X150169755Y-121119039D01*
X150160000Y-121120000D01*
X149910000Y-121120000D01*
X149900245Y-121119039D01*
X149890866Y-121116194D01*
X149882221Y-121111573D01*
X149874645Y-121105355D01*
X149868427Y-121097779D01*
X149863806Y-121089134D01*
X149860961Y-121079755D01*
X149860000Y-121070000D01*
X149860000Y-120482500D01*
X149860961Y-120472745D01*
X149863806Y-120463366D01*
X149868427Y-120454721D01*
X149874250Y-120447544D01*
X150424250Y-119885044D01*
X150431756Y-119878741D01*
X150440348Y-119874024D01*
X150449695Y-119871073D01*
X150459438Y-119870003D01*
X150469203Y-119870854D01*
G37*
G36*
X149619203Y-122870854D02*
G01*
X149628614Y-122873594D01*
X149637310Y-122878117D01*
X149645750Y-122885044D01*
X149883000Y-123127686D01*
X149883000Y-123070000D01*
X150137000Y-123070000D01*
X150137000Y-123387459D01*
X150195750Y-123447544D01*
X150201883Y-123455190D01*
X150206406Y-123463886D01*
X150209146Y-123473297D01*
X150210000Y-123482500D01*
X150210000Y-124070000D01*
X150209039Y-124079755D01*
X150206194Y-124089134D01*
X150201573Y-124097779D01*
X150195355Y-124105355D01*
X150187779Y-124111573D01*
X150179134Y-124116194D01*
X150169755Y-124119039D01*
X150160000Y-124120000D01*
X149710000Y-124120000D01*
X149700245Y-124119039D01*
X149690866Y-124116194D01*
X149682221Y-124111573D01*
X149674645Y-124105355D01*
X149668427Y-124097779D01*
X149663806Y-124089134D01*
X149660961Y-124079755D01*
X149660000Y-124070000D01*
X149660000Y-123720000D01*
X149360000Y-123720000D01*
X149360000Y-124070000D01*
X149359039Y-124079755D01*
X149356194Y-124089134D01*
X149351573Y-124097779D01*
X149345355Y-124105355D01*
X149337779Y-124111573D01*
X149329134Y-124116194D01*
X149319755Y-124119039D01*
X149310000Y-124120000D01*
X149060000Y-124120000D01*
X149050245Y-124119039D01*
X149040866Y-124116194D01*
X149032221Y-124111573D01*
X149024645Y-124105355D01*
X149018427Y-124097779D01*
X149013806Y-124089134D01*
X149010961Y-124079755D01*
X149010000Y-124070000D01*
X149010000Y-123482500D01*
X149010961Y-123472745D01*
X149013806Y-123463366D01*
X149018427Y-123454721D01*
X149024250Y-123447544D01*
X149574250Y-122885044D01*
X149581756Y-122878741D01*
X149590348Y-122874024D01*
X149599695Y-122871073D01*
X149609438Y-122870003D01*
X149619203Y-122870854D01*
G37*
G36*
X147269203Y-124620854D02*
G01*
X147278614Y-124623594D01*
X147287310Y-124628117D01*
X147295750Y-124635044D01*
X147533000Y-124877686D01*
X147533000Y-124820000D01*
X147787000Y-124820000D01*
X147787000Y-125137459D01*
X147845750Y-125197544D01*
X147851883Y-125205190D01*
X147856406Y-125213886D01*
X147859146Y-125223297D01*
X147860000Y-125232500D01*
X147860000Y-125820000D01*
X147859039Y-125829755D01*
X147856194Y-125839134D01*
X147851573Y-125847779D01*
X147845355Y-125855355D01*
X147837779Y-125861573D01*
X147829134Y-125866194D01*
X147819755Y-125869039D01*
X147810000Y-125870000D01*
X147360000Y-125870000D01*
X147350245Y-125869039D01*
X147340866Y-125866194D01*
X147332221Y-125861573D01*
X147324645Y-125855355D01*
X147318427Y-125847779D01*
X147313806Y-125839134D01*
X147310961Y-125829755D01*
X147310000Y-125820000D01*
X147310000Y-125470000D01*
X147010000Y-125470000D01*
X147010000Y-125820000D01*
X147009039Y-125829755D01*
X147006194Y-125839134D01*
X147001573Y-125847779D01*
X146995355Y-125855355D01*
X146987779Y-125861573D01*
X146979134Y-125866194D01*
X146969755Y-125869039D01*
X146960000Y-125870000D01*
X146710000Y-125870000D01*
X146700245Y-125869039D01*
X146690866Y-125866194D01*
X146682221Y-125861573D01*
X146674645Y-125855355D01*
X146668427Y-125847779D01*
X146663806Y-125839134D01*
X146660961Y-125829755D01*
X146660000Y-125820000D01*
X146660000Y-125232500D01*
X146660961Y-125222745D01*
X146663806Y-125213366D01*
X146668427Y-125204721D01*
X146674250Y-125197544D01*
X147224250Y-124635044D01*
X147231756Y-124628741D01*
X147240348Y-124624024D01*
X147249695Y-124621073D01*
X147259438Y-124620003D01*
X147269203Y-124620854D01*
G37*
G36*
X151694033Y-111613804D02*
G01*
X151755715Y-111626074D01*
X151815897Y-111644330D01*
X151874000Y-111668397D01*
X151929465Y-111698043D01*
X151981756Y-111732983D01*
X152030371Y-111772881D01*
X152074841Y-111817351D01*
X152114739Y-111865966D01*
X152124911Y-111881189D01*
X152155107Y-111890349D01*
X152188776Y-111904295D01*
X152220917Y-111921475D01*
X152251218Y-111941722D01*
X152279389Y-111964841D01*
X152305159Y-111990611D01*
X152328278Y-112018782D01*
X152348525Y-112049083D01*
X152365705Y-112081224D01*
X152379651Y-112114893D01*
X152390230Y-112149767D01*
X152397340Y-112185510D01*
X152400912Y-112221778D01*
X152400912Y-112258222D01*
X152397340Y-112294490D01*
X152390230Y-112330233D01*
X152379651Y-112365107D01*
X152365705Y-112398776D01*
X152348525Y-112430917D01*
X152336136Y-112449458D01*
X152337340Y-112455510D01*
X152340912Y-112491778D01*
X152340912Y-112528222D01*
X152337340Y-112564490D01*
X152330230Y-112600233D01*
X152319651Y-112635107D01*
X152305705Y-112668776D01*
X152288525Y-112700917D01*
X152268278Y-112731218D01*
X152245159Y-112759389D01*
X152219389Y-112785159D01*
X152191218Y-112808278D01*
X152160917Y-112828525D01*
X152128776Y-112845705D01*
X152095107Y-112859651D01*
X152060233Y-112870230D01*
X152024490Y-112877340D01*
X151988222Y-112880912D01*
X151951778Y-112880912D01*
X151915510Y-112877340D01*
X151910232Y-112876290D01*
X151717000Y-113086572D01*
X151717000Y-113957846D01*
X151801346Y-114081884D01*
X151806037Y-114090491D01*
X151808958Y-114099847D01*
X151809998Y-114109594D01*
X151809117Y-114119356D01*
X151806348Y-114128758D01*
X151801798Y-114137440D01*
X151795642Y-114145067D01*
X151788116Y-114151346D01*
X151779509Y-114156037D01*
X151770153Y-114158958D01*
X151760000Y-114160000D01*
X151470000Y-114160000D01*
X151460245Y-114159039D01*
X151450866Y-114156194D01*
X151442221Y-114151573D01*
X151434645Y-114145355D01*
X151428427Y-114137779D01*
X151423806Y-114129134D01*
X151420961Y-114119755D01*
X151420000Y-114110000D01*
X151420961Y-114100245D01*
X151424924Y-114088363D01*
X151463000Y-114009038D01*
X151463000Y-113076392D01*
X151326897Y-112943871D01*
X151312172Y-112951742D01*
X151279903Y-112965108D01*
X151246480Y-112975247D01*
X151212223Y-112982061D01*
X151177464Y-112985484D01*
X151142536Y-112985484D01*
X151107777Y-112982061D01*
X151073520Y-112975247D01*
X151040097Y-112965108D01*
X151007828Y-112951742D01*
X150977024Y-112935277D01*
X150947983Y-112915872D01*
X150920983Y-112893714D01*
X150896286Y-112869017D01*
X150874128Y-112842017D01*
X150854723Y-112812976D01*
X150838258Y-112782172D01*
X150824892Y-112749903D01*
X150814753Y-112716480D01*
X150807939Y-112682223D01*
X150804516Y-112647464D01*
X150804516Y-112612536D01*
X150807939Y-112577777D01*
X150814753Y-112543520D01*
X150824892Y-112510097D01*
X150838258Y-112477828D01*
X150854723Y-112447024D01*
X150863480Y-112433918D01*
X150861475Y-112430917D01*
X150844295Y-112398776D01*
X150830349Y-112365107D01*
X150819770Y-112330233D01*
X150812660Y-112294490D01*
X150809088Y-112258222D01*
X150809088Y-112221778D01*
X150812660Y-112185510D01*
X150819770Y-112149767D01*
X150830349Y-112114893D01*
X150844295Y-112081224D01*
X150861475Y-112049083D01*
X150881722Y-112018782D01*
X150904841Y-111990611D01*
X150930611Y-111964841D01*
X150958782Y-111941722D01*
X150989083Y-111921475D01*
X151021224Y-111904295D01*
X151054893Y-111890349D01*
X151072547Y-111884994D01*
X151085261Y-111865966D01*
X151125159Y-111817351D01*
X151169629Y-111772881D01*
X151218244Y-111732983D01*
X151270535Y-111698043D01*
X151326000Y-111668397D01*
X151384103Y-111644330D01*
X151444285Y-111626074D01*
X151505967Y-111613804D01*
X151568555Y-111607640D01*
X151631445Y-111607640D01*
X151694033Y-111613804D01*
G37*
G36*
X148765462Y-127441290D02*
G01*
X148767234Y-127441328D01*
X148772562Y-127441742D01*
X148777844Y-127442078D01*
X149012455Y-127468576D01*
X149014215Y-127468787D01*
X149019505Y-127469724D01*
X149024701Y-127470570D01*
X149255585Y-127519832D01*
X149255605Y-127519835D01*
X149255627Y-127519841D01*
X149257337Y-127520217D01*
X149262475Y-127521656D01*
X149267599Y-127523014D01*
X149492594Y-127594577D01*
X149494280Y-127595126D01*
X149498432Y-127596740D01*
X149502586Y-127598223D01*
X149658486Y-127662620D01*
X149809461Y-127724983D01*
X150023478Y-127793054D01*
X150242217Y-127839724D01*
X150464497Y-127864830D01*
X150688140Y-127868123D01*
X150911059Y-127849577D01*
X151131086Y-127809369D01*
X151346157Y-127747877D01*
X151559962Y-127663415D01*
X151561615Y-127662774D01*
X151573419Y-127658949D01*
X151585540Y-127656294D01*
X151597861Y-127654835D01*
X151610267Y-127654584D01*
X151622637Y-127655546D01*
X151634855Y-127657710D01*
X151646803Y-127661055D01*
X151658368Y-127665552D01*
X151669438Y-127671154D01*
X151679909Y-127677811D01*
X151689681Y-127685457D01*
X151698660Y-127694021D01*
X151706760Y-127703420D01*
X151713904Y-127713565D01*
X151720025Y-127724358D01*
X151725063Y-127735697D01*
X151728970Y-127747473D01*
X151731710Y-127759575D01*
X151733256Y-127771886D01*
X151733593Y-127784289D01*
X151732717Y-127796666D01*
X151730639Y-127808898D01*
X151727377Y-127820870D01*
X151722962Y-127832465D01*
X151717437Y-127843575D01*
X151710853Y-127854093D01*
X151703275Y-127863917D01*
X151694774Y-127872956D01*
X151685432Y-127881122D01*
X151675338Y-127888336D01*
X151664588Y-127894533D01*
X151653284Y-127899650D01*
X151433713Y-127986388D01*
X151433696Y-127986396D01*
X151433675Y-127986403D01*
X151432043Y-127987036D01*
X151426953Y-127988685D01*
X151421947Y-127990385D01*
X151194942Y-128055290D01*
X151193234Y-128055766D01*
X151187993Y-128056914D01*
X151182859Y-128058114D01*
X150950604Y-128100556D01*
X150948857Y-128100863D01*
X150943559Y-128101491D01*
X150938304Y-128102188D01*
X150703018Y-128121764D01*
X150703014Y-128121764D01*
X150701247Y-128121899D01*
X150695898Y-128122007D01*
X150690615Y-128122187D01*
X150454539Y-128118710D01*
X150452766Y-128118672D01*
X150447439Y-128118258D01*
X150442156Y-128117922D01*
X150207547Y-128091424D01*
X150207542Y-128091424D01*
X150205785Y-128091213D01*
X150200502Y-128090277D01*
X150195298Y-128089430D01*
X149964415Y-128040168D01*
X149964395Y-128040165D01*
X149964373Y-128040159D01*
X149962663Y-128039783D01*
X149957516Y-128038342D01*
X149952401Y-128036986D01*
X149727406Y-127965423D01*
X149725720Y-127964874D01*
X149721565Y-127963259D01*
X149717415Y-127961777D01*
X149561514Y-127897380D01*
X149561462Y-127897358D01*
X149410539Y-127835017D01*
X149196524Y-127766947D01*
X148977783Y-127720276D01*
X148755504Y-127695170D01*
X148531861Y-127691877D01*
X148308941Y-127710423D01*
X148088911Y-127750631D01*
X147873852Y-127812121D01*
X147660171Y-127896533D01*
X147653284Y-127899650D01*
X147433713Y-127986388D01*
X147433696Y-127986396D01*
X147433675Y-127986403D01*
X147432043Y-127987036D01*
X147426953Y-127988685D01*
X147421947Y-127990385D01*
X147194942Y-128055290D01*
X147193234Y-128055766D01*
X147187993Y-128056914D01*
X147182859Y-128058114D01*
X146950604Y-128100556D01*
X146948857Y-128100863D01*
X146943559Y-128101491D01*
X146938304Y-128102188D01*
X146703018Y-128121764D01*
X146703014Y-128121764D01*
X146701247Y-128121899D01*
X146695898Y-128122007D01*
X146690615Y-128122187D01*
X146454539Y-128118710D01*
X146452766Y-128118672D01*
X146447439Y-128118258D01*
X146442156Y-128117922D01*
X146207547Y-128091424D01*
X146207542Y-128091424D01*
X146205785Y-128091213D01*
X146200502Y-128090277D01*
X146195298Y-128089430D01*
X145964415Y-128040168D01*
X145964395Y-128040165D01*
X145964373Y-128040159D01*
X145962663Y-128039783D01*
X145957516Y-128038342D01*
X145952401Y-128036986D01*
X145727406Y-127965423D01*
X145725720Y-127964874D01*
X145721565Y-127963259D01*
X145717415Y-127961777D01*
X145561514Y-127897380D01*
X145559880Y-127896692D01*
X145557817Y-127895683D01*
X145555701Y-127894807D01*
X145552265Y-127892970D01*
X145548732Y-127891244D01*
X145546752Y-127890024D01*
X145544709Y-127888932D01*
X145543817Y-127888336D01*
X145541488Y-127886780D01*
X145538169Y-127884735D01*
X145536287Y-127883304D01*
X145534346Y-127882007D01*
X145531380Y-127879573D01*
X145528292Y-127877225D01*
X145526550Y-127875609D01*
X145524712Y-127874101D01*
X145522006Y-127871395D01*
X145519194Y-127868787D01*
X145517599Y-127866988D01*
X145515899Y-127865288D01*
X145513499Y-127862363D01*
X145510963Y-127859503D01*
X145509528Y-127857524D01*
X145507993Y-127855654D01*
X145505905Y-127852530D01*
X145503678Y-127849459D01*
X145502434Y-127847335D01*
X145501068Y-127845291D01*
X145499310Y-127842002D01*
X145497407Y-127838753D01*
X145496360Y-127836482D01*
X145495193Y-127834299D01*
X145493780Y-127830887D01*
X145492211Y-127827485D01*
X145491381Y-127825097D01*
X145490424Y-127822785D01*
X145489358Y-127819270D01*
X145488140Y-127815764D01*
X145487542Y-127813284D01*
X145486806Y-127810858D01*
X145486097Y-127807291D01*
X145485231Y-127803702D01*
X145484873Y-127801137D01*
X145484375Y-127798635D01*
X145484021Y-127795043D01*
X145483514Y-127791414D01*
X145483407Y-127788808D01*
X145483153Y-127786232D01*
X145483153Y-127782638D01*
X145483004Y-127779016D01*
X145483153Y-127776387D01*
X145483153Y-127773768D01*
X145483502Y-127770223D01*
X145483706Y-127766628D01*
X145484116Y-127763993D01*
X145484375Y-127761365D01*
X145485065Y-127757896D01*
X145485614Y-127754368D01*
X145486284Y-127751767D01*
X145486806Y-127749142D01*
X145487827Y-127745776D01*
X145488709Y-127742352D01*
X145489639Y-127739802D01*
X145490424Y-127737215D01*
X145491053Y-127735697D01*
X145491761Y-127733987D01*
X145492961Y-127730696D01*
X145494150Y-127728220D01*
X145495193Y-127725701D01*
X145496823Y-127722652D01*
X145498331Y-127719510D01*
X145499767Y-127717143D01*
X145501068Y-127714709D01*
X145502977Y-127711852D01*
X145504767Y-127708902D01*
X145506446Y-127706661D01*
X145507993Y-127704346D01*
X145510149Y-127701719D01*
X145512207Y-127698972D01*
X145514118Y-127696882D01*
X145515899Y-127694712D01*
X145518281Y-127692330D01*
X145520580Y-127689816D01*
X145522706Y-127687905D01*
X145524712Y-127685899D01*
X145527303Y-127683773D01*
X145529808Y-127681521D01*
X145532127Y-127679814D01*
X145534346Y-127677993D01*
X145534618Y-127677811D01*
X145537117Y-127676141D01*
X145539800Y-127674166D01*
X145542295Y-127672681D01*
X145544709Y-127671068D01*
X145547618Y-127669513D01*
X145550463Y-127667820D01*
X145553125Y-127666570D01*
X145555701Y-127665193D01*
X145558714Y-127663945D01*
X145561693Y-127662546D01*
X145564495Y-127661550D01*
X145567215Y-127660424D01*
X145570303Y-127659487D01*
X145573386Y-127658392D01*
X145576303Y-127657667D01*
X145579142Y-127656806D01*
X145582292Y-127656179D01*
X145585427Y-127655400D01*
X145588417Y-127654961D01*
X145591365Y-127654375D01*
X145594527Y-127654063D01*
X145597703Y-127653597D01*
X145600752Y-127653450D01*
X145603768Y-127653153D01*
X145606921Y-127653153D01*
X145610097Y-127653000D01*
X145613180Y-127653153D01*
X145616232Y-127653153D01*
X145619329Y-127653458D01*
X145622490Y-127653615D01*
X145625581Y-127654074D01*
X145628635Y-127654375D01*
X145631669Y-127654978D01*
X145634763Y-127655438D01*
X145637807Y-127656199D01*
X145640858Y-127656806D01*
X145643792Y-127657696D01*
X145646800Y-127658448D01*
X145649780Y-127659513D01*
X145652785Y-127660424D01*
X145655504Y-127661550D01*
X145655595Y-127661588D01*
X145658486Y-127662620D01*
X145809461Y-127724983D01*
X146023478Y-127793054D01*
X146242217Y-127839724D01*
X146464497Y-127864830D01*
X146688140Y-127868123D01*
X146911059Y-127849577D01*
X147131086Y-127809369D01*
X147346157Y-127747877D01*
X147559836Y-127663465D01*
X147566716Y-127660351D01*
X147786304Y-127573605D01*
X147787957Y-127572964D01*
X147793062Y-127571310D01*
X147798052Y-127569615D01*
X148025058Y-127504710D01*
X148026766Y-127504234D01*
X148032007Y-127503086D01*
X148037141Y-127501886D01*
X148269396Y-127459444D01*
X148271142Y-127459137D01*
X148276445Y-127458509D01*
X148281696Y-127457812D01*
X148516985Y-127438236D01*
X148518753Y-127438101D01*
X148524103Y-127437993D01*
X148529385Y-127437813D01*
X148765462Y-127441290D01*
G37*
G36*
X148765462Y-126931290D02*
G01*
X148767234Y-126931328D01*
X148772562Y-126931742D01*
X148777844Y-126932078D01*
X149012455Y-126958576D01*
X149014215Y-126958787D01*
X149019505Y-126959724D01*
X149024701Y-126960570D01*
X149255585Y-127009832D01*
X149255605Y-127009835D01*
X149255627Y-127009841D01*
X149257337Y-127010217D01*
X149262475Y-127011656D01*
X149267599Y-127013014D01*
X149492594Y-127084577D01*
X149494280Y-127085126D01*
X149498432Y-127086740D01*
X149502586Y-127088223D01*
X149658486Y-127152620D01*
X149809461Y-127214983D01*
X150023478Y-127283054D01*
X150242217Y-127329724D01*
X150464497Y-127354830D01*
X150688140Y-127358123D01*
X150911059Y-127339577D01*
X151131086Y-127299369D01*
X151346157Y-127237877D01*
X151559962Y-127153415D01*
X151561615Y-127152774D01*
X151573419Y-127148949D01*
X151585540Y-127146294D01*
X151597861Y-127144835D01*
X151610267Y-127144584D01*
X151622637Y-127145546D01*
X151634855Y-127147710D01*
X151646803Y-127151055D01*
X151658368Y-127155552D01*
X151669438Y-127161154D01*
X151679909Y-127167811D01*
X151689681Y-127175457D01*
X151698660Y-127184021D01*
X151706760Y-127193420D01*
X151713904Y-127203565D01*
X151720025Y-127214358D01*
X151725063Y-127225697D01*
X151728970Y-127237473D01*
X151731710Y-127249575D01*
X151733256Y-127261886D01*
X151733593Y-127274289D01*
X151732717Y-127286666D01*
X151730639Y-127298898D01*
X151727377Y-127310870D01*
X151722962Y-127322465D01*
X151717437Y-127333575D01*
X151710853Y-127344093D01*
X151703275Y-127353917D01*
X151694774Y-127362956D01*
X151685432Y-127371122D01*
X151675338Y-127378336D01*
X151664588Y-127384533D01*
X151653284Y-127389650D01*
X151433713Y-127476388D01*
X151433696Y-127476396D01*
X151433675Y-127476403D01*
X151432043Y-127477036D01*
X151426953Y-127478685D01*
X151421947Y-127480385D01*
X151194942Y-127545290D01*
X151193234Y-127545766D01*
X151187993Y-127546914D01*
X151182859Y-127548114D01*
X150950604Y-127590556D01*
X150948857Y-127590863D01*
X150943559Y-127591491D01*
X150938304Y-127592188D01*
X150703018Y-127611764D01*
X150703014Y-127611764D01*
X150701247Y-127611899D01*
X150695898Y-127612007D01*
X150690615Y-127612187D01*
X150454539Y-127608710D01*
X150452766Y-127608672D01*
X150447439Y-127608258D01*
X150442156Y-127607922D01*
X150207547Y-127581424D01*
X150207542Y-127581424D01*
X150205785Y-127581213D01*
X150200502Y-127580277D01*
X150195298Y-127579430D01*
X149964415Y-127530168D01*
X149964395Y-127530165D01*
X149964373Y-127530159D01*
X149962663Y-127529783D01*
X149957516Y-127528342D01*
X149952401Y-127526986D01*
X149727406Y-127455423D01*
X149725720Y-127454874D01*
X149721565Y-127453259D01*
X149717415Y-127451777D01*
X149561514Y-127387380D01*
X149561462Y-127387358D01*
X149410539Y-127325017D01*
X149196524Y-127256947D01*
X148977783Y-127210276D01*
X148755504Y-127185170D01*
X148531861Y-127181877D01*
X148308941Y-127200423D01*
X148088911Y-127240631D01*
X147873852Y-127302121D01*
X147660171Y-127386533D01*
X147653284Y-127389650D01*
X147433713Y-127476388D01*
X147433696Y-127476396D01*
X147433675Y-127476403D01*
X147432043Y-127477036D01*
X147426953Y-127478685D01*
X147421947Y-127480385D01*
X147194942Y-127545290D01*
X147193234Y-127545766D01*
X147187993Y-127546914D01*
X147182859Y-127548114D01*
X146950604Y-127590556D01*
X146948857Y-127590863D01*
X146943559Y-127591491D01*
X146938304Y-127592188D01*
X146703018Y-127611764D01*
X146703014Y-127611764D01*
X146701247Y-127611899D01*
X146695898Y-127612007D01*
X146690615Y-127612187D01*
X146454539Y-127608710D01*
X146452766Y-127608672D01*
X146447439Y-127608258D01*
X146442156Y-127607922D01*
X146207547Y-127581424D01*
X146207542Y-127581424D01*
X146205785Y-127581213D01*
X146200502Y-127580277D01*
X146195298Y-127579430D01*
X145964415Y-127530168D01*
X145964395Y-127530165D01*
X145964373Y-127530159D01*
X145962663Y-127529783D01*
X145957516Y-127528342D01*
X145952401Y-127526986D01*
X145727406Y-127455423D01*
X145725720Y-127454874D01*
X145721565Y-127453259D01*
X145717415Y-127451777D01*
X145561514Y-127387380D01*
X145559880Y-127386692D01*
X145557817Y-127385683D01*
X145555701Y-127384807D01*
X145552265Y-127382970D01*
X145548732Y-127381244D01*
X145546752Y-127380024D01*
X145544709Y-127378932D01*
X145543817Y-127378336D01*
X145541488Y-127376780D01*
X145538169Y-127374735D01*
X145536287Y-127373304D01*
X145534346Y-127372007D01*
X145531380Y-127369573D01*
X145528292Y-127367225D01*
X145526550Y-127365609D01*
X145524712Y-127364101D01*
X145522006Y-127361395D01*
X145519194Y-127358787D01*
X145517599Y-127356988D01*
X145515899Y-127355288D01*
X145513499Y-127352363D01*
X145510963Y-127349503D01*
X145509528Y-127347524D01*
X145507993Y-127345654D01*
X145505905Y-127342530D01*
X145503678Y-127339459D01*
X145502434Y-127337335D01*
X145501068Y-127335291D01*
X145499310Y-127332002D01*
X145497407Y-127328753D01*
X145496360Y-127326482D01*
X145495193Y-127324299D01*
X145493780Y-127320887D01*
X145492211Y-127317485D01*
X145491381Y-127315097D01*
X145490424Y-127312785D01*
X145489358Y-127309270D01*
X145488140Y-127305764D01*
X145487542Y-127303284D01*
X145486806Y-127300858D01*
X145486097Y-127297291D01*
X145485231Y-127293702D01*
X145484873Y-127291137D01*
X145484375Y-127288635D01*
X145484021Y-127285043D01*
X145483514Y-127281414D01*
X145483407Y-127278808D01*
X145483153Y-127276232D01*
X145483153Y-127272638D01*
X145483004Y-127269016D01*
X145483153Y-127266387D01*
X145483153Y-127263768D01*
X145483502Y-127260223D01*
X145483706Y-127256628D01*
X145484116Y-127253993D01*
X145484375Y-127251365D01*
X145485065Y-127247896D01*
X145485614Y-127244368D01*
X145486284Y-127241767D01*
X145486806Y-127239142D01*
X145487827Y-127235776D01*
X145488709Y-127232352D01*
X145489639Y-127229802D01*
X145490424Y-127227215D01*
X145491053Y-127225697D01*
X145491761Y-127223987D01*
X145492961Y-127220696D01*
X145494150Y-127218220D01*
X145495193Y-127215701D01*
X145496823Y-127212652D01*
X145498331Y-127209510D01*
X145499767Y-127207143D01*
X145501068Y-127204709D01*
X145502977Y-127201852D01*
X145504767Y-127198902D01*
X145506446Y-127196661D01*
X145507993Y-127194346D01*
X145510149Y-127191719D01*
X145512207Y-127188972D01*
X145514118Y-127186882D01*
X145515899Y-127184712D01*
X145518281Y-127182330D01*
X145520580Y-127179816D01*
X145522706Y-127177905D01*
X145524712Y-127175899D01*
X145527303Y-127173773D01*
X145529808Y-127171521D01*
X145532127Y-127169814D01*
X145534346Y-127167993D01*
X145534618Y-127167811D01*
X145537117Y-127166141D01*
X145539800Y-127164166D01*
X145542295Y-127162681D01*
X145544709Y-127161068D01*
X145547618Y-127159513D01*
X145550463Y-127157820D01*
X145553125Y-127156570D01*
X145555701Y-127155193D01*
X145558714Y-127153945D01*
X145561693Y-127152546D01*
X145564495Y-127151550D01*
X145567215Y-127150424D01*
X145570303Y-127149487D01*
X145573386Y-127148392D01*
X145576303Y-127147667D01*
X145579142Y-127146806D01*
X145582292Y-127146179D01*
X145585427Y-127145400D01*
X145588417Y-127144961D01*
X145591365Y-127144375D01*
X145594527Y-127144063D01*
X145597703Y-127143597D01*
X145600752Y-127143450D01*
X145603768Y-127143153D01*
X145606921Y-127143153D01*
X145610097Y-127143000D01*
X145613180Y-127143153D01*
X145616232Y-127143153D01*
X145619329Y-127143458D01*
X145622490Y-127143615D01*
X145625581Y-127144074D01*
X145628635Y-127144375D01*
X145631669Y-127144978D01*
X145634763Y-127145438D01*
X145637807Y-127146199D01*
X145640858Y-127146806D01*
X145643792Y-127147696D01*
X145646800Y-127148448D01*
X145649780Y-127149513D01*
X145652785Y-127150424D01*
X145655504Y-127151550D01*
X145655595Y-127151588D01*
X145658486Y-127152620D01*
X145809461Y-127214983D01*
X146023478Y-127283054D01*
X146242217Y-127329724D01*
X146464497Y-127354830D01*
X146688140Y-127358123D01*
X146911059Y-127339577D01*
X147131086Y-127299369D01*
X147346157Y-127237877D01*
X147559836Y-127153465D01*
X147566716Y-127150351D01*
X147786304Y-127063605D01*
X147787957Y-127062964D01*
X147793062Y-127061310D01*
X147798052Y-127059615D01*
X148025058Y-126994710D01*
X148026766Y-126994234D01*
X148032007Y-126993086D01*
X148037141Y-126991886D01*
X148269396Y-126949444D01*
X148271142Y-126949137D01*
X148276445Y-126948509D01*
X148281696Y-126947812D01*
X148516985Y-126928236D01*
X148518753Y-126928101D01*
X148524103Y-126927993D01*
X148529385Y-126927813D01*
X148765462Y-126931290D01*
G37*
%TD*%
D12*
%TO.C,H5*%
X127000000Y-110000000D03*
%TD*%
%TO.C,H9*%
X181000000Y-68000000D03*
%TD*%
%TO.C,H8*%
X181000000Y-110500000D03*
%TD*%
D13*
%TO.C,H7*%
X109000000Y-110000000D03*
%TD*%
%TO.C,H6*%
X109000000Y-93000000D03*
%TD*%
D12*
%TO.C,H4*%
X127000000Y-81000000D03*
%TD*%
%TO.C,H1*%
X163010000Y-62910000D03*
X182060000Y-81960000D03*
X163010000Y-101010000D03*
X143960000Y-81960000D03*
%TD*%
D14*
%TO.C,J1*%
X220555000Y-104550000D03*
D15*
X218015000Y-104550000D03*
X215475000Y-104550000D03*
X212935000Y-104550000D03*
X210395000Y-104550000D03*
D16*
X222225000Y-85200000D03*
%TD*%
D11*
%TO.C,JP1*%
G36*
X222929398Y-80830000D02*
G01*
X222929398Y-80854534D01*
X222924588Y-80903365D01*
X222915016Y-80951490D01*
X222900772Y-80998445D01*
X222881995Y-81043778D01*
X222858864Y-81087051D01*
X222831604Y-81127850D01*
X222800476Y-81165779D01*
X222765779Y-81200476D01*
X222727850Y-81231604D01*
X222687051Y-81258864D01*
X222643778Y-81281995D01*
X222598445Y-81300772D01*
X222551490Y-81315016D01*
X222503365Y-81324588D01*
X222454534Y-81329398D01*
X222430000Y-81329398D01*
X222430000Y-81330000D01*
X221930000Y-81330000D01*
X221930000Y-81329398D01*
X221905466Y-81329398D01*
X221856635Y-81324588D01*
X221808510Y-81315016D01*
X221761555Y-81300772D01*
X221716222Y-81281995D01*
X221672949Y-81258864D01*
X221632150Y-81231604D01*
X221594221Y-81200476D01*
X221559524Y-81165779D01*
X221528396Y-81127850D01*
X221501136Y-81087051D01*
X221478005Y-81043778D01*
X221459228Y-80998445D01*
X221444984Y-80951490D01*
X221435412Y-80903365D01*
X221430602Y-80854534D01*
X221430602Y-80830000D01*
X221430000Y-80830000D01*
X221430000Y-80330000D01*
X222930000Y-80330000D01*
X222930000Y-80830000D01*
X222929398Y-80830000D01*
G37*
G36*
X221430000Y-80030000D02*
G01*
X221430000Y-79530000D01*
X221430602Y-79530000D01*
X221430602Y-79505466D01*
X221435412Y-79456635D01*
X221444984Y-79408510D01*
X221459228Y-79361555D01*
X221478005Y-79316222D01*
X221501136Y-79272949D01*
X221528396Y-79232150D01*
X221559524Y-79194221D01*
X221594221Y-79159524D01*
X221632150Y-79128396D01*
X221672949Y-79101136D01*
X221716222Y-79078005D01*
X221761555Y-79059228D01*
X221808510Y-79044984D01*
X221856635Y-79035412D01*
X221905466Y-79030602D01*
X221930000Y-79030602D01*
X221930000Y-79030000D01*
X222430000Y-79030000D01*
X222430000Y-79030602D01*
X222454534Y-79030602D01*
X222503365Y-79035412D01*
X222551490Y-79044984D01*
X222598445Y-79059228D01*
X222643778Y-79078005D01*
X222687051Y-79101136D01*
X222727850Y-79128396D01*
X222765779Y-79159524D01*
X222800476Y-79194221D01*
X222831604Y-79232150D01*
X222858864Y-79272949D01*
X222881995Y-79316222D01*
X222900772Y-79361555D01*
X222915016Y-79408510D01*
X222924588Y-79456635D01*
X222929398Y-79505466D01*
X222929398Y-79530000D01*
X222930000Y-79530000D01*
X222930000Y-80030000D01*
X221430000Y-80030000D01*
G37*
%TD*%
%TO.C,C1*%
G36*
G01*
X209950000Y-70505000D02*
X209950000Y-69555000D01*
G75*
G02*
X210200000Y-69305000I250000J0D01*
G01*
X210700000Y-69305000D01*
G75*
G02*
X210950000Y-69555000I0J-250000D01*
G01*
X210950000Y-70505000D01*
G75*
G02*
X210700000Y-70755000I-250000J0D01*
G01*
X210200000Y-70755000D01*
G75*
G02*
X209950000Y-70505000I0J250000D01*
G01*
G37*
G36*
G01*
X208050000Y-70505000D02*
X208050000Y-69555000D01*
G75*
G02*
X208300000Y-69305000I250000J0D01*
G01*
X208800000Y-69305000D01*
G75*
G02*
X209050000Y-69555000I0J-250000D01*
G01*
X209050000Y-70505000D01*
G75*
G02*
X208800000Y-70755000I-250000J0D01*
G01*
X208300000Y-70755000D01*
G75*
G02*
X208050000Y-70505000I0J250000D01*
G01*
G37*
%TD*%
D17*
%TO.C,J3*%
X204900000Y-70100000D03*
%TD*%
%TO.C,J4*%
X213800000Y-70100000D03*
%TD*%
D18*
%TO.C,U1*%
X201110000Y-73422000D03*
X201110000Y-75962000D03*
X201110000Y-78502000D03*
X201110000Y-81042000D03*
X201110000Y-83582000D03*
X201110000Y-86122000D03*
X201110000Y-88662000D03*
X201110000Y-91202000D03*
X201110000Y-93742000D03*
X201110000Y-96282000D03*
X201110000Y-98822000D03*
X201110000Y-101362000D03*
X216350000Y-101362000D03*
X216350000Y-98822000D03*
X216350000Y-96282000D03*
X216350000Y-93742000D03*
X216350000Y-91202000D03*
X216350000Y-88662000D03*
X216350000Y-86122000D03*
X216350000Y-83582000D03*
X216350000Y-81042000D03*
X216350000Y-78502000D03*
X216350000Y-75962000D03*
X216350000Y-73422000D03*
%TD*%
D11*
%TO.C,SW1*%
G36*
X227094047Y-137180702D02*
G01*
X227083517Y-137233639D01*
X227067849Y-137285289D01*
X227047194Y-137335155D01*
X227021751Y-137382757D01*
X226991764Y-137427635D01*
X226957523Y-137469357D01*
X226919357Y-137507523D01*
X226877635Y-137541764D01*
X226832757Y-137571751D01*
X226785155Y-137597194D01*
X226735289Y-137617849D01*
X226683639Y-137633517D01*
X226677000Y-137634838D01*
X226677000Y-140300000D01*
X226676988Y-140301773D01*
X226676209Y-140314157D01*
X226674225Y-140326405D01*
X226671055Y-140338401D01*
X226666730Y-140350031D01*
X226661291Y-140361183D01*
X226654789Y-140371751D01*
X226647288Y-140381634D01*
X226638857Y-140390738D01*
X226629579Y-140398976D01*
X226619541Y-140406269D01*
X226608839Y-140412548D01*
X226597575Y-140417752D01*
X226585857Y-140421833D01*
X226573797Y-140424750D01*
X226561510Y-140426477D01*
X226549113Y-140426997D01*
X226536725Y-140426304D01*
X226524463Y-140424406D01*
X226512445Y-140421320D01*
X226500786Y-140417077D01*
X226489596Y-140411715D01*
X226478983Y-140405288D01*
X226469047Y-140397855D01*
X226459885Y-140389489D01*
X226451582Y-140380268D01*
X226444219Y-140370281D01*
X226437866Y-140359623D01*
X226432583Y-140348396D01*
X226428420Y-140336707D01*
X226425419Y-140324668D01*
X226423606Y-140312393D01*
X226423000Y-140300000D01*
X226423000Y-137634838D01*
X226416361Y-137633517D01*
X226364711Y-137617849D01*
X226314845Y-137597194D01*
X226267243Y-137571751D01*
X226222365Y-137541764D01*
X226180643Y-137507523D01*
X226142477Y-137469357D01*
X226108236Y-137427635D01*
X226078249Y-137382757D01*
X226052806Y-137335155D01*
X226032151Y-137285289D01*
X226016483Y-137233639D01*
X226005953Y-137180702D01*
X226000662Y-137126987D01*
X226000662Y-137073013D01*
X226005953Y-137019298D01*
X226016483Y-136966361D01*
X226032151Y-136914711D01*
X226052806Y-136864845D01*
X226078249Y-136817243D01*
X226108236Y-136772365D01*
X226142477Y-136730643D01*
X226180643Y-136692477D01*
X226222365Y-136658236D01*
X226267243Y-136628249D01*
X226314845Y-136602806D01*
X226364711Y-136582151D01*
X226416361Y-136566483D01*
X226423000Y-136565162D01*
X226423000Y-133900000D01*
X226423012Y-133898227D01*
X226423791Y-133885843D01*
X226425775Y-133873595D01*
X226428945Y-133861599D01*
X226433270Y-133849969D01*
X226438709Y-133838817D01*
X226445211Y-133828249D01*
X226452712Y-133818366D01*
X226461143Y-133809262D01*
X226470421Y-133801024D01*
X226480459Y-133793731D01*
X226491161Y-133787452D01*
X226502425Y-133782248D01*
X226514143Y-133778167D01*
X226526203Y-133775250D01*
X226538490Y-133773523D01*
X226550887Y-133773003D01*
X226563275Y-133773696D01*
X226575537Y-133775594D01*
X226587555Y-133778680D01*
X226599214Y-133782923D01*
X226610404Y-133788285D01*
X226621017Y-133794712D01*
X226630953Y-133802145D01*
X226640115Y-133810511D01*
X226648418Y-133819732D01*
X226655781Y-133829719D01*
X226662134Y-133840377D01*
X226667417Y-133851604D01*
X226671580Y-133863293D01*
X226674581Y-133875332D01*
X226676394Y-133887607D01*
X226677000Y-133900000D01*
X226677000Y-136565162D01*
X226683639Y-136566483D01*
X226735289Y-136582151D01*
X226785155Y-136602806D01*
X226832757Y-136628249D01*
X226877635Y-136658236D01*
X226919357Y-136692477D01*
X226957523Y-136730643D01*
X226991764Y-136772365D01*
X227021751Y-136817243D01*
X227047194Y-136864845D01*
X227067849Y-136914711D01*
X227083517Y-136966361D01*
X227094047Y-137019298D01*
X227099338Y-137073013D01*
X227099338Y-137126987D01*
X227094047Y-137180702D01*
G37*
G36*
X223394047Y-137180702D02*
G01*
X223383517Y-137233639D01*
X223367849Y-137285289D01*
X223347194Y-137335155D01*
X223321751Y-137382757D01*
X223291764Y-137427635D01*
X223257523Y-137469357D01*
X223219357Y-137507523D01*
X223177635Y-137541764D01*
X223132757Y-137571751D01*
X223085155Y-137597194D01*
X223035289Y-137617849D01*
X222983639Y-137633517D01*
X222977000Y-137634838D01*
X222977000Y-140300000D01*
X222976988Y-140301773D01*
X222976209Y-140314157D01*
X222974225Y-140326405D01*
X222971055Y-140338401D01*
X222966730Y-140350031D01*
X222961291Y-140361183D01*
X222954789Y-140371751D01*
X222947288Y-140381634D01*
X222938857Y-140390738D01*
X222929579Y-140398976D01*
X222919541Y-140406269D01*
X222908839Y-140412548D01*
X222897575Y-140417752D01*
X222885857Y-140421833D01*
X222873797Y-140424750D01*
X222861510Y-140426477D01*
X222849113Y-140426997D01*
X222836725Y-140426304D01*
X222824463Y-140424406D01*
X222812445Y-140421320D01*
X222800786Y-140417077D01*
X222789596Y-140411715D01*
X222778983Y-140405288D01*
X222769047Y-140397855D01*
X222759885Y-140389489D01*
X222751582Y-140380268D01*
X222744219Y-140370281D01*
X222737866Y-140359623D01*
X222732583Y-140348396D01*
X222728420Y-140336707D01*
X222725419Y-140324668D01*
X222723606Y-140312393D01*
X222723000Y-140300000D01*
X222723000Y-137634838D01*
X222716361Y-137633517D01*
X222664711Y-137617849D01*
X222614845Y-137597194D01*
X222567243Y-137571751D01*
X222522365Y-137541764D01*
X222480643Y-137507523D01*
X222442477Y-137469357D01*
X222408236Y-137427635D01*
X222378249Y-137382757D01*
X222352806Y-137335155D01*
X222332151Y-137285289D01*
X222316483Y-137233639D01*
X222305953Y-137180702D01*
X222300662Y-137126987D01*
X222300662Y-137073013D01*
X222305953Y-137019298D01*
X222316483Y-136966361D01*
X222332151Y-136914711D01*
X222352806Y-136864845D01*
X222378249Y-136817243D01*
X222408236Y-136772365D01*
X222442477Y-136730643D01*
X222480643Y-136692477D01*
X222522365Y-136658236D01*
X222567243Y-136628249D01*
X222614845Y-136602806D01*
X222664711Y-136582151D01*
X222716361Y-136566483D01*
X222723000Y-136565162D01*
X222723000Y-133900000D01*
X222723012Y-133898227D01*
X222723791Y-133885843D01*
X222725775Y-133873595D01*
X222728945Y-133861599D01*
X222733270Y-133849969D01*
X222738709Y-133838817D01*
X222745211Y-133828249D01*
X222752712Y-133818366D01*
X222761143Y-133809262D01*
X222770421Y-133801024D01*
X222780459Y-133793731D01*
X222791161Y-133787452D01*
X222802425Y-133782248D01*
X222814143Y-133778167D01*
X222826203Y-133775250D01*
X222838490Y-133773523D01*
X222850887Y-133773003D01*
X222863275Y-133773696D01*
X222875537Y-133775594D01*
X222887555Y-133778680D01*
X222899214Y-133782923D01*
X222910404Y-133788285D01*
X222921017Y-133794712D01*
X222930953Y-133802145D01*
X222940115Y-133810511D01*
X222948418Y-133819732D01*
X222955781Y-133829719D01*
X222962134Y-133840377D01*
X222967417Y-133851604D01*
X222971580Y-133863293D01*
X222974581Y-133875332D01*
X222976394Y-133887607D01*
X222977000Y-133900000D01*
X222977000Y-136565162D01*
X222983639Y-136566483D01*
X223035289Y-136582151D01*
X223085155Y-136602806D01*
X223132757Y-136628249D01*
X223177635Y-136658236D01*
X223219357Y-136692477D01*
X223257523Y-136730643D01*
X223291764Y-136772365D01*
X223321751Y-136817243D01*
X223347194Y-136864845D01*
X223367849Y-136914711D01*
X223383517Y-136966361D01*
X223394047Y-137019298D01*
X223399338Y-137073013D01*
X223399338Y-137126987D01*
X223394047Y-137180702D01*
G37*
D19*
X222850000Y-140200000D03*
X222850000Y-134000000D03*
X226550000Y-140200000D03*
X226550000Y-134000000D03*
%TD*%
D11*
%TO.C,SW2*%
G36*
X220368983Y-108724890D02*
G01*
X220374175Y-108742762D01*
X220377599Y-108761056D01*
X220379221Y-108779598D01*
X220379026Y-108798208D01*
X220377017Y-108816711D01*
X220373210Y-108834930D01*
X220367645Y-108852690D01*
X220360373Y-108869822D01*
X220351463Y-108886163D01*
X220341002Y-108901557D01*
X220329088Y-108915856D01*
X220315836Y-108928923D01*
X220301372Y-108940637D01*
X220285835Y-108950882D01*
X220269370Y-108959562D01*
X217982573Y-110025914D01*
X217983514Y-110029760D01*
X217994609Y-110107481D01*
X217998034Y-110185914D01*
X217993754Y-110264306D01*
X217981811Y-110341900D01*
X217962320Y-110417951D01*
X217935469Y-110491725D01*
X217901515Y-110562511D01*
X217860788Y-110629629D01*
X217813677Y-110692431D01*
X217760638Y-110750313D01*
X217702180Y-110802718D01*
X217638867Y-110849141D01*
X217571309Y-110889134D01*
X217500157Y-110922313D01*
X217426095Y-110948358D01*
X217349837Y-110967019D01*
X217272116Y-110978114D01*
X217193683Y-110981539D01*
X217115291Y-110977259D01*
X217037697Y-110965316D01*
X216961646Y-110945825D01*
X216887872Y-110918974D01*
X216817086Y-110885020D01*
X216749968Y-110844293D01*
X216687166Y-110797182D01*
X216629284Y-110744143D01*
X216576879Y-110685685D01*
X216530456Y-110622372D01*
X216490463Y-110554814D01*
X216457284Y-110483662D01*
X216431239Y-110409600D01*
X216412578Y-110333342D01*
X216401483Y-110255621D01*
X216398058Y-110177188D01*
X216402338Y-110098796D01*
X216414281Y-110021202D01*
X216433772Y-109945151D01*
X216460623Y-109871377D01*
X216494577Y-109800591D01*
X216535304Y-109733473D01*
X216582415Y-109670671D01*
X216635454Y-109612789D01*
X216693912Y-109560384D01*
X216757225Y-109513961D01*
X216824783Y-109473968D01*
X216895935Y-109440789D01*
X216969997Y-109414744D01*
X217046255Y-109396083D01*
X217123976Y-109384988D01*
X217202409Y-109381563D01*
X217280801Y-109385843D01*
X217358395Y-109397786D01*
X217434446Y-109417277D01*
X217508220Y-109444128D01*
X217579006Y-109478082D01*
X217646124Y-109518809D01*
X217708926Y-109565920D01*
X217766808Y-109618959D01*
X217819213Y-109677417D01*
X217821555Y-109680610D01*
X220108353Y-108614259D01*
X220110772Y-108613152D01*
X220128100Y-108606361D01*
X220146008Y-108601293D01*
X220164326Y-108597997D01*
X220182878Y-108596505D01*
X220201487Y-108596830D01*
X220219975Y-108598969D01*
X220238167Y-108602902D01*
X220255887Y-108608591D01*
X220272969Y-108615983D01*
X220289247Y-108625006D01*
X220304567Y-108635575D01*
X220318783Y-108647587D01*
X220331758Y-108660931D01*
X220343370Y-108675476D01*
X220353506Y-108691085D01*
X220362071Y-108707609D01*
X220368983Y-108724890D01*
G37*
G36*
X221425529Y-110990659D02*
G01*
X221430721Y-111008531D01*
X221434145Y-111026825D01*
X221435767Y-111045367D01*
X221435572Y-111063977D01*
X221433563Y-111082480D01*
X221429756Y-111100699D01*
X221424191Y-111118459D01*
X221416919Y-111135591D01*
X221408009Y-111151932D01*
X221397548Y-111167326D01*
X221385634Y-111181625D01*
X221372382Y-111194692D01*
X221357918Y-111206406D01*
X221342381Y-111216651D01*
X221325916Y-111225331D01*
X219039119Y-112291683D01*
X219040060Y-112295529D01*
X219051155Y-112373250D01*
X219054580Y-112451683D01*
X219050300Y-112530075D01*
X219038357Y-112607669D01*
X219018866Y-112683720D01*
X218992015Y-112757494D01*
X218958061Y-112828280D01*
X218917334Y-112895398D01*
X218870223Y-112958200D01*
X218817184Y-113016082D01*
X218758726Y-113068487D01*
X218695413Y-113114910D01*
X218627855Y-113154903D01*
X218556703Y-113188082D01*
X218482641Y-113214127D01*
X218406383Y-113232788D01*
X218328662Y-113243883D01*
X218250229Y-113247308D01*
X218171837Y-113243028D01*
X218094243Y-113231085D01*
X218018192Y-113211594D01*
X217944418Y-113184743D01*
X217873632Y-113150789D01*
X217806514Y-113110062D01*
X217743712Y-113062951D01*
X217685830Y-113009912D01*
X217633425Y-112951454D01*
X217587002Y-112888141D01*
X217547009Y-112820583D01*
X217513830Y-112749431D01*
X217487785Y-112675369D01*
X217469124Y-112599111D01*
X217458029Y-112521390D01*
X217454604Y-112442957D01*
X217458884Y-112364565D01*
X217470827Y-112286971D01*
X217490318Y-112210920D01*
X217517169Y-112137146D01*
X217551123Y-112066360D01*
X217591850Y-111999242D01*
X217638961Y-111936440D01*
X217692000Y-111878558D01*
X217750458Y-111826153D01*
X217813771Y-111779730D01*
X217881329Y-111739737D01*
X217952481Y-111706558D01*
X218026543Y-111680513D01*
X218102801Y-111661852D01*
X218180522Y-111650757D01*
X218258955Y-111647332D01*
X218337347Y-111651612D01*
X218414941Y-111663555D01*
X218490992Y-111683046D01*
X218564766Y-111709897D01*
X218635552Y-111743851D01*
X218702670Y-111784578D01*
X218765472Y-111831689D01*
X218823354Y-111884728D01*
X218875759Y-111943186D01*
X218878101Y-111946379D01*
X221164899Y-110880028D01*
X221167318Y-110878921D01*
X221184646Y-110872130D01*
X221202554Y-110867062D01*
X221220872Y-110863766D01*
X221239424Y-110862274D01*
X221258033Y-110862599D01*
X221276521Y-110864738D01*
X221294713Y-110868671D01*
X221312433Y-110874360D01*
X221329515Y-110881752D01*
X221345793Y-110890775D01*
X221361113Y-110901344D01*
X221375329Y-110913356D01*
X221388304Y-110926700D01*
X221399916Y-110941245D01*
X221410052Y-110956854D01*
X221418617Y-110973378D01*
X221425529Y-110990659D01*
G37*
G36*
X222482075Y-113256429D02*
G01*
X222487267Y-113274301D01*
X222490691Y-113292595D01*
X222492313Y-113311137D01*
X222492118Y-113329747D01*
X222490109Y-113348250D01*
X222486302Y-113366469D01*
X222480737Y-113384229D01*
X222473465Y-113401361D01*
X222464555Y-113417702D01*
X222454094Y-113433096D01*
X222442180Y-113447395D01*
X222428928Y-113460462D01*
X222414464Y-113472176D01*
X222398927Y-113482421D01*
X222382462Y-113491101D01*
X220095665Y-114557453D01*
X220096606Y-114561299D01*
X220107701Y-114639020D01*
X220111126Y-114717453D01*
X220106846Y-114795845D01*
X220094903Y-114873439D01*
X220075412Y-114949490D01*
X220048561Y-115023264D01*
X220014607Y-115094050D01*
X219973880Y-115161168D01*
X219926769Y-115223970D01*
X219873730Y-115281852D01*
X219815272Y-115334257D01*
X219751959Y-115380680D01*
X219684401Y-115420673D01*
X219613249Y-115453852D01*
X219539187Y-115479897D01*
X219462929Y-115498558D01*
X219385208Y-115509653D01*
X219306775Y-115513078D01*
X219228383Y-115508798D01*
X219150789Y-115496855D01*
X219074738Y-115477364D01*
X219000964Y-115450513D01*
X218930178Y-115416559D01*
X218863060Y-115375832D01*
X218800258Y-115328721D01*
X218742376Y-115275682D01*
X218689971Y-115217224D01*
X218643548Y-115153911D01*
X218603555Y-115086353D01*
X218570376Y-115015201D01*
X218544331Y-114941139D01*
X218525670Y-114864881D01*
X218514575Y-114787160D01*
X218511150Y-114708727D01*
X218515430Y-114630335D01*
X218527373Y-114552741D01*
X218546864Y-114476690D01*
X218573715Y-114402916D01*
X218607669Y-114332130D01*
X218648396Y-114265012D01*
X218695507Y-114202210D01*
X218748546Y-114144328D01*
X218807004Y-114091923D01*
X218870317Y-114045500D01*
X218937875Y-114005507D01*
X219009027Y-113972328D01*
X219083089Y-113946283D01*
X219159347Y-113927622D01*
X219237068Y-113916527D01*
X219315501Y-113913102D01*
X219393893Y-113917382D01*
X219471487Y-113929325D01*
X219547538Y-113948816D01*
X219621312Y-113975667D01*
X219692098Y-114009621D01*
X219759216Y-114050348D01*
X219822018Y-114097459D01*
X219879900Y-114150498D01*
X219932305Y-114208956D01*
X219934647Y-114212149D01*
X222221445Y-113145798D01*
X222223864Y-113144691D01*
X222241192Y-113137900D01*
X222259100Y-113132832D01*
X222277418Y-113129536D01*
X222295970Y-113128044D01*
X222314579Y-113128369D01*
X222333067Y-113130508D01*
X222351259Y-113134441D01*
X222368979Y-113140130D01*
X222386061Y-113147522D01*
X222402339Y-113156545D01*
X222417659Y-113167114D01*
X222431875Y-113179126D01*
X222444850Y-113192470D01*
X222456462Y-113207015D01*
X222466598Y-113222624D01*
X222475163Y-113239148D01*
X222482075Y-113256429D01*
G37*
D20*
X222301954Y-113318449D03*
X220188862Y-108786910D03*
X221245408Y-111052680D03*
%TD*%
D21*
%TO.C,K24*%
X215140348Y-144691248D03*
D22*
X219029435Y-148580335D03*
X211251261Y-140802161D03*
D23*
X210968418Y-148863178D03*
X215988876Y-150913788D03*
%TD*%
D21*
%TO.C,K19*%
X207978277Y-117827488D03*
D22*
X212741417Y-120577488D03*
X203215137Y-115077488D03*
D23*
X205028277Y-122937038D03*
X210408404Y-123618385D03*
%TD*%
D21*
%TO.C,K23*%
X199478277Y-132549920D03*
D22*
X204241417Y-135299920D03*
X194715137Y-129799920D03*
D23*
X196528277Y-137659470D03*
X201908404Y-138340817D03*
%TD*%
D21*
%TO.C,K22*%
X181110001Y-124886666D03*
D22*
X186422593Y-126310171D03*
X175797409Y-123463161D03*
D23*
X179582969Y-130585628D03*
X184956118Y-129851279D03*
%TD*%
D21*
%TO.C,K21*%
X161500000Y-122000000D03*
D22*
X167000000Y-122000000D03*
X156000000Y-122000000D03*
D23*
X161500000Y-127900000D03*
X166500000Y-125800000D03*
%TD*%
D21*
%TO.C,K18*%
X190000000Y-107500000D03*
D22*
X195500000Y-107500000D03*
X184500000Y-107500000D03*
D23*
X190000000Y-113400000D03*
X195000000Y-111300000D03*
%TD*%
D21*
%TO.C,K17*%
X172000000Y-105000000D03*
D22*
X177500000Y-105000000D03*
X166500000Y-105000000D03*
D23*
X172000000Y-110900000D03*
X177000000Y-108800000D03*
%TD*%
D21*
%TO.C,K12*%
X190000000Y-90500000D03*
D22*
X195500000Y-90500000D03*
X184500000Y-90500000D03*
D23*
X190000000Y-96400000D03*
X195000000Y-94300000D03*
%TD*%
D21*
%TO.C,K11*%
X172000000Y-88000000D03*
D22*
X177500000Y-88000000D03*
X166500000Y-88000000D03*
D23*
X172000000Y-93900000D03*
X177000000Y-91800000D03*
%TD*%
D21*
%TO.C,K6*%
X190000000Y-73500000D03*
D22*
X195500000Y-73500000D03*
X184500000Y-73500000D03*
D23*
X190000000Y-79400000D03*
X195000000Y-77300000D03*
%TD*%
D21*
%TO.C,K5*%
X172000000Y-71000000D03*
D22*
X177500000Y-71000000D03*
X166500000Y-71000000D03*
D23*
X172000000Y-76900000D03*
X177000000Y-74800000D03*
%TD*%
D21*
%TO.C,K16*%
X154000000Y-99500000D03*
D22*
X159500000Y-99500000D03*
X148500000Y-99500000D03*
D23*
X154000000Y-105400000D03*
X159000000Y-103300000D03*
%TD*%
D21*
%TO.C,K15*%
X136000000Y-106500000D03*
D22*
X141500000Y-106500000D03*
X130500000Y-106500000D03*
D23*
X136000000Y-112400000D03*
X141000000Y-110300000D03*
%TD*%
D21*
%TO.C,K10*%
X154000000Y-82500000D03*
D22*
X159500000Y-82500000D03*
X148500000Y-82500000D03*
D23*
X154000000Y-88400000D03*
X159000000Y-86300000D03*
%TD*%
D21*
%TO.C,K9*%
X136000000Y-89500000D03*
D22*
X141500000Y-89500000D03*
X130500000Y-89500000D03*
D23*
X136000000Y-95400000D03*
X141000000Y-93300000D03*
%TD*%
D21*
%TO.C,K14*%
X118000000Y-118500000D03*
D22*
X123500000Y-118500000D03*
X112500000Y-118500000D03*
D23*
X118000000Y-124400000D03*
X123000000Y-122300000D03*
%TD*%
D21*
%TO.C,K13*%
X100000000Y-118500000D03*
D22*
X105500000Y-118500000D03*
X94500000Y-118500000D03*
D23*
X100000000Y-124400000D03*
X105000000Y-122300000D03*
%TD*%
D21*
%TO.C,K2*%
X118000000Y-84500000D03*
D22*
X123500000Y-84500000D03*
X112500000Y-84500000D03*
D23*
X118000000Y-90400000D03*
X123000000Y-88300000D03*
%TD*%
D21*
%TO.C,K8*%
X118000000Y-101500000D03*
D22*
X123500000Y-101500000D03*
X112500000Y-101500000D03*
D23*
X118000000Y-107400000D03*
X123000000Y-105300000D03*
%TD*%
D21*
%TO.C,K7*%
X100000000Y-101500000D03*
D22*
X105500000Y-101500000D03*
X94500000Y-101500000D03*
D23*
X100000000Y-107400000D03*
X105000000Y-105300000D03*
%TD*%
D21*
%TO.C,K4*%
X154000000Y-65500000D03*
D22*
X159500000Y-65500000D03*
X148500000Y-65500000D03*
D23*
X154000000Y-71400000D03*
X159000000Y-69300000D03*
%TD*%
D21*
%TO.C,K3*%
X136000000Y-72500000D03*
D22*
X141500000Y-72500000D03*
X130500000Y-72500000D03*
D23*
X136000000Y-78400000D03*
X141000000Y-76300000D03*
%TD*%
D21*
%TO.C,K1*%
X100000000Y-84500000D03*
D22*
X105500000Y-84500000D03*
X94500000Y-84500000D03*
D23*
X100000000Y-90400000D03*
X105000000Y-88300000D03*
%TD*%
%TO.C,R2*%
G36*
G01*
X221310002Y-91060000D02*
X220409998Y-91060000D01*
G75*
G02*
X220160000Y-90810002I0J249998D01*
G01*
X220160000Y-90284998D01*
G75*
G02*
X220409998Y-90035000I249998J0D01*
G01*
X221310002Y-90035000D01*
G75*
G02*
X221560000Y-90284998I0J-249998D01*
G01*
X221560000Y-90810002D01*
G75*
G02*
X221310002Y-91060000I-249998J0D01*
G01*
G37*
G36*
G01*
X221309900Y-92885000D02*
X220410100Y-92885000D01*
G75*
G02*
X220160000Y-92634900I0J250100D01*
G01*
X220160000Y-92110100D01*
G75*
G02*
X220410100Y-91860000I250100J0D01*
G01*
X221309900Y-91860000D01*
G75*
G02*
X221560000Y-92110100I0J-250100D01*
G01*
X221560000Y-92634900D01*
G75*
G02*
X221309900Y-92885000I-250100J0D01*
G01*
G37*
%TD*%
%TO.C,R1*%
G36*
G01*
X221310002Y-97080000D02*
X220409998Y-97080000D01*
G75*
G02*
X220160000Y-96830002I0J249998D01*
G01*
X220160000Y-96304998D01*
G75*
G02*
X220409998Y-96055000I249998J0D01*
G01*
X221310002Y-96055000D01*
G75*
G02*
X221560000Y-96304998I0J-249998D01*
G01*
X221560000Y-96830002D01*
G75*
G02*
X221310002Y-97080000I-249998J0D01*
G01*
G37*
G36*
G01*
X221309900Y-98905000D02*
X220410100Y-98905000D01*
G75*
G02*
X220160000Y-98654900I0J250100D01*
G01*
X220160000Y-98130100D01*
G75*
G02*
X220410100Y-97880000I250100J0D01*
G01*
X221309900Y-97880000D01*
G75*
G02*
X221560000Y-98130100I0J-250100D01*
G01*
X221560000Y-98654900D01*
G75*
G02*
X221309900Y-98905000I-250100J0D01*
G01*
G37*
%TD*%
D11*
%TO.C,D18*%
G36*
X217049536Y-142004243D02*
G01*
X216483850Y-141438557D01*
X217120246Y-140802161D01*
X217685932Y-141367847D01*
X217049536Y-142004243D01*
G37*
G36*
X218393039Y-143347746D02*
G01*
X217827353Y-142782060D01*
X218463749Y-142145664D01*
X219029435Y-142711350D01*
X218393039Y-143347746D01*
G37*
G36*
X219135501Y-141261781D02*
G01*
X218569815Y-140696095D01*
X219206211Y-140059699D01*
X219771897Y-140625385D01*
X219135501Y-141261781D01*
G37*
%TD*%
D24*
%TO.C,D17*%
X189050000Y-103800000D03*
X190950000Y-103800000D03*
X190000000Y-101800000D03*
%TD*%
%TO.C,D16*%
X153050000Y-95800000D03*
X154950000Y-95800000D03*
X154000000Y-93800000D03*
%TD*%
%TO.C,D15*%
X171050000Y-101300000D03*
X172950000Y-101300000D03*
X172000000Y-99300000D03*
%TD*%
%TO.C,D14*%
X135050000Y-102800000D03*
X136950000Y-102800000D03*
X136000000Y-100800000D03*
%TD*%
%TO.C,D13*%
X117050000Y-114800000D03*
X118950000Y-114800000D03*
X118000000Y-112800000D03*
%TD*%
%TO.C,D12*%
X171050000Y-84300000D03*
X172950000Y-84300000D03*
X172000000Y-82300000D03*
%TD*%
%TO.C,D11*%
X135050000Y-85800000D03*
X136950000Y-85800000D03*
X136000000Y-83800000D03*
%TD*%
%TO.C,D10*%
X117050000Y-97800000D03*
X118950000Y-97800000D03*
X118000000Y-95800000D03*
%TD*%
%TO.C,D9*%
X171050000Y-67300000D03*
X172950000Y-67300000D03*
X172000000Y-65300000D03*
%TD*%
%TO.C,D8*%
X135050000Y-68800000D03*
X136950000Y-68800000D03*
X136000000Y-66800000D03*
%TD*%
%TO.C,D7*%
X117050000Y-80800000D03*
X118950000Y-80800000D03*
X118000000Y-78800000D03*
%TD*%
%TO.C,D5*%
G36*
G01*
X133430000Y-114565000D02*
X133430000Y-114155000D01*
G75*
G02*
X133635000Y-113950000I205000J0D01*
G01*
X134925000Y-113950000D01*
G75*
G02*
X135130000Y-114155000I0J-205000D01*
G01*
X135130000Y-114565000D01*
G75*
G02*
X134925000Y-114770000I-205000J0D01*
G01*
X133635000Y-114770000D01*
G75*
G02*
X133430000Y-114565000I0J205000D01*
G01*
G37*
D25*
X134280000Y-115860000D03*
X129180000Y-114360000D03*
X129180000Y-115860000D03*
%TD*%
%TO.C,D4*%
G36*
G01*
X163236067Y-113172196D02*
X163236067Y-112762196D01*
G75*
G02*
X163441067Y-112557196I205000J0D01*
G01*
X164731067Y-112557196D01*
G75*
G02*
X164936067Y-112762196I0J-205000D01*
G01*
X164936067Y-113172196D01*
G75*
G02*
X164731067Y-113377196I-205000J0D01*
G01*
X163441067Y-113377196D01*
G75*
G02*
X163236067Y-113172196I0J205000D01*
G01*
G37*
X164086067Y-114467196D03*
X158986067Y-112967196D03*
X158986067Y-114467196D03*
%TD*%
%TO.C,D3*%
G36*
G01*
X185086801Y-116666330D02*
X185192917Y-116270300D01*
G75*
G02*
X185443990Y-116125343I198015J-53058D01*
G01*
X186690034Y-116459219D01*
G75*
G02*
X186834991Y-116710292I-53058J-198015D01*
G01*
X186728875Y-117106322D01*
G75*
G02*
X186477802Y-117251279I-198015J53058D01*
G01*
X185231758Y-116917403D01*
G75*
G02*
X185086801Y-116666330I53058J198015D01*
G01*
G37*
D11*
G36*
X184645515Y-118313233D02*
G01*
X184857747Y-117521174D01*
X186499821Y-117961167D01*
X186287589Y-118753226D01*
X184645515Y-118313233D01*
G37*
G36*
X180107521Y-115544367D02*
G01*
X180319753Y-114752308D01*
X181961827Y-115192301D01*
X181749595Y-115984360D01*
X180107521Y-115544367D01*
G37*
G36*
X179719293Y-116993256D02*
G01*
X179931525Y-116201197D01*
X181573599Y-116641190D01*
X181361367Y-117433249D01*
X179719293Y-116993256D01*
G37*
%TD*%
%TO.C,D2*%
G36*
G01*
X205411907Y-125756895D02*
X205616907Y-125401825D01*
G75*
G02*
X205896942Y-125326790I177535J-102500D01*
G01*
X207014114Y-125971790D01*
G75*
G02*
X207089149Y-126251825I-102500J-177535D01*
G01*
X206884149Y-126606895D01*
G75*
G02*
X206604114Y-126681930I-177535J102500D01*
G01*
X205486942Y-126036930D01*
G75*
G02*
X205411907Y-125756895I102500J177535D01*
G01*
G37*
G36*
X204559406Y-127233468D02*
G01*
X204969406Y-126523328D01*
X206441650Y-127373328D01*
X206031650Y-128083468D01*
X204559406Y-127233468D01*
G37*
G36*
X200892676Y-123384430D02*
G01*
X201302676Y-122674290D01*
X202774920Y-123524290D01*
X202364920Y-124234430D01*
X200892676Y-123384430D01*
G37*
G36*
X200142676Y-124683468D02*
G01*
X200552676Y-123973328D01*
X202024920Y-124823328D01*
X201614920Y-125533468D01*
X200142676Y-124683468D01*
G37*
%TD*%
%TO.C,D1*%
G36*
G01*
X210846200Y-109270414D02*
X211051200Y-108915344D01*
G75*
G02*
X211331235Y-108840309I177535J-102500D01*
G01*
X212448407Y-109485309D01*
G75*
G02*
X212523442Y-109765344I-102500J-177535D01*
G01*
X212318442Y-110120414D01*
G75*
G02*
X212038407Y-110195449I-177535J102500D01*
G01*
X210921235Y-109550449D01*
G75*
G02*
X210846200Y-109270414I102500J177535D01*
G01*
G37*
G36*
X209993699Y-110746987D02*
G01*
X210403699Y-110036847D01*
X211875943Y-110886847D01*
X211465943Y-111596987D01*
X209993699Y-110746987D01*
G37*
G36*
X206326969Y-106897949D02*
G01*
X206736969Y-106187809D01*
X208209213Y-107037809D01*
X207799213Y-107747949D01*
X206326969Y-106897949D01*
G37*
G36*
X205576969Y-108196987D02*
G01*
X205986969Y-107486847D01*
X207459213Y-108336847D01*
X207049213Y-109046987D01*
X205576969Y-108196987D01*
G37*
%TD*%
D26*
%TO.C,J2*%
X217980000Y-127610000D03*
X224980000Y-127610000D03*
D27*
X216180000Y-125510000D03*
X214680000Y-129710000D03*
X223180000Y-125510000D03*
X220180000Y-125510000D03*
D26*
X224980000Y-129360000D03*
X217980000Y-129360000D03*
%TD*%
D28*
%TO.C,K20*%
X133500000Y-121000000D03*
D23*
X129000000Y-126000000D03*
D29*
X136000000Y-117900000D03*
D23*
X129000000Y-121000000D03*
D30*
X143500000Y-126000000D03*
D23*
X143500000Y-121000000D03*
X143500000Y-123500000D03*
X141000000Y-127300000D03*
X136000000Y-129400000D03*
D22*
X130500000Y-123500000D03*
X141500000Y-123500000D03*
D21*
X136000000Y-123500000D03*
%TD*%
D16*
%TO.C,H2*%
X202200000Y-108795000D03*
X221800000Y-119670000D03*
%TD*%
M02*
