%TF.GenerationSoftware,KiCad,Pcbnew,(6.0.0-0)*%
%TF.CreationDate,2022-01-13T13:44:15-08:00*%
%TF.ProjectId,hillside,68696c6c-7369-4646-952e-6b696361645f,0.1.1-alpha*%
%TF.SameCoordinates,Original*%
%TF.FileFunction,AssemblyDrawing,Top*%
%FSLAX46Y46*%
G04 Gerber Fmt 4.6, Leading zero omitted, Abs format (unit mm)*
G04 Created by KiCad (PCBNEW (6.0.0-0)) date 2022-01-13 13:44:15*
%MOMM*%
%LPD*%
G01*
G04 APERTURE LIST*
%ADD10C,0.200000*%
%ADD11C,0.150000*%
%ADD12C,0.100000*%
%ADD13C,0.075000*%
%ADD14C,0.153000*%
%ADD15C,0.080000*%
%ADD16C,0.060000*%
%ADD17C,0.120000*%
G04 APERTURE END LIST*
D10*
X105457142Y-87304761D02*
X105504761Y-87352380D01*
X105552380Y-87495238D01*
X105552380Y-87590476D01*
X105504761Y-87733333D01*
X105409523Y-87828571D01*
X105314285Y-87876190D01*
X105123809Y-87923809D01*
X104980952Y-87923809D01*
X104790476Y-87876190D01*
X104695238Y-87828571D01*
X104600000Y-87733333D01*
X104552380Y-87590476D01*
X104552380Y-87495238D01*
X104600000Y-87352380D01*
X104647619Y-87304761D01*
X104552380Y-86876190D02*
X105361904Y-86876190D01*
X105457142Y-86828571D01*
X105504761Y-86780952D01*
X105552380Y-86685714D01*
X105552380Y-86495238D01*
X105504761Y-86400000D01*
X105457142Y-86352380D01*
X105361904Y-86304761D01*
X104552380Y-86304761D01*
X104552380Y-85971428D02*
X104552380Y-85400000D01*
X105552380Y-85685714D02*
X104552380Y-85685714D01*
X104552380Y-84114285D02*
X104552380Y-83923809D01*
X104600000Y-83828571D01*
X104695238Y-83733333D01*
X104885714Y-83685714D01*
X105219047Y-83685714D01*
X105409523Y-83733333D01*
X105504761Y-83828571D01*
X105552380Y-83923809D01*
X105552380Y-84114285D01*
X105504761Y-84209523D01*
X105409523Y-84304761D01*
X105219047Y-84352380D01*
X104885714Y-84352380D01*
X104695238Y-84304761D01*
X104600000Y-84209523D01*
X104552380Y-84114285D01*
X104552380Y-83257142D02*
X105361904Y-83257142D01*
X105457142Y-83209523D01*
X105504761Y-83161904D01*
X105552380Y-83066666D01*
X105552380Y-82876190D01*
X105504761Y-82780952D01*
X105457142Y-82733333D01*
X105361904Y-82685714D01*
X104552380Y-82685714D01*
X104552380Y-82352380D02*
X104552380Y-81780952D01*
X105552380Y-82066666D02*
X104552380Y-82066666D01*
X105457142Y-115804761D02*
X105504761Y-115852380D01*
X105552380Y-115995238D01*
X105552380Y-116090476D01*
X105504761Y-116233333D01*
X105409523Y-116328571D01*
X105314285Y-116376190D01*
X105123809Y-116423809D01*
X104980952Y-116423809D01*
X104790476Y-116376190D01*
X104695238Y-116328571D01*
X104600000Y-116233333D01*
X104552380Y-116090476D01*
X104552380Y-115995238D01*
X104600000Y-115852380D01*
X104647619Y-115804761D01*
X104552380Y-115376190D02*
X105361904Y-115376190D01*
X105457142Y-115328571D01*
X105504761Y-115280952D01*
X105552380Y-115185714D01*
X105552380Y-114995238D01*
X105504761Y-114900000D01*
X105457142Y-114852380D01*
X105361904Y-114804761D01*
X104552380Y-114804761D01*
X104552380Y-114471428D02*
X104552380Y-113900000D01*
X105552380Y-114185714D02*
X104552380Y-114185714D01*
X104552380Y-112614285D02*
X104552380Y-112423809D01*
X104600000Y-112328571D01*
X104695238Y-112233333D01*
X104885714Y-112185714D01*
X105219047Y-112185714D01*
X105409523Y-112233333D01*
X105504761Y-112328571D01*
X105552380Y-112423809D01*
X105552380Y-112614285D01*
X105504761Y-112709523D01*
X105409523Y-112804761D01*
X105219047Y-112852380D01*
X104885714Y-112852380D01*
X104695238Y-112804761D01*
X104600000Y-112709523D01*
X104552380Y-112614285D01*
X104552380Y-111757142D02*
X105361904Y-111757142D01*
X105457142Y-111709523D01*
X105504761Y-111661904D01*
X105552380Y-111566666D01*
X105552380Y-111376190D01*
X105504761Y-111280952D01*
X105457142Y-111233333D01*
X105361904Y-111185714D01*
X104552380Y-111185714D01*
X104552380Y-110852380D02*
X104552380Y-110280952D01*
X105552380Y-110566666D02*
X104552380Y-110566666D01*
D11*
%TO.C,D3*%
X182658422Y-114534722D02*
X182839596Y-113858574D01*
X183000583Y-113901710D01*
X183088549Y-113959790D01*
X183135689Y-114041439D01*
X183150632Y-114114462D01*
X183148320Y-114251879D01*
X183122439Y-114348472D01*
X183055732Y-114468635D01*
X183006280Y-114524402D01*
X182924630Y-114571543D01*
X182819410Y-114577858D01*
X182658422Y-114534722D01*
X183451349Y-114022492D02*
X183869917Y-114134647D01*
X183575516Y-114331837D01*
X183672108Y-114357718D01*
X183727876Y-114407171D01*
X183751446Y-114447995D01*
X183766389Y-114521018D01*
X183723253Y-114682005D01*
X183673800Y-114737773D01*
X183632976Y-114761343D01*
X183559953Y-114776286D01*
X183366768Y-114724522D01*
X183311000Y-114675070D01*
X183287430Y-114634246D01*
D12*
X183343322Y-115067769D02*
X183381814Y-115045546D01*
X183481021Y-115039591D01*
X183541736Y-115055859D01*
X183624675Y-115110620D01*
X183669122Y-115187604D01*
X183683211Y-115256454D01*
X183681031Y-115386019D01*
X183656628Y-115477092D01*
X183593733Y-115590388D01*
X183547107Y-115642969D01*
X183470123Y-115687416D01*
X183370916Y-115693370D01*
X183310200Y-115677102D01*
X183227262Y-115622341D01*
X183205038Y-115583849D01*
X182915551Y-115571356D02*
X183053834Y-115055275D01*
X183039745Y-114986426D01*
X183017522Y-114947934D01*
X182964941Y-114901307D01*
X182843510Y-114868770D01*
X182774660Y-114882859D01*
X182736168Y-114905083D01*
X182689542Y-114957664D01*
X182551259Y-115473744D01*
X182338755Y-115416804D02*
X181974463Y-115319192D01*
X182327430Y-114730487D02*
X182156609Y-115367998D01*
X183231296Y-116556650D02*
X183109865Y-116524113D01*
X183057284Y-116477487D01*
X183012838Y-116400503D01*
X183015017Y-116270938D01*
X183071957Y-116058434D01*
X183134852Y-115945138D01*
X183211836Y-115900691D01*
X183280686Y-115886602D01*
X183402117Y-115919139D01*
X183454698Y-115965766D01*
X183499144Y-116042749D01*
X183496965Y-116172314D01*
X183440024Y-116384818D01*
X183377130Y-116498115D01*
X183300146Y-116542561D01*
X183231296Y-116556650D01*
X182684858Y-116410233D02*
X182823141Y-115894152D01*
X182809052Y-115825303D01*
X182786829Y-115786811D01*
X182734248Y-115740184D01*
X182612817Y-115707647D01*
X182543967Y-115721736D01*
X182505475Y-115743959D01*
X182458849Y-115796541D01*
X182320566Y-116312621D01*
X182108062Y-116255681D02*
X181743770Y-116158069D01*
X182096737Y-115569364D02*
X181925916Y-116206875D01*
D11*
%TO.C,D5*%
X127313333Y-112096666D02*
X127313333Y-111396666D01*
X127480000Y-111396666D01*
X127580000Y-111430000D01*
X127646666Y-111496666D01*
X127680000Y-111563333D01*
X127713333Y-111696666D01*
X127713333Y-111796666D01*
X127680000Y-111930000D01*
X127646666Y-111996666D01*
X127580000Y-112063333D01*
X127480000Y-112096666D01*
X127313333Y-112096666D01*
X128346666Y-111396666D02*
X128013333Y-111396666D01*
X127980000Y-111730000D01*
X128013333Y-111696666D01*
X128080000Y-111663333D01*
X128246666Y-111663333D01*
X128313333Y-111696666D01*
X128346666Y-111730000D01*
X128380000Y-111796666D01*
X128380000Y-111963333D01*
X128346666Y-112030000D01*
X128313333Y-112063333D01*
X128246666Y-112096666D01*
X128080000Y-112096666D01*
X128013333Y-112063333D01*
X127980000Y-112030000D01*
D12*
X127327142Y-112905714D02*
X127295714Y-112937142D01*
X127201428Y-112968571D01*
X127138571Y-112968571D01*
X127044285Y-112937142D01*
X126981428Y-112874285D01*
X126950000Y-112811428D01*
X126918571Y-112685714D01*
X126918571Y-112591428D01*
X126950000Y-112465714D01*
X126981428Y-112402857D01*
X127044285Y-112340000D01*
X127138571Y-112308571D01*
X127201428Y-112308571D01*
X127295714Y-112340000D01*
X127327142Y-112371428D01*
X127610000Y-112308571D02*
X127610000Y-112842857D01*
X127641428Y-112905714D01*
X127672857Y-112937142D01*
X127735714Y-112968571D01*
X127861428Y-112968571D01*
X127924285Y-112937142D01*
X127955714Y-112905714D01*
X127987142Y-112842857D01*
X127987142Y-112308571D01*
X128207142Y-112308571D02*
X128584285Y-112308571D01*
X128395714Y-112968571D02*
X128395714Y-112308571D01*
X127070000Y-113178571D02*
X127195714Y-113178571D01*
X127258571Y-113210000D01*
X127321428Y-113272857D01*
X127352857Y-113398571D01*
X127352857Y-113618571D01*
X127321428Y-113744285D01*
X127258571Y-113807142D01*
X127195714Y-113838571D01*
X127070000Y-113838571D01*
X127007142Y-113807142D01*
X126944285Y-113744285D01*
X126912857Y-113618571D01*
X126912857Y-113398571D01*
X126944285Y-113272857D01*
X127007142Y-113210000D01*
X127070000Y-113178571D01*
X127635714Y-113178571D02*
X127635714Y-113712857D01*
X127667142Y-113775714D01*
X127698571Y-113807142D01*
X127761428Y-113838571D01*
X127887142Y-113838571D01*
X127950000Y-113807142D01*
X127981428Y-113775714D01*
X128012857Y-113712857D01*
X128012857Y-113178571D01*
X128232857Y-113178571D02*
X128610000Y-113178571D01*
X128421428Y-113838571D02*
X128421428Y-113178571D01*
D11*
%TO.C,D2*%
X199562986Y-122225986D02*
X199912986Y-121619768D01*
X200057323Y-121703101D01*
X200127259Y-121781969D01*
X200151661Y-121873037D01*
X200147195Y-121947439D01*
X200109396Y-122079575D01*
X200059396Y-122166178D01*
X199963862Y-122264981D01*
X199901661Y-122306050D01*
X199810592Y-122330451D01*
X199707323Y-122309319D01*
X199562986Y-122225986D01*
X200457003Y-122010836D02*
X200502537Y-121998635D01*
X200576939Y-122003101D01*
X200721276Y-122086434D01*
X200762344Y-122148635D01*
X200774545Y-122194169D01*
X200770079Y-122268571D01*
X200736746Y-122326306D01*
X200657879Y-122396242D01*
X200111468Y-122542652D01*
X200486746Y-122759319D01*
D12*
X200086584Y-122918135D02*
X200129516Y-122906631D01*
X200226884Y-122926556D01*
X200281320Y-122957984D01*
X200347260Y-123032345D01*
X200370267Y-123118210D01*
X200366056Y-123188360D01*
X200330417Y-123312946D01*
X200283274Y-123394600D01*
X200193199Y-123487757D01*
X200134553Y-123526479D01*
X200048688Y-123549486D01*
X199951320Y-123529561D01*
X199896884Y-123498133D01*
X199830945Y-123423772D01*
X199819441Y-123380840D01*
X199543051Y-123293847D02*
X199810194Y-122831142D01*
X199814404Y-122760992D01*
X199802901Y-122718059D01*
X199764179Y-122659413D01*
X199655307Y-122596556D01*
X199585157Y-122592345D01*
X199542225Y-122603849D01*
X199483579Y-122642570D01*
X199216436Y-123105275D01*
X199025910Y-122995275D02*
X198699295Y-122806704D01*
X199192602Y-122329413D02*
X198862602Y-122900990D01*
X199593025Y-124327289D02*
X199484153Y-124264432D01*
X199445432Y-124205785D01*
X199422424Y-124119921D01*
X199458064Y-123995335D01*
X199568064Y-123804809D01*
X199658139Y-123711652D01*
X199744003Y-123688644D01*
X199814153Y-123692855D01*
X199923025Y-123755712D01*
X199961747Y-123814359D01*
X199984754Y-123900223D01*
X199949115Y-124024809D01*
X199839115Y-124215335D01*
X199749040Y-124308492D01*
X199663175Y-124331499D01*
X199593025Y-124327289D01*
X199103102Y-124044432D02*
X199370245Y-123581727D01*
X199374456Y-123511577D01*
X199362952Y-123468644D01*
X199324230Y-123409998D01*
X199215359Y-123347141D01*
X199145208Y-123342930D01*
X199102276Y-123354434D01*
X199043630Y-123393155D01*
X198776487Y-123855860D01*
X198585961Y-123745860D02*
X198259346Y-123557289D01*
X198752654Y-123079998D02*
X198422654Y-123651575D01*
D11*
%TO.C,J2*%
X220752380Y-129183333D02*
X221466666Y-129183333D01*
X221609523Y-129230952D01*
X221704761Y-129326190D01*
X221752380Y-129469047D01*
X221752380Y-129564285D01*
X220847619Y-128754761D02*
X220800000Y-128707142D01*
X220752380Y-128611904D01*
X220752380Y-128373809D01*
X220800000Y-128278571D01*
X220847619Y-128230952D01*
X220942857Y-128183333D01*
X221038095Y-128183333D01*
X221180952Y-128230952D01*
X221752380Y-128802380D01*
X221752380Y-128183333D01*
%TO.C,H1*%
X165931595Y-81372880D02*
X165931595Y-80372880D01*
X165931595Y-80849071D02*
X166503023Y-80849071D01*
X166503023Y-81372880D02*
X166503023Y-80372880D01*
X167503023Y-81372880D02*
X166931595Y-81372880D01*
X167217309Y-81372880D02*
X167217309Y-80372880D01*
X167122071Y-80515738D01*
X167026833Y-80610976D01*
X166931595Y-80658595D01*
X162026880Y-77054880D02*
X162026880Y-76054880D01*
X162360214Y-76769166D01*
X162693547Y-76054880D01*
X162693547Y-77054880D01*
X163312595Y-77054880D02*
X163217357Y-77007261D01*
X163169738Y-76959642D01*
X163122119Y-76864404D01*
X163122119Y-76578690D01*
X163169738Y-76483452D01*
X163217357Y-76435833D01*
X163312595Y-76388214D01*
X163455452Y-76388214D01*
X163550690Y-76435833D01*
X163598309Y-76483452D01*
X163645928Y-76578690D01*
X163645928Y-76864404D01*
X163598309Y-76959642D01*
X163550690Y-77007261D01*
X163455452Y-77054880D01*
X163312595Y-77054880D01*
X164503071Y-76388214D02*
X164503071Y-77054880D01*
X164074500Y-76388214D02*
X164074500Y-76912023D01*
X164122119Y-77007261D01*
X164217357Y-77054880D01*
X164360214Y-77054880D01*
X164455452Y-77007261D01*
X164503071Y-76959642D01*
X164979261Y-76388214D02*
X164979261Y-77054880D01*
X164979261Y-76483452D02*
X165026880Y-76435833D01*
X165122119Y-76388214D01*
X165264976Y-76388214D01*
X165360214Y-76435833D01*
X165407833Y-76531071D01*
X165407833Y-77054880D01*
X165741166Y-76388214D02*
X166122119Y-76388214D01*
X165884023Y-76054880D02*
X165884023Y-76912023D01*
X165931642Y-77007261D01*
X166026880Y-77054880D01*
X166122119Y-77054880D01*
X166217357Y-77150119D02*
X166979261Y-77150119D01*
X167074500Y-76054880D02*
X167645928Y-76054880D01*
X167360214Y-77054880D02*
X167360214Y-76054880D01*
X168360214Y-77007261D02*
X168264976Y-77054880D01*
X168074500Y-77054880D01*
X167979261Y-77007261D01*
X167931642Y-76912023D01*
X167931642Y-76531071D01*
X167979261Y-76435833D01*
X168074500Y-76388214D01*
X168264976Y-76388214D01*
X168360214Y-76435833D01*
X168407833Y-76531071D01*
X168407833Y-76626309D01*
X167931642Y-76721547D01*
X168836404Y-76388214D02*
X168836404Y-77054880D01*
X168836404Y-76483452D02*
X168884023Y-76435833D01*
X168979261Y-76388214D01*
X169122119Y-76388214D01*
X169217357Y-76435833D01*
X169264976Y-76531071D01*
X169264976Y-77054880D01*
X169598309Y-76388214D02*
X169979261Y-76388214D01*
X169741166Y-76054880D02*
X169741166Y-76912023D01*
X169788785Y-77007261D01*
X169884023Y-77054880D01*
X169979261Y-77054880D01*
X170312595Y-77054880D02*
X170312595Y-76388214D01*
X170312595Y-76054880D02*
X170264976Y-76102500D01*
X170312595Y-76150119D01*
X170360214Y-76102500D01*
X170312595Y-76054880D01*
X170312595Y-76150119D01*
X170788785Y-76388214D02*
X170788785Y-77054880D01*
X170788785Y-76483452D02*
X170836404Y-76435833D01*
X170931642Y-76388214D01*
X171074500Y-76388214D01*
X171169738Y-76435833D01*
X171217357Y-76531071D01*
X171217357Y-77054880D01*
X172122119Y-76388214D02*
X172122119Y-77197738D01*
X172074500Y-77292976D01*
X172026880Y-77340595D01*
X171931642Y-77388214D01*
X171788785Y-77388214D01*
X171693547Y-77340595D01*
X172122119Y-77007261D02*
X172026880Y-77054880D01*
X171836404Y-77054880D01*
X171741166Y-77007261D01*
X171693547Y-76959642D01*
X171645928Y-76864404D01*
X171645928Y-76578690D01*
X171693547Y-76483452D01*
X171741166Y-76435833D01*
X171836404Y-76388214D01*
X172026880Y-76388214D01*
X172122119Y-76435833D01*
%TO.C,K20*%
X128380952Y-114414761D02*
X128523809Y-114462380D01*
X128761904Y-114462380D01*
X128857142Y-114414761D01*
X128904761Y-114367142D01*
X128952380Y-114271904D01*
X128952380Y-114176666D01*
X128904761Y-114081428D01*
X128857142Y-114033809D01*
X128761904Y-113986190D01*
X128571428Y-113938571D01*
X128476190Y-113890952D01*
X128428571Y-113843333D01*
X128380952Y-113748095D01*
X128380952Y-113652857D01*
X128428571Y-113557619D01*
X128476190Y-113510000D01*
X128571428Y-113462380D01*
X128809523Y-113462380D01*
X128952380Y-113510000D01*
X129285714Y-113462380D02*
X129523809Y-114462380D01*
X129714285Y-113748095D01*
X129904761Y-114462380D01*
X130142857Y-113462380D01*
X130285714Y-114557619D02*
X131047619Y-114557619D01*
X131857142Y-114462380D02*
X131523809Y-113986190D01*
X131285714Y-114462380D02*
X131285714Y-113462380D01*
X131666666Y-113462380D01*
X131761904Y-113510000D01*
X131809523Y-113557619D01*
X131857142Y-113652857D01*
X131857142Y-113795714D01*
X131809523Y-113890952D01*
X131761904Y-113938571D01*
X131666666Y-113986190D01*
X131285714Y-113986190D01*
X132428571Y-114462380D02*
X132333333Y-114414761D01*
X132285714Y-114367142D01*
X132238095Y-114271904D01*
X132238095Y-113986190D01*
X132285714Y-113890952D01*
X132333333Y-113843333D01*
X132428571Y-113795714D01*
X132571428Y-113795714D01*
X132666666Y-113843333D01*
X132714285Y-113890952D01*
X132761904Y-113986190D01*
X132761904Y-114271904D01*
X132714285Y-114367142D01*
X132666666Y-114414761D01*
X132571428Y-114462380D01*
X132428571Y-114462380D01*
X133047619Y-113795714D02*
X133428571Y-113795714D01*
X133190476Y-113462380D02*
X133190476Y-114319523D01*
X133238095Y-114414761D01*
X133333333Y-114462380D01*
X133428571Y-114462380D01*
X134190476Y-114462380D02*
X134190476Y-113938571D01*
X134142857Y-113843333D01*
X134047619Y-113795714D01*
X133857142Y-113795714D01*
X133761904Y-113843333D01*
X134190476Y-114414761D02*
X134095238Y-114462380D01*
X133857142Y-114462380D01*
X133761904Y-114414761D01*
X133714285Y-114319523D01*
X133714285Y-114224285D01*
X133761904Y-114129047D01*
X133857142Y-114081428D01*
X134095238Y-114081428D01*
X134190476Y-114033809D01*
X134666666Y-114462380D02*
X134666666Y-113795714D01*
X134666666Y-113986190D02*
X134714285Y-113890952D01*
X134761904Y-113843333D01*
X134857142Y-113795714D01*
X134952380Y-113795714D01*
X135190476Y-113795714D02*
X135428571Y-114462380D01*
X135666666Y-113795714D02*
X135428571Y-114462380D01*
X135333333Y-114700476D01*
X135285714Y-114748095D01*
X135190476Y-114795714D01*
D13*
%TO.C,D7*%
X113630952Y-77526190D02*
X113630952Y-77026190D01*
X113750000Y-77026190D01*
X113821428Y-77050000D01*
X113869047Y-77097619D01*
X113892857Y-77145238D01*
X113916666Y-77240476D01*
X113916666Y-77311904D01*
X113892857Y-77407142D01*
X113869047Y-77454761D01*
X113821428Y-77502380D01*
X113750000Y-77526190D01*
X113630952Y-77526190D01*
X114083333Y-77026190D02*
X114416666Y-77026190D01*
X114202380Y-77526190D01*
%TO.C,D13*%
X113392857Y-111526190D02*
X113392857Y-111026190D01*
X113511904Y-111026190D01*
X113583333Y-111050000D01*
X113630952Y-111097619D01*
X113654761Y-111145238D01*
X113678571Y-111240476D01*
X113678571Y-111311904D01*
X113654761Y-111407142D01*
X113630952Y-111454761D01*
X113583333Y-111502380D01*
X113511904Y-111526190D01*
X113392857Y-111526190D01*
X114154761Y-111526190D02*
X113869047Y-111526190D01*
X114011904Y-111526190D02*
X114011904Y-111026190D01*
X113964285Y-111097619D01*
X113916666Y-111145238D01*
X113869047Y-111169047D01*
X114321428Y-111026190D02*
X114630952Y-111026190D01*
X114464285Y-111216666D01*
X114535714Y-111216666D01*
X114583333Y-111240476D01*
X114607142Y-111264285D01*
X114630952Y-111311904D01*
X114630952Y-111430952D01*
X114607142Y-111478571D01*
X114583333Y-111502380D01*
X114535714Y-111526190D01*
X114392857Y-111526190D01*
X114345238Y-111502380D01*
X114321428Y-111478571D01*
D11*
%TO.C,K13*%
X94785714Y-109452380D02*
X94785714Y-108452380D01*
X95357142Y-109452380D02*
X94928571Y-108880952D01*
X95357142Y-108452380D02*
X94785714Y-109023809D01*
X96309523Y-109452380D02*
X95738095Y-109452380D01*
X96023809Y-109452380D02*
X96023809Y-108452380D01*
X95928571Y-108595238D01*
X95833333Y-108690476D01*
X95738095Y-108738095D01*
X96642857Y-108452380D02*
X97261904Y-108452380D01*
X96928571Y-108833333D01*
X97071428Y-108833333D01*
X97166666Y-108880952D01*
X97214285Y-108928571D01*
X97261904Y-109023809D01*
X97261904Y-109261904D01*
X97214285Y-109357142D01*
X97166666Y-109404761D01*
X97071428Y-109452380D01*
X96785714Y-109452380D01*
X96690476Y-109404761D01*
X96642857Y-109357142D01*
%TO.C,K14*%
X112785714Y-109452380D02*
X112785714Y-108452380D01*
X113357142Y-109452380D02*
X112928571Y-108880952D01*
X113357142Y-108452380D02*
X112785714Y-109023809D01*
X114309523Y-109452380D02*
X113738095Y-109452380D01*
X114023809Y-109452380D02*
X114023809Y-108452380D01*
X113928571Y-108595238D01*
X113833333Y-108690476D01*
X113738095Y-108738095D01*
X115166666Y-108785714D02*
X115166666Y-109452380D01*
X114928571Y-108404761D02*
X114690476Y-109119047D01*
X115309523Y-109119047D01*
D13*
%TO.C,D8*%
X131630952Y-65526190D02*
X131630952Y-65026190D01*
X131750000Y-65026190D01*
X131821428Y-65050000D01*
X131869047Y-65097619D01*
X131892857Y-65145238D01*
X131916666Y-65240476D01*
X131916666Y-65311904D01*
X131892857Y-65407142D01*
X131869047Y-65454761D01*
X131821428Y-65502380D01*
X131750000Y-65526190D01*
X131630952Y-65526190D01*
X132202380Y-65240476D02*
X132154761Y-65216666D01*
X132130952Y-65192857D01*
X132107142Y-65145238D01*
X132107142Y-65121428D01*
X132130952Y-65073809D01*
X132154761Y-65050000D01*
X132202380Y-65026190D01*
X132297619Y-65026190D01*
X132345238Y-65050000D01*
X132369047Y-65073809D01*
X132392857Y-65121428D01*
X132392857Y-65145238D01*
X132369047Y-65192857D01*
X132345238Y-65216666D01*
X132297619Y-65240476D01*
X132202380Y-65240476D01*
X132154761Y-65264285D01*
X132130952Y-65288095D01*
X132107142Y-65335714D01*
X132107142Y-65430952D01*
X132130952Y-65478571D01*
X132154761Y-65502380D01*
X132202380Y-65526190D01*
X132297619Y-65526190D01*
X132345238Y-65502380D01*
X132369047Y-65478571D01*
X132392857Y-65430952D01*
X132392857Y-65335714D01*
X132369047Y-65288095D01*
X132345238Y-65264285D01*
X132297619Y-65240476D01*
%TO.C,D10*%
X113392857Y-94526190D02*
X113392857Y-94026190D01*
X113511904Y-94026190D01*
X113583333Y-94050000D01*
X113630952Y-94097619D01*
X113654761Y-94145238D01*
X113678571Y-94240476D01*
X113678571Y-94311904D01*
X113654761Y-94407142D01*
X113630952Y-94454761D01*
X113583333Y-94502380D01*
X113511904Y-94526190D01*
X113392857Y-94526190D01*
X114154761Y-94526190D02*
X113869047Y-94526190D01*
X114011904Y-94526190D02*
X114011904Y-94026190D01*
X113964285Y-94097619D01*
X113916666Y-94145238D01*
X113869047Y-94169047D01*
X114464285Y-94026190D02*
X114511904Y-94026190D01*
X114559523Y-94050000D01*
X114583333Y-94073809D01*
X114607142Y-94121428D01*
X114630952Y-94216666D01*
X114630952Y-94335714D01*
X114607142Y-94430952D01*
X114583333Y-94478571D01*
X114559523Y-94502380D01*
X114511904Y-94526190D01*
X114464285Y-94526190D01*
X114416666Y-94502380D01*
X114392857Y-94478571D01*
X114369047Y-94430952D01*
X114345238Y-94335714D01*
X114345238Y-94216666D01*
X114369047Y-94121428D01*
X114392857Y-94073809D01*
X114416666Y-94050000D01*
X114464285Y-94026190D01*
D11*
%TO.C,K1*%
X95261904Y-75452380D02*
X95261904Y-74452380D01*
X95833333Y-75452380D02*
X95404761Y-74880952D01*
X95833333Y-74452380D02*
X95261904Y-75023809D01*
X96785714Y-75452380D02*
X96214285Y-75452380D01*
X96500000Y-75452380D02*
X96500000Y-74452380D01*
X96404761Y-74595238D01*
X96309523Y-74690476D01*
X96214285Y-74738095D01*
%TO.C,K3*%
X131261904Y-63452380D02*
X131261904Y-62452380D01*
X131833333Y-63452380D02*
X131404761Y-62880952D01*
X131833333Y-62452380D02*
X131261904Y-63023809D01*
X132166666Y-62452380D02*
X132785714Y-62452380D01*
X132452380Y-62833333D01*
X132595238Y-62833333D01*
X132690476Y-62880952D01*
X132738095Y-62928571D01*
X132785714Y-63023809D01*
X132785714Y-63261904D01*
X132738095Y-63357142D01*
X132690476Y-63404761D01*
X132595238Y-63452380D01*
X132309523Y-63452380D01*
X132214285Y-63404761D01*
X132166666Y-63357142D01*
%TO.C,K4*%
X149261904Y-56452380D02*
X149261904Y-55452380D01*
X149833333Y-56452380D02*
X149404761Y-55880952D01*
X149833333Y-55452380D02*
X149261904Y-56023809D01*
X150690476Y-55785714D02*
X150690476Y-56452380D01*
X150452380Y-55404761D02*
X150214285Y-56119047D01*
X150833333Y-56119047D01*
%TO.C,K8*%
X113261904Y-92452380D02*
X113261904Y-91452380D01*
X113833333Y-92452380D02*
X113404761Y-91880952D01*
X113833333Y-91452380D02*
X113261904Y-92023809D01*
X114404761Y-91880952D02*
X114309523Y-91833333D01*
X114261904Y-91785714D01*
X114214285Y-91690476D01*
X114214285Y-91642857D01*
X114261904Y-91547619D01*
X114309523Y-91500000D01*
X114404761Y-91452380D01*
X114595238Y-91452380D01*
X114690476Y-91500000D01*
X114738095Y-91547619D01*
X114785714Y-91642857D01*
X114785714Y-91690476D01*
X114738095Y-91785714D01*
X114690476Y-91833333D01*
X114595238Y-91880952D01*
X114404761Y-91880952D01*
X114309523Y-91928571D01*
X114261904Y-91976190D01*
X114214285Y-92071428D01*
X114214285Y-92261904D01*
X114261904Y-92357142D01*
X114309523Y-92404761D01*
X114404761Y-92452380D01*
X114595238Y-92452380D01*
X114690476Y-92404761D01*
X114738095Y-92357142D01*
X114785714Y-92261904D01*
X114785714Y-92071428D01*
X114738095Y-91976190D01*
X114690476Y-91928571D01*
X114595238Y-91880952D01*
D13*
%TO.C,D11*%
X131392857Y-82526190D02*
X131392857Y-82026190D01*
X131511904Y-82026190D01*
X131583333Y-82050000D01*
X131630952Y-82097619D01*
X131654761Y-82145238D01*
X131678571Y-82240476D01*
X131678571Y-82311904D01*
X131654761Y-82407142D01*
X131630952Y-82454761D01*
X131583333Y-82502380D01*
X131511904Y-82526190D01*
X131392857Y-82526190D01*
X132154761Y-82526190D02*
X131869047Y-82526190D01*
X132011904Y-82526190D02*
X132011904Y-82026190D01*
X131964285Y-82097619D01*
X131916666Y-82145238D01*
X131869047Y-82169047D01*
X132630952Y-82526190D02*
X132345238Y-82526190D01*
X132488095Y-82526190D02*
X132488095Y-82026190D01*
X132440476Y-82097619D01*
X132392857Y-82145238D01*
X132345238Y-82169047D01*
D11*
%TO.C,K9*%
X131261904Y-80452380D02*
X131261904Y-79452380D01*
X131833333Y-80452380D02*
X131404761Y-79880952D01*
X131833333Y-79452380D02*
X131261904Y-80023809D01*
X132309523Y-80452380D02*
X132500000Y-80452380D01*
X132595238Y-80404761D01*
X132642857Y-80357142D01*
X132738095Y-80214285D01*
X132785714Y-80023809D01*
X132785714Y-79642857D01*
X132738095Y-79547619D01*
X132690476Y-79500000D01*
X132595238Y-79452380D01*
X132404761Y-79452380D01*
X132309523Y-79500000D01*
X132261904Y-79547619D01*
X132214285Y-79642857D01*
X132214285Y-79880952D01*
X132261904Y-79976190D01*
X132309523Y-80023809D01*
X132404761Y-80071428D01*
X132595238Y-80071428D01*
X132690476Y-80023809D01*
X132738095Y-79976190D01*
X132785714Y-79880952D01*
%TO.C,K10*%
X148785714Y-73452380D02*
X148785714Y-72452380D01*
X149357142Y-73452380D02*
X148928571Y-72880952D01*
X149357142Y-72452380D02*
X148785714Y-73023809D01*
X150309523Y-73452380D02*
X149738095Y-73452380D01*
X150023809Y-73452380D02*
X150023809Y-72452380D01*
X149928571Y-72595238D01*
X149833333Y-72690476D01*
X149738095Y-72738095D01*
X150928571Y-72452380D02*
X151023809Y-72452380D01*
X151119047Y-72500000D01*
X151166666Y-72547619D01*
X151214285Y-72642857D01*
X151261904Y-72833333D01*
X151261904Y-73071428D01*
X151214285Y-73261904D01*
X151166666Y-73357142D01*
X151119047Y-73404761D01*
X151023809Y-73452380D01*
X150928571Y-73452380D01*
X150833333Y-73404761D01*
X150785714Y-73357142D01*
X150738095Y-73261904D01*
X150690476Y-73071428D01*
X150690476Y-72833333D01*
X150738095Y-72642857D01*
X150785714Y-72547619D01*
X150833333Y-72500000D01*
X150928571Y-72452380D01*
%TO.C,K15*%
X130785714Y-97452380D02*
X130785714Y-96452380D01*
X131357142Y-97452380D02*
X130928571Y-96880952D01*
X131357142Y-96452380D02*
X130785714Y-97023809D01*
X132309523Y-97452380D02*
X131738095Y-97452380D01*
X132023809Y-97452380D02*
X132023809Y-96452380D01*
X131928571Y-96595238D01*
X131833333Y-96690476D01*
X131738095Y-96738095D01*
X133214285Y-96452380D02*
X132738095Y-96452380D01*
X132690476Y-96928571D01*
X132738095Y-96880952D01*
X132833333Y-96833333D01*
X133071428Y-96833333D01*
X133166666Y-96880952D01*
X133214285Y-96928571D01*
X133261904Y-97023809D01*
X133261904Y-97261904D01*
X133214285Y-97357142D01*
X133166666Y-97404761D01*
X133071428Y-97452380D01*
X132833333Y-97452380D01*
X132738095Y-97404761D01*
X132690476Y-97357142D01*
%TO.C,K16*%
X148785714Y-90452380D02*
X148785714Y-89452380D01*
X149357142Y-90452380D02*
X148928571Y-89880952D01*
X149357142Y-89452380D02*
X148785714Y-90023809D01*
X150309523Y-90452380D02*
X149738095Y-90452380D01*
X150023809Y-90452380D02*
X150023809Y-89452380D01*
X149928571Y-89595238D01*
X149833333Y-89690476D01*
X149738095Y-89738095D01*
X151166666Y-89452380D02*
X150976190Y-89452380D01*
X150880952Y-89500000D01*
X150833333Y-89547619D01*
X150738095Y-89690476D01*
X150690476Y-89880952D01*
X150690476Y-90261904D01*
X150738095Y-90357142D01*
X150785714Y-90404761D01*
X150880952Y-90452380D01*
X151071428Y-90452380D01*
X151166666Y-90404761D01*
X151214285Y-90357142D01*
X151261904Y-90261904D01*
X151261904Y-90023809D01*
X151214285Y-89928571D01*
X151166666Y-89880952D01*
X151071428Y-89833333D01*
X150880952Y-89833333D01*
X150785714Y-89880952D01*
X150738095Y-89928571D01*
X150690476Y-90023809D01*
D13*
%TO.C,D14*%
X131392857Y-99526190D02*
X131392857Y-99026190D01*
X131511904Y-99026190D01*
X131583333Y-99050000D01*
X131630952Y-99097619D01*
X131654761Y-99145238D01*
X131678571Y-99240476D01*
X131678571Y-99311904D01*
X131654761Y-99407142D01*
X131630952Y-99454761D01*
X131583333Y-99502380D01*
X131511904Y-99526190D01*
X131392857Y-99526190D01*
X132154761Y-99526190D02*
X131869047Y-99526190D01*
X132011904Y-99526190D02*
X132011904Y-99026190D01*
X131964285Y-99097619D01*
X131916666Y-99145238D01*
X131869047Y-99169047D01*
X132583333Y-99192857D02*
X132583333Y-99526190D01*
X132464285Y-99002380D02*
X132345238Y-99359523D01*
X132654761Y-99359523D01*
%TO.C,D9*%
X167630952Y-64026190D02*
X167630952Y-63526190D01*
X167750000Y-63526190D01*
X167821428Y-63550000D01*
X167869047Y-63597619D01*
X167892857Y-63645238D01*
X167916666Y-63740476D01*
X167916666Y-63811904D01*
X167892857Y-63907142D01*
X167869047Y-63954761D01*
X167821428Y-64002380D01*
X167750000Y-64026190D01*
X167630952Y-64026190D01*
X168154761Y-64026190D02*
X168250000Y-64026190D01*
X168297619Y-64002380D01*
X168321428Y-63978571D01*
X168369047Y-63907142D01*
X168392857Y-63811904D01*
X168392857Y-63621428D01*
X168369047Y-63573809D01*
X168345238Y-63550000D01*
X168297619Y-63526190D01*
X168202380Y-63526190D01*
X168154761Y-63550000D01*
X168130952Y-63573809D01*
X168107142Y-63621428D01*
X168107142Y-63740476D01*
X168130952Y-63788095D01*
X168154761Y-63811904D01*
X168202380Y-63835714D01*
X168297619Y-63835714D01*
X168345238Y-63811904D01*
X168369047Y-63788095D01*
X168392857Y-63740476D01*
%TO.C,D12*%
X167392857Y-81026190D02*
X167392857Y-80526190D01*
X167511904Y-80526190D01*
X167583333Y-80550000D01*
X167630952Y-80597619D01*
X167654761Y-80645238D01*
X167678571Y-80740476D01*
X167678571Y-80811904D01*
X167654761Y-80907142D01*
X167630952Y-80954761D01*
X167583333Y-81002380D01*
X167511904Y-81026190D01*
X167392857Y-81026190D01*
X168154761Y-81026190D02*
X167869047Y-81026190D01*
X168011904Y-81026190D02*
X168011904Y-80526190D01*
X167964285Y-80597619D01*
X167916666Y-80645238D01*
X167869047Y-80669047D01*
X168345238Y-80573809D02*
X168369047Y-80550000D01*
X168416666Y-80526190D01*
X168535714Y-80526190D01*
X168583333Y-80550000D01*
X168607142Y-80573809D01*
X168630952Y-80621428D01*
X168630952Y-80669047D01*
X168607142Y-80740476D01*
X168321428Y-81026190D01*
X168630952Y-81026190D01*
%TO.C,D15*%
X167392857Y-98026190D02*
X167392857Y-97526190D01*
X167511904Y-97526190D01*
X167583333Y-97550000D01*
X167630952Y-97597619D01*
X167654761Y-97645238D01*
X167678571Y-97740476D01*
X167678571Y-97811904D01*
X167654761Y-97907142D01*
X167630952Y-97954761D01*
X167583333Y-98002380D01*
X167511904Y-98026190D01*
X167392857Y-98026190D01*
X168154761Y-98026190D02*
X167869047Y-98026190D01*
X168011904Y-98026190D02*
X168011904Y-97526190D01*
X167964285Y-97597619D01*
X167916666Y-97645238D01*
X167869047Y-97669047D01*
X168607142Y-97526190D02*
X168369047Y-97526190D01*
X168345238Y-97764285D01*
X168369047Y-97740476D01*
X168416666Y-97716666D01*
X168535714Y-97716666D01*
X168583333Y-97740476D01*
X168607142Y-97764285D01*
X168630952Y-97811904D01*
X168630952Y-97930952D01*
X168607142Y-97978571D01*
X168583333Y-98002380D01*
X168535714Y-98026190D01*
X168416666Y-98026190D01*
X168369047Y-98002380D01*
X168345238Y-97978571D01*
D11*
%TO.C,K5*%
X167261904Y-61952380D02*
X167261904Y-60952380D01*
X167833333Y-61952380D02*
X167404761Y-61380952D01*
X167833333Y-60952380D02*
X167261904Y-61523809D01*
X168738095Y-60952380D02*
X168261904Y-60952380D01*
X168214285Y-61428571D01*
X168261904Y-61380952D01*
X168357142Y-61333333D01*
X168595238Y-61333333D01*
X168690476Y-61380952D01*
X168738095Y-61428571D01*
X168785714Y-61523809D01*
X168785714Y-61761904D01*
X168738095Y-61857142D01*
X168690476Y-61904761D01*
X168595238Y-61952380D01*
X168357142Y-61952380D01*
X168261904Y-61904761D01*
X168214285Y-61857142D01*
%TO.C,K6*%
X185261904Y-64452380D02*
X185261904Y-63452380D01*
X185833333Y-64452380D02*
X185404761Y-63880952D01*
X185833333Y-63452380D02*
X185261904Y-64023809D01*
X186690476Y-63452380D02*
X186500000Y-63452380D01*
X186404761Y-63500000D01*
X186357142Y-63547619D01*
X186261904Y-63690476D01*
X186214285Y-63880952D01*
X186214285Y-64261904D01*
X186261904Y-64357142D01*
X186309523Y-64404761D01*
X186404761Y-64452380D01*
X186595238Y-64452380D01*
X186690476Y-64404761D01*
X186738095Y-64357142D01*
X186785714Y-64261904D01*
X186785714Y-64023809D01*
X186738095Y-63928571D01*
X186690476Y-63880952D01*
X186595238Y-63833333D01*
X186404761Y-63833333D01*
X186309523Y-63880952D01*
X186261904Y-63928571D01*
X186214285Y-64023809D01*
%TO.C,K11*%
X166785714Y-78952380D02*
X166785714Y-77952380D01*
X167357142Y-78952380D02*
X166928571Y-78380952D01*
X167357142Y-77952380D02*
X166785714Y-78523809D01*
X168309523Y-78952380D02*
X167738095Y-78952380D01*
X168023809Y-78952380D02*
X168023809Y-77952380D01*
X167928571Y-78095238D01*
X167833333Y-78190476D01*
X167738095Y-78238095D01*
X169261904Y-78952380D02*
X168690476Y-78952380D01*
X168976190Y-78952380D02*
X168976190Y-77952380D01*
X168880952Y-78095238D01*
X168785714Y-78190476D01*
X168690476Y-78238095D01*
%TO.C,K12*%
X184785714Y-81452380D02*
X184785714Y-80452380D01*
X185357142Y-81452380D02*
X184928571Y-80880952D01*
X185357142Y-80452380D02*
X184785714Y-81023809D01*
X186309523Y-81452380D02*
X185738095Y-81452380D01*
X186023809Y-81452380D02*
X186023809Y-80452380D01*
X185928571Y-80595238D01*
X185833333Y-80690476D01*
X185738095Y-80738095D01*
X186690476Y-80547619D02*
X186738095Y-80500000D01*
X186833333Y-80452380D01*
X187071428Y-80452380D01*
X187166666Y-80500000D01*
X187214285Y-80547619D01*
X187261904Y-80642857D01*
X187261904Y-80738095D01*
X187214285Y-80880952D01*
X186642857Y-81452380D01*
X187261904Y-81452380D01*
%TO.C,K17*%
X166785714Y-95952380D02*
X166785714Y-94952380D01*
X167357142Y-95952380D02*
X166928571Y-95380952D01*
X167357142Y-94952380D02*
X166785714Y-95523809D01*
X168309523Y-95952380D02*
X167738095Y-95952380D01*
X168023809Y-95952380D02*
X168023809Y-94952380D01*
X167928571Y-95095238D01*
X167833333Y-95190476D01*
X167738095Y-95238095D01*
X168642857Y-94952380D02*
X169309523Y-94952380D01*
X168880952Y-95952380D01*
%TO.C,K18*%
X184785714Y-98452380D02*
X184785714Y-97452380D01*
X185357142Y-98452380D02*
X184928571Y-97880952D01*
X185357142Y-97452380D02*
X184785714Y-98023809D01*
X186309523Y-98452380D02*
X185738095Y-98452380D01*
X186023809Y-98452380D02*
X186023809Y-97452380D01*
X185928571Y-97595238D01*
X185833333Y-97690476D01*
X185738095Y-97738095D01*
X186880952Y-97880952D02*
X186785714Y-97833333D01*
X186738095Y-97785714D01*
X186690476Y-97690476D01*
X186690476Y-97642857D01*
X186738095Y-97547619D01*
X186785714Y-97500000D01*
X186880952Y-97452380D01*
X187071428Y-97452380D01*
X187166666Y-97500000D01*
X187214285Y-97547619D01*
X187261904Y-97642857D01*
X187261904Y-97690476D01*
X187214285Y-97785714D01*
X187166666Y-97833333D01*
X187071428Y-97880952D01*
X186880952Y-97880952D01*
X186785714Y-97928571D01*
X186738095Y-97976190D01*
X186690476Y-98071428D01*
X186690476Y-98261904D01*
X186738095Y-98357142D01*
X186785714Y-98404761D01*
X186880952Y-98452380D01*
X187071428Y-98452380D01*
X187166666Y-98404761D01*
X187214285Y-98357142D01*
X187261904Y-98261904D01*
X187261904Y-98071428D01*
X187214285Y-97976190D01*
X187166666Y-97928571D01*
X187071428Y-97880952D01*
%TO.C,K21*%
X156285714Y-126952380D02*
X156285714Y-125952380D01*
X156857142Y-126952380D02*
X156428571Y-126380952D01*
X156857142Y-125952380D02*
X156285714Y-126523809D01*
X157238095Y-126047619D02*
X157285714Y-126000000D01*
X157380952Y-125952380D01*
X157619047Y-125952380D01*
X157714285Y-126000000D01*
X157761904Y-126047619D01*
X157809523Y-126142857D01*
X157809523Y-126238095D01*
X157761904Y-126380952D01*
X157190476Y-126952380D01*
X157809523Y-126952380D01*
X158761904Y-126952380D02*
X158190476Y-126952380D01*
X158476190Y-126952380D02*
X158476190Y-125952380D01*
X158380952Y-126095238D01*
X158285714Y-126190476D01*
X158190476Y-126238095D01*
%TO.C,K2*%
X113261904Y-75452380D02*
X113261904Y-74452380D01*
X113833333Y-75452380D02*
X113404761Y-74880952D01*
X113833333Y-74452380D02*
X113261904Y-75023809D01*
X114214285Y-74547619D02*
X114261904Y-74500000D01*
X114357142Y-74452380D01*
X114595238Y-74452380D01*
X114690476Y-74500000D01*
X114738095Y-74547619D01*
X114785714Y-74642857D01*
X114785714Y-74738095D01*
X114738095Y-74880952D01*
X114166666Y-75452380D01*
X114785714Y-75452380D01*
D13*
%TO.C,D17*%
X176538548Y-126865173D02*
X176409138Y-127348136D01*
X176294147Y-127317325D01*
X176231315Y-127275839D01*
X176197643Y-127217518D01*
X176186970Y-127165359D01*
X176188621Y-127067204D01*
X176207108Y-126998209D01*
X176254756Y-126912379D01*
X176290078Y-126872545D01*
X176348400Y-126838873D01*
X176423557Y-126834362D01*
X176538548Y-126865173D01*
X175802604Y-126667978D02*
X176078583Y-126741926D01*
X175940594Y-126704952D02*
X175811184Y-127187915D01*
X175875668Y-127131245D01*
X175933989Y-127097573D01*
X175986148Y-127086900D01*
X175512207Y-127107804D02*
X175190232Y-127021531D01*
X175526626Y-126594030D01*
D11*
%TO.C,K22*%
X176588262Y-129025460D02*
X176329443Y-129991386D01*
X176036305Y-128877564D02*
X176302376Y-129540444D01*
X175777486Y-129843490D02*
X176477340Y-129439429D01*
X175434163Y-129652899D02*
X175375842Y-129686571D01*
X175271524Y-129707918D01*
X175041542Y-129646294D01*
X174961874Y-129575648D01*
X174928202Y-129517327D01*
X174906855Y-129413009D01*
X174931505Y-129321016D01*
X175014475Y-129195352D01*
X175714329Y-128791291D01*
X175116375Y-128631069D01*
X174514234Y-129406405D02*
X174455913Y-129440076D01*
X174351595Y-129461423D01*
X174121613Y-129399800D01*
X174041945Y-129329154D01*
X174008273Y-129270833D01*
X173986926Y-129166515D01*
X174011575Y-129074522D01*
X174094546Y-128948857D01*
X174794400Y-128544796D01*
X174196446Y-128384575D01*
%TO.C,K23*%
X200256069Y-124203111D02*
X199756069Y-125069136D01*
X199761198Y-123917397D02*
X199846637Y-124626554D01*
X199261198Y-124783422D02*
X200041784Y-124574265D01*
X198978902Y-124510467D02*
X198913853Y-124527897D01*
X198807565Y-124521517D01*
X198601369Y-124402470D01*
X198542700Y-124313611D01*
X198525270Y-124248563D01*
X198531650Y-124142274D01*
X198579269Y-124059796D01*
X198691937Y-123959887D01*
X199472522Y-123750730D01*
X198936411Y-123441206D01*
X198147736Y-124140565D02*
X197611625Y-123831041D01*
X198090777Y-123667793D01*
X197967059Y-123596365D01*
X197908390Y-123507506D01*
X197890960Y-123442458D01*
X197897340Y-123336169D01*
X198016387Y-123129973D01*
X198105246Y-123071304D01*
X198170294Y-123053874D01*
X198276583Y-123060254D01*
X198524018Y-123203111D01*
X198582688Y-123291969D01*
X198600117Y-123357018D01*
D13*
%TO.C,D18*%
X208406201Y-145784024D02*
X208052648Y-146137577D01*
X207968468Y-146053398D01*
X207934797Y-145986054D01*
X207934797Y-145918711D01*
X207951633Y-145868203D01*
X208002140Y-145784024D01*
X208052648Y-145733516D01*
X208136827Y-145683008D01*
X208187335Y-145666172D01*
X208254678Y-145666172D01*
X208322022Y-145699844D01*
X208406201Y-145784024D01*
X207867453Y-145245275D02*
X208069484Y-145447306D01*
X207968468Y-145346291D02*
X207614915Y-145699844D01*
X207699094Y-145683008D01*
X207766438Y-145683008D01*
X207816946Y-145699844D01*
X207463392Y-145245275D02*
X207480228Y-145295783D01*
X207480228Y-145329455D01*
X207463392Y-145379962D01*
X207446556Y-145396798D01*
X207396049Y-145413634D01*
X207362377Y-145413634D01*
X207311869Y-145396798D01*
X207244526Y-145329455D01*
X207227690Y-145278947D01*
X207227690Y-145245275D01*
X207244526Y-145194768D01*
X207261362Y-145177932D01*
X207311869Y-145161096D01*
X207345541Y-145161096D01*
X207396049Y-145177932D01*
X207463392Y-145245275D01*
X207513900Y-145262111D01*
X207547571Y-145262111D01*
X207598079Y-145245275D01*
X207665423Y-145177932D01*
X207682258Y-145127424D01*
X207682258Y-145093753D01*
X207665423Y-145043245D01*
X207598079Y-144975901D01*
X207547571Y-144959066D01*
X207513900Y-144959066D01*
X207463392Y-144975901D01*
X207396049Y-145043245D01*
X207379213Y-145093753D01*
X207379213Y-145127424D01*
X207396049Y-145177932D01*
%TO.C,D16*%
X156892857Y-124426190D02*
X156892857Y-123926190D01*
X157011904Y-123926190D01*
X157083333Y-123950000D01*
X157130952Y-123997619D01*
X157154761Y-124045238D01*
X157178571Y-124140476D01*
X157178571Y-124211904D01*
X157154761Y-124307142D01*
X157130952Y-124354761D01*
X157083333Y-124402380D01*
X157011904Y-124426190D01*
X156892857Y-124426190D01*
X157654761Y-124426190D02*
X157369047Y-124426190D01*
X157511904Y-124426190D02*
X157511904Y-123926190D01*
X157464285Y-123997619D01*
X157416666Y-124045238D01*
X157369047Y-124069047D01*
X158083333Y-123926190D02*
X157988095Y-123926190D01*
X157940476Y-123950000D01*
X157916666Y-123973809D01*
X157869047Y-124045238D01*
X157845238Y-124140476D01*
X157845238Y-124330952D01*
X157869047Y-124378571D01*
X157892857Y-124402380D01*
X157940476Y-124426190D01*
X158035714Y-124426190D01*
X158083333Y-124402380D01*
X158107142Y-124378571D01*
X158130952Y-124330952D01*
X158130952Y-124211904D01*
X158107142Y-124164285D01*
X158083333Y-124140476D01*
X158035714Y-124116666D01*
X157940476Y-124116666D01*
X157892857Y-124140476D01*
X157869047Y-124164285D01*
X157845238Y-124211904D01*
D11*
%TO.C,K19*%
X208756069Y-109480679D02*
X208256069Y-110346704D01*
X208261198Y-109194965D02*
X208346637Y-109904122D01*
X207761198Y-110060990D02*
X208541784Y-109851833D01*
X207436411Y-108718774D02*
X207931283Y-109004488D01*
X207683847Y-108861631D02*
X207183847Y-109727657D01*
X207337755Y-109651558D01*
X207467852Y-109616698D01*
X207574140Y-109623078D01*
X207024018Y-108480679D02*
X206859061Y-108385441D01*
X206752773Y-108379061D01*
X206687724Y-108396491D01*
X206533817Y-108472590D01*
X206397340Y-108613737D01*
X206206863Y-108943652D01*
X206200484Y-109049940D01*
X206217914Y-109114989D01*
X206276583Y-109203847D01*
X206441540Y-109299085D01*
X206547828Y-109305465D01*
X206612877Y-109288035D01*
X206701735Y-109229366D01*
X206820783Y-109023170D01*
X206827163Y-108916882D01*
X206809733Y-108851833D01*
X206751064Y-108762974D01*
X206586106Y-108667736D01*
X206479818Y-108661357D01*
X206414769Y-108678786D01*
X206325911Y-108737455D01*
%TO.C,K24*%
X207369112Y-147679743D02*
X206662005Y-148386849D01*
X206965051Y-147275682D02*
X206864036Y-147982788D01*
X206257944Y-147982788D02*
X207066066Y-147982788D01*
X206055913Y-147646071D02*
X205988570Y-147646071D01*
X205887555Y-147612399D01*
X205719196Y-147444040D01*
X205685524Y-147343025D01*
X205685524Y-147275682D01*
X205719196Y-147174666D01*
X205786539Y-147107323D01*
X205921226Y-147039979D01*
X206729349Y-147039979D01*
X206291616Y-146602246D01*
X205214120Y-146467559D02*
X205685524Y-145996155D01*
X205113104Y-146905292D02*
X205786539Y-146568575D01*
X205348807Y-146130842D01*
%TO.C,D4*%
X161051821Y-110502588D02*
X161051821Y-109802588D01*
X161218488Y-109802588D01*
X161318488Y-109835922D01*
X161385154Y-109902588D01*
X161418488Y-109969255D01*
X161451821Y-110102588D01*
X161451821Y-110202588D01*
X161418488Y-110335922D01*
X161385154Y-110402588D01*
X161318488Y-110469255D01*
X161218488Y-110502588D01*
X161051821Y-110502588D01*
X162051821Y-110035922D02*
X162051821Y-110502588D01*
X161885154Y-109769255D02*
X161718488Y-110269255D01*
X162151821Y-110269255D01*
D12*
X160808488Y-111584493D02*
X160934202Y-111584493D01*
X160997059Y-111615922D01*
X161059916Y-111678779D01*
X161091345Y-111804493D01*
X161091345Y-112024493D01*
X161059916Y-112150207D01*
X160997059Y-112213064D01*
X160934202Y-112244493D01*
X160808488Y-112244493D01*
X160745630Y-112213064D01*
X160682773Y-112150207D01*
X160651345Y-112024493D01*
X160651345Y-111804493D01*
X160682773Y-111678779D01*
X160745630Y-111615922D01*
X160808488Y-111584493D01*
X161374202Y-111584493D02*
X161374202Y-112118779D01*
X161405630Y-112181636D01*
X161437059Y-112213064D01*
X161499916Y-112244493D01*
X161625630Y-112244493D01*
X161688488Y-112213064D01*
X161719916Y-112181636D01*
X161751345Y-112118779D01*
X161751345Y-111584493D01*
X161971345Y-111584493D02*
X162348488Y-111584493D01*
X162159916Y-112244493D02*
X162159916Y-111584493D01*
X161065630Y-111311636D02*
X161034202Y-111343064D01*
X160939916Y-111374493D01*
X160877059Y-111374493D01*
X160782773Y-111343064D01*
X160719916Y-111280207D01*
X160688488Y-111217350D01*
X160657059Y-111091636D01*
X160657059Y-110997350D01*
X160688488Y-110871636D01*
X160719916Y-110808779D01*
X160782773Y-110745922D01*
X160877059Y-110714493D01*
X160939916Y-110714493D01*
X161034202Y-110745922D01*
X161065630Y-110777350D01*
X161348488Y-110714493D02*
X161348488Y-111248779D01*
X161379916Y-111311636D01*
X161411345Y-111343064D01*
X161474202Y-111374493D01*
X161599916Y-111374493D01*
X161662773Y-111343064D01*
X161694202Y-111311636D01*
X161725630Y-111248779D01*
X161725630Y-110714493D01*
X161945630Y-110714493D02*
X162322773Y-110714493D01*
X162134202Y-111374493D02*
X162134202Y-110714493D01*
D11*
%TO.C,D1*%
X204997279Y-105739505D02*
X205347279Y-105133287D01*
X205491616Y-105216620D01*
X205561552Y-105295488D01*
X205585954Y-105386556D01*
X205581488Y-105460958D01*
X205543689Y-105593094D01*
X205493689Y-105679697D01*
X205398155Y-105778500D01*
X205335954Y-105819569D01*
X205244885Y-105843970D01*
X205141616Y-105822838D01*
X204997279Y-105739505D01*
X205921039Y-106272838D02*
X205574629Y-106072838D01*
X205747834Y-106172838D02*
X206097834Y-105566620D01*
X205990099Y-105619889D01*
X205899031Y-105644291D01*
X205824629Y-105639825D01*
D12*
X205027318Y-107840808D02*
X204918446Y-107777951D01*
X204879725Y-107719304D01*
X204856717Y-107633440D01*
X204892357Y-107508854D01*
X205002357Y-107318328D01*
X205092432Y-107225171D01*
X205178296Y-107202163D01*
X205248446Y-107206374D01*
X205357318Y-107269231D01*
X205396040Y-107327878D01*
X205419047Y-107413742D01*
X205383408Y-107538328D01*
X205273408Y-107728854D01*
X205183333Y-107822011D01*
X205097468Y-107845018D01*
X205027318Y-107840808D01*
X204537395Y-107557951D02*
X204804538Y-107095246D01*
X204808749Y-107025096D01*
X204797245Y-106982163D01*
X204758523Y-106923517D01*
X204649652Y-106860660D01*
X204579501Y-106856449D01*
X204536569Y-106867953D01*
X204477923Y-106906674D01*
X204210780Y-107369379D01*
X204020254Y-107259379D02*
X203693639Y-107070808D01*
X204186947Y-106593517D02*
X203856947Y-107165094D01*
X205520877Y-106431654D02*
X205563809Y-106420150D01*
X205661177Y-106440075D01*
X205715613Y-106471503D01*
X205781553Y-106545864D01*
X205804560Y-106631729D01*
X205800349Y-106701879D01*
X205764710Y-106826465D01*
X205717567Y-106908119D01*
X205627492Y-107001276D01*
X205568846Y-107039998D01*
X205482981Y-107063005D01*
X205385613Y-107043080D01*
X205331177Y-107011652D01*
X205265238Y-106937291D01*
X205253734Y-106894359D01*
X204977344Y-106807366D02*
X205244487Y-106344661D01*
X205248697Y-106274511D01*
X205237194Y-106231578D01*
X205198472Y-106172932D01*
X205089600Y-106110075D01*
X205019450Y-106105864D01*
X204976518Y-106117368D01*
X204917872Y-106156089D01*
X204650729Y-106618794D01*
X204460203Y-106508794D02*
X204133588Y-106320223D01*
X204626895Y-105842932D02*
X204296895Y-106414509D01*
D11*
%TO.C,J4*%
X209600000Y-65948142D02*
X209600000Y-66591000D01*
X209571428Y-66719571D01*
X209514285Y-66805285D01*
X209428571Y-66848142D01*
X209371428Y-66848142D01*
X210142857Y-66248142D02*
X210142857Y-66848142D01*
X210000000Y-65905285D02*
X209857142Y-66548142D01*
X210228571Y-66548142D01*
%TO.C,JP1*%
X216072380Y-78603333D02*
X216786666Y-78603333D01*
X216929523Y-78650952D01*
X217024761Y-78746190D01*
X217072380Y-78889047D01*
X217072380Y-78984285D01*
X217072380Y-78127142D02*
X216072380Y-78127142D01*
X216072380Y-77746190D01*
X216120000Y-77650952D01*
X216167619Y-77603333D01*
X216262857Y-77555714D01*
X216405714Y-77555714D01*
X216500952Y-77603333D01*
X216548571Y-77650952D01*
X216596190Y-77746190D01*
X216596190Y-78127142D01*
X217072380Y-76603333D02*
X217072380Y-77174761D01*
X217072380Y-76889047D02*
X216072380Y-76889047D01*
X216215238Y-76984285D01*
X216310476Y-77079523D01*
X216358095Y-77174761D01*
X219382380Y-80220952D02*
X220382380Y-79887619D01*
X219382380Y-79554285D01*
X220334761Y-78792380D02*
X220382380Y-78887619D01*
X220382380Y-79078095D01*
X220334761Y-79173333D01*
X220287142Y-79220952D01*
X220191904Y-79268571D01*
X219906190Y-79268571D01*
X219810952Y-79220952D01*
X219763333Y-79173333D01*
X219715714Y-79078095D01*
X219715714Y-78887619D01*
X219763333Y-78792380D01*
X220334761Y-77935238D02*
X220382380Y-78030476D01*
X220382380Y-78220952D01*
X220334761Y-78316190D01*
X220287142Y-78363809D01*
X220191904Y-78411428D01*
X219906190Y-78411428D01*
X219810952Y-78363809D01*
X219763333Y-78316190D01*
X219715714Y-78220952D01*
X219715714Y-78030476D01*
X219763333Y-77935238D01*
X219382380Y-77220952D02*
X220096666Y-77220952D01*
X220239523Y-77268571D01*
X220334761Y-77363809D01*
X220382380Y-77506666D01*
X220382380Y-77601904D01*
X219715714Y-76316190D02*
X220382380Y-76316190D01*
X219715714Y-76744761D02*
X220239523Y-76744761D01*
X220334761Y-76697142D01*
X220382380Y-76601904D01*
X220382380Y-76459047D01*
X220334761Y-76363809D01*
X220287142Y-76316190D01*
X220382380Y-75840000D02*
X219715714Y-75840000D01*
X219810952Y-75840000D02*
X219763333Y-75792380D01*
X219715714Y-75697142D01*
X219715714Y-75554285D01*
X219763333Y-75459047D01*
X219858571Y-75411428D01*
X220382380Y-75411428D01*
X219858571Y-75411428D02*
X219763333Y-75363809D01*
X219715714Y-75268571D01*
X219715714Y-75125714D01*
X219763333Y-75030476D01*
X219858571Y-74982857D01*
X220382380Y-74982857D01*
X219715714Y-74506666D02*
X220715714Y-74506666D01*
X219763333Y-74506666D02*
X219715714Y-74411428D01*
X219715714Y-74220952D01*
X219763333Y-74125714D01*
X219810952Y-74078095D01*
X219906190Y-74030476D01*
X220191904Y-74030476D01*
X220287142Y-74078095D01*
X220334761Y-74125714D01*
X220382380Y-74220952D01*
X220382380Y-74411428D01*
X220334761Y-74506666D01*
X220334761Y-73220952D02*
X220382380Y-73316190D01*
X220382380Y-73506666D01*
X220334761Y-73601904D01*
X220239523Y-73649523D01*
X219858571Y-73649523D01*
X219763333Y-73601904D01*
X219715714Y-73506666D01*
X219715714Y-73316190D01*
X219763333Y-73220952D01*
X219858571Y-73173333D01*
X219953809Y-73173333D01*
X220049047Y-73649523D01*
X220382380Y-72744761D02*
X219715714Y-72744761D01*
X219906190Y-72744761D02*
X219810952Y-72697142D01*
X219763333Y-72649523D01*
X219715714Y-72554285D01*
X219715714Y-72459047D01*
D14*
%TO.C,R2*%
X218522380Y-85656666D02*
X218046190Y-85990000D01*
X218522380Y-86228095D02*
X217522380Y-86228095D01*
X217522380Y-85847142D01*
X217570000Y-85751904D01*
X217617619Y-85704285D01*
X217712857Y-85656666D01*
X217855714Y-85656666D01*
X217950952Y-85704285D01*
X217998571Y-85751904D01*
X218046190Y-85847142D01*
X218046190Y-86228095D01*
X217617619Y-85275714D02*
X217570000Y-85228095D01*
X217522380Y-85132857D01*
X217522380Y-84894761D01*
X217570000Y-84799523D01*
X217617619Y-84751904D01*
X217712857Y-84704285D01*
X217808095Y-84704285D01*
X217950952Y-84751904D01*
X218522380Y-85323333D01*
X218522380Y-84704285D01*
D11*
%TO.C,C1*%
X204741904Y-63225714D02*
X204741904Y-63892380D01*
X204503809Y-62844761D02*
X204265714Y-63559047D01*
X204884761Y-63559047D01*
X205694285Y-63225714D02*
X205694285Y-63892380D01*
X205265714Y-63225714D02*
X205265714Y-63749523D01*
X205313333Y-63844761D01*
X205408571Y-63892380D01*
X205551428Y-63892380D01*
X205646666Y-63844761D01*
X205694285Y-63797142D01*
X206075238Y-62892380D02*
X206741904Y-62892380D01*
X206313333Y-63892380D01*
D15*
X205416666Y-64898571D02*
X205392857Y-64922380D01*
X205321428Y-64946190D01*
X205273809Y-64946190D01*
X205202380Y-64922380D01*
X205154761Y-64874761D01*
X205130952Y-64827142D01*
X205107142Y-64731904D01*
X205107142Y-64660476D01*
X205130952Y-64565238D01*
X205154761Y-64517619D01*
X205202380Y-64470000D01*
X205273809Y-64446190D01*
X205321428Y-64446190D01*
X205392857Y-64470000D01*
X205416666Y-64493809D01*
X205892857Y-64946190D02*
X205607142Y-64946190D01*
X205750000Y-64946190D02*
X205750000Y-64446190D01*
X205702380Y-64517619D01*
X205654761Y-64565238D01*
X205607142Y-64589047D01*
D11*
%TO.C,SW1*%
X219416666Y-139904761D02*
X219559523Y-139952380D01*
X219797619Y-139952380D01*
X219892857Y-139904761D01*
X219940476Y-139857142D01*
X219988095Y-139761904D01*
X219988095Y-139666666D01*
X219940476Y-139571428D01*
X219892857Y-139523809D01*
X219797619Y-139476190D01*
X219607142Y-139428571D01*
X219511904Y-139380952D01*
X219464285Y-139333333D01*
X219416666Y-139238095D01*
X219416666Y-139142857D01*
X219464285Y-139047619D01*
X219511904Y-139000000D01*
X219607142Y-138952380D01*
X219845238Y-138952380D01*
X219988095Y-139000000D01*
X220321428Y-138952380D02*
X220559523Y-139952380D01*
X220750000Y-139238095D01*
X220940476Y-139952380D01*
X221178571Y-138952380D01*
X222083333Y-139952380D02*
X221511904Y-139952380D01*
X221797619Y-139952380D02*
X221797619Y-138952380D01*
X221702380Y-139095238D01*
X221607142Y-139190476D01*
X221511904Y-139238095D01*
D16*
X220861904Y-135133333D02*
X220880952Y-135076190D01*
X220880952Y-134980952D01*
X220861904Y-134942857D01*
X220842857Y-134923809D01*
X220804761Y-134904761D01*
X220766666Y-134904761D01*
X220728571Y-134923809D01*
X220709523Y-134942857D01*
X220690476Y-134980952D01*
X220671428Y-135057142D01*
X220652380Y-135095238D01*
X220633333Y-135114285D01*
X220595238Y-135133333D01*
X220557142Y-135133333D01*
X220519047Y-135114285D01*
X220500000Y-135095238D01*
X220480952Y-135057142D01*
X220480952Y-134961904D01*
X220500000Y-134904761D01*
X220480952Y-134771428D02*
X220880952Y-134676190D01*
X220595238Y-134600000D01*
X220880952Y-134523809D01*
X220480952Y-134428571D01*
X220880952Y-134066666D02*
X220880952Y-134295238D01*
X220880952Y-134180952D02*
X220480952Y-134180952D01*
X220538095Y-134219047D01*
X220576190Y-134257142D01*
X220595238Y-134295238D01*
D11*
%TO.C,K7*%
X95261904Y-92452380D02*
X95261904Y-91452380D01*
X95833333Y-92452380D02*
X95404761Y-91880952D01*
X95833333Y-91452380D02*
X95261904Y-92023809D01*
X96166666Y-91452380D02*
X96833333Y-91452380D01*
X96404761Y-92452380D01*
%TO.C,SW2*%
X213710644Y-111727306D02*
X213693428Y-111577709D01*
X213592804Y-111361921D01*
X213509398Y-111295731D01*
X213446115Y-111272698D01*
X213339676Y-111269790D01*
X213253361Y-111310039D01*
X213187170Y-111393446D01*
X213164137Y-111456728D01*
X213161229Y-111563168D01*
X213198571Y-111755923D01*
X213195662Y-111862363D01*
X213172630Y-111925645D01*
X213106439Y-112009052D01*
X213020124Y-112049301D01*
X212913684Y-112046393D01*
X212850402Y-112023360D01*
X212766995Y-111957170D01*
X212666372Y-111741382D01*
X212649155Y-111591785D01*
X212465125Y-111309807D02*
X213270810Y-110671401D01*
X212542948Y-110800641D01*
X213109812Y-110326141D01*
X212102881Y-110532972D01*
X212048323Y-110190620D02*
X211985041Y-110167587D01*
X211901634Y-110101397D01*
X211801011Y-109885609D01*
X211803919Y-109779169D01*
X211826952Y-109715887D01*
X211893142Y-109632480D01*
X211979457Y-109592231D01*
X212129054Y-109575014D01*
X212888441Y-109851408D01*
X212626820Y-109290361D01*
%TO.C,H3*%
X147598095Y-105202380D02*
X147598095Y-104202380D01*
X147598095Y-104678571D02*
X148169523Y-104678571D01*
X148169523Y-105202380D02*
X148169523Y-104202380D01*
X148550476Y-104202380D02*
X149169523Y-104202380D01*
X148836190Y-104583333D01*
X148979047Y-104583333D01*
X149074285Y-104630952D01*
X149121904Y-104678571D01*
X149169523Y-104773809D01*
X149169523Y-105011904D01*
X149121904Y-105107142D01*
X149074285Y-105154761D01*
X148979047Y-105202380D01*
X148693333Y-105202380D01*
X148598095Y-105154761D01*
X148550476Y-105107142D01*
X142612380Y-105162380D02*
X142136190Y-105162380D01*
X142136190Y-104162380D01*
X143088571Y-105162380D02*
X142993333Y-105114761D01*
X142945714Y-105067142D01*
X142898095Y-104971904D01*
X142898095Y-104686190D01*
X142945714Y-104590952D01*
X142993333Y-104543333D01*
X143088571Y-104495714D01*
X143231428Y-104495714D01*
X143326666Y-104543333D01*
X143374285Y-104590952D01*
X143421904Y-104686190D01*
X143421904Y-104971904D01*
X143374285Y-105067142D01*
X143326666Y-105114761D01*
X143231428Y-105162380D01*
X143088571Y-105162380D01*
X144279047Y-104495714D02*
X144279047Y-105305238D01*
X144231428Y-105400476D01*
X144183809Y-105448095D01*
X144088571Y-105495714D01*
X143945714Y-105495714D01*
X143850476Y-105448095D01*
X144279047Y-105114761D02*
X144183809Y-105162380D01*
X143993333Y-105162380D01*
X143898095Y-105114761D01*
X143850476Y-105067142D01*
X143802857Y-104971904D01*
X143802857Y-104686190D01*
X143850476Y-104590952D01*
X143898095Y-104543333D01*
X143993333Y-104495714D01*
X144183809Y-104495714D01*
X144279047Y-104543333D01*
X144898095Y-105162380D02*
X144802857Y-105114761D01*
X144755238Y-105067142D01*
X144707619Y-104971904D01*
X144707619Y-104686190D01*
X144755238Y-104590952D01*
X144802857Y-104543333D01*
X144898095Y-104495714D01*
X145040952Y-104495714D01*
X145136190Y-104543333D01*
X145183809Y-104590952D01*
X145231428Y-104686190D01*
X145231428Y-104971904D01*
X145183809Y-105067142D01*
X145136190Y-105114761D01*
X145040952Y-105162380D01*
X144898095Y-105162380D01*
%TO.C,H4*%
X122238095Y-75752380D02*
X122238095Y-74752380D01*
X122238095Y-75228571D02*
X122809523Y-75228571D01*
X122809523Y-75752380D02*
X122809523Y-74752380D01*
X123714285Y-75085714D02*
X123714285Y-75752380D01*
X123476190Y-74704761D02*
X123238095Y-75419047D01*
X123857142Y-75419047D01*
X119357142Y-82152380D02*
X119357142Y-81152380D01*
X119690476Y-81866666D01*
X120023809Y-81152380D01*
X120023809Y-82152380D01*
X120642857Y-82152380D02*
X120547619Y-82104761D01*
X120500000Y-82057142D01*
X120452380Y-81961904D01*
X120452380Y-81676190D01*
X120500000Y-81580952D01*
X120547619Y-81533333D01*
X120642857Y-81485714D01*
X120785714Y-81485714D01*
X120880952Y-81533333D01*
X120928571Y-81580952D01*
X120976190Y-81676190D01*
X120976190Y-81961904D01*
X120928571Y-82057142D01*
X120880952Y-82104761D01*
X120785714Y-82152380D01*
X120642857Y-82152380D01*
X121833333Y-81485714D02*
X121833333Y-82152380D01*
X121404761Y-81485714D02*
X121404761Y-82009523D01*
X121452380Y-82104761D01*
X121547619Y-82152380D01*
X121690476Y-82152380D01*
X121785714Y-82104761D01*
X121833333Y-82057142D01*
X122309523Y-81485714D02*
X122309523Y-82152380D01*
X122309523Y-81580952D02*
X122357142Y-81533333D01*
X122452380Y-81485714D01*
X122595238Y-81485714D01*
X122690476Y-81533333D01*
X122738095Y-81628571D01*
X122738095Y-82152380D01*
X123071428Y-81485714D02*
X123452380Y-81485714D01*
X123214285Y-81152380D02*
X123214285Y-82009523D01*
X123261904Y-82104761D01*
X123357142Y-82152380D01*
X123452380Y-82152380D01*
X123785714Y-82152380D02*
X123785714Y-81152380D01*
X123785714Y-81628571D02*
X124357142Y-81628571D01*
X124357142Y-82152380D02*
X124357142Y-81152380D01*
X124976190Y-82152380D02*
X124880952Y-82104761D01*
X124833333Y-82057142D01*
X124785714Y-81961904D01*
X124785714Y-81676190D01*
X124833333Y-81580952D01*
X124880952Y-81533333D01*
X124976190Y-81485714D01*
X125119047Y-81485714D01*
X125214285Y-81533333D01*
X125261904Y-81580952D01*
X125309523Y-81676190D01*
X125309523Y-81961904D01*
X125261904Y-82057142D01*
X125214285Y-82104761D01*
X125119047Y-82152380D01*
X124976190Y-82152380D01*
X125880952Y-82152380D02*
X125785714Y-82104761D01*
X125738095Y-82009523D01*
X125738095Y-81152380D01*
X126642857Y-82104761D02*
X126547619Y-82152380D01*
X126357142Y-82152380D01*
X126261904Y-82104761D01*
X126214285Y-82009523D01*
X126214285Y-81628571D01*
X126261904Y-81533333D01*
X126357142Y-81485714D01*
X126547619Y-81485714D01*
X126642857Y-81533333D01*
X126690476Y-81628571D01*
X126690476Y-81723809D01*
X126214285Y-81819047D01*
X122538095Y-78952380D02*
X122538095Y-77952380D01*
X122538095Y-78428571D02*
X123109523Y-78428571D01*
X123109523Y-78952380D02*
X123109523Y-77952380D01*
X124014285Y-78285714D02*
X124014285Y-78952380D01*
X123776190Y-77904761D02*
X123538095Y-78619047D01*
X124157142Y-78619047D01*
%TO.C,H5*%
X122238095Y-104752380D02*
X122238095Y-103752380D01*
X122238095Y-104228571D02*
X122809523Y-104228571D01*
X122809523Y-104752380D02*
X122809523Y-103752380D01*
X123761904Y-103752380D02*
X123285714Y-103752380D01*
X123238095Y-104228571D01*
X123285714Y-104180952D01*
X123380952Y-104133333D01*
X123619047Y-104133333D01*
X123714285Y-104180952D01*
X123761904Y-104228571D01*
X123809523Y-104323809D01*
X123809523Y-104561904D01*
X123761904Y-104657142D01*
X123714285Y-104704761D01*
X123619047Y-104752380D01*
X123380952Y-104752380D01*
X123285714Y-104704761D01*
X123238095Y-104657142D01*
X119357142Y-111152380D02*
X119357142Y-110152380D01*
X119690476Y-110866666D01*
X120023809Y-110152380D01*
X120023809Y-111152380D01*
X120642857Y-111152380D02*
X120547619Y-111104761D01*
X120500000Y-111057142D01*
X120452380Y-110961904D01*
X120452380Y-110676190D01*
X120500000Y-110580952D01*
X120547619Y-110533333D01*
X120642857Y-110485714D01*
X120785714Y-110485714D01*
X120880952Y-110533333D01*
X120928571Y-110580952D01*
X120976190Y-110676190D01*
X120976190Y-110961904D01*
X120928571Y-111057142D01*
X120880952Y-111104761D01*
X120785714Y-111152380D01*
X120642857Y-111152380D01*
X121833333Y-110485714D02*
X121833333Y-111152380D01*
X121404761Y-110485714D02*
X121404761Y-111009523D01*
X121452380Y-111104761D01*
X121547619Y-111152380D01*
X121690476Y-111152380D01*
X121785714Y-111104761D01*
X121833333Y-111057142D01*
X122309523Y-110485714D02*
X122309523Y-111152380D01*
X122309523Y-110580952D02*
X122357142Y-110533333D01*
X122452380Y-110485714D01*
X122595238Y-110485714D01*
X122690476Y-110533333D01*
X122738095Y-110628571D01*
X122738095Y-111152380D01*
X123071428Y-110485714D02*
X123452380Y-110485714D01*
X123214285Y-110152380D02*
X123214285Y-111009523D01*
X123261904Y-111104761D01*
X123357142Y-111152380D01*
X123452380Y-111152380D01*
X123785714Y-111152380D02*
X123785714Y-110152380D01*
X123785714Y-110628571D02*
X124357142Y-110628571D01*
X124357142Y-111152380D02*
X124357142Y-110152380D01*
X124976190Y-111152380D02*
X124880952Y-111104761D01*
X124833333Y-111057142D01*
X124785714Y-110961904D01*
X124785714Y-110676190D01*
X124833333Y-110580952D01*
X124880952Y-110533333D01*
X124976190Y-110485714D01*
X125119047Y-110485714D01*
X125214285Y-110533333D01*
X125261904Y-110580952D01*
X125309523Y-110676190D01*
X125309523Y-110961904D01*
X125261904Y-111057142D01*
X125214285Y-111104761D01*
X125119047Y-111152380D01*
X124976190Y-111152380D01*
X125880952Y-111152380D02*
X125785714Y-111104761D01*
X125738095Y-111009523D01*
X125738095Y-110152380D01*
X126642857Y-111104761D02*
X126547619Y-111152380D01*
X126357142Y-111152380D01*
X126261904Y-111104761D01*
X126214285Y-111009523D01*
X126214285Y-110628571D01*
X126261904Y-110533333D01*
X126357142Y-110485714D01*
X126547619Y-110485714D01*
X126642857Y-110533333D01*
X126690476Y-110628571D01*
X126690476Y-110723809D01*
X126214285Y-110819047D01*
X122538095Y-107952380D02*
X122538095Y-106952380D01*
X122538095Y-107428571D02*
X123109523Y-107428571D01*
X123109523Y-107952380D02*
X123109523Y-106952380D01*
X124061904Y-106952380D02*
X123585714Y-106952380D01*
X123538095Y-107428571D01*
X123585714Y-107380952D01*
X123680952Y-107333333D01*
X123919047Y-107333333D01*
X124014285Y-107380952D01*
X124061904Y-107428571D01*
X124109523Y-107523809D01*
X124109523Y-107761904D01*
X124061904Y-107857142D01*
X124014285Y-107904761D01*
X123919047Y-107952380D01*
X123680952Y-107952380D01*
X123585714Y-107904761D01*
X123538095Y-107857142D01*
%TO.C,H6*%
X176238095Y-105252380D02*
X176238095Y-104252380D01*
X176238095Y-104728571D02*
X176809523Y-104728571D01*
X176809523Y-105252380D02*
X176809523Y-104252380D01*
X177714285Y-104252380D02*
X177523809Y-104252380D01*
X177428571Y-104300000D01*
X177380952Y-104347619D01*
X177285714Y-104490476D01*
X177238095Y-104680952D01*
X177238095Y-105061904D01*
X177285714Y-105157142D01*
X177333333Y-105204761D01*
X177428571Y-105252380D01*
X177619047Y-105252380D01*
X177714285Y-105204761D01*
X177761904Y-105157142D01*
X177809523Y-105061904D01*
X177809523Y-104823809D01*
X177761904Y-104728571D01*
X177714285Y-104680952D01*
X177619047Y-104633333D01*
X177428571Y-104633333D01*
X177333333Y-104680952D01*
X177285714Y-104728571D01*
X177238095Y-104823809D01*
X173357142Y-111652380D02*
X173357142Y-110652380D01*
X173690476Y-111366666D01*
X174023809Y-110652380D01*
X174023809Y-111652380D01*
X174642857Y-111652380D02*
X174547619Y-111604761D01*
X174500000Y-111557142D01*
X174452380Y-111461904D01*
X174452380Y-111176190D01*
X174500000Y-111080952D01*
X174547619Y-111033333D01*
X174642857Y-110985714D01*
X174785714Y-110985714D01*
X174880952Y-111033333D01*
X174928571Y-111080952D01*
X174976190Y-111176190D01*
X174976190Y-111461904D01*
X174928571Y-111557142D01*
X174880952Y-111604761D01*
X174785714Y-111652380D01*
X174642857Y-111652380D01*
X175833333Y-110985714D02*
X175833333Y-111652380D01*
X175404761Y-110985714D02*
X175404761Y-111509523D01*
X175452380Y-111604761D01*
X175547619Y-111652380D01*
X175690476Y-111652380D01*
X175785714Y-111604761D01*
X175833333Y-111557142D01*
X176309523Y-110985714D02*
X176309523Y-111652380D01*
X176309523Y-111080952D02*
X176357142Y-111033333D01*
X176452380Y-110985714D01*
X176595238Y-110985714D01*
X176690476Y-111033333D01*
X176738095Y-111128571D01*
X176738095Y-111652380D01*
X177071428Y-110985714D02*
X177452380Y-110985714D01*
X177214285Y-110652380D02*
X177214285Y-111509523D01*
X177261904Y-111604761D01*
X177357142Y-111652380D01*
X177452380Y-111652380D01*
X177785714Y-111652380D02*
X177785714Y-110652380D01*
X177785714Y-111128571D02*
X178357142Y-111128571D01*
X178357142Y-111652380D02*
X178357142Y-110652380D01*
X178976190Y-111652380D02*
X178880952Y-111604761D01*
X178833333Y-111557142D01*
X178785714Y-111461904D01*
X178785714Y-111176190D01*
X178833333Y-111080952D01*
X178880952Y-111033333D01*
X178976190Y-110985714D01*
X179119047Y-110985714D01*
X179214285Y-111033333D01*
X179261904Y-111080952D01*
X179309523Y-111176190D01*
X179309523Y-111461904D01*
X179261904Y-111557142D01*
X179214285Y-111604761D01*
X179119047Y-111652380D01*
X178976190Y-111652380D01*
X179880952Y-111652380D02*
X179785714Y-111604761D01*
X179738095Y-111509523D01*
X179738095Y-110652380D01*
X180642857Y-111604761D02*
X180547619Y-111652380D01*
X180357142Y-111652380D01*
X180261904Y-111604761D01*
X180214285Y-111509523D01*
X180214285Y-111128571D01*
X180261904Y-111033333D01*
X180357142Y-110985714D01*
X180547619Y-110985714D01*
X180642857Y-111033333D01*
X180690476Y-111128571D01*
X180690476Y-111223809D01*
X180214285Y-111319047D01*
X176538095Y-108452380D02*
X176538095Y-107452380D01*
X176538095Y-107928571D02*
X177109523Y-107928571D01*
X177109523Y-108452380D02*
X177109523Y-107452380D01*
X178014285Y-107452380D02*
X177823809Y-107452380D01*
X177728571Y-107500000D01*
X177680952Y-107547619D01*
X177585714Y-107690476D01*
X177538095Y-107880952D01*
X177538095Y-108261904D01*
X177585714Y-108357142D01*
X177633333Y-108404761D01*
X177728571Y-108452380D01*
X177919047Y-108452380D01*
X178014285Y-108404761D01*
X178061904Y-108357142D01*
X178109523Y-108261904D01*
X178109523Y-108023809D01*
X178061904Y-107928571D01*
X178014285Y-107880952D01*
X177919047Y-107833333D01*
X177728571Y-107833333D01*
X177633333Y-107880952D01*
X177585714Y-107928571D01*
X177538095Y-108023809D01*
%TO.C,H7*%
X176238095Y-62752380D02*
X176238095Y-61752380D01*
X176238095Y-62228571D02*
X176809523Y-62228571D01*
X176809523Y-62752380D02*
X176809523Y-61752380D01*
X177190476Y-61752380D02*
X177857142Y-61752380D01*
X177428571Y-62752380D01*
X173357142Y-69152380D02*
X173357142Y-68152380D01*
X173690476Y-68866666D01*
X174023809Y-68152380D01*
X174023809Y-69152380D01*
X174642857Y-69152380D02*
X174547619Y-69104761D01*
X174500000Y-69057142D01*
X174452380Y-68961904D01*
X174452380Y-68676190D01*
X174500000Y-68580952D01*
X174547619Y-68533333D01*
X174642857Y-68485714D01*
X174785714Y-68485714D01*
X174880952Y-68533333D01*
X174928571Y-68580952D01*
X174976190Y-68676190D01*
X174976190Y-68961904D01*
X174928571Y-69057142D01*
X174880952Y-69104761D01*
X174785714Y-69152380D01*
X174642857Y-69152380D01*
X175833333Y-68485714D02*
X175833333Y-69152380D01*
X175404761Y-68485714D02*
X175404761Y-69009523D01*
X175452380Y-69104761D01*
X175547619Y-69152380D01*
X175690476Y-69152380D01*
X175785714Y-69104761D01*
X175833333Y-69057142D01*
X176309523Y-68485714D02*
X176309523Y-69152380D01*
X176309523Y-68580952D02*
X176357142Y-68533333D01*
X176452380Y-68485714D01*
X176595238Y-68485714D01*
X176690476Y-68533333D01*
X176738095Y-68628571D01*
X176738095Y-69152380D01*
X177071428Y-68485714D02*
X177452380Y-68485714D01*
X177214285Y-68152380D02*
X177214285Y-69009523D01*
X177261904Y-69104761D01*
X177357142Y-69152380D01*
X177452380Y-69152380D01*
X177785714Y-69152380D02*
X177785714Y-68152380D01*
X177785714Y-68628571D02*
X178357142Y-68628571D01*
X178357142Y-69152380D02*
X178357142Y-68152380D01*
X178976190Y-69152380D02*
X178880952Y-69104761D01*
X178833333Y-69057142D01*
X178785714Y-68961904D01*
X178785714Y-68676190D01*
X178833333Y-68580952D01*
X178880952Y-68533333D01*
X178976190Y-68485714D01*
X179119047Y-68485714D01*
X179214285Y-68533333D01*
X179261904Y-68580952D01*
X179309523Y-68676190D01*
X179309523Y-68961904D01*
X179261904Y-69057142D01*
X179214285Y-69104761D01*
X179119047Y-69152380D01*
X178976190Y-69152380D01*
X179880952Y-69152380D02*
X179785714Y-69104761D01*
X179738095Y-69009523D01*
X179738095Y-68152380D01*
X180642857Y-69104761D02*
X180547619Y-69152380D01*
X180357142Y-69152380D01*
X180261904Y-69104761D01*
X180214285Y-69009523D01*
X180214285Y-68628571D01*
X180261904Y-68533333D01*
X180357142Y-68485714D01*
X180547619Y-68485714D01*
X180642857Y-68533333D01*
X180690476Y-68628571D01*
X180690476Y-68723809D01*
X180214285Y-68819047D01*
X176538095Y-65952380D02*
X176538095Y-64952380D01*
X176538095Y-65428571D02*
X177109523Y-65428571D01*
X177109523Y-65952380D02*
X177109523Y-64952380D01*
X177490476Y-64952380D02*
X178157142Y-64952380D01*
X177728571Y-65952380D01*
D14*
%TO.C,R1*%
X218477380Y-91596666D02*
X218001190Y-91930000D01*
X218477380Y-92168095D02*
X217477380Y-92168095D01*
X217477380Y-91787142D01*
X217525000Y-91691904D01*
X217572619Y-91644285D01*
X217667857Y-91596666D01*
X217810714Y-91596666D01*
X217905952Y-91644285D01*
X217953571Y-91691904D01*
X218001190Y-91787142D01*
X218001190Y-92168095D01*
X218477380Y-90644285D02*
X218477380Y-91215714D01*
X218477380Y-90930000D02*
X217477380Y-90930000D01*
X217620238Y-91025238D01*
X217715476Y-91120476D01*
X217763095Y-91215714D01*
D15*
X217071190Y-94203333D02*
X216833095Y-94370000D01*
X217071190Y-94489047D02*
X216571190Y-94489047D01*
X216571190Y-94298571D01*
X216595000Y-94250952D01*
X216618809Y-94227142D01*
X216666428Y-94203333D01*
X216737857Y-94203333D01*
X216785476Y-94227142D01*
X216809285Y-94250952D01*
X216833095Y-94298571D01*
X216833095Y-94489047D01*
X217071190Y-93727142D02*
X217071190Y-94012857D01*
X217071190Y-93870000D02*
X216571190Y-93870000D01*
X216642619Y-93917619D01*
X216690238Y-93965238D01*
X216714047Y-94012857D01*
D11*
%TO.C,J3*%
X200700000Y-65948142D02*
X200700000Y-66591000D01*
X200671428Y-66719571D01*
X200614285Y-66805285D01*
X200528571Y-66848142D01*
X200471428Y-66848142D01*
X200928571Y-65948142D02*
X201300000Y-65948142D01*
X201100000Y-66291000D01*
X201185714Y-66291000D01*
X201242857Y-66333857D01*
X201271428Y-66376714D01*
X201300000Y-66462428D01*
X201300000Y-66676714D01*
X201271428Y-66762428D01*
X201242857Y-66805285D01*
X201185714Y-66848142D01*
X201014285Y-66848142D01*
X200957142Y-66805285D01*
X200928571Y-66762428D01*
%TO.C,J5*%
X199150000Y-100078142D02*
X199150000Y-100721000D01*
X199121428Y-100849571D01*
X199064285Y-100935285D01*
X198978571Y-100978142D01*
X198921428Y-100978142D01*
X199721428Y-100078142D02*
X199435714Y-100078142D01*
X199407142Y-100506714D01*
X199435714Y-100463857D01*
X199492857Y-100421000D01*
X199635714Y-100421000D01*
X199692857Y-100463857D01*
X199721428Y-100506714D01*
X199750000Y-100592428D01*
X199750000Y-100806714D01*
X199721428Y-100892428D01*
X199692857Y-100935285D01*
X199635714Y-100978142D01*
X199492857Y-100978142D01*
X199435714Y-100935285D01*
X199407142Y-100892428D01*
%TO.C,J6*%
X211560000Y-96776142D02*
X211560000Y-97419000D01*
X211531428Y-97547571D01*
X211474285Y-97633285D01*
X211388571Y-97676142D01*
X211331428Y-97676142D01*
X212102857Y-96776142D02*
X211988571Y-96776142D01*
X211931428Y-96819000D01*
X211902857Y-96861857D01*
X211845714Y-96990428D01*
X211817142Y-97161857D01*
X211817142Y-97504714D01*
X211845714Y-97590428D01*
X211874285Y-97633285D01*
X211931428Y-97676142D01*
X212045714Y-97676142D01*
X212102857Y-97633285D01*
X212131428Y-97590428D01*
X212160000Y-97504714D01*
X212160000Y-97290428D01*
X212131428Y-97204714D01*
X212102857Y-97161857D01*
X212045714Y-97119000D01*
X211931428Y-97119000D01*
X211874285Y-97161857D01*
X211845714Y-97204714D01*
X211817142Y-97290428D01*
%TO.C,U1*%
X213620000Y-97322000D02*
X195840000Y-97322000D01*
X214935000Y-63032000D02*
X214935000Y-96052000D01*
X195840000Y-97322000D02*
X195840000Y-64302000D01*
X197155000Y-63032000D02*
X214935000Y-63032000D01*
X197155000Y-96052000D02*
X197155000Y-63032000D01*
X214935000Y-96052000D02*
X197155000Y-96052000D01*
X213620000Y-64302000D02*
X213620000Y-97322000D01*
X195840000Y-64302000D02*
X213620000Y-64302000D01*
D17*
%TO.C,H2*%
X219000000Y-117170000D02*
G75*
G03*
X219000000Y-117170000I-1250000J0D01*
G01*
%TO.C,K20*%
X126000000Y-115200000D02*
X138000000Y-115200000D01*
X137000000Y-126800000D02*
X126000000Y-126800000D01*
X138000000Y-125700000D02*
X137000000Y-126800000D01*
X138000000Y-115200000D02*
X138000000Y-125700000D01*
X126000000Y-126800000D02*
X126000000Y-115200000D01*
D12*
%TO.C,D7*%
X113050000Y-78000000D02*
X112480000Y-77450000D01*
X112480000Y-76600000D02*
X115520000Y-76600000D01*
X112480000Y-77450000D02*
X112480000Y-76600000D01*
X115520000Y-78000000D02*
X115520000Y-76600000D01*
X113800000Y-78500000D02*
X114200000Y-78500000D01*
X114000000Y-78200000D02*
X113800000Y-78500000D01*
X113800000Y-78200000D02*
X114200000Y-78200000D01*
X113050000Y-78000000D02*
X115500000Y-78000000D01*
X114000000Y-78500000D02*
X114000000Y-78750000D01*
X114200000Y-78500000D02*
X114000000Y-78200000D01*
X114000000Y-78200000D02*
X114000000Y-77950000D01*
%TO.C,D13*%
X112480000Y-111450000D02*
X112480000Y-110600000D01*
X113050000Y-112000000D02*
X115500000Y-112000000D01*
X112480000Y-110600000D02*
X115520000Y-110600000D01*
X113800000Y-112500000D02*
X114200000Y-112500000D01*
X115520000Y-112000000D02*
X115520000Y-110600000D01*
X113050000Y-112000000D02*
X112480000Y-111450000D01*
X114200000Y-112500000D02*
X114000000Y-112200000D01*
X114000000Y-112200000D02*
X114000000Y-111950000D01*
X114000000Y-112200000D02*
X113800000Y-112500000D01*
X113800000Y-112200000D02*
X114200000Y-112200000D01*
X114000000Y-112500000D02*
X114000000Y-112750000D01*
%TO.C,D8*%
X132000000Y-66500000D02*
X132000000Y-66750000D01*
X132000000Y-66200000D02*
X132000000Y-65950000D01*
X131050000Y-66000000D02*
X133500000Y-66000000D01*
X132000000Y-66200000D02*
X131800000Y-66500000D01*
X130480000Y-65450000D02*
X130480000Y-64600000D01*
X131800000Y-66200000D02*
X132200000Y-66200000D01*
X132200000Y-66500000D02*
X132000000Y-66200000D01*
X133520000Y-66000000D02*
X133520000Y-64600000D01*
X131800000Y-66500000D02*
X132200000Y-66500000D01*
X131050000Y-66000000D02*
X130480000Y-65450000D01*
X130480000Y-64600000D02*
X133520000Y-64600000D01*
%TO.C,D10*%
X114000000Y-95500000D02*
X114000000Y-95750000D01*
X112480000Y-94450000D02*
X112480000Y-93600000D01*
X113050000Y-95000000D02*
X115500000Y-95000000D01*
X112480000Y-93600000D02*
X115520000Y-93600000D01*
X113050000Y-95000000D02*
X112480000Y-94450000D01*
X113800000Y-95200000D02*
X114200000Y-95200000D01*
X114000000Y-95200000D02*
X113800000Y-95500000D01*
X115520000Y-95000000D02*
X115520000Y-93600000D01*
X113800000Y-95500000D02*
X114200000Y-95500000D01*
X114200000Y-95500000D02*
X114000000Y-95200000D01*
X114000000Y-95200000D02*
X114000000Y-94950000D01*
%TO.C,D11*%
X131800000Y-83500000D02*
X132200000Y-83500000D01*
X132200000Y-83500000D02*
X132000000Y-83200000D01*
X132000000Y-83500000D02*
X132000000Y-83750000D01*
X132000000Y-83200000D02*
X132000000Y-82950000D01*
X132000000Y-83200000D02*
X131800000Y-83500000D01*
X130480000Y-82450000D02*
X130480000Y-81600000D01*
X131800000Y-83200000D02*
X132200000Y-83200000D01*
X131050000Y-83000000D02*
X130480000Y-82450000D01*
X131050000Y-83000000D02*
X133500000Y-83000000D01*
X133520000Y-83000000D02*
X133520000Y-81600000D01*
X130480000Y-81600000D02*
X133520000Y-81600000D01*
%TO.C,D14*%
X131050000Y-100000000D02*
X133500000Y-100000000D01*
X130480000Y-99450000D02*
X130480000Y-98600000D01*
X131050000Y-100000000D02*
X130480000Y-99450000D01*
X131800000Y-100200000D02*
X132200000Y-100200000D01*
X133520000Y-100000000D02*
X133520000Y-98600000D01*
X131800000Y-100500000D02*
X132200000Y-100500000D01*
X132000000Y-100200000D02*
X131800000Y-100500000D01*
X132000000Y-100500000D02*
X132000000Y-100750000D01*
X132200000Y-100500000D02*
X132000000Y-100200000D01*
X132000000Y-100200000D02*
X132000000Y-99950000D01*
X130480000Y-98600000D02*
X133520000Y-98600000D01*
%TO.C,D9*%
X166480000Y-63100000D02*
X169520000Y-63100000D01*
X168000000Y-64700000D02*
X168000000Y-64450000D01*
X167050000Y-64500000D02*
X166480000Y-63950000D01*
X167800000Y-65000000D02*
X168200000Y-65000000D01*
X168000000Y-64700000D02*
X167800000Y-65000000D01*
X167800000Y-64700000D02*
X168200000Y-64700000D01*
X166480000Y-63950000D02*
X166480000Y-63100000D01*
X168000000Y-65000000D02*
X168000000Y-65250000D01*
X167050000Y-64500000D02*
X169500000Y-64500000D01*
X169520000Y-64500000D02*
X169520000Y-63100000D01*
X168200000Y-65000000D02*
X168000000Y-64700000D01*
%TO.C,D12*%
X168000000Y-81700000D02*
X168000000Y-81450000D01*
X168000000Y-82000000D02*
X168000000Y-82250000D01*
X168000000Y-81700000D02*
X167800000Y-82000000D01*
X167050000Y-81500000D02*
X166480000Y-80950000D01*
X166480000Y-80100000D02*
X169520000Y-80100000D01*
X167800000Y-81700000D02*
X168200000Y-81700000D01*
X169520000Y-81500000D02*
X169520000Y-80100000D01*
X167050000Y-81500000D02*
X169500000Y-81500000D01*
X168200000Y-82000000D02*
X168000000Y-81700000D01*
X166480000Y-80950000D02*
X166480000Y-80100000D01*
X167800000Y-82000000D02*
X168200000Y-82000000D01*
%TO.C,D15*%
X166480000Y-97950000D02*
X166480000Y-97100000D01*
X168000000Y-99000000D02*
X168000000Y-99250000D01*
X167050000Y-98500000D02*
X169500000Y-98500000D01*
X167800000Y-99000000D02*
X168200000Y-99000000D01*
X169520000Y-98500000D02*
X169520000Y-97100000D01*
X166480000Y-97100000D02*
X169520000Y-97100000D01*
X167050000Y-98500000D02*
X166480000Y-97950000D01*
X168200000Y-99000000D02*
X168000000Y-98700000D01*
X168000000Y-98700000D02*
X168000000Y-98450000D01*
X167800000Y-98700000D02*
X168200000Y-98700000D01*
X168000000Y-98700000D02*
X167800000Y-99000000D01*
%TO.C,D17*%
X175389783Y-128033864D02*
X175776153Y-128137392D01*
X175582968Y-128085628D02*
X175518263Y-128327109D01*
X177180585Y-127996070D02*
X177542932Y-126643774D01*
X175776153Y-128137392D02*
X175660614Y-127795850D01*
X174606517Y-125856964D02*
X177542932Y-126643774D01*
X174794748Y-127356787D02*
X174386521Y-126678001D01*
X175660614Y-127795850D02*
X175389783Y-128033864D01*
X174386521Y-126678001D02*
X174606517Y-125856964D01*
X174794748Y-127356787D02*
X177161266Y-127990894D01*
X175660614Y-127795850D02*
X175725319Y-127554369D01*
X175467429Y-127744086D02*
X175853799Y-127847614D01*
%TO.C,D18*%
X208396774Y-147084427D02*
X209386723Y-146094478D01*
X206968418Y-146363178D02*
X206791641Y-146539955D01*
X206650220Y-145337873D02*
X206636078Y-144545914D01*
X206826997Y-146221757D02*
X207109839Y-146504599D01*
X206636078Y-144545914D02*
X207237118Y-143944873D01*
X207237118Y-143944873D02*
X209386723Y-146094478D01*
X207180550Y-146151046D02*
X207357327Y-145974269D01*
X207109839Y-146504599D02*
X207180550Y-146151046D01*
X207039129Y-146009625D02*
X207321971Y-146292467D01*
X206650220Y-145337873D02*
X208382631Y-147070285D01*
X207180550Y-146151046D02*
X206826997Y-146221757D01*
%TO.C,D16*%
X156550000Y-124900000D02*
X155980000Y-124350000D01*
X156550000Y-124900000D02*
X159000000Y-124900000D01*
X157300000Y-125100000D02*
X157700000Y-125100000D01*
X157500000Y-125100000D02*
X157300000Y-125400000D01*
X159020000Y-124900000D02*
X159020000Y-123500000D01*
X157500000Y-125400000D02*
X157500000Y-125650000D01*
X155980000Y-124350000D02*
X155980000Y-123500000D01*
X157700000Y-125400000D02*
X157500000Y-125100000D01*
X157500000Y-125100000D02*
X157500000Y-124850000D01*
X157300000Y-125400000D02*
X157700000Y-125400000D01*
X155980000Y-123500000D02*
X159020000Y-123500000D01*
%TO.C,R2*%
X217495000Y-87020000D02*
X217495000Y-89020000D01*
X217495000Y-89020000D02*
X216245000Y-89020000D01*
X216245000Y-89020000D02*
X216245000Y-87020000D01*
X216245000Y-87020000D02*
X217495000Y-87020000D01*
%TO.C,J1*%
X205120000Y-103497500D02*
X205120000Y-100957500D01*
X205120000Y-100957500D02*
X217185000Y-100957500D01*
X217185000Y-100957500D02*
X217820000Y-101592500D01*
X217820000Y-103497500D02*
X205120000Y-103497500D01*
X217820000Y-101592500D02*
X217820000Y-103497500D01*
%TO.C,C1*%
X204500000Y-64095000D02*
X206500000Y-64095000D01*
X206500000Y-65345000D02*
X204500000Y-65345000D01*
X204500000Y-65345000D02*
X204500000Y-64095000D01*
X206500000Y-64095000D02*
X206500000Y-65345000D01*
%TO.C,SW1*%
X219300000Y-132000000D02*
X222100000Y-132000000D01*
X219300000Y-137200000D02*
X218100000Y-136000000D01*
X219750000Y-132735000D02*
X221650000Y-132735000D01*
X222565000Y-133650000D02*
X221650000Y-132735000D01*
X223300000Y-136000000D02*
X222100000Y-137200000D01*
X222565000Y-135550000D02*
X221650000Y-136465000D01*
X222100000Y-137200000D02*
X219300000Y-137200000D01*
X222565000Y-133650000D02*
X222565000Y-135550000D01*
X218100000Y-136000000D02*
X218100000Y-133200000D01*
X221650000Y-136465000D02*
X219750000Y-136465000D01*
X218835000Y-135550000D02*
X219750000Y-136465000D01*
X218100000Y-133200000D02*
X219300000Y-132000000D01*
X222100000Y-132000000D02*
X223300000Y-133200000D01*
X218835000Y-133650000D02*
X219750000Y-132735000D01*
X223300000Y-133200000D02*
X223300000Y-136000000D01*
X218835000Y-135550000D02*
X218835000Y-133650000D01*
X221700000Y-134600000D02*
G75*
G03*
X221700000Y-134600000I-1000000J0D01*
G01*
%TO.C,R1*%
X216220000Y-93120000D02*
X217470000Y-93120000D01*
X216220000Y-95120000D02*
X216220000Y-93120000D01*
X217470000Y-95120000D02*
X216220000Y-95120000D01*
X217470000Y-93120000D02*
X217470000Y-95120000D01*
%TD*%
M02*
