%TF.GenerationSoftware,KiCad,Pcbnew,(5.1.10-1-10_14)*%
%TF.CreationDate,2021-11-02T17:36:35-07:00*%
%TF.ProjectId,hillside,68696c6c-7369-4646-952e-6b696361645f,0.1.0*%
%TF.SameCoordinates,Original*%
%TF.FileFunction,Profile,NP*%
%FSLAX46Y46*%
G04 Gerber Fmt 4.6, Leading zero omitted, Abs format (unit mm)*
G04 Created by KiCad (PCBNEW (5.1.10-1-10_14)) date 2021-11-02 17:36:35*
%MOMM*%
%LPD*%
G01*
G04 APERTURE LIST*
%TA.AperFunction,Profile*%
%ADD10C,0.050000*%
%TD*%
%TA.AperFunction,Profile*%
%ADD11C,0.120000*%
%TD*%
G04 APERTURE END LIST*
D10*
X108500000Y-79000000D02*
X108500000Y-78500000D01*
X108500000Y-124500000D02*
X108500000Y-124000000D01*
X109500000Y-124000000D02*
X109500000Y-124500000D01*
X225670818Y-146012786D02*
G75*
G03*
X228050000Y-140300000I-5706352J5728320D01*
G01*
X205990001Y-68312096D02*
G75*
G02*
X200140000Y-66690000I-21937J11280792D01*
G01*
X145098696Y-57759067D02*
G75*
G02*
X147010000Y-57500000I1911304J-6920933D01*
G01*
X227690000Y-119370000D02*
G75*
G02*
X228046399Y-121976237I-9643600J-2646236D01*
G01*
X225350000Y-110616237D02*
G75*
G02*
X224993601Y-108010000I9643600J2646236D01*
G01*
X225350000Y-110616237D02*
X227690000Y-119370000D01*
X219500000Y-70310000D02*
X219500000Y-71470000D01*
X220964466Y-75005534D02*
X223530000Y-77570000D01*
X220964466Y-75005534D02*
G75*
G02*
X219500000Y-71470000I3535534J3535534D01*
G01*
X224994466Y-81105534D02*
G75*
G03*
X223530000Y-77570000I-5000000J0D01*
G01*
X109500000Y-104000000D02*
X109500000Y-119000000D01*
X108500000Y-104000000D02*
G75*
G02*
X109500000Y-104000000I500000J0D01*
G01*
X224993601Y-108010000D02*
X224994466Y-81105534D01*
X142530000Y-131500000D02*
X161150000Y-130208120D01*
X93500000Y-126500000D02*
G75*
G02*
X91500000Y-124500000I0J2000000D01*
G01*
X161150000Y-130208120D02*
G75*
G02*
X209500000Y-150250000I0J-68341880D01*
G01*
X123395534Y-127964466D02*
G75*
G03*
X119860000Y-126500000I-3535534J-3535534D01*
G01*
X129000000Y-131500000D02*
G75*
G02*
X125464466Y-130035534I0J5000000D01*
G01*
X108500000Y-124000000D02*
G75*
G02*
X109500000Y-124000000I500000J0D01*
G01*
X217500000Y-68310000D02*
G75*
G02*
X219500000Y-70310000I0J-2000000D01*
G01*
X109504685Y-78000000D02*
X109500000Y-79000000D01*
X109504685Y-78000000D02*
G75*
G02*
X109951493Y-76741665I1995315J0D01*
G01*
X106500000Y-76500000D02*
G75*
G02*
X108500000Y-78500000I0J-2000000D01*
G01*
X109500000Y-99000000D02*
G75*
G02*
X108500000Y-99000000I-500000J0D01*
G01*
X108500000Y-84000000D02*
G75*
G02*
X109500000Y-84000000I500000J0D01*
G01*
X109500000Y-79000000D02*
G75*
G02*
X108500000Y-79000000I-500000J0D01*
G01*
X109500000Y-119000000D02*
G75*
G02*
X108500000Y-119000000I-500000J0D01*
G01*
X108500000Y-124500000D02*
G75*
G02*
X106500000Y-126500000I-2000000J0D01*
G01*
X91500000Y-78500000D02*
G75*
G02*
X93500000Y-76500000I2000000J0D01*
G01*
X91500000Y-78500000D02*
X91500000Y-124500000D01*
X106500000Y-126500000D02*
X93500000Y-126500000D01*
X228050000Y-140300000D02*
X228046399Y-121976237D01*
X129000000Y-131500000D02*
X142530000Y-131500000D01*
X216919912Y-154766577D02*
G75*
G02*
X214074674Y-154801133I-1439912J1406577D01*
G01*
X225670818Y-146012786D02*
X216919912Y-154766577D01*
X209500000Y-150250000D02*
X214074674Y-154801133D01*
X119860000Y-126500000D02*
X111500000Y-126500000D01*
X111500000Y-126500000D02*
G75*
G02*
X109500000Y-124500000I0J2000000D01*
G01*
X162000000Y-57499760D02*
X147010000Y-57500000D01*
X123395534Y-127964466D02*
X125464466Y-130035534D01*
X205990001Y-68312096D02*
X217500000Y-68310000D01*
X108500000Y-119000000D02*
X108500000Y-104000000D01*
X109500000Y-84000000D02*
X109500000Y-99000000D01*
X108500000Y-99000000D02*
X108500000Y-84000000D01*
X109951493Y-76741664D02*
G75*
G02*
X145098696Y-57759067I57035970J-63575196D01*
G01*
X162000000Y-57499760D02*
G75*
G02*
X200140000Y-66690000I0J-83736667D01*
G01*
X106500000Y-76500000D02*
X93500000Y-76500000D01*
D11*
%TO.C,D5*%
X133430000Y-113610000D02*
X133430000Y-116610000D01*
X132630000Y-116610000D02*
X130830000Y-116610000D01*
X130030000Y-116610000D02*
X130030000Y-113610000D01*
X130830000Y-113610000D02*
X132630000Y-113610000D01*
X132630000Y-113610000D02*
G75*
G02*
X133430000Y-113610000I400000J0D01*
G01*
X130030000Y-113610000D02*
G75*
G02*
X130830000Y-113610000I400000J0D01*
G01*
X130830000Y-116610000D02*
G75*
G02*
X130030000Y-116610000I-400000J0D01*
G01*
X133430000Y-116610000D02*
G75*
G02*
X132630000Y-116610000I-400000J0D01*
G01*
%TO.C,D4*%
X163236067Y-112217196D02*
X163236067Y-115217196D01*
X162436067Y-115217196D02*
X160636067Y-115217196D01*
X159836067Y-115217196D02*
X159836067Y-112217196D01*
X160636067Y-112217196D02*
X162436067Y-112217196D01*
X162436067Y-112217196D02*
G75*
G02*
X163236067Y-112217196I400000J0D01*
G01*
X159836067Y-112217196D02*
G75*
G02*
X160636067Y-112217196I400000J0D01*
G01*
X160636067Y-115217196D02*
G75*
G02*
X159836067Y-115217196I-400000J0D01*
G01*
X163236067Y-115217196D02*
G75*
G02*
X162436067Y-115217196I-400000J0D01*
G01*
%TO.C,D3*%
X185333973Y-115743871D02*
X184557516Y-118641648D01*
X183784776Y-118434593D02*
X182046109Y-117968719D01*
X181273369Y-117761663D02*
X182049826Y-114863886D01*
X182822566Y-115070941D02*
X184561233Y-115536815D01*
X184561233Y-115536815D02*
G75*
G02*
X185333973Y-115743871I386370J-103528D01*
G01*
X182049826Y-114863887D02*
G75*
G02*
X182822566Y-115070941I386370J-103527D01*
G01*
X182046109Y-117968719D02*
G75*
G02*
X181273369Y-117761663I-386370J103528D01*
G01*
X184557516Y-118641647D02*
G75*
G02*
X183784776Y-118434593I-386370J103527D01*
G01*
%TO.C,D2*%
X205889406Y-124929841D02*
X204389406Y-127527917D01*
X203696586Y-127127917D02*
X202137740Y-126227917D01*
X201444920Y-125827917D02*
X202944920Y-123229841D01*
X203637740Y-123629841D02*
X205196586Y-124529841D01*
X205196586Y-124529841D02*
G75*
G02*
X205889406Y-124929841I346410J-200000D01*
G01*
X202944920Y-123229841D02*
G75*
G02*
X203637740Y-123629841I346410J-200000D01*
G01*
X202137740Y-126227917D02*
G75*
G02*
X201444920Y-125827917I-346410J200000D01*
G01*
X204389406Y-127527917D02*
G75*
G02*
X203696586Y-127127917I-346410J200000D01*
G01*
%TO.C,D1*%
X211323699Y-108443360D02*
X209823699Y-111041436D01*
X209130879Y-110641436D02*
X207572033Y-109741436D01*
X206879213Y-109341436D02*
X208379213Y-106743360D01*
X209072033Y-107143360D02*
X210630879Y-108043360D01*
X210630879Y-108043360D02*
G75*
G02*
X211323699Y-108443360I346410J-200000D01*
G01*
X208379213Y-106743360D02*
G75*
G02*
X209072033Y-107143360I346410J-200000D01*
G01*
X207572033Y-109741436D02*
G75*
G02*
X206879213Y-109341436I-346410J200000D01*
G01*
X209823699Y-111041436D02*
G75*
G02*
X209130879Y-110641436I-346410J200000D01*
G01*
%TD*%
M02*
