%TF.GenerationSoftware,KiCad,Pcbnew,(6.0.0-0)*%
%TF.CreationDate,2022-01-13T13:44:14-08:00*%
%TF.ProjectId,hillside,68696c6c-7369-4646-952e-6b696361645f,0.1.1-alpha*%
%TF.SameCoordinates,Original*%
%TF.FileFunction,Legend,Top*%
%TF.FilePolarity,Positive*%
%FSLAX46Y46*%
G04 Gerber Fmt 4.6, Leading zero omitted, Abs format (unit mm)*
G04 Created by KiCad (PCBNEW (6.0.0-0)) date 2022-01-13 13:44:14*
%MOMM*%
%LPD*%
G01*
G04 APERTURE LIST*
G04 Aperture macros list*
%AMRoundRect*
0 Rectangle with rounded corners*
0 $1 Rounding radius*
0 $2 $3 $4 $5 $6 $7 $8 $9 X,Y pos of 4 corners*
0 Add a 4 corners polygon primitive as box body*
4,1,4,$2,$3,$4,$5,$6,$7,$8,$9,$2,$3,0*
0 Add four circle primitives for the rounded corners*
1,1,$1+$1,$2,$3*
1,1,$1+$1,$4,$5*
1,1,$1+$1,$6,$7*
1,1,$1+$1,$8,$9*
0 Add four rect primitives between the rounded corners*
20,1,$1+$1,$2,$3,$4,$5,0*
20,1,$1+$1,$4,$5,$6,$7,0*
20,1,$1+$1,$6,$7,$8,$9,0*
20,1,$1+$1,$8,$9,$2,$3,0*%
%AMRotRect*
0 Rectangle, with rotation*
0 The origin of the aperture is its center*
0 $1 length*
0 $2 width*
0 $3 Rotation angle, in degrees counterclockwise*
0 Add horizontal line*
21,1,$1,$2,0,0,$3*%
%AMFreePoly0*
4,1,22,0.500000,-0.750000,0.000000,-0.750000,0.000000,-0.745033,-0.079941,-0.743568,-0.215256,-0.701293,-0.333266,-0.622738,-0.424486,-0.514219,-0.481581,-0.384460,-0.499164,-0.250000,-0.500000,-0.250000,-0.500000,0.250000,-0.499164,0.250000,-0.499963,0.256109,-0.478152,0.396186,-0.417904,0.524511,-0.324060,0.630769,-0.204165,0.706417,-0.067858,0.745374,0.000000,0.744959,0.000000,0.750000,
0.500000,0.750000,0.500000,-0.750000,0.500000,-0.750000,$1*%
%AMFreePoly1*
4,1,20,0.000000,0.744959,0.073905,0.744508,0.209726,0.703889,0.328688,0.626782,0.421226,0.519385,0.479903,0.390333,0.500000,0.250000,0.500000,-0.250000,0.499851,-0.262216,0.476331,-0.402017,0.414519,-0.529596,0.319384,-0.634700,0.198574,-0.708877,0.061801,-0.746166,0.000000,-0.745033,0.000000,-0.750000,-0.500000,-0.750000,-0.500000,0.750000,0.000000,0.750000,0.000000,0.744959,
0.000000,0.744959,$1*%
%AMFreePoly2*
4,1,41,0.142350,0.531259,0.275000,0.476314,0.388909,0.388909,0.476314,0.275000,0.531259,0.142350,0.533280,0.127000,3.200000,0.127000,3.236070,0.121770,3.296138,0.082984,3.325733,0.017894,3.315473,-0.052868,3.268611,-0.106872,3.200000,-0.127000,0.533280,-0.127000,0.531259,-0.142350,0.476314,-0.275000,0.388909,-0.388909,0.275000,-0.476314,0.142350,-0.531259,0.000000,-0.550000,
-0.142350,-0.531259,-0.275000,-0.476314,-0.388909,-0.388909,-0.476314,-0.275000,-0.531259,-0.142350,-0.533280,-0.127000,-3.200000,-0.127000,-3.236070,-0.121770,-3.296138,-0.082984,-3.325733,-0.017894,-3.315473,0.052868,-3.268611,0.106872,-3.200000,0.127000,-0.533280,0.127000,-0.531259,0.142350,-0.476314,0.275000,-0.388909,0.388909,-0.275000,0.476314,-0.142350,0.531259,0.000000,0.550000,
0.142350,0.531259,0.142350,0.531259,$1*%
%AMFreePoly3*
4,1,37,0.042529,3.485692,0.118849,3.448880,0.171655,3.382612,0.190499,3.300000,0.190499,0.776079,0.350697,0.719035,0.501283,0.623470,0.626955,0.496918,0.721466,0.345669,0.780119,0.177240,0.800000,0.000000,0.799688,-0.022336,0.774867,-0.198952,0.711533,-0.365678,0.612836,-0.514230,0.483680,-0.637224,0.330484,-0.728547,0.160862,-0.783660,-0.016754,-0.799825,-0.193538,-0.776237,
-0.360702,-0.714070,-0.509939,-0.616411,-0.633832,-0.488116,-0.726222,-0.335562,-0.782518,-0.166330,-0.799922,0.011170,-0.777569,0.188114,-0.716569,0.355708,-0.619956,0.505623,-0.492529,0.630409,-0.340623,0.723862,-0.190500,0.774968,-0.190500,3.300332,-0.171511,3.382912,-0.118589,3.449087,-0.042205,3.485766,0.042529,3.485692,0.042529,3.485692,$1*%
%AMFreePoly4*
4,1,79,3.247393,0.331548,3.510113,0.291931,3.767268,0.225126,4.016045,0.131863,4.016051,0.131862,4.047682,0.106662,4.085411,0.100994,4.095361,0.093067,4.340858,0.003117,4.607304,-0.059768,4.879345,-0.090460,5.153106,-0.088520,5.424685,-0.053977,5.690213,0.012679,5.934412,0.106098,5.944248,0.114165,6.009113,0.124852,6.070632,0.101675,6.112320,0.050843,6.123007,-0.014022,
6.099830,-0.075541,6.048998,-0.117229,5.801562,-0.214010,5.545380,-0.284453,5.283248,-0.327788,5.018026,-0.343544,4.752607,-0.331548,4.489887,-0.291931,4.232732,-0.225126,3.983955,-0.131863,3.983949,-0.131862,3.952318,-0.106662,3.914589,-0.100994,3.904639,-0.093067,3.659142,-0.003117,3.392696,0.059768,3.120655,0.090460,2.846894,0.088520,2.575315,0.053977,2.309787,-0.012679,
2.065588,-0.106098,2.055752,-0.114165,2.051975,-0.114787,2.048998,-0.117229,1.801562,-0.214010,1.545380,-0.284453,1.283248,-0.327788,1.018026,-0.343544,0.752607,-0.331548,0.489887,-0.291931,0.232732,-0.225126,-0.016045,-0.131863,-0.016051,-0.131862,-0.033380,-0.118056,-0.063500,-0.109985,-0.109985,-0.063500,-0.127000,0.000000,-0.109985,0.063500,-0.063500,0.109985,0.000000,0.127000,
0.063500,0.109985,0.070207,0.103278,0.085411,0.100994,0.095361,0.093067,0.340858,0.003117,0.607304,-0.059768,0.879345,-0.090460,1.153106,-0.088520,1.424685,-0.053977,1.690213,0.012679,1.934412,0.106098,1.944248,0.114165,1.948025,0.114787,1.951002,0.117229,2.198438,0.214010,2.454620,0.284453,2.716752,0.327788,2.981974,0.343544,3.247393,0.331548,3.247393,0.331548,
$1*%
%AMFreePoly5*
4,1,31,7.836070,3.521770,7.896138,3.482984,7.925733,3.417894,7.915473,3.347132,7.868611,3.293128,7.800000,3.273000,6.402605,3.273000,3.039803,-0.089803,3.021679,-0.103336,3.018611,-0.106872,3.015866,-0.107677,3.010599,-0.111610,2.980023,-0.118192,2.950000,-0.127000,-2.800000,-0.127000,-2.836070,-0.121770,-2.896138,-0.082984,-2.925733,-0.017894,-2.915473,0.052868,-2.868611,0.106872,
-2.800000,0.127000,2.897394,0.127000,6.260197,3.489802,6.278320,3.503335,6.281389,3.506872,6.284135,3.507678,6.289401,3.511610,6.319977,3.518192,6.350000,3.527000,7.800000,3.527000,7.836070,3.521770,7.836070,3.521770,$1*%
%AMFreePoly6*
4,1,36,-0.382313,0.442677,-0.365044,0.435750,-0.364806,0.435194,-0.364250,0.434956,-0.127000,0.192314,-0.127000,0.250000,0.127000,0.250000,0.127000,-0.067459,0.185750,-0.127544,0.192765,-0.145034,0.200000,-0.162500,0.200000,-0.750000,0.185355,-0.785355,0.150000,-0.800000,-0.300000,-0.800000,-0.335355,-0.785355,-0.350000,-0.750000,-0.350000,-0.400000,-0.650000,-0.400000,-0.650000,-0.750000,
-0.664645,-0.785355,-0.700000,-0.800000,-0.950000,-0.800000,-0.985355,-0.785355,-1.000000,-0.750000,-1.000000,-0.162500,-0.992765,-0.145034,-0.985750,-0.127544,-0.435750,0.434956,-0.435194,0.435194,-0.434956,0.435750,-0.417687,0.442677,-0.400562,0.449996,-0.400000,0.449771,-0.399438,0.449996,-0.382313,0.442677,-0.382313,0.442677,$1*%
%AMFreePoly7*
4,1,236,0.063500,0.109985,0.083516,0.089969,0.097778,0.081900,0.103819,0.071645,0.249281,-0.050521,0.421854,-0.154522,0.608506,-0.230409,0.804691,-0.276334,1.005632,-0.291179,1.206436,-0.274582,1.402213,-0.226948,1.588195,-0.149436,1.759855,-0.043934,1.904249,0.079499,1.910198,0.089803,1.967130,0.122673,2.032870,0.122672,2.089803,0.089802,2.092711,0.084766,2.097776,0.081900,
2.103817,0.071645,2.249279,-0.050521,2.421852,-0.154522,2.608504,-0.230409,2.804689,-0.276334,3.005630,-0.291179,3.206434,-0.274582,3.402211,-0.226948,3.588193,-0.149436,3.759853,-0.043934,3.904247,0.079499,3.910196,0.089803,3.967128,0.122673,4.032868,0.122672,4.089801,0.089802,4.092709,0.084766,4.097774,0.081900,4.103815,0.071645,4.249277,-0.050521,4.421850,-0.154522,
4.608502,-0.230409,4.804687,-0.276334,5.005628,-0.291179,5.206432,-0.274582,5.402209,-0.226948,5.588191,-0.149436,5.759851,-0.043934,5.904245,0.079499,5.910194,0.089803,5.967126,0.122673,6.032866,0.122672,6.089799,0.089802,6.092707,0.084766,6.097772,0.081900,6.103813,0.071645,6.249275,-0.050521,6.421848,-0.154522,6.608500,-0.230409,6.804685,-0.276334,7.005626,-0.291179,
7.206430,-0.274582,7.402207,-0.226948,7.588189,-0.149436,7.759849,-0.043934,7.904243,0.079499,7.910192,0.089803,7.967124,0.122673,8.032864,0.122672,8.089797,0.089802,8.092705,0.084766,8.097770,0.081900,8.103811,0.071645,8.249273,-0.050521,8.421846,-0.154522,8.608498,-0.230409,8.804683,-0.276334,9.005624,-0.291179,9.206428,-0.274582,9.402205,-0.226948,9.588187,-0.149436,
9.759847,-0.043934,9.904241,0.079499,9.910190,0.089803,9.967122,0.122673,10.032862,0.122672,10.089795,0.089802,10.092703,0.084766,10.097768,0.081900,10.103809,0.071645,10.249271,-0.050521,10.421844,-0.154522,10.608496,-0.230409,10.804681,-0.276334,11.005622,-0.291179,11.206426,-0.274582,11.402203,-0.226948,11.588185,-0.149436,11.759845,-0.043934,11.904239,0.079499,11.910188,0.089803,
11.967120,0.122673,12.032860,0.122672,12.089793,0.089802,12.092701,0.084766,12.097766,0.081900,12.103807,0.071645,12.249269,-0.050521,12.421842,-0.154522,12.608494,-0.230409,12.804679,-0.276334,13.005620,-0.291179,13.206424,-0.274582,13.402201,-0.226948,13.588183,-0.149436,13.759843,-0.043934,13.904237,0.079499,13.910186,0.089803,13.967118,0.122673,14.032858,0.122672,14.089791,0.089802,
14.092699,0.084766,14.097764,0.081900,14.103805,0.071645,14.249267,-0.050521,14.421840,-0.154522,14.608492,-0.230409,14.804677,-0.276334,15.005618,-0.291179,15.206422,-0.274582,15.402199,-0.226948,15.588181,-0.149436,15.759841,-0.043934,15.904235,0.079499,15.910184,0.089803,15.967116,0.122673,16.032856,0.122672,16.089789,0.089802,16.122659,0.032870,16.122658,-0.032870,16.089788,-0.089803,
16.089785,-0.089805,15.924578,-0.233071,15.740755,-0.351516,15.542018,-0.442752,15.332369,-0.504943,15.116029,-0.536836,14.897353,-0.537790,14.680743,-0.507785,14.470560,-0.447425,14.271035,-0.357925,14.086185,-0.241088,14.000007,-0.167662,13.924580,-0.233071,13.740757,-0.351516,13.542020,-0.442752,13.332371,-0.504943,13.116031,-0.536836,12.897355,-0.537790,12.680745,-0.507785,12.470562,-0.447425,
12.271037,-0.357925,12.086187,-0.241088,12.000009,-0.167662,11.924582,-0.233071,11.740759,-0.351516,11.542022,-0.442752,11.332373,-0.504943,11.116033,-0.536836,10.897357,-0.537790,10.680747,-0.507785,10.470564,-0.447425,10.271039,-0.357925,10.086189,-0.241088,10.000011,-0.167662,9.924584,-0.233071,9.740761,-0.351516,9.542024,-0.442752,9.332375,-0.504943,9.116035,-0.536836,8.897359,-0.537790,
8.680749,-0.507785,8.470566,-0.447425,8.271041,-0.357925,8.086191,-0.241088,8.000013,-0.167662,7.924586,-0.233071,7.740763,-0.351516,7.542026,-0.442752,7.332377,-0.504943,7.116037,-0.536836,6.897361,-0.537790,6.680751,-0.507785,6.470568,-0.447425,6.271043,-0.357925,6.086193,-0.241088,6.000015,-0.167662,5.924588,-0.233071,5.740765,-0.351516,5.542028,-0.442752,5.332379,-0.504943,
5.116039,-0.536836,4.897363,-0.537790,4.680753,-0.507785,4.470570,-0.447425,4.271045,-0.357925,4.086195,-0.241088,4.000017,-0.167662,3.924590,-0.233071,3.740767,-0.351516,3.542030,-0.442752,3.332381,-0.504943,3.116041,-0.536836,2.897365,-0.537790,2.680755,-0.507785,2.470572,-0.447425,2.271047,-0.357925,2.086197,-0.241088,2.000019,-0.167662,1.924592,-0.233071,1.740769,-0.351516,
1.542032,-0.442752,1.332383,-0.504943,1.116043,-0.536836,0.897367,-0.537790,0.680757,-0.507785,0.470574,-0.447425,0.271049,-0.357925,0.086199,-0.241088,-0.080254,-0.099266,-0.088904,-0.084581,-0.109985,-0.063500,-0.127000,0.000000,-0.109985,0.063500,-0.063500,0.109985,0.000000,0.127000,0.063500,0.109985,0.063500,0.109985,$1*%
%AMFreePoly8*
4,1,74,0.090320,1.758079,0.239662,1.720567,0.375744,1.648515,0.490712,1.546082,0.531399,1.486883,0.554756,1.483183,0.658279,1.430436,0.740436,1.348279,0.793183,1.244756,0.811359,1.130000,0.793183,1.015244,0.742519,0.915810,0.751359,0.860000,0.733183,0.745244,0.680436,0.641721,0.598279,0.559564,0.494756,0.506817,0.380000,0.488641,0.323760,0.497549,0.127000,0.283428,
0.127000,-0.587846,0.211346,-0.711884,0.214346,-0.726349,0.220000,-0.740000,0.218118,-0.744543,0.219116,-0.749355,0.211010,-0.761703,0.205355,-0.775355,0.200813,-0.777237,0.198115,-0.781346,0.183652,-0.784345,0.170000,-0.790000,-0.120000,-0.790000,-0.130398,-0.785693,-0.141637,-0.785076,-0.147391,-0.778654,-0.155355,-0.775355,-0.159662,-0.764957,-0.167173,-0.756574,-0.166701,-0.747965,
-0.170000,-0.740000,-0.165693,-0.729602,-0.165076,-0.718363,-0.127000,-0.639038,-0.127000,0.293608,-0.266054,0.429002,-0.320017,0.401507,-0.430000,0.384087,-0.539983,0.401507,-0.639200,0.452060,-0.717940,0.530800,-0.768493,0.630017,-0.780316,0.704660,-0.475881,0.704660,-0.472794,0.697206,-0.464310,0.693692,-0.475123,0.703531,-0.475881,0.704660,-0.780316,0.704660,-0.785913,0.740000,
-0.768493,0.849983,-0.723736,0.937824,-0.763183,1.015244,-0.781359,1.130000,-0.763183,1.244756,-0.710436,1.348279,-0.628279,1.430436,-0.524756,1.483183,-0.512625,1.485104,-0.466247,1.551093,-0.350213,1.652316,-0.213384,1.722939,-0.063658,1.758885,0.090320,1.758079,0.090320,1.758079,$1*%
%AMFreePoly9*
4,1,68,0.090320,1.758079,0.239662,1.720567,0.375744,1.648515,0.490712,1.546082,0.531399,1.486883,0.554756,1.483183,0.658279,1.430436,0.740436,1.348279,0.793183,1.244756,0.811359,1.130000,0.793183,1.015244,0.740436,0.911721,0.670111,0.841396,0.693183,0.796115,0.711359,0.681359,0.693183,0.566603,0.640436,0.463080,0.558279,0.380923,0.454756,0.328176,0.340000,0.310000,
0.294288,0.317240,0.127000,0.135192,0.127000,-0.587846,0.211346,-0.711884,0.214346,-0.726349,0.220000,-0.740000,0.218118,-0.744543,0.219116,-0.749355,0.211010,-0.761703,0.205355,-0.775355,0.200813,-0.777237,0.198115,-0.781346,0.183652,-0.784345,0.170000,-0.790000,-0.120000,-0.790000,-0.130398,-0.785693,-0.141637,-0.785076,-0.147391,-0.778654,-0.155355,-0.775355,-0.159662,-0.764957,
-0.167173,-0.756574,-0.166701,-0.747965,-0.170000,-0.740000,-0.165693,-0.729602,-0.165076,-0.718363,-0.127000,-0.639038,-0.127000,0.104135,-0.395567,0.365633,-0.469983,0.377420,-0.569200,0.427973,-0.647940,0.506713,-0.698493,0.605930,-0.715913,0.715913,-0.698493,0.825896,-0.673555,0.874840,-0.710436,0.911721,-0.763183,1.015244,-0.781359,1.130000,-0.763183,1.244756,-0.710436,1.348279,
-0.628279,1.430436,-0.524756,1.483183,-0.512625,1.485104,-0.466247,1.551093,-0.350213,1.652316,-0.213384,1.722939,-0.063658,1.758885,0.090320,1.758079,0.090320,1.758079,$1*%
%AMFreePoly10*
4,1,66,0.090320,1.758079,0.239662,1.720567,0.375744,1.648515,0.490712,1.546082,0.531399,1.486883,0.554756,1.483183,0.658279,1.430436,0.740436,1.348279,0.793183,1.244756,0.811359,1.130000,0.793183,1.015244,0.742519,0.915810,0.751359,0.860000,0.733183,0.745244,0.680436,0.641721,0.598279,0.559564,0.494756,0.506817,0.380000,0.488641,0.323760,0.497549,0.127000,0.283428,
0.127000,-0.587846,0.211346,-0.711884,0.214346,-0.726349,0.220000,-0.740000,0.218118,-0.744543,0.219116,-0.749355,0.211010,-0.761703,0.205355,-0.775355,0.200813,-0.777237,0.198115,-0.781346,0.183652,-0.784345,0.170000,-0.790000,-0.120000,-0.790000,-0.130398,-0.785693,-0.141637,-0.785076,-0.147391,-0.778654,-0.155355,-0.775355,-0.159662,-0.764957,-0.167173,-0.756574,-0.166701,-0.747965,
-0.170000,-0.740000,-0.165693,-0.729602,-0.165076,-0.718363,-0.127000,-0.639038,-0.127000,0.293608,-0.245184,0.408682,-0.300000,0.400000,-0.409983,0.417420,-0.509200,0.467973,-0.587940,0.546713,-0.638493,0.645930,-0.655913,0.755913,-0.642064,0.843349,-0.710436,0.911721,-0.763183,1.015244,-0.781359,1.130000,-0.763183,1.244756,-0.710436,1.348279,-0.628279,1.430436,-0.524756,1.483183,
-0.512625,1.485104,-0.466247,1.551093,-0.350213,1.652316,-0.213384,1.722939,-0.063658,1.758885,0.090320,1.758079,0.090320,1.758079,$1*%
%AMFreePoly11*
4,1,31,9.086070,4.561770,9.146138,4.522984,9.175733,4.457894,9.165473,4.387132,9.118611,4.333128,9.050000,4.313000,7.092605,4.313000,2.689803,-0.089803,2.671679,-0.103336,2.668611,-0.106872,2.665866,-0.107677,2.660599,-0.111610,2.630023,-0.118192,2.600000,-0.127000,-3.450000,-0.127000,-3.486070,-0.121770,-3.546138,-0.082984,-3.575733,-0.017894,-3.565473,0.052868,-3.518611,0.106872,
-3.450000,0.127000,2.547394,0.127000,6.950197,4.529802,6.968320,4.543335,6.971389,4.546872,6.974135,4.547678,6.979401,4.551610,7.009977,4.558192,7.040000,4.567000,9.050000,4.567000,9.086070,4.561770,9.086070,4.561770,$1*%
%AMFreePoly12*
4,1,74,0.090320,1.758079,0.239662,1.720567,0.375744,1.648515,0.490712,1.546082,0.531399,1.486883,0.554756,1.483183,0.658279,1.430436,0.740436,1.348279,0.793183,1.244756,0.811359,1.130000,0.793183,1.015244,0.742519,0.915810,0.751359,0.860000,0.733183,0.745244,0.680436,0.641721,0.598279,0.559564,0.494756,0.506817,0.380000,0.488641,0.376841,0.489141,0.127000,0.190090,
0.127000,-0.587846,0.211346,-0.711884,0.214346,-0.726349,0.220000,-0.740000,0.218118,-0.744543,0.219116,-0.749355,0.211010,-0.761703,0.205355,-0.775355,0.200813,-0.777237,0.198115,-0.781346,0.183652,-0.784345,0.170000,-0.790000,-0.120000,-0.790000,-0.130398,-0.785693,-0.141637,-0.785076,-0.147391,-0.778654,-0.155355,-0.775355,-0.159662,-0.764957,-0.167173,-0.756574,-0.166701,-0.747965,
-0.170000,-0.740000,-0.165693,-0.729602,-0.165076,-0.718363,-0.127000,-0.639038,-0.127000,0.213346,-0.320215,0.401476,-0.430000,0.384087,-0.539983,0.401507,-0.639200,0.452060,-0.717940,0.530800,-0.768493,0.630017,-0.780316,0.704660,-0.475881,0.704660,-0.472794,0.697206,-0.464310,0.693692,-0.475123,0.703531,-0.475881,0.704660,-0.780316,0.704660,-0.785913,0.740000,-0.768493,0.849983,
-0.737725,0.910369,-0.799077,0.971721,-0.851824,1.075244,-0.870000,1.190000,-0.851824,1.304756,-0.799077,1.408279,-0.716920,1.490436,-0.613397,1.543183,-0.498641,1.561359,-0.461265,1.555439,-0.350213,1.652316,-0.213384,1.722939,-0.063658,1.758885,0.090320,1.758079,0.090320,1.758079,$1*%
%AMFreePoly13*
4,1,208,0.063500,0.109985,0.083519,0.089966,0.097776,0.081900,0.103817,0.071645,0.249279,-0.050521,0.421852,-0.154522,0.608504,-0.230409,0.804689,-0.276334,1.005630,-0.291179,1.206434,-0.274582,1.402211,-0.226948,1.588193,-0.149436,1.759853,-0.043934,1.904247,0.079499,1.910196,0.089803,1.967128,0.122673,2.032868,0.122672,2.089801,0.089802,2.092709,0.084766,2.097774,0.081900,
2.103815,0.071645,2.249277,-0.050521,2.421850,-0.154522,2.608502,-0.230409,2.804687,-0.276334,3.005628,-0.291179,3.206432,-0.274582,3.402209,-0.226948,3.588191,-0.149436,3.759851,-0.043934,3.904245,0.079499,3.910194,0.089803,3.967126,0.122673,4.032866,0.122672,4.089799,0.089802,4.092707,0.084766,4.097772,0.081900,4.103813,0.071645,4.249275,-0.050521,4.421848,-0.154522,
4.608500,-0.230409,4.804685,-0.276334,5.005626,-0.291179,5.206430,-0.274582,5.402207,-0.226948,5.588189,-0.149436,5.759849,-0.043934,5.904243,0.079499,5.910192,0.089803,5.967124,0.122673,6.032864,0.122672,6.089797,0.089802,6.092705,0.084766,6.097770,0.081900,6.103811,0.071645,6.249273,-0.050521,6.421846,-0.154522,6.608498,-0.230409,6.804683,-0.276334,7.005624,-0.291179,
7.206428,-0.274582,7.402205,-0.226948,7.588187,-0.149436,7.759847,-0.043934,7.904241,0.079499,7.910190,0.089803,7.967122,0.122673,8.032862,0.122672,8.089795,0.089802,8.092703,0.084766,8.097768,0.081900,8.103809,0.071645,8.249271,-0.050521,8.421844,-0.154522,8.608496,-0.230409,8.804681,-0.276334,9.005622,-0.291179,9.206426,-0.274582,9.402203,-0.226948,9.588185,-0.149436,
9.759845,-0.043934,9.904239,0.079499,9.910188,0.089803,9.967120,0.122673,10.032860,0.122672,10.089793,0.089802,10.092701,0.084766,10.097766,0.081900,10.103807,0.071645,10.249269,-0.050521,10.421842,-0.154522,10.608494,-0.230409,10.804679,-0.276334,11.005620,-0.291179,11.206424,-0.274582,11.402201,-0.226948,11.588183,-0.149436,11.759843,-0.043934,11.904237,0.079499,11.910186,0.089803,
11.967118,0.122673,12.032858,0.122672,12.089791,0.089802,12.092699,0.084766,12.097764,0.081900,12.103805,0.071645,12.249267,-0.050521,12.421840,-0.154522,12.608492,-0.230409,12.804677,-0.276334,13.005618,-0.291179,13.206422,-0.274582,13.402199,-0.226948,13.588181,-0.149436,13.759841,-0.043934,13.904235,0.079499,13.910184,0.089803,13.967116,0.122673,14.032856,0.122672,14.089789,0.089802,
14.122659,0.032870,14.122658,-0.032870,14.089788,-0.089803,14.089785,-0.089805,13.924578,-0.233071,13.740755,-0.351516,13.542018,-0.442752,13.332369,-0.504943,13.116029,-0.536836,12.897353,-0.537790,12.680743,-0.507785,12.470560,-0.447425,12.271035,-0.357925,12.086185,-0.241088,12.000007,-0.167662,11.924580,-0.233071,11.740757,-0.351516,11.542020,-0.442752,11.332371,-0.504943,11.116031,-0.536836,
10.897355,-0.537790,10.680745,-0.507785,10.470562,-0.447425,10.271037,-0.357925,10.086187,-0.241088,10.000009,-0.167662,9.924582,-0.233071,9.740759,-0.351516,9.542022,-0.442752,9.332373,-0.504943,9.116033,-0.536836,8.897357,-0.537790,8.680747,-0.507785,8.470564,-0.447425,8.271039,-0.357925,8.086189,-0.241088,8.000011,-0.167662,7.924584,-0.233071,7.740761,-0.351516,7.542024,-0.442752,
7.332375,-0.504943,7.116035,-0.536836,6.897359,-0.537790,6.680749,-0.507785,6.470566,-0.447425,6.271041,-0.357925,6.086191,-0.241088,6.000013,-0.167662,5.924586,-0.233071,5.740763,-0.351516,5.542026,-0.442752,5.332377,-0.504943,5.116037,-0.536836,4.897361,-0.537790,4.680751,-0.507785,4.470568,-0.447425,4.271043,-0.357925,4.086193,-0.241088,4.000015,-0.167662,3.924588,-0.233071,
3.740765,-0.351516,3.542028,-0.442752,3.332379,-0.504943,3.116039,-0.536836,2.897363,-0.537790,2.680753,-0.507785,2.470570,-0.447425,2.271045,-0.357925,2.086195,-0.241088,2.000017,-0.167662,1.924590,-0.233071,1.740767,-0.351516,1.542030,-0.442752,1.332381,-0.504943,1.116041,-0.536836,0.897365,-0.537790,0.680755,-0.507785,0.470572,-0.447425,0.271047,-0.357925,0.086197,-0.241088,
-0.080256,-0.099266,-0.088909,-0.084576,-0.109985,-0.063500,-0.127000,0.000000,-0.109985,0.063500,-0.063500,0.109985,0.000000,0.127000,0.063500,0.109985,0.063500,0.109985,$1*%
G04 Aperture macros list end*
%ADD10C,0.153000*%
%ADD11C,0.225000*%
%ADD12C,0.150000*%
%ADD13C,0.100000*%
%ADD14C,0.120000*%
%ADD15C,0.200000*%
%ADD16C,1.200000*%
%ADD17R,1.397000X1.397000*%
%ADD18C,0.270000*%
%ADD19RotRect,1.650000X0.820000X345.000000*%
%ADD20RoundRect,0.205000X-0.651932X-0.037547X0.545816X-0.358483X0.651932X0.037547X-0.545816X0.358483X0*%
%ADD21R,1.650000X0.820000*%
%ADD22RoundRect,0.205000X-0.620000X-0.205000X0.620000X-0.205000X0.620000X0.205000X-0.620000X0.205000X0*%
%ADD23RotRect,1.650000X0.820000X330.000000*%
%ADD24RoundRect,0.205000X-0.639436X0.132465X0.434436X-0.487535X0.639436X-0.132465X-0.434436X0.487535X0*%
%ADD25O,2.500000X1.700000*%
%ADD26C,1.524000*%
%ADD27C,5.000000*%
%ADD28C,4.400000*%
%ADD29C,3.400000*%
%ADD30R,3.200000X2.000000*%
%ADD31C,1.700000*%
%ADD32R,2.000000X2.000000*%
%ADD33C,2.000000*%
%ADD34R,0.800000X0.900000*%
%ADD35RotRect,0.900000X0.800000X75.000000*%
%ADD36RotRect,0.900000X0.800000X45.000000*%
%ADD37FreePoly0,270.000000*%
%ADD38FreePoly1,270.000000*%
%ADD39RoundRect,0.250100X0.449900X-0.262400X0.449900X0.262400X-0.449900X0.262400X-0.449900X-0.262400X0*%
%ADD40RoundRect,0.249998X0.450002X-0.262502X0.450002X0.262502X-0.450002X0.262502X-0.450002X-0.262502X0*%
%ADD41R,1.700000X1.700000*%
%ADD42O,1.700000X1.700000*%
%ADD43RoundRect,0.250000X-0.250000X-0.475000X0.250000X-0.475000X0.250000X0.475000X-0.250000X0.475000X0*%
%ADD44R,1.100000X1.800000*%
%ADD45FreePoly2,90.000000*%
%ADD46FreePoly3,295.000000*%
%ADD47C,1.600000*%
%ADD48FreePoly4,0.000000*%
%ADD49FreePoly5,0.000000*%
%ADD50FreePoly6,0.000000*%
%ADD51FreePoly7,0.000000*%
%ADD52FreePoly8,0.000000*%
%ADD53FreePoly9,0.000000*%
%ADD54FreePoly10,0.000000*%
%ADD55FreePoly11,0.000000*%
%ADD56FreePoly12,0.000000*%
%ADD57FreePoly13,0.000000*%
G04 APERTURE END LIST*
D10*
X158623735Y-107691428D02*
X158666592Y-107734285D01*
X158623735Y-107777142D01*
X158580878Y-107734285D01*
X158623735Y-107691428D01*
X158623735Y-107777142D01*
X159523735Y-107777142D02*
X159009450Y-107777142D01*
X159266592Y-107777142D02*
X159266592Y-106877142D01*
X159180878Y-107005714D01*
X159095164Y-107091428D01*
X159009450Y-107134285D01*
X149037545Y-109157380D02*
X149037545Y-108157380D01*
X149418497Y-108157380D01*
X149513735Y-108205000D01*
X149561354Y-108252619D01*
X149608973Y-108347857D01*
X149608973Y-108490714D01*
X149561354Y-108585952D01*
X149513735Y-108633571D01*
X149418497Y-108681190D01*
X149037545Y-108681190D01*
X150608973Y-109062142D02*
X150561354Y-109109761D01*
X150418497Y-109157380D01*
X150323259Y-109157380D01*
X150180402Y-109109761D01*
X150085164Y-109014523D01*
X150037545Y-108919285D01*
X149989926Y-108728809D01*
X149989926Y-108585952D01*
X150037545Y-108395476D01*
X150085164Y-108300238D01*
X150180402Y-108205000D01*
X150323259Y-108157380D01*
X150418497Y-108157380D01*
X150561354Y-108205000D01*
X150608973Y-108252619D01*
X151370878Y-108633571D02*
X151513735Y-108681190D01*
X151561354Y-108728809D01*
X151608973Y-108824047D01*
X151608973Y-108966904D01*
X151561354Y-109062142D01*
X151513735Y-109109761D01*
X151418497Y-109157380D01*
X151037545Y-109157380D01*
X151037545Y-108157380D01*
X151370878Y-108157380D01*
X151466116Y-108205000D01*
X151513735Y-108252619D01*
X151561354Y-108347857D01*
X151561354Y-108443095D01*
X151513735Y-108538333D01*
X151466116Y-108585952D01*
X151370878Y-108633571D01*
X151037545Y-108633571D01*
X152799450Y-109157380D02*
X152799450Y-108157380D01*
X152799450Y-108538333D02*
X152894688Y-108490714D01*
X153085164Y-108490714D01*
X153180402Y-108538333D01*
X153228021Y-108585952D01*
X153275640Y-108681190D01*
X153275640Y-108966904D01*
X153228021Y-109062142D01*
X153180402Y-109109761D01*
X153085164Y-109157380D01*
X152894688Y-109157380D01*
X152799450Y-109109761D01*
X153608973Y-108490714D02*
X153847069Y-109157380D01*
X154085164Y-108490714D02*
X153847069Y-109157380D01*
X153751830Y-109395476D01*
X153704211Y-109443095D01*
X153608973Y-109490714D01*
X150561354Y-110767380D02*
X150561354Y-109767380D01*
X150894688Y-110481666D01*
X151228021Y-109767380D01*
X151228021Y-110767380D01*
X151704211Y-110767380D02*
X151704211Y-109767380D01*
X152037545Y-110481666D01*
X152370878Y-109767380D01*
X152370878Y-110767380D01*
%TO.C,J2*%
X214861428Y-125522380D02*
X215432857Y-125522380D01*
X215147142Y-126522380D02*
X215147142Y-125522380D01*
X216337619Y-126522380D02*
X216004285Y-126046190D01*
X215766190Y-126522380D02*
X215766190Y-125522380D01*
X216147142Y-125522380D01*
X216242380Y-125570000D01*
X216290000Y-125617619D01*
X216337619Y-125712857D01*
X216337619Y-125855714D01*
X216290000Y-125950952D01*
X216242380Y-125998571D01*
X216147142Y-126046190D01*
X215766190Y-126046190D01*
X217051904Y-126903333D02*
X217004285Y-126855714D01*
X216909047Y-126712857D01*
X216861428Y-126617619D01*
X216813809Y-126474761D01*
X216766190Y-126236666D01*
X216766190Y-126046190D01*
X216813809Y-125808095D01*
X216861428Y-125665238D01*
X216909047Y-125570000D01*
X217004285Y-125427142D01*
X217051904Y-125379523D01*
X218004285Y-126522380D02*
X217670952Y-126046190D01*
X217432857Y-126522380D02*
X217432857Y-125522380D01*
X217813809Y-125522380D01*
X217909047Y-125570000D01*
X217956666Y-125617619D01*
X218004285Y-125712857D01*
X218004285Y-125855714D01*
X217956666Y-125950952D01*
X217909047Y-125998571D01*
X217813809Y-126046190D01*
X217432857Y-126046190D01*
X218337619Y-126903333D02*
X218385238Y-126855714D01*
X218480476Y-126712857D01*
X218528095Y-126617619D01*
X218575714Y-126474761D01*
X218623333Y-126236666D01*
X218623333Y-126046190D01*
X218575714Y-125808095D01*
X218528095Y-125665238D01*
X218480476Y-125570000D01*
X218385238Y-125427142D01*
X218337619Y-125379523D01*
X219051904Y-126474761D02*
X219194761Y-126522380D01*
X219432857Y-126522380D01*
X219528095Y-126474761D01*
X219575714Y-126427142D01*
X219623333Y-126331904D01*
X219623333Y-126236666D01*
X219575714Y-126141428D01*
X219528095Y-126093809D01*
X219432857Y-126046190D01*
X219242380Y-125998571D01*
X219147142Y-125950952D01*
X219099523Y-125903333D01*
X219051904Y-125808095D01*
X219051904Y-125712857D01*
X219099523Y-125617619D01*
X219147142Y-125570000D01*
X219242380Y-125522380D01*
X219480476Y-125522380D01*
X219623333Y-125570000D01*
D11*
%TO.C,U1*%
X203561428Y-70131428D02*
X205061428Y-70131428D01*
X203990000Y-70431428D01*
X205061428Y-70731428D01*
X203561428Y-70731428D01*
X203561428Y-71545714D02*
X204347142Y-71545714D01*
X204490000Y-71502857D01*
X204561428Y-71417142D01*
X204561428Y-71245714D01*
X204490000Y-71160000D01*
X203632857Y-71545714D02*
X203561428Y-71460000D01*
X203561428Y-71245714D01*
X203632857Y-71160000D01*
X203775714Y-71117142D01*
X203918571Y-71117142D01*
X204061428Y-71160000D01*
X204132857Y-71245714D01*
X204132857Y-71460000D01*
X204204285Y-71545714D01*
X204561428Y-71845714D02*
X204561428Y-72188571D01*
X205061428Y-71974285D02*
X203775714Y-71974285D01*
X203632857Y-72017142D01*
X203561428Y-72102857D01*
X203561428Y-72188571D01*
X203632857Y-72874285D02*
X203561428Y-72788571D01*
X203561428Y-72617142D01*
X203632857Y-72531428D01*
X203704285Y-72488571D01*
X203847142Y-72445714D01*
X204275714Y-72445714D01*
X204418571Y-72488571D01*
X204490000Y-72531428D01*
X204561428Y-72617142D01*
X204561428Y-72788571D01*
X204490000Y-72874285D01*
X203561428Y-73260000D02*
X205061428Y-73260000D01*
X203561428Y-73645714D02*
X204347142Y-73645714D01*
X204490000Y-73602857D01*
X204561428Y-73517142D01*
X204561428Y-73388571D01*
X204490000Y-73302857D01*
X204418571Y-73260000D01*
X204561428Y-74674285D02*
X203561428Y-74845714D01*
X204275714Y-75017142D01*
X203561428Y-75188571D01*
X204561428Y-75360000D01*
X203561428Y-75702857D02*
X204561428Y-75702857D01*
X205061428Y-75702857D02*
X204990000Y-75660000D01*
X204918571Y-75702857D01*
X204990000Y-75745714D01*
X205061428Y-75702857D01*
X204918571Y-75702857D01*
X204561428Y-76002857D02*
X204561428Y-76345714D01*
X205061428Y-76131428D02*
X203775714Y-76131428D01*
X203632857Y-76174285D01*
X203561428Y-76260000D01*
X203561428Y-76345714D01*
X203561428Y-76645714D02*
X205061428Y-76645714D01*
X203561428Y-77031428D02*
X204347142Y-77031428D01*
X204490000Y-76988571D01*
X204561428Y-76902857D01*
X204561428Y-76774285D01*
X204490000Y-76688571D01*
X204418571Y-76645714D01*
X203561428Y-78145714D02*
X205061428Y-78145714D01*
X203990000Y-78445714D01*
X205061428Y-78745714D01*
X203561428Y-78745714D01*
X203704285Y-79688571D02*
X203632857Y-79645714D01*
X203561428Y-79517142D01*
X203561428Y-79431428D01*
X203632857Y-79302857D01*
X203775714Y-79217142D01*
X203918571Y-79174285D01*
X204204285Y-79131428D01*
X204418571Y-79131428D01*
X204704285Y-79174285D01*
X204847142Y-79217142D01*
X204990000Y-79302857D01*
X205061428Y-79431428D01*
X205061428Y-79517142D01*
X204990000Y-79645714D01*
X204918571Y-79688571D01*
X205061428Y-80074285D02*
X203847142Y-80074285D01*
X203704285Y-80117142D01*
X203632857Y-80160000D01*
X203561428Y-80245714D01*
X203561428Y-80417142D01*
X203632857Y-80502857D01*
X203704285Y-80545714D01*
X203847142Y-80588571D01*
X205061428Y-80588571D01*
X204561428Y-81702857D02*
X203061428Y-81702857D01*
X204490000Y-81702857D02*
X204561428Y-81788571D01*
X204561428Y-81960000D01*
X204490000Y-82045714D01*
X204418571Y-82088571D01*
X204275714Y-82131428D01*
X203847142Y-82131428D01*
X203704285Y-82088571D01*
X203632857Y-82045714D01*
X203561428Y-81960000D01*
X203561428Y-81788571D01*
X203632857Y-81702857D01*
X203561428Y-82517142D02*
X204561428Y-82517142D01*
X205061428Y-82517142D02*
X204990000Y-82474285D01*
X204918571Y-82517142D01*
X204990000Y-82560000D01*
X205061428Y-82517142D01*
X204918571Y-82517142D01*
X204561428Y-82945714D02*
X203561428Y-82945714D01*
X204418571Y-82945714D02*
X204490000Y-82988571D01*
X204561428Y-83074285D01*
X204561428Y-83202857D01*
X204490000Y-83288571D01*
X204347142Y-83331428D01*
X203561428Y-83331428D01*
X203561428Y-84574285D02*
X203632857Y-84488571D01*
X203775714Y-84445714D01*
X205061428Y-84445714D01*
X203561428Y-85302857D02*
X204347142Y-85302857D01*
X204490000Y-85260000D01*
X204561428Y-85174285D01*
X204561428Y-85002857D01*
X204490000Y-84917142D01*
X203632857Y-85302857D02*
X203561428Y-85217142D01*
X203561428Y-85002857D01*
X203632857Y-84917142D01*
X203775714Y-84874285D01*
X203918571Y-84874285D01*
X204061428Y-84917142D01*
X204132857Y-85002857D01*
X204132857Y-85217142D01*
X204204285Y-85302857D01*
X203561428Y-85731428D02*
X205061428Y-85731428D01*
X204490000Y-85731428D02*
X204561428Y-85817142D01*
X204561428Y-85988571D01*
X204490000Y-86074285D01*
X204418571Y-86117142D01*
X204275714Y-86160000D01*
X203847142Y-86160000D01*
X203704285Y-86117142D01*
X203632857Y-86074285D01*
X203561428Y-85988571D01*
X203561428Y-85817142D01*
X203632857Y-85731428D01*
X203632857Y-86888571D02*
X203561428Y-86802857D01*
X203561428Y-86631428D01*
X203632857Y-86545714D01*
X203775714Y-86502857D01*
X204347142Y-86502857D01*
X204490000Y-86545714D01*
X204561428Y-86631428D01*
X204561428Y-86802857D01*
X204490000Y-86888571D01*
X204347142Y-86931428D01*
X204204285Y-86931428D01*
X204061428Y-86502857D01*
X203561428Y-87445714D02*
X203632857Y-87360000D01*
X203775714Y-87317142D01*
X205061428Y-87317142D01*
X203632857Y-87745714D02*
X203561428Y-87831428D01*
X203561428Y-88002857D01*
X203632857Y-88088571D01*
X203775714Y-88131428D01*
X203847142Y-88131428D01*
X203990000Y-88088571D01*
X204061428Y-88002857D01*
X204061428Y-87874285D01*
X204132857Y-87788571D01*
X204275714Y-87745714D01*
X204347142Y-87745714D01*
X204490000Y-87788571D01*
X204561428Y-87874285D01*
X204561428Y-88002857D01*
X204490000Y-88088571D01*
D12*
X208835715Y-87614380D02*
X208635715Y-87138190D01*
X208492857Y-87614380D02*
X208492857Y-86614380D01*
X208721429Y-86614380D01*
X208778572Y-86662000D01*
X208807143Y-86709619D01*
X208835715Y-86804857D01*
X208835715Y-86947714D01*
X208807143Y-87042952D01*
X208778572Y-87090571D01*
X208721429Y-87138190D01*
X208492857Y-87138190D01*
X209207143Y-86614380D02*
X209321429Y-86614380D01*
X209378572Y-86662000D01*
X209435715Y-86757238D01*
X209464286Y-86947714D01*
X209464286Y-87281047D01*
X209435715Y-87471523D01*
X209378572Y-87566761D01*
X209321429Y-87614380D01*
X209207143Y-87614380D01*
X209150000Y-87566761D01*
X209092857Y-87471523D01*
X209064286Y-87281047D01*
X209064286Y-86947714D01*
X209092857Y-86757238D01*
X209150000Y-86662000D01*
X209207143Y-86614380D01*
X209664286Y-86614380D02*
X209807143Y-87614380D01*
X209921429Y-86900095D01*
X210035715Y-87614380D01*
X210178572Y-86614380D01*
X210521429Y-86614380D02*
X210578572Y-86614380D01*
X210635715Y-86662000D01*
X210664286Y-86709619D01*
X210692857Y-86804857D01*
X210721429Y-86995333D01*
X210721429Y-87233428D01*
X210692857Y-87423904D01*
X210664286Y-87519142D01*
X210635715Y-87566761D01*
X210578572Y-87614380D01*
X210521429Y-87614380D01*
X210464286Y-87566761D01*
X210435715Y-87519142D01*
X210407143Y-87423904D01*
X210378572Y-87233428D01*
X210378572Y-86995333D01*
X210407143Y-86804857D01*
X210435715Y-86709619D01*
X210464286Y-86662000D01*
X210521429Y-86614380D01*
X210978572Y-87233428D02*
X211435715Y-87233428D01*
X211721429Y-86947714D02*
X212178572Y-87233428D01*
X211721429Y-87519142D01*
X194300000Y-67294380D02*
X194100000Y-66818190D01*
X193957143Y-67294380D02*
X193957143Y-66294380D01*
X194185714Y-66294380D01*
X194242857Y-66342000D01*
X194271428Y-66389619D01*
X194300000Y-66484857D01*
X194300000Y-66627714D01*
X194271428Y-66722952D01*
X194242857Y-66770571D01*
X194185714Y-66818190D01*
X193957143Y-66818190D01*
X194528571Y-67008666D02*
X194814285Y-67008666D01*
X194471428Y-67294380D02*
X194671428Y-66294380D01*
X194871428Y-67294380D01*
X195014285Y-66294380D02*
X195157143Y-67294380D01*
X195271428Y-66580095D01*
X195385714Y-67294380D01*
X195528571Y-66294380D01*
X195757143Y-66913428D02*
X196214285Y-66913428D01*
X196500000Y-66627714D02*
X196957143Y-66913428D01*
X196500000Y-67199142D01*
X210149999Y-84979142D02*
X210121428Y-85026761D01*
X210035714Y-85074380D01*
X209978571Y-85074380D01*
X209892857Y-85026761D01*
X209835714Y-84931523D01*
X209807142Y-84836285D01*
X209778571Y-84645809D01*
X209778571Y-84502952D01*
X209807142Y-84312476D01*
X209835714Y-84217238D01*
X209892857Y-84122000D01*
X209978571Y-84074380D01*
X210035714Y-84074380D01*
X210121428Y-84122000D01*
X210149999Y-84169619D01*
X210664285Y-84074380D02*
X210549999Y-84074380D01*
X210492857Y-84122000D01*
X210464285Y-84169619D01*
X210407142Y-84312476D01*
X210378571Y-84502952D01*
X210378571Y-84883904D01*
X210407142Y-84979142D01*
X210435714Y-85026761D01*
X210492857Y-85074380D01*
X210607142Y-85074380D01*
X210664285Y-85026761D01*
X210692857Y-84979142D01*
X210721428Y-84883904D01*
X210721428Y-84645809D01*
X210692857Y-84550571D01*
X210664285Y-84502952D01*
X210607142Y-84455333D01*
X210492857Y-84455333D01*
X210435714Y-84502952D01*
X210407142Y-84550571D01*
X210378571Y-84645809D01*
X210978571Y-84693428D02*
X211435714Y-84693428D01*
X211721428Y-84407714D02*
X212178571Y-84693428D01*
X211721428Y-84979142D01*
X193014285Y-79470571D02*
X193214285Y-79470571D01*
X193299999Y-79994380D02*
X193014285Y-79994380D01*
X193014285Y-78994380D01*
X193299999Y-78994380D01*
X193557142Y-79994380D02*
X193557142Y-78994380D01*
X193899999Y-79994380D01*
X193899999Y-78994380D01*
X194528571Y-79899142D02*
X194499999Y-79946761D01*
X194414285Y-79994380D01*
X194357142Y-79994380D01*
X194271428Y-79946761D01*
X194214285Y-79851523D01*
X194185714Y-79756285D01*
X194157142Y-79565809D01*
X194157142Y-79422952D01*
X194185714Y-79232476D01*
X194214285Y-79137238D01*
X194271428Y-79042000D01*
X194357142Y-78994380D01*
X194414285Y-78994380D01*
X194499999Y-79042000D01*
X194528571Y-79089619D01*
X194642856Y-80089619D02*
X195099999Y-80089619D01*
X195214285Y-79708666D02*
X195499999Y-79708666D01*
X195157142Y-79994380D02*
X195357142Y-78994380D01*
X195557142Y-79994380D01*
X195757142Y-79613428D02*
X196214285Y-79613428D01*
X196499999Y-79327714D02*
X196957142Y-79613428D01*
X196499999Y-79899142D01*
X193814286Y-84979142D02*
X193785714Y-85026761D01*
X193700000Y-85074380D01*
X193642857Y-85074380D01*
X193557143Y-85026761D01*
X193500000Y-84931523D01*
X193471428Y-84836285D01*
X193442857Y-84645809D01*
X193442857Y-84502952D01*
X193471428Y-84312476D01*
X193500000Y-84217238D01*
X193557143Y-84122000D01*
X193642857Y-84074380D01*
X193700000Y-84074380D01*
X193785714Y-84122000D01*
X193814286Y-84169619D01*
X194185714Y-84074380D02*
X194300000Y-84074380D01*
X194357143Y-84122000D01*
X194414286Y-84217238D01*
X194442857Y-84407714D01*
X194442857Y-84741047D01*
X194414286Y-84931523D01*
X194357143Y-85026761D01*
X194300000Y-85074380D01*
X194185714Y-85074380D01*
X194128571Y-85026761D01*
X194071428Y-84931523D01*
X194042857Y-84741047D01*
X194042857Y-84407714D01*
X194071428Y-84217238D01*
X194128571Y-84122000D01*
X194185714Y-84074380D01*
X194985714Y-85074380D02*
X194700000Y-85074380D01*
X194700000Y-84074380D01*
X195500000Y-85074380D02*
X195157143Y-85074380D01*
X195328571Y-85074380D02*
X195328571Y-84074380D01*
X195271428Y-84217238D01*
X195214286Y-84312476D01*
X195157143Y-84360095D01*
X195757143Y-84693428D02*
X196214286Y-84693428D01*
X196500000Y-84407714D02*
X196957143Y-84693428D01*
X196500000Y-84979142D01*
X200797500Y-69127714D02*
X200111785Y-69413428D01*
X200797500Y-69699142D01*
X201226071Y-69413428D02*
X201911785Y-69413428D01*
X202340357Y-69413428D02*
X203026071Y-69413428D01*
X194242857Y-68882000D02*
X194185714Y-68834380D01*
X194099999Y-68834380D01*
X194014285Y-68882000D01*
X193957142Y-68977238D01*
X193928571Y-69072476D01*
X193899999Y-69262952D01*
X193899999Y-69405809D01*
X193928571Y-69596285D01*
X193957142Y-69691523D01*
X194014285Y-69786761D01*
X194099999Y-69834380D01*
X194157142Y-69834380D01*
X194242857Y-69786761D01*
X194271428Y-69739142D01*
X194271428Y-69405809D01*
X194157142Y-69405809D01*
X194528571Y-69834380D02*
X194528571Y-68834380D01*
X194871428Y-69834380D01*
X194871428Y-68834380D01*
X195157142Y-69834380D02*
X195157142Y-68834380D01*
X195299999Y-68834380D01*
X195385714Y-68882000D01*
X195442857Y-68977238D01*
X195471428Y-69072476D01*
X195499999Y-69262952D01*
X195499999Y-69405809D01*
X195471428Y-69596285D01*
X195442857Y-69691523D01*
X195385714Y-69786761D01*
X195299999Y-69834380D01*
X195157142Y-69834380D01*
X195757142Y-69453428D02*
X196214285Y-69453428D01*
X196499999Y-69167714D02*
X196957142Y-69453428D01*
X196499999Y-69739142D01*
X209264286Y-77406761D02*
X209350000Y-77454380D01*
X209492857Y-77454380D01*
X209550000Y-77406761D01*
X209578572Y-77359142D01*
X209607143Y-77263904D01*
X209607143Y-77168666D01*
X209578572Y-77073428D01*
X209550000Y-77025809D01*
X209492857Y-76978190D01*
X209378572Y-76930571D01*
X209321429Y-76882952D01*
X209292857Y-76835333D01*
X209264286Y-76740095D01*
X209264286Y-76644857D01*
X209292857Y-76549619D01*
X209321429Y-76502000D01*
X209378572Y-76454380D01*
X209521429Y-76454380D01*
X209607143Y-76502000D01*
X209864286Y-77454380D02*
X209864286Y-76454380D01*
X210007143Y-76454380D01*
X210092857Y-76502000D01*
X210150000Y-76597238D01*
X210178572Y-76692476D01*
X210207143Y-76882952D01*
X210207143Y-77025809D01*
X210178572Y-77216285D01*
X210150000Y-77311523D01*
X210092857Y-77406761D01*
X210007143Y-77454380D01*
X209864286Y-77454380D01*
X210435715Y-77168666D02*
X210721429Y-77168666D01*
X210378572Y-77454380D02*
X210578572Y-76454380D01*
X210778572Y-77454380D01*
X210978572Y-77073428D02*
X211435715Y-77073428D01*
X211721429Y-76787714D02*
X212178572Y-77073428D01*
X211721429Y-77359142D01*
X193957142Y-73914380D02*
X194157142Y-74914380D01*
X194357142Y-73914380D01*
X194900000Y-74819142D02*
X194871428Y-74866761D01*
X194785714Y-74914380D01*
X194728571Y-74914380D01*
X194642857Y-74866761D01*
X194585714Y-74771523D01*
X194557142Y-74676285D01*
X194528571Y-74485809D01*
X194528571Y-74342952D01*
X194557142Y-74152476D01*
X194585714Y-74057238D01*
X194642857Y-73962000D01*
X194728571Y-73914380D01*
X194785714Y-73914380D01*
X194871428Y-73962000D01*
X194900000Y-74009619D01*
X195500000Y-74819142D02*
X195471428Y-74866761D01*
X195385714Y-74914380D01*
X195328571Y-74914380D01*
X195242857Y-74866761D01*
X195185714Y-74771523D01*
X195157142Y-74676285D01*
X195128571Y-74485809D01*
X195128571Y-74342952D01*
X195157142Y-74152476D01*
X195185714Y-74057238D01*
X195242857Y-73962000D01*
X195328571Y-73914380D01*
X195385714Y-73914380D01*
X195471428Y-73962000D01*
X195500000Y-74009619D01*
X195757142Y-74533428D02*
X196214285Y-74533428D01*
X196500000Y-74247714D02*
X196957142Y-74533428D01*
X196500000Y-74819142D01*
X208892857Y-69834380D02*
X208892857Y-68834380D01*
X209035715Y-68834380D01*
X209121429Y-68882000D01*
X209178572Y-68977238D01*
X209207143Y-69072476D01*
X209235715Y-69262952D01*
X209235715Y-69405809D01*
X209207143Y-69596285D01*
X209178572Y-69691523D01*
X209121429Y-69786761D01*
X209035715Y-69834380D01*
X208892857Y-69834380D01*
X209464286Y-69548666D02*
X209750000Y-69548666D01*
X209407143Y-69834380D02*
X209607143Y-68834380D01*
X209807143Y-69834380D01*
X209921429Y-68834380D02*
X210264286Y-68834380D01*
X210092857Y-69834380D02*
X210092857Y-68834380D01*
X210435715Y-69548666D02*
X210721429Y-69548666D01*
X210378572Y-69834380D02*
X210578572Y-68834380D01*
X210778572Y-69834380D01*
X210978572Y-69453428D02*
X211435715Y-69453428D01*
X211721429Y-69167714D02*
X212178572Y-69453428D01*
X211721429Y-69739142D01*
X193814286Y-82439142D02*
X193785714Y-82486761D01*
X193700000Y-82534380D01*
X193642857Y-82534380D01*
X193557143Y-82486761D01*
X193500000Y-82391523D01*
X193471428Y-82296285D01*
X193442857Y-82105809D01*
X193442857Y-81962952D01*
X193471428Y-81772476D01*
X193500000Y-81677238D01*
X193557143Y-81582000D01*
X193642857Y-81534380D01*
X193700000Y-81534380D01*
X193785714Y-81582000D01*
X193814286Y-81629619D01*
X194185714Y-81534380D02*
X194300000Y-81534380D01*
X194357143Y-81582000D01*
X194414286Y-81677238D01*
X194442857Y-81867714D01*
X194442857Y-82201047D01*
X194414286Y-82391523D01*
X194357143Y-82486761D01*
X194300000Y-82534380D01*
X194185714Y-82534380D01*
X194128571Y-82486761D01*
X194071428Y-82391523D01*
X194042857Y-82201047D01*
X194042857Y-81867714D01*
X194071428Y-81677238D01*
X194128571Y-81582000D01*
X194185714Y-81534380D01*
X194985714Y-82534380D02*
X194700000Y-82534380D01*
X194700000Y-81534380D01*
X195300000Y-81534380D02*
X195357143Y-81534380D01*
X195414286Y-81582000D01*
X195442857Y-81629619D01*
X195471428Y-81724857D01*
X195500000Y-81915333D01*
X195500000Y-82153428D01*
X195471428Y-82343904D01*
X195442857Y-82439142D01*
X195414286Y-82486761D01*
X195357143Y-82534380D01*
X195300000Y-82534380D01*
X195242857Y-82486761D01*
X195214286Y-82439142D01*
X195185714Y-82343904D01*
X195157143Y-82153428D01*
X195157143Y-81915333D01*
X195185714Y-81724857D01*
X195214286Y-81629619D01*
X195242857Y-81582000D01*
X195300000Y-81534380D01*
X195757143Y-82153428D02*
X196214286Y-82153428D01*
X196500000Y-81867714D02*
X196957143Y-82153428D01*
X196500000Y-82439142D01*
X208835715Y-92694380D02*
X208635715Y-92218190D01*
X208492857Y-92694380D02*
X208492857Y-91694380D01*
X208721429Y-91694380D01*
X208778572Y-91742000D01*
X208807143Y-91789619D01*
X208835715Y-91884857D01*
X208835715Y-92027714D01*
X208807143Y-92122952D01*
X208778572Y-92170571D01*
X208721429Y-92218190D01*
X208492857Y-92218190D01*
X209207143Y-91694380D02*
X209321429Y-91694380D01*
X209378572Y-91742000D01*
X209435715Y-91837238D01*
X209464286Y-92027714D01*
X209464286Y-92361047D01*
X209435715Y-92551523D01*
X209378572Y-92646761D01*
X209321429Y-92694380D01*
X209207143Y-92694380D01*
X209150000Y-92646761D01*
X209092857Y-92551523D01*
X209064286Y-92361047D01*
X209064286Y-92027714D01*
X209092857Y-91837238D01*
X209150000Y-91742000D01*
X209207143Y-91694380D01*
X209664286Y-91694380D02*
X209807143Y-92694380D01*
X209921429Y-91980095D01*
X210035715Y-92694380D01*
X210178572Y-91694380D01*
X210378572Y-91789619D02*
X210407143Y-91742000D01*
X210464286Y-91694380D01*
X210607143Y-91694380D01*
X210664286Y-91742000D01*
X210692857Y-91789619D01*
X210721429Y-91884857D01*
X210721429Y-91980095D01*
X210692857Y-92122952D01*
X210350000Y-92694380D01*
X210721429Y-92694380D01*
X210978572Y-92313428D02*
X211435715Y-92313428D01*
X211721429Y-92027714D02*
X212178572Y-92313428D01*
X211721429Y-92599142D01*
X209635714Y-67294380D02*
X209350000Y-67294380D01*
X209350000Y-66294380D01*
X209835714Y-66770571D02*
X210035714Y-66770571D01*
X210121428Y-67294380D02*
X209835714Y-67294380D01*
X209835714Y-66294380D01*
X210121428Y-66294380D01*
X210378571Y-67294380D02*
X210378571Y-66294380D01*
X210521428Y-66294380D01*
X210607143Y-66342000D01*
X210664286Y-66437238D01*
X210692857Y-66532476D01*
X210721428Y-66722952D01*
X210721428Y-66865809D01*
X210692857Y-67056285D01*
X210664286Y-67151523D01*
X210607143Y-67246761D01*
X210521428Y-67294380D01*
X210378571Y-67294380D01*
X210978571Y-66913428D02*
X211435714Y-66913428D01*
X211721428Y-66627714D02*
X212178571Y-66913428D01*
X211721428Y-67199142D01*
X209292857Y-79946761D02*
X209378571Y-79994380D01*
X209521428Y-79994380D01*
X209578571Y-79946761D01*
X209607142Y-79899142D01*
X209635714Y-79803904D01*
X209635714Y-79708666D01*
X209607142Y-79613428D01*
X209578571Y-79565809D01*
X209521428Y-79518190D01*
X209407142Y-79470571D01*
X209350000Y-79422952D01*
X209321428Y-79375333D01*
X209292857Y-79280095D01*
X209292857Y-79184857D01*
X209321428Y-79089619D01*
X209350000Y-79042000D01*
X209407142Y-78994380D01*
X209550000Y-78994380D01*
X209635714Y-79042000D01*
X210235714Y-79899142D02*
X210207142Y-79946761D01*
X210121428Y-79994380D01*
X210064285Y-79994380D01*
X209978571Y-79946761D01*
X209921428Y-79851523D01*
X209892857Y-79756285D01*
X209864285Y-79565809D01*
X209864285Y-79422952D01*
X209892857Y-79232476D01*
X209921428Y-79137238D01*
X209978571Y-79042000D01*
X210064285Y-78994380D01*
X210121428Y-78994380D01*
X210207142Y-79042000D01*
X210235714Y-79089619D01*
X210778571Y-79994380D02*
X210492857Y-79994380D01*
X210492857Y-78994380D01*
X210978571Y-79613428D02*
X211435714Y-79613428D01*
X211721428Y-79327714D02*
X212178571Y-79613428D01*
X211721428Y-79899142D01*
X193814286Y-92599142D02*
X193785714Y-92646761D01*
X193700000Y-92694380D01*
X193642857Y-92694380D01*
X193557143Y-92646761D01*
X193500000Y-92551523D01*
X193471428Y-92456285D01*
X193442857Y-92265809D01*
X193442857Y-92122952D01*
X193471428Y-91932476D01*
X193500000Y-91837238D01*
X193557143Y-91742000D01*
X193642857Y-91694380D01*
X193700000Y-91694380D01*
X193785714Y-91742000D01*
X193814286Y-91789619D01*
X194185714Y-91694380D02*
X194300000Y-91694380D01*
X194357143Y-91742000D01*
X194414286Y-91837238D01*
X194442857Y-92027714D01*
X194442857Y-92361047D01*
X194414286Y-92551523D01*
X194357143Y-92646761D01*
X194300000Y-92694380D01*
X194185714Y-92694380D01*
X194128571Y-92646761D01*
X194071428Y-92551523D01*
X194042857Y-92361047D01*
X194042857Y-92027714D01*
X194071428Y-91837238D01*
X194128571Y-91742000D01*
X194185714Y-91694380D01*
X194985714Y-92694380D02*
X194700000Y-92694380D01*
X194700000Y-91694380D01*
X195442857Y-92027714D02*
X195442857Y-92694380D01*
X195300000Y-91646761D02*
X195157143Y-92361047D01*
X195528571Y-92361047D01*
X195757143Y-92313428D02*
X196214286Y-92313428D01*
X196500000Y-92027714D02*
X196957143Y-92313428D01*
X196500000Y-92599142D01*
X194471428Y-72374380D02*
X194271428Y-71898190D01*
X194128571Y-72374380D02*
X194128571Y-71374380D01*
X194357142Y-71374380D01*
X194414285Y-71422000D01*
X194442857Y-71469619D01*
X194471428Y-71564857D01*
X194471428Y-71707714D01*
X194442857Y-71802952D01*
X194414285Y-71850571D01*
X194357142Y-71898190D01*
X194128571Y-71898190D01*
X194699999Y-72326761D02*
X194785714Y-72374380D01*
X194928571Y-72374380D01*
X194985714Y-72326761D01*
X195014285Y-72279142D01*
X195042857Y-72183904D01*
X195042857Y-72088666D01*
X195014285Y-71993428D01*
X194985714Y-71945809D01*
X194928571Y-71898190D01*
X194814285Y-71850571D01*
X194757142Y-71802952D01*
X194728571Y-71755333D01*
X194699999Y-71660095D01*
X194699999Y-71564857D01*
X194728571Y-71469619D01*
X194757142Y-71422000D01*
X194814285Y-71374380D01*
X194957142Y-71374380D01*
X195042857Y-71422000D01*
X195214285Y-71374380D02*
X195557142Y-71374380D01*
X195385714Y-72374380D02*
X195385714Y-71374380D01*
X195757142Y-71993428D02*
X196214285Y-71993428D01*
X196499999Y-71707714D02*
X196957142Y-71993428D01*
X196499999Y-72279142D01*
X192928571Y-76930571D02*
X193128571Y-76930571D01*
X193214285Y-77454380D02*
X192928571Y-77454380D01*
X192928571Y-76454380D01*
X193214285Y-76454380D01*
X193471428Y-77454380D02*
X193471428Y-76454380D01*
X193814285Y-77454380D01*
X193814285Y-76454380D01*
X194442857Y-77359142D02*
X194414285Y-77406761D01*
X194328571Y-77454380D01*
X194271428Y-77454380D01*
X194185714Y-77406761D01*
X194128571Y-77311523D01*
X194099999Y-77216285D01*
X194071428Y-77025809D01*
X194071428Y-76882952D01*
X194099999Y-76692476D01*
X194128571Y-76597238D01*
X194185714Y-76502000D01*
X194271428Y-76454380D01*
X194328571Y-76454380D01*
X194414285Y-76502000D01*
X194442857Y-76549619D01*
X194557142Y-77549619D02*
X195014285Y-77549619D01*
X195357142Y-76930571D02*
X195442857Y-76978190D01*
X195471428Y-77025809D01*
X195499999Y-77121047D01*
X195499999Y-77263904D01*
X195471428Y-77359142D01*
X195442857Y-77406761D01*
X195385714Y-77454380D01*
X195157142Y-77454380D01*
X195157142Y-76454380D01*
X195357142Y-76454380D01*
X195414285Y-76502000D01*
X195442857Y-76549619D01*
X195471428Y-76644857D01*
X195471428Y-76740095D01*
X195442857Y-76835333D01*
X195414285Y-76882952D01*
X195357142Y-76930571D01*
X195157142Y-76930571D01*
X195757142Y-77073428D02*
X196214285Y-77073428D01*
X196499999Y-76787714D02*
X196957142Y-77073428D01*
X196499999Y-77359142D01*
X208835715Y-95234380D02*
X208635715Y-94758190D01*
X208492857Y-95234380D02*
X208492857Y-94234380D01*
X208721429Y-94234380D01*
X208778572Y-94282000D01*
X208807143Y-94329619D01*
X208835715Y-94424857D01*
X208835715Y-94567714D01*
X208807143Y-94662952D01*
X208778572Y-94710571D01*
X208721429Y-94758190D01*
X208492857Y-94758190D01*
X209207143Y-94234380D02*
X209321429Y-94234380D01*
X209378572Y-94282000D01*
X209435715Y-94377238D01*
X209464286Y-94567714D01*
X209464286Y-94901047D01*
X209435715Y-95091523D01*
X209378572Y-95186761D01*
X209321429Y-95234380D01*
X209207143Y-95234380D01*
X209150000Y-95186761D01*
X209092857Y-95091523D01*
X209064286Y-94901047D01*
X209064286Y-94567714D01*
X209092857Y-94377238D01*
X209150000Y-94282000D01*
X209207143Y-94234380D01*
X209664286Y-94234380D02*
X209807143Y-95234380D01*
X209921429Y-94520095D01*
X210035715Y-95234380D01*
X210178572Y-94234380D01*
X210350000Y-94234380D02*
X210721429Y-94234380D01*
X210521429Y-94615333D01*
X210607143Y-94615333D01*
X210664286Y-94662952D01*
X210692857Y-94710571D01*
X210721429Y-94805809D01*
X210721429Y-95043904D01*
X210692857Y-95139142D01*
X210664286Y-95186761D01*
X210607143Y-95234380D01*
X210435715Y-95234380D01*
X210378572Y-95186761D01*
X210350000Y-95139142D01*
X210978572Y-94853428D02*
X211435715Y-94853428D01*
X211721429Y-94567714D02*
X212178572Y-94853428D01*
X211721429Y-95139142D01*
X210149999Y-82439142D02*
X210121428Y-82486761D01*
X210035714Y-82534380D01*
X209978571Y-82534380D01*
X209892857Y-82486761D01*
X209835714Y-82391523D01*
X209807142Y-82296285D01*
X209778571Y-82105809D01*
X209778571Y-81962952D01*
X209807142Y-81772476D01*
X209835714Y-81677238D01*
X209892857Y-81582000D01*
X209978571Y-81534380D01*
X210035714Y-81534380D01*
X210121428Y-81582000D01*
X210149999Y-81629619D01*
X210664285Y-81867714D02*
X210664285Y-82534380D01*
X210521428Y-81486761D02*
X210378571Y-82201047D01*
X210749999Y-82201047D01*
X210978571Y-82153428D02*
X211435714Y-82153428D01*
X211721428Y-81867714D02*
X212178571Y-82153428D01*
X211721428Y-82439142D01*
X193814286Y-95139142D02*
X193785714Y-95186761D01*
X193700000Y-95234380D01*
X193642857Y-95234380D01*
X193557143Y-95186761D01*
X193500000Y-95091523D01*
X193471428Y-94996285D01*
X193442857Y-94805809D01*
X193442857Y-94662952D01*
X193471428Y-94472476D01*
X193500000Y-94377238D01*
X193557143Y-94282000D01*
X193642857Y-94234380D01*
X193700000Y-94234380D01*
X193785714Y-94282000D01*
X193814286Y-94329619D01*
X194185714Y-94234380D02*
X194300000Y-94234380D01*
X194357143Y-94282000D01*
X194414286Y-94377238D01*
X194442857Y-94567714D01*
X194442857Y-94901047D01*
X194414286Y-95091523D01*
X194357143Y-95186761D01*
X194300000Y-95234380D01*
X194185714Y-95234380D01*
X194128571Y-95186761D01*
X194071428Y-95091523D01*
X194042857Y-94901047D01*
X194042857Y-94567714D01*
X194071428Y-94377238D01*
X194128571Y-94282000D01*
X194185714Y-94234380D01*
X194985714Y-95234380D02*
X194700000Y-95234380D01*
X194700000Y-94234380D01*
X195471428Y-94234380D02*
X195185714Y-94234380D01*
X195157143Y-94710571D01*
X195185714Y-94662952D01*
X195242857Y-94615333D01*
X195385714Y-94615333D01*
X195442857Y-94662952D01*
X195471428Y-94710571D01*
X195500000Y-94805809D01*
X195500000Y-95043904D01*
X195471428Y-95139142D01*
X195442857Y-95186761D01*
X195385714Y-95234380D01*
X195242857Y-95234380D01*
X195185714Y-95186761D01*
X195157143Y-95139142D01*
X195757143Y-94853428D02*
X196214286Y-94853428D01*
X196500000Y-94567714D02*
X196957143Y-94853428D01*
X196500000Y-95139142D01*
X208835715Y-90154380D02*
X208635715Y-89678190D01*
X208492857Y-90154380D02*
X208492857Y-89154380D01*
X208721429Y-89154380D01*
X208778572Y-89202000D01*
X208807143Y-89249619D01*
X208835715Y-89344857D01*
X208835715Y-89487714D01*
X208807143Y-89582952D01*
X208778572Y-89630571D01*
X208721429Y-89678190D01*
X208492857Y-89678190D01*
X209207143Y-89154380D02*
X209321429Y-89154380D01*
X209378572Y-89202000D01*
X209435715Y-89297238D01*
X209464286Y-89487714D01*
X209464286Y-89821047D01*
X209435715Y-90011523D01*
X209378572Y-90106761D01*
X209321429Y-90154380D01*
X209207143Y-90154380D01*
X209150000Y-90106761D01*
X209092857Y-90011523D01*
X209064286Y-89821047D01*
X209064286Y-89487714D01*
X209092857Y-89297238D01*
X209150000Y-89202000D01*
X209207143Y-89154380D01*
X209664286Y-89154380D02*
X209807143Y-90154380D01*
X209921429Y-89440095D01*
X210035715Y-90154380D01*
X210178572Y-89154380D01*
X210721429Y-90154380D02*
X210378572Y-90154380D01*
X210550000Y-90154380D02*
X210550000Y-89154380D01*
X210492857Y-89297238D01*
X210435715Y-89392476D01*
X210378572Y-89440095D01*
X210978572Y-89773428D02*
X211435715Y-89773428D01*
X211721429Y-89487714D02*
X212178572Y-89773428D01*
X211721429Y-90059142D01*
X193814286Y-90059142D02*
X193785714Y-90106761D01*
X193700000Y-90154380D01*
X193642857Y-90154380D01*
X193557143Y-90106761D01*
X193500000Y-90011523D01*
X193471428Y-89916285D01*
X193442857Y-89725809D01*
X193442857Y-89582952D01*
X193471428Y-89392476D01*
X193500000Y-89297238D01*
X193557143Y-89202000D01*
X193642857Y-89154380D01*
X193700000Y-89154380D01*
X193785714Y-89202000D01*
X193814286Y-89249619D01*
X194185714Y-89154380D02*
X194300000Y-89154380D01*
X194357143Y-89202000D01*
X194414286Y-89297238D01*
X194442857Y-89487714D01*
X194442857Y-89821047D01*
X194414286Y-90011523D01*
X194357143Y-90106761D01*
X194300000Y-90154380D01*
X194185714Y-90154380D01*
X194128571Y-90106761D01*
X194071428Y-90011523D01*
X194042857Y-89821047D01*
X194042857Y-89487714D01*
X194071428Y-89297238D01*
X194128571Y-89202000D01*
X194185714Y-89154380D01*
X194985714Y-90154380D02*
X194700000Y-90154380D01*
X194700000Y-89154380D01*
X195128571Y-89154380D02*
X195500000Y-89154380D01*
X195300000Y-89535333D01*
X195385714Y-89535333D01*
X195442857Y-89582952D01*
X195471428Y-89630571D01*
X195500000Y-89725809D01*
X195500000Y-89963904D01*
X195471428Y-90059142D01*
X195442857Y-90106761D01*
X195385714Y-90154380D01*
X195214286Y-90154380D01*
X195157143Y-90106761D01*
X195128571Y-90059142D01*
X195757143Y-89773428D02*
X196214286Y-89773428D01*
X196500000Y-89487714D02*
X196957143Y-89773428D01*
X196500000Y-90059142D01*
X209464286Y-73962000D02*
X209407143Y-73914380D01*
X209321428Y-73914380D01*
X209235714Y-73962000D01*
X209178571Y-74057238D01*
X209150000Y-74152476D01*
X209121428Y-74342952D01*
X209121428Y-74485809D01*
X209150000Y-74676285D01*
X209178571Y-74771523D01*
X209235714Y-74866761D01*
X209321428Y-74914380D01*
X209378571Y-74914380D01*
X209464286Y-74866761D01*
X209492857Y-74819142D01*
X209492857Y-74485809D01*
X209378571Y-74485809D01*
X209750000Y-74914380D02*
X209750000Y-73914380D01*
X210092857Y-74914380D01*
X210092857Y-73914380D01*
X210378571Y-74914380D02*
X210378571Y-73914380D01*
X210521428Y-73914380D01*
X210607143Y-73962000D01*
X210664286Y-74057238D01*
X210692857Y-74152476D01*
X210721428Y-74342952D01*
X210721428Y-74485809D01*
X210692857Y-74676285D01*
X210664286Y-74771523D01*
X210607143Y-74866761D01*
X210521428Y-74914380D01*
X210378571Y-74914380D01*
X210978571Y-74533428D02*
X211435714Y-74533428D01*
X211721428Y-74247714D02*
X212178571Y-74533428D01*
X211721428Y-74819142D01*
X205815928Y-71953428D02*
X206501642Y-71953428D01*
X206930214Y-71953428D02*
X207615928Y-71953428D01*
X208044500Y-71667714D02*
X208730214Y-71953428D01*
X208044500Y-72239142D01*
X205815928Y-74421428D02*
X206501642Y-74421428D01*
X206930214Y-74421428D02*
X207615928Y-74421428D01*
X208044500Y-74135714D02*
X208730214Y-74421428D01*
X208044500Y-74707142D01*
X193814286Y-87519142D02*
X193785714Y-87566761D01*
X193700000Y-87614380D01*
X193642857Y-87614380D01*
X193557143Y-87566761D01*
X193500000Y-87471523D01*
X193471428Y-87376285D01*
X193442857Y-87185809D01*
X193442857Y-87042952D01*
X193471428Y-86852476D01*
X193500000Y-86757238D01*
X193557143Y-86662000D01*
X193642857Y-86614380D01*
X193700000Y-86614380D01*
X193785714Y-86662000D01*
X193814286Y-86709619D01*
X194185714Y-86614380D02*
X194300000Y-86614380D01*
X194357143Y-86662000D01*
X194414286Y-86757238D01*
X194442857Y-86947714D01*
X194442857Y-87281047D01*
X194414286Y-87471523D01*
X194357143Y-87566761D01*
X194300000Y-87614380D01*
X194185714Y-87614380D01*
X194128571Y-87566761D01*
X194071428Y-87471523D01*
X194042857Y-87281047D01*
X194042857Y-86947714D01*
X194071428Y-86757238D01*
X194128571Y-86662000D01*
X194185714Y-86614380D01*
X194985714Y-87614380D02*
X194700000Y-87614380D01*
X194700000Y-86614380D01*
X195157143Y-86709619D02*
X195185714Y-86662000D01*
X195242857Y-86614380D01*
X195385714Y-86614380D01*
X195442857Y-86662000D01*
X195471428Y-86709619D01*
X195500000Y-86804857D01*
X195500000Y-86900095D01*
X195471428Y-87042952D01*
X195128571Y-87614380D01*
X195500000Y-87614380D01*
X195757143Y-87233428D02*
X196214286Y-87233428D01*
X196500000Y-86947714D02*
X196957143Y-87233428D01*
X196500000Y-87519142D01*
X209464286Y-71422000D02*
X209407143Y-71374380D01*
X209321428Y-71374380D01*
X209235714Y-71422000D01*
X209178571Y-71517238D01*
X209150000Y-71612476D01*
X209121428Y-71802952D01*
X209121428Y-71945809D01*
X209150000Y-72136285D01*
X209178571Y-72231523D01*
X209235714Y-72326761D01*
X209321428Y-72374380D01*
X209378571Y-72374380D01*
X209464286Y-72326761D01*
X209492857Y-72279142D01*
X209492857Y-71945809D01*
X209378571Y-71945809D01*
X209750000Y-72374380D02*
X209750000Y-71374380D01*
X210092857Y-72374380D01*
X210092857Y-71374380D01*
X210378571Y-72374380D02*
X210378571Y-71374380D01*
X210521428Y-71374380D01*
X210607143Y-71422000D01*
X210664286Y-71517238D01*
X210692857Y-71612476D01*
X210721428Y-71802952D01*
X210721428Y-71945809D01*
X210692857Y-72136285D01*
X210664286Y-72231523D01*
X210607143Y-72326761D01*
X210521428Y-72374380D01*
X210378571Y-72374380D01*
X210978571Y-71993428D02*
X211435714Y-71993428D01*
X211721428Y-71707714D02*
X212178571Y-71993428D01*
X211721428Y-72279142D01*
%TO.C,J4*%
X211257142Y-64703571D02*
X211342857Y-64751190D01*
X211371428Y-64798809D01*
X211400000Y-64894047D01*
X211400000Y-65036904D01*
X211371428Y-65132142D01*
X211342857Y-65179761D01*
X211285714Y-65227380D01*
X211057142Y-65227380D01*
X211057142Y-64227380D01*
X211257142Y-64227380D01*
X211314285Y-64275000D01*
X211342857Y-64322619D01*
X211371428Y-64417857D01*
X211371428Y-64513095D01*
X211342857Y-64608333D01*
X211314285Y-64655952D01*
X211257142Y-64703571D01*
X211057142Y-64703571D01*
X211914285Y-65227380D02*
X211914285Y-64703571D01*
X211885714Y-64608333D01*
X211828571Y-64560714D01*
X211714285Y-64560714D01*
X211657142Y-64608333D01*
X211914285Y-65179761D02*
X211857142Y-65227380D01*
X211714285Y-65227380D01*
X211657142Y-65179761D01*
X211628571Y-65084523D01*
X211628571Y-64989285D01*
X211657142Y-64894047D01*
X211714285Y-64846428D01*
X211857142Y-64846428D01*
X211914285Y-64798809D01*
X212114285Y-64560714D02*
X212342857Y-64560714D01*
X212200000Y-64227380D02*
X212200000Y-65084523D01*
X212228571Y-65179761D01*
X212285714Y-65227380D01*
X212342857Y-65227380D01*
X212400000Y-65322619D02*
X212857142Y-65322619D01*
X213314285Y-64275000D02*
X213257142Y-64227380D01*
X213171428Y-64227380D01*
X213085714Y-64275000D01*
X213028571Y-64370238D01*
X213000000Y-64465476D01*
X212971428Y-64655952D01*
X212971428Y-64798809D01*
X213000000Y-64989285D01*
X213028571Y-65084523D01*
X213085714Y-65179761D01*
X213171428Y-65227380D01*
X213228571Y-65227380D01*
X213314285Y-65179761D01*
X213342857Y-65132142D01*
X213342857Y-64798809D01*
X213228571Y-64798809D01*
X213600000Y-65227380D02*
X213600000Y-64227380D01*
X213942857Y-65227380D01*
X213942857Y-64227380D01*
X214228571Y-65227380D02*
X214228571Y-64227380D01*
X214371428Y-64227380D01*
X214457142Y-64275000D01*
X214514285Y-64370238D01*
X214542857Y-64465476D01*
X214571428Y-64655952D01*
X214571428Y-64798809D01*
X214542857Y-64989285D01*
X214514285Y-65084523D01*
X214457142Y-65179761D01*
X214371428Y-65227380D01*
X214228571Y-65227380D01*
%TO.C,R2*%
X216017142Y-86185714D02*
X215588571Y-86385714D01*
X216017142Y-86528571D02*
X215117142Y-86528571D01*
X215117142Y-86300000D01*
X215160000Y-86242857D01*
X215202857Y-86214285D01*
X215288571Y-86185714D01*
X215417142Y-86185714D01*
X215502857Y-86214285D01*
X215545714Y-86242857D01*
X215588571Y-86300000D01*
X215588571Y-86528571D01*
X215931428Y-85928571D02*
X215974285Y-85900000D01*
X216017142Y-85928571D01*
X215974285Y-85957142D01*
X215931428Y-85928571D01*
X216017142Y-85928571D01*
X215460000Y-85928571D02*
X215502857Y-85900000D01*
X215545714Y-85928571D01*
X215502857Y-85957142D01*
X215460000Y-85928571D01*
X215545714Y-85928571D01*
X216017142Y-85642857D02*
X215117142Y-85642857D01*
X215202857Y-85385714D02*
X215160000Y-85357142D01*
X215117142Y-85300000D01*
X215117142Y-85157142D01*
X215160000Y-85100000D01*
X215202857Y-85071428D01*
X215288571Y-85042857D01*
X215374285Y-85042857D01*
X215502857Y-85071428D01*
X216017142Y-85414285D01*
X216017142Y-85042857D01*
X215931428Y-84442857D02*
X215974285Y-84471428D01*
X216017142Y-84557142D01*
X216017142Y-84614285D01*
X215974285Y-84700000D01*
X215888571Y-84757142D01*
X215802857Y-84785714D01*
X215631428Y-84814285D01*
X215502857Y-84814285D01*
X215331428Y-84785714D01*
X215245714Y-84757142D01*
X215160000Y-84700000D01*
X215117142Y-84614285D01*
X215117142Y-84557142D01*
X215160000Y-84471428D01*
X215202857Y-84442857D01*
%TO.C,J1*%
X210702142Y-101044761D02*
X210787856Y-101092380D01*
X210930713Y-101092380D01*
X210987856Y-101044761D01*
X211016428Y-100997142D01*
X211044999Y-100901904D01*
X211044999Y-100806666D01*
X211016428Y-100711428D01*
X210987856Y-100663809D01*
X210930713Y-100616190D01*
X210816428Y-100568571D01*
X210759285Y-100520952D01*
X210730713Y-100473333D01*
X210702142Y-100378095D01*
X210702142Y-100282857D01*
X210730713Y-100187619D01*
X210759285Y-100140000D01*
X210816428Y-100092380D01*
X210959285Y-100092380D01*
X211044999Y-100140000D01*
X211644999Y-100997142D02*
X211616428Y-101044761D01*
X211530713Y-101092380D01*
X211473570Y-101092380D01*
X211387856Y-101044761D01*
X211330713Y-100949523D01*
X211302142Y-100854285D01*
X211273570Y-100663809D01*
X211273570Y-100520952D01*
X211302142Y-100330476D01*
X211330713Y-100235238D01*
X211387856Y-100140000D01*
X211473570Y-100092380D01*
X211530713Y-100092380D01*
X211616428Y-100140000D01*
X211644999Y-100187619D01*
X212187856Y-101092380D02*
X211902142Y-101092380D01*
X211902142Y-100092380D01*
X216082619Y-100140000D02*
X216025476Y-100092380D01*
X215939762Y-100092380D01*
X215854047Y-100140000D01*
X215796904Y-100235238D01*
X215768333Y-100330476D01*
X215739762Y-100520952D01*
X215739762Y-100663809D01*
X215768333Y-100854285D01*
X215796904Y-100949523D01*
X215854047Y-101044761D01*
X215939762Y-101092380D01*
X215996904Y-101092380D01*
X216082619Y-101044761D01*
X216111190Y-100997142D01*
X216111190Y-100663809D01*
X215996904Y-100663809D01*
X216368333Y-101092380D02*
X216368333Y-100092380D01*
X216711190Y-101092380D01*
X216711190Y-100092380D01*
X216996904Y-101092380D02*
X216996904Y-100092380D01*
X217139762Y-100092380D01*
X217225476Y-100140000D01*
X217282619Y-100235238D01*
X217311190Y-100330476D01*
X217339762Y-100520952D01*
X217339762Y-100663809D01*
X217311190Y-100854285D01*
X217282619Y-100949523D01*
X217225476Y-101044761D01*
X217139762Y-101092380D01*
X216996904Y-101092380D01*
X205659762Y-100092380D02*
X205859762Y-101092380D01*
X206059762Y-100092380D01*
X206602619Y-100997142D02*
X206574047Y-101044761D01*
X206488333Y-101092380D01*
X206431190Y-101092380D01*
X206345476Y-101044761D01*
X206288333Y-100949523D01*
X206259762Y-100854285D01*
X206231190Y-100663809D01*
X206231190Y-100520952D01*
X206259762Y-100330476D01*
X206288333Y-100235238D01*
X206345476Y-100140000D01*
X206431190Y-100092380D01*
X206488333Y-100092380D01*
X206574047Y-100140000D01*
X206602619Y-100187619D01*
X207202619Y-100997142D02*
X207174047Y-101044761D01*
X207088333Y-101092380D01*
X207031190Y-101092380D01*
X206945476Y-101044761D01*
X206888333Y-100949523D01*
X206859762Y-100854285D01*
X206831190Y-100663809D01*
X206831190Y-100520952D01*
X206859762Y-100330476D01*
X206888333Y-100235238D01*
X206945476Y-100140000D01*
X207031190Y-100092380D01*
X207088333Y-100092380D01*
X207174047Y-100140000D01*
X207202619Y-100187619D01*
X213485237Y-100140000D02*
X213428094Y-100092380D01*
X213342380Y-100092380D01*
X213256665Y-100140000D01*
X213199522Y-100235238D01*
X213170951Y-100330476D01*
X213142380Y-100520952D01*
X213142380Y-100663809D01*
X213170951Y-100854285D01*
X213199522Y-100949523D01*
X213256665Y-101044761D01*
X213342380Y-101092380D01*
X213399522Y-101092380D01*
X213485237Y-101044761D01*
X213513808Y-100997142D01*
X213513808Y-100663809D01*
X213399522Y-100663809D01*
X213770951Y-101092380D02*
X213770951Y-100092380D01*
X214113808Y-101092380D01*
X214113808Y-100092380D01*
X214399522Y-101092380D02*
X214399522Y-100092380D01*
X214542380Y-100092380D01*
X214628094Y-100140000D01*
X214685237Y-100235238D01*
X214713808Y-100330476D01*
X214742380Y-100520952D01*
X214742380Y-100663809D01*
X214713808Y-100854285D01*
X214685237Y-100949523D01*
X214628094Y-101044761D01*
X214542380Y-101092380D01*
X214399522Y-101092380D01*
X208221428Y-101044761D02*
X208307142Y-101092380D01*
X208450000Y-101092380D01*
X208507142Y-101044761D01*
X208535714Y-100997142D01*
X208564285Y-100901904D01*
X208564285Y-100806666D01*
X208535714Y-100711428D01*
X208507142Y-100663809D01*
X208450000Y-100616190D01*
X208335714Y-100568571D01*
X208278571Y-100520952D01*
X208250000Y-100473333D01*
X208221428Y-100378095D01*
X208221428Y-100282857D01*
X208250000Y-100187619D01*
X208278571Y-100140000D01*
X208335714Y-100092380D01*
X208478571Y-100092380D01*
X208564285Y-100140000D01*
X208821428Y-101092380D02*
X208821428Y-100092380D01*
X208964285Y-100092380D01*
X209050000Y-100140000D01*
X209107142Y-100235238D01*
X209135714Y-100330476D01*
X209164285Y-100520952D01*
X209164285Y-100663809D01*
X209135714Y-100854285D01*
X209107142Y-100949523D01*
X209050000Y-101044761D01*
X208964285Y-101092380D01*
X208821428Y-101092380D01*
X209392857Y-100806666D02*
X209678571Y-100806666D01*
X209335714Y-101092380D02*
X209535714Y-100092380D01*
X209735714Y-101092380D01*
%TO.C,C1*%
X205400000Y-66631428D02*
X205371428Y-66674285D01*
X205285714Y-66717142D01*
X205228571Y-66717142D01*
X205142857Y-66674285D01*
X205085714Y-66588571D01*
X205057142Y-66502857D01*
X205028571Y-66331428D01*
X205028571Y-66202857D01*
X205057142Y-66031428D01*
X205085714Y-65945714D01*
X205142857Y-65860000D01*
X205228571Y-65817142D01*
X205285714Y-65817142D01*
X205371428Y-65860000D01*
X205400000Y-65902857D01*
X205971428Y-66717142D02*
X205628571Y-66717142D01*
X205800000Y-66717142D02*
X205800000Y-65817142D01*
X205742857Y-65945714D01*
X205685714Y-66031428D01*
X205628571Y-66074285D01*
D10*
%TO.C,SW1*%
X217602380Y-135838095D02*
X217126190Y-136171428D01*
X217602380Y-136409523D02*
X216602380Y-136409523D01*
X216602380Y-136028571D01*
X216650000Y-135933333D01*
X216697619Y-135885714D01*
X216792857Y-135838095D01*
X216935714Y-135838095D01*
X217030952Y-135885714D01*
X217078571Y-135933333D01*
X217126190Y-136028571D01*
X217126190Y-136409523D01*
X217554761Y-135028571D02*
X217602380Y-135123809D01*
X217602380Y-135314285D01*
X217554761Y-135409523D01*
X217459523Y-135457142D01*
X217078571Y-135457142D01*
X216983333Y-135409523D01*
X216935714Y-135314285D01*
X216935714Y-135123809D01*
X216983333Y-135028571D01*
X217078571Y-134980952D01*
X217173809Y-134980952D01*
X217269047Y-135457142D01*
X217554761Y-134600000D02*
X217602380Y-134504761D01*
X217602380Y-134314285D01*
X217554761Y-134219047D01*
X217459523Y-134171428D01*
X217411904Y-134171428D01*
X217316666Y-134219047D01*
X217269047Y-134314285D01*
X217269047Y-134457142D01*
X217221428Y-134552380D01*
X217126190Y-134600000D01*
X217078571Y-134600000D01*
X216983333Y-134552380D01*
X216935714Y-134457142D01*
X216935714Y-134314285D01*
X216983333Y-134219047D01*
X217554761Y-133361904D02*
X217602380Y-133457142D01*
X217602380Y-133647619D01*
X217554761Y-133742857D01*
X217459523Y-133790476D01*
X217078571Y-133790476D01*
X216983333Y-133742857D01*
X216935714Y-133647619D01*
X216935714Y-133457142D01*
X216983333Y-133361904D01*
X217078571Y-133314285D01*
X217173809Y-133314285D01*
X217269047Y-133790476D01*
X216935714Y-133028571D02*
X216935714Y-132647619D01*
X216602380Y-132885714D02*
X217459523Y-132885714D01*
X217554761Y-132838095D01*
X217602380Y-132742857D01*
X217602380Y-132647619D01*
D12*
%TO.C,SW2*%
X218951416Y-113636583D02*
X219101013Y-113619366D01*
X219164296Y-113642399D01*
X219247702Y-113708589D01*
X219308077Y-113838062D01*
X219305168Y-113944502D01*
X219282136Y-114007784D01*
X219215945Y-114091191D01*
X218870685Y-114252188D01*
X218448067Y-113345880D01*
X218750169Y-113205008D01*
X218856609Y-113207916D01*
X218919891Y-113230949D01*
X219003298Y-113297139D01*
X219043548Y-113383454D01*
X219040639Y-113489894D01*
X219017607Y-113553176D01*
X218951416Y-113636583D01*
X218649314Y-113777456D01*
X220165410Y-113648448D02*
X219944039Y-113173715D01*
X219860632Y-113107525D01*
X219754192Y-113104617D01*
X219581562Y-113185115D01*
X219515372Y-113268522D01*
X220145286Y-113605290D02*
X220079095Y-113688697D01*
X219863308Y-113789321D01*
X219756868Y-113786412D01*
X219673461Y-113720222D01*
X219633212Y-113633907D01*
X219636120Y-113527467D01*
X219702310Y-113444060D01*
X219918098Y-113343437D01*
X219984288Y-113260030D01*
X220185768Y-112903370D02*
X220531028Y-112742372D01*
X220174367Y-112540893D02*
X220536612Y-113317729D01*
X220620018Y-113383919D01*
X220726458Y-113386827D01*
X220812773Y-113346578D01*
X220703658Y-112661874D02*
X221048918Y-112500876D01*
X220692258Y-112299397D02*
X221054502Y-113076232D01*
X221137909Y-113142423D01*
X221244348Y-113145331D01*
X221330663Y-113105082D01*
D10*
X219870473Y-111928626D02*
X219789974Y-111755996D01*
X219792882Y-111649556D01*
X219838948Y-111522992D01*
X219991453Y-111399336D01*
X220293556Y-111258463D01*
X220486311Y-111221122D01*
X220612875Y-111267187D01*
X220696282Y-111333378D01*
X220776781Y-111506008D01*
X220773873Y-111612447D01*
X220727807Y-111739012D01*
X220575302Y-111862668D01*
X220273199Y-112003541D01*
X220080444Y-112040882D01*
X219953880Y-111994816D01*
X219870473Y-111928626D01*
X220414536Y-110729172D02*
X219508229Y-111151791D01*
X220173040Y-110211282D01*
X219266733Y-110633901D01*
D12*
%TO.C,R1*%
X215982142Y-92255714D02*
X215553571Y-92455714D01*
X215982142Y-92598571D02*
X215082142Y-92598571D01*
X215082142Y-92370000D01*
X215125000Y-92312857D01*
X215167857Y-92284285D01*
X215253571Y-92255714D01*
X215382142Y-92255714D01*
X215467857Y-92284285D01*
X215510714Y-92312857D01*
X215553571Y-92370000D01*
X215553571Y-92598571D01*
X215896428Y-91998571D02*
X215939285Y-91970000D01*
X215982142Y-91998571D01*
X215939285Y-92027142D01*
X215896428Y-91998571D01*
X215982142Y-91998571D01*
X215425000Y-91998571D02*
X215467857Y-91970000D01*
X215510714Y-91998571D01*
X215467857Y-92027142D01*
X215425000Y-91998571D01*
X215510714Y-91998571D01*
X215982142Y-91712857D02*
X215082142Y-91712857D01*
X215167857Y-91455714D02*
X215125000Y-91427142D01*
X215082142Y-91370000D01*
X215082142Y-91227142D01*
X215125000Y-91170000D01*
X215167857Y-91141428D01*
X215253571Y-91112857D01*
X215339285Y-91112857D01*
X215467857Y-91141428D01*
X215982142Y-91484285D01*
X215982142Y-91112857D01*
X215896428Y-90512857D02*
X215939285Y-90541428D01*
X215982142Y-90627142D01*
X215982142Y-90684285D01*
X215939285Y-90770000D01*
X215853571Y-90827142D01*
X215767857Y-90855714D01*
X215596428Y-90884285D01*
X215467857Y-90884285D01*
X215296428Y-90855714D01*
X215210714Y-90827142D01*
X215125000Y-90770000D01*
X215082142Y-90684285D01*
X215082142Y-90627142D01*
X215125000Y-90541428D01*
X215167857Y-90512857D01*
%TO.C,J3*%
X196477142Y-64698571D02*
X196562857Y-64746190D01*
X196591428Y-64793809D01*
X196620000Y-64889047D01*
X196620000Y-65031904D01*
X196591428Y-65127142D01*
X196562857Y-65174761D01*
X196505714Y-65222380D01*
X196277142Y-65222380D01*
X196277142Y-64222380D01*
X196477142Y-64222380D01*
X196534285Y-64270000D01*
X196562857Y-64317619D01*
X196591428Y-64412857D01*
X196591428Y-64508095D01*
X196562857Y-64603333D01*
X196534285Y-64650952D01*
X196477142Y-64698571D01*
X196277142Y-64698571D01*
X197134285Y-65222380D02*
X197134285Y-64698571D01*
X197105714Y-64603333D01*
X197048571Y-64555714D01*
X196934285Y-64555714D01*
X196877142Y-64603333D01*
X197134285Y-65174761D02*
X197077142Y-65222380D01*
X196934285Y-65222380D01*
X196877142Y-65174761D01*
X196848571Y-65079523D01*
X196848571Y-64984285D01*
X196877142Y-64889047D01*
X196934285Y-64841428D01*
X197077142Y-64841428D01*
X197134285Y-64793809D01*
X197334285Y-64555714D02*
X197562857Y-64555714D01*
X197420000Y-64222380D02*
X197420000Y-65079523D01*
X197448571Y-65174761D01*
X197505714Y-65222380D01*
X197562857Y-65222380D01*
X197620000Y-65317619D02*
X198077142Y-65317619D01*
X198220000Y-65222380D02*
X198220000Y-64222380D01*
X198448571Y-64222380D01*
X198505714Y-64270000D01*
X198534285Y-64317619D01*
X198562857Y-64412857D01*
X198562857Y-64555714D01*
X198534285Y-64650952D01*
X198505714Y-64698571D01*
X198448571Y-64746190D01*
X198220000Y-64746190D01*
X198905714Y-65222380D02*
X198848571Y-65174761D01*
X198820000Y-65127142D01*
X198791428Y-65031904D01*
X198791428Y-64746190D01*
X198820000Y-64650952D01*
X198848571Y-64603333D01*
X198905714Y-64555714D01*
X198991428Y-64555714D01*
X199048571Y-64603333D01*
X199077142Y-64650952D01*
X199105714Y-64746190D01*
X199105714Y-65031904D01*
X199077142Y-65127142D01*
X199048571Y-65174761D01*
X198991428Y-65222380D01*
X198905714Y-65222380D01*
X199334285Y-65174761D02*
X199391428Y-65222380D01*
X199505714Y-65222380D01*
X199562857Y-65174761D01*
X199591428Y-65079523D01*
X199591428Y-65031904D01*
X199562857Y-64936666D01*
X199505714Y-64889047D01*
X199420000Y-64889047D01*
X199362857Y-64841428D01*
X199334285Y-64746190D01*
X199334285Y-64698571D01*
X199362857Y-64603333D01*
X199420000Y-64555714D01*
X199505714Y-64555714D01*
X199562857Y-64603333D01*
%TO.C,J5*%
X195027142Y-98885714D02*
X195112857Y-98928571D01*
X195141428Y-98971428D01*
X195170000Y-99057142D01*
X195170000Y-99185714D01*
X195141428Y-99271428D01*
X195112857Y-99314285D01*
X195055714Y-99357142D01*
X194827142Y-99357142D01*
X194827142Y-98457142D01*
X195027142Y-98457142D01*
X195084285Y-98500000D01*
X195112857Y-98542857D01*
X195141428Y-98628571D01*
X195141428Y-98714285D01*
X195112857Y-98800000D01*
X195084285Y-98842857D01*
X195027142Y-98885714D01*
X194827142Y-98885714D01*
X195684285Y-99357142D02*
X195684285Y-98885714D01*
X195655714Y-98800000D01*
X195598571Y-98757142D01*
X195484285Y-98757142D01*
X195427142Y-98800000D01*
X195684285Y-99314285D02*
X195627142Y-99357142D01*
X195484285Y-99357142D01*
X195427142Y-99314285D01*
X195398571Y-99228571D01*
X195398571Y-99142857D01*
X195427142Y-99057142D01*
X195484285Y-99014285D01*
X195627142Y-99014285D01*
X195684285Y-98971428D01*
X195884285Y-98757142D02*
X196112857Y-98757142D01*
X195970000Y-98457142D02*
X195970000Y-99228571D01*
X195998571Y-99314285D01*
X196055714Y-99357142D01*
X196112857Y-99357142D01*
X196170000Y-99442857D02*
X196627142Y-99442857D01*
X196770000Y-99357142D02*
X196770000Y-98457142D01*
X196998571Y-98457142D01*
X197055714Y-98500000D01*
X197084285Y-98542857D01*
X197112857Y-98628571D01*
X197112857Y-98757142D01*
X197084285Y-98842857D01*
X197055714Y-98885714D01*
X196998571Y-98928571D01*
X196770000Y-98928571D01*
X197455714Y-99357142D02*
X197398571Y-99314285D01*
X197370000Y-99271428D01*
X197341428Y-99185714D01*
X197341428Y-98928571D01*
X197370000Y-98842857D01*
X197398571Y-98800000D01*
X197455714Y-98757142D01*
X197541428Y-98757142D01*
X197598571Y-98800000D01*
X197627142Y-98842857D01*
X197655714Y-98928571D01*
X197655714Y-99185714D01*
X197627142Y-99271428D01*
X197598571Y-99314285D01*
X197541428Y-99357142D01*
X197455714Y-99357142D01*
X197884285Y-99314285D02*
X197941428Y-99357142D01*
X198055714Y-99357142D01*
X198112857Y-99314285D01*
X198141428Y-99228571D01*
X198141428Y-99185714D01*
X198112857Y-99100000D01*
X198055714Y-99057142D01*
X197970000Y-99057142D01*
X197912857Y-99014285D01*
X197884285Y-98928571D01*
X197884285Y-98885714D01*
X197912857Y-98800000D01*
X197970000Y-98757142D01*
X198055714Y-98757142D01*
X198112857Y-98800000D01*
%TO.C,J6*%
X213247142Y-98878214D02*
X213332857Y-98921071D01*
X213361428Y-98963928D01*
X213390000Y-99049642D01*
X213390000Y-99178214D01*
X213361428Y-99263928D01*
X213332857Y-99306785D01*
X213275714Y-99349642D01*
X213047142Y-99349642D01*
X213047142Y-98449642D01*
X213247142Y-98449642D01*
X213304285Y-98492500D01*
X213332857Y-98535357D01*
X213361428Y-98621071D01*
X213361428Y-98706785D01*
X213332857Y-98792500D01*
X213304285Y-98835357D01*
X213247142Y-98878214D01*
X213047142Y-98878214D01*
X213904285Y-99349642D02*
X213904285Y-98878214D01*
X213875714Y-98792500D01*
X213818571Y-98749642D01*
X213704285Y-98749642D01*
X213647142Y-98792500D01*
X213904285Y-99306785D02*
X213847142Y-99349642D01*
X213704285Y-99349642D01*
X213647142Y-99306785D01*
X213618571Y-99221071D01*
X213618571Y-99135357D01*
X213647142Y-99049642D01*
X213704285Y-99006785D01*
X213847142Y-99006785D01*
X213904285Y-98963928D01*
X214104285Y-98749642D02*
X214332857Y-98749642D01*
X214190000Y-98449642D02*
X214190000Y-99221071D01*
X214218571Y-99306785D01*
X214275714Y-99349642D01*
X214332857Y-99349642D01*
X214390000Y-99435357D02*
X214847142Y-99435357D01*
X215304285Y-98492500D02*
X215247142Y-98449642D01*
X215161428Y-98449642D01*
X215075714Y-98492500D01*
X215018571Y-98578214D01*
X214990000Y-98663928D01*
X214961428Y-98835357D01*
X214961428Y-98963928D01*
X214990000Y-99135357D01*
X215018571Y-99221071D01*
X215075714Y-99306785D01*
X215161428Y-99349642D01*
X215218571Y-99349642D01*
X215304285Y-99306785D01*
X215332857Y-99263928D01*
X215332857Y-98963928D01*
X215218571Y-98963928D01*
X215590000Y-99349642D02*
X215590000Y-98449642D01*
X215932857Y-99349642D01*
X215932857Y-98449642D01*
X216218571Y-99349642D02*
X216218571Y-98449642D01*
X216361428Y-98449642D01*
X216447142Y-98492500D01*
X216504285Y-98578214D01*
X216532857Y-98663928D01*
X216561428Y-98835357D01*
X216561428Y-98963928D01*
X216532857Y-99135357D01*
X216504285Y-99221071D01*
X216447142Y-99306785D01*
X216361428Y-99349642D01*
X216218571Y-99349642D01*
D13*
%TO.C,D3*%
X185994971Y-114510803D02*
X185415415Y-114355512D01*
X185415415Y-114355512D02*
X185570707Y-113775956D01*
X185570707Y-113775956D02*
X185994971Y-114510803D01*
G36*
X185994971Y-114510803D02*
G01*
X185415415Y-114355512D01*
X185570707Y-113775956D01*
X185994971Y-114510803D01*
G37*
X185994971Y-114510803D02*
X185415415Y-114355512D01*
X185570707Y-113775956D01*
X185994971Y-114510803D01*
%TO.C,D5*%
X130530000Y-111210000D02*
X129930000Y-111210000D01*
X129930000Y-111210000D02*
X129930000Y-110610000D01*
X129930000Y-110610000D02*
X130530000Y-111210000D01*
G36*
X130530000Y-111210000D02*
G01*
X129930000Y-111210000D01*
X129930000Y-110610000D01*
X130530000Y-111210000D01*
G37*
X130530000Y-111210000D02*
X129930000Y-111210000D01*
X129930000Y-110610000D01*
X130530000Y-111210000D01*
%TO.C,D2*%
X202792034Y-123066443D02*
X202272419Y-122766443D01*
X202272419Y-122766443D02*
X202572419Y-122246828D01*
X202572419Y-122246828D02*
X202792034Y-123066443D01*
G36*
X202792034Y-123066443D02*
G01*
X202272419Y-122766443D01*
X202572419Y-122246828D01*
X202792034Y-123066443D01*
G37*
X202792034Y-123066443D02*
X202272419Y-122766443D01*
X202572419Y-122246828D01*
X202792034Y-123066443D01*
D12*
%TO.C,J2*%
X222480000Y-129860000D02*
X210480000Y-129860000D01*
X210480000Y-129860000D02*
X210480000Y-123860000D01*
D14*
X223480000Y-128860000D02*
X223480000Y-124860000D01*
X222480000Y-128860000D02*
X223480000Y-128860000D01*
X223480000Y-124860000D02*
X222580000Y-124860000D01*
D12*
X222480000Y-123860000D02*
X222480000Y-129860000D01*
X210480000Y-123860000D02*
X222480000Y-123860000D01*
%TO.C,U1*%
X197166400Y-65572000D02*
X199706400Y-65572000D01*
X197166400Y-96052000D02*
X197166400Y-65572000D01*
X214926400Y-96052000D02*
X212386400Y-96052000D01*
X212386400Y-96052000D02*
X212386400Y-65572000D01*
X199706400Y-65572000D02*
X199706400Y-96052000D01*
X212386400Y-65572000D02*
X214926400Y-65572000D01*
X214926400Y-65572000D02*
X214926400Y-96052000D01*
X199706400Y-96052000D02*
X197166400Y-96052000D01*
D15*
%TO.C,H1*%
X139723866Y-72451952D02*
G75*
G03*
X138690000Y-76602500I19286117J-7008044D01*
G01*
X179330000Y-76602500D02*
G75*
G03*
X178296135Y-72451955I-20320019J-2857506D01*
G01*
X178296135Y-86468046D02*
G75*
G03*
X179330000Y-82317500I-19286185J7008058D01*
G01*
X161867500Y-99780000D02*
G75*
G03*
X166018047Y-98746134I-2857490J20319953D01*
G01*
X157881615Y-90195864D02*
G75*
G03*
X159010000Y-90255000I1128379J10735785D01*
G01*
X160138385Y-68724136D02*
G75*
G03*
X159010000Y-68665000I-1128379J-10735785D01*
G01*
X156152500Y-59140000D02*
G75*
G03*
X152001952Y-60173866I2857496J-20319983D01*
G01*
X166018047Y-60173866D02*
G75*
G03*
X161867500Y-59140000I-7008037J-19286087D01*
G01*
X159010000Y-68665000D02*
G75*
G03*
X157881615Y-68724136I-6J-10794921D01*
G01*
X152001954Y-98746135D02*
G75*
G03*
X156152500Y-99780000I7008058J19286185D01*
G01*
X159010000Y-90255000D02*
G75*
G03*
X160138385Y-90195864I6J10794921D01*
G01*
X138690000Y-82317500D02*
G75*
G03*
X139723866Y-86468047I20319953J2857490D01*
G01*
D14*
%TO.C,K20*%
X139200000Y-125100000D02*
X139500000Y-124800000D01*
X139500000Y-124800000D02*
X139800000Y-125100000D01*
X139800000Y-125100000D02*
X139200000Y-125100000D01*
%TO.C,D7*%
X115580000Y-76540000D02*
X114650000Y-76540000D01*
X112420000Y-76540000D02*
X113350000Y-76540000D01*
X115580000Y-76540000D02*
X115580000Y-78000000D01*
X112420000Y-76540000D02*
X112420000Y-78700000D01*
%TO.C,D13*%
X112420000Y-110540000D02*
X113350000Y-110540000D01*
X115580000Y-110540000D02*
X114650000Y-110540000D01*
X112420000Y-110540000D02*
X112420000Y-112700000D01*
X115580000Y-110540000D02*
X115580000Y-112000000D01*
%TO.C,D8*%
X130420000Y-64540000D02*
X130420000Y-66700000D01*
X133580000Y-64540000D02*
X133580000Y-66000000D01*
X130420000Y-64540000D02*
X131350000Y-64540000D01*
X133580000Y-64540000D02*
X132650000Y-64540000D01*
%TO.C,D10*%
X115580000Y-93540000D02*
X115580000Y-95000000D01*
X115580000Y-93540000D02*
X114650000Y-93540000D01*
X112420000Y-93540000D02*
X113350000Y-93540000D01*
X112420000Y-93540000D02*
X112420000Y-95700000D01*
%TO.C,D11*%
X133580000Y-81540000D02*
X133580000Y-83000000D01*
X130420000Y-81540000D02*
X130420000Y-83700000D01*
X130420000Y-81540000D02*
X131350000Y-81540000D01*
X133580000Y-81540000D02*
X132650000Y-81540000D01*
%TO.C,D14*%
X133580000Y-98540000D02*
X132650000Y-98540000D01*
X130420000Y-98540000D02*
X130420000Y-100700000D01*
X130420000Y-98540000D02*
X131350000Y-98540000D01*
X133580000Y-98540000D02*
X133580000Y-100000000D01*
%TO.C,D9*%
X166420000Y-63040000D02*
X166420000Y-65200000D01*
X166420000Y-63040000D02*
X167350000Y-63040000D01*
X169580000Y-63040000D02*
X168650000Y-63040000D01*
X169580000Y-63040000D02*
X169580000Y-64500000D01*
%TO.C,D12*%
X169580000Y-80040000D02*
X168650000Y-80040000D01*
X166420000Y-80040000D02*
X166420000Y-82200000D01*
X169580000Y-80040000D02*
X169580000Y-81500000D01*
X166420000Y-80040000D02*
X167350000Y-80040000D01*
%TO.C,D15*%
X169580000Y-97040000D02*
X169580000Y-98500000D01*
X166420000Y-97040000D02*
X166420000Y-99200000D01*
X169580000Y-97040000D02*
X168650000Y-97040000D01*
X166420000Y-97040000D02*
X167350000Y-97040000D01*
%TO.C,D17*%
X174564091Y-125783479D02*
X174005042Y-127869879D01*
X174564091Y-125783479D02*
X175462402Y-126024181D01*
X177616416Y-126601347D02*
X177238540Y-128011599D01*
X177616416Y-126601347D02*
X176718105Y-126360646D01*
%TO.C,D18*%
X207237118Y-143860020D02*
X207894728Y-144517629D01*
X209471576Y-146094478D02*
X208439200Y-147126853D01*
X207237118Y-143860020D02*
X205709768Y-145387371D01*
X209471576Y-146094478D02*
X208813967Y-145436868D01*
%TO.C,D16*%
X159080000Y-123440000D02*
X159080000Y-124900000D01*
X155920000Y-123440000D02*
X156850000Y-123440000D01*
X155920000Y-123440000D02*
X155920000Y-125600000D01*
X159080000Y-123440000D02*
X158150000Y-123440000D01*
D13*
%TO.C,D4*%
X164268488Y-109615922D02*
X163668488Y-109615922D01*
X163668488Y-109615922D02*
X163668488Y-109015922D01*
X163668488Y-109015922D02*
X164268488Y-109615922D01*
G36*
X164268488Y-109615922D02*
G01*
X163668488Y-109615922D01*
X163668488Y-109015922D01*
X164268488Y-109615922D01*
G37*
X164268488Y-109615922D02*
X163668488Y-109615922D01*
X163668488Y-109015922D01*
X164268488Y-109615922D01*
%TO.C,D1*%
X208226327Y-106579962D02*
X207706712Y-106279962D01*
X207706712Y-106279962D02*
X208006712Y-105760347D01*
X208006712Y-105760347D02*
X208226327Y-106579962D01*
G36*
X208226327Y-106579962D02*
G01*
X207706712Y-106279962D01*
X208006712Y-105760347D01*
X208226327Y-106579962D01*
G37*
X208226327Y-106579962D02*
X207706712Y-106279962D01*
X208006712Y-105760347D01*
X208226327Y-106579962D01*
D12*
%TO.C,J4*%
X210800000Y-63790000D02*
X208800000Y-63790000D01*
X210800000Y-65790000D02*
X210800000Y-63790000D01*
X208800000Y-63790000D02*
X208800000Y-65790000D01*
X208800000Y-65790000D02*
X210800000Y-65790000D01*
D14*
%TO.C,R2*%
X217605000Y-88247064D02*
X217605000Y-87792936D01*
X216135000Y-88247064D02*
X216135000Y-87792936D01*
%TO.C,J1*%
X215280000Y-100897500D02*
X215280000Y-103557500D01*
X216550000Y-103557500D02*
X217880000Y-103557500D01*
X205060000Y-100897500D02*
X205060000Y-103557500D01*
X217880000Y-102227500D02*
X217880000Y-103557500D01*
X215280000Y-103557500D02*
X205060000Y-103557500D01*
%TO.C,C1*%
X205238748Y-65455000D02*
X205761252Y-65455000D01*
X205238748Y-63985000D02*
X205761252Y-63985000D01*
%TO.C,SW1*%
X217980000Y-136050000D02*
X217980000Y-133150000D01*
X223420000Y-136050000D02*
X223420000Y-133150000D01*
X223420000Y-136050000D02*
X222930000Y-136540000D01*
X223420000Y-133150000D02*
X222930000Y-132660000D01*
X221740000Y-131880000D02*
X219660000Y-131880000D01*
X217980000Y-133150000D02*
X218470000Y-132660000D01*
X221740000Y-137320000D02*
X219660000Y-137320000D01*
X217980000Y-136050000D02*
X218470000Y-136540000D01*
%TO.C,R1*%
X217580000Y-94347064D02*
X217580000Y-93892936D01*
X216110000Y-94347064D02*
X216110000Y-93892936D01*
D12*
%TO.C,J3*%
X201900000Y-63790000D02*
X199900000Y-63790000D01*
X199900000Y-65790000D02*
X201900000Y-65790000D01*
X201900000Y-65790000D02*
X201900000Y-63790000D01*
X199900000Y-63790000D02*
X199900000Y-65790000D01*
%TO.C,J5*%
X200350000Y-97920000D02*
X198350000Y-97920000D01*
X200350000Y-99920000D02*
X200350000Y-97920000D01*
X198350000Y-97920000D02*
X198350000Y-99920000D01*
X198350000Y-99920000D02*
X200350000Y-99920000D01*
%TO.C,J6*%
X212760000Y-99920000D02*
X212760000Y-97920000D01*
X210760000Y-99920000D02*
X212760000Y-99920000D01*
X212760000Y-97920000D02*
X210760000Y-97920000D01*
X210760000Y-97920000D02*
X210760000Y-99920000D01*
%TD*%
D16*
%TO.C,J2*%
X213980000Y-125110000D03*
X220980000Y-125110000D03*
X220980000Y-126860000D03*
X213980000Y-126860000D03*
%TD*%
D17*
%TO.C,J4*%
X209800000Y-64790000D03*
%TD*%
%TO.C,J3*%
X200900000Y-64790000D03*
%TD*%
%TO.C,J5*%
X199350000Y-98920000D03*
%TD*%
%TO.C,J6*%
X211760000Y-98920000D03*
%TD*%
%LPC*%
D18*
X143102857Y-107714285D02*
X143102857Y-105914285D01*
X143102857Y-106771428D02*
X144131428Y-106771428D01*
X144131428Y-107714285D02*
X144131428Y-105914285D01*
X144988571Y-107714285D02*
X144988571Y-106514285D01*
X144988571Y-105914285D02*
X144902857Y-106000000D01*
X144988571Y-106085714D01*
X145074285Y-106000000D01*
X144988571Y-105914285D01*
X144988571Y-106085714D01*
X146102857Y-107714285D02*
X145931428Y-107628571D01*
X145845714Y-107457142D01*
X145845714Y-105914285D01*
X147045714Y-107714285D02*
X146874285Y-107628571D01*
X146788571Y-107457142D01*
X146788571Y-105914285D01*
X147645714Y-107628571D02*
X147817142Y-107714285D01*
X148160000Y-107714285D01*
X148331428Y-107628571D01*
X148417142Y-107457142D01*
X148417142Y-107371428D01*
X148331428Y-107200000D01*
X148160000Y-107114285D01*
X147902857Y-107114285D01*
X147731428Y-107028571D01*
X147645714Y-106857142D01*
X147645714Y-106771428D01*
X147731428Y-106600000D01*
X147902857Y-106514285D01*
X148160000Y-106514285D01*
X148331428Y-106600000D01*
X149188571Y-107714285D02*
X149188571Y-106514285D01*
X149188571Y-105914285D02*
X149102857Y-106000000D01*
X149188571Y-106085714D01*
X149274285Y-106000000D01*
X149188571Y-105914285D01*
X149188571Y-106085714D01*
X150817142Y-107714285D02*
X150817142Y-105914285D01*
X150817142Y-107628571D02*
X150645714Y-107714285D01*
X150302857Y-107714285D01*
X150131428Y-107628571D01*
X150045714Y-107542857D01*
X149960000Y-107371428D01*
X149960000Y-106857142D01*
X150045714Y-106685714D01*
X150131428Y-106600000D01*
X150302857Y-106514285D01*
X150645714Y-106514285D01*
X150817142Y-106600000D01*
X152360000Y-107628571D02*
X152188571Y-107714285D01*
X151845714Y-107714285D01*
X151674285Y-107628571D01*
X151588571Y-107457142D01*
X151588571Y-106771428D01*
X151674285Y-106600000D01*
X151845714Y-106514285D01*
X152188571Y-106514285D01*
X152360000Y-106600000D01*
X152445714Y-106771428D01*
X152445714Y-106942857D01*
X151588571Y-107114285D01*
X154931428Y-105914285D02*
X155102857Y-105914285D01*
X155274285Y-106000000D01*
X155360000Y-106085714D01*
X155445714Y-106257142D01*
X155531428Y-106600000D01*
X155531428Y-107028571D01*
X155445714Y-107371428D01*
X155360000Y-107542857D01*
X155274285Y-107628571D01*
X155102857Y-107714285D01*
X154931428Y-107714285D01*
X154760000Y-107628571D01*
X154674285Y-107542857D01*
X154588571Y-107371428D01*
X154502857Y-107028571D01*
X154502857Y-106600000D01*
X154588571Y-106257142D01*
X154674285Y-106085714D01*
X154760000Y-106000000D01*
X154931428Y-105914285D01*
X156302857Y-107542857D02*
X156388571Y-107628571D01*
X156302857Y-107714285D01*
X156217142Y-107628571D01*
X156302857Y-107542857D01*
X156302857Y-107714285D01*
X158102857Y-107714285D02*
X157074285Y-107714285D01*
X157588571Y-107714285D02*
X157588571Y-105914285D01*
X157417142Y-106171428D01*
X157245714Y-106342857D01*
X157074285Y-106428571D01*
D19*
%TO.C,D3*%
X180246659Y-115196391D03*
X180634887Y-113747503D03*
D20*
X185609405Y-115080421D03*
D19*
X185221177Y-116529309D03*
%TD*%
D21*
%TO.C,D5*%
X125155000Y-113360000D03*
X125155000Y-111860000D03*
D22*
X130305000Y-111860000D03*
D21*
X130305000Y-113360000D03*
%TD*%
D23*
%TO.C,D2*%
X197062148Y-122240898D03*
X197812148Y-120941860D03*
D24*
X202272178Y-123516860D03*
D23*
X201522178Y-124815898D03*
%TD*%
D16*
%TO.C,J2*%
X213980000Y-125110000D03*
X220980000Y-125110000D03*
X220980000Y-126860000D03*
X213980000Y-126860000D03*
D25*
X216180000Y-123010000D03*
X219180000Y-123010000D03*
X210680000Y-127210000D03*
X212180000Y-123010000D03*
%TD*%
D26*
%TO.C,U1*%
X197110000Y-68112000D03*
X197110000Y-70652000D03*
X197110000Y-73192000D03*
X197110000Y-75732000D03*
X197110000Y-78272000D03*
X197110000Y-80812000D03*
X197110000Y-83352000D03*
X197110000Y-85892000D03*
X197110000Y-88432000D03*
X197110000Y-90972000D03*
X197110000Y-93512000D03*
X197110000Y-96052000D03*
X212350000Y-96052000D03*
X212350000Y-93512000D03*
X212350000Y-90972000D03*
X212350000Y-88432000D03*
X212350000Y-85892000D03*
X212350000Y-83352000D03*
X212350000Y-80812000D03*
X212350000Y-78272000D03*
X212350000Y-75732000D03*
X212350000Y-73192000D03*
X212350000Y-70652000D03*
X212350000Y-68112000D03*
%TD*%
D27*
%TO.C,H2*%
X198200000Y-106295000D03*
X217800000Y-117170000D03*
%TD*%
D28*
%TO.C,H1*%
X159010000Y-60410000D03*
X159010000Y-98510000D03*
X139960000Y-79460000D03*
X178060000Y-79460000D03*
%TD*%
D29*
%TO.C,K20*%
X132000000Y-121000000D03*
D30*
X132000000Y-115400000D03*
D31*
X126500000Y-121000000D03*
D32*
X139500000Y-123500000D03*
D33*
X139500000Y-118500000D03*
D31*
X137500000Y-121000000D03*
D33*
X139500000Y-121000000D03*
X132000000Y-126900000D03*
X125000000Y-118500000D03*
X125000000Y-123500000D03*
X137000000Y-124800000D03*
%TD*%
D34*
%TO.C,D7*%
X113050000Y-78300000D03*
X114950000Y-78300000D03*
X114000000Y-76300000D03*
%TD*%
%TO.C,D13*%
X113050000Y-112300000D03*
X114950000Y-112300000D03*
X114000000Y-110300000D03*
%TD*%
D29*
%TO.C,K13*%
X96000000Y-116000000D03*
D31*
X101500000Y-116000000D03*
X90500000Y-116000000D03*
D33*
X96000000Y-121900000D03*
X101000000Y-119800000D03*
%TD*%
D29*
%TO.C,K14*%
X114000000Y-116000000D03*
D31*
X108500000Y-116000000D03*
X119500000Y-116000000D03*
D33*
X114000000Y-121900000D03*
X119000000Y-119800000D03*
%TD*%
D34*
%TO.C,D8*%
X131050000Y-66300000D03*
X132950000Y-66300000D03*
X132000000Y-64300000D03*
%TD*%
%TO.C,D10*%
X113050000Y-95300000D03*
X114950000Y-95300000D03*
X114000000Y-93300000D03*
%TD*%
D29*
%TO.C,K1*%
X96000000Y-82000000D03*
D31*
X90500000Y-82000000D03*
X101500000Y-82000000D03*
D33*
X96000000Y-87900000D03*
X101000000Y-85800000D03*
%TD*%
D31*
%TO.C,K3*%
X126500000Y-70000000D03*
X137500000Y-70000000D03*
D29*
X132000000Y-70000000D03*
D33*
X132000000Y-75900000D03*
X137000000Y-73800000D03*
%TD*%
D29*
%TO.C,K4*%
X150000000Y-63000000D03*
D31*
X144500000Y-63000000D03*
X155500000Y-63000000D03*
D33*
X150000000Y-68900000D03*
X155000000Y-66800000D03*
%TD*%
D31*
%TO.C,K8*%
X108500000Y-99000000D03*
X119500000Y-99000000D03*
D29*
X114000000Y-99000000D03*
D33*
X114000000Y-104900000D03*
X119000000Y-102800000D03*
%TD*%
D34*
%TO.C,D11*%
X131050000Y-83300000D03*
X132950000Y-83300000D03*
X132000000Y-81300000D03*
%TD*%
D29*
%TO.C,K9*%
X132000000Y-87000000D03*
D31*
X137500000Y-87000000D03*
X126500000Y-87000000D03*
D33*
X132000000Y-92900000D03*
X137000000Y-90800000D03*
%TD*%
D29*
%TO.C,K10*%
X150000000Y-80000000D03*
D31*
X144500000Y-80000000D03*
X155500000Y-80000000D03*
D33*
X150000000Y-85900000D03*
X155000000Y-83800000D03*
%TD*%
D29*
%TO.C,K15*%
X132000000Y-104000000D03*
D31*
X126500000Y-104000000D03*
X137500000Y-104000000D03*
D33*
X132000000Y-109900000D03*
X137000000Y-107800000D03*
%TD*%
D31*
%TO.C,K16*%
X144500000Y-97000000D03*
D29*
X150000000Y-97000000D03*
D31*
X155500000Y-97000000D03*
D33*
X150000000Y-102900000D03*
X155000000Y-100800000D03*
%TD*%
D34*
%TO.C,D14*%
X131050000Y-100300000D03*
X132950000Y-100300000D03*
X132000000Y-98300000D03*
%TD*%
%TO.C,D9*%
X167050000Y-64800000D03*
X168950000Y-64800000D03*
X168000000Y-62800000D03*
%TD*%
%TO.C,D12*%
X167050000Y-81800000D03*
X168950000Y-81800000D03*
X168000000Y-79800000D03*
%TD*%
%TO.C,D15*%
X167050000Y-98800000D03*
X168950000Y-98800000D03*
X168000000Y-96800000D03*
%TD*%
D31*
%TO.C,K5*%
X173500000Y-68500000D03*
X162500000Y-68500000D03*
D29*
X168000000Y-68500000D03*
D33*
X168000000Y-74400000D03*
X173000000Y-72300000D03*
%TD*%
D31*
%TO.C,K6*%
X180500000Y-71000000D03*
D29*
X186000000Y-71000000D03*
D31*
X191500000Y-71000000D03*
D33*
X186000000Y-76900000D03*
X191000000Y-74800000D03*
%TD*%
D29*
%TO.C,K11*%
X168000000Y-85500000D03*
D31*
X162500000Y-85500000D03*
X173500000Y-85500000D03*
D33*
X168000000Y-91400000D03*
X173000000Y-89300000D03*
%TD*%
D31*
%TO.C,K12*%
X191500000Y-88000000D03*
X180500000Y-88000000D03*
D29*
X186000000Y-88000000D03*
D33*
X186000000Y-93900000D03*
X191000000Y-91800000D03*
%TD*%
D31*
%TO.C,K17*%
X162500000Y-102500000D03*
X173500000Y-102500000D03*
D29*
X168000000Y-102500000D03*
D33*
X168000000Y-108400000D03*
X173000000Y-106300000D03*
%TD*%
D29*
%TO.C,K18*%
X186000000Y-105000000D03*
D31*
X180500000Y-105000000D03*
X191500000Y-105000000D03*
D33*
X186000000Y-110900000D03*
X191000000Y-108800000D03*
%TD*%
D29*
%TO.C,K21*%
X157500000Y-119500000D03*
D31*
X163000000Y-119500000D03*
X152000000Y-119500000D03*
D33*
X157500000Y-113600000D03*
X152500000Y-115700000D03*
%TD*%
D31*
%TO.C,K2*%
X119500000Y-82000000D03*
X108500000Y-82000000D03*
D29*
X114000000Y-82000000D03*
D33*
X114000000Y-87900000D03*
X119000000Y-85800000D03*
%TD*%
D35*
%TO.C,D17*%
X174717102Y-127646565D03*
X176552361Y-128138321D03*
X176152370Y-125960591D03*
%TD*%
D31*
%TO.C,K22*%
X182422593Y-123810171D03*
X171797409Y-120963161D03*
D29*
X177110001Y-122386666D03*
D33*
X178637033Y-116687704D03*
X173263884Y-117422053D03*
%TD*%
D31*
%TO.C,K23*%
X190715137Y-127299920D03*
D29*
X195478277Y-130049920D03*
D31*
X200241417Y-132799920D03*
D33*
X192528277Y-135159470D03*
X197908404Y-135840817D03*
%TD*%
D36*
%TO.C,D18*%
X206438088Y-145550005D03*
X207781591Y-146893508D03*
X208524053Y-144807543D03*
%TD*%
D34*
%TO.C,D16*%
X156550000Y-125200000D03*
X158450000Y-125200000D03*
X157500000Y-123200000D03*
%TD*%
D31*
%TO.C,K19*%
X199215137Y-112577488D03*
X208741417Y-118077488D03*
D29*
X203978277Y-115327488D03*
D33*
X201028277Y-120437038D03*
X206408404Y-121118385D03*
%TD*%
D31*
%TO.C,K24*%
X207251261Y-138302161D03*
D29*
X211140348Y-142191248D03*
D31*
X215029435Y-146080335D03*
D33*
X215312278Y-138019318D03*
X210291820Y-135968708D03*
%TD*%
D21*
%TO.C,D4*%
X158893488Y-111765922D03*
X158893488Y-110265922D03*
D22*
X164043488Y-110265922D03*
D21*
X164043488Y-111765922D03*
%TD*%
D23*
%TO.C,D1*%
X202496441Y-105754417D03*
X203246441Y-104455379D03*
D24*
X207706471Y-107030379D03*
D23*
X206956471Y-108329417D03*
%TD*%
D17*
%TO.C,J4*%
X209800000Y-64790000D03*
%TD*%
D37*
%TO.C,JP1*%
X218230000Y-77130000D03*
D38*
X218230000Y-78430000D03*
%TD*%
D39*
%TO.C,R2*%
X216870000Y-88932500D03*
D40*
X216870000Y-87107500D03*
%TD*%
D27*
%TO.C,J1*%
X218220000Y-82877500D03*
D41*
X216550000Y-102227500D03*
D42*
X214010000Y-102227500D03*
X211470000Y-102227500D03*
X208930000Y-102227500D03*
X206390000Y-102227500D03*
%TD*%
D43*
%TO.C,C1*%
X204550000Y-64720000D03*
X206450000Y-64720000D03*
%TD*%
D44*
%TO.C,SW1*%
X218850000Y-137700000D03*
D45*
X218850000Y-134600000D03*
D44*
X218850000Y-131500000D03*
X222550000Y-137700000D03*
D45*
X222550000Y-134600000D03*
D44*
X222550000Y-131500000D03*
%TD*%
D31*
%TO.C,K7*%
X90500000Y-99000000D03*
X101500000Y-99000000D03*
D29*
X96000000Y-99000000D03*
D33*
X96000000Y-104900000D03*
X101000000Y-102800000D03*
%TD*%
D46*
%TO.C,SW2*%
X213198046Y-107681551D03*
D47*
X216188862Y-106286910D03*
X217245408Y-108552680D03*
D46*
X214254592Y-109947320D03*
D47*
X218301954Y-110818449D03*
D46*
X215311138Y-112213090D03*
%TD*%
D48*
%TO.C,H3*%
X141610000Y-124620000D03*
D49*
X142910000Y-117270000D03*
D50*
X143660000Y-122570000D03*
X146010000Y-120820000D03*
D51*
X137110000Y-126970000D03*
D52*
X147590000Y-110870000D03*
D48*
X141610000Y-125130000D03*
D53*
X141810000Y-122770000D03*
D54*
X147310000Y-120870000D03*
D55*
X142360000Y-115620000D03*
D50*
X143310000Y-119270000D03*
X146860000Y-117820000D03*
D56*
X145730000Y-112210000D03*
D57*
X138510000Y-126120000D03*
%TD*%
D28*
%TO.C,H4*%
X123000000Y-78500000D03*
%TD*%
%TO.C,H5*%
X123000000Y-107500000D03*
%TD*%
%TO.C,H6*%
X177000000Y-108000000D03*
%TD*%
%TO.C,H7*%
X177000000Y-65500000D03*
%TD*%
D39*
%TO.C,R1*%
X216845000Y-95032500D03*
D40*
X216845000Y-93207500D03*
%TD*%
D17*
%TO.C,J3*%
X200900000Y-64790000D03*
%TD*%
%TO.C,J5*%
X199350000Y-98920000D03*
%TD*%
%TO.C,J6*%
X211760000Y-98920000D03*
%TD*%
M02*
