M48
; DRILL file {KiCad (5.1.10-1-10_14)} date Tuesday, November 02, 2021 at 05:36:50 PM
; FORMAT={-:-/ absolute / metric / decimal}
; #@! TF.CreationDate,2021-11-02T17:36:50-07:00
; #@! TF.GenerationSoftware,Kicad,Pcbnew,(5.1.10-1-10_14)
; #@! TF.FileFunction,NonPlated,1,2,NPTH
FMAT,2
METRIC
T1C1.200
T2C1.500
T3C1.700
T4C2.200
T5C3.400
%
G90
G05
T1
X217.98Y-127.61
X217.98Y-129.36
X224.98Y-127.61
X224.98Y-129.36
T3
X94.5Y-84.5
X94.5Y-101.5
X94.5Y-118.5
X105.5Y-84.5
X105.5Y-101.5
X105.5Y-118.5
X112.5Y-84.5
X112.5Y-101.5
X112.5Y-118.5
X123.5Y-84.5
X123.5Y-101.5
X123.5Y-118.5
X130.5Y-72.5
X130.5Y-89.5
X130.5Y-106.5
X130.5Y-123.5
X141.5Y-72.5
X141.5Y-89.5
X141.5Y-106.5
X148.5Y-65.5
X148.5Y-82.5
X148.5Y-99.5
X156.0Y-122.0
X159.5Y-65.5
X159.5Y-82.5
X159.5Y-99.5
X166.5Y-71.0
X166.5Y-88.0
X166.5Y-105.0
X167.0Y-122.0
X175.797Y-123.463
X177.5Y-71.0
X177.5Y-88.0
X177.5Y-105.0
X184.5Y-73.5
X184.5Y-90.5
X184.5Y-107.5
X186.423Y-126.31
X194.715Y-129.8
X195.5Y-73.5
X195.5Y-90.5
X195.5Y-107.5
X203.215Y-115.077
X204.241Y-135.3
X211.251Y-140.802
X212.741Y-120.577
X219.029Y-148.58
T4
X109.0Y-93.0
X109.0Y-110.0
T5
X100.0Y-84.5
X100.0Y-101.5
X100.0Y-118.5
X118.0Y-84.5
X118.0Y-101.5
X118.0Y-118.5
X136.0Y-72.5
X136.0Y-89.5
X136.0Y-106.5
X136.0Y-123.5
X154.0Y-65.5
X154.0Y-82.5
X154.0Y-99.5
X161.5Y-122.0
X172.0Y-71.0
X172.0Y-88.0
X172.0Y-105.0
X181.11Y-124.887
X190.0Y-73.5
X190.0Y-90.5
X190.0Y-107.5
X199.478Y-132.55
X207.978Y-117.827
X215.14Y-144.691
T2
X136.65Y-117.9G85X135.35Y-117.9
G05
T0
M30
