%TF.GenerationSoftware,KiCad,Pcbnew,(5.1.10-1-10_14)*%
%TF.CreationDate,2021-11-02T17:36:35-07:00*%
%TF.ProjectId,hillside,68696c6c-7369-4646-952e-6b696361645f,0.1.0*%
%TF.SameCoordinates,Original*%
%TF.FileFunction,Legend,Bot*%
%TF.FilePolarity,Positive*%
%FSLAX46Y46*%
G04 Gerber Fmt 4.6, Leading zero omitted, Abs format (unit mm)*
G04 Created by KiCad (PCBNEW (5.1.10-1-10_14)) date 2021-11-02 17:36:35*
%MOMM*%
%LPD*%
G01*
G04 APERTURE LIST*
%ADD10C,0.200000*%
%ADD11C,0.150000*%
%ADD12C,0.100000*%
%ADD13C,0.120000*%
%ADD14C,0.137500*%
%ADD15C,0.125000*%
%ADD16C,0.153000*%
%ADD17C,4.400000*%
%ADD18C,2.200000*%
%ADD19R,1.700000X1.700000*%
%ADD20O,1.700000X1.700000*%
%ADD21C,5.000000*%
%ADD22C,1.397000*%
%ADD23C,1.524000*%
%ADD24R,1.100000X1.800000*%
%ADD25C,1.600000*%
%ADD26C,3.400000*%
%ADD27C,1.700000*%
%ADD28C,2.000000*%
%ADD29R,0.800000X0.900000*%
%ADD30R,1.700000X0.820000*%
%ADD31C,1.200000*%
%ADD32O,2.500000X1.700000*%
%ADD33C,0.800000*%
%ADD34R,3.200000X2.000000*%
%ADD35R,2.000000X2.000000*%
G04 APERTURE END LIST*
D10*
%TO.C,H1*%
X156001954Y-62673865D02*
G75*
G02*
X160152500Y-61640000I7008046J-19286135D01*
G01*
X170018049Y-62673867D02*
G75*
G03*
X165867500Y-61640000I-7008049J-19286133D01*
G01*
X182296134Y-74951952D02*
G75*
G02*
X183330000Y-79102500I-19286134J-7008048D01*
G01*
X182296134Y-88968048D02*
G75*
G03*
X183330000Y-84817500I-19286134J7008048D01*
G01*
X170018045Y-101246135D02*
G75*
G02*
X165867500Y-102280000I-7008045J19286135D01*
G01*
X156001955Y-101246135D02*
G75*
G03*
X160152500Y-102280000I7008045J19286135D01*
G01*
X143723865Y-88968046D02*
G75*
G02*
X142690000Y-84817500I19286135J7008046D01*
G01*
X143723865Y-74951956D02*
G75*
G03*
X142690000Y-79102500I19286135J-7008044D01*
G01*
X164138385Y-92695864D02*
G75*
G02*
X163010000Y-92755000I-1128385J10735864D01*
G01*
X164138385Y-71224136D02*
G75*
G03*
X163010000Y-71165000I-1128385J-10735864D01*
G01*
X161881615Y-71224136D02*
G75*
G02*
X163010000Y-71165000I1128385J-10735864D01*
G01*
X161881615Y-92695864D02*
G75*
G03*
X163010000Y-92755000I1128385J10735864D01*
G01*
D11*
%TO.C,J3*%
X203900000Y-71100000D02*
X203900000Y-69100000D01*
X205900000Y-71100000D02*
X203900000Y-71100000D01*
X205900000Y-69100000D02*
X205900000Y-71100000D01*
X203900000Y-69100000D02*
X205900000Y-69100000D01*
%TO.C,J4*%
X212800000Y-71100000D02*
X212800000Y-69100000D01*
X214800000Y-71100000D02*
X212800000Y-71100000D01*
X214800000Y-69100000D02*
X214800000Y-71100000D01*
X212800000Y-69100000D02*
X214800000Y-69100000D01*
%TO.C,U1*%
X199840000Y-102632000D02*
X199840000Y-72152000D01*
X202380000Y-102632000D02*
X199840000Y-102632000D01*
X202380000Y-72152000D02*
X202380000Y-102632000D01*
X199840000Y-72152000D02*
X202380000Y-72152000D01*
X215080000Y-102632000D02*
X215080000Y-72152000D01*
X217620000Y-102632000D02*
X215080000Y-102632000D01*
X217620000Y-72152000D02*
X217620000Y-102632000D01*
X215080000Y-72152000D02*
X217620000Y-72152000D01*
D12*
%TO.C,D5*%
G36*
X133930000Y-117110000D02*
G01*
X133930000Y-116510000D01*
X134530000Y-116510000D01*
X133930000Y-117110000D01*
G37*
X133930000Y-117110000D02*
X133930000Y-116510000D01*
X134530000Y-116510000D01*
X133930000Y-117110000D01*
%TO.C,D4*%
G36*
X163736067Y-115717196D02*
G01*
X163736067Y-115117196D01*
X164336067Y-115117196D01*
X163736067Y-115717196D01*
G37*
X163736067Y-115717196D02*
X163736067Y-115117196D01*
X164336067Y-115117196D01*
X163736067Y-115717196D01*
%TO.C,D3*%
G36*
X184911070Y-119254021D02*
G01*
X185066361Y-118674465D01*
X185645917Y-118829756D01*
X184911070Y-119254021D01*
G37*
X184911070Y-119254021D02*
X185066361Y-118674465D01*
X185645917Y-118829756D01*
X184911070Y-119254021D01*
%TO.C,D2*%
G36*
X204572419Y-128210930D02*
G01*
X204872419Y-127691315D01*
X205392034Y-127991315D01*
X204572419Y-128210930D01*
G37*
X204572419Y-128210930D02*
X204872419Y-127691315D01*
X205392034Y-127991315D01*
X204572419Y-128210930D01*
%TO.C,D1*%
G36*
X210006712Y-111724449D02*
G01*
X210306712Y-111204834D01*
X210826327Y-111504834D01*
X210006712Y-111724449D01*
G37*
X210006712Y-111724449D02*
X210306712Y-111204834D01*
X210826327Y-111504834D01*
X210006712Y-111724449D01*
D11*
%TO.C,J2*%
X214480000Y-124610000D02*
X226480000Y-124610000D01*
X214480000Y-130610000D02*
X214480000Y-124610000D01*
X226480000Y-130610000D02*
X214480000Y-130610000D01*
X226480000Y-124610000D02*
X226480000Y-130610000D01*
D13*
X226480000Y-125360000D02*
X227480000Y-125360000D01*
X227480000Y-125360000D02*
X227480000Y-129960000D01*
X227480000Y-129960000D02*
X226480000Y-129960000D01*
%TO.C,H1*%
D11*
X162541714Y-72538500D02*
X162541714Y-72919452D01*
X162208380Y-72681357D02*
X163065523Y-72681357D01*
X163160761Y-72728976D01*
X163208380Y-72824214D01*
X163208380Y-72919452D01*
X163160761Y-73633738D02*
X163208380Y-73538500D01*
X163208380Y-73348023D01*
X163160761Y-73252785D01*
X163065523Y-73205166D01*
X162684571Y-73205166D01*
X162589333Y-73252785D01*
X162541714Y-73348023D01*
X162541714Y-73538500D01*
X162589333Y-73633738D01*
X162684571Y-73681357D01*
X162779809Y-73681357D01*
X162875047Y-73205166D01*
X162541714Y-74109928D02*
X163208380Y-74109928D01*
X162636952Y-74109928D02*
X162589333Y-74157547D01*
X162541714Y-74252785D01*
X162541714Y-74395642D01*
X162589333Y-74490880D01*
X162684571Y-74538500D01*
X163208380Y-74538500D01*
X162541714Y-74871833D02*
X162541714Y-75252785D01*
X162208380Y-75014690D02*
X163065523Y-75014690D01*
X163160761Y-75062309D01*
X163208380Y-75157547D01*
X163208380Y-75252785D01*
X163208380Y-75586119D02*
X162541714Y-75586119D01*
X162208380Y-75586119D02*
X162256000Y-75538500D01*
X162303619Y-75586119D01*
X162256000Y-75633738D01*
X162208380Y-75586119D01*
X162303619Y-75586119D01*
X162541714Y-76062309D02*
X163208380Y-76062309D01*
X162636952Y-76062309D02*
X162589333Y-76109928D01*
X162541714Y-76205166D01*
X162541714Y-76348023D01*
X162589333Y-76443261D01*
X162684571Y-76490880D01*
X163208380Y-76490880D01*
X162541714Y-77395642D02*
X163351238Y-77395642D01*
X163446476Y-77348023D01*
X163494095Y-77300404D01*
X163541714Y-77205166D01*
X163541714Y-77062309D01*
X163494095Y-76967071D01*
X163160761Y-77395642D02*
X163208380Y-77300404D01*
X163208380Y-77109928D01*
X163160761Y-77014690D01*
X163113142Y-76967071D01*
X163017904Y-76919452D01*
X162732190Y-76919452D01*
X162636952Y-76967071D01*
X162589333Y-77014690D01*
X162541714Y-77109928D01*
X162541714Y-77300404D01*
X162589333Y-77395642D01*
X162605214Y-86492500D02*
X163605214Y-86492500D01*
X162652833Y-86492500D02*
X162605214Y-86587738D01*
X162605214Y-86778214D01*
X162652833Y-86873452D01*
X162700452Y-86921071D01*
X162795690Y-86968690D01*
X163081404Y-86968690D01*
X163176642Y-86921071D01*
X163224261Y-86873452D01*
X163271880Y-86778214D01*
X163271880Y-86587738D01*
X163224261Y-86492500D01*
X162605214Y-87825833D02*
X163271880Y-87825833D01*
X162605214Y-87397261D02*
X163129023Y-87397261D01*
X163224261Y-87444880D01*
X163271880Y-87540119D01*
X163271880Y-87682976D01*
X163224261Y-87778214D01*
X163176642Y-87825833D01*
X163224261Y-88730595D02*
X163271880Y-88635357D01*
X163271880Y-88444880D01*
X163224261Y-88349642D01*
X163176642Y-88302023D01*
X163081404Y-88254404D01*
X162795690Y-88254404D01*
X162700452Y-88302023D01*
X162652833Y-88349642D01*
X162605214Y-88444880D01*
X162605214Y-88635357D01*
X162652833Y-88730595D01*
X163271880Y-89159166D02*
X162271880Y-89159166D01*
X162890928Y-89254404D02*
X163271880Y-89540119D01*
X162605214Y-89540119D02*
X162986166Y-89159166D01*
%TO.C,J1*%
D14*
X220944047Y-102380000D02*
X220996428Y-102341904D01*
X221075000Y-102341904D01*
X221153571Y-102380000D01*
X221205952Y-102456190D01*
X221232142Y-102532380D01*
X221258333Y-102684761D01*
X221258333Y-102799047D01*
X221232142Y-102951428D01*
X221205952Y-103027619D01*
X221153571Y-103103809D01*
X221075000Y-103141904D01*
X221022619Y-103141904D01*
X220944047Y-103103809D01*
X220917857Y-103065714D01*
X220917857Y-102799047D01*
X221022619Y-102799047D01*
X220682142Y-103141904D02*
X220682142Y-102341904D01*
X220367857Y-103141904D01*
X220367857Y-102341904D01*
X220105952Y-103141904D02*
X220105952Y-102341904D01*
X219975000Y-102341904D01*
X219896428Y-102380000D01*
X219844047Y-102456190D01*
X219817857Y-102532380D01*
X219791666Y-102684761D01*
X219791666Y-102799047D01*
X219817857Y-102951428D01*
X219844047Y-103027619D01*
X219896428Y-103103809D01*
X219975000Y-103141904D01*
X220105952Y-103141904D01*
D11*
D14*
X218341665Y-102380000D02*
X218394046Y-102341904D01*
X218472618Y-102341904D01*
X218551189Y-102380000D01*
X218603570Y-102456190D01*
X218629760Y-102532380D01*
X218655951Y-102684761D01*
X218655951Y-102799047D01*
X218629760Y-102951428D01*
X218603570Y-103027619D01*
X218551189Y-103103809D01*
X218472618Y-103141904D01*
X218420237Y-103141904D01*
X218341665Y-103103809D01*
X218315475Y-103065714D01*
X218315475Y-102799047D01*
X218420237Y-102799047D01*
X218079760Y-103141904D02*
X218079760Y-102341904D01*
X217765475Y-103141904D01*
X217765475Y-102341904D01*
X217503570Y-103141904D02*
X217503570Y-102341904D01*
X217372618Y-102341904D01*
X217294046Y-102380000D01*
X217241665Y-102456190D01*
X217215475Y-102532380D01*
X217189284Y-102684761D01*
X217189284Y-102799047D01*
X217215475Y-102951428D01*
X217241665Y-103027619D01*
X217294046Y-103103809D01*
X217372618Y-103141904D01*
X217503570Y-103141904D01*
D11*
D14*
X216046427Y-103103809D02*
X215967856Y-103141904D01*
X215836904Y-103141904D01*
X215784523Y-103103809D01*
X215758332Y-103065714D01*
X215732142Y-102989523D01*
X215732142Y-102913333D01*
X215758332Y-102837142D01*
X215784523Y-102799047D01*
X215836904Y-102760952D01*
X215941666Y-102722857D01*
X215994046Y-102684761D01*
X216020237Y-102646666D01*
X216046427Y-102570476D01*
X216046427Y-102494285D01*
X216020237Y-102418095D01*
X215994046Y-102380000D01*
X215941666Y-102341904D01*
X215810713Y-102341904D01*
X215732142Y-102380000D01*
X215182142Y-103065714D02*
X215208332Y-103103809D01*
X215286904Y-103141904D01*
X215339285Y-103141904D01*
X215417856Y-103103809D01*
X215470237Y-103027619D01*
X215496427Y-102951428D01*
X215522618Y-102799047D01*
X215522618Y-102684761D01*
X215496427Y-102532380D01*
X215470237Y-102456190D01*
X215417856Y-102380000D01*
X215339285Y-102341904D01*
X215286904Y-102341904D01*
X215208332Y-102380000D01*
X215182142Y-102418095D01*
X214684523Y-103141904D02*
X214946427Y-103141904D01*
X214946427Y-102341904D01*
D11*
D14*
X213588095Y-103103809D02*
X213509523Y-103141904D01*
X213378571Y-103141904D01*
X213326190Y-103103809D01*
X213299999Y-103065714D01*
X213273809Y-102989523D01*
X213273809Y-102913333D01*
X213299999Y-102837142D01*
X213326190Y-102799047D01*
X213378571Y-102760952D01*
X213483333Y-102722857D01*
X213535714Y-102684761D01*
X213561904Y-102646666D01*
X213588095Y-102570476D01*
X213588095Y-102494285D01*
X213561904Y-102418095D01*
X213535714Y-102380000D01*
X213483333Y-102341904D01*
X213352380Y-102341904D01*
X213273809Y-102380000D01*
X213038095Y-103141904D02*
X213038095Y-102341904D01*
X212907142Y-102341904D01*
X212828571Y-102380000D01*
X212776190Y-102456190D01*
X212749999Y-102532380D01*
X212723809Y-102684761D01*
X212723809Y-102799047D01*
X212749999Y-102951428D01*
X212776190Y-103027619D01*
X212828571Y-103103809D01*
X212907142Y-103141904D01*
X213038095Y-103141904D01*
X212514285Y-102913333D02*
X212252380Y-102913333D01*
X212566666Y-103141904D02*
X212383333Y-102341904D01*
X212199999Y-103141904D01*
D11*
D14*
X211158333Y-102341904D02*
X210975000Y-103141904D01*
X210791666Y-102341904D01*
X210294047Y-103065714D02*
X210320238Y-103103809D01*
X210398809Y-103141904D01*
X210451190Y-103141904D01*
X210529761Y-103103809D01*
X210582142Y-103027619D01*
X210608333Y-102951428D01*
X210634523Y-102799047D01*
X210634523Y-102684761D01*
X210608333Y-102532380D01*
X210582142Y-102456190D01*
X210529761Y-102380000D01*
X210451190Y-102341904D01*
X210398809Y-102341904D01*
X210320238Y-102380000D01*
X210294047Y-102418095D01*
X209744047Y-103065714D02*
X209770238Y-103103809D01*
X209848809Y-103141904D01*
X209901190Y-103141904D01*
X209979761Y-103103809D01*
X210032142Y-103027619D01*
X210058333Y-102951428D01*
X210084523Y-102799047D01*
X210084523Y-102684761D01*
X210058333Y-102532380D01*
X210032142Y-102456190D01*
X209979761Y-102380000D01*
X209901190Y-102341904D01*
X209848809Y-102341904D01*
X209770238Y-102380000D01*
X209744047Y-102418095D01*
D11*
%TO.C,J3*%
X203532857Y-70025714D02*
X203447142Y-70068571D01*
X203418571Y-70111428D01*
X203390000Y-70197142D01*
X203390000Y-70325714D01*
X203418571Y-70411428D01*
X203447142Y-70454285D01*
X203504285Y-70497142D01*
X203732857Y-70497142D01*
X203732857Y-69597142D01*
X203532857Y-69597142D01*
X203475714Y-69640000D01*
X203447142Y-69682857D01*
X203418571Y-69768571D01*
X203418571Y-69854285D01*
X203447142Y-69940000D01*
X203475714Y-69982857D01*
X203532857Y-70025714D01*
X203732857Y-70025714D01*
X202875714Y-70497142D02*
X202875714Y-70025714D01*
X202904285Y-69940000D01*
X202961428Y-69897142D01*
X203075714Y-69897142D01*
X203132857Y-69940000D01*
X202875714Y-70454285D02*
X202932857Y-70497142D01*
X203075714Y-70497142D01*
X203132857Y-70454285D01*
X203161428Y-70368571D01*
X203161428Y-70282857D01*
X203132857Y-70197142D01*
X203075714Y-70154285D01*
X202932857Y-70154285D01*
X202875714Y-70111428D01*
X202675714Y-69897142D02*
X202447142Y-69897142D01*
X202590000Y-69597142D02*
X202590000Y-70368571D01*
X202561428Y-70454285D01*
X202504285Y-70497142D01*
X202447142Y-70497142D01*
X202390000Y-70582857D02*
X201932857Y-70582857D01*
X201790000Y-70497142D02*
X201790000Y-69597142D01*
X201561428Y-69597142D01*
X201504285Y-69640000D01*
X201475714Y-69682857D01*
X201447142Y-69768571D01*
X201447142Y-69897142D01*
X201475714Y-69982857D01*
X201504285Y-70025714D01*
X201561428Y-70068571D01*
X201790000Y-70068571D01*
X201104285Y-70497142D02*
X201161428Y-70454285D01*
X201190000Y-70411428D01*
X201218571Y-70325714D01*
X201218571Y-70068571D01*
X201190000Y-69982857D01*
X201161428Y-69940000D01*
X201104285Y-69897142D01*
X201018571Y-69897142D01*
X200961428Y-69940000D01*
X200932857Y-69982857D01*
X200904285Y-70068571D01*
X200904285Y-70325714D01*
X200932857Y-70411428D01*
X200961428Y-70454285D01*
X201018571Y-70497142D01*
X201104285Y-70497142D01*
X200675714Y-70454285D02*
X200618571Y-70497142D01*
X200504285Y-70497142D01*
X200447142Y-70454285D01*
X200418571Y-70368571D01*
X200418571Y-70325714D01*
X200447142Y-70240000D01*
X200504285Y-70197142D01*
X200590000Y-70197142D01*
X200647142Y-70154285D01*
X200675714Y-70068571D01*
X200675714Y-70025714D01*
X200647142Y-69940000D01*
X200590000Y-69897142D01*
X200504285Y-69897142D01*
X200447142Y-69940000D01*
%TO.C,J4*%
X218332857Y-70035714D02*
X218247142Y-70078571D01*
X218218571Y-70121428D01*
X218190000Y-70207142D01*
X218190000Y-70335714D01*
X218218571Y-70421428D01*
X218247142Y-70464285D01*
X218304285Y-70507142D01*
X218532857Y-70507142D01*
X218532857Y-69607142D01*
X218332857Y-69607142D01*
X218275714Y-69650000D01*
X218247142Y-69692857D01*
X218218571Y-69778571D01*
X218218571Y-69864285D01*
X218247142Y-69950000D01*
X218275714Y-69992857D01*
X218332857Y-70035714D01*
X218532857Y-70035714D01*
X217675714Y-70507142D02*
X217675714Y-70035714D01*
X217704285Y-69950000D01*
X217761428Y-69907142D01*
X217875714Y-69907142D01*
X217932857Y-69950000D01*
X217675714Y-70464285D02*
X217732857Y-70507142D01*
X217875714Y-70507142D01*
X217932857Y-70464285D01*
X217961428Y-70378571D01*
X217961428Y-70292857D01*
X217932857Y-70207142D01*
X217875714Y-70164285D01*
X217732857Y-70164285D01*
X217675714Y-70121428D01*
X217475714Y-69907142D02*
X217247142Y-69907142D01*
X217390000Y-69607142D02*
X217390000Y-70378571D01*
X217361428Y-70464285D01*
X217304285Y-70507142D01*
X217247142Y-70507142D01*
X217190000Y-70592857D02*
X216732857Y-70592857D01*
X216275714Y-69650000D02*
X216332857Y-69607142D01*
X216418571Y-69607142D01*
X216504285Y-69650000D01*
X216561428Y-69735714D01*
X216590000Y-69821428D01*
X216618571Y-69992857D01*
X216618571Y-70121428D01*
X216590000Y-70292857D01*
X216561428Y-70378571D01*
X216504285Y-70464285D01*
X216418571Y-70507142D01*
X216361428Y-70507142D01*
X216275714Y-70464285D01*
X216247142Y-70421428D01*
X216247142Y-70121428D01*
X216361428Y-70121428D01*
X215990000Y-70507142D02*
X215990000Y-69607142D01*
X215647142Y-70507142D01*
X215647142Y-69607142D01*
X215361428Y-70507142D02*
X215361428Y-69607142D01*
X215218571Y-69607142D01*
X215132857Y-69650000D01*
X215075714Y-69735714D01*
X215047142Y-69821428D01*
X215018571Y-69992857D01*
X215018571Y-70121428D01*
X215047142Y-70292857D01*
X215075714Y-70378571D01*
X215132857Y-70464285D01*
X215218571Y-70507142D01*
X215361428Y-70507142D01*
%TO.C,U1*%
D15*
X214536238Y-73824785D02*
X214702904Y-73467642D01*
X214821952Y-73824785D02*
X214821952Y-73074785D01*
X214631476Y-73074785D01*
X214583857Y-73110500D01*
X214560047Y-73146214D01*
X214536238Y-73217642D01*
X214536238Y-73324785D01*
X214560047Y-73396214D01*
X214583857Y-73431928D01*
X214631476Y-73467642D01*
X214821952Y-73467642D01*
X214345761Y-73610500D02*
X214107666Y-73610500D01*
X214393380Y-73824785D02*
X214226714Y-73074785D01*
X214060047Y-73824785D01*
X213941000Y-73074785D02*
X213821952Y-73824785D01*
X213726714Y-73289071D01*
X213631476Y-73824785D01*
X213512428Y-73074785D01*
X199272428Y-73824785D02*
X199510523Y-73824785D01*
X199510523Y-73074785D01*
X199105761Y-73431928D02*
X198939095Y-73431928D01*
X198867666Y-73824785D02*
X199105761Y-73824785D01*
X199105761Y-73074785D01*
X198867666Y-73074785D01*
X198653380Y-73824785D02*
X198653380Y-73074785D01*
X198534333Y-73074785D01*
X198462904Y-73110500D01*
X198415285Y-73181928D01*
X198391476Y-73253357D01*
X198367666Y-73396214D01*
X198367666Y-73503357D01*
X198391476Y-73646214D01*
X198415285Y-73717642D01*
X198462904Y-73789071D01*
X198534333Y-73824785D01*
X198653380Y-73824785D01*
X214508452Y-75587000D02*
X214556071Y-75551285D01*
X214627500Y-75551285D01*
X214698928Y-75587000D01*
X214746547Y-75658428D01*
X214770357Y-75729857D01*
X214794166Y-75872714D01*
X214794166Y-75979857D01*
X214770357Y-76122714D01*
X214746547Y-76194142D01*
X214698928Y-76265571D01*
X214627500Y-76301285D01*
X214579880Y-76301285D01*
X214508452Y-76265571D01*
X214484642Y-76229857D01*
X214484642Y-75979857D01*
X214579880Y-75979857D01*
X214270357Y-76301285D02*
X214270357Y-75551285D01*
X213984642Y-76301285D01*
X213984642Y-75551285D01*
X213746547Y-76301285D02*
X213746547Y-75551285D01*
X213627500Y-75551285D01*
X213556071Y-75587000D01*
X213508452Y-75658428D01*
X213484642Y-75729857D01*
X213460833Y-75872714D01*
X213460833Y-75979857D01*
X213484642Y-76122714D01*
X213508452Y-76194142D01*
X213556071Y-76265571D01*
X213627500Y-76301285D01*
X213746547Y-76301285D01*
X199550000Y-76469285D02*
X199550000Y-75719285D01*
X199430952Y-75719285D01*
X199359523Y-75755000D01*
X199311904Y-75826428D01*
X199288095Y-75897857D01*
X199264285Y-76040714D01*
X199264285Y-76147857D01*
X199288095Y-76290714D01*
X199311904Y-76362142D01*
X199359523Y-76433571D01*
X199430952Y-76469285D01*
X199550000Y-76469285D01*
X199073809Y-76255000D02*
X198835714Y-76255000D01*
X199121428Y-76469285D02*
X198954761Y-75719285D01*
X198788095Y-76469285D01*
X198692857Y-75719285D02*
X198407142Y-75719285D01*
X198550000Y-76469285D02*
X198550000Y-75719285D01*
X198264285Y-76255000D02*
X198026190Y-76255000D01*
X198311904Y-76469285D02*
X198145238Y-75719285D01*
X197978571Y-76469285D01*
X214464809Y-78904785D02*
X214631476Y-78547642D01*
X214750523Y-78904785D02*
X214750523Y-78154785D01*
X214560047Y-78154785D01*
X214512428Y-78190500D01*
X214488619Y-78226214D01*
X214464809Y-78297642D01*
X214464809Y-78404785D01*
X214488619Y-78476214D01*
X214512428Y-78511928D01*
X214560047Y-78547642D01*
X214750523Y-78547642D01*
X214274333Y-78869071D02*
X214202904Y-78904785D01*
X214083857Y-78904785D01*
X214036238Y-78869071D01*
X214012428Y-78833357D01*
X213988619Y-78761928D01*
X213988619Y-78690500D01*
X214012428Y-78619071D01*
X214036238Y-78583357D01*
X214083857Y-78547642D01*
X214179095Y-78511928D01*
X214226714Y-78476214D01*
X214250523Y-78440500D01*
X214274333Y-78369071D01*
X214274333Y-78297642D01*
X214250523Y-78226214D01*
X214226714Y-78190500D01*
X214179095Y-78154785D01*
X214060047Y-78154785D01*
X213988619Y-78190500D01*
X213845761Y-78154785D02*
X213560047Y-78154785D01*
X213702904Y-78904785D02*
X213702904Y-78154785D01*
X199331952Y-78190500D02*
X199379571Y-78154785D01*
X199451000Y-78154785D01*
X199522428Y-78190500D01*
X199570047Y-78261928D01*
X199593857Y-78333357D01*
X199617666Y-78476214D01*
X199617666Y-78583357D01*
X199593857Y-78726214D01*
X199570047Y-78797642D01*
X199522428Y-78869071D01*
X199451000Y-78904785D01*
X199403380Y-78904785D01*
X199331952Y-78869071D01*
X199308142Y-78833357D01*
X199308142Y-78583357D01*
X199403380Y-78583357D01*
X199093857Y-78904785D02*
X199093857Y-78154785D01*
X198808142Y-78904785D01*
X198808142Y-78154785D01*
X198570047Y-78904785D02*
X198570047Y-78154785D01*
X198451000Y-78154785D01*
X198379571Y-78190500D01*
X198331952Y-78261928D01*
X198308142Y-78333357D01*
X198284333Y-78476214D01*
X198284333Y-78583357D01*
X198308142Y-78726214D01*
X198331952Y-78797642D01*
X198379571Y-78869071D01*
X198451000Y-78904785D01*
X198570047Y-78904785D01*
X214794166Y-80694785D02*
X214627500Y-81444785D01*
X214460833Y-80694785D01*
X214008452Y-81373357D02*
X214032261Y-81409071D01*
X214103690Y-81444785D01*
X214151309Y-81444785D01*
X214222738Y-81409071D01*
X214270357Y-81337642D01*
X214294166Y-81266214D01*
X214317976Y-81123357D01*
X214317976Y-81016214D01*
X214294166Y-80873357D01*
X214270357Y-80801928D01*
X214222738Y-80730500D01*
X214151309Y-80694785D01*
X214103690Y-80694785D01*
X214032261Y-80730500D01*
X214008452Y-80766214D01*
X213508452Y-81373357D02*
X213532261Y-81409071D01*
X213603690Y-81444785D01*
X213651309Y-81444785D01*
X213722738Y-81409071D01*
X213770357Y-81337642D01*
X213794166Y-81266214D01*
X213817976Y-81123357D01*
X213817976Y-81016214D01*
X213794166Y-80873357D01*
X213770357Y-80801928D01*
X213722738Y-80730500D01*
X213651309Y-80694785D01*
X213603690Y-80694785D01*
X213532261Y-80730500D01*
X213508452Y-80766214D01*
X199331952Y-80730500D02*
X199379571Y-80694785D01*
X199451000Y-80694785D01*
X199522428Y-80730500D01*
X199570047Y-80801928D01*
X199593857Y-80873357D01*
X199617666Y-81016214D01*
X199617666Y-81123357D01*
X199593857Y-81266214D01*
X199570047Y-81337642D01*
X199522428Y-81409071D01*
X199451000Y-81444785D01*
X199403380Y-81444785D01*
X199331952Y-81409071D01*
X199308142Y-81373357D01*
X199308142Y-81123357D01*
X199403380Y-81123357D01*
X199093857Y-81444785D02*
X199093857Y-80694785D01*
X198808142Y-81444785D01*
X198808142Y-80694785D01*
X198570047Y-81444785D02*
X198570047Y-80694785D01*
X198451000Y-80694785D01*
X198379571Y-80730500D01*
X198331952Y-80801928D01*
X198308142Y-80873357D01*
X198284333Y-81016214D01*
X198284333Y-81123357D01*
X198308142Y-81266214D01*
X198331952Y-81337642D01*
X198379571Y-81409071D01*
X198451000Y-81444785D01*
X198570047Y-81444785D01*
X214547619Y-91497857D02*
X214571428Y-91533571D01*
X214642857Y-91569285D01*
X214690476Y-91569285D01*
X214761904Y-91533571D01*
X214809523Y-91462142D01*
X214833333Y-91390714D01*
X214857142Y-91247857D01*
X214857142Y-91140714D01*
X214833333Y-90997857D01*
X214809523Y-90926428D01*
X214761904Y-90855000D01*
X214690476Y-90819285D01*
X214642857Y-90819285D01*
X214571428Y-90855000D01*
X214547619Y-90890714D01*
X214238095Y-90819285D02*
X214142857Y-90819285D01*
X214095238Y-90855000D01*
X214047619Y-90926428D01*
X214023809Y-91069285D01*
X214023809Y-91319285D01*
X214047619Y-91462142D01*
X214095238Y-91533571D01*
X214142857Y-91569285D01*
X214238095Y-91569285D01*
X214285714Y-91533571D01*
X214333333Y-91462142D01*
X214357142Y-91319285D01*
X214357142Y-91069285D01*
X214333333Y-90926428D01*
X214285714Y-90855000D01*
X214238095Y-90819285D01*
X213571428Y-91569285D02*
X213809523Y-91569285D01*
X213809523Y-90819285D01*
X213142857Y-91569285D02*
X213428571Y-91569285D01*
X213285714Y-91569285D02*
X213285714Y-90819285D01*
X213333333Y-90926428D01*
X213380952Y-90997857D01*
X213428571Y-91033571D01*
X199233333Y-88929857D02*
X199257142Y-88965571D01*
X199328571Y-89001285D01*
X199376190Y-89001285D01*
X199447619Y-88965571D01*
X199495238Y-88894142D01*
X199519047Y-88822714D01*
X199542857Y-88679857D01*
X199542857Y-88572714D01*
X199519047Y-88429857D01*
X199495238Y-88358428D01*
X199447619Y-88287000D01*
X199376190Y-88251285D01*
X199328571Y-88251285D01*
X199257142Y-88287000D01*
X199233333Y-88322714D01*
X198804761Y-88501285D02*
X198804761Y-89001285D01*
X198923809Y-88215571D02*
X199042857Y-88751285D01*
X198733333Y-88751285D01*
X214547619Y-88997857D02*
X214571428Y-89033571D01*
X214642857Y-89069285D01*
X214690476Y-89069285D01*
X214761904Y-89033571D01*
X214809523Y-88962142D01*
X214833333Y-88890714D01*
X214857142Y-88747857D01*
X214857142Y-88640714D01*
X214833333Y-88497857D01*
X214809523Y-88426428D01*
X214761904Y-88355000D01*
X214690476Y-88319285D01*
X214642857Y-88319285D01*
X214571428Y-88355000D01*
X214547619Y-88390714D01*
X214238095Y-88319285D02*
X214142857Y-88319285D01*
X214095238Y-88355000D01*
X214047619Y-88426428D01*
X214023809Y-88569285D01*
X214023809Y-88819285D01*
X214047619Y-88962142D01*
X214095238Y-89033571D01*
X214142857Y-89069285D01*
X214238095Y-89069285D01*
X214285714Y-89033571D01*
X214333333Y-88962142D01*
X214357142Y-88819285D01*
X214357142Y-88569285D01*
X214333333Y-88426428D01*
X214285714Y-88355000D01*
X214238095Y-88319285D01*
X213571428Y-89069285D02*
X213809523Y-89069285D01*
X213809523Y-88319285D01*
X213309523Y-88319285D02*
X213261904Y-88319285D01*
X213214285Y-88355000D01*
X213190476Y-88390714D01*
X213166666Y-88462142D01*
X213142857Y-88605000D01*
X213142857Y-88783571D01*
X213166666Y-88926428D01*
X213190476Y-88997857D01*
X213214285Y-89033571D01*
X213261904Y-89069285D01*
X213309523Y-89069285D01*
X213357142Y-89033571D01*
X213380952Y-88997857D01*
X213404761Y-88926428D01*
X213428571Y-88783571D01*
X213428571Y-88605000D01*
X213404761Y-88462142D01*
X213380952Y-88390714D01*
X213357142Y-88355000D01*
X213309523Y-88319285D01*
X199546238Y-86489071D02*
X199474809Y-86524785D01*
X199355761Y-86524785D01*
X199308142Y-86489071D01*
X199284333Y-86453357D01*
X199260523Y-86381928D01*
X199260523Y-86310500D01*
X199284333Y-86239071D01*
X199308142Y-86203357D01*
X199355761Y-86167642D01*
X199451000Y-86131928D01*
X199498619Y-86096214D01*
X199522428Y-86060500D01*
X199546238Y-85989071D01*
X199546238Y-85917642D01*
X199522428Y-85846214D01*
X199498619Y-85810500D01*
X199451000Y-85774785D01*
X199331952Y-85774785D01*
X199260523Y-85810500D01*
X198760523Y-86453357D02*
X198784333Y-86489071D01*
X198855761Y-86524785D01*
X198903380Y-86524785D01*
X198974809Y-86489071D01*
X199022428Y-86417642D01*
X199046238Y-86346214D01*
X199070047Y-86203357D01*
X199070047Y-86096214D01*
X199046238Y-85953357D01*
X199022428Y-85881928D01*
X198974809Y-85810500D01*
X198903380Y-85774785D01*
X198855761Y-85774785D01*
X198784333Y-85810500D01*
X198760523Y-85846214D01*
X198308142Y-86524785D02*
X198546238Y-86524785D01*
X198546238Y-85774785D01*
X214823809Y-86131928D02*
X214657142Y-86131928D01*
X214585714Y-86524785D02*
X214823809Y-86524785D01*
X214823809Y-85774785D01*
X214585714Y-85774785D01*
X214371428Y-86524785D02*
X214371428Y-85774785D01*
X214085714Y-86524785D01*
X214085714Y-85774785D01*
X213561904Y-86453357D02*
X213585714Y-86489071D01*
X213657142Y-86524785D01*
X213704761Y-86524785D01*
X213776190Y-86489071D01*
X213823809Y-86417642D01*
X213847619Y-86346214D01*
X213871428Y-86203357D01*
X213871428Y-86096214D01*
X213847619Y-85953357D01*
X213823809Y-85881928D01*
X213776190Y-85810500D01*
X213704761Y-85774785D01*
X213657142Y-85774785D01*
X213585714Y-85810500D01*
X213561904Y-85846214D01*
X213466666Y-86596214D02*
X213085714Y-86596214D01*
X212990476Y-86310500D02*
X212752380Y-86310500D01*
X213038095Y-86524785D02*
X212871428Y-85774785D01*
X212704761Y-86524785D01*
X199558142Y-83949071D02*
X199486714Y-83984785D01*
X199367666Y-83984785D01*
X199320047Y-83949071D01*
X199296238Y-83913357D01*
X199272428Y-83841928D01*
X199272428Y-83770500D01*
X199296238Y-83699071D01*
X199320047Y-83663357D01*
X199367666Y-83627642D01*
X199462904Y-83591928D01*
X199510523Y-83556214D01*
X199534333Y-83520500D01*
X199558142Y-83449071D01*
X199558142Y-83377642D01*
X199534333Y-83306214D01*
X199510523Y-83270500D01*
X199462904Y-83234785D01*
X199343857Y-83234785D01*
X199272428Y-83270500D01*
X199058142Y-83984785D02*
X199058142Y-83234785D01*
X198939095Y-83234785D01*
X198867666Y-83270500D01*
X198820047Y-83341928D01*
X198796238Y-83413357D01*
X198772428Y-83556214D01*
X198772428Y-83663357D01*
X198796238Y-83806214D01*
X198820047Y-83877642D01*
X198867666Y-83949071D01*
X198939095Y-83984785D01*
X199058142Y-83984785D01*
X198581952Y-83770500D02*
X198343857Y-83770500D01*
X198629571Y-83984785D02*
X198462904Y-83234785D01*
X198296238Y-83984785D01*
X214859523Y-83626428D02*
X214692857Y-83626428D01*
X214621428Y-84019285D02*
X214859523Y-84019285D01*
X214859523Y-83269285D01*
X214621428Y-83269285D01*
X214407142Y-84019285D02*
X214407142Y-83269285D01*
X214121428Y-84019285D01*
X214121428Y-83269285D01*
X213597619Y-83947857D02*
X213621428Y-83983571D01*
X213692857Y-84019285D01*
X213740476Y-84019285D01*
X213811904Y-83983571D01*
X213859523Y-83912142D01*
X213883333Y-83840714D01*
X213907142Y-83697857D01*
X213907142Y-83590714D01*
X213883333Y-83447857D01*
X213859523Y-83376428D01*
X213811904Y-83305000D01*
X213740476Y-83269285D01*
X213692857Y-83269285D01*
X213621428Y-83305000D01*
X213597619Y-83340714D01*
X213502380Y-84090714D02*
X213121428Y-84090714D01*
X212835714Y-83626428D02*
X212764285Y-83662142D01*
X212740476Y-83697857D01*
X212716666Y-83769285D01*
X212716666Y-83876428D01*
X212740476Y-83947857D01*
X212764285Y-83983571D01*
X212811904Y-84019285D01*
X213002380Y-84019285D01*
X213002380Y-83269285D01*
X212835714Y-83269285D01*
X212788095Y-83305000D01*
X212764285Y-83340714D01*
X212740476Y-83412142D01*
X212740476Y-83483571D01*
X212764285Y-83555000D01*
X212788095Y-83590714D01*
X212835714Y-83626428D01*
X213002380Y-83626428D01*
X214547619Y-101629857D02*
X214571428Y-101665571D01*
X214642857Y-101701285D01*
X214690476Y-101701285D01*
X214761904Y-101665571D01*
X214809523Y-101594142D01*
X214833333Y-101522714D01*
X214857142Y-101379857D01*
X214857142Y-101272714D01*
X214833333Y-101129857D01*
X214809523Y-101058428D01*
X214761904Y-100987000D01*
X214690476Y-100951285D01*
X214642857Y-100951285D01*
X214571428Y-100987000D01*
X214547619Y-101022714D01*
X214238095Y-100951285D02*
X214142857Y-100951285D01*
X214095238Y-100987000D01*
X214047619Y-101058428D01*
X214023809Y-101201285D01*
X214023809Y-101451285D01*
X214047619Y-101594142D01*
X214095238Y-101665571D01*
X214142857Y-101701285D01*
X214238095Y-101701285D01*
X214285714Y-101665571D01*
X214333333Y-101594142D01*
X214357142Y-101451285D01*
X214357142Y-101201285D01*
X214333333Y-101058428D01*
X214285714Y-100987000D01*
X214238095Y-100951285D01*
X213571428Y-101701285D02*
X213809523Y-101701285D01*
X213809523Y-100951285D01*
X213166666Y-100951285D02*
X213404761Y-100951285D01*
X213428571Y-101308428D01*
X213404761Y-101272714D01*
X213357142Y-101237000D01*
X213238095Y-101237000D01*
X213190476Y-101272714D01*
X213166666Y-101308428D01*
X213142857Y-101379857D01*
X213142857Y-101558428D01*
X213166666Y-101629857D01*
X213190476Y-101665571D01*
X213238095Y-101701285D01*
X213357142Y-101701285D01*
X213404761Y-101665571D01*
X213428571Y-101629857D01*
X199330952Y-101764785D02*
X199497619Y-101407642D01*
X199616666Y-101764785D02*
X199616666Y-101014785D01*
X199426190Y-101014785D01*
X199378571Y-101050500D01*
X199354761Y-101086214D01*
X199330952Y-101157642D01*
X199330952Y-101264785D01*
X199354761Y-101336214D01*
X199378571Y-101371928D01*
X199426190Y-101407642D01*
X199616666Y-101407642D01*
X199021428Y-101014785D02*
X198926190Y-101014785D01*
X198878571Y-101050500D01*
X198830952Y-101121928D01*
X198807142Y-101264785D01*
X198807142Y-101514785D01*
X198830952Y-101657642D01*
X198878571Y-101729071D01*
X198926190Y-101764785D01*
X199021428Y-101764785D01*
X199069047Y-101729071D01*
X199116666Y-101657642D01*
X199140476Y-101514785D01*
X199140476Y-101264785D01*
X199116666Y-101121928D01*
X199069047Y-101050500D01*
X199021428Y-101014785D01*
X198640476Y-101014785D02*
X198521428Y-101764785D01*
X198426190Y-101229071D01*
X198330952Y-101764785D01*
X198211904Y-101014785D01*
X198069047Y-101014785D02*
X197759523Y-101014785D01*
X197926190Y-101300500D01*
X197854761Y-101300500D01*
X197807142Y-101336214D01*
X197783333Y-101371928D01*
X197759523Y-101443357D01*
X197759523Y-101621928D01*
X197783333Y-101693357D01*
X197807142Y-101729071D01*
X197854761Y-101764785D01*
X197997619Y-101764785D01*
X198045238Y-101729071D01*
X198069047Y-101693357D01*
X199330952Y-99224785D02*
X199497619Y-98867642D01*
X199616666Y-99224785D02*
X199616666Y-98474785D01*
X199426190Y-98474785D01*
X199378571Y-98510500D01*
X199354761Y-98546214D01*
X199330952Y-98617642D01*
X199330952Y-98724785D01*
X199354761Y-98796214D01*
X199378571Y-98831928D01*
X199426190Y-98867642D01*
X199616666Y-98867642D01*
X199021428Y-98474785D02*
X198926190Y-98474785D01*
X198878571Y-98510500D01*
X198830952Y-98581928D01*
X198807142Y-98724785D01*
X198807142Y-98974785D01*
X198830952Y-99117642D01*
X198878571Y-99189071D01*
X198926190Y-99224785D01*
X199021428Y-99224785D01*
X199069047Y-99189071D01*
X199116666Y-99117642D01*
X199140476Y-98974785D01*
X199140476Y-98724785D01*
X199116666Y-98581928D01*
X199069047Y-98510500D01*
X199021428Y-98474785D01*
X198640476Y-98474785D02*
X198521428Y-99224785D01*
X198426190Y-98689071D01*
X198330952Y-99224785D01*
X198211904Y-98474785D01*
X198045238Y-98546214D02*
X198021428Y-98510500D01*
X197973809Y-98474785D01*
X197854761Y-98474785D01*
X197807142Y-98510500D01*
X197783333Y-98546214D01*
X197759523Y-98617642D01*
X197759523Y-98689071D01*
X197783333Y-98796214D01*
X198069047Y-99224785D01*
X197759523Y-99224785D01*
X214547619Y-99026357D02*
X214571428Y-99062071D01*
X214642857Y-99097785D01*
X214690476Y-99097785D01*
X214761904Y-99062071D01*
X214809523Y-98990642D01*
X214833333Y-98919214D01*
X214857142Y-98776357D01*
X214857142Y-98669214D01*
X214833333Y-98526357D01*
X214809523Y-98454928D01*
X214761904Y-98383500D01*
X214690476Y-98347785D01*
X214642857Y-98347785D01*
X214571428Y-98383500D01*
X214547619Y-98419214D01*
X214238095Y-98347785D02*
X214142857Y-98347785D01*
X214095238Y-98383500D01*
X214047619Y-98454928D01*
X214023809Y-98597785D01*
X214023809Y-98847785D01*
X214047619Y-98990642D01*
X214095238Y-99062071D01*
X214142857Y-99097785D01*
X214238095Y-99097785D01*
X214285714Y-99062071D01*
X214333333Y-98990642D01*
X214357142Y-98847785D01*
X214357142Y-98597785D01*
X214333333Y-98454928D01*
X214285714Y-98383500D01*
X214238095Y-98347785D01*
X213571428Y-99097785D02*
X213809523Y-99097785D01*
X213809523Y-98347785D01*
X213190476Y-98597785D02*
X213190476Y-99097785D01*
X213309523Y-98312071D02*
X213428571Y-98847785D01*
X213119047Y-98847785D01*
X199330952Y-96719285D02*
X199497619Y-96362142D01*
X199616666Y-96719285D02*
X199616666Y-95969285D01*
X199426190Y-95969285D01*
X199378571Y-96005000D01*
X199354761Y-96040714D01*
X199330952Y-96112142D01*
X199330952Y-96219285D01*
X199354761Y-96290714D01*
X199378571Y-96326428D01*
X199426190Y-96362142D01*
X199616666Y-96362142D01*
X199021428Y-95969285D02*
X198926190Y-95969285D01*
X198878571Y-96005000D01*
X198830952Y-96076428D01*
X198807142Y-96219285D01*
X198807142Y-96469285D01*
X198830952Y-96612142D01*
X198878571Y-96683571D01*
X198926190Y-96719285D01*
X199021428Y-96719285D01*
X199069047Y-96683571D01*
X199116666Y-96612142D01*
X199140476Y-96469285D01*
X199140476Y-96219285D01*
X199116666Y-96076428D01*
X199069047Y-96005000D01*
X199021428Y-95969285D01*
X198640476Y-95969285D02*
X198521428Y-96719285D01*
X198426190Y-96183571D01*
X198330952Y-96719285D01*
X198211904Y-95969285D01*
X197759523Y-96719285D02*
X198045238Y-96719285D01*
X197902380Y-96719285D02*
X197902380Y-95969285D01*
X197950000Y-96076428D01*
X197997619Y-96147857D01*
X198045238Y-96183571D01*
X214547619Y-96647857D02*
X214571428Y-96683571D01*
X214642857Y-96719285D01*
X214690476Y-96719285D01*
X214761904Y-96683571D01*
X214809523Y-96612142D01*
X214833333Y-96540714D01*
X214857142Y-96397857D01*
X214857142Y-96290714D01*
X214833333Y-96147857D01*
X214809523Y-96076428D01*
X214761904Y-96005000D01*
X214690476Y-95969285D01*
X214642857Y-95969285D01*
X214571428Y-96005000D01*
X214547619Y-96040714D01*
X214238095Y-95969285D02*
X214142857Y-95969285D01*
X214095238Y-96005000D01*
X214047619Y-96076428D01*
X214023809Y-96219285D01*
X214023809Y-96469285D01*
X214047619Y-96612142D01*
X214095238Y-96683571D01*
X214142857Y-96719285D01*
X214238095Y-96719285D01*
X214285714Y-96683571D01*
X214333333Y-96612142D01*
X214357142Y-96469285D01*
X214357142Y-96219285D01*
X214333333Y-96076428D01*
X214285714Y-96005000D01*
X214238095Y-95969285D01*
X213571428Y-96719285D02*
X213809523Y-96719285D01*
X213809523Y-95969285D01*
X213452380Y-95969285D02*
X213142857Y-95969285D01*
X213309523Y-96255000D01*
X213238095Y-96255000D01*
X213190476Y-96290714D01*
X213166666Y-96326428D01*
X213142857Y-96397857D01*
X213142857Y-96576428D01*
X213166666Y-96647857D01*
X213190476Y-96683571D01*
X213238095Y-96719285D01*
X213380952Y-96719285D01*
X213428571Y-96683571D01*
X213452380Y-96647857D01*
X199330952Y-94208285D02*
X199497619Y-93851142D01*
X199616666Y-94208285D02*
X199616666Y-93458285D01*
X199426190Y-93458285D01*
X199378571Y-93494000D01*
X199354761Y-93529714D01*
X199330952Y-93601142D01*
X199330952Y-93708285D01*
X199354761Y-93779714D01*
X199378571Y-93815428D01*
X199426190Y-93851142D01*
X199616666Y-93851142D01*
X199021428Y-93458285D02*
X198926190Y-93458285D01*
X198878571Y-93494000D01*
X198830952Y-93565428D01*
X198807142Y-93708285D01*
X198807142Y-93958285D01*
X198830952Y-94101142D01*
X198878571Y-94172571D01*
X198926190Y-94208285D01*
X199021428Y-94208285D01*
X199069047Y-94172571D01*
X199116666Y-94101142D01*
X199140476Y-93958285D01*
X199140476Y-93708285D01*
X199116666Y-93565428D01*
X199069047Y-93494000D01*
X199021428Y-93458285D01*
X198640476Y-93458285D02*
X198521428Y-94208285D01*
X198426190Y-93672571D01*
X198330952Y-94208285D01*
X198211904Y-93458285D01*
X197926190Y-93458285D02*
X197878571Y-93458285D01*
X197830952Y-93494000D01*
X197807142Y-93529714D01*
X197783333Y-93601142D01*
X197759523Y-93744000D01*
X197759523Y-93922571D01*
X197783333Y-94065428D01*
X197807142Y-94136857D01*
X197830952Y-94172571D01*
X197878571Y-94208285D01*
X197926190Y-94208285D01*
X197973809Y-94172571D01*
X197997619Y-94136857D01*
X198021428Y-94065428D01*
X198045238Y-93922571D01*
X198045238Y-93744000D01*
X198021428Y-93601142D01*
X197997619Y-93529714D01*
X197973809Y-93494000D01*
X197926190Y-93458285D01*
X214497619Y-94009857D02*
X214521428Y-94045571D01*
X214592857Y-94081285D01*
X214640476Y-94081285D01*
X214711904Y-94045571D01*
X214759523Y-93974142D01*
X214783333Y-93902714D01*
X214807142Y-93759857D01*
X214807142Y-93652714D01*
X214783333Y-93509857D01*
X214759523Y-93438428D01*
X214711904Y-93367000D01*
X214640476Y-93331285D01*
X214592857Y-93331285D01*
X214521428Y-93367000D01*
X214497619Y-93402714D01*
X214188095Y-93331285D02*
X214092857Y-93331285D01*
X214045238Y-93367000D01*
X213997619Y-93438428D01*
X213973809Y-93581285D01*
X213973809Y-93831285D01*
X213997619Y-93974142D01*
X214045238Y-94045571D01*
X214092857Y-94081285D01*
X214188095Y-94081285D01*
X214235714Y-94045571D01*
X214283333Y-93974142D01*
X214307142Y-93831285D01*
X214307142Y-93581285D01*
X214283333Y-93438428D01*
X214235714Y-93367000D01*
X214188095Y-93331285D01*
X213521428Y-94081285D02*
X213759523Y-94081285D01*
X213759523Y-93331285D01*
X213378571Y-93402714D02*
X213354761Y-93367000D01*
X213307142Y-93331285D01*
X213188095Y-93331285D01*
X213140476Y-93367000D01*
X213116666Y-93402714D01*
X213092857Y-93474142D01*
X213092857Y-93545571D01*
X213116666Y-93652714D01*
X213402380Y-94081285D01*
X213092857Y-94081285D01*
X199233333Y-91533357D02*
X199257142Y-91569071D01*
X199328571Y-91604785D01*
X199376190Y-91604785D01*
X199447619Y-91569071D01*
X199495238Y-91497642D01*
X199519047Y-91426214D01*
X199542857Y-91283357D01*
X199542857Y-91176214D01*
X199519047Y-91033357D01*
X199495238Y-90961928D01*
X199447619Y-90890500D01*
X199376190Y-90854785D01*
X199328571Y-90854785D01*
X199257142Y-90890500D01*
X199233333Y-90926214D01*
X198804761Y-90854785D02*
X198900000Y-90854785D01*
X198947619Y-90890500D01*
X198971428Y-90926214D01*
X199019047Y-91033357D01*
X199042857Y-91176214D01*
X199042857Y-91461928D01*
X199019047Y-91533357D01*
X198995238Y-91569071D01*
X198947619Y-91604785D01*
X198852380Y-91604785D01*
X198804761Y-91569071D01*
X198780952Y-91533357D01*
X198757142Y-91461928D01*
X198757142Y-91283357D01*
X198780952Y-91211928D01*
X198804761Y-91176214D01*
X198852380Y-91140500D01*
X198947619Y-91140500D01*
X198995238Y-91176214D01*
X199019047Y-91211928D01*
X199042857Y-91283357D01*
D11*
%TO.C,SW1*%
D16*
X221552380Y-135711904D02*
X221076190Y-135378571D01*
X221552380Y-135140476D02*
X220552380Y-135140476D01*
X220552380Y-135521428D01*
X220600000Y-135616666D01*
X220647619Y-135664285D01*
X220742857Y-135711904D01*
X220885714Y-135711904D01*
X220980952Y-135664285D01*
X221028571Y-135616666D01*
X221076190Y-135521428D01*
X221076190Y-135140476D01*
X221504761Y-136521428D02*
X221552380Y-136426190D01*
X221552380Y-136235714D01*
X221504761Y-136140476D01*
X221409523Y-136092857D01*
X221028571Y-136092857D01*
X220933333Y-136140476D01*
X220885714Y-136235714D01*
X220885714Y-136426190D01*
X220933333Y-136521428D01*
X221028571Y-136569047D01*
X221123809Y-136569047D01*
X221219047Y-136092857D01*
X221504761Y-136950000D02*
X221552380Y-137045238D01*
X221552380Y-137235714D01*
X221504761Y-137330952D01*
X221409523Y-137378571D01*
X221361904Y-137378571D01*
X221266666Y-137330952D01*
X221219047Y-137235714D01*
X221219047Y-137092857D01*
X221171428Y-136997619D01*
X221076190Y-136950000D01*
X221028571Y-136950000D01*
X220933333Y-136997619D01*
X220885714Y-137092857D01*
X220885714Y-137235714D01*
X220933333Y-137330952D01*
X221504761Y-138188095D02*
X221552380Y-138092857D01*
X221552380Y-137902380D01*
X221504761Y-137807142D01*
X221409523Y-137759523D01*
X221028571Y-137759523D01*
X220933333Y-137807142D01*
X220885714Y-137902380D01*
X220885714Y-138092857D01*
X220933333Y-138188095D01*
X221028571Y-138235714D01*
X221123809Y-138235714D01*
X221219047Y-137759523D01*
X220885714Y-138521428D02*
X220885714Y-138902380D01*
X220552380Y-138664285D02*
X221409523Y-138664285D01*
X221504761Y-138711904D01*
X221552380Y-138807142D01*
X221552380Y-138902380D01*
%TO.C,SW2*%
X224813663Y-115268203D02*
X224704315Y-115371734D01*
X224681282Y-115435016D01*
X224678374Y-115541456D01*
X224738748Y-115670929D01*
X224822155Y-115737119D01*
X224885437Y-115760152D01*
X224991877Y-115763060D01*
X225337137Y-115602063D01*
X224914519Y-114695755D01*
X224612416Y-114836628D01*
X224546226Y-114920034D01*
X224523193Y-114983317D01*
X224520285Y-115089756D01*
X224560534Y-115176071D01*
X224643941Y-115242262D01*
X224707223Y-115265294D01*
X224813663Y-115268203D01*
X225115765Y-115127330D01*
X224042411Y-116205803D02*
X223821040Y-115731070D01*
X223823948Y-115624631D01*
X223890138Y-115541224D01*
X224062768Y-115460725D01*
X224169208Y-115463633D01*
X224022287Y-116162645D02*
X224128726Y-116165554D01*
X224344514Y-116064930D01*
X224410704Y-115981523D01*
X224413613Y-115875084D01*
X224373363Y-115788769D01*
X224289956Y-115722578D01*
X224183517Y-115719670D01*
X223967729Y-115820293D01*
X223861289Y-115817385D01*
X223458563Y-115742470D02*
X223113303Y-115903468D01*
X223188218Y-115500742D02*
X223550462Y-116277577D01*
X223547554Y-116384017D01*
X223481364Y-116467424D01*
X223395049Y-116507673D01*
X222940673Y-115983967D02*
X222595413Y-116144964D01*
X222670328Y-115742238D02*
X223032572Y-116519073D01*
X223029664Y-116625513D01*
X222963474Y-116708920D01*
X222877159Y-116749169D01*
X224863096Y-113965758D02*
X224782597Y-113793128D01*
X224699190Y-113726938D01*
X224572626Y-113680872D01*
X224379871Y-113718213D01*
X224077768Y-113859086D01*
X223925263Y-113982742D01*
X223879197Y-114109307D01*
X223876289Y-114215747D01*
X223956788Y-114388377D01*
X224040195Y-114454567D01*
X224166759Y-114500633D01*
X224359514Y-114463291D01*
X224661617Y-114322419D01*
X224814122Y-114198762D01*
X224860188Y-114072198D01*
X224863096Y-113965758D01*
X223594544Y-113611541D02*
X224500852Y-113188923D01*
X223353048Y-113093651D01*
X224259355Y-112671033D01*
%TO.C,J2*%
X223668571Y-128002380D02*
X223097142Y-128002380D01*
X223382857Y-129002380D02*
X223382857Y-128002380D01*
X222192380Y-129002380D02*
X222525714Y-128526190D01*
X222763809Y-129002380D02*
X222763809Y-128002380D01*
X222382857Y-128002380D01*
X222287619Y-128050000D01*
X222240000Y-128097619D01*
X222192380Y-128192857D01*
X222192380Y-128335714D01*
X222240000Y-128430952D01*
X222287619Y-128478571D01*
X222382857Y-128526190D01*
X222763809Y-128526190D01*
X221478095Y-129383333D02*
X221525714Y-129335714D01*
X221620952Y-129192857D01*
X221668571Y-129097619D01*
X221716190Y-128954761D01*
X221763809Y-128716666D01*
X221763809Y-128526190D01*
X221716190Y-128288095D01*
X221668571Y-128145238D01*
X221620952Y-128050000D01*
X221525714Y-127907142D01*
X221478095Y-127859523D01*
X220525714Y-129002380D02*
X220859047Y-128526190D01*
X221097142Y-129002380D02*
X221097142Y-128002380D01*
X220716190Y-128002380D01*
X220620952Y-128050000D01*
X220573333Y-128097619D01*
X220525714Y-128192857D01*
X220525714Y-128335714D01*
X220573333Y-128430952D01*
X220620952Y-128478571D01*
X220716190Y-128526190D01*
X221097142Y-128526190D01*
X220192380Y-129383333D02*
X220144761Y-129335714D01*
X220049523Y-129192857D01*
X220001904Y-129097619D01*
X219954285Y-128954761D01*
X219906666Y-128716666D01*
X219906666Y-128526190D01*
X219954285Y-128288095D01*
X220001904Y-128145238D01*
X220049523Y-128050000D01*
X220144761Y-127907142D01*
X220192380Y-127859523D01*
X219478095Y-128954761D02*
X219335238Y-129002380D01*
X219097142Y-129002380D01*
X219001904Y-128954761D01*
X218954285Y-128907142D01*
X218906666Y-128811904D01*
X218906666Y-128716666D01*
X218954285Y-128621428D01*
X219001904Y-128573809D01*
X219097142Y-128526190D01*
X219287619Y-128478571D01*
X219382857Y-128430952D01*
X219430476Y-128383333D01*
X219478095Y-128288095D01*
X219478095Y-128192857D01*
X219430476Y-128097619D01*
X219382857Y-128050000D01*
X219287619Y-128002380D01*
X219049523Y-128002380D01*
X218906666Y-128050000D01*
%TD*%
%LPC*%
D17*
%TO.C,H5*%
X127000000Y-110000000D03*
%TD*%
%TO.C,H9*%
X181000000Y-68000000D03*
%TD*%
%TO.C,H8*%
X181000000Y-110500000D03*
%TD*%
D18*
%TO.C,H7*%
X109000000Y-110000000D03*
%TD*%
%TO.C,H6*%
X109000000Y-93000000D03*
%TD*%
D17*
%TO.C,H4*%
X127000000Y-81000000D03*
%TD*%
%TO.C,H1*%
X163010000Y-62910000D03*
X182060000Y-81960000D03*
X163010000Y-101010000D03*
X143960000Y-81960000D03*
%TD*%
D19*
%TO.C,J1*%
X220555000Y-104550000D03*
D20*
X218015000Y-104550000D03*
X215475000Y-104550000D03*
X212935000Y-104550000D03*
X210395000Y-104550000D03*
D21*
X222225000Y-85200000D03*
%TD*%
%TO.C,C1*%
G36*
G01*
X209950000Y-70505000D02*
X209950000Y-69555000D01*
G75*
G02*
X210200000Y-69305000I250000J0D01*
G01*
X210700000Y-69305000D01*
G75*
G02*
X210950000Y-69555000I0J-250000D01*
G01*
X210950000Y-70505000D01*
G75*
G02*
X210700000Y-70755000I-250000J0D01*
G01*
X210200000Y-70755000D01*
G75*
G02*
X209950000Y-70505000I0J250000D01*
G01*
G37*
G36*
G01*
X208050000Y-70505000D02*
X208050000Y-69555000D01*
G75*
G02*
X208300000Y-69305000I250000J0D01*
G01*
X208800000Y-69305000D01*
G75*
G02*
X209050000Y-69555000I0J-250000D01*
G01*
X209050000Y-70505000D01*
G75*
G02*
X208800000Y-70755000I-250000J0D01*
G01*
X208300000Y-70755000D01*
G75*
G02*
X208050000Y-70505000I0J250000D01*
G01*
G37*
%TD*%
D22*
%TO.C,J3*%
X204900000Y-70100000D03*
%TD*%
%TO.C,J4*%
X213800000Y-70100000D03*
%TD*%
D23*
%TO.C,U1*%
X202436400Y-72152000D03*
X202436400Y-74692000D03*
X202436400Y-77232000D03*
X202436400Y-79772000D03*
X202436400Y-82312000D03*
X202436400Y-84852000D03*
X202436400Y-87392000D03*
X202436400Y-89932000D03*
X202436400Y-92472000D03*
X202436400Y-95012000D03*
X202436400Y-97552000D03*
X202436400Y-100092000D03*
X217656400Y-100092000D03*
X217656400Y-97552000D03*
X217656400Y-95012000D03*
X217656400Y-92472000D03*
X217656400Y-89932000D03*
X217656400Y-87392000D03*
X217656400Y-84852000D03*
X217656400Y-82312000D03*
X217656400Y-79772000D03*
X217656400Y-77232000D03*
X217656400Y-74692000D03*
X217656400Y-72152000D03*
%TD*%
D12*
%TO.C,SW1*%
G36*
X227094047Y-137180702D02*
G01*
X227083517Y-137233639D01*
X227067849Y-137285289D01*
X227047194Y-137335155D01*
X227021751Y-137382757D01*
X226991764Y-137427635D01*
X226957523Y-137469357D01*
X226919357Y-137507523D01*
X226877635Y-137541764D01*
X226832757Y-137571751D01*
X226785155Y-137597194D01*
X226735289Y-137617849D01*
X226683639Y-137633517D01*
X226677000Y-137634838D01*
X226677000Y-140300000D01*
X226676988Y-140301773D01*
X226676209Y-140314157D01*
X226674225Y-140326405D01*
X226671055Y-140338401D01*
X226666730Y-140350031D01*
X226661291Y-140361183D01*
X226654789Y-140371751D01*
X226647288Y-140381634D01*
X226638857Y-140390738D01*
X226629579Y-140398976D01*
X226619541Y-140406269D01*
X226608839Y-140412548D01*
X226597575Y-140417752D01*
X226585857Y-140421833D01*
X226573797Y-140424750D01*
X226561510Y-140426477D01*
X226549113Y-140426997D01*
X226536725Y-140426304D01*
X226524463Y-140424406D01*
X226512445Y-140421320D01*
X226500786Y-140417077D01*
X226489596Y-140411715D01*
X226478983Y-140405288D01*
X226469047Y-140397855D01*
X226459885Y-140389489D01*
X226451582Y-140380268D01*
X226444219Y-140370281D01*
X226437866Y-140359623D01*
X226432583Y-140348396D01*
X226428420Y-140336707D01*
X226425419Y-140324668D01*
X226423606Y-140312393D01*
X226423000Y-140300000D01*
X226423000Y-137634838D01*
X226416361Y-137633517D01*
X226364711Y-137617849D01*
X226314845Y-137597194D01*
X226267243Y-137571751D01*
X226222365Y-137541764D01*
X226180643Y-137507523D01*
X226142477Y-137469357D01*
X226108236Y-137427635D01*
X226078249Y-137382757D01*
X226052806Y-137335155D01*
X226032151Y-137285289D01*
X226016483Y-137233639D01*
X226005953Y-137180702D01*
X226000662Y-137126987D01*
X226000662Y-137073013D01*
X226005953Y-137019298D01*
X226016483Y-136966361D01*
X226032151Y-136914711D01*
X226052806Y-136864845D01*
X226078249Y-136817243D01*
X226108236Y-136772365D01*
X226142477Y-136730643D01*
X226180643Y-136692477D01*
X226222365Y-136658236D01*
X226267243Y-136628249D01*
X226314845Y-136602806D01*
X226364711Y-136582151D01*
X226416361Y-136566483D01*
X226423000Y-136565162D01*
X226423000Y-133900000D01*
X226423012Y-133898227D01*
X226423791Y-133885843D01*
X226425775Y-133873595D01*
X226428945Y-133861599D01*
X226433270Y-133849969D01*
X226438709Y-133838817D01*
X226445211Y-133828249D01*
X226452712Y-133818366D01*
X226461143Y-133809262D01*
X226470421Y-133801024D01*
X226480459Y-133793731D01*
X226491161Y-133787452D01*
X226502425Y-133782248D01*
X226514143Y-133778167D01*
X226526203Y-133775250D01*
X226538490Y-133773523D01*
X226550887Y-133773003D01*
X226563275Y-133773696D01*
X226575537Y-133775594D01*
X226587555Y-133778680D01*
X226599214Y-133782923D01*
X226610404Y-133788285D01*
X226621017Y-133794712D01*
X226630953Y-133802145D01*
X226640115Y-133810511D01*
X226648418Y-133819732D01*
X226655781Y-133829719D01*
X226662134Y-133840377D01*
X226667417Y-133851604D01*
X226671580Y-133863293D01*
X226674581Y-133875332D01*
X226676394Y-133887607D01*
X226677000Y-133900000D01*
X226677000Y-136565162D01*
X226683639Y-136566483D01*
X226735289Y-136582151D01*
X226785155Y-136602806D01*
X226832757Y-136628249D01*
X226877635Y-136658236D01*
X226919357Y-136692477D01*
X226957523Y-136730643D01*
X226991764Y-136772365D01*
X227021751Y-136817243D01*
X227047194Y-136864845D01*
X227067849Y-136914711D01*
X227083517Y-136966361D01*
X227094047Y-137019298D01*
X227099338Y-137073013D01*
X227099338Y-137126987D01*
X227094047Y-137180702D01*
G37*
G36*
X223394047Y-137180702D02*
G01*
X223383517Y-137233639D01*
X223367849Y-137285289D01*
X223347194Y-137335155D01*
X223321751Y-137382757D01*
X223291764Y-137427635D01*
X223257523Y-137469357D01*
X223219357Y-137507523D01*
X223177635Y-137541764D01*
X223132757Y-137571751D01*
X223085155Y-137597194D01*
X223035289Y-137617849D01*
X222983639Y-137633517D01*
X222977000Y-137634838D01*
X222977000Y-140300000D01*
X222976988Y-140301773D01*
X222976209Y-140314157D01*
X222974225Y-140326405D01*
X222971055Y-140338401D01*
X222966730Y-140350031D01*
X222961291Y-140361183D01*
X222954789Y-140371751D01*
X222947288Y-140381634D01*
X222938857Y-140390738D01*
X222929579Y-140398976D01*
X222919541Y-140406269D01*
X222908839Y-140412548D01*
X222897575Y-140417752D01*
X222885857Y-140421833D01*
X222873797Y-140424750D01*
X222861510Y-140426477D01*
X222849113Y-140426997D01*
X222836725Y-140426304D01*
X222824463Y-140424406D01*
X222812445Y-140421320D01*
X222800786Y-140417077D01*
X222789596Y-140411715D01*
X222778983Y-140405288D01*
X222769047Y-140397855D01*
X222759885Y-140389489D01*
X222751582Y-140380268D01*
X222744219Y-140370281D01*
X222737866Y-140359623D01*
X222732583Y-140348396D01*
X222728420Y-140336707D01*
X222725419Y-140324668D01*
X222723606Y-140312393D01*
X222723000Y-140300000D01*
X222723000Y-137634838D01*
X222716361Y-137633517D01*
X222664711Y-137617849D01*
X222614845Y-137597194D01*
X222567243Y-137571751D01*
X222522365Y-137541764D01*
X222480643Y-137507523D01*
X222442477Y-137469357D01*
X222408236Y-137427635D01*
X222378249Y-137382757D01*
X222352806Y-137335155D01*
X222332151Y-137285289D01*
X222316483Y-137233639D01*
X222305953Y-137180702D01*
X222300662Y-137126987D01*
X222300662Y-137073013D01*
X222305953Y-137019298D01*
X222316483Y-136966361D01*
X222332151Y-136914711D01*
X222352806Y-136864845D01*
X222378249Y-136817243D01*
X222408236Y-136772365D01*
X222442477Y-136730643D01*
X222480643Y-136692477D01*
X222522365Y-136658236D01*
X222567243Y-136628249D01*
X222614845Y-136602806D01*
X222664711Y-136582151D01*
X222716361Y-136566483D01*
X222723000Y-136565162D01*
X222723000Y-133900000D01*
X222723012Y-133898227D01*
X222723791Y-133885843D01*
X222725775Y-133873595D01*
X222728945Y-133861599D01*
X222733270Y-133849969D01*
X222738709Y-133838817D01*
X222745211Y-133828249D01*
X222752712Y-133818366D01*
X222761143Y-133809262D01*
X222770421Y-133801024D01*
X222780459Y-133793731D01*
X222791161Y-133787452D01*
X222802425Y-133782248D01*
X222814143Y-133778167D01*
X222826203Y-133775250D01*
X222838490Y-133773523D01*
X222850887Y-133773003D01*
X222863275Y-133773696D01*
X222875537Y-133775594D01*
X222887555Y-133778680D01*
X222899214Y-133782923D01*
X222910404Y-133788285D01*
X222921017Y-133794712D01*
X222930953Y-133802145D01*
X222940115Y-133810511D01*
X222948418Y-133819732D01*
X222955781Y-133829719D01*
X222962134Y-133840377D01*
X222967417Y-133851604D01*
X222971580Y-133863293D01*
X222974581Y-133875332D01*
X222976394Y-133887607D01*
X222977000Y-133900000D01*
X222977000Y-136565162D01*
X222983639Y-136566483D01*
X223035289Y-136582151D01*
X223085155Y-136602806D01*
X223132757Y-136628249D01*
X223177635Y-136658236D01*
X223219357Y-136692477D01*
X223257523Y-136730643D01*
X223291764Y-136772365D01*
X223321751Y-136817243D01*
X223347194Y-136864845D01*
X223367849Y-136914711D01*
X223383517Y-136966361D01*
X223394047Y-137019298D01*
X223399338Y-137073013D01*
X223399338Y-137126987D01*
X223394047Y-137180702D01*
G37*
D24*
X222850000Y-140200000D03*
X226550000Y-140200000D03*
X226550000Y-134000000D03*
X222850000Y-134000000D03*
%TD*%
D12*
%TO.C,SW2*%
G36*
X220368983Y-108724890D02*
G01*
X220374175Y-108742762D01*
X220377599Y-108761056D01*
X220379221Y-108779598D01*
X220379026Y-108798208D01*
X220377017Y-108816711D01*
X220373210Y-108834930D01*
X220367645Y-108852690D01*
X220360373Y-108869822D01*
X220351463Y-108886163D01*
X220341002Y-108901557D01*
X220329088Y-108915856D01*
X220315836Y-108928923D01*
X220301372Y-108940637D01*
X220285835Y-108950882D01*
X220269370Y-108959562D01*
X217982573Y-110025914D01*
X217983514Y-110029760D01*
X217994609Y-110107481D01*
X217998034Y-110185914D01*
X217993754Y-110264306D01*
X217981811Y-110341900D01*
X217962320Y-110417951D01*
X217935469Y-110491725D01*
X217901515Y-110562511D01*
X217860788Y-110629629D01*
X217813677Y-110692431D01*
X217760638Y-110750313D01*
X217702180Y-110802718D01*
X217638867Y-110849141D01*
X217571309Y-110889134D01*
X217500157Y-110922313D01*
X217426095Y-110948358D01*
X217349837Y-110967019D01*
X217272116Y-110978114D01*
X217193683Y-110981539D01*
X217115291Y-110977259D01*
X217037697Y-110965316D01*
X216961646Y-110945825D01*
X216887872Y-110918974D01*
X216817086Y-110885020D01*
X216749968Y-110844293D01*
X216687166Y-110797182D01*
X216629284Y-110744143D01*
X216576879Y-110685685D01*
X216530456Y-110622372D01*
X216490463Y-110554814D01*
X216457284Y-110483662D01*
X216431239Y-110409600D01*
X216412578Y-110333342D01*
X216401483Y-110255621D01*
X216398058Y-110177188D01*
X216402338Y-110098796D01*
X216414281Y-110021202D01*
X216433772Y-109945151D01*
X216460623Y-109871377D01*
X216494577Y-109800591D01*
X216535304Y-109733473D01*
X216582415Y-109670671D01*
X216635454Y-109612789D01*
X216693912Y-109560384D01*
X216757225Y-109513961D01*
X216824783Y-109473968D01*
X216895935Y-109440789D01*
X216969997Y-109414744D01*
X217046255Y-109396083D01*
X217123976Y-109384988D01*
X217202409Y-109381563D01*
X217280801Y-109385843D01*
X217358395Y-109397786D01*
X217434446Y-109417277D01*
X217508220Y-109444128D01*
X217579006Y-109478082D01*
X217646124Y-109518809D01*
X217708926Y-109565920D01*
X217766808Y-109618959D01*
X217819213Y-109677417D01*
X217821555Y-109680610D01*
X220108353Y-108614259D01*
X220110772Y-108613152D01*
X220128100Y-108606361D01*
X220146008Y-108601293D01*
X220164326Y-108597997D01*
X220182878Y-108596505D01*
X220201487Y-108596830D01*
X220219975Y-108598969D01*
X220238167Y-108602902D01*
X220255887Y-108608591D01*
X220272969Y-108615983D01*
X220289247Y-108625006D01*
X220304567Y-108635575D01*
X220318783Y-108647587D01*
X220331758Y-108660931D01*
X220343370Y-108675476D01*
X220353506Y-108691085D01*
X220362071Y-108707609D01*
X220368983Y-108724890D01*
G37*
G36*
X221425529Y-110990659D02*
G01*
X221430721Y-111008531D01*
X221434145Y-111026825D01*
X221435767Y-111045367D01*
X221435572Y-111063977D01*
X221433563Y-111082480D01*
X221429756Y-111100699D01*
X221424191Y-111118459D01*
X221416919Y-111135591D01*
X221408009Y-111151932D01*
X221397548Y-111167326D01*
X221385634Y-111181625D01*
X221372382Y-111194692D01*
X221357918Y-111206406D01*
X221342381Y-111216651D01*
X221325916Y-111225331D01*
X219039119Y-112291683D01*
X219040060Y-112295529D01*
X219051155Y-112373250D01*
X219054580Y-112451683D01*
X219050300Y-112530075D01*
X219038357Y-112607669D01*
X219018866Y-112683720D01*
X218992015Y-112757494D01*
X218958061Y-112828280D01*
X218917334Y-112895398D01*
X218870223Y-112958200D01*
X218817184Y-113016082D01*
X218758726Y-113068487D01*
X218695413Y-113114910D01*
X218627855Y-113154903D01*
X218556703Y-113188082D01*
X218482641Y-113214127D01*
X218406383Y-113232788D01*
X218328662Y-113243883D01*
X218250229Y-113247308D01*
X218171837Y-113243028D01*
X218094243Y-113231085D01*
X218018192Y-113211594D01*
X217944418Y-113184743D01*
X217873632Y-113150789D01*
X217806514Y-113110062D01*
X217743712Y-113062951D01*
X217685830Y-113009912D01*
X217633425Y-112951454D01*
X217587002Y-112888141D01*
X217547009Y-112820583D01*
X217513830Y-112749431D01*
X217487785Y-112675369D01*
X217469124Y-112599111D01*
X217458029Y-112521390D01*
X217454604Y-112442957D01*
X217458884Y-112364565D01*
X217470827Y-112286971D01*
X217490318Y-112210920D01*
X217517169Y-112137146D01*
X217551123Y-112066360D01*
X217591850Y-111999242D01*
X217638961Y-111936440D01*
X217692000Y-111878558D01*
X217750458Y-111826153D01*
X217813771Y-111779730D01*
X217881329Y-111739737D01*
X217952481Y-111706558D01*
X218026543Y-111680513D01*
X218102801Y-111661852D01*
X218180522Y-111650757D01*
X218258955Y-111647332D01*
X218337347Y-111651612D01*
X218414941Y-111663555D01*
X218490992Y-111683046D01*
X218564766Y-111709897D01*
X218635552Y-111743851D01*
X218702670Y-111784578D01*
X218765472Y-111831689D01*
X218823354Y-111884728D01*
X218875759Y-111943186D01*
X218878101Y-111946379D01*
X221164899Y-110880028D01*
X221167318Y-110878921D01*
X221184646Y-110872130D01*
X221202554Y-110867062D01*
X221220872Y-110863766D01*
X221239424Y-110862274D01*
X221258033Y-110862599D01*
X221276521Y-110864738D01*
X221294713Y-110868671D01*
X221312433Y-110874360D01*
X221329515Y-110881752D01*
X221345793Y-110890775D01*
X221361113Y-110901344D01*
X221375329Y-110913356D01*
X221388304Y-110926700D01*
X221399916Y-110941245D01*
X221410052Y-110956854D01*
X221418617Y-110973378D01*
X221425529Y-110990659D01*
G37*
G36*
X222482075Y-113256429D02*
G01*
X222487267Y-113274301D01*
X222490691Y-113292595D01*
X222492313Y-113311137D01*
X222492118Y-113329747D01*
X222490109Y-113348250D01*
X222486302Y-113366469D01*
X222480737Y-113384229D01*
X222473465Y-113401361D01*
X222464555Y-113417702D01*
X222454094Y-113433096D01*
X222442180Y-113447395D01*
X222428928Y-113460462D01*
X222414464Y-113472176D01*
X222398927Y-113482421D01*
X222382462Y-113491101D01*
X220095665Y-114557453D01*
X220096606Y-114561299D01*
X220107701Y-114639020D01*
X220111126Y-114717453D01*
X220106846Y-114795845D01*
X220094903Y-114873439D01*
X220075412Y-114949490D01*
X220048561Y-115023264D01*
X220014607Y-115094050D01*
X219973880Y-115161168D01*
X219926769Y-115223970D01*
X219873730Y-115281852D01*
X219815272Y-115334257D01*
X219751959Y-115380680D01*
X219684401Y-115420673D01*
X219613249Y-115453852D01*
X219539187Y-115479897D01*
X219462929Y-115498558D01*
X219385208Y-115509653D01*
X219306775Y-115513078D01*
X219228383Y-115508798D01*
X219150789Y-115496855D01*
X219074738Y-115477364D01*
X219000964Y-115450513D01*
X218930178Y-115416559D01*
X218863060Y-115375832D01*
X218800258Y-115328721D01*
X218742376Y-115275682D01*
X218689971Y-115217224D01*
X218643548Y-115153911D01*
X218603555Y-115086353D01*
X218570376Y-115015201D01*
X218544331Y-114941139D01*
X218525670Y-114864881D01*
X218514575Y-114787160D01*
X218511150Y-114708727D01*
X218515430Y-114630335D01*
X218527373Y-114552741D01*
X218546864Y-114476690D01*
X218573715Y-114402916D01*
X218607669Y-114332130D01*
X218648396Y-114265012D01*
X218695507Y-114202210D01*
X218748546Y-114144328D01*
X218807004Y-114091923D01*
X218870317Y-114045500D01*
X218937875Y-114005507D01*
X219009027Y-113972328D01*
X219083089Y-113946283D01*
X219159347Y-113927622D01*
X219237068Y-113916527D01*
X219315501Y-113913102D01*
X219393893Y-113917382D01*
X219471487Y-113929325D01*
X219547538Y-113948816D01*
X219621312Y-113975667D01*
X219692098Y-114009621D01*
X219759216Y-114050348D01*
X219822018Y-114097459D01*
X219879900Y-114150498D01*
X219932305Y-114208956D01*
X219934647Y-114212149D01*
X222221445Y-113145798D01*
X222223864Y-113144691D01*
X222241192Y-113137900D01*
X222259100Y-113132832D01*
X222277418Y-113129536D01*
X222295970Y-113128044D01*
X222314579Y-113128369D01*
X222333067Y-113130508D01*
X222351259Y-113134441D01*
X222368979Y-113140130D01*
X222386061Y-113147522D01*
X222402339Y-113156545D01*
X222417659Y-113167114D01*
X222431875Y-113179126D01*
X222444850Y-113192470D01*
X222456462Y-113207015D01*
X222466598Y-113222624D01*
X222475163Y-113239148D01*
X222482075Y-113256429D01*
G37*
D25*
X222301954Y-113318449D03*
X220188862Y-108786910D03*
X221245408Y-111052680D03*
%TD*%
D26*
%TO.C,K24*%
X215140348Y-144691248D03*
D27*
X219029435Y-148580335D03*
X211251261Y-140802161D03*
D28*
X210968418Y-148863178D03*
X208917808Y-143842720D03*
%TD*%
D26*
%TO.C,K19*%
X207978277Y-117827488D03*
D27*
X212741417Y-120577488D03*
X203215137Y-115077488D03*
D28*
X205028277Y-122937038D03*
X201748150Y-118618385D03*
%TD*%
D26*
%TO.C,K23*%
X199478277Y-132549920D03*
D27*
X204241417Y-135299920D03*
X194715137Y-129799920D03*
D28*
X196528277Y-137659470D03*
X193248150Y-133340817D03*
%TD*%
D26*
%TO.C,K22*%
X181110001Y-124886666D03*
D27*
X186422593Y-126310171D03*
X175797409Y-123463161D03*
D28*
X179582969Y-130585628D03*
X175296859Y-127263089D03*
%TD*%
D26*
%TO.C,K21*%
X161500000Y-122000000D03*
D27*
X167000000Y-122000000D03*
X156000000Y-122000000D03*
D28*
X161500000Y-127900000D03*
X156500000Y-125800000D03*
%TD*%
D26*
%TO.C,K18*%
X190000000Y-107500000D03*
D27*
X195500000Y-107500000D03*
X184500000Y-107500000D03*
D28*
X190000000Y-113400000D03*
X185000000Y-111300000D03*
%TD*%
D26*
%TO.C,K17*%
X172000000Y-105000000D03*
D27*
X177500000Y-105000000D03*
X166500000Y-105000000D03*
D28*
X172000000Y-110900000D03*
X167000000Y-108800000D03*
%TD*%
D26*
%TO.C,K12*%
X190000000Y-90500000D03*
D27*
X195500000Y-90500000D03*
X184500000Y-90500000D03*
D28*
X190000000Y-96400000D03*
X185000000Y-94300000D03*
%TD*%
D26*
%TO.C,K11*%
X172000000Y-88000000D03*
D27*
X177500000Y-88000000D03*
X166500000Y-88000000D03*
D28*
X172000000Y-93900000D03*
X167000000Y-91800000D03*
%TD*%
D26*
%TO.C,K6*%
X190000000Y-73500000D03*
D27*
X195500000Y-73500000D03*
X184500000Y-73500000D03*
D28*
X190000000Y-79400000D03*
X185000000Y-77300000D03*
%TD*%
D26*
%TO.C,K5*%
X172000000Y-71000000D03*
D27*
X177500000Y-71000000D03*
X166500000Y-71000000D03*
D28*
X172000000Y-76900000D03*
X167000000Y-74800000D03*
%TD*%
D26*
%TO.C,K16*%
X154000000Y-99500000D03*
D27*
X159500000Y-99500000D03*
X148500000Y-99500000D03*
D28*
X154000000Y-105400000D03*
X149000000Y-103300000D03*
%TD*%
D26*
%TO.C,K15*%
X136000000Y-106500000D03*
D27*
X141500000Y-106500000D03*
X130500000Y-106500000D03*
D28*
X136000000Y-112400000D03*
X131000000Y-110300000D03*
%TD*%
D26*
%TO.C,K10*%
X154000000Y-82500000D03*
D27*
X159500000Y-82500000D03*
X148500000Y-82500000D03*
D28*
X154000000Y-88400000D03*
X149000000Y-86300000D03*
%TD*%
D26*
%TO.C,K9*%
X136000000Y-89500000D03*
D27*
X141500000Y-89500000D03*
X130500000Y-89500000D03*
D28*
X136000000Y-95400000D03*
X131000000Y-93300000D03*
%TD*%
D26*
%TO.C,K14*%
X118000000Y-118500000D03*
D27*
X123500000Y-118500000D03*
X112500000Y-118500000D03*
D28*
X118000000Y-124400000D03*
X113000000Y-122300000D03*
%TD*%
D26*
%TO.C,K13*%
X100000000Y-118500000D03*
D27*
X105500000Y-118500000D03*
X94500000Y-118500000D03*
D28*
X100000000Y-124400000D03*
X95000000Y-122300000D03*
%TD*%
D26*
%TO.C,K2*%
X118000000Y-84500000D03*
D27*
X123500000Y-84500000D03*
X112500000Y-84500000D03*
D28*
X118000000Y-90400000D03*
X113000000Y-88300000D03*
%TD*%
D26*
%TO.C,K8*%
X118000000Y-101500000D03*
D27*
X123500000Y-101500000D03*
X112500000Y-101500000D03*
D28*
X118000000Y-107400000D03*
X113000000Y-105300000D03*
%TD*%
D26*
%TO.C,K7*%
X100000000Y-101500000D03*
D27*
X105500000Y-101500000D03*
X94500000Y-101500000D03*
D28*
X100000000Y-107400000D03*
X95000000Y-105300000D03*
%TD*%
D26*
%TO.C,K4*%
X154000000Y-65500000D03*
D27*
X159500000Y-65500000D03*
X148500000Y-65500000D03*
D28*
X154000000Y-71400000D03*
X149000000Y-69300000D03*
%TD*%
D26*
%TO.C,K3*%
X136000000Y-72500000D03*
D27*
X141500000Y-72500000D03*
X130500000Y-72500000D03*
D28*
X136000000Y-78400000D03*
X131000000Y-76300000D03*
%TD*%
D26*
%TO.C,K1*%
X100000000Y-84500000D03*
D27*
X105500000Y-84500000D03*
X94500000Y-84500000D03*
D28*
X100000000Y-90400000D03*
X95000000Y-88300000D03*
%TD*%
%TO.C,R2*%
G36*
G01*
X221309900Y-92885000D02*
X220410100Y-92885000D01*
G75*
G02*
X220160000Y-92634900I0J250100D01*
G01*
X220160000Y-92110100D01*
G75*
G02*
X220410100Y-91860000I250100J0D01*
G01*
X221309900Y-91860000D01*
G75*
G02*
X221560000Y-92110100I0J-250100D01*
G01*
X221560000Y-92634900D01*
G75*
G02*
X221309900Y-92885000I-250100J0D01*
G01*
G37*
G36*
G01*
X221309900Y-91060000D02*
X220410100Y-91060000D01*
G75*
G02*
X220160000Y-90809900I0J250100D01*
G01*
X220160000Y-90285100D01*
G75*
G02*
X220410100Y-90035000I250100J0D01*
G01*
X221309900Y-90035000D01*
G75*
G02*
X221560000Y-90285100I0J-250100D01*
G01*
X221560000Y-90809900D01*
G75*
G02*
X221309900Y-91060000I-250100J0D01*
G01*
G37*
%TD*%
%TO.C,R1*%
G36*
G01*
X221309900Y-98905000D02*
X220410100Y-98905000D01*
G75*
G02*
X220160000Y-98654900I0J250100D01*
G01*
X220160000Y-98130100D01*
G75*
G02*
X220410100Y-97880000I250100J0D01*
G01*
X221309900Y-97880000D01*
G75*
G02*
X221560000Y-98130100I0J-250100D01*
G01*
X221560000Y-98654900D01*
G75*
G02*
X221309900Y-98905000I-250100J0D01*
G01*
G37*
G36*
G01*
X221309900Y-97080000D02*
X220410100Y-97080000D01*
G75*
G02*
X220160000Y-96829900I0J250100D01*
G01*
X220160000Y-96305100D01*
G75*
G02*
X220410100Y-96055000I250100J0D01*
G01*
X221309900Y-96055000D01*
G75*
G02*
X221560000Y-96305100I0J-250100D01*
G01*
X221560000Y-96829900D01*
G75*
G02*
X221309900Y-97080000I-250100J0D01*
G01*
G37*
%TD*%
D12*
%TO.C,D18*%
G36*
X219135501Y-141261781D02*
G01*
X218569815Y-140696095D01*
X219206211Y-140059699D01*
X219771897Y-140625385D01*
X219135501Y-141261781D01*
G37*
G36*
X217049536Y-142004243D02*
G01*
X216483850Y-141438557D01*
X217120246Y-140802161D01*
X217685932Y-141367847D01*
X217049536Y-142004243D01*
G37*
G36*
X218393039Y-143347746D02*
G01*
X217827353Y-142782060D01*
X218463749Y-142145664D01*
X219029435Y-142711350D01*
X218393039Y-143347746D01*
G37*
%TD*%
D29*
%TO.C,D17*%
X190000000Y-101800000D03*
X189050000Y-103800000D03*
X190950000Y-103800000D03*
%TD*%
%TO.C,D16*%
X154000000Y-93800000D03*
X153050000Y-95800000D03*
X154950000Y-95800000D03*
%TD*%
%TO.C,D15*%
X172000000Y-99300000D03*
X171050000Y-101300000D03*
X172950000Y-101300000D03*
%TD*%
%TO.C,D14*%
X136000000Y-100800000D03*
X135050000Y-102800000D03*
X136950000Y-102800000D03*
%TD*%
%TO.C,D13*%
X118000000Y-112800000D03*
X117050000Y-114800000D03*
X118950000Y-114800000D03*
%TD*%
%TO.C,D12*%
X172000000Y-82300000D03*
X171050000Y-84300000D03*
X172950000Y-84300000D03*
%TD*%
%TO.C,D11*%
X136000000Y-83800000D03*
X135050000Y-85800000D03*
X136950000Y-85800000D03*
%TD*%
%TO.C,D10*%
X118000000Y-95800000D03*
X117050000Y-97800000D03*
X118950000Y-97800000D03*
%TD*%
%TO.C,D9*%
X172000000Y-65300000D03*
X171050000Y-67300000D03*
X172950000Y-67300000D03*
%TD*%
%TO.C,D8*%
X136000000Y-66800000D03*
X135050000Y-68800000D03*
X136950000Y-68800000D03*
%TD*%
%TO.C,D7*%
X118000000Y-78800000D03*
X117050000Y-80800000D03*
X118950000Y-80800000D03*
%TD*%
D30*
%TO.C,D5*%
X129180000Y-114360000D03*
X129180000Y-115860000D03*
X134280000Y-114360000D03*
G36*
G01*
X133430000Y-116065000D02*
X133430000Y-115655000D01*
G75*
G02*
X133635000Y-115450000I205000J0D01*
G01*
X134925000Y-115450000D01*
G75*
G02*
X135130000Y-115655000I0J-205000D01*
G01*
X135130000Y-116065000D01*
G75*
G02*
X134925000Y-116270000I-205000J0D01*
G01*
X133635000Y-116270000D01*
G75*
G02*
X133430000Y-116065000I0J205000D01*
G01*
G37*
%TD*%
%TO.C,D4*%
X158986067Y-112967196D03*
X158986067Y-114467196D03*
X164086067Y-112967196D03*
G36*
G01*
X163236067Y-114672196D02*
X163236067Y-114262196D01*
G75*
G02*
X163441067Y-114057196I205000J0D01*
G01*
X164731067Y-114057196D01*
G75*
G02*
X164936067Y-114262196I0J-205000D01*
G01*
X164936067Y-114672196D01*
G75*
G02*
X164731067Y-114877196I-205000J0D01*
G01*
X163441067Y-114877196D01*
G75*
G02*
X163236067Y-114672196I0J205000D01*
G01*
G37*
%TD*%
D12*
%TO.C,D3*%
G36*
X180107521Y-115544367D02*
G01*
X180319753Y-114752308D01*
X181961827Y-115192301D01*
X181749595Y-115984360D01*
X180107521Y-115544367D01*
G37*
G36*
X179719293Y-116993256D02*
G01*
X179931525Y-116201197D01*
X181573599Y-116641190D01*
X181361367Y-117433249D01*
X179719293Y-116993256D01*
G37*
G36*
X185033743Y-116864344D02*
G01*
X185245975Y-116072285D01*
X186888049Y-116512278D01*
X186675817Y-117304337D01*
X185033743Y-116864344D01*
G37*
G36*
G01*
X184698573Y-118115219D02*
X184804689Y-117719189D01*
G75*
G02*
X185055762Y-117574232I198015J-53058D01*
G01*
X186301806Y-117908108D01*
G75*
G02*
X186446763Y-118159181I-53058J-198015D01*
G01*
X186340647Y-118555211D01*
G75*
G02*
X186089574Y-118700168I-198015J53058D01*
G01*
X184843530Y-118366292D01*
G75*
G02*
X184698573Y-118115219I53058J198015D01*
G01*
G37*
%TD*%
%TO.C,D2*%
G36*
X200892676Y-123384430D02*
G01*
X201302676Y-122674290D01*
X202774920Y-123524290D01*
X202364920Y-124234430D01*
X200892676Y-123384430D01*
G37*
G36*
X200142676Y-124683468D02*
G01*
X200552676Y-123973328D01*
X202024920Y-124823328D01*
X201614920Y-125533468D01*
X200142676Y-124683468D01*
G37*
G36*
X205309406Y-125934430D02*
G01*
X205719406Y-125224290D01*
X207191650Y-126074290D01*
X206781650Y-126784430D01*
X205309406Y-125934430D01*
G37*
G36*
G01*
X204661907Y-127055933D02*
X204866907Y-126700863D01*
G75*
G02*
X205146942Y-126625828I177535J-102500D01*
G01*
X206264114Y-127270828D01*
G75*
G02*
X206339149Y-127550863I-102500J-177535D01*
G01*
X206134149Y-127905933D01*
G75*
G02*
X205854114Y-127980968I-177535J102500D01*
G01*
X204736942Y-127335968D01*
G75*
G02*
X204661907Y-127055933I102500J177535D01*
G01*
G37*
%TD*%
%TO.C,D1*%
G36*
X206326969Y-106897949D02*
G01*
X206736969Y-106187809D01*
X208209213Y-107037809D01*
X207799213Y-107747949D01*
X206326969Y-106897949D01*
G37*
G36*
X205576969Y-108196987D02*
G01*
X205986969Y-107486847D01*
X207459213Y-108336847D01*
X207049213Y-109046987D01*
X205576969Y-108196987D01*
G37*
G36*
X210743699Y-109447949D02*
G01*
X211153699Y-108737809D01*
X212625943Y-109587809D01*
X212215943Y-110297949D01*
X210743699Y-109447949D01*
G37*
G36*
G01*
X210096200Y-110569452D02*
X210301200Y-110214382D01*
G75*
G02*
X210581235Y-110139347I177535J-102500D01*
G01*
X211698407Y-110784347D01*
G75*
G02*
X211773442Y-111064382I-102500J-177535D01*
G01*
X211568442Y-111419452D01*
G75*
G02*
X211288407Y-111494487I-177535J102500D01*
G01*
X210171235Y-110849487D01*
G75*
G02*
X210096200Y-110569452I102500J177535D01*
G01*
G37*
%TD*%
D31*
%TO.C,J2*%
X217980000Y-127610000D03*
X224980000Y-127610000D03*
X224980000Y-129360000D03*
X217980000Y-129360000D03*
D32*
X223180000Y-131460000D03*
X220180000Y-131460000D03*
X216180000Y-131460000D03*
X214680000Y-127260000D03*
%TD*%
D33*
%TO.C,K20*%
X133500000Y-121000000D03*
D28*
X129000000Y-126000000D03*
D34*
X136000000Y-117900000D03*
D28*
X129000000Y-121000000D03*
D35*
X143500000Y-126000000D03*
D28*
X143500000Y-121000000D03*
X143500000Y-123500000D03*
X131000000Y-127300000D03*
X136000000Y-129400000D03*
D27*
X130500000Y-123500000D03*
X141500000Y-123500000D03*
D26*
X136000000Y-123500000D03*
%TD*%
D21*
%TO.C,H2*%
X202200000Y-108795000D03*
X221800000Y-119670000D03*
%TD*%
M02*
