M48
; DRILL file {KiCad (6.0.0-0)} date Thursday, January 13, 2022 at 01:44:18 PM
; FORMAT={-:-/ absolute / inch / decimal}
; #@! TF.CreationDate,2022-01-13T13:44:18-08:00
; #@! TF.GenerationSoftware,Kicad,Pcbnew,(6.0.0-0)
; #@! TF.FileFunction,Plated,1,2,PTH
FMAT,2
INCH
; #@! TA.AperFunction,Plated,PTH,ViaDrill
T1C0.0157
; #@! TA.AperFunction,Plated,PTH,ComponentDrill
T2C0.0157
; #@! TA.AperFunction,Plated,PTH,ComponentDrill
T3C0.0276
; #@! TA.AperFunction,Plated,PTH,ComponentDrill
T4C0.0320
; #@! TA.AperFunction,Plated,PTH,ComponentDrill
T5C0.0354
; #@! TA.AperFunction,Plated,PTH,ComponentDrill
T6C0.0394
; #@! TA.AperFunction,Plated,PTH,ComponentDrill
T7C0.0472
; #@! TA.AperFunction,Plated,PTH,ComponentDrill
T8C0.0669
; #@! TA.AperFunction,Plated,PTH,ComponentDrill
T9C0.0866
; #@! TA.AperFunction,Plated,PTH,ComponentDrill
T10C0.0984
%
G90
G05
T1
X4.2106Y-3.9449
X4.2126Y-3.1122
X4.2126Y-3.8465
X4.2126Y-4.6949
X4.6094Y-3.5877
X4.7606Y-3.4248
X4.8433Y-4.4346
X4.8804Y-4.4335
X4.9522Y-4.5256
X5.1756Y-4.4311
X5.1929Y-4.4669
X5.2795Y-3.7402
X5.6097Y-2.9228
X5.6344Y-2.8986
X6.0673Y-3.7026
X6.14Y-4.3873
X6.1731Y-4.3999
X6.2051Y-4.3685
X6.4693Y-3.0542
X6.5037Y-4.3711
X6.5139Y-4.4218
X6.5433Y-4.4669
X6.7341Y-3.7295
X6.7587Y-3.674
X6.9911Y-4.4731
X7.014Y-4.5109
X7.0549Y-4.4927
X7.3376Y-4.6345
X7.3549Y-4.5825
X7.4504Y-3.8752
X7.4661Y-2.8858
X7.5366Y-3.735
X7.5559Y-3.5567
X7.5752Y-3.7378
X7.614Y-4.8256
X7.614Y-5.1734
X7.6369Y-4.5787
X7.7018Y-4.7334
X7.7161Y-3.7319
X7.7324Y-4.7636
X7.8331Y-5.4374
X7.8713Y-3.1807
X7.8728Y-3.2831
X7.8736Y-3.7791
X7.874Y-3.0823
X7.874Y-3.5823
X7.8741Y-3.4816
X7.8744Y-3.6807
X7.8768Y-3.3815
X7.9008Y-4.0835
X7.9161Y-2.6815
X7.9173Y-2.7815
X7.9197Y-3.0815
X7.9197Y-3.4815
X7.9197Y-3.5815
X7.9201Y-3.3815
X7.9224Y-3.1815
X7.9228Y-3.2815
X7.924Y-3.7815
X7.9244Y-3.6819
X7.9386Y-4.1048
X7.9819Y-2.6315
X7.9882Y-4.8228
X7.9899Y-4.9103
X8.0233Y-4.9297
X8.0413Y-2.6001
X8.0492Y-2.9807
X8.0799Y-3.8705
X8.1224Y-3.8386
X8.1437Y-2.7343
X8.1713Y-3.0315
X8.1884Y-4.1585
X8.1985Y-2.8816
X8.2063Y-4.2653
X8.2067Y-4.3677
X8.2283Y-3.1315
X8.2457Y-4.2894
X8.3042Y-4.1165
X8.411Y-4.1161
X8.4571Y-3.7882
T2
X4.4213Y-3.1122
X4.4213Y-3.7815
X4.4213Y-4.4508
X4.4882Y-2.9587
X4.4882Y-3.628
X4.4882Y-4.2972
X4.5551Y-3.1122
X4.5551Y-3.7815
X4.5551Y-4.4508
X5.1299Y-2.6398
X5.1299Y-3.3091
X5.1299Y-3.9783
X5.1969Y-2.4862
X5.1969Y-3.1555
X5.1969Y-3.8248
X5.2638Y-2.6398
X5.2638Y-3.3091
X5.2638Y-3.9783
X6.1339Y-4.9587
X6.2008Y-4.8051
X6.2677Y-4.9587
X6.5059Y-4.5512
X6.5472Y-2.5807
X6.5472Y-3.25
X6.5472Y-3.9193
X6.6142Y-2.4272
X6.6142Y-3.0965
X6.6142Y-3.7657
X6.6811Y-2.5807
X6.6811Y-3.25
X6.6811Y-3.9193
X6.8425Y-5.0463
X6.9469Y-4.9153
X6.9718Y-5.081
X7.4677Y-4.387
X7.7362Y-4.0453
X8.0079Y-2.548
X8.0098Y-5.2028
X8.0857Y-5.7303
X8.1732Y-2.548
X8.1804Y-5.825
X8.2416Y-5.6691
X8.3886Y-4.4996
X8.5372Y-3.6228
X8.5372Y-3.7882
X8.5382Y-3.3827
X8.5382Y-3.548
T3
X8.6161Y-5.2992
X8.7618Y-5.2992
T4
X7.7602Y-2.6816
X7.7602Y-2.7816
X7.7602Y-2.8816
X7.7602Y-2.9816
X7.7602Y-3.0816
X7.7602Y-3.1816
X7.7602Y-3.2816
X7.7602Y-3.3816
X7.7602Y-3.4816
X7.7602Y-3.5816
X7.7602Y-3.6816
X7.7602Y-3.7816
X7.8125Y-2.6316
X7.8125Y-2.7316
X7.8125Y-2.8316
X7.8125Y-2.9316
X7.8125Y-3.0316
X7.8125Y-3.1316
X7.8125Y-3.2316
X7.8125Y-3.3316
X7.8125Y-3.4316
X7.8125Y-3.5316
X7.8125Y-3.6316
X7.8125Y-3.7316
X7.8484Y-3.8945
X7.9094Y-2.5508
X8.2598Y-2.5508
X8.337Y-3.8945
X8.3602Y-2.6816
X8.3602Y-2.7816
X8.3602Y-2.8816
X8.3602Y-2.9816
X8.3602Y-3.0816
X8.3602Y-3.1816
X8.3602Y-3.2816
X8.3602Y-3.3816
X8.3602Y-3.4816
X8.3602Y-3.5816
X8.3602Y-3.6816
X8.3602Y-3.7816
X8.4117Y-2.6316
X8.4117Y-2.7316
X8.4117Y-2.8316
X8.4117Y-2.9316
X8.4117Y-3.0316
X8.4117Y-3.1316
X8.4117Y-3.2316
X8.4117Y-3.3316
X8.4117Y-3.4316
X8.4117Y-3.5316
X8.4117Y-3.6316
X8.4117Y-3.7316
T5
X8.3936Y-4.2394
X8.4352Y-4.3286
X8.4768Y-4.4178
X8.5114Y-4.1845
X8.553Y-4.2737
X8.5946Y-4.3629
T6
X4.9213Y-4.6654
X4.9213Y-4.8622
X5.4921Y-4.6654
X5.4921Y-4.7638
X5.4921Y-4.8622
X8.1256Y-4.0247
X8.2256Y-4.0247
X8.3256Y-4.0247
X8.4256Y-4.0247
X8.5256Y-4.0247
T7
X3.5827Y-3.378
X3.5827Y-4.0472
X3.5827Y-4.7165
X3.7795Y-3.4606
X3.7795Y-4.1299
X3.7795Y-4.7992
X3.9764Y-3.378
X3.9764Y-4.0472
X3.9764Y-4.7165
X4.2913Y-3.378
X4.2913Y-4.0472
X4.2913Y-4.7165
X4.4882Y-3.4606
X4.4882Y-4.1299
X4.4882Y-4.7992
X4.685Y-3.378
X4.685Y-4.0472
X4.685Y-4.7165
X5.0Y-2.9055
X5.0Y-3.5748
X5.0Y-4.2441
X5.0Y-4.9134
X5.1969Y-2.9882
X5.1969Y-3.6575
X5.1969Y-4.3268
X5.1969Y-4.9961
X5.3937Y-2.9055
X5.3937Y-3.5748
X5.3937Y-4.2441
X5.3937Y-4.9134
X5.7087Y-2.6299
X5.7087Y-3.2992
X5.7087Y-3.9685
X5.9055Y-2.7126
X5.9055Y-3.3819
X5.9055Y-4.0512
X6.0039Y-4.5551
X6.1024Y-2.6299
X6.1024Y-3.2992
X6.1024Y-3.9685
X6.2008Y-4.4724
X6.3976Y-4.5551
X6.4173Y-2.8465
X6.4173Y-3.5157
X6.4173Y-4.185
X6.6142Y-2.9291
X6.6142Y-3.5984
X6.6142Y-4.2677
X6.811Y-2.8465
X6.811Y-3.5157
X6.811Y-4.185
X6.8214Y-4.6229
X7.033Y-4.594
X7.126Y-2.9449
X7.126Y-3.6142
X7.126Y-4.2835
X7.2017Y-4.7248
X7.3228Y-3.0276
X7.3228Y-3.6969
X7.3228Y-4.3661
X7.4507Y-5.1512
X7.5197Y-2.9449
X7.5197Y-3.6142
X7.5197Y-4.2835
X7.5799Y-5.3212
X7.7854Y-4.5716
X7.7917Y-5.3481
X7.9145Y-4.7416
X8.1263Y-4.7684
X8.2792Y-5.3531
X8.4769Y-5.4338
X8.5576Y-5.6315
T8
X5.4134Y-4.7638
T9
X4.8425Y-3.0906
X4.8425Y-4.2323
X5.5102Y-3.1283
X6.2602Y-2.3783
X6.2602Y-3.8783
X6.9685Y-2.5787
X6.9685Y-4.252
X7.0102Y-3.1283
T10
X7.8031Y-4.1848
X8.5748Y-4.613
X8.5913Y-3.2629
T6
G00X8.3043Y-4.9118
M15
G01X8.2846Y-4.9118
M16
G05
G00X8.3043Y-5.0083
M15
G01X8.2846Y-5.0083
M16
G05
G00X8.3634Y-4.8429
M15
G01X8.3437Y-4.8429
M16
G05
G00X8.3634Y-5.0772
M15
G01X8.3437Y-5.0772
M16
G05
G00X8.5209Y-4.8429
M15
G01X8.5012Y-4.8429
M16
G05
G00X8.5209Y-5.0772
M15
G01X8.5012Y-5.0772
M16
G05
G00X8.639Y-4.8429
M15
G01X8.6193Y-4.8429
M16
G05
G00X8.639Y-5.0772
M15
G01X8.6193Y-5.0772
M16
G05
T0
M30
