%TF.GenerationSoftware,KiCad,Pcbnew,(6.0.0-0)*%
%TF.CreationDate,2022-01-13T13:44:15-08:00*%
%TF.ProjectId,hillside,68696c6c-7369-4646-952e-6b696361645f,0.1.1-alpha*%
%TF.SameCoordinates,Original*%
%TF.FileFunction,Profile,NP*%
%FSLAX46Y46*%
G04 Gerber Fmt 4.6, Leading zero omitted, Abs format (unit mm)*
G04 Created by KiCad (PCBNEW (6.0.0-0)) date 2022-01-13 13:44:15*
%MOMM*%
%LPD*%
G01*
G04 APERTURE LIST*
%TA.AperFunction,Profile*%
%ADD10C,0.050000*%
%TD*%
%ADD11C,0.050000*%
%TA.AperFunction,Profile*%
%ADD12C,0.120000*%
%TD*%
G04 APERTURE END LIST*
D10*
X157750000Y-54750000D02*
X143010000Y-54750000D01*
X221696144Y-144003533D02*
X212945238Y-152757324D01*
X210100000Y-152791880D02*
G75*
G03*
X212945238Y-152757324I1405326J1441134D01*
G01*
X205350000Y-148041880D02*
X210100000Y-152791880D01*
X87250000Y-75750000D02*
X87250000Y-122250000D01*
X104500000Y-76250000D02*
X104500000Y-75750000D01*
X215500000Y-64750000D02*
G75*
G03*
X213500000Y-62750000I-1999999J1D01*
G01*
X205350000Y-148041880D02*
G75*
G03*
X157000000Y-128000000I-48350001J-48300000D01*
G01*
X224075326Y-138290747D02*
X224075326Y-119966984D01*
X102500000Y-124250000D02*
G75*
G03*
X104500000Y-122250000I1J1999999D01*
G01*
X125000000Y-129250000D02*
X138530000Y-129250000D01*
X105500000Y-101500000D02*
G75*
G03*
X104500000Y-101500000I-500000J0D01*
G01*
X105500000Y-101500000D02*
X105500000Y-116750000D01*
X221696144Y-144003533D02*
G75*
G03*
X224075326Y-138290747I-5706352J5728320D01*
G01*
X221000000Y-105510000D02*
X221000000Y-75795534D01*
X104500000Y-96500000D02*
X104500000Y-81250000D01*
D11*
X195500000Y-62750000D02*
X193685279Y-62727050D01*
X192074035Y-62660156D01*
X190650016Y-62552246D01*
X189396972Y-62406250D01*
X188298652Y-62225097D01*
X187338806Y-62011718D01*
X186501182Y-61769042D01*
X185769531Y-61500000D01*
X185127601Y-61207519D01*
X184559143Y-60894531D01*
X184047904Y-60563964D01*
X183577636Y-60218750D01*
X183132087Y-59861816D01*
X182695007Y-59496093D01*
X182250144Y-59124511D01*
X181781250Y-58750000D01*
X181272071Y-58375488D01*
X180706359Y-58003906D01*
X180067863Y-57638183D01*
X179340332Y-57281250D01*
X178507514Y-56936035D01*
X177553161Y-56605468D01*
X176461021Y-56292480D01*
X175214843Y-56000000D01*
X173798377Y-55730957D01*
X172195373Y-55488281D01*
X170389579Y-55274902D01*
X168364746Y-55093750D01*
X166104621Y-54947753D01*
X163592956Y-54839843D01*
X160813499Y-54772949D01*
X157750000Y-54750000D01*
X143010000Y-54750000D02*
X140289075Y-54803794D01*
X137835998Y-54960632D01*
X135634380Y-55213691D01*
X133667832Y-55556152D01*
X131919962Y-55981193D01*
X130374382Y-56481994D01*
X129014701Y-57051734D01*
X127824531Y-57683593D01*
X126787480Y-58370750D01*
X125887160Y-59106384D01*
X125107181Y-59883674D01*
X124431152Y-60695800D01*
X123842684Y-61535942D01*
X123325388Y-62397277D01*
X122862873Y-63272987D01*
X122438750Y-64156250D01*
X122036628Y-65040245D01*
X121640119Y-65918151D01*
X121232832Y-66783149D01*
X120798378Y-67628417D01*
X120320367Y-68447135D01*
X119782409Y-69232482D01*
X119168114Y-69977638D01*
X118461093Y-70675781D01*
X117644956Y-71320091D01*
X116703312Y-71903747D01*
X115619773Y-72419929D01*
X114377949Y-72861816D01*
X112961449Y-73222587D01*
X111353884Y-73495422D01*
X109538864Y-73673500D01*
X107500000Y-73750000D01*
D10*
X105500000Y-81250000D02*
X105500000Y-96500000D01*
X102500000Y-73750000D02*
X89250000Y-73750000D01*
X105500000Y-121750000D02*
G75*
G03*
X104500000Y-121750000I-500000J0D01*
G01*
D11*
X221000000Y-75795534D02*
X220984222Y-75448910D01*
X220938232Y-75110946D01*
X220864044Y-74781069D01*
X220763671Y-74458707D01*
X220639129Y-74143287D01*
X220492431Y-73834237D01*
X220325592Y-73530985D01*
X220140625Y-73232959D01*
X219939544Y-72939586D01*
X219724365Y-72650294D01*
X219497100Y-72364510D01*
X219259765Y-72081663D01*
X219014373Y-71801180D01*
X218762939Y-71522488D01*
X218507476Y-71245016D01*
X218250000Y-70968191D01*
X217992523Y-70691441D01*
X217737060Y-70414193D01*
X217485626Y-70135876D01*
X217240234Y-69855916D01*
X217002899Y-69573742D01*
X216775634Y-69288782D01*
X216560455Y-69000462D01*
X216359375Y-68708211D01*
X216174407Y-68411456D01*
X216007568Y-68109626D01*
X215860870Y-67802147D01*
X215736328Y-67488448D01*
X215635955Y-67167956D01*
X215561767Y-66840099D01*
X215515777Y-66504304D01*
X215500000Y-66160000D01*
D10*
X105500000Y-81250000D02*
G75*
G03*
X104500000Y-81250000I-500000J0D01*
G01*
X104500000Y-76250000D02*
G75*
G03*
X105500000Y-76250000I500000J0D01*
G01*
X104500000Y-122250000D02*
X104500000Y-121750000D01*
X102500000Y-124250000D02*
X89250000Y-124250000D01*
X87250000Y-122250000D02*
G75*
G03*
X89250000Y-124250000I1999999J-1D01*
G01*
X215500000Y-64750000D02*
X215500000Y-66160000D01*
D11*
X125000000Y-129250000D02*
X124583764Y-129235656D01*
X124192690Y-129193847D01*
X123825105Y-129126403D01*
X123479335Y-129035156D01*
X123153707Y-128921936D01*
X122846547Y-128788574D01*
X122556182Y-128636901D01*
X122280937Y-128468750D01*
X122019140Y-128285949D01*
X121769116Y-128090332D01*
X121529192Y-127883728D01*
X121297695Y-127667968D01*
X121072951Y-127444885D01*
X120853286Y-127216308D01*
X120637026Y-126984069D01*
X120422500Y-126750000D01*
X120208031Y-126515930D01*
X119991948Y-126283691D01*
X119772576Y-126055114D01*
X119548242Y-125832031D01*
X119317272Y-125616271D01*
X119077993Y-125409667D01*
X118828731Y-125214050D01*
X118567812Y-125031250D01*
X118293563Y-124863098D01*
X118004311Y-124711425D01*
X117698381Y-124578063D01*
X117374101Y-124464843D01*
X117029796Y-124373596D01*
X116663793Y-124306152D01*
X116274419Y-124264343D01*
X115860000Y-124250000D01*
X224075326Y-119966984D02*
X224066503Y-119288388D01*
X224040788Y-118650898D01*
X223999306Y-118051865D01*
X223943183Y-117488643D01*
X223873545Y-116958584D01*
X223791519Y-116459041D01*
X223698230Y-115987367D01*
X223594806Y-115540915D01*
X223482372Y-115117037D01*
X223362054Y-114713087D01*
X223234979Y-114326417D01*
X223102273Y-113954380D01*
X222965062Y-113594330D01*
X222824473Y-113243618D01*
X222681631Y-112899598D01*
X222537663Y-112559623D01*
X222393694Y-112221044D01*
X222250852Y-111881217D01*
X222110263Y-111537492D01*
X221973052Y-111187223D01*
X221840346Y-110827763D01*
X221713271Y-110456465D01*
X221592953Y-110070681D01*
X221480519Y-109667765D01*
X221377095Y-109245069D01*
X221283806Y-108799945D01*
X221201780Y-108329748D01*
X221132142Y-107831830D01*
X221076019Y-107303543D01*
X221034537Y-106742240D01*
X221008822Y-106145275D01*
X221000000Y-105510000D01*
D10*
X104500000Y-75750000D02*
G75*
G03*
X102500000Y-73750000I-1999999J1D01*
G01*
X104500000Y-116750000D02*
X104500000Y-101500000D01*
X107500000Y-73750000D02*
G75*
G03*
X105500000Y-75750000I-1J-1999999D01*
G01*
X115860000Y-124250000D02*
X107500000Y-124250000D01*
X105500000Y-121750000D02*
X105500000Y-122250000D01*
X105500000Y-76250000D02*
X105500000Y-75750000D01*
D11*
X157000000Y-128000000D02*
X155864409Y-128003585D01*
X154799104Y-128014038D01*
X153800657Y-128030899D01*
X152865644Y-128053710D01*
X151990638Y-128082015D01*
X151172214Y-128115356D01*
X150406945Y-128153274D01*
X149691406Y-128195312D01*
X149022170Y-128241012D01*
X148395812Y-128289916D01*
X147808907Y-128341567D01*
X147258027Y-128395507D01*
X146739747Y-128451278D01*
X146250642Y-128508422D01*
X145787284Y-128566482D01*
X145346250Y-128625000D01*
X144924111Y-128683517D01*
X144517443Y-128741577D01*
X144122820Y-128798721D01*
X143736816Y-128854492D01*
X143356004Y-128908432D01*
X142976960Y-128960083D01*
X142596257Y-129008987D01*
X142210468Y-129054687D01*
X141816169Y-129096725D01*
X141409934Y-129134643D01*
X140988335Y-129167984D01*
X140547949Y-129196289D01*
X140085348Y-129219100D01*
X139597106Y-129235961D01*
X139079799Y-129246414D01*
X138530000Y-129250000D01*
D10*
X213500000Y-62750000D02*
X195500000Y-62750000D01*
X104500000Y-96500000D02*
G75*
G03*
X105500000Y-96500000I500000J0D01*
G01*
X104500000Y-116750000D02*
G75*
G03*
X105500000Y-116750000I500000J0D01*
G01*
X105500000Y-122250000D02*
G75*
G03*
X107500000Y-124250000I1999999J-1D01*
G01*
X89250000Y-73750000D02*
G75*
G03*
X87250000Y-75750000I-1J-1999999D01*
G01*
D12*
%TO.C,D3*%
X182446927Y-113456580D02*
X184185594Y-113922454D01*
X184958334Y-114129510D02*
X184181877Y-117027287D01*
X180897730Y-116147302D02*
X181674187Y-113249525D01*
X183409137Y-116820232D02*
X181670470Y-116354358D01*
X180897730Y-116147302D02*
G75*
G03*
X181670470Y-116354358I386370J-103528D01*
G01*
X182446927Y-113456580D02*
G75*
G03*
X181674187Y-113249525I-386370J103527D01*
G01*
X184958334Y-114129510D02*
G75*
G03*
X184185594Y-113922454I-386370J103528D01*
G01*
X183409137Y-116820232D02*
G75*
G03*
X184181877Y-117027287I386370J-103527D01*
G01*
%TO.C,D5*%
X126030000Y-114110000D02*
X126030000Y-111110000D01*
X126830000Y-111110000D02*
X128630000Y-111110000D01*
X129430000Y-111110000D02*
X129430000Y-114110000D01*
X128630000Y-114110000D02*
X126830000Y-114110000D01*
X126830000Y-111110000D02*
G75*
G03*
X126030000Y-111110000I-400000J0D01*
G01*
X126030000Y-114110000D02*
G75*
G03*
X126830000Y-114110000I400000J0D01*
G01*
X129430000Y-111110000D02*
G75*
G03*
X128630000Y-111110000I-400000J0D01*
G01*
X128630000Y-114110000D02*
G75*
G03*
X129430000Y-114110000I400000J0D01*
G01*
%TO.C,D2*%
X199637740Y-121129841D02*
X201196586Y-122029841D01*
X197444920Y-123327917D02*
X198944920Y-120729841D01*
X201889406Y-122429841D02*
X200389406Y-125027917D01*
X199696586Y-124627917D02*
X198137740Y-123727917D01*
X201889406Y-122429841D02*
G75*
G03*
X201196586Y-122029841I-346410J200000D01*
G01*
X199637740Y-121129841D02*
G75*
G03*
X198944920Y-120729841I-346410J200000D01*
G01*
X197444920Y-123327917D02*
G75*
G03*
X198137740Y-123727917I346410J-200000D01*
G01*
X199696586Y-124627917D02*
G75*
G03*
X200389406Y-125027917I346410J-200000D01*
G01*
%TO.C,D4*%
X163168488Y-109515922D02*
X163168488Y-112515922D01*
X162368488Y-112515922D02*
X160568488Y-112515922D01*
X160568488Y-109515922D02*
X162368488Y-109515922D01*
X159768488Y-112515922D02*
X159768488Y-109515922D01*
X163168488Y-109515922D02*
G75*
G03*
X162368488Y-109515922I-400000J0D01*
G01*
X159768488Y-112515922D02*
G75*
G03*
X160568488Y-112515922I400000J0D01*
G01*
X162368488Y-112515922D02*
G75*
G03*
X163168488Y-112515922I400000J0D01*
G01*
X160568488Y-109515922D02*
G75*
G03*
X159768488Y-109515922I-400000J0D01*
G01*
%TO.C,D1*%
X207323699Y-105943360D02*
X205823699Y-108541436D01*
X205072033Y-104643360D02*
X206630879Y-105543360D01*
X205130879Y-108141436D02*
X203572033Y-107241436D01*
X202879213Y-106841436D02*
X204379213Y-104243360D01*
X202879213Y-106841436D02*
G75*
G03*
X203572033Y-107241436I346410J-200000D01*
G01*
X205072033Y-104643360D02*
G75*
G03*
X204379213Y-104243360I-346410J200000D01*
G01*
X207323699Y-105943360D02*
G75*
G03*
X206630879Y-105543360I-346410J200000D01*
G01*
X205130879Y-108141436D02*
G75*
G03*
X205823699Y-108541436I346410J-200000D01*
G01*
%TD*%
M02*
