<?xml version="1.0" standalone="no"?>
 <!DOCTYPE svg PUBLIC "-//W3C//DTD SVG 1.1//EN" 
 "http://www.w3.org/Graphics/SVG/1.1/DTD/svg11.dtd"> 
<svg
  xmlns:svg="http://www.w3.org/2000/svg"
  xmlns="http://www.w3.org/2000/svg"
  xmlns:xlink="http://www.w3.org/1999/xlink"
  version="1.1"
  width="27.940000cm" height="21.590000cm" viewBox="0 0 279400 215900">
<title>SVG Picture created as hillside52-User_Eco2.svg date 2022/05/08 19:26:07 </title>
  <desc>Picture generated by PCBNEW </desc>
<g style="fill:#000000; fill-opacity:1.000000;stroke:#000000; stroke-opacity:1.000000;
stroke-linecap:round; stroke-linejoin:round;"
 transform="translate(0 0) scale(1 1)">
</g>
<g style="fill:#000000; fill-opacity:0.0; 
stroke:#000000; stroke-width:0.000000; stroke-opacity:1; 
stroke-linecap:round; stroke-linejoin:round;">
</g>
<g style="fill:#000000; fill-opacity:0.0; 
stroke:#000000; stroke-width:50.000000; stroke-opacity:1; 
stroke-linecap:round; stroke-linejoin:round;">
<path d="M123122 51732
L137862 51732
" />
<path d="M58645 141766
L67926 151050
" />
<path d="M199249 81606
L188222 144142
" />
<path d="M66122.147000 59732.514001 A2000.086000 2000.086000 0.0 0 0 64122.114002 61732.513998" />
<path d="M56796 135523
L56796 117199
" />
<path d="M177051.665396 103839.937070 A499.947000 499.947000 0.0 0 0 176066.962327 103666.305707" />
<path d="M176066 103666
L173983 115483
" />
<path d="M59872 102742
L59872 73028
" />
<path d="M177919 98915
L181219 80204
" />
<path d="M79322.151000,59732.516000 C91222.152000,59732.514000 84322.146000,51732.512000 123122.152000,51732.511000" />
<path d="M183236 99796
L191016 101168
" />
<path d="M137862.151000,51732.518000 C167847.131000,52222.311000 170700.401000,74080.911000 188401.876000,76901.671000" />
<path d="M180234 80030
L176935 98742
" />
<path d="M58645.675000,141766.373000 C56952.150000,140142.514000 56802.150000,137372.515000 56796.825000,135523.263000" />
<path d="M188401 76901
L197018 78421
" />
<path d="M186988.028041 124016.351769 A499.957000 499.957000 0.0 1 0 187161.662275 123031.628890" />
<path d="M74607.147000,148812.515000 C81462.155000,142442.511000 91822.151000,131932.514000 103522.153000,131832.515000" />
<path d="M59872.152000,73028.049000 C59872.149000,69282.509000 64122.148000,66982.513000 64122.146000,63392.514000" />
<path d="M181219.221958 80204.553993 A500.023000 500.023000 0.0 1 0 180234.369481 80030.894562" />
<path d="M179381.693933 121659.728378 A499.963000 499.963000 0.0 0 0 179208.059965 122644.463493" />
<path d="M134565 137473
L185037 146372
" />
<path d="M170973 138308
L174099 120581
" />
<path d="M191016.667015 101168.818916 A499.999000 499.999000 0.0 0 0 191190.317365 100184.013595" />
<path d="M64122 61732
L64122 63392
" />
<path d="M183410.335008 98812.191956 A500.006000 500.006000 0.0 1 0 183236.682337 99797.011102" />
<path d="M191190 100184
L183410 98812
" />
<path d="M103522.153000,131832.515000 C117522.149000,131832.515000 120286.117000,134955.467000 134565.826000,137473.362000" />
<path d="M185037.229943 146372.790326 A2749.976000 2749.976000 0.0 0 0 188223.002538 144142.100798" />
<path d="M56796.822000,117199.500000 C56796.825000,109732.515000 59872.148000,109732.514000 59872.150000,102742.516000" />
<path d="M169989.168014 138134.605002 A500.040000 500.040000 0.0 1 0 170974.053889 138308.270781" />
<path d="M187161 123031
L179381 121659
" />
<path d="M174967 115657
L177051 103839
" />
<path d="M173114 120408
L169989 138134
" />
<path d="M179208 122644
L186988 124016
" />
<circle cx="155575.104000" cy="111695.797000" r="3301.997000" /> 
<path d="M174099.648107 120581.669019 A500.034000 500.034000 0.0 0 0 173114.773439 120408.008784" />
<path d="M66122 59732
L79322 59732
" />
<path d="M176935.096629 98742.247935 A499.987000 499.987000 0.0 0 0 177919.878323 98915.894116" />
<path d="M173983.075789 115483.983963 A500.036000 500.036000 0.0 1 0 174967.954815 115657.642474" />
<path d="M67926.911000,151050.500000 C69652.155000,152712.515000 73182.149000,150252.514000 74607.147000,148812.515000" />
<path d="M199249.641759 81606.802958 A2750.015000 2750.015000 0.0 0 0 197018.952192 78421.066922" />
</g>
<g style="fill:#000000; fill-opacity:0.0; 
stroke:#000000; stroke-width:300.000000; stroke-opacity:1; 
stroke-linecap:round; stroke-linejoin:round;">
<text x="42082.152000" y="168082.514000"
transform="scale(-1 1) translate(-84164.304000 0)"
textLength="7610.000000" font-size="2000.000000" lengthAdjust="spacingAndGlyphs"
text-anchor="middle" opacity="0">50 mm</text>
<g class="stroked-text"><desc>50 mm</desc>
<path d="M39153 166511
L38439 166511
L38367 167225
L38439 167153
L38582 167082
L38939 167082
L39082 167153
L39153 167225
L39225 167368
L39225 167725
L39153 167868
L39082 167939
L38939 168011
L38582 168011
L38439 167939
L38367 167868
" />
<path d="M40153 166511
L40296 166511
L40439 166582
L40510 166653
L40582 166796
L40653 167082
L40653 167439
L40582 167725
L40510 167868
L40439 167939
L40296 168011
L40153 168011
L40010 167939
L39939 167868
L39867 167725
L39796 167439
L39796 167082
L39867 166796
L39939 166653
L40010 166582
L40153 166511
" />
<path d="M42439 168011
L42439 167011
" />
<path d="M42439 167153
L42510 167082
L42653 167011
L42867 167011
L43010 167082
L43082 167225
L43082 168011
" />
<path d="M43082 167225
L43153 167082
L43296 167011
L43510 167011
L43653 167082
L43725 167225
L43725 168011
" />
<path d="M44439 168011
L44439 167011
" />
<path d="M44439 167153
L44510 167082
L44653 167011
L44867 167011
L45010 167082
L45082 167225
L45082 168011
" />
<path d="M45082 167225
L45153 167082
L45296 167011
L45510 167011
L45653 167082
L45725 167225
L45725 168011
" />
</g></g>
<g style="fill:#000000; fill-opacity:0.0; 
stroke:#000000; stroke-width:200.000000; stroke-opacity:1; 
stroke-linecap:round; stroke-linejoin:round;">
<path d="M66992 165882
L66992 167918
" />
<path d="M17172 165882
L17172 167918
" />
<path d="M66992 167332
L46982 167332
" />
<path d="M37182 167332
L17172 167332
" />
<path d="M66992 167332
L65865 167918
" />
<path d="M66992 167332
L65865 166746
" />
<path d="M17172 167332
L18298 166746
" />
<path d="M17172 167332
L18298 167918
" />
</g>
<g style="fill:#000000; fill-opacity:0.0; 
stroke:#000000; stroke-width:120.000000; stroke-opacity:1; 
stroke-linecap:round; stroke-linejoin:round;">
<path d="M98425 110689
L96686 111154
" />
<path d="M95913 111362
L96690 114259
" />
<path d="M99974 113379
L99197 110482
" />
<path d="M97463 114052
L99201 113586
" />
<path d="M99201.679787 113586.872057 A400.000000 400.000000 0.0 1 0 99974.420213 113379.815943" />
<path d="M99197.963213 110482.038943 A400.000000 400.000000 0.0 0 0 98425.222537 110689.094124" />
<path d="M96686.556213 111154.967943 A400.000000 400.000000 0.0 0 0 95913.815787 111362.024057" />
<path d="M96690.272787 114259.801057 A400.000000 400.000000 0.0 0 0 97463.013463 114052.745876" />
<path d="M147560 123130
L148081 120175
" />
<path d="M147294 120036
L145521 119724
" />
<path d="M144733 119585
L144212 122539
" />
<path d="M145000 122678
L146773 122991
" />
<path d="M148081.863145 120175.916025 A400.000000 400.000000 0.0 1 0 147294.016855 120036.997975" />
<path d="M146773.072855 122991.420975 A400.000000 400.000000 0.0 0 0 147560.918973 123130.339995" />
<path d="M145521.363145 119724.431025 A400.000000 400.000000 0.0 0 0 144733.517027 119585.512005" />
<path d="M144212.572855 122539.935975 A400.000000 400.000000 0.0 0 0 145000.419145 122678.854025" />
<path d="M81234 118362
L79675 119262
" />
<path d="M83427 120560
L81927 117962
" />
<path d="M78982 119662
L80482 122260
" />
<path d="M81175 121860
L82734 120960
" />
<path d="M79675.559121 119262.356930 A400.000000 400.000000 0.0 0 0 78982.738879 119662.357070" />
<path d="M81927.225121 117962.356930 A400.000000 400.000000 0.0 0 0 81234.404879 118362.357070" />
<path d="M82734.404879 120960.433070 A400.000000 400.000000 0.0 1 0 83427.225121 120560.432930" />
<path d="M80482.738879 122260.433070 A400.000000 400.000000 0.0 1 0 81175.559121 121860.432930" />
</g>
<g style="fill:#000000; fill-opacity:0.0; 
stroke:#000000; stroke-width:150.000000; stroke-opacity:1; 
stroke-linecap:round; stroke-linejoin:round;">
<path d="M154425 124430
L151907 138710
" />
<path d="M135484 136830
L150748 139521
" />
<path d="M153614 123272
L138349 120580
" />
<path d="M137191 121391
L134673 135671
" />
<path d="M150748.899920 139521.706452 A1000.006000 1000.006000 0.0 0 0 151907.368603 138710.549222" />
<path d="M138349.574064 120580.830636 A1000.004000 1000.004000 0.0 0 0 137191.117864 121391.990976" />
<path d="M134673.219822 135671.702969 A1000.003000 1000.003000 0.0 0 0 135484.378979 136830.159122" />
<path d="M154425.253801 124430.833965 A999.993000 999.993000 0.0 0 0 153614.094814 123272.379057" />
<path d="M173028 125216
L175546 110936
" />
<path d="M173839 126374
L189104 129066
" />
<path d="M191969 112816
L176704 110125
" />
<path d="M190262 128254
L192780 113975
" />
<path d="M176704.981960 110125.236224 A999.999000 999.999000 0.0 0 0 175546.527194 110936.395211" />
<path d="M192780.662349 113975.238061 A1000.003000 1000.003000 0.0 0 0 191969.502850 112816.782848" />
<path d="M173028.628209 125216.108037 A1000.000000 1000.000000 0.0 0 0 173839.787067 126374.563620" />
<path d="M189104.307939 129066.110349 A1000.003000 1000.003000 0.0 0 0 190262.763152 128254.950850" />
<path d="M174242 109691
L158978 106999
" />
<path d="M156113 123248
L171377 125940
" />
<path d="M155302 122090
L157819 107810
" />
<path d="M172536 125129
L175054 110849
" />
<path d="M171377.772939 125940.438349 A1000.003000 1000.003000 0.0 0 0 172536.228152 125129.278850" />
<path d="M158978.446960 106999.564224 A999.999000 999.999000 0.0 0 0 157819.992194 107810.723211" />
<path d="M175054.127349 110849.566061 A1000.003000 1000.003000 0.0 0 0 174242.967850 109691.110848" />
<path d="M155302.093209 122090.436037 A1000.000000 1000.000000 0.0 0 0 156113.252067 123248.891620" />
<path d="M198684 80491
L196166 94771
" />
<path d="M179743 92891
L195008 95582
" />
<path d="M181450 77452
L178932 91732
" />
<path d="M197873 79333
L182609 76641
" />
<path d="M198684.700791 80491.770963 A1000.000000 1000.000000 0.0 0 0 197873.541933 79333.315380" />
<path d="M195008.347040 95582.642776 A999.999000 999.999000 0.0 0 0 196166.801806 94771.483789" />
<path d="M178932.666651 91732.640939 A1000.003000 1000.003000 0.0 0 0 179743.826150 92891.096152" />
<path d="M182609.021061 76641.768651 A1000.003000 1000.003000 0.0 0 0 181450.565848 77452.928150" />
<path d="M160361 59801
L144920 58450
" />
<path d="M161271 60884
L160007 75329
" />
<path d="M143482 74887
L158923 76238
" />
<path d="M143837 59359
L142573 73804
" />
<path d="M158923.898028 76238.764674 A999.999000 999.999000 0.0 0 0 160007.247761 75329.725979" />
<path d="M144920.949996 58450.639050 A1000.003000 1000.003000 0.0 0 0 143837.599579 59359.677963" />
<path d="M142573.841050 73804.501004 A1000.003000 1000.003000 0.0 0 0 143482.879963 74887.851421" />
<path d="M161271.006678 60884.902972 A1000.000000 1000.000000 0.0 0 0 160361.968059 59801.552330" />
<path d="M123122 68482
L138622 68482
" />
<path d="M122122 52982
L122122 67482
" />
<path d="M139622 52982
L139622 67482
" />
<path d="M138622 51982
L123122 51982
" />
<path d="M122122.149000 67482.510000 A1000.003000 1000.003000 0.0 0 0 123122.149000 68482.510000" />
<path d="M138622.149000 68482.510000 A1000.000000 1000.000000 0.0 0 0 139622.149000 67482.510000" />
<path d="M139622.149000 52982.510000 A1000.000000 1000.000000 0.0 0 0 138622.149000 51982.510000" />
<path d="M123122.149000 51982.510000 A1000.003000 1000.003000 0.0 0 0 122122.149000 52982.510000" />
<path d="M178006 94107
L175488 108387
" />
<path d="M177194 92949
L161930 90257
" />
<path d="M159065 106507
L174329 109198
" />
<path d="M160772 91068
L158254 105348
" />
<path d="M174329.791040 109198.709776 A999.999000 999.999000 0.0 0 0 175488.245806 108387.550789" />
<path d="M158254.110651 105348.707939 A1000.003000 1000.003000 0.0 0 0 159065.270150 106507.163152" />
<path d="M178006.144791 94107.837963 A1000.000000 1000.000000 0.0 0 0 177194.985933 92949.382380" />
<path d="M161930.465061 90257.835651 A1000.003000 1000.003000 0.0 0 0 160772.009848 91068.995150" />
<path d="M159789 77820
L158525 92265
" />
<path d="M142355 76294
L141092 90739
" />
<path d="M142001 91823
L157442 93174
" />
<path d="M158880 76736
L143439 75385
" />
<path d="M141092.192050 90739.811004 A1000.003000 1000.003000 0.0 0 0 142001.230963 91823.161421" />
<path d="M159789.357678 77820.212972 A1000.000000 1000.000000 0.0 0 0 158880.319059 76736.862330" />
<path d="M157442.249028 93174.074674 A999.999000 999.999000 0.0 0 0 158525.598761 92265.035979" />
<path d="M143439.300996 75385.949050 A1000.003000 1000.003000 0.0 0 0 142355.950579 76294.987963" />
<path d="M138622 68982
L123122 68982
" />
<path d="M123122 85482
L138622 85482
" />
<path d="M139622 69982
L139622 84482
" />
<path d="M122122 69982
L122122 84482
" />
<path d="M139622.153000 69982.514000 A1000.000000 1000.000000 0.0 0 0 138622.153000 68982.514000" />
<path d="M122122.153000 84482.514000 A1000.003000 1000.003000 0.0 0 0 123122.153000 85482.514000" />
<path d="M138622.153000 85482.514000 A1000.000000 1000.000000 0.0 0 0 139622.153000 84482.514000" />
<path d="M123122.153000 68982.514000 A1000.003000 1000.003000 0.0 0 0 122122.153000 69982.514000" />
<path d="M157398 93672
L141957 92321
" />
<path d="M140874 93230
L139610 107675
" />
<path d="M158307 94755
L157043 109200
" />
<path d="M140519 108758
L155960 110109
" />
<path d="M158307.714678 94755.519972 A1000.000000 1000.000000 0.0 0 0 157398.676059 93672.169330" />
<path d="M141957.657996 92321.256050 A1000.003000 1000.003000 0.0 0 0 140874.307579 93230.294963" />
<path d="M155960.606028 110109.381674 A999.999000 999.999000 0.0 0 0 157043.955761 109200.342979" />
<path d="M139610.549050 107675.118004 A1000.003000 1000.003000 0.0 0 0 140519.587963 108758.468421" />
<path d="M123122 102482
L138622 102482
" />
<path d="M122122 86982
L122122 101482
" />
<path d="M139622 86982
L139622 101482
" />
<path d="M138622 85982
L123122 85982
" />
<path d="M122122.152000 101482.514000 A1000.003000 1000.003000 0.0 0 0 123122.152000 102482.514000" />
<path d="M123122.152000 85982.514000 A1000.003000 1000.003000 0.0 0 0 122122.152000 86982.514000" />
<path d="M138622.152000 102482.514000 A1000.000000 1000.000000 0.0 0 0 139622.152000 101482.514000" />
<path d="M139622.152000 86982.514000 A1000.000000 1000.000000 0.0 0 0 138622.152000 85982.514000" />
<path d="M104122 58482
L104122 72982
" />
<path d="M121622 58482
L121622 72982
" />
<path d="M105122 73982
L120622 73982
" />
<path d="M120622 57482
L105122 57482
" />
<path d="M105122.151000 57482.518000 A1000.003000 1000.003000 0.0 0 0 104122.151000 58482.518000" />
<path d="M120622.151000 73982.518000 A1000.000000 1000.000000 0.0 0 0 121622.151000 72982.518000" />
<path d="M104122.151000 72982.518000 A1000.003000 1000.003000 0.0 0 0 105122.151000 73982.518000" />
<path d="M121622.151000 58482.518000 A1000.000000 1000.000000 0.0 0 0 120622.151000 57482.518000" />
<path d="M86122 60982
L86122 75482
" />
<path d="M103622 60982
L103622 75482
" />
<path d="M87122 76482
L102622 76482
" />
<path d="M102622 59982
L87122 59982
" />
<path d="M87122.148000 59982.513000 A1000.003000 1000.003000 0.0 0 0 86122.148000 60982.513000" />
<path d="M102622.148000 76482.513000 A1000.000000 1000.000000 0.0 0 0 103622.148000 75482.513000" />
<path d="M86122.148000 75482.513000 A1000.003000 1000.003000 0.0 0 0 87122.148000 76482.513000" />
<path d="M103622.148000 60982.513000 A1000.000000 1000.000000 0.0 0 0 102622.148000 59982.513000" />
<path d="M104122 75482
L104122 89982
" />
<path d="M120622 74482
L105122 74482
" />
<path d="M121622 75482
L121622 89982
" />
<path d="M105122 90982
L120622 90982
" />
<path d="M120622.153000 90982.515000 A1000.000000 1000.000000 0.0 0 0 121622.153000 89982.515000" />
<path d="M104122.153000 89982.515000 A1000.003000 1000.003000 0.0 0 0 105122.153000 90982.515000" />
<path d="M121622.153000 75482.515000 A1000.000000 1000.000000 0.0 0 0 120622.153000 74482.515000" />
<path d="M105122.153000 74482.515000 A1000.003000 1000.003000 0.0 0 0 104122.153000 75482.515000" />
<path d="M102622 76982
L87122 76982
" />
<path d="M87122 93482
L102622 93482
" />
<path d="M86122 77982
L86122 92482
" />
<path d="M103622 77982
L103622 92482
" />
<path d="M102622.151000 93482.510000 A1000.000000 1000.000000 0.0 0 0 103622.151000 92482.510000" />
<path d="M87122.151000 76982.510000 A1000.003000 1000.003000 0.0 0 0 86122.151000 77982.510000" />
<path d="M103622.151000 77982.510000 A1000.000000 1000.000000 0.0 0 0 102622.151000 76982.510000" />
<path d="M86122.151000 92482.510000 A1000.003000 1000.003000 0.0 0 0 87122.151000 93482.510000" />
<path d="M105122 107982
L120622 107982
" />
<path d="M120622 91482
L105122 91482
" />
<path d="M121622 92482
L121622 106982
" />
<path d="M104122 92482
L104122 106982
" />
<path d="M120622.152000 107982.514000 A1000.000000 1000.000000 0.0 0 0 121622.152000 106982.514000" />
<path d="M104122.152000 106982.514000 A1000.003000 1000.003000 0.0 0 0 105122.152000 107982.514000" />
<path d="M105122.152000 91482.514000 A1000.003000 1000.003000 0.0 0 0 104122.152000 92482.514000" />
<path d="M121622.152000 92482.514000 A1000.000000 1000.000000 0.0 0 0 120622.152000 91482.514000" />
<path d="M103622 94982
L103622 109482
" />
<path d="M86122 94982
L86122 109482
" />
<path d="M102622 93982
L87122 93982
" />
<path d="M87122 110482
L102622 110482
" />
<path d="M87122.149000 93982.510000 A1000.003000 1000.003000 0.0 0 0 86122.149000 94982.510000" />
<path d="M102622.149000 110482.510000 A1000.000000 1000.000000 0.0 0 0 103622.149000 109482.510000" />
<path d="M86122.149000 109482.510000 A1000.003000 1000.003000 0.0 0 0 87122.149000 110482.510000" />
<path d="M103622.149000 94982.510000 A1000.000000 1000.000000 0.0 0 0 102622.149000 93982.510000" />
<path d="M115605 125047
L131105 125047
" />
<path d="M131105 108547
L115605 108547
" />
<path d="M114605 124047
L114605 109547
" />
<path d="M132105 124047
L132105 109547
" />
<path d="M132105.383000 109547.930000 A1000.003000 1000.003000 0.0 0 0 131105.383000 108547.930000" />
<path d="M131105.383000 125047.930000 A1000.003000 1000.003000 0.0 0 0 132105.383000 124047.930000" />
<path d="M114605.383000 124047.930000 A999.993000 999.993000 0.0 0 0 115605.383000 125047.929000" />
<path d="M115605.383000 108547.930000 A1000.006000 1000.006000 0.0 0 0 114605.370000 109547.930000" />
<path d="M180958 77366
L178440 91645
" />
<path d="M163724 74327
L161206 88606
" />
<path d="M162017 89765
L177281 92456
" />
<path d="M180147 76207
L164882 73516
" />
<path d="M164882.480061 73516.101651 A1000.003000 1000.003000 0.0 0 0 163724.024848 74327.261150" />
<path d="M177281.806040 92456.975776 A999.999000 999.999000 0.0 0 0 178440.260806 91645.816789" />
<path d="M180958.159791 77366.103963 A1000.000000 1000.000000 0.0 0 0 180147.000933 76207.648380" />
<path d="M161206.125651 88606.973939 A1000.003000 1000.003000 0.0 0 0 162017.285150 89765.429152" />
<path d="M89346 116628
L96596 129186
" />
<path d="M82807 138302
L96230 130552
" />
<path d="M87980 116262
L74557 124012
" />
<path d="M74191 125378
L81441 137936
" />
<path d="M74557.174191 124012.722331 A1000.003000 1000.003000 0.0 0 0 74191.148666 125378.748193" />
<path d="M96230.568242 130552.142419 A1000.001000 1000.001000 0.0 0 0 96596.594169 129186.115325" />
<path d="M89346.593303 116628.747825 A1000.000000 1000.000000 0.0 0 0 87980.568258 116262.722447" />
<path d="M81441.148581 137936.116242 A1000.003000 1000.003000 0.0 0 0 82807.173760 138302.141584" />
<path d="M65706 110597
L72956 123155
" />
<path d="M80862 101847
L88112 114405
" />
<path d="M74322 123521
L87746 115771
" />
<path d="M79496 101481
L66072 109231
" />
<path d="M80862.294071 101847.724959 A999.994000 999.994000 0.0 0 0 79496.268111 101481.700192" />
<path d="M87746.268028 115771.119048 A1000.006000 1000.006000 0.0 0 0 88112.304896 114405.087709" />
<path d="M72956.849331 123155.093809 A1000.003000 1000.003000 0.0 0 0 74322.875193 123521.119334" />
<path d="M66072.874758 109231.699581 A1000.003000 1000.003000 0.0 0 0 65706.849416 110597.724760" />
<path d="M81045 138363
L70792 128110
" />
<path d="M68671 150737
L58418 140484
" />
<path d="M69378 128110
L58418 139070
" />
<path d="M70085 150737
L81045 139777
" />
<path d="M68671.139719 150737.467281 A1000.000000 1000.000000 0.0 0 0 70085.353781 150737.467781" />
<path d="M58418.091926 139070.205926 A999.999000 999.999000 0.0 0 0 58418.092426 140484.418574" />
<path d="M81045.507695 139777.311695 A1000.002000 1000.002000 0.0 0 0 81045.507195 138363.099805" />
<path d="M70792.459903 128110.051097 A1000.003000 1000.003000 0.0 0 0 69378.246597 128110.050597" />
</g>
<g style="fill:#000000; fill-opacity:0.0; 
stroke:#000000; stroke-width:120.000000; stroke-opacity:1; 
stroke-linecap:round; stroke-linejoin:round;">
<path d="M117703 106748
L117703 109748
" />
<path d="M118503 109748
L120303 109748
" />
<path d="M120303 106748
L118503 106748
" />
<path d="M121103 109748
L121103 106748
" />
<path d="M118503.667000 106748.438000 A400.000000 400.000000 0.0 0 0 117703.667000 106748.438000" />
<path d="M120303.667000 109748.438000 A400.000000 400.000000 0.0 0 0 121103.667000 109748.438000" />
<path d="M117703.667000 109748.438000 A400.000000 400.000000 0.0 0 0 118503.667000 109748.438000" />
<path d="M121103.667000 106748.438000 A400.000000 400.000000 0.0 0 0 120303.667000 106748.438000" />
<path d="M73548 103175
L75048 105773
" />
<path d="M75800 101875
L74241 102775
" />
<path d="M75741 105373
L77300 104473
" />
<path d="M77992 104073
L76492 101475
" />
<path d="M77300.119879 104473.946070 A400.000000 400.000000 0.0 1 0 77992.940121 104073.945930" />
<path d="M76492.940121 101475.869930 A400.000000 400.000000 0.0 0 0 75800.119879 101875.870070" />
<path d="M74241.274121 102775.869930 A400.000000 400.000000 0.0 0 0 73548.453879 103175.870070" />
<path d="M75048.453879 105773.946070 A400.000000 400.000000 0.0 1 0 75741.274121 105373.945930" />
</g>
<g style="fill:#000000; fill-opacity:0.0; 
stroke:#000000; stroke-width:150.000000; stroke-opacity:1; 
stroke-linecap:round; stroke-linejoin:round;">
<path d="M194921 96075
L179657 93383
" />
<path d="M195732 97233
L193214 111513
" />
<path d="M176791 109632
L192056 112324
" />
<path d="M178498 94194
L175980 108474
" />
<path d="M192056.330040 112324.377776 A999.999000 999.999000 0.0 0 0 193214.784806 111513.218789" />
<path d="M195732.683791 97233.505963 A1000.000000 1000.000000 0.0 0 0 194921.524933 96075.050380" />
<path d="M179657.004061 93383.503651 A1000.003000 1000.003000 0.0 0 0 178498.548848 94194.663150" />
<path d="M175980.649651 108474.375939 A1000.003000 1000.003000 0.0 0 0 176791.809150 109632.831152" />
<path d="M171290 126432
L156026 123741
" />
<path d="M153161 139990
L168425 142682
" />
<path d="M152350 138832
L154867 124552
" />
<path d="M169584 141871
L172102 127591
" />
<path d="M152350.070209 138832.172037 A1000.000000 1000.000000 0.0 0 0 153161.229067 139990.627620" />
<path d="M172102.104349 127591.302061 A1000.003000 1000.003000 0.0 0 0 171290.944850 126432.846848" />
<path d="M156026.423960 123741.300224 A999.999000 999.999000 0.0 0 0 154867.969194 124552.459211" />
<path d="M168425.749939 142682.174349 A1000.003000 1000.003000 0.0 0 0 169584.205152 141871.014850" />
<path d="M114090 124357
L110337 110351
" />
<path d="M97186 128886
L93433 114880
" />
<path d="M109112 109644
L94140 113656
" />
<path d="M98411 129593
L113383 125582
" />
<path d="M97186.738151 128886.804960 A1000.000000 1000.000000 0.0 0 0 98411.482960 129593.911849" />
<path d="M94140.969049 113656.136184 A999.999000 999.999000 0.0 0 0 93433.863117 114880.879701" />
<path d="M110337.563881 110351.547032 A1000.003000 1000.003000 0.0 0 0 109112.819130 109644.440485" />
<path d="M113383.333026 125582.216098 A1000.002000 1000.002000 0.0 0 0 114090.439482 124357.472139" />
<path d="M170887 143116
L186152 145807
" />
<path d="M187310 144996
L189828 130716
" />
<path d="M170076 141957
L172594 127678
" />
<path d="M189017 129558
L173752 126866
" />
<path d="M189828.642349 130716.963061 A1000.003000 1000.003000 0.0 0 0 189017.482850 129558.507848" />
<path d="M170076.608209 141957.833037 A1000.000000 1000.000000 0.0 0 0 170887.767067 143116.288620" />
<path d="M186152.287939 145807.835349 A1000.003000 1000.003000 0.0 0 0 187310.743152 144996.675850" />
<path d="M173752.961960 126866.961224 A999.999000 999.999000 0.0 0 0 172594.507194 127678.120211" />
<g >
</g>
<g >
</g>
<g >
</g>
<g >
</g>
<g >
</g>
<g >
</g>
<g >
</g>
<g >
</g>
<g >
</g>
<g >
</g>
<g >
</g>
<g >
</g>
<g >
</g>
<g >
</g>
<g >
</g>
<g >
</g>
<g >
</g>
<g >
</g>
<g >
</g>
<g >
</g>
<g >
</g>
<g >
</g>
<g >
</g>
<g >
</g>
<g >
</g>
<g >
</g>
<g >
</g>
<g >
</g>
<g >
</g>
<g >
</g>
<g >
</g>
<g >
</g>
<g >
</g>
<g >
</g>
<g >
</g>
<g >
</g>
<g >
</g>
<g >
</g>
<g >
</g>
<g >
</g>
<g >
</g>
<g >
</g>
<g >
</g>
<g >
</g>
<g >
</g>
<g >
</g>
<g >
</g>
<g >
</g>
<g >
</g>
<g >
</g>
<g >
</g>
<g >
</g>
<g >
</g>
<g >
</g>
<g >
</g>
<g >
</g>
<g >
</g>
<g >
</g>
<g >
</g>
<g >
</g>
<g >
</g>
<g >
</g>
<g >
</g>
<g >
</g>
<g >
</g>
<g >
</g>
<g >
</g>
<g >
</g>
<g >
</g>
<g >
</g>
<g >
</g>
<g >
</g>
<g >
</g>
<g >
</g>
<g >
</g>
<g >
</g>
<g >
</g>
<g >
</g>
<g >
</g>
<g >
</g>
<g >
</g>
<g >
</g>
<g >
</g>
<g >
</g>
<g >
</g>
<g >
</g>
<g >
</g>
<g >
</g>
<g >
</g>
</g> 
</svg>
