<?xml version="1.0" standalone="no"?>
 <!DOCTYPE svg PUBLIC "-//W3C//DTD SVG 1.1//EN" 
 "http://www.w3.org/Graphics/SVG/1.1/DTD/svg11.dtd"> 
<svg
  xmlns:svg="http://www.w3.org/2000/svg"
  xmlns="http://www.w3.org/2000/svg"
  xmlns:xlink="http://www.w3.org/1999/xlink"
  version="1.1"
  width="27.940000cm" height="21.590000cm" viewBox="0 0 279400 215900">
<title>SVG Picture created as hillside52-User_Eco2.svg date 2022/05/08 19:31:22 </title>
  <desc>Picture generated by PCBNEW </desc>
<g style="fill:#000000; fill-opacity:1.000000;stroke:#000000; stroke-opacity:1.000000;
stroke-linecap:round; stroke-linejoin:round;"
 transform="translate(0 0) scale(1 1)">
</g>
<g style="fill:#000000; fill-opacity:0.0; 
stroke:#000000; stroke-width:0.000000; stroke-opacity:1; 
stroke-linecap:round; stroke-linejoin:round;">
</g>
<g style="fill:#000000; fill-opacity:0.0; 
stroke:#000000; stroke-width:50.000000; stroke-opacity:1; 
stroke-linecap:round; stroke-linejoin:round;">
<path d="M156277 51732
L141537 51732
" />
<path d="M220754 141766
L211473 151050
" />
<path d="M80150 81606
L91177 144142
" />
<path d="M215277.885998 61732.513998 A2000.086000 2000.086000 0.0 0 0 213277.853000 59732.514001" />
<path d="M222603 135523
L222603 117199
" />
<path d="M103333.037673 103666.305707 A499.947000 499.947000 0.0 0 0 102348.334604 103839.937070" />
<path d="M103333 103666
L105416 115483
" />
<path d="M219527 102742
L219527 73028
" />
<path d="M101480 98915
L98180 80204
" />
<path d="M200077.849000,59732.516000 C188177.848000,59732.514000 195077.854000,51732.512000 156277.848000,51732.511000" />
<path d="M96163 99796
L88383 101168
" />
<path d="M141537.849000,51732.518000 C111552.869000,52222.311000 108699.599000,74080.911000 90998.124000,76901.671000" />
<path d="M99165 80030
L102464 98742
" />
<path d="M220754.325000,141766.373000 C222447.850000,140142.514000 222597.850000,137372.515000 222603.175000,135523.263000" />
<path d="M90998 76901
L82381 78421
" />
<path d="M92238.337725 123031.628890 A499.957000 499.957000 0.0 1 0 92411.971959 124016.351769" />
<path d="M204792.853000,148812.515000 C197937.845000,142442.511000 187577.849000,131932.514000 175877.847000,131832.515000" />
<path d="M219527.848000,73028.049000 C219527.851000,69282.509000 215277.852000,66982.513000 215277.854000,63392.514000" />
<path d="M99165.630519 80030.894562 A500.023000 500.023000 0.0 1 0 98180.778042 80204.553993" />
<path d="M100191.940035 122644.463493 A499.963000 499.963000 0.0 0 0 100018.306067 121659.728378" />
<path d="M144834 137473
L94362 146372
" />
<path d="M108426 138308
L105300 120581
" />
<path d="M88209.682635 100184.013595 A499.999000 499.999000 0.0 0 0 88383.332985 101168.818916" />
<path d="M215277 61732
L215277 63392
" />
<path d="M96163.317663 99797.011102 A500.006000 500.006000 0.0 1 0 95989.664992 98812.191956" />
<path d="M88209 100184
L95989 98812
" />
<path d="M175877.847000,131832.515000 C161877.851000,131832.515000 159113.883000,134955.467000 144834.174000,137473.362000" />
<path d="M91176.997462 144142.100798 A2749.976000 2749.976000 0.0 0 0 94362.770057 146372.790326" />
<path d="M222603.178000,117199.500000 C222603.175000,109732.515000 219527.852000,109732.514000 219527.850000,102742.516000" />
<path d="M108425.946111 138308.270781 A500.040000 500.040000 0.0 1 0 109410.831986 138134.605002" />
<path d="M92238 123031
L100018 121659
" />
<path d="M104432 115657
L102348 103839
" />
<path d="M106285 120408
L109410 138134
" />
<path d="M100191 122644
L92411 124016
" />
<circle cx="123824.896000" cy="111695.797000" r="3301.997000" /> 
<path d="M106285.226561 120408.008784 A500.034000 500.034000 0.0 0 0 105300.351893 120581.669019" />
<path d="M213277 59732
L200077 59732
" />
<path d="M101480.121677 98915.894116 A499.987000 499.987000 0.0 0 0 102464.903371 98742.247935" />
<path d="M104432.045185 115657.642474 A500.036000 500.036000 0.0 1 0 105416.924211 115483.983963" />
<path d="M211473.089000,151050.500000 C209747.845000,152712.515000 206217.851000,150252.514000 204792.853000,148812.515000" />
<path d="M82381.047808 78421.066922 A2750.015000 2750.015000 0.0 0 0 80150.358241 81606.802958" />
</g>
<g style="fill:#000000; fill-opacity:0.0; 
stroke:#000000; stroke-width:300.000000; stroke-opacity:1; 
stroke-linecap:round; stroke-linejoin:round;">
<text x="237317.848000" y="168082.514000"
textLength="8390.000000" font-size="2000.000000" lengthAdjust="spacingAndGlyphs"
text-anchor="middle" opacity="0">50 mm</text>
<g class="stroked-text"><desc>50 mm</desc>
<path d="M234389 166511
L233674 166511
L233603 167225
L233674 167153
L233817 167082
L234174 167082
L234317 167153
L234389 167225
L234460 167368
L234460 167725
L234389 167868
L234317 167939
L234174 168011
L233817 168011
L233674 167939
L233603 167868
" />
<path d="M235389 166511
L235532 166511
L235674 166582
L235746 166653
L235817 166796
L235889 167082
L235889 167439
L235817 167725
L235746 167868
L235674 167939
L235532 168011
L235389 168011
L235246 167939
L235174 167868
L235103 167725
L235032 167439
L235032 167082
L235103 166796
L235174 166653
L235246 166582
L235389 166511
" />
<path d="M237674 168011
L237674 167011
" />
<path d="M237674 167153
L237746 167082
L237889 167011
L238103 167011
L238246 167082
L238317 167225
L238317 168011
" />
<path d="M238317 167225
L238389 167082
L238532 167011
L238746 167011
L238889 167082
L238960 167225
L238960 168011
" />
<path d="M239674 168011
L239674 167011
" />
<path d="M239674 167153
L239746 167082
L239889 167011
L240103 167011
L240246 167082
L240317 167225
L240317 168011
" />
<path d="M240317 167225
L240389 167082
L240532 167011
L240746 167011
L240889 167082
L240960 167225
L240960 168011
" />
</g></g>
<g style="fill:#000000; fill-opacity:0.0; 
stroke:#000000; stroke-width:200.000000; stroke-opacity:1; 
stroke-linecap:round; stroke-linejoin:round;">
<path d="M212407 165882
L212407 167918
" />
<path d="M262227 165882
L262227 167918
" />
<path d="M212407 167332
L232417 167332
" />
<path d="M242217 167332
L262227 167332
" />
<path d="M212407 167332
L213534 167918
" />
<path d="M212407 167332
L213534 166746
" />
<path d="M262227 167332
L261101 166746
" />
<path d="M262227 167332
L261101 167918
" />
</g>
<g style="fill:#000000; fill-opacity:0.0; 
stroke:#000000; stroke-width:120.000000; stroke-opacity:1; 
stroke-linecap:round; stroke-linejoin:round;">
<path d="M180974 110689
L182713 111154
" />
<path d="M183486 111362
L182709 114259
" />
<path d="M179425 113379
L180202 110482
" />
<path d="M181936 114052
L180198 113586
" />
<path d="M179425.579787 113379.815943 A400.000000 400.000000 0.0 0 0 180198.320213 113586.872057" />
<path d="M180974.777463 110689.094124 A400.000000 400.000000 0.0 0 0 180202.036787 110482.038943" />
<path d="M183486.184213 111362.024057 A400.000000 400.000000 0.0 0 0 182713.443787 111154.967943" />
<path d="M181936.986537 114052.745876 A400.000000 400.000000 0.0 0 0 182709.727213 114259.801057" />
<path d="M131839 123130
L131318 120175
" />
<path d="M132105 120036
L133878 119724
" />
<path d="M134666 119585
L135187 122539
" />
<path d="M134399 122678
L132626 122991
" />
<path d="M132105.983145 120036.997975 A400.000000 400.000000 0.0 0 0 131318.136855 120175.916025" />
<path d="M131839.081027 123130.339995 A400.000000 400.000000 0.0 0 0 132626.927145 122991.420975" />
<path d="M134666.482973 119585.512005 A400.000000 400.000000 0.0 0 0 133878.636855 119724.431025" />
<path d="M134399.580855 122678.854025 A400.000000 400.000000 0.0 1 0 135187.427145 122539.935975" />
<path d="M198165 118362
L199724 119262
" />
<path d="M195972 120560
L197472 117962
" />
<path d="M200417 119662
L198917 122260
" />
<path d="M198224 121860
L196665 120960
" />
<path d="M200417.261121 119662.357070 A400.000000 400.000000 0.0 0 0 199724.440879 119262.356930" />
<path d="M198165.595121 118362.357070 A400.000000 400.000000 0.0 0 0 197472.774879 117962.356930" />
<path d="M195972.774879 120560.432930 A400.000000 400.000000 0.0 0 0 196665.595121 120960.433070" />
<path d="M198224.440879 121860.432930 A400.000000 400.000000 0.0 0 0 198917.261121 122260.433070" />
</g>
<g style="fill:#000000; fill-opacity:0.0; 
stroke:#000000; stroke-width:150.000000; stroke-opacity:1; 
stroke-linecap:round; stroke-linejoin:round;">
<path d="M124974 124430
L127492 138710
" />
<path d="M143915 136830
L128651 139521
" />
<path d="M125785 123272
L141050 120580
" />
<path d="M142208 121391
L144726 135671
" />
<path d="M127492.631397 138710.549222 A1000.006000 1000.006000 0.0 0 0 128651.100080 139521.706452" />
<path d="M142208.882136 121391.990976 A1000.004000 1000.004000 0.0 0 0 141050.425936 120580.830636" />
<path d="M143915.621021 136830.159122 A1000.003000 1000.003000 0.0 0 0 144726.780178 135671.702969" />
<path d="M125785.905186 123272.379057 A999.993000 999.993000 0.0 0 0 124974.746199 124430.833965" />
<path d="M106371 125216
L103853 110936
" />
<path d="M105560 126374
L90295 129066
" />
<path d="M87430 112816
L102695 110125
" />
<path d="M89137 128254
L86619 113975
" />
<path d="M103853.472806 110936.395211 A999.999000 999.999000 0.0 0 0 102695.018040 110125.236224" />
<path d="M87430.497150 112816.782848 A1000.003000 1000.003000 0.0 0 0 86619.337651 113975.238061" />
<path d="M105560.212933 126374.563620 A1000.000000 1000.000000 0.0 0 0 106371.371791 125216.108037" />
<path d="M89137.236848 128254.950850 A1000.003000 1000.003000 0.0 0 0 90295.692061 129066.110349" />
<path d="M105157 109691
L120421 106999
" />
<path d="M123286 123248
L108022 125940
" />
<path d="M124097 122090
L121580 107810
" />
<path d="M106863 125129
L104345 110849
" />
<path d="M106863.771848 125129.278850 A1000.003000 1000.003000 0.0 0 0 108022.227061 125940.438349" />
<path d="M121580.007806 107810.723211 A999.999000 999.999000 0.0 0 0 120421.553040 106999.564224" />
<path d="M105157.032150 109691.110848 A1000.003000 1000.003000 0.0 0 0 104345.872651 110849.566061" />
<path d="M123286.747933 123248.891620 A1000.000000 1000.000000 0.0 0 0 124097.906791 122090.436037" />
<path d="M80715 80491
L83233 94771
" />
<path d="M99656 92891
L84391 95582
" />
<path d="M97949 77452
L100467 91732
" />
<path d="M81526 79333
L96790 76641
" />
<path d="M81526.458067 79333.315380 A1000.000000 1000.000000 0.0 0 0 80715.299209 80491.770963" />
<path d="M83233.198194 94771.483789 A999.999000 999.999000 0.0 0 0 84391.652960 95582.642776" />
<path d="M99656.173850 92891.096152 A1000.003000 1000.003000 0.0 0 0 100467.333349 91732.640939" />
<path d="M97949.434152 77452.928150 A1000.003000 1000.003000 0.0 0 0 96790.978939 76641.768651" />
<path d="M119038 59801
L134479 58450
" />
<path d="M118128 60884
L119392 75329
" />
<path d="M135917 74887
L120476 76238
" />
<path d="M135562 59359
L136826 73804
" />
<path d="M119392.752239 75329.725979 A999.999000 999.999000 0.0 0 0 120476.101972 76238.764674" />
<path d="M135562.400421 59359.677963 A1000.003000 1000.003000 0.0 0 0 134479.050004 58450.639050" />
<path d="M135917.120037 74887.851421 A1000.003000 1000.003000 0.0 0 0 136826.158950 73804.501004" />
<path d="M119038.031941 59801.552330 A1000.000000 1000.000000 0.0 0 0 118128.993322 60884.902972" />
<path d="M156277 68482
L140777 68482
" />
<path d="M157277 52982
L157277 67482
" />
<path d="M139777 52982
L139777 67482
" />
<path d="M140777 51982
L156277 51982
" />
<path d="M156277.851000 68482.510000 A1000.003000 1000.003000 0.0 0 0 157277.851000 67482.510000" />
<path d="M139777.851000 67482.510000 A1000.000000 1000.000000 0.0 0 0 140777.851000 68482.510000" />
<path d="M140777.851000 51982.510000 A1000.000000 1000.000000 0.0 0 0 139777.851000 52982.510000" />
<path d="M157277.851000 52982.510000 A1000.003000 1000.003000 0.0 0 0 156277.851000 51982.510000" />
<path d="M101393 94107
L103911 108387
" />
<path d="M102205 92949
L117469 90257
" />
<path d="M120334 106507
L105070 109198
" />
<path d="M118627 91068
L121145 105348
" />
<path d="M103911.754194 108387.550789 A999.999000 999.999000 0.0 0 0 105070.208960 109198.709776" />
<path d="M120334.729850 106507.163152 A1000.003000 1000.003000 0.0 0 0 121145.889349 105348.707939" />
<path d="M102205.014067 92949.382380 A1000.000000 1000.000000 0.0 0 0 101393.855209 94107.837963" />
<path d="M118627.990152 91068.995150 A1000.003000 1000.003000 0.0 0 0 117469.534939 90257.835651" />
<path d="M119610 77820
L120874 92265
" />
<path d="M137044 76294
L138307 90739
" />
<path d="M137398 91823
L121957 93174
" />
<path d="M120519 76736
L135960 75385
" />
<path d="M137398.769037 91823.161421 A1000.003000 1000.003000 0.0 0 0 138307.807950 90739.811004" />
<path d="M120519.680941 76736.862330 A1000.000000 1000.000000 0.0 0 0 119610.642322 77820.212972" />
<path d="M120874.401239 92265.035979 A999.999000 999.999000 0.0 0 0 121957.750972 93174.074674" />
<path d="M137044.049421 76294.987963 A1000.003000 1000.003000 0.0 0 0 135960.699004 75385.949050" />
<path d="M140777 68982
L156277 68982
" />
<path d="M156277 85482
L140777 85482
" />
<path d="M139777 69982
L139777 84482
" />
<path d="M157277 69982
L157277 84482
" />
<path d="M140777.847000 68982.514000 A1000.000000 1000.000000 0.0 0 0 139777.847000 69982.514000" />
<path d="M156277.847000 85482.514000 A1000.003000 1000.003000 0.0 0 0 157277.847000 84482.514000" />
<path d="M139777.847000 84482.514000 A1000.000000 1000.000000 0.0 0 0 140777.847000 85482.514000" />
<path d="M157277.847000 69982.514000 A1000.003000 1000.003000 0.0 0 0 156277.847000 68982.514000" />
<path d="M122001 93672
L137442 92321
" />
<path d="M138525 93230
L139789 107675
" />
<path d="M121092 94755
L122356 109200
" />
<path d="M138880 108758
L123439 110109
" />
<path d="M122001.323941 93672.169330 A1000.000000 1000.000000 0.0 0 0 121092.285322 94755.519972" />
<path d="M138525.692421 93230.294963 A1000.003000 1000.003000 0.0 0 0 137442.342004 92321.256050" />
<path d="M122356.044239 109200.342979 A999.999000 999.999000 0.0 0 0 123439.393972 110109.381674" />
<path d="M138880.412037 108758.468421 A1000.003000 1000.003000 0.0 0 0 139789.450950 107675.118004" />
<path d="M156277 102482
L140777 102482
" />
<path d="M157277 86982
L157277 101482
" />
<path d="M139777 86982
L139777 101482
" />
<path d="M140777 85982
L156277 85982
" />
<path d="M156277.848000 102482.514000 A1000.003000 1000.003000 0.0 0 0 157277.848000 101482.514000" />
<path d="M157277.848000 86982.514000 A1000.003000 1000.003000 0.0 0 0 156277.848000 85982.514000" />
<path d="M139777.848000 101482.514000 A1000.000000 1000.000000 0.0 0 0 140777.848000 102482.514000" />
<path d="M140777.848000 85982.514000 A1000.000000 1000.000000 0.0 0 0 139777.848000 86982.514000" />
<path d="M175277 58482
L175277 72982
" />
<path d="M157777 58482
L157777 72982
" />
<path d="M174277 73982
L158777 73982
" />
<path d="M158777 57482
L174277 57482
" />
<path d="M175277.849000 58482.518000 A1000.003000 1000.003000 0.0 0 0 174277.849000 57482.518000" />
<path d="M157777.849000 72982.518000 A1000.000000 1000.000000 0.0 0 0 158777.849000 73982.518000" />
<path d="M174277.849000 73982.518000 A1000.003000 1000.003000 0.0 0 0 175277.849000 72982.518000" />
<path d="M158777.849000 57482.518000 A1000.000000 1000.000000 0.0 0 0 157777.849000 58482.518000" />
<path d="M193277 60982
L193277 75482
" />
<path d="M175777 60982
L175777 75482
" />
<path d="M192277 76482
L176777 76482
" />
<path d="M176777 59982
L192277 59982
" />
<path d="M193277.852000 60982.513000 A1000.003000 1000.003000 0.0 0 0 192277.852000 59982.513000" />
<path d="M175777.852000 75482.513000 A1000.000000 1000.000000 0.0 0 0 176777.852000 76482.513000" />
<path d="M192277.852000 76482.513000 A1000.003000 1000.003000 0.0 0 0 193277.852000 75482.513000" />
<path d="M176777.852000 59982.513000 A1000.000000 1000.000000 0.0 0 0 175777.852000 60982.513000" />
<path d="M175277 75482
L175277 89982
" />
<path d="M158777 74482
L174277 74482
" />
<path d="M157777 75482
L157777 89982
" />
<path d="M174277 90982
L158777 90982
" />
<path d="M157777.847000 89982.515000 A1000.000000 1000.000000 0.0 0 0 158777.847000 90982.515000" />
<path d="M174277.847000 90982.515000 A1000.003000 1000.003000 0.0 0 0 175277.847000 89982.515000" />
<path d="M158777.847000 74482.515000 A1000.000000 1000.000000 0.0 0 0 157777.847000 75482.515000" />
<path d="M175277.847000 75482.515000 A1000.003000 1000.003000 0.0 0 0 174277.847000 74482.515000" />
<path d="M176777 76982
L192277 76982
" />
<path d="M192277 93482
L176777 93482
" />
<path d="M193277 77982
L193277 92482
" />
<path d="M175777 77982
L175777 92482
" />
<path d="M175777.849000 92482.510000 A1000.000000 1000.000000 0.0 0 0 176777.849000 93482.510000" />
<path d="M193277.849000 77982.510000 A1000.003000 1000.003000 0.0 0 0 192277.849000 76982.510000" />
<path d="M176777.849000 76982.510000 A1000.000000 1000.000000 0.0 0 0 175777.849000 77982.510000" />
<path d="M192277.849000 93482.510000 A1000.003000 1000.003000 0.0 0 0 193277.849000 92482.510000" />
<path d="M174277 107982
L158777 107982
" />
<path d="M158777 91482
L174277 91482
" />
<path d="M157777 92482
L157777 106982
" />
<path d="M175277 92482
L175277 106982
" />
<path d="M157777.848000 106982.514000 A1000.000000 1000.000000 0.0 0 0 158777.848000 107982.514000" />
<path d="M174277.848000 107982.514000 A1000.003000 1000.003000 0.0 0 0 175277.848000 106982.514000" />
<path d="M175277.848000 92482.514000 A1000.003000 1000.003000 0.0 0 0 174277.848000 91482.514000" />
<path d="M158777.848000 91482.514000 A1000.000000 1000.000000 0.0 0 0 157777.848000 92482.514000" />
<path d="M175777 94982
L175777 109482
" />
<path d="M193277 94982
L193277 109482
" />
<path d="M176777 93982
L192277 93982
" />
<path d="M192277 110482
L176777 110482
" />
<path d="M193277.851000 94982.510000 A1000.003000 1000.003000 0.0 0 0 192277.851000 93982.510000" />
<path d="M175777.851000 109482.510000 A1000.000000 1000.000000 0.0 0 0 176777.851000 110482.510000" />
<path d="M192277.851000 110482.510000 A1000.003000 1000.003000 0.0 0 0 193277.851000 109482.510000" />
<path d="M176777.851000 93982.510000 A1000.000000 1000.000000 0.0 0 0 175777.851000 94982.510000" />
<path d="M163794 125047
L148294 125047
" />
<path d="M148294 108547
L163794 108547
" />
<path d="M164794 124047
L164794 109547
" />
<path d="M147294 124047
L147294 109547
" />
<path d="M148294.617000 108547.930000 A1000.003000 1000.003000 0.0 0 0 147294.617000 109547.930000" />
<path d="M147294.617000 124047.930000 A1000.003000 1000.003000 0.0 0 0 148294.617000 125047.930000" />
<path d="M163794.617000 125047.929000 A999.993000 999.993000 0.0 0 0 164794.617000 124047.930000" />
<path d="M164794.630000 109547.930000 A1000.006000 1000.006000 0.0 0 0 163794.617000 108547.930000" />
<path d="M98441 77366
L100959 91645
" />
<path d="M115675 74327
L118193 88606
" />
<path d="M117382 89765
L102118 92456
" />
<path d="M99252 76207
L114517 73516
" />
<path d="M115675.975152 74327.261150 A1000.003000 1000.003000 0.0 0 0 114517.519939 73516.101651" />
<path d="M100959.739194 91645.816789 A999.999000 999.999000 0.0 0 0 102118.193960 92456.975776" />
<path d="M99252.999067 76207.648380 A1000.000000 1000.000000 0.0 0 0 98441.840209 77366.103963" />
<path d="M117382.714850 89765.429152 A1000.003000 1000.003000 0.0 0 0 118193.874349 88606.973939" />
<path d="M190053 116628
L182803 129186
" />
<path d="M196592 138302
L183169 130552
" />
<path d="M191419 116262
L204842 124012
" />
<path d="M205208 125378
L197958 137936
" />
<path d="M205208.851334 125378.748193 A1000.003000 1000.003000 0.0 0 0 204842.825809 124012.722331" />
<path d="M182803.405831 129186.115325 A1000.001000 1000.001000 0.0 0 0 183169.431758 130552.142419" />
<path d="M191419.431742 116262.722447 A1000.000000 1000.000000 0.0 0 0 190053.406697 116628.747825" />
<path d="M196592.826240 138302.141584 A1000.003000 1000.003000 0.0 0 0 197958.851419 137936.116242" />
<path d="M213693 110597
L206443 123155
" />
<path d="M198537 101847
L191287 114405
" />
<path d="M205077 123521
L191653 115771
" />
<path d="M199903 101481
L213327 109231
" />
<path d="M199903.731889 101481.700192 A999.994000 999.994000 0.0 0 0 198537.705929 101847.724959" />
<path d="M191287.695104 114405.087709 A1000.006000 1000.006000 0.0 0 0 191653.731972 115771.119048" />
<path d="M205077.124807 123521.119334 A1000.003000 1000.003000 0.0 0 0 206443.150669 123155.093809" />
<path d="M213693.150584 110597.724760 A1000.003000 1000.003000 0.0 0 0 213327.125242 109231.699581" />
<path d="M198354 138363
L208607 128110
" />
<path d="M210728 150737
L220981 140484
" />
<path d="M210021 128110
L220981 139070
" />
<path d="M209314 150737
L198354 139777
" />
<path d="M209314.646219 150737.467781 A1000.000000 1000.000000 0.0 0 0 210728.860281 150737.467281" />
<path d="M220981.907574 140484.418574 A999.999000 999.999000 0.0 0 0 220981.908074 139070.205926" />
<path d="M198354.492805 138363.099805 A1000.002000 1000.002000 0.0 0 0 198354.492305 139777.311695" />
<path d="M210021.753403 128110.050597 A1000.003000 1000.003000 0.0 0 0 208607.540097 128110.051097" />
</g>
<g style="fill:#000000; fill-opacity:0.0; 
stroke:#000000; stroke-width:120.000000; stroke-opacity:1; 
stroke-linecap:round; stroke-linejoin:round;">
<path d="M161696 106748
L161696 109748
" />
<path d="M160896 109748
L159096 109748
" />
<path d="M159096 106748
L160896 106748
" />
<path d="M158296 109748
L158296 106748
" />
<path d="M161696.333000 106748.438000 A400.000000 400.000000 0.0 0 0 160896.333000 106748.438000" />
<path d="M158296.333000 109748.438000 A400.000000 400.000000 0.0 0 0 159096.333000 109748.438000" />
<path d="M160896.333000 109748.438000 A400.000000 400.000000 0.0 0 0 161696.333000 109748.438000" />
<path d="M159096.333000 106748.438000 A400.000000 400.000000 0.0 0 0 158296.333000 106748.438000" />
<path d="M205851 103175
L204351 105773
" />
<path d="M203599 101875
L205158 102775
" />
<path d="M203658 105373
L202099 104473
" />
<path d="M201407 104073
L202907 101475
" />
<path d="M201407.059879 104073.945930 A400.000000 400.000000 0.0 0 0 202099.880121 104473.946070" />
<path d="M203599.880121 101875.870070 A400.000000 400.000000 0.0 0 0 202907.059879 101475.869930" />
<path d="M205851.546121 103175.870070 A400.000000 400.000000 0.0 0 0 205158.725879 102775.869930" />
<path d="M203658.725879 105373.945930 A400.000000 400.000000 0.0 0 0 204351.546121 105773.946070" />
</g>
<g style="fill:#000000; fill-opacity:0.0; 
stroke:#000000; stroke-width:150.000000; stroke-opacity:1; 
stroke-linecap:round; stroke-linejoin:round;">
<path d="M84478 96075
L99742 93383
" />
<path d="M83667 97233
L86185 111513
" />
<path d="M102608 109632
L87343 112324
" />
<path d="M100901 94194
L103419 108474
" />
<path d="M86185.215194 111513.218789 A999.999000 999.999000 0.0 0 0 87343.669960 112324.377776" />
<path d="M84478.475067 96075.050380 A1000.000000 1000.000000 0.0 0 0 83667.316209 97233.505963" />
<path d="M100901.451152 94194.663150 A1000.003000 1000.003000 0.0 0 0 99742.995939 93383.503651" />
<path d="M102608.190850 109632.831152 A1000.003000 1000.003000 0.0 0 0 103419.350349 108474.375939" />
<path d="M108109 126432
L123373 123741
" />
<path d="M126238 139990
L110974 142682
" />
<path d="M127049 138832
L124532 124552
" />
<path d="M109815 141871
L107297 127591
" />
<path d="M126238.770933 139990.627620 A1000.000000 1000.000000 0.0 0 0 127049.929791 138832.172037" />
<path d="M108109.055150 126432.846848 A1000.003000 1000.003000 0.0 0 0 107297.895651 127591.302061" />
<path d="M124532.030806 124552.459211 A999.999000 999.999000 0.0 0 0 123373.576040 123741.300224" />
<path d="M109815.794848 141871.014850 A1000.003000 1000.003000 0.0 0 0 110974.250061 142682.174349" />
<path d="M165309 124357
L169062 110351
" />
<path d="M182213 128886
L185966 114880
" />
<path d="M170287 109644
L185259 113656
" />
<path d="M180988 129593
L166016 125582
" />
<path d="M180988.517040 129593.911849 A1000.000000 1000.000000 0.0 0 0 182213.261849 128886.804960" />
<path d="M185966.136883 114880.879701 A999.999000 999.999000 0.0 0 0 185259.030951 113656.136184" />
<path d="M170287.180870 109644.440485 A1000.003000 1000.003000 0.0 0 0 169062.436119 110351.547032" />
<path d="M165309.560518 124357.472139 A1000.002000 1000.002000 0.0 0 0 166016.666974 125582.216098" />
<path d="M108512 143116
L93247 145807
" />
<path d="M92089 144996
L89571 130716
" />
<path d="M109323 141957
L106805 127678
" />
<path d="M90382 129558
L105647 126866
" />
<path d="M90382.517150 129558.507848 A1000.003000 1000.003000 0.0 0 0 89571.357651 130716.963061" />
<path d="M108512.232933 143116.288620 A1000.000000 1000.000000 0.0 0 0 109323.391791 141957.833037" />
<path d="M92089.256848 144996.675850 A1000.003000 1000.003000 0.0 0 0 93247.712061 145807.835349" />
<path d="M106805.492806 127678.120211 A999.999000 999.999000 0.0 0 0 105647.038040 126866.961224" />
<g >
</g>
<g >
</g>
<g >
</g>
<g >
</g>
<g >
</g>
<g >
</g>
<g >
</g>
<g >
</g>
<g >
</g>
<g >
</g>
<g >
</g>
<g >
</g>
<g >
</g>
<g >
</g>
<g >
</g>
<g >
</g>
<g >
</g>
<g >
</g>
<g >
</g>
<g >
</g>
<g >
</g>
<g >
</g>
<g >
</g>
<g >
</g>
<g >
</g>
<g >
</g>
<g >
</g>
<g >
</g>
<g >
</g>
<g >
</g>
<g >
</g>
<g >
</g>
<g >
</g>
<g >
</g>
<g >
</g>
<g >
</g>
<g >
</g>
<g >
</g>
<g >
</g>
<g >
</g>
<g >
</g>
<g >
</g>
<g >
</g>
<g >
</g>
<g >
</g>
<g >
</g>
<g >
</g>
<g >
</g>
<g >
</g>
<g >
</g>
<g >
</g>
<g >
</g>
<g >
</g>
<g >
</g>
<g >
</g>
<g >
</g>
<g >
</g>
<g >
</g>
<g >
</g>
<g >
</g>
<g >
</g>
<g >
</g>
<g >
</g>
<g >
</g>
<g >
</g>
<g >
</g>
<g >
</g>
<g >
</g>
<g >
</g>
<g >
</g>
<g >
</g>
<g >
</g>
<g >
</g>
<g >
</g>
<g >
</g>
<g >
</g>
<g >
</g>
<g >
</g>
<g >
</g>
<g >
</g>
<g >
</g>
<g >
</g>
<g >
</g>
<g >
</g>
<g >
</g>
<g >
</g>
<g >
</g>
<g >
</g>
<g >
</g>
</g> 
</svg>
