%TF.GenerationSoftware,KiCad,Pcbnew,(6.0.8)*%
%TF.CreationDate,2022-10-10T20:06:03-07:00*%
%TF.ProjectId,hillside46,68696c6c-7369-4646-9534-362e6b696361,0.1.0*%
%TF.SameCoordinates,Original*%
%TF.FileFunction,Soldermask,Bot*%
%TF.FilePolarity,Negative*%
%FSLAX46Y46*%
G04 Gerber Fmt 4.6, Leading zero omitted, Abs format (unit mm)*
G04 Created by KiCad (PCBNEW (6.0.8)) date 2022-10-10 20:06:03*
%MOMM*%
%LPD*%
G01*
G04 APERTURE LIST*
G04 Aperture macros list*
%AMRoundRect*
0 Rectangle with rounded corners*
0 $1 Rounding radius*
0 $2 $3 $4 $5 $6 $7 $8 $9 X,Y pos of 4 corners*
0 Add a 4 corners polygon primitive as box body*
4,1,4,$2,$3,$4,$5,$6,$7,$8,$9,$2,$3,0*
0 Add four circle primitives for the rounded corners*
1,1,$1+$1,$2,$3*
1,1,$1+$1,$4,$5*
1,1,$1+$1,$6,$7*
1,1,$1+$1,$8,$9*
0 Add four rect primitives between the rounded corners*
20,1,$1+$1,$2,$3,$4,$5,0*
20,1,$1+$1,$4,$5,$6,$7,0*
20,1,$1+$1,$6,$7,$8,$9,0*
20,1,$1+$1,$8,$9,$2,$3,0*%
%AMRotRect*
0 Rectangle, with rotation*
0 The origin of the aperture is its center*
0 $1 length*
0 $2 width*
0 $3 Rotation angle, in degrees counterclockwise*
0 Add horizontal line*
21,1,$1,$2,0,0,$3*%
%AMFreePoly0*
4,1,41,0.142350,0.531259,0.275000,0.476314,0.388909,0.388909,0.476314,0.275000,0.531259,0.142350,0.533280,0.127000,3.200000,0.127000,3.236070,0.121770,3.296138,0.082984,3.325733,0.017894,3.315473,-0.052868,3.268611,-0.106872,3.200000,-0.127000,0.533280,-0.127000,0.531259,-0.142350,0.476314,-0.275000,0.388909,-0.388909,0.275000,-0.476314,0.142350,-0.531259,0.000000,-0.550000,
-0.142350,-0.531259,-0.275000,-0.476314,-0.388909,-0.388909,-0.476314,-0.275000,-0.531259,-0.142350,-0.533280,-0.127000,-3.200000,-0.127000,-3.236070,-0.121770,-3.296138,-0.082984,-3.325733,-0.017894,-3.315473,0.052868,-3.268611,0.106872,-3.200000,0.127000,-0.533280,0.127000,-0.531259,0.142350,-0.476314,0.275000,-0.388909,0.388909,-0.275000,0.476314,-0.142350,0.531259,0.000000,0.550000,
0.142350,0.531259,0.142350,0.531259,$1*%
%AMFreePoly1*
4,1,37,0.042529,3.485692,0.118849,3.448880,0.171655,3.382612,0.190499,3.300000,0.190499,0.776079,0.350697,0.719035,0.501283,0.623470,0.626955,0.496918,0.721466,0.345669,0.780119,0.177240,0.800000,0.000000,0.799688,-0.022336,0.774867,-0.198952,0.711533,-0.365678,0.612836,-0.514230,0.483680,-0.637224,0.330484,-0.728547,0.160862,-0.783660,-0.016754,-0.799825,-0.193538,-0.776237,
-0.360702,-0.714070,-0.509939,-0.616411,-0.633832,-0.488116,-0.726222,-0.335562,-0.782518,-0.166330,-0.799922,0.011170,-0.777569,0.188114,-0.716569,0.355708,-0.619956,0.505623,-0.492529,0.630409,-0.340623,0.723862,-0.190500,0.774968,-0.190500,3.300332,-0.171511,3.382912,-0.118589,3.449087,-0.042205,3.485766,0.042529,3.485692,0.042529,3.485692,$1*%
%AMFreePoly2*
4,1,31,7.836070,3.521770,7.896138,3.482984,7.925733,3.417894,7.915473,3.347132,7.868611,3.293128,7.800000,3.273000,6.402605,3.273000,3.039803,-0.089803,3.021679,-0.103336,3.018611,-0.106872,3.015866,-0.107677,3.010599,-0.111610,2.980023,-0.118192,2.950000,-0.127000,-2.800000,-0.127000,-2.836070,-0.121770,-2.896138,-0.082984,-2.925733,-0.017894,-2.915473,0.052868,-2.868611,0.106872,
-2.800000,0.127000,2.897394,0.127000,6.260197,3.489802,6.278320,3.503335,6.281389,3.506872,6.284135,3.507678,6.289401,3.511610,6.319977,3.518192,6.350000,3.527000,7.800000,3.527000,7.836070,3.521770,7.836070,3.521770,$1*%
%AMFreePoly3*
4,1,74,0.090320,1.758079,0.239662,1.720567,0.375744,1.648515,0.490712,1.546082,0.531399,1.486883,0.554756,1.483183,0.658279,1.430436,0.740436,1.348279,0.793183,1.244756,0.811359,1.130000,0.793183,1.015244,0.742519,0.915810,0.751359,0.860000,0.733183,0.745244,0.680436,0.641721,0.598279,0.559564,0.494756,0.506817,0.380000,0.488641,0.376841,0.489141,0.127000,0.190090,
0.127000,-0.587846,0.211346,-0.711884,0.214346,-0.726349,0.220000,-0.740000,0.218118,-0.744543,0.219116,-0.749355,0.211010,-0.761703,0.205355,-0.775355,0.200813,-0.777237,0.198115,-0.781346,0.183652,-0.784345,0.170000,-0.790000,-0.120000,-0.790000,-0.130398,-0.785693,-0.141637,-0.785076,-0.147391,-0.778654,-0.155355,-0.775355,-0.159662,-0.764957,-0.167173,-0.756574,-0.166701,-0.747965,
-0.170000,-0.740000,-0.165693,-0.729602,-0.165076,-0.718363,-0.127000,-0.639038,-0.127000,0.213346,-0.320215,0.401476,-0.430000,0.384087,-0.539983,0.401507,-0.639200,0.452060,-0.717940,0.530800,-0.768493,0.630017,-0.780316,0.704660,-0.475881,0.704660,-0.472794,0.697206,-0.464310,0.693692,-0.475123,0.703531,-0.475881,0.704660,-0.780316,0.704660,-0.785913,0.740000,-0.768493,0.849983,
-0.737725,0.910369,-0.799077,0.971721,-0.851824,1.075244,-0.870000,1.190000,-0.851824,1.304756,-0.799077,1.408279,-0.716920,1.490436,-0.613397,1.543183,-0.498641,1.561359,-0.461265,1.555439,-0.350213,1.652316,-0.213384,1.722939,-0.063658,1.758885,0.090320,1.758079,0.090320,1.758079,$1*%
%AMFreePoly4*
4,1,31,9.086070,4.561770,9.146138,4.522984,9.175733,4.457894,9.165473,4.387132,9.118611,4.333128,9.050000,4.313000,7.092605,4.313000,2.689803,-0.089803,2.671679,-0.103336,2.668611,-0.106872,2.665866,-0.107677,2.660599,-0.111610,2.630023,-0.118192,2.600000,-0.127000,-3.450000,-0.127000,-3.486070,-0.121770,-3.546138,-0.082984,-3.575733,-0.017894,-3.565473,0.052868,-3.518611,0.106872,
-3.450000,0.127000,2.547394,0.127000,6.950197,4.529802,6.968320,4.543335,6.971389,4.546872,6.974135,4.547678,6.979401,4.551610,7.009977,4.558192,7.040000,4.567000,9.050000,4.567000,9.086070,4.561770,9.086070,4.561770,$1*%
%AMFreePoly5*
4,1,36,-0.382313,0.442677,-0.365044,0.435750,-0.364806,0.435194,-0.364250,0.434956,-0.127000,0.192314,-0.127000,0.250000,0.127000,0.250000,0.127000,-0.067459,0.185750,-0.127544,0.192765,-0.145034,0.200000,-0.162500,0.200000,-0.750000,0.185355,-0.785355,0.150000,-0.800000,-0.300000,-0.800000,-0.335355,-0.785355,-0.350000,-0.750000,-0.350000,-0.400000,-0.650000,-0.400000,-0.650000,-0.750000,
-0.664645,-0.785355,-0.700000,-0.800000,-0.950000,-0.800000,-0.985355,-0.785355,-1.000000,-0.750000,-1.000000,-0.162500,-0.992765,-0.145034,-0.985750,-0.127544,-0.435750,0.434956,-0.435194,0.435194,-0.434956,0.435750,-0.417687,0.442677,-0.400562,0.449996,-0.400000,0.449771,-0.399438,0.449996,-0.382313,0.442677,-0.382313,0.442677,$1*%
%AMFreePoly6*
4,1,68,0.090320,1.758079,0.239662,1.720567,0.375744,1.648515,0.490712,1.546082,0.531399,1.486883,0.554756,1.483183,0.658279,1.430436,0.740436,1.348279,0.793183,1.244756,0.811359,1.130000,0.793183,1.015244,0.740436,0.911721,0.670111,0.841396,0.693183,0.796115,0.711359,0.681359,0.693183,0.566603,0.640436,0.463080,0.558279,0.380923,0.454756,0.328176,0.340000,0.310000,
0.294288,0.317240,0.127000,0.135192,0.127000,-0.587846,0.211346,-0.711884,0.214346,-0.726349,0.220000,-0.740000,0.218118,-0.744543,0.219116,-0.749355,0.211010,-0.761703,0.205355,-0.775355,0.200813,-0.777237,0.198115,-0.781346,0.183652,-0.784345,0.170000,-0.790000,-0.120000,-0.790000,-0.130398,-0.785693,-0.141637,-0.785076,-0.147391,-0.778654,-0.155355,-0.775355,-0.159662,-0.764957,
-0.167173,-0.756574,-0.166701,-0.747965,-0.170000,-0.740000,-0.165693,-0.729602,-0.165076,-0.718363,-0.127000,-0.639038,-0.127000,0.104135,-0.395567,0.365633,-0.469983,0.377420,-0.569200,0.427973,-0.647940,0.506713,-0.698493,0.605930,-0.715913,0.715913,-0.698493,0.825896,-0.673555,0.874840,-0.710436,0.911721,-0.763183,1.015244,-0.781359,1.130000,-0.763183,1.244756,-0.710436,1.348279,
-0.628279,1.430436,-0.524756,1.483183,-0.512625,1.485104,-0.466247,1.551093,-0.350213,1.652316,-0.213384,1.722939,-0.063658,1.758885,0.090320,1.758079,0.090320,1.758079,$1*%
%AMFreePoly7*
4,1,207,0.063500,0.109985,0.083519,0.089966,0.097781,0.081897,0.103822,0.071641,0.249283,-0.050524,0.421856,-0.154524,0.608507,-0.230411,0.804692,-0.276335,1.005633,-0.291180,1.206436,-0.274583,1.402213,-0.226948,1.588195,-0.149436,1.759854,-0.043934,1.904245,0.079495,1.910196,0.089803,1.967128,0.122672,2.032868,0.122672,2.089801,0.089802,2.092706,0.084770,2.097781,0.081899,
2.103822,0.071643,2.249283,-0.050522,2.421856,-0.154522,2.608507,-0.230408,2.804691,-0.276333,3.005631,-0.291178,3.206434,-0.274581,3.402211,-0.226947,3.588193,-0.149435,3.759852,-0.043933,3.904245,0.079499,3.910194,0.089803,3.967126,0.122672,4.032866,0.122672,4.089799,0.089802,4.092701,0.084775,4.097781,0.081901,4.103822,0.071645,4.249283,-0.050520,4.421855,-0.154520,
4.608506,-0.230407,4.804690,-0.276332,5.005630,-0.291177,5.206433,-0.274580,5.402209,-0.226946,5.588191,-0.149435,5.759850,-0.043933,5.904242,0.079497,5.910192,0.089803,5.967125,0.122673,6.032864,0.122672,6.089797,0.089802,6.097956,0.075670,6.112312,0.067843,6.118225,0.058157,6.264318,-0.060868,6.436492,-0.161519,6.622114,-0.234451,6.816754,-0.277924,7.015767,-0.290899,
7.214404,-0.273067,7.407924,-0.224854,7.591709,-0.147409,7.761373,-0.042583,7.904515,0.079973,7.910190,0.089803,7.967123,0.122673,8.032862,0.122672,8.089795,0.089802,8.097366,0.076689,8.110687,0.069396,8.116583,0.059699,8.262652,-0.059709,8.434870,-0.160730,8.620605,-0.233987,8.815414,-0.277730,9.014639,-0.290911,9.213513,-0.273215,9.407281,-0.225066,9.591307,-0.147616,
9.761190,-0.042715,9.904514,0.079976,9.910188,0.089803,9.967121,0.122673,10.032860,0.122672,10.089793,0.089802,10.093272,0.083776,10.099384,0.080332,10.105443,0.070086,10.250933,-0.051692,10.423466,-0.155321,10.610007,-0.230879,10.806023,-0.276531,11.006753,-0.291167,11.207318,-0.274432,11.402847,-0.226733,11.588587,-0.149228,11.760027,-0.043800,11.904234,0.079495,11.910186,0.089803,
11.967119,0.122673,12.032859,0.122672,12.089791,0.089802,12.092684,0.084791,12.097780,0.081908,12.103819,0.071656,12.249281,-0.050512,12.421853,-0.154512,12.608502,-0.230400,12.804685,-0.276325,13.005624,-0.291171,13.206427,-0.274575,13.402202,-0.226942,13.588184,-0.149432,13.759842,-0.043932,13.904234,0.079497,13.910184,0.089803,13.967117,0.122673,14.032857,0.122672,14.089789,0.089802,
14.122659,0.032869,14.122658,-0.032871,14.089785,-0.089805,13.924578,-0.233070,13.740756,-0.351513,13.542020,-0.442748,13.332373,-0.504937,13.116034,-0.536829,12.897359,-0.537781,12.680751,-0.507775,12.470570,-0.447415,12.271047,-0.357915,12.086199,-0.241078,12.000027,-0.167657,11.924776,-0.232924,11.741187,-0.351279,11.542709,-0.442491,11.333330,-0.504727,11.117255,-0.536738,10.898825,-0.537881,
10.682427,-0.508131,10.472408,-0.448088,10.272987,-0.358958,10.088170,-0.242529,10.000065,-0.167713,9.926147,-0.231896,9.744189,-0.349629,9.547514,-0.440675,9.340013,-0.503232,9.125789,-0.536064,8.909077,-0.538522,8.694163,-0.510556,8.485297,-0.452720,8.286608,-0.366158,8.102027,-0.252581,7.999889,-0.167880,7.926344,-0.231749,7.744619,-0.349393,7.548202,-0.440414,7.340969,-0.503017,
7.127009,-0.535965,6.910543,-0.538609,6.695842,-0.510896,6.487143,-0.453374,6.288561,-0.367177,6.104016,-0.254006,5.999784,-0.167861,5.924587,-0.233071,5.740764,-0.351515,5.542028,-0.442751,5.332380,-0.504941,5.116041,-0.536834,4.897365,-0.537788,4.680756,-0.507783,4.470574,-0.447423,4.271050,-0.357924,4.086201,-0.241087,4.000020,-0.167658,3.924589,-0.233071,3.740766,-0.351515,
3.542030,-0.442751,3.332382,-0.504942,3.116043,-0.536835,2.897367,-0.537789,2.680757,-0.507784,2.470575,-0.447424,2.271051,-0.357925,2.086202,-0.241089,2.000020,-0.167660,1.924591,-0.233072,1.740768,-0.351516,1.542032,-0.442753,1.332384,-0.504944,1.116044,-0.536837,0.897368,-0.537791,0.680759,-0.507786,0.470576,-0.447427,0.271051,-0.357928,0.086202,-0.241091,-0.080251,-0.099269,
-0.088901,-0.084584,-0.109985,-0.063500,-0.127000,0.000000,-0.109985,0.063500,-0.063500,0.109985,0.000000,0.127000,0.063500,0.109985,0.063500,0.109985,$1*%
%AMFreePoly8*
4,1,226,9.026694,0.536870,9.083627,0.504000,9.086540,0.498955,9.091598,0.496093,9.097638,0.485839,9.243102,0.363672,9.415675,0.259672,9.602327,0.183785,9.798513,0.137861,9.999454,0.123016,10.200258,0.139614,10.396035,0.187248,10.582018,0.264761,10.753677,0.370263,10.898069,0.493695,10.904019,0.504001,10.960952,0.536870,11.026692,0.536870,11.083625,0.504001,11.086535,0.498960,
11.091599,0.496095,11.097640,0.485840,11.243102,0.363674,11.415675,0.259674,11.602327,0.183788,11.798512,0.137863,11.999453,0.123018,12.200256,0.139615,12.396033,0.187250,12.582016,0.264762,12.753675,0.370264,12.898069,0.493697,12.904018,0.504001,12.960950,0.536870,13.026690,0.536870,13.083623,0.504000,13.086530,0.498965,13.091599,0.496097,13.097640,0.485841,13.243101,0.363676,
13.415674,0.259675,13.602326,0.183789,13.798511,0.137864,13.999451,0.123019,14.200255,0.139616,14.396032,0.187250,14.582014,0.264762,14.753673,0.370264,14.898066,0.493695,14.904016,0.504001,14.960948,0.536870,15.026688,0.536870,15.083621,0.504000,15.116490,0.447068,15.116490,0.381328,15.083617,0.324393,14.918411,0.181127,14.734587,0.062682,14.535851,-0.028554,14.326203,-0.090745,
14.109863,-0.122638,13.891187,-0.123592,13.674577,-0.093587,13.464394,-0.033227,13.264869,0.056272,13.080020,0.173109,12.993839,0.246537,12.918412,0.181127,12.734589,0.062682,12.535853,-0.028555,12.326204,-0.090746,12.109864,-0.122639,11.891188,-0.123593,11.674578,-0.093588,11.464395,-0.033229,11.264870,0.056270,11.080021,0.173107,10.993840,0.246535,10.918415,0.181126,10.734592,0.062681,
10.535855,-0.028556,10.326206,-0.090747,10.109866,-0.122641,9.891190,-0.123595,9.674579,-0.093590,9.464396,-0.033231,9.264871,0.056268,9.080021,0.173105,8.993839,0.246533,8.918416,0.181127,8.734593,0.062683,8.535857,-0.028553,8.326209,-0.090743,8.109869,-0.122635,7.891194,-0.123589,7.674584,-0.093583,7.464402,-0.033223,7.264878,0.056276,7.080029,0.173113,6.993850,0.246540,
6.918419,0.181127,6.734596,0.062682,6.535859,-0.028554,6.326211,-0.090744,6.109871,-0.122637,5.891195,-0.123591,5.674586,-0.093586,5.464403,-0.033226,5.264879,0.056274,5.080029,0.173111,4.993850,0.246538,4.918421,0.181127,4.734597,0.062682,4.535861,-0.028554,4.326213,-0.090745,4.109873,-0.122638,3.891197,-0.123592,3.674587,-0.093587,3.464404,-0.033227,3.264879,0.056272,
3.080030,0.173109,2.993849,0.246537,2.918422,0.181127,2.734599,0.062682,2.535863,-0.028555,2.326214,-0.090746,2.109874,-0.122639,1.891198,-0.123593,1.674588,-0.093588,1.464405,-0.033229,1.264880,0.056270,1.080031,0.173107,0.994423,0.246047,0.933833,0.192834,0.768304,0.081712,0.589815,-0.007114,0.401354,-0.072156,0.206074,-0.112327,0.007242,-0.126955,0.003642,-0.126024,
0.000000,-0.127000,-0.063500,-0.109985,-0.109985,-0.063500,-0.127000,0.000000,-0.109985,0.063500,-0.063500,0.109985,0.000000,0.127000,0.002494,0.126332,0.005030,0.127035,0.016564,0.124052,0.204689,0.140342,0.399236,0.188305,0.584020,0.265788,0.754592,0.370926,0.898073,0.493683,0.904031,0.504002,0.960964,0.536871,1.026704,0.536870,1.083636,0.503999,1.086545,0.498960,
1.091609,0.496095,1.097650,0.485840,1.243112,0.363674,1.415685,0.259674,1.602337,0.183788,1.798522,0.137863,1.999463,0.123018,2.200266,0.139615,2.396043,0.187250,2.582026,0.264762,2.753685,0.370264,2.898079,0.493697,2.904028,0.504001,2.960960,0.536870,3.026700,0.536870,3.083633,0.504000,3.086540,0.498965,3.091609,0.496097,3.097650,0.485841,3.243111,0.363676,
3.415684,0.259675,3.602336,0.183789,3.798521,0.137864,3.999461,0.123019,4.200265,0.139616,4.396042,0.187250,4.582024,0.264762,4.753683,0.370264,4.898076,0.493695,4.904026,0.504001,4.960958,0.536870,5.026698,0.536870,5.083631,0.504000,5.086535,0.498969,5.091609,0.496099,5.097651,0.485842,5.243111,0.363678,5.415684,0.259677,5.602335,0.183790,5.798519,0.137865,
5.999460,0.123020,6.200263,0.139617,6.396040,0.187251,6.582022,0.264763,6.753682,0.370264,6.898074,0.493695,6.904024,0.504001,6.960957,0.536871,7.026696,0.536870,7.083629,0.504000,7.086531,0.498973,7.091609,0.496100,7.097649,0.485846,7.243111,0.363680,7.415683,0.259679,7.602334,0.183792,7.798518,0.137867,7.999459,0.123022,8.200262,0.139619,8.396038,0.187253,
8.582020,0.264764,8.753680,0.370265,8.898072,0.493695,8.904022,0.504001,8.960955,0.536871,9.026694,0.536870,9.026694,0.536870,$1*%
%AMFreePoly9*
4,1,76,3.244632,0.331818,3.506852,0.292599,3.763564,0.226297,4.011980,0.133633,4.047291,0.105601,4.089074,0.099399,4.099042,0.091486,4.344144,0.002132,4.610121,-0.060258,4.881629,-0.090581,5.154817,-0.088406,5.425808,-0.053765,5.690758,0.012850,5.934405,0.106094,5.944247,0.114165,6.009113,0.124852,6.070632,0.101675,6.112320,0.050844,6.123007,-0.014022,6.099830,-0.075541,
6.048997,-0.117229,5.802089,-0.213835,5.546464,-0.284215,5.284902,-0.327603,5.020245,-0.343528,4.755368,-0.331818,4.493148,-0.292599,4.236436,-0.226297,3.988020,-0.133633,3.952709,-0.105601,3.910926,-0.099399,3.900958,-0.091486,3.655856,-0.002132,3.389879,0.060258,3.118371,0.090581,2.845183,0.088406,2.574192,0.053765,2.309242,-0.012850,2.065595,-0.106094,2.055753,-0.114165,
2.051976,-0.114787,2.048997,-0.117229,1.802089,-0.213835,1.546464,-0.284215,1.284902,-0.327603,1.020245,-0.343528,0.755368,-0.331818,0.493148,-0.292599,0.236436,-0.226297,-0.011980,-0.133633,-0.030697,-0.118775,-0.063500,-0.109985,-0.109985,-0.063500,-0.127000,0.000000,-0.109985,0.063500,-0.063500,0.109985,0.000000,0.127000,0.063500,0.109985,0.071473,0.102012,0.089074,0.099399,
0.099042,0.091486,0.344144,0.002132,0.610121,-0.060258,0.881629,-0.090581,1.154817,-0.088406,1.425808,-0.053765,1.690758,0.012850,1.934405,0.106094,1.944247,0.114165,1.948024,0.114787,1.951003,0.117229,2.197911,0.213835,2.453536,0.284215,2.715098,0.327603,2.979755,0.343528,3.244632,0.331818,3.244632,0.331818,$1*%
%AMFreePoly10*
4,1,74,0.090320,1.758079,0.239662,1.720567,0.375744,1.648515,0.490712,1.546082,0.531399,1.486883,0.554756,1.483183,0.658279,1.430436,0.740436,1.348279,0.793183,1.244756,0.811359,1.130000,0.793183,1.015244,0.742519,0.915810,0.751359,0.860000,0.733183,0.745244,0.680436,0.641721,0.598279,0.559564,0.494756,0.506817,0.380000,0.488641,0.323760,0.497549,0.127000,0.283428,
0.127000,-0.587846,0.211346,-0.711884,0.214346,-0.726349,0.220000,-0.740000,0.218118,-0.744543,0.219116,-0.749355,0.211010,-0.761703,0.205355,-0.775355,0.200813,-0.777237,0.198115,-0.781346,0.183652,-0.784345,0.170000,-0.790000,-0.120000,-0.790000,-0.130398,-0.785693,-0.141637,-0.785076,-0.147391,-0.778654,-0.155355,-0.775355,-0.159662,-0.764957,-0.167173,-0.756574,-0.166701,-0.747965,
-0.170000,-0.740000,-0.165693,-0.729602,-0.165076,-0.718363,-0.127000,-0.639038,-0.127000,0.293608,-0.266054,0.429002,-0.320017,0.401507,-0.430000,0.384087,-0.539983,0.401507,-0.639200,0.452060,-0.717940,0.530800,-0.768493,0.630017,-0.780316,0.704660,-0.475881,0.704660,-0.472794,0.697206,-0.464310,0.693692,-0.475123,0.703531,-0.475881,0.704660,-0.780316,0.704660,-0.785913,0.740000,
-0.768493,0.849983,-0.723736,0.937824,-0.763183,1.015244,-0.781359,1.130000,-0.763183,1.244756,-0.710436,1.348279,-0.628279,1.430436,-0.524756,1.483183,-0.512625,1.485104,-0.466247,1.551093,-0.350213,1.652316,-0.213384,1.722939,-0.063658,1.758885,0.090320,1.758079,0.090320,1.758079,$1*%
%AMFreePoly11*
4,1,66,0.090320,1.758079,0.239662,1.720567,0.375744,1.648515,0.490712,1.546082,0.531399,1.486883,0.554756,1.483183,0.658279,1.430436,0.740436,1.348279,0.793183,1.244756,0.811359,1.130000,0.793183,1.015244,0.742519,0.915810,0.751359,0.860000,0.733183,0.745244,0.680436,0.641721,0.598279,0.559564,0.494756,0.506817,0.380000,0.488641,0.323760,0.497549,0.127000,0.283428,
0.127000,-0.587846,0.211346,-0.711884,0.214346,-0.726349,0.220000,-0.740000,0.218118,-0.744543,0.219116,-0.749355,0.211010,-0.761703,0.205355,-0.775355,0.200813,-0.777237,0.198115,-0.781346,0.183652,-0.784345,0.170000,-0.790000,-0.120000,-0.790000,-0.130398,-0.785693,-0.141637,-0.785076,-0.147391,-0.778654,-0.155355,-0.775355,-0.159662,-0.764957,-0.167173,-0.756574,-0.166701,-0.747965,
-0.170000,-0.740000,-0.165693,-0.729602,-0.165076,-0.718363,-0.127000,-0.639038,-0.127000,0.293608,-0.245184,0.408682,-0.300000,0.400000,-0.409983,0.417420,-0.509200,0.467973,-0.587940,0.546713,-0.638493,0.645930,-0.655913,0.755913,-0.642064,0.843349,-0.710436,0.911721,-0.763183,1.015244,-0.781359,1.130000,-0.763183,1.244756,-0.710436,1.348279,-0.628279,1.430436,-0.524756,1.483183,
-0.512625,1.485104,-0.466247,1.551093,-0.350213,1.652316,-0.213384,1.722939,-0.063658,1.758885,0.090320,1.758079,0.090320,1.758079,$1*%
G04 Aperture macros list end*
%ADD10C,1.700000*%
%ADD11R,1.700000X1.700000*%
%ADD12O,1.700000X1.700000*%
%ADD13C,1.524000*%
%ADD14RotRect,1.650000X0.820000X345.000000*%
%ADD15RoundRect,0.205000X-0.651932X-0.037547X0.545816X-0.358483X0.651932X0.037547X-0.545816X0.358483X0*%
%ADD16RotRect,1.650000X0.820000X330.000000*%
%ADD17RoundRect,0.205000X-0.639436X0.132465X0.434436X-0.487535X0.639436X-0.132465X-0.434436X0.487535X0*%
%ADD18C,1.200000*%
%ADD19O,2.500000X1.700000*%
%ADD20C,4.400000*%
%ADD21RotRect,0.900000X0.800000X100.000000*%
%ADD22C,3.400000*%
%ADD23C,2.350000*%
%ADD24RotRect,0.900000X0.800000X95.000000*%
%ADD25R,0.800000X0.900000*%
%ADD26R,3.200000X2.000000*%
%ADD27R,2.000000X2.000000*%
%ADD28C,2.000000*%
%ADD29C,1.800000*%
%ADD30RotRect,0.900000X0.800000X75.000000*%
%ADD31RotRect,0.900000X0.800000X45.000000*%
%ADD32RotRect,3.200000X2.000000X150.000000*%
%ADD33RotRect,2.000000X2.000000X150.000000*%
%ADD34R,1.650000X0.820000*%
%ADD35RoundRect,0.205000X-0.620000X-0.205000X0.620000X-0.205000X0.620000X0.205000X-0.620000X0.205000X0*%
%ADD36C,1.397000*%
%ADD37RoundRect,0.250000X-0.250000X-0.475000X0.250000X-0.475000X0.250000X0.475000X-0.250000X0.475000X0*%
%ADD38FreePoly0,90.000000*%
%ADD39R,1.100000X1.800000*%
%ADD40FreePoly1,295.000000*%
%ADD41C,1.600000*%
%ADD42FreePoly2,0.000000*%
%ADD43FreePoly3,0.000000*%
%ADD44FreePoly4,0.000000*%
%ADD45FreePoly5,0.000000*%
%ADD46FreePoly6,0.000000*%
%ADD47FreePoly7,0.000000*%
%ADD48FreePoly8,0.000000*%
%ADD49FreePoly9,0.000000*%
%ADD50FreePoly10,0.000000*%
%ADD51FreePoly11,0.000000*%
%ADD52R,1.397000X1.397000*%
%ADD53C,1.000000*%
%ADD54C,1.300000*%
%ADD55R,1.560000X0.650000*%
%ADD56C,0.600000*%
%ADD57C,0.800000*%
G04 APERTURE END LIST*
D10*
%TO.C,DS1*%
X204440829Y-85011153D03*
X193264829Y-87043153D03*
D11*
X195804829Y-87043153D03*
X201900829Y-85011153D03*
D12*
X198344829Y-87043153D03*
X199360829Y-85011153D03*
X196820829Y-85011153D03*
X200884829Y-87043153D03*
X203424829Y-87043153D03*
X194280829Y-85011153D03*
%TD*%
D13*
%TO.C,U1*%
X206147265Y-53031072D03*
X206147265Y-55571072D03*
X206147265Y-58111072D03*
X206147265Y-60651072D03*
X206147265Y-63191072D03*
X206147265Y-65731072D03*
X206147265Y-68271072D03*
X206147265Y-70811072D03*
X206147265Y-73351072D03*
X206147265Y-75891072D03*
X206147265Y-78431072D03*
X206147265Y-80971072D03*
X190927265Y-80971072D03*
X190927265Y-78431072D03*
X190927265Y-75891072D03*
X190927265Y-73351072D03*
X190927265Y-70811072D03*
X190927265Y-68271072D03*
X190927265Y-65731072D03*
X190927265Y-63191072D03*
X190927265Y-60651072D03*
X190927265Y-58111072D03*
X190927265Y-55571072D03*
X190927265Y-53031072D03*
%TD*%
D14*
%TO.C,D3*%
X174212369Y-100254294D03*
X173824141Y-101703182D03*
D15*
X178798659Y-103036100D03*
D14*
X179186887Y-101587212D03*
%TD*%
D16*
%TO.C,D2*%
X190303023Y-107130925D03*
X189553023Y-108429963D03*
D17*
X194013053Y-111004963D03*
D16*
X194763053Y-109705925D03*
%TD*%
D18*
%TO.C,J2*%
X206470865Y-111299066D03*
X213470865Y-111299066D03*
X213470865Y-113049066D03*
X206470865Y-113049066D03*
D19*
X208670865Y-115149066D03*
X211670865Y-115149066D03*
X203170865Y-110949066D03*
X204670865Y-115149066D03*
%TD*%
D20*
%TO.C,H1*%
X132450866Y-65649066D03*
X170550866Y-65649066D03*
X151500866Y-84699066D03*
X151500866Y-46599066D03*
%TD*%
D21*
%TO.C,D7*%
X100694125Y-68415033D03*
X102565260Y-68085101D03*
X101282396Y-66280451D03*
%TD*%
%TO.C,D13*%
X108247815Y-111254164D03*
X110118950Y-110924232D03*
X108836086Y-109119582D03*
%TD*%
D10*
%TO.C,K13*%
X85041926Y-109507290D03*
D22*
X90458369Y-108552225D03*
D10*
X95874812Y-107597160D03*
D23*
X89433845Y-102741858D03*
X94722545Y-103941715D03*
%TD*%
D22*
%TO.C,K14*%
X108184906Y-105426554D03*
D10*
X102768463Y-106381619D03*
X113601349Y-104471489D03*
D23*
X107160382Y-99616187D03*
X112449082Y-100816044D03*
%TD*%
D24*
%TO.C,D8*%
X120171726Y-52698134D03*
X122064496Y-52532538D03*
X120943799Y-50622946D03*
%TD*%
D21*
%TO.C,D10*%
X103654825Y-85205999D03*
X105525960Y-84876067D03*
X104243096Y-83071417D03*
%TD*%
D10*
%TO.C,K1*%
X89970778Y-74113691D03*
D22*
X84554335Y-75068756D03*
D10*
X79137892Y-76023821D03*
D23*
X85578859Y-80879123D03*
X80290159Y-79679266D03*
%TD*%
D22*
%TO.C,K3*%
X121440591Y-56301255D03*
D10*
X115961520Y-56780612D03*
X126919662Y-55821898D03*
D23*
X121954810Y-62178805D03*
X116790809Y-60522574D03*
%TD*%
D22*
%TO.C,K4*%
X142490869Y-49189062D03*
D10*
X147990869Y-49189062D03*
X136990869Y-49189062D03*
D23*
X142490869Y-55089063D03*
X137490869Y-52989062D03*
%TD*%
D22*
%TO.C,K8*%
X105232890Y-88684826D03*
D10*
X99816447Y-89639891D03*
X110649333Y-87729761D03*
D23*
X106257414Y-94495193D03*
X100968714Y-93295336D03*
%TD*%
D24*
%TO.C,D11*%
X121653379Y-69633439D03*
X123546149Y-69467843D03*
X122425452Y-67558251D03*
%TD*%
D22*
%TO.C,K9*%
X122922241Y-73236560D03*
D10*
X117443170Y-73715917D03*
X128401312Y-72757203D03*
D23*
X123436460Y-79114110D03*
X118272459Y-77457879D03*
%TD*%
D10*
%TO.C,K10*%
X147990862Y-66189064D03*
D22*
X142490862Y-66189064D03*
D10*
X136990862Y-66189064D03*
D23*
X142490862Y-72089065D03*
X137490862Y-69989064D03*
%TD*%
D10*
%TO.C,K15*%
X129882952Y-89692510D03*
X118924810Y-90651224D03*
D22*
X124403881Y-90171867D03*
D23*
X124918100Y-96049417D03*
X119754099Y-94393186D03*
%TD*%
D10*
%TO.C,K16*%
X147990864Y-83189063D03*
D22*
X142490864Y-83189063D03*
D10*
X136990864Y-83189063D03*
D23*
X142490864Y-89089064D03*
X137490864Y-86989063D03*
%TD*%
D24*
%TO.C,D14*%
X123135029Y-86568747D03*
X125027799Y-86403151D03*
X123907102Y-84493559D03*
%TD*%
D25*
%TO.C,D9*%
X159540867Y-50989062D03*
X161440867Y-50989062D03*
X160490867Y-48989062D03*
%TD*%
%TO.C,D12*%
X159540867Y-67989060D03*
X161440867Y-67989060D03*
X160490867Y-65989060D03*
%TD*%
%TO.C,D15*%
X159540868Y-84989060D03*
X161440868Y-84989060D03*
X160490868Y-82989060D03*
%TD*%
D22*
%TO.C,K5*%
X160490866Y-54689071D03*
D10*
X154990866Y-54689071D03*
X165990866Y-54689071D03*
D23*
X160490866Y-60589072D03*
X155490866Y-58489071D03*
%TD*%
D10*
%TO.C,K6*%
X183990870Y-57189063D03*
D22*
X178490870Y-57189063D03*
D10*
X172990870Y-57189063D03*
D23*
X178490870Y-63089064D03*
X173490870Y-60989063D03*
%TD*%
D22*
%TO.C,K11*%
X160490858Y-71689068D03*
D10*
X154990858Y-71689068D03*
X165990858Y-71689068D03*
D23*
X160490858Y-77589069D03*
X155490858Y-75489068D03*
%TD*%
D10*
%TO.C,K12*%
X172990862Y-74189064D03*
X183990862Y-74189064D03*
D22*
X178490862Y-74189064D03*
D23*
X178490862Y-80089065D03*
X173490862Y-77989064D03*
%TD*%
D10*
%TO.C,K17*%
X154990865Y-88689063D03*
D22*
X160490865Y-88689063D03*
D10*
X165990865Y-88689063D03*
D23*
X160490865Y-94589064D03*
X155490865Y-92489063D03*
%TD*%
D10*
%TO.C,K18*%
X183990866Y-91189061D03*
X172990866Y-91189061D03*
D22*
X178490866Y-91189061D03*
D23*
X178490866Y-97089062D03*
X173490866Y-94989061D03*
%TD*%
D26*
%TO.C,K20*%
X149964739Y-111311586D03*
D10*
X155464739Y-105711586D03*
D22*
X149964739Y-105711586D03*
D27*
X142464739Y-103211586D03*
D28*
X142464739Y-108211586D03*
D29*
X144464739Y-105711586D03*
D28*
X142464739Y-105711586D03*
X156964739Y-108211586D03*
D23*
X149964739Y-99811586D03*
D28*
X156964739Y-103211586D03*
D23*
X154964739Y-101911586D03*
%TD*%
D22*
%TO.C,K2*%
X102280872Y-71943094D03*
D10*
X107697315Y-70988029D03*
X96864429Y-72898159D03*
D23*
X103305396Y-77753461D03*
X98016696Y-76553604D03*
%TD*%
D30*
%TO.C,D20*%
X167207975Y-113835631D03*
X169043234Y-114327387D03*
X168643243Y-112149657D03*
%TD*%
D10*
%TO.C,K22*%
X183206007Y-113488983D03*
D22*
X187969147Y-116238983D03*
D10*
X192732287Y-118988983D03*
D23*
X185019147Y-121348534D03*
X181739020Y-117029880D03*
%TD*%
D31*
%TO.C,D21*%
X198928953Y-131739071D03*
X200272456Y-133082574D03*
X201014918Y-130996609D03*
%TD*%
D25*
%TO.C,D19*%
X164450864Y-98989070D03*
X166350864Y-98989070D03*
X165400864Y-96989070D03*
%TD*%
D10*
%TO.C,K19*%
X191706005Y-98766552D03*
D22*
X196469145Y-101516552D03*
D32*
X199269145Y-96666810D03*
D33*
X201714336Y-107431616D03*
D28*
X204214336Y-103101489D03*
D29*
X201232285Y-104266552D03*
D28*
X202964336Y-105266552D03*
D23*
X193519145Y-106626102D03*
D28*
X191656967Y-95851489D03*
X189156967Y-100181616D03*
D23*
X190239018Y-102307449D03*
%TD*%
D22*
%TO.C,K23*%
X203631215Y-128380308D03*
D10*
X207520302Y-132269395D03*
X199742128Y-124491221D03*
D23*
X207803146Y-124208377D03*
X209853755Y-129228836D03*
%TD*%
D34*
%TO.C,D4*%
X152273202Y-96454987D03*
X152273202Y-97954987D03*
D35*
X157423202Y-97954987D03*
D34*
X157423202Y-96454987D03*
%TD*%
D16*
%TO.C,D1*%
X195737304Y-90644439D03*
X194987304Y-91943477D03*
D17*
X199447334Y-94518477D03*
D16*
X200197334Y-93219439D03*
%TD*%
D36*
%TO.C,J4*%
X202290867Y-50979059D03*
%TD*%
D37*
%TO.C,C1*%
X197040870Y-50909069D03*
X198940870Y-50909069D03*
%TD*%
D38*
%TO.C,SW1*%
X211340866Y-120789060D03*
D39*
X211340866Y-117689060D03*
X211340866Y-123889060D03*
X215040866Y-117689060D03*
X215040866Y-123889060D03*
D38*
X215040866Y-120789060D03*
%TD*%
D10*
%TO.C,K7*%
X82089908Y-92765560D03*
X92922794Y-90855430D03*
D22*
X87506351Y-91810495D03*
D23*
X86481827Y-86000128D03*
X91770527Y-87199985D03*
%TD*%
D40*
%TO.C,SW2*%
X205688911Y-93870610D03*
D41*
X208679727Y-92475969D03*
X209736273Y-94741739D03*
D40*
X206745457Y-96136379D03*
D41*
X210792819Y-97007508D03*
D40*
X207802003Y-98402149D03*
%TD*%
D42*
%TO.C,H3*%
X131903819Y-100555962D03*
D43*
X134723819Y-95495962D03*
D44*
X131353819Y-98905962D03*
D45*
X135003819Y-104105962D03*
X132653819Y-105855962D03*
X135853819Y-101105962D03*
D46*
X130803819Y-106055962D03*
D47*
X127503819Y-109405962D03*
D48*
X127109987Y-110670160D03*
D45*
X132303819Y-102555962D03*
D49*
X130603819Y-108415962D03*
X130603819Y-107905962D03*
D50*
X136583819Y-94155962D03*
D51*
X136303819Y-104155962D03*
%TD*%
D20*
%TO.C,H4*%
X111842403Y-65751727D03*
%TD*%
%TO.C,H5*%
X118703427Y-106452211D03*
%TD*%
%TO.C,H6*%
X198590866Y-118589073D03*
%TD*%
%TO.C,H7*%
X169490866Y-51689062D03*
%TD*%
D52*
%TO.C,J3*%
X193390863Y-50979064D03*
%TD*%
D53*
%TO.C,H30*%
X100240802Y-112045650D03*
%TD*%
%TO.C,H28*%
X85193823Y-112515671D03*
%TD*%
D54*
%TO.C,H24*%
X78023818Y-70545961D03*
%TD*%
D53*
%TO.C,H29*%
X92177848Y-105782514D03*
%TD*%
D37*
%TO.C,C3*%
X187598202Y-87663926D03*
X189498202Y-87663926D03*
%TD*%
%TO.C,C2*%
X187598201Y-93863923D03*
X189498201Y-93863923D03*
%TD*%
D53*
%TO.C,H27*%
X77727848Y-95332514D03*
%TD*%
%TO.C,H31*%
X94527847Y-94132514D03*
%TD*%
D54*
%TO.C,H25*%
X203619919Y-136149962D03*
%TD*%
%TO.C,H23*%
X184219923Y-51949958D03*
%TD*%
D53*
%TO.C,H26*%
X77427848Y-83232515D03*
%TD*%
D22*
%TO.C,K21*%
X169600864Y-108575724D03*
D10*
X174913456Y-109999229D03*
X164288272Y-107152219D03*
D23*
X171127897Y-102876761D03*
X175414006Y-106199301D03*
%TD*%
D55*
%TO.C,U2*%
X189898197Y-91713924D03*
X189898197Y-90763924D03*
X187198197Y-90763924D03*
X187198197Y-91713924D03*
X189898197Y-89813924D03*
X187198197Y-89813924D03*
%TD*%
D56*
X202579829Y-83552153D03*
X202620910Y-63191072D03*
X194324829Y-68312153D03*
X203214829Y-68312153D03*
X201944829Y-83044153D03*
X201944829Y-65645153D03*
X190006829Y-85711153D03*
X193054829Y-55569065D03*
X207086832Y-89329156D03*
X201944829Y-91807153D03*
X202960829Y-98665153D03*
X205565826Y-91364150D03*
X215152829Y-108063153D03*
D57*
X210580829Y-58787153D03*
X199404829Y-61962153D03*
X202960829Y-89521153D03*
D56*
X191907988Y-64860870D03*
X155707994Y-107310877D03*
X168901053Y-68134802D03*
X181647994Y-59890874D03*
X185304829Y-71703153D03*
X190786186Y-72097472D03*
X169491051Y-69808296D03*
X89018459Y-85552847D03*
X191762131Y-69861595D03*
X96815576Y-83739765D03*
X184254829Y-71753153D03*
X190790635Y-74636987D03*
X190740869Y-77179064D03*
X111299972Y-97230670D03*
X186740866Y-81439067D03*
X191904656Y-72488776D03*
X106898879Y-80396099D03*
X157790864Y-63765563D03*
X159348201Y-99763926D03*
X170154829Y-79503153D03*
X191964652Y-75008776D03*
X125711495Y-81023091D03*
X172171125Y-72865050D03*
X170990742Y-80189066D03*
X174004829Y-76253153D03*
X146600862Y-80235563D03*
X191887996Y-77483585D03*
X150948197Y-97163925D03*
X191788795Y-79994928D03*
X171654829Y-80929065D03*
X163537854Y-80919064D03*
X182948201Y-105763921D03*
X194890862Y-104139065D03*
X180704829Y-83353153D03*
X191636654Y-82687023D03*
D57*
X196282983Y-111403300D03*
X158832408Y-98501830D03*
X201930857Y-95139066D03*
X179951846Y-104222426D03*
X192330862Y-58309062D03*
X192330861Y-57019059D03*
X191619924Y-90763927D03*
X203873201Y-101113922D03*
D56*
X188548197Y-90763924D03*
X205223200Y-100713922D03*
X200931007Y-94528925D03*
X195433634Y-110910881D03*
X194130797Y-90450788D03*
X196073198Y-104363924D03*
X196223202Y-94913926D03*
X195390864Y-108689066D03*
X193423201Y-102138924D03*
X188894989Y-107184969D03*
X180391846Y-102902436D03*
X158573301Y-97214580D03*
X172771847Y-100622436D03*
X170452908Y-99892506D03*
X190740864Y-79710111D03*
X158537420Y-105367461D03*
X168961057Y-68974797D03*
X192071058Y-67464798D03*
X94409495Y-67613724D03*
X101903680Y-109670815D03*
X97369763Y-84454388D03*
D57*
X192230863Y-54299063D03*
X188116099Y-106417555D03*
X193170864Y-89909071D03*
X150216247Y-97811877D03*
X171731843Y-101082431D03*
D56*
X190790865Y-69539062D03*
X190690868Y-82239067D03*
X164630863Y-109859066D03*
X185850866Y-117561875D03*
X191450866Y-124299061D03*
M02*
