%TF.GenerationSoftware,KiCad,Pcbnew,(6.0.8)*%
%TF.CreationDate,2022-10-10T20:06:03-07:00*%
%TF.ProjectId,hillside46,68696c6c-7369-4646-9534-362e6b696361,0.1.0*%
%TF.SameCoordinates,Original*%
%TF.FileFunction,Legend,Bot*%
%TF.FilePolarity,Positive*%
%FSLAX46Y46*%
G04 Gerber Fmt 4.6, Leading zero omitted, Abs format (unit mm)*
G04 Created by KiCad (PCBNEW (6.0.8)) date 2022-10-10 20:06:03*
%MOMM*%
%LPD*%
G01*
G04 APERTURE LIST*
G04 Aperture macros list*
%AMRoundRect*
0 Rectangle with rounded corners*
0 $1 Rounding radius*
0 $2 $3 $4 $5 $6 $7 $8 $9 X,Y pos of 4 corners*
0 Add a 4 corners polygon primitive as box body*
4,1,4,$2,$3,$4,$5,$6,$7,$8,$9,$2,$3,0*
0 Add four circle primitives for the rounded corners*
1,1,$1+$1,$2,$3*
1,1,$1+$1,$4,$5*
1,1,$1+$1,$6,$7*
1,1,$1+$1,$8,$9*
0 Add four rect primitives between the rounded corners*
20,1,$1+$1,$2,$3,$4,$5,0*
20,1,$1+$1,$4,$5,$6,$7,0*
20,1,$1+$1,$6,$7,$8,$9,0*
20,1,$1+$1,$8,$9,$2,$3,0*%
%AMRotRect*
0 Rectangle, with rotation*
0 The origin of the aperture is its center*
0 $1 length*
0 $2 width*
0 $3 Rotation angle, in degrees counterclockwise*
0 Add horizontal line*
21,1,$1,$2,0,0,$3*%
%AMFreePoly0*
4,1,41,0.142350,0.531259,0.275000,0.476314,0.388909,0.388909,0.476314,0.275000,0.531259,0.142350,0.533280,0.127000,3.200000,0.127000,3.236070,0.121770,3.296138,0.082984,3.325733,0.017894,3.315473,-0.052868,3.268611,-0.106872,3.200000,-0.127000,0.533280,-0.127000,0.531259,-0.142350,0.476314,-0.275000,0.388909,-0.388909,0.275000,-0.476314,0.142350,-0.531259,0.000000,-0.550000,
-0.142350,-0.531259,-0.275000,-0.476314,-0.388909,-0.388909,-0.476314,-0.275000,-0.531259,-0.142350,-0.533280,-0.127000,-3.200000,-0.127000,-3.236070,-0.121770,-3.296138,-0.082984,-3.325733,-0.017894,-3.315473,0.052868,-3.268611,0.106872,-3.200000,0.127000,-0.533280,0.127000,-0.531259,0.142350,-0.476314,0.275000,-0.388909,0.388909,-0.275000,0.476314,-0.142350,0.531259,0.000000,0.550000,
0.142350,0.531259,0.142350,0.531259,$1*%
%AMFreePoly1*
4,1,37,0.042529,3.485692,0.118849,3.448880,0.171655,3.382612,0.190499,3.300000,0.190499,0.776079,0.350697,0.719035,0.501283,0.623470,0.626955,0.496918,0.721466,0.345669,0.780119,0.177240,0.800000,0.000000,0.799688,-0.022336,0.774867,-0.198952,0.711533,-0.365678,0.612836,-0.514230,0.483680,-0.637224,0.330484,-0.728547,0.160862,-0.783660,-0.016754,-0.799825,-0.193538,-0.776237,
-0.360702,-0.714070,-0.509939,-0.616411,-0.633832,-0.488116,-0.726222,-0.335562,-0.782518,-0.166330,-0.799922,0.011170,-0.777569,0.188114,-0.716569,0.355708,-0.619956,0.505623,-0.492529,0.630409,-0.340623,0.723862,-0.190500,0.774968,-0.190500,3.300332,-0.171511,3.382912,-0.118589,3.449087,-0.042205,3.485766,0.042529,3.485692,0.042529,3.485692,$1*%
%AMFreePoly2*
4,1,31,7.836070,3.521770,7.896138,3.482984,7.925733,3.417894,7.915473,3.347132,7.868611,3.293128,7.800000,3.273000,6.402605,3.273000,3.039803,-0.089803,3.021679,-0.103336,3.018611,-0.106872,3.015866,-0.107677,3.010599,-0.111610,2.980023,-0.118192,2.950000,-0.127000,-2.800000,-0.127000,-2.836070,-0.121770,-2.896138,-0.082984,-2.925733,-0.017894,-2.915473,0.052868,-2.868611,0.106872,
-2.800000,0.127000,2.897394,0.127000,6.260197,3.489802,6.278320,3.503335,6.281389,3.506872,6.284135,3.507678,6.289401,3.511610,6.319977,3.518192,6.350000,3.527000,7.800000,3.527000,7.836070,3.521770,7.836070,3.521770,$1*%
%AMFreePoly3*
4,1,74,0.090320,1.758079,0.239662,1.720567,0.375744,1.648515,0.490712,1.546082,0.531399,1.486883,0.554756,1.483183,0.658279,1.430436,0.740436,1.348279,0.793183,1.244756,0.811359,1.130000,0.793183,1.015244,0.742519,0.915810,0.751359,0.860000,0.733183,0.745244,0.680436,0.641721,0.598279,0.559564,0.494756,0.506817,0.380000,0.488641,0.376841,0.489141,0.127000,0.190090,
0.127000,-0.587846,0.211346,-0.711884,0.214346,-0.726349,0.220000,-0.740000,0.218118,-0.744543,0.219116,-0.749355,0.211010,-0.761703,0.205355,-0.775355,0.200813,-0.777237,0.198115,-0.781346,0.183652,-0.784345,0.170000,-0.790000,-0.120000,-0.790000,-0.130398,-0.785693,-0.141637,-0.785076,-0.147391,-0.778654,-0.155355,-0.775355,-0.159662,-0.764957,-0.167173,-0.756574,-0.166701,-0.747965,
-0.170000,-0.740000,-0.165693,-0.729602,-0.165076,-0.718363,-0.127000,-0.639038,-0.127000,0.213346,-0.320215,0.401476,-0.430000,0.384087,-0.539983,0.401507,-0.639200,0.452060,-0.717940,0.530800,-0.768493,0.630017,-0.780316,0.704660,-0.475881,0.704660,-0.472794,0.697206,-0.464310,0.693692,-0.475123,0.703531,-0.475881,0.704660,-0.780316,0.704660,-0.785913,0.740000,-0.768493,0.849983,
-0.737725,0.910369,-0.799077,0.971721,-0.851824,1.075244,-0.870000,1.190000,-0.851824,1.304756,-0.799077,1.408279,-0.716920,1.490436,-0.613397,1.543183,-0.498641,1.561359,-0.461265,1.555439,-0.350213,1.652316,-0.213384,1.722939,-0.063658,1.758885,0.090320,1.758079,0.090320,1.758079,$1*%
%AMFreePoly4*
4,1,31,9.086070,4.561770,9.146138,4.522984,9.175733,4.457894,9.165473,4.387132,9.118611,4.333128,9.050000,4.313000,7.092605,4.313000,2.689803,-0.089803,2.671679,-0.103336,2.668611,-0.106872,2.665866,-0.107677,2.660599,-0.111610,2.630023,-0.118192,2.600000,-0.127000,-3.450000,-0.127000,-3.486070,-0.121770,-3.546138,-0.082984,-3.575733,-0.017894,-3.565473,0.052868,-3.518611,0.106872,
-3.450000,0.127000,2.547394,0.127000,6.950197,4.529802,6.968320,4.543335,6.971389,4.546872,6.974135,4.547678,6.979401,4.551610,7.009977,4.558192,7.040000,4.567000,9.050000,4.567000,9.086070,4.561770,9.086070,4.561770,$1*%
%AMFreePoly5*
4,1,36,-0.382313,0.442677,-0.365044,0.435750,-0.364806,0.435194,-0.364250,0.434956,-0.127000,0.192314,-0.127000,0.250000,0.127000,0.250000,0.127000,-0.067459,0.185750,-0.127544,0.192765,-0.145034,0.200000,-0.162500,0.200000,-0.750000,0.185355,-0.785355,0.150000,-0.800000,-0.300000,-0.800000,-0.335355,-0.785355,-0.350000,-0.750000,-0.350000,-0.400000,-0.650000,-0.400000,-0.650000,-0.750000,
-0.664645,-0.785355,-0.700000,-0.800000,-0.950000,-0.800000,-0.985355,-0.785355,-1.000000,-0.750000,-1.000000,-0.162500,-0.992765,-0.145034,-0.985750,-0.127544,-0.435750,0.434956,-0.435194,0.435194,-0.434956,0.435750,-0.417687,0.442677,-0.400562,0.449996,-0.400000,0.449771,-0.399438,0.449996,-0.382313,0.442677,-0.382313,0.442677,$1*%
%AMFreePoly6*
4,1,68,0.090320,1.758079,0.239662,1.720567,0.375744,1.648515,0.490712,1.546082,0.531399,1.486883,0.554756,1.483183,0.658279,1.430436,0.740436,1.348279,0.793183,1.244756,0.811359,1.130000,0.793183,1.015244,0.740436,0.911721,0.670111,0.841396,0.693183,0.796115,0.711359,0.681359,0.693183,0.566603,0.640436,0.463080,0.558279,0.380923,0.454756,0.328176,0.340000,0.310000,
0.294288,0.317240,0.127000,0.135192,0.127000,-0.587846,0.211346,-0.711884,0.214346,-0.726349,0.220000,-0.740000,0.218118,-0.744543,0.219116,-0.749355,0.211010,-0.761703,0.205355,-0.775355,0.200813,-0.777237,0.198115,-0.781346,0.183652,-0.784345,0.170000,-0.790000,-0.120000,-0.790000,-0.130398,-0.785693,-0.141637,-0.785076,-0.147391,-0.778654,-0.155355,-0.775355,-0.159662,-0.764957,
-0.167173,-0.756574,-0.166701,-0.747965,-0.170000,-0.740000,-0.165693,-0.729602,-0.165076,-0.718363,-0.127000,-0.639038,-0.127000,0.104135,-0.395567,0.365633,-0.469983,0.377420,-0.569200,0.427973,-0.647940,0.506713,-0.698493,0.605930,-0.715913,0.715913,-0.698493,0.825896,-0.673555,0.874840,-0.710436,0.911721,-0.763183,1.015244,-0.781359,1.130000,-0.763183,1.244756,-0.710436,1.348279,
-0.628279,1.430436,-0.524756,1.483183,-0.512625,1.485104,-0.466247,1.551093,-0.350213,1.652316,-0.213384,1.722939,-0.063658,1.758885,0.090320,1.758079,0.090320,1.758079,$1*%
%AMFreePoly7*
4,1,207,0.063500,0.109985,0.083519,0.089966,0.097781,0.081897,0.103822,0.071641,0.249283,-0.050524,0.421856,-0.154524,0.608507,-0.230411,0.804692,-0.276335,1.005633,-0.291180,1.206436,-0.274583,1.402213,-0.226948,1.588195,-0.149436,1.759854,-0.043934,1.904245,0.079495,1.910196,0.089803,1.967128,0.122672,2.032868,0.122672,2.089801,0.089802,2.092706,0.084770,2.097781,0.081899,
2.103822,0.071643,2.249283,-0.050522,2.421856,-0.154522,2.608507,-0.230408,2.804691,-0.276333,3.005631,-0.291178,3.206434,-0.274581,3.402211,-0.226947,3.588193,-0.149435,3.759852,-0.043933,3.904245,0.079499,3.910194,0.089803,3.967126,0.122672,4.032866,0.122672,4.089799,0.089802,4.092701,0.084775,4.097781,0.081901,4.103822,0.071645,4.249283,-0.050520,4.421855,-0.154520,
4.608506,-0.230407,4.804690,-0.276332,5.005630,-0.291177,5.206433,-0.274580,5.402209,-0.226946,5.588191,-0.149435,5.759850,-0.043933,5.904242,0.079497,5.910192,0.089803,5.967125,0.122673,6.032864,0.122672,6.089797,0.089802,6.097956,0.075670,6.112312,0.067843,6.118225,0.058157,6.264318,-0.060868,6.436492,-0.161519,6.622114,-0.234451,6.816754,-0.277924,7.015767,-0.290899,
7.214404,-0.273067,7.407924,-0.224854,7.591709,-0.147409,7.761373,-0.042583,7.904515,0.079973,7.910190,0.089803,7.967123,0.122673,8.032862,0.122672,8.089795,0.089802,8.097366,0.076689,8.110687,0.069396,8.116583,0.059699,8.262652,-0.059709,8.434870,-0.160730,8.620605,-0.233987,8.815414,-0.277730,9.014639,-0.290911,9.213513,-0.273215,9.407281,-0.225066,9.591307,-0.147616,
9.761190,-0.042715,9.904514,0.079976,9.910188,0.089803,9.967121,0.122673,10.032860,0.122672,10.089793,0.089802,10.093272,0.083776,10.099384,0.080332,10.105443,0.070086,10.250933,-0.051692,10.423466,-0.155321,10.610007,-0.230879,10.806023,-0.276531,11.006753,-0.291167,11.207318,-0.274432,11.402847,-0.226733,11.588587,-0.149228,11.760027,-0.043800,11.904234,0.079495,11.910186,0.089803,
11.967119,0.122673,12.032859,0.122672,12.089791,0.089802,12.092684,0.084791,12.097780,0.081908,12.103819,0.071656,12.249281,-0.050512,12.421853,-0.154512,12.608502,-0.230400,12.804685,-0.276325,13.005624,-0.291171,13.206427,-0.274575,13.402202,-0.226942,13.588184,-0.149432,13.759842,-0.043932,13.904234,0.079497,13.910184,0.089803,13.967117,0.122673,14.032857,0.122672,14.089789,0.089802,
14.122659,0.032869,14.122658,-0.032871,14.089785,-0.089805,13.924578,-0.233070,13.740756,-0.351513,13.542020,-0.442748,13.332373,-0.504937,13.116034,-0.536829,12.897359,-0.537781,12.680751,-0.507775,12.470570,-0.447415,12.271047,-0.357915,12.086199,-0.241078,12.000027,-0.167657,11.924776,-0.232924,11.741187,-0.351279,11.542709,-0.442491,11.333330,-0.504727,11.117255,-0.536738,10.898825,-0.537881,
10.682427,-0.508131,10.472408,-0.448088,10.272987,-0.358958,10.088170,-0.242529,10.000065,-0.167713,9.926147,-0.231896,9.744189,-0.349629,9.547514,-0.440675,9.340013,-0.503232,9.125789,-0.536064,8.909077,-0.538522,8.694163,-0.510556,8.485297,-0.452720,8.286608,-0.366158,8.102027,-0.252581,7.999889,-0.167880,7.926344,-0.231749,7.744619,-0.349393,7.548202,-0.440414,7.340969,-0.503017,
7.127009,-0.535965,6.910543,-0.538609,6.695842,-0.510896,6.487143,-0.453374,6.288561,-0.367177,6.104016,-0.254006,5.999784,-0.167861,5.924587,-0.233071,5.740764,-0.351515,5.542028,-0.442751,5.332380,-0.504941,5.116041,-0.536834,4.897365,-0.537788,4.680756,-0.507783,4.470574,-0.447423,4.271050,-0.357924,4.086201,-0.241087,4.000020,-0.167658,3.924589,-0.233071,3.740766,-0.351515,
3.542030,-0.442751,3.332382,-0.504942,3.116043,-0.536835,2.897367,-0.537789,2.680757,-0.507784,2.470575,-0.447424,2.271051,-0.357925,2.086202,-0.241089,2.000020,-0.167660,1.924591,-0.233072,1.740768,-0.351516,1.542032,-0.442753,1.332384,-0.504944,1.116044,-0.536837,0.897368,-0.537791,0.680759,-0.507786,0.470576,-0.447427,0.271051,-0.357928,0.086202,-0.241091,-0.080251,-0.099269,
-0.088901,-0.084584,-0.109985,-0.063500,-0.127000,0.000000,-0.109985,0.063500,-0.063500,0.109985,0.000000,0.127000,0.063500,0.109985,0.063500,0.109985,$1*%
%AMFreePoly8*
4,1,226,9.026694,0.536870,9.083627,0.504000,9.086540,0.498955,9.091598,0.496093,9.097638,0.485839,9.243102,0.363672,9.415675,0.259672,9.602327,0.183785,9.798513,0.137861,9.999454,0.123016,10.200258,0.139614,10.396035,0.187248,10.582018,0.264761,10.753677,0.370263,10.898069,0.493695,10.904019,0.504001,10.960952,0.536870,11.026692,0.536870,11.083625,0.504001,11.086535,0.498960,
11.091599,0.496095,11.097640,0.485840,11.243102,0.363674,11.415675,0.259674,11.602327,0.183788,11.798512,0.137863,11.999453,0.123018,12.200256,0.139615,12.396033,0.187250,12.582016,0.264762,12.753675,0.370264,12.898069,0.493697,12.904018,0.504001,12.960950,0.536870,13.026690,0.536870,13.083623,0.504000,13.086530,0.498965,13.091599,0.496097,13.097640,0.485841,13.243101,0.363676,
13.415674,0.259675,13.602326,0.183789,13.798511,0.137864,13.999451,0.123019,14.200255,0.139616,14.396032,0.187250,14.582014,0.264762,14.753673,0.370264,14.898066,0.493695,14.904016,0.504001,14.960948,0.536870,15.026688,0.536870,15.083621,0.504000,15.116490,0.447068,15.116490,0.381328,15.083617,0.324393,14.918411,0.181127,14.734587,0.062682,14.535851,-0.028554,14.326203,-0.090745,
14.109863,-0.122638,13.891187,-0.123592,13.674577,-0.093587,13.464394,-0.033227,13.264869,0.056272,13.080020,0.173109,12.993839,0.246537,12.918412,0.181127,12.734589,0.062682,12.535853,-0.028555,12.326204,-0.090746,12.109864,-0.122639,11.891188,-0.123593,11.674578,-0.093588,11.464395,-0.033229,11.264870,0.056270,11.080021,0.173107,10.993840,0.246535,10.918415,0.181126,10.734592,0.062681,
10.535855,-0.028556,10.326206,-0.090747,10.109866,-0.122641,9.891190,-0.123595,9.674579,-0.093590,9.464396,-0.033231,9.264871,0.056268,9.080021,0.173105,8.993839,0.246533,8.918416,0.181127,8.734593,0.062683,8.535857,-0.028553,8.326209,-0.090743,8.109869,-0.122635,7.891194,-0.123589,7.674584,-0.093583,7.464402,-0.033223,7.264878,0.056276,7.080029,0.173113,6.993850,0.246540,
6.918419,0.181127,6.734596,0.062682,6.535859,-0.028554,6.326211,-0.090744,6.109871,-0.122637,5.891195,-0.123591,5.674586,-0.093586,5.464403,-0.033226,5.264879,0.056274,5.080029,0.173111,4.993850,0.246538,4.918421,0.181127,4.734597,0.062682,4.535861,-0.028554,4.326213,-0.090745,4.109873,-0.122638,3.891197,-0.123592,3.674587,-0.093587,3.464404,-0.033227,3.264879,0.056272,
3.080030,0.173109,2.993849,0.246537,2.918422,0.181127,2.734599,0.062682,2.535863,-0.028555,2.326214,-0.090746,2.109874,-0.122639,1.891198,-0.123593,1.674588,-0.093588,1.464405,-0.033229,1.264880,0.056270,1.080031,0.173107,0.994423,0.246047,0.933833,0.192834,0.768304,0.081712,0.589815,-0.007114,0.401354,-0.072156,0.206074,-0.112327,0.007242,-0.126955,0.003642,-0.126024,
0.000000,-0.127000,-0.063500,-0.109985,-0.109985,-0.063500,-0.127000,0.000000,-0.109985,0.063500,-0.063500,0.109985,0.000000,0.127000,0.002494,0.126332,0.005030,0.127035,0.016564,0.124052,0.204689,0.140342,0.399236,0.188305,0.584020,0.265788,0.754592,0.370926,0.898073,0.493683,0.904031,0.504002,0.960964,0.536871,1.026704,0.536870,1.083636,0.503999,1.086545,0.498960,
1.091609,0.496095,1.097650,0.485840,1.243112,0.363674,1.415685,0.259674,1.602337,0.183788,1.798522,0.137863,1.999463,0.123018,2.200266,0.139615,2.396043,0.187250,2.582026,0.264762,2.753685,0.370264,2.898079,0.493697,2.904028,0.504001,2.960960,0.536870,3.026700,0.536870,3.083633,0.504000,3.086540,0.498965,3.091609,0.496097,3.097650,0.485841,3.243111,0.363676,
3.415684,0.259675,3.602336,0.183789,3.798521,0.137864,3.999461,0.123019,4.200265,0.139616,4.396042,0.187250,4.582024,0.264762,4.753683,0.370264,4.898076,0.493695,4.904026,0.504001,4.960958,0.536870,5.026698,0.536870,5.083631,0.504000,5.086535,0.498969,5.091609,0.496099,5.097651,0.485842,5.243111,0.363678,5.415684,0.259677,5.602335,0.183790,5.798519,0.137865,
5.999460,0.123020,6.200263,0.139617,6.396040,0.187251,6.582022,0.264763,6.753682,0.370264,6.898074,0.493695,6.904024,0.504001,6.960957,0.536871,7.026696,0.536870,7.083629,0.504000,7.086531,0.498973,7.091609,0.496100,7.097649,0.485846,7.243111,0.363680,7.415683,0.259679,7.602334,0.183792,7.798518,0.137867,7.999459,0.123022,8.200262,0.139619,8.396038,0.187253,
8.582020,0.264764,8.753680,0.370265,8.898072,0.493695,8.904022,0.504001,8.960955,0.536871,9.026694,0.536870,9.026694,0.536870,$1*%
%AMFreePoly9*
4,1,76,3.244632,0.331818,3.506852,0.292599,3.763564,0.226297,4.011980,0.133633,4.047291,0.105601,4.089074,0.099399,4.099042,0.091486,4.344144,0.002132,4.610121,-0.060258,4.881629,-0.090581,5.154817,-0.088406,5.425808,-0.053765,5.690758,0.012850,5.934405,0.106094,5.944247,0.114165,6.009113,0.124852,6.070632,0.101675,6.112320,0.050844,6.123007,-0.014022,6.099830,-0.075541,
6.048997,-0.117229,5.802089,-0.213835,5.546464,-0.284215,5.284902,-0.327603,5.020245,-0.343528,4.755368,-0.331818,4.493148,-0.292599,4.236436,-0.226297,3.988020,-0.133633,3.952709,-0.105601,3.910926,-0.099399,3.900958,-0.091486,3.655856,-0.002132,3.389879,0.060258,3.118371,0.090581,2.845183,0.088406,2.574192,0.053765,2.309242,-0.012850,2.065595,-0.106094,2.055753,-0.114165,
2.051976,-0.114787,2.048997,-0.117229,1.802089,-0.213835,1.546464,-0.284215,1.284902,-0.327603,1.020245,-0.343528,0.755368,-0.331818,0.493148,-0.292599,0.236436,-0.226297,-0.011980,-0.133633,-0.030697,-0.118775,-0.063500,-0.109985,-0.109985,-0.063500,-0.127000,0.000000,-0.109985,0.063500,-0.063500,0.109985,0.000000,0.127000,0.063500,0.109985,0.071473,0.102012,0.089074,0.099399,
0.099042,0.091486,0.344144,0.002132,0.610121,-0.060258,0.881629,-0.090581,1.154817,-0.088406,1.425808,-0.053765,1.690758,0.012850,1.934405,0.106094,1.944247,0.114165,1.948024,0.114787,1.951003,0.117229,2.197911,0.213835,2.453536,0.284215,2.715098,0.327603,2.979755,0.343528,3.244632,0.331818,3.244632,0.331818,$1*%
%AMFreePoly10*
4,1,74,0.090320,1.758079,0.239662,1.720567,0.375744,1.648515,0.490712,1.546082,0.531399,1.486883,0.554756,1.483183,0.658279,1.430436,0.740436,1.348279,0.793183,1.244756,0.811359,1.130000,0.793183,1.015244,0.742519,0.915810,0.751359,0.860000,0.733183,0.745244,0.680436,0.641721,0.598279,0.559564,0.494756,0.506817,0.380000,0.488641,0.323760,0.497549,0.127000,0.283428,
0.127000,-0.587846,0.211346,-0.711884,0.214346,-0.726349,0.220000,-0.740000,0.218118,-0.744543,0.219116,-0.749355,0.211010,-0.761703,0.205355,-0.775355,0.200813,-0.777237,0.198115,-0.781346,0.183652,-0.784345,0.170000,-0.790000,-0.120000,-0.790000,-0.130398,-0.785693,-0.141637,-0.785076,-0.147391,-0.778654,-0.155355,-0.775355,-0.159662,-0.764957,-0.167173,-0.756574,-0.166701,-0.747965,
-0.170000,-0.740000,-0.165693,-0.729602,-0.165076,-0.718363,-0.127000,-0.639038,-0.127000,0.293608,-0.266054,0.429002,-0.320017,0.401507,-0.430000,0.384087,-0.539983,0.401507,-0.639200,0.452060,-0.717940,0.530800,-0.768493,0.630017,-0.780316,0.704660,-0.475881,0.704660,-0.472794,0.697206,-0.464310,0.693692,-0.475123,0.703531,-0.475881,0.704660,-0.780316,0.704660,-0.785913,0.740000,
-0.768493,0.849983,-0.723736,0.937824,-0.763183,1.015244,-0.781359,1.130000,-0.763183,1.244756,-0.710436,1.348279,-0.628279,1.430436,-0.524756,1.483183,-0.512625,1.485104,-0.466247,1.551093,-0.350213,1.652316,-0.213384,1.722939,-0.063658,1.758885,0.090320,1.758079,0.090320,1.758079,$1*%
%AMFreePoly11*
4,1,66,0.090320,1.758079,0.239662,1.720567,0.375744,1.648515,0.490712,1.546082,0.531399,1.486883,0.554756,1.483183,0.658279,1.430436,0.740436,1.348279,0.793183,1.244756,0.811359,1.130000,0.793183,1.015244,0.742519,0.915810,0.751359,0.860000,0.733183,0.745244,0.680436,0.641721,0.598279,0.559564,0.494756,0.506817,0.380000,0.488641,0.323760,0.497549,0.127000,0.283428,
0.127000,-0.587846,0.211346,-0.711884,0.214346,-0.726349,0.220000,-0.740000,0.218118,-0.744543,0.219116,-0.749355,0.211010,-0.761703,0.205355,-0.775355,0.200813,-0.777237,0.198115,-0.781346,0.183652,-0.784345,0.170000,-0.790000,-0.120000,-0.790000,-0.130398,-0.785693,-0.141637,-0.785076,-0.147391,-0.778654,-0.155355,-0.775355,-0.159662,-0.764957,-0.167173,-0.756574,-0.166701,-0.747965,
-0.170000,-0.740000,-0.165693,-0.729602,-0.165076,-0.718363,-0.127000,-0.639038,-0.127000,0.293608,-0.245184,0.408682,-0.300000,0.400000,-0.409983,0.417420,-0.509200,0.467973,-0.587940,0.546713,-0.638493,0.645930,-0.655913,0.755913,-0.642064,0.843349,-0.710436,0.911721,-0.763183,1.015244,-0.781359,1.130000,-0.763183,1.244756,-0.710436,1.348279,-0.628279,1.430436,-0.524756,1.483183,
-0.512625,1.485104,-0.466247,1.551093,-0.350213,1.652316,-0.213384,1.722939,-0.063658,1.758885,0.090320,1.758079,0.090320,1.758079,$1*%
G04 Aperture macros list end*
%ADD10C,0.150000*%
%ADD11C,0.225000*%
%ADD12C,0.153000*%
%ADD13C,0.120000*%
%ADD14C,0.100000*%
%ADD15C,0.200000*%
%ADD16C,1.700000*%
%ADD17R,1.700000X1.700000*%
%ADD18O,1.700000X1.700000*%
%ADD19C,1.524000*%
%ADD20RotRect,1.650000X0.820000X345.000000*%
%ADD21RoundRect,0.205000X-0.651932X-0.037547X0.545816X-0.358483X0.651932X0.037547X-0.545816X0.358483X0*%
%ADD22RotRect,1.650000X0.820000X330.000000*%
%ADD23RoundRect,0.205000X-0.639436X0.132465X0.434436X-0.487535X0.639436X-0.132465X-0.434436X0.487535X0*%
%ADD24C,1.200000*%
%ADD25O,2.500000X1.700000*%
%ADD26C,4.400000*%
%ADD27RotRect,0.900000X0.800000X100.000000*%
%ADD28C,3.400000*%
%ADD29C,2.350000*%
%ADD30RotRect,0.900000X0.800000X95.000000*%
%ADD31R,0.800000X0.900000*%
%ADD32R,3.200000X2.000000*%
%ADD33R,2.000000X2.000000*%
%ADD34C,2.000000*%
%ADD35C,1.800000*%
%ADD36RotRect,0.900000X0.800000X75.000000*%
%ADD37RotRect,0.900000X0.800000X45.000000*%
%ADD38RotRect,3.200000X2.000000X150.000000*%
%ADD39RotRect,2.000000X2.000000X150.000000*%
%ADD40R,1.650000X0.820000*%
%ADD41RoundRect,0.205000X-0.620000X-0.205000X0.620000X-0.205000X0.620000X0.205000X-0.620000X0.205000X0*%
%ADD42C,1.397000*%
%ADD43RoundRect,0.250000X-0.250000X-0.475000X0.250000X-0.475000X0.250000X0.475000X-0.250000X0.475000X0*%
%ADD44FreePoly0,90.000000*%
%ADD45R,1.100000X1.800000*%
%ADD46FreePoly1,295.000000*%
%ADD47C,1.600000*%
%ADD48FreePoly2,0.000000*%
%ADD49FreePoly3,0.000000*%
%ADD50FreePoly4,0.000000*%
%ADD51FreePoly5,0.000000*%
%ADD52FreePoly6,0.000000*%
%ADD53FreePoly7,0.000000*%
%ADD54FreePoly8,0.000000*%
%ADD55FreePoly9,0.000000*%
%ADD56FreePoly10,0.000000*%
%ADD57FreePoly11,0.000000*%
%ADD58R,1.397000X1.397000*%
%ADD59C,1.000000*%
%ADD60C,1.300000*%
%ADD61R,1.560000X0.650000*%
%ADD62C,0.600000*%
%ADD63C,0.800000*%
G04 APERTURE END LIST*
D10*
%TO.C,DS1*%
X201337114Y-88257533D02*
X201337114Y-87257533D01*
X201099019Y-87257533D01*
X200956162Y-87305153D01*
X200860924Y-87400391D01*
X200813305Y-87495629D01*
X200765686Y-87686105D01*
X200765686Y-87828962D01*
X200813305Y-88019438D01*
X200860924Y-88114676D01*
X200956162Y-88209914D01*
X201099019Y-88257533D01*
X201337114Y-88257533D01*
X200384733Y-88209914D02*
X200241876Y-88257533D01*
X200003781Y-88257533D01*
X199908543Y-88209914D01*
X199860924Y-88162295D01*
X199813305Y-88067057D01*
X199813305Y-87971819D01*
X199860924Y-87876581D01*
X199908543Y-87828962D01*
X200003781Y-87781343D01*
X200194257Y-87733724D01*
X200289495Y-87686105D01*
X200337114Y-87638486D01*
X200384733Y-87543248D01*
X200384733Y-87448010D01*
X200337114Y-87352772D01*
X200289495Y-87305153D01*
X200194257Y-87257533D01*
X199956162Y-87257533D01*
X199813305Y-87305153D01*
X198860924Y-88257533D02*
X199432352Y-88257533D01*
X199146638Y-88257533D02*
X199146638Y-87257533D01*
X199241876Y-87400391D01*
X199337114Y-87495629D01*
X199432352Y-87543248D01*
%TO.C,U1*%
X188013294Y-57293452D02*
X188013294Y-56293452D01*
X187870436Y-56293452D01*
X187784722Y-56341072D01*
X187727579Y-56436310D01*
X187699008Y-56531548D01*
X187670436Y-56722024D01*
X187670436Y-56864881D01*
X187699008Y-57055357D01*
X187727579Y-57150595D01*
X187784722Y-57245833D01*
X187870436Y-57293452D01*
X188013294Y-57293452D01*
X187441865Y-57007738D02*
X187156151Y-57007738D01*
X187499008Y-57293452D02*
X187299008Y-56293452D01*
X187099008Y-57293452D01*
X186984722Y-56293452D02*
X186641865Y-56293452D01*
X186813294Y-57293452D02*
X186813294Y-56293452D01*
X186470436Y-57007738D02*
X186184722Y-57007738D01*
X186527579Y-57293452D02*
X186327579Y-56293452D01*
X186127579Y-57293452D01*
X202946150Y-77518214D02*
X202974722Y-77565833D01*
X203060436Y-77613452D01*
X203117579Y-77613452D01*
X203203293Y-77565833D01*
X203260436Y-77470595D01*
X203289008Y-77375357D01*
X203317579Y-77184881D01*
X203317579Y-77042024D01*
X203289008Y-76851548D01*
X203260436Y-76756310D01*
X203203293Y-76661072D01*
X203117579Y-76613452D01*
X203060436Y-76613452D01*
X202974722Y-76661072D01*
X202946150Y-76708691D01*
X202574722Y-76613452D02*
X202460436Y-76613452D01*
X202403293Y-76661072D01*
X202346150Y-76756310D01*
X202317579Y-76946786D01*
X202317579Y-77280119D01*
X202346150Y-77470595D01*
X202403293Y-77565833D01*
X202460436Y-77613452D01*
X202574722Y-77613452D01*
X202631865Y-77565833D01*
X202689008Y-77470595D01*
X202717579Y-77280119D01*
X202717579Y-76946786D01*
X202689008Y-76756310D01*
X202631865Y-76661072D01*
X202574722Y-76613452D01*
X201774722Y-77613452D02*
X202060436Y-77613452D01*
X202060436Y-76613452D01*
X201631865Y-76613452D02*
X201260436Y-76613452D01*
X201460436Y-76994405D01*
X201374722Y-76994405D01*
X201317579Y-77042024D01*
X201289008Y-77089643D01*
X201260436Y-77184881D01*
X201260436Y-77422976D01*
X201289008Y-77518214D01*
X201317579Y-77565833D01*
X201374722Y-77613452D01*
X201546150Y-77613452D01*
X201603293Y-77565833D01*
X201631865Y-77518214D01*
X202946150Y-80058214D02*
X202974722Y-80105833D01*
X203060436Y-80153452D01*
X203117579Y-80153452D01*
X203203293Y-80105833D01*
X203260436Y-80010595D01*
X203289008Y-79915357D01*
X203317579Y-79724881D01*
X203317579Y-79582024D01*
X203289008Y-79391548D01*
X203260436Y-79296310D01*
X203203293Y-79201072D01*
X203117579Y-79153452D01*
X203060436Y-79153452D01*
X202974722Y-79201072D01*
X202946150Y-79248691D01*
X202574722Y-79153452D02*
X202460436Y-79153452D01*
X202403293Y-79201072D01*
X202346150Y-79296310D01*
X202317579Y-79486786D01*
X202317579Y-79820119D01*
X202346150Y-80010595D01*
X202403293Y-80105833D01*
X202460436Y-80153452D01*
X202574722Y-80153452D01*
X202631865Y-80105833D01*
X202689008Y-80010595D01*
X202717579Y-79820119D01*
X202717579Y-79486786D01*
X202689008Y-79296310D01*
X202631865Y-79201072D01*
X202574722Y-79153452D01*
X201774722Y-80153452D02*
X202060436Y-80153452D01*
X202060436Y-79153452D01*
X201317579Y-79486786D02*
X201317579Y-80153452D01*
X201460436Y-79105833D02*
X201603293Y-79820119D01*
X201231865Y-79820119D01*
X187699007Y-58881072D02*
X187756150Y-58833452D01*
X187841865Y-58833452D01*
X187927579Y-58881072D01*
X187984722Y-58976310D01*
X188013293Y-59071548D01*
X188041865Y-59262024D01*
X188041865Y-59404881D01*
X188013293Y-59595357D01*
X187984722Y-59690595D01*
X187927579Y-59785833D01*
X187841865Y-59833452D01*
X187784722Y-59833452D01*
X187699007Y-59785833D01*
X187670436Y-59738214D01*
X187670436Y-59404881D01*
X187784722Y-59404881D01*
X187413293Y-59833452D02*
X187413293Y-58833452D01*
X187070436Y-59833452D01*
X187070436Y-58833452D01*
X186784722Y-59833452D02*
X186784722Y-58833452D01*
X186641865Y-58833452D01*
X186556150Y-58881072D01*
X186499007Y-58976310D01*
X186470436Y-59071548D01*
X186441865Y-59262024D01*
X186441865Y-59404881D01*
X186470436Y-59595357D01*
X186499007Y-59690595D01*
X186556150Y-59785833D01*
X186641865Y-59833452D01*
X186784722Y-59833452D01*
X200762293Y-61666786D02*
X201448007Y-61952500D01*
X200762293Y-62238214D01*
X200333722Y-61952500D02*
X199648007Y-61952500D01*
X199219436Y-61952500D02*
X198533722Y-61952500D01*
X202974721Y-56341072D02*
X203031864Y-56293452D01*
X203117579Y-56293452D01*
X203203293Y-56341072D01*
X203260436Y-56436310D01*
X203289007Y-56531548D01*
X203317579Y-56722024D01*
X203317579Y-56864881D01*
X203289007Y-57055357D01*
X203260436Y-57150595D01*
X203203293Y-57245833D01*
X203117579Y-57293452D01*
X203060436Y-57293452D01*
X202974721Y-57245833D01*
X202946150Y-57198214D01*
X202946150Y-56864881D01*
X203060436Y-56864881D01*
X202689007Y-57293452D02*
X202689007Y-56293452D01*
X202346150Y-57293452D01*
X202346150Y-56293452D01*
X202060436Y-57293452D02*
X202060436Y-56293452D01*
X201917579Y-56293452D01*
X201831864Y-56341072D01*
X201774721Y-56436310D01*
X201746150Y-56531548D01*
X201717579Y-56722024D01*
X201717579Y-56864881D01*
X201746150Y-57055357D01*
X201774721Y-57150595D01*
X201831864Y-57245833D01*
X201917579Y-57293452D01*
X202060436Y-57293452D01*
D11*
X197819436Y-57860500D02*
X196319436Y-57860500D01*
X197390865Y-58160500D01*
X196319436Y-58460500D01*
X197819436Y-58460500D01*
X197819436Y-59274786D02*
X197033722Y-59274786D01*
X196890865Y-59231929D01*
X196819436Y-59146214D01*
X196819436Y-58974786D01*
X196890865Y-58889072D01*
X197748007Y-59274786D02*
X197819436Y-59189072D01*
X197819436Y-58974786D01*
X197748007Y-58889072D01*
X197605150Y-58846214D01*
X197462293Y-58846214D01*
X197319436Y-58889072D01*
X197248007Y-58974786D01*
X197248007Y-59189072D01*
X197176579Y-59274786D01*
X196819436Y-59574786D02*
X196819436Y-59917643D01*
X196319436Y-59703357D02*
X197605150Y-59703357D01*
X197748007Y-59746214D01*
X197819436Y-59831929D01*
X197819436Y-59917643D01*
X197748007Y-60603357D02*
X197819436Y-60517643D01*
X197819436Y-60346214D01*
X197748007Y-60260500D01*
X197676579Y-60217643D01*
X197533722Y-60174786D01*
X197105150Y-60174786D01*
X196962293Y-60217643D01*
X196890865Y-60260500D01*
X196819436Y-60346214D01*
X196819436Y-60517643D01*
X196890865Y-60603357D01*
X197819436Y-60989072D02*
X196319436Y-60989072D01*
X197819436Y-61374786D02*
X197033722Y-61374786D01*
X196890865Y-61331929D01*
X196819436Y-61246214D01*
X196819436Y-61117643D01*
X196890865Y-61031929D01*
X196962293Y-60989072D01*
X196819436Y-62403357D02*
X197819436Y-62574786D01*
X197105150Y-62746214D01*
X197819436Y-62917643D01*
X196819436Y-63089072D01*
X197819436Y-63431929D02*
X196819436Y-63431929D01*
X196319436Y-63431929D02*
X196390865Y-63389072D01*
X196462293Y-63431929D01*
X196390865Y-63474786D01*
X196319436Y-63431929D01*
X196462293Y-63431929D01*
X196819436Y-63731929D02*
X196819436Y-64074786D01*
X196319436Y-63860500D02*
X197605150Y-63860500D01*
X197748007Y-63903357D01*
X197819436Y-63989072D01*
X197819436Y-64074786D01*
X197819436Y-64374786D02*
X196319436Y-64374786D01*
X197819436Y-64760500D02*
X197033722Y-64760500D01*
X196890865Y-64717643D01*
X196819436Y-64631929D01*
X196819436Y-64503357D01*
X196890865Y-64417643D01*
X196962293Y-64374786D01*
X197819436Y-65874786D02*
X196319436Y-65874786D01*
X197390865Y-66174786D01*
X196319436Y-66474786D01*
X197819436Y-66474786D01*
X197676579Y-67417643D02*
X197748007Y-67374786D01*
X197819436Y-67246214D01*
X197819436Y-67160500D01*
X197748007Y-67031929D01*
X197605150Y-66946214D01*
X197462293Y-66903357D01*
X197176579Y-66860500D01*
X196962293Y-66860500D01*
X196676579Y-66903357D01*
X196533722Y-66946214D01*
X196390865Y-67031929D01*
X196319436Y-67160500D01*
X196319436Y-67246214D01*
X196390865Y-67374786D01*
X196462293Y-67417643D01*
X196319436Y-67803357D02*
X197533722Y-67803357D01*
X197676579Y-67846214D01*
X197748007Y-67889072D01*
X197819436Y-67974786D01*
X197819436Y-68146214D01*
X197748007Y-68231929D01*
X197676579Y-68274786D01*
X197533722Y-68317643D01*
X196319436Y-68317643D01*
X196819436Y-69431929D02*
X198319436Y-69431929D01*
X196890865Y-69431929D02*
X196819436Y-69517643D01*
X196819436Y-69689072D01*
X196890865Y-69774786D01*
X196962293Y-69817643D01*
X197105150Y-69860500D01*
X197533722Y-69860500D01*
X197676579Y-69817643D01*
X197748007Y-69774786D01*
X197819436Y-69689072D01*
X197819436Y-69517643D01*
X197748007Y-69431929D01*
X197819436Y-70246214D02*
X196819436Y-70246214D01*
X196319436Y-70246214D02*
X196390865Y-70203357D01*
X196462293Y-70246214D01*
X196390865Y-70289072D01*
X196319436Y-70246214D01*
X196462293Y-70246214D01*
X196819436Y-70674786D02*
X197819436Y-70674786D01*
X196962293Y-70674786D02*
X196890865Y-70717643D01*
X196819436Y-70803357D01*
X196819436Y-70931929D01*
X196890865Y-71017643D01*
X197033722Y-71060500D01*
X197819436Y-71060500D01*
X197819436Y-72303357D02*
X197748007Y-72217643D01*
X197605150Y-72174786D01*
X196319436Y-72174786D01*
X197819436Y-73031929D02*
X197033722Y-73031929D01*
X196890865Y-72989072D01*
X196819436Y-72903357D01*
X196819436Y-72731929D01*
X196890865Y-72646214D01*
X197748007Y-73031929D02*
X197819436Y-72946214D01*
X197819436Y-72731929D01*
X197748007Y-72646214D01*
X197605150Y-72603357D01*
X197462293Y-72603357D01*
X197319436Y-72646214D01*
X197248007Y-72731929D01*
X197248007Y-72946214D01*
X197176579Y-73031929D01*
X197819436Y-73460500D02*
X196319436Y-73460500D01*
X196890865Y-73460500D02*
X196819436Y-73546214D01*
X196819436Y-73717643D01*
X196890865Y-73803357D01*
X196962293Y-73846214D01*
X197105150Y-73889072D01*
X197533722Y-73889072D01*
X197676579Y-73846214D01*
X197748007Y-73803357D01*
X197819436Y-73717643D01*
X197819436Y-73546214D01*
X197748007Y-73460500D01*
X197748007Y-74617643D02*
X197819436Y-74531929D01*
X197819436Y-74360500D01*
X197748007Y-74274786D01*
X197605150Y-74231929D01*
X197033722Y-74231929D01*
X196890865Y-74274786D01*
X196819436Y-74360500D01*
X196819436Y-74531929D01*
X196890865Y-74617643D01*
X197033722Y-74660500D01*
X197176579Y-74660500D01*
X197319436Y-74231929D01*
X197819436Y-75174786D02*
X197748007Y-75089072D01*
X197605150Y-75046214D01*
X196319436Y-75046214D01*
X197748007Y-75474786D02*
X197819436Y-75560500D01*
X197819436Y-75731929D01*
X197748007Y-75817643D01*
X197605150Y-75860500D01*
X197533722Y-75860500D01*
X197390865Y-75817643D01*
X197319436Y-75731929D01*
X197319436Y-75603357D01*
X197248007Y-75517643D01*
X197105150Y-75474786D01*
X197033722Y-75474786D01*
X196890865Y-75517643D01*
X196819436Y-75603357D01*
X196819436Y-75731929D01*
X196890865Y-75817643D01*
D10*
X203289007Y-64389643D02*
X203089007Y-64389643D01*
X203003293Y-64913452D02*
X203289007Y-64913452D01*
X203289007Y-63913452D01*
X203003293Y-63913452D01*
X202746150Y-64913452D02*
X202746150Y-63913452D01*
X202403293Y-64913452D01*
X202403293Y-63913452D01*
X201774721Y-64818214D02*
X201803293Y-64865833D01*
X201889007Y-64913452D01*
X201946150Y-64913452D01*
X202031864Y-64865833D01*
X202089007Y-64770595D01*
X202117579Y-64675357D01*
X202146150Y-64484881D01*
X202146150Y-64342024D01*
X202117579Y-64151548D01*
X202089007Y-64056310D01*
X202031864Y-63961072D01*
X201946150Y-63913452D01*
X201889007Y-63913452D01*
X201803293Y-63961072D01*
X201774721Y-64008691D01*
X201660436Y-65008691D02*
X201203293Y-65008691D01*
X200860436Y-64389643D02*
X200774721Y-64437262D01*
X200746150Y-64484881D01*
X200717579Y-64580119D01*
X200717579Y-64722976D01*
X200746150Y-64818214D01*
X200774721Y-64865833D01*
X200831864Y-64913452D01*
X201060436Y-64913452D01*
X201060436Y-63913452D01*
X200860436Y-63913452D01*
X200803293Y-63961072D01*
X200774721Y-64008691D01*
X200746150Y-64103929D01*
X200746150Y-64199167D01*
X200774721Y-64294405D01*
X200803293Y-64342024D01*
X200860436Y-64389643D01*
X201060436Y-64389643D01*
X188256151Y-64913452D02*
X188256151Y-63913452D01*
X188056151Y-64627738D01*
X187856151Y-63913452D01*
X187856151Y-64913452D01*
X187456151Y-63913452D02*
X187341865Y-63913452D01*
X187284722Y-63961072D01*
X187227579Y-64056310D01*
X187199008Y-64246786D01*
X187199008Y-64580119D01*
X187227579Y-64770595D01*
X187284722Y-64865833D01*
X187341865Y-64913452D01*
X187456151Y-64913452D01*
X187513294Y-64865833D01*
X187570436Y-64770595D01*
X187599008Y-64580119D01*
X187599008Y-64246786D01*
X187570436Y-64056310D01*
X187513294Y-63961072D01*
X187456151Y-63913452D01*
X186970436Y-64865833D02*
X186884722Y-64913452D01*
X186741865Y-64913452D01*
X186684722Y-64865833D01*
X186656151Y-64818214D01*
X186627579Y-64722976D01*
X186627579Y-64627738D01*
X186656151Y-64532500D01*
X186684722Y-64484881D01*
X186741865Y-64437262D01*
X186856151Y-64389643D01*
X186913294Y-64342024D01*
X186941865Y-64294405D01*
X186970436Y-64199167D01*
X186970436Y-64103929D01*
X186941865Y-64008691D01*
X186913294Y-63961072D01*
X186856151Y-63913452D01*
X186713294Y-63913452D01*
X186627579Y-63961072D01*
X186370436Y-64913452D02*
X186370436Y-63913452D01*
X187670436Y-72533452D02*
X187870436Y-72057262D01*
X188013294Y-72533452D02*
X188013294Y-71533452D01*
X187784722Y-71533452D01*
X187727579Y-71581072D01*
X187699008Y-71628691D01*
X187670436Y-71723929D01*
X187670436Y-71866786D01*
X187699008Y-71962024D01*
X187727579Y-72009643D01*
X187784722Y-72057262D01*
X188013294Y-72057262D01*
X187299008Y-71533452D02*
X187184722Y-71533452D01*
X187127579Y-71581072D01*
X187070436Y-71676310D01*
X187041865Y-71866786D01*
X187041865Y-72200119D01*
X187070436Y-72390595D01*
X187127579Y-72485833D01*
X187184722Y-72533452D01*
X187299008Y-72533452D01*
X187356151Y-72485833D01*
X187413294Y-72390595D01*
X187441865Y-72200119D01*
X187441865Y-71866786D01*
X187413294Y-71676310D01*
X187356151Y-71581072D01*
X187299008Y-71533452D01*
X186841865Y-71533452D02*
X186699008Y-72533452D01*
X186584722Y-71819167D01*
X186470436Y-72533452D01*
X186327579Y-71533452D01*
X185984722Y-71533452D02*
X185927579Y-71533452D01*
X185870436Y-71581072D01*
X185841865Y-71628691D01*
X185813294Y-71723929D01*
X185784722Y-71914405D01*
X185784722Y-72152500D01*
X185813294Y-72342976D01*
X185841865Y-72438214D01*
X185870436Y-72485833D01*
X185927579Y-72533452D01*
X185984722Y-72533452D01*
X186041865Y-72485833D01*
X186070436Y-72438214D01*
X186099008Y-72342976D01*
X186127579Y-72152500D01*
X186127579Y-71914405D01*
X186099008Y-71723929D01*
X186070436Y-71628691D01*
X186041865Y-71581072D01*
X185984722Y-71533452D01*
X187699007Y-61421072D02*
X187756150Y-61373452D01*
X187841865Y-61373452D01*
X187927579Y-61421072D01*
X187984722Y-61516310D01*
X188013293Y-61611548D01*
X188041865Y-61802024D01*
X188041865Y-61944881D01*
X188013293Y-62135357D01*
X187984722Y-62230595D01*
X187927579Y-62325833D01*
X187841865Y-62373452D01*
X187784722Y-62373452D01*
X187699007Y-62325833D01*
X187670436Y-62278214D01*
X187670436Y-61944881D01*
X187784722Y-61944881D01*
X187413293Y-62373452D02*
X187413293Y-61373452D01*
X187070436Y-62373452D01*
X187070436Y-61373452D01*
X186784722Y-62373452D02*
X186784722Y-61373452D01*
X186641865Y-61373452D01*
X186556150Y-61421072D01*
X186499007Y-61516310D01*
X186470436Y-61611548D01*
X186441865Y-61802024D01*
X186441865Y-61944881D01*
X186470436Y-62135357D01*
X186499007Y-62230595D01*
X186556150Y-62325833D01*
X186641865Y-62373452D01*
X186784722Y-62373452D01*
X195713222Y-59412500D02*
X195027507Y-59412500D01*
X194598936Y-59412500D02*
X193913222Y-59412500D01*
X193484650Y-59412500D02*
X192798936Y-59412500D01*
X192370365Y-59126786D02*
X191684650Y-59412500D01*
X192370365Y-59698214D01*
X202946150Y-54753452D02*
X203146150Y-54277262D01*
X203289007Y-54753452D02*
X203289007Y-53753452D01*
X203060436Y-53753452D01*
X203003293Y-53801072D01*
X202974722Y-53848691D01*
X202946150Y-53943929D01*
X202946150Y-54086786D01*
X202974722Y-54182024D01*
X203003293Y-54229643D01*
X203060436Y-54277262D01*
X203289007Y-54277262D01*
X202717579Y-54467738D02*
X202431865Y-54467738D01*
X202774722Y-54753452D02*
X202574722Y-53753452D01*
X202374722Y-54753452D01*
X202231865Y-53753452D02*
X202089007Y-54753452D01*
X201974722Y-54039167D01*
X201860436Y-54753452D01*
X201717579Y-53753452D01*
X202946151Y-59833452D02*
X203146151Y-59357262D01*
X203289008Y-59833452D02*
X203289008Y-58833452D01*
X203060437Y-58833452D01*
X203003294Y-58881072D01*
X202974722Y-58928691D01*
X202946151Y-59023929D01*
X202946151Y-59166786D01*
X202974722Y-59262024D01*
X203003294Y-59309643D01*
X203060437Y-59357262D01*
X203289008Y-59357262D01*
X202717580Y-59785833D02*
X202631865Y-59833452D01*
X202489008Y-59833452D01*
X202431865Y-59785833D01*
X202403294Y-59738214D01*
X202374722Y-59642976D01*
X202374722Y-59547738D01*
X202403294Y-59452500D01*
X202431865Y-59404881D01*
X202489008Y-59357262D01*
X202603294Y-59309643D01*
X202660437Y-59262024D01*
X202689008Y-59214405D01*
X202717580Y-59119167D01*
X202717580Y-59023929D01*
X202689008Y-58928691D01*
X202660437Y-58881072D01*
X202603294Y-58833452D01*
X202460437Y-58833452D01*
X202374722Y-58881072D01*
X202203294Y-58833452D02*
X201860437Y-58833452D01*
X202031865Y-59833452D02*
X202031865Y-58833452D01*
X187670436Y-75073452D02*
X187870436Y-74597262D01*
X188013294Y-75073452D02*
X188013294Y-74073452D01*
X187784722Y-74073452D01*
X187727579Y-74121072D01*
X187699008Y-74168691D01*
X187670436Y-74263929D01*
X187670436Y-74406786D01*
X187699008Y-74502024D01*
X187727579Y-74549643D01*
X187784722Y-74597262D01*
X188013294Y-74597262D01*
X187299008Y-74073452D02*
X187184722Y-74073452D01*
X187127579Y-74121072D01*
X187070436Y-74216310D01*
X187041865Y-74406786D01*
X187041865Y-74740119D01*
X187070436Y-74930595D01*
X187127579Y-75025833D01*
X187184722Y-75073452D01*
X187299008Y-75073452D01*
X187356151Y-75025833D01*
X187413294Y-74930595D01*
X187441865Y-74740119D01*
X187441865Y-74406786D01*
X187413294Y-74216310D01*
X187356151Y-74121072D01*
X187299008Y-74073452D01*
X186841865Y-74073452D02*
X186699008Y-75073452D01*
X186584722Y-74359167D01*
X186470436Y-75073452D01*
X186327579Y-74073452D01*
X185784722Y-75073452D02*
X186127579Y-75073452D01*
X185956151Y-75073452D02*
X185956151Y-74073452D01*
X186013294Y-74216310D01*
X186070436Y-74311548D01*
X186127579Y-74359167D01*
X200535365Y-56586786D02*
X201221079Y-56872500D01*
X200535365Y-57158214D01*
X200106793Y-56872500D02*
X199421079Y-56872500D01*
X198992507Y-56872500D02*
X198306793Y-56872500D01*
X187670436Y-77613452D02*
X187870436Y-77137262D01*
X188013294Y-77613452D02*
X188013294Y-76613452D01*
X187784722Y-76613452D01*
X187727579Y-76661072D01*
X187699008Y-76708691D01*
X187670436Y-76803929D01*
X187670436Y-76946786D01*
X187699008Y-77042024D01*
X187727579Y-77089643D01*
X187784722Y-77137262D01*
X188013294Y-77137262D01*
X187299008Y-76613452D02*
X187184722Y-76613452D01*
X187127579Y-76661072D01*
X187070436Y-76756310D01*
X187041865Y-76946786D01*
X187041865Y-77280119D01*
X187070436Y-77470595D01*
X187127579Y-77565833D01*
X187184722Y-77613452D01*
X187299008Y-77613452D01*
X187356151Y-77565833D01*
X187413294Y-77470595D01*
X187441865Y-77280119D01*
X187441865Y-76946786D01*
X187413294Y-76756310D01*
X187356151Y-76661072D01*
X187299008Y-76613452D01*
X186841865Y-76613452D02*
X186699008Y-77613452D01*
X186584722Y-76899167D01*
X186470436Y-77613452D01*
X186327579Y-76613452D01*
X186127579Y-76708691D02*
X186099008Y-76661072D01*
X186041865Y-76613452D01*
X185899008Y-76613452D01*
X185841865Y-76661072D01*
X185813294Y-76708691D01*
X185784722Y-76803929D01*
X185784722Y-76899167D01*
X185813294Y-77042024D01*
X186156151Y-77613452D01*
X185784722Y-77613452D01*
X187670436Y-80153452D02*
X187870436Y-79677262D01*
X188013294Y-80153452D02*
X188013294Y-79153452D01*
X187784722Y-79153452D01*
X187727579Y-79201072D01*
X187699008Y-79248691D01*
X187670436Y-79343929D01*
X187670436Y-79486786D01*
X187699008Y-79582024D01*
X187727579Y-79629643D01*
X187784722Y-79677262D01*
X188013294Y-79677262D01*
X187299008Y-79153452D02*
X187184722Y-79153452D01*
X187127579Y-79201072D01*
X187070436Y-79296310D01*
X187041865Y-79486786D01*
X187041865Y-79820119D01*
X187070436Y-80010595D01*
X187127579Y-80105833D01*
X187184722Y-80153452D01*
X187299008Y-80153452D01*
X187356151Y-80105833D01*
X187413294Y-80010595D01*
X187441865Y-79820119D01*
X187441865Y-79486786D01*
X187413294Y-79296310D01*
X187356151Y-79201072D01*
X187299008Y-79153452D01*
X186841865Y-79153452D02*
X186699008Y-80153452D01*
X186584722Y-79439167D01*
X186470436Y-80153452D01*
X186327579Y-79153452D01*
X186156151Y-79153452D02*
X185784722Y-79153452D01*
X185984722Y-79534405D01*
X185899008Y-79534405D01*
X185841865Y-79582024D01*
X185813294Y-79629643D01*
X185784722Y-79724881D01*
X185784722Y-79962976D01*
X185813294Y-80058214D01*
X185841865Y-80105833D01*
X185899008Y-80153452D01*
X186070436Y-80153452D01*
X186127579Y-80105833D01*
X186156151Y-80058214D01*
X187727579Y-54753452D02*
X188013293Y-54753452D01*
X188013293Y-53753452D01*
X187527579Y-54229643D02*
X187327579Y-54229643D01*
X187241865Y-54753452D02*
X187527579Y-54753452D01*
X187527579Y-53753452D01*
X187241865Y-53753452D01*
X186984722Y-54753452D02*
X186984722Y-53753452D01*
X186841865Y-53753452D01*
X186756150Y-53801072D01*
X186699007Y-53896310D01*
X186670436Y-53991548D01*
X186641865Y-54182024D01*
X186641865Y-54324881D01*
X186670436Y-54515357D01*
X186699007Y-54610595D01*
X186756150Y-54705833D01*
X186841865Y-54753452D01*
X186984722Y-54753452D01*
X202946150Y-72438214D02*
X202974722Y-72485833D01*
X203060436Y-72533452D01*
X203117579Y-72533452D01*
X203203293Y-72485833D01*
X203260436Y-72390595D01*
X203289008Y-72295357D01*
X203317579Y-72104881D01*
X203317579Y-71962024D01*
X203289008Y-71771548D01*
X203260436Y-71676310D01*
X203203293Y-71581072D01*
X203117579Y-71533452D01*
X203060436Y-71533452D01*
X202974722Y-71581072D01*
X202946150Y-71628691D01*
X202574722Y-71533452D02*
X202460436Y-71533452D01*
X202403293Y-71581072D01*
X202346150Y-71676310D01*
X202317579Y-71866786D01*
X202317579Y-72200119D01*
X202346150Y-72390595D01*
X202403293Y-72485833D01*
X202460436Y-72533452D01*
X202574722Y-72533452D01*
X202631865Y-72485833D01*
X202689008Y-72390595D01*
X202717579Y-72200119D01*
X202717579Y-71866786D01*
X202689008Y-71676310D01*
X202631865Y-71581072D01*
X202574722Y-71533452D01*
X201774722Y-72533452D02*
X202060436Y-72533452D01*
X202060436Y-71533452D01*
X201260436Y-72533452D02*
X201603293Y-72533452D01*
X201431865Y-72533452D02*
X201431865Y-71533452D01*
X201489008Y-71676310D01*
X201546150Y-71771548D01*
X201603293Y-71819167D01*
X203374723Y-61373452D02*
X203174723Y-62373452D01*
X202974723Y-61373452D01*
X202431865Y-62278214D02*
X202460437Y-62325833D01*
X202546151Y-62373452D01*
X202603294Y-62373452D01*
X202689008Y-62325833D01*
X202746151Y-62230595D01*
X202774723Y-62135357D01*
X202803294Y-61944881D01*
X202803294Y-61802024D01*
X202774723Y-61611548D01*
X202746151Y-61516310D01*
X202689008Y-61421072D01*
X202603294Y-61373452D01*
X202546151Y-61373452D01*
X202460437Y-61421072D01*
X202431865Y-61468691D01*
X201831865Y-62278214D02*
X201860437Y-62325833D01*
X201946151Y-62373452D01*
X202003294Y-62373452D01*
X202089008Y-62325833D01*
X202146151Y-62230595D01*
X202174723Y-62135357D01*
X202203294Y-61944881D01*
X202203294Y-61802024D01*
X202174723Y-61611548D01*
X202146151Y-61516310D01*
X202089008Y-61421072D01*
X202003294Y-61373452D01*
X201946151Y-61373452D01*
X201860437Y-61421072D01*
X201831865Y-61468691D01*
X200762293Y-59074786D02*
X201448007Y-59360500D01*
X200762293Y-59646214D01*
X200333722Y-59360500D02*
X199648007Y-59360500D01*
X199219436Y-59360500D02*
X198533722Y-59360500D01*
X203289007Y-66929643D02*
X203089007Y-66929643D01*
X203003293Y-67453452D02*
X203289007Y-67453452D01*
X203289007Y-66453452D01*
X203003293Y-66453452D01*
X202746150Y-67453452D02*
X202746150Y-66453452D01*
X202403293Y-67453452D01*
X202403293Y-66453452D01*
X201774721Y-67358214D02*
X201803293Y-67405833D01*
X201889007Y-67453452D01*
X201946150Y-67453452D01*
X202031864Y-67405833D01*
X202089007Y-67310595D01*
X202117578Y-67215357D01*
X202146150Y-67024881D01*
X202146150Y-66882024D01*
X202117578Y-66691548D01*
X202089007Y-66596310D01*
X202031864Y-66501072D01*
X201946150Y-66453452D01*
X201889007Y-66453452D01*
X201803293Y-66501072D01*
X201774721Y-66548691D01*
X201660436Y-67548691D02*
X201203293Y-67548691D01*
X201089007Y-67167738D02*
X200803293Y-67167738D01*
X201146150Y-67453452D02*
X200946150Y-66453452D01*
X200746150Y-67453452D01*
X188341864Y-67405833D02*
X188256150Y-67453452D01*
X188113293Y-67453452D01*
X188056150Y-67405833D01*
X188027579Y-67358214D01*
X187999007Y-67262976D01*
X187999007Y-67167738D01*
X188027579Y-67072500D01*
X188056150Y-67024881D01*
X188113293Y-66977262D01*
X188227579Y-66929643D01*
X188284721Y-66882024D01*
X188313293Y-66834405D01*
X188341864Y-66739167D01*
X188341864Y-66643929D01*
X188313293Y-66548691D01*
X188284721Y-66501072D01*
X188227579Y-66453452D01*
X188084721Y-66453452D01*
X187999007Y-66501072D01*
X187399007Y-67358214D02*
X187427579Y-67405833D01*
X187513293Y-67453452D01*
X187570436Y-67453452D01*
X187656150Y-67405833D01*
X187713293Y-67310595D01*
X187741864Y-67215357D01*
X187770436Y-67024881D01*
X187770436Y-66882024D01*
X187741864Y-66691548D01*
X187713293Y-66596310D01*
X187656150Y-66501072D01*
X187570436Y-66453452D01*
X187513293Y-66453452D01*
X187427579Y-66501072D01*
X187399007Y-66548691D01*
X186856150Y-67453452D02*
X187141864Y-67453452D01*
X187141864Y-66453452D01*
X186656150Y-67453452D02*
X186656150Y-66453452D01*
X186313293Y-67453452D02*
X186570436Y-66882024D01*
X186313293Y-66453452D02*
X186656150Y-67024881D01*
X202946150Y-69898214D02*
X202974722Y-69945833D01*
X203060436Y-69993452D01*
X203117579Y-69993452D01*
X203203293Y-69945833D01*
X203260436Y-69850595D01*
X203289008Y-69755357D01*
X203317579Y-69564881D01*
X203317579Y-69422024D01*
X203289008Y-69231548D01*
X203260436Y-69136310D01*
X203203293Y-69041072D01*
X203117579Y-68993452D01*
X203060436Y-68993452D01*
X202974722Y-69041072D01*
X202946150Y-69088691D01*
X202574722Y-68993452D02*
X202460436Y-68993452D01*
X202403293Y-69041072D01*
X202346150Y-69136310D01*
X202317579Y-69326786D01*
X202317579Y-69660119D01*
X202346150Y-69850595D01*
X202403293Y-69945833D01*
X202460436Y-69993452D01*
X202574722Y-69993452D01*
X202631865Y-69945833D01*
X202689008Y-69850595D01*
X202717579Y-69660119D01*
X202717579Y-69326786D01*
X202689008Y-69136310D01*
X202631865Y-69041072D01*
X202574722Y-68993452D01*
X201774722Y-69993452D02*
X202060436Y-69993452D01*
X202060436Y-68993452D01*
X201460436Y-68993452D02*
X201403293Y-68993452D01*
X201346150Y-69041072D01*
X201317579Y-69088691D01*
X201289008Y-69183929D01*
X201260436Y-69374405D01*
X201260436Y-69612500D01*
X201289008Y-69802976D01*
X201317579Y-69898214D01*
X201346150Y-69945833D01*
X201403293Y-69993452D01*
X201460436Y-69993452D01*
X201517579Y-69945833D01*
X201546150Y-69898214D01*
X201574722Y-69802976D01*
X201603293Y-69612500D01*
X201603293Y-69374405D01*
X201574722Y-69183929D01*
X201546150Y-69088691D01*
X201517579Y-69041072D01*
X201460436Y-68993452D01*
X202946150Y-74978214D02*
X202974722Y-75025833D01*
X203060436Y-75073452D01*
X203117579Y-75073452D01*
X203203293Y-75025833D01*
X203260436Y-74930595D01*
X203289008Y-74835357D01*
X203317579Y-74644881D01*
X203317579Y-74502024D01*
X203289008Y-74311548D01*
X203260436Y-74216310D01*
X203203293Y-74121072D01*
X203117579Y-74073452D01*
X203060436Y-74073452D01*
X202974722Y-74121072D01*
X202946150Y-74168691D01*
X202574722Y-74073452D02*
X202460436Y-74073452D01*
X202403293Y-74121072D01*
X202346150Y-74216310D01*
X202317579Y-74406786D01*
X202317579Y-74740119D01*
X202346150Y-74930595D01*
X202403293Y-75025833D01*
X202460436Y-75073452D01*
X202574722Y-75073452D01*
X202631865Y-75025833D01*
X202689008Y-74930595D01*
X202717579Y-74740119D01*
X202717579Y-74406786D01*
X202689008Y-74216310D01*
X202631865Y-74121072D01*
X202574722Y-74073452D01*
X201774722Y-75073452D02*
X202060436Y-75073452D01*
X202060436Y-74073452D01*
X201603293Y-74168691D02*
X201574722Y-74121072D01*
X201517579Y-74073452D01*
X201374722Y-74073452D01*
X201317579Y-74121072D01*
X201289008Y-74168691D01*
X201260436Y-74263929D01*
X201260436Y-74359167D01*
X201289008Y-74502024D01*
X201631865Y-75073452D01*
X201260436Y-75073452D01*
X202946150Y-82598214D02*
X202974722Y-82645833D01*
X203060436Y-82693452D01*
X203117579Y-82693452D01*
X203203293Y-82645833D01*
X203260436Y-82550595D01*
X203289008Y-82455357D01*
X203317579Y-82264881D01*
X203317579Y-82122024D01*
X203289008Y-81931548D01*
X203260436Y-81836310D01*
X203203293Y-81741072D01*
X203117579Y-81693452D01*
X203060436Y-81693452D01*
X202974722Y-81741072D01*
X202946150Y-81788691D01*
X202574722Y-81693452D02*
X202460436Y-81693452D01*
X202403293Y-81741072D01*
X202346150Y-81836310D01*
X202317579Y-82026786D01*
X202317579Y-82360119D01*
X202346150Y-82550595D01*
X202403293Y-82645833D01*
X202460436Y-82693452D01*
X202574722Y-82693452D01*
X202631865Y-82645833D01*
X202689008Y-82550595D01*
X202717579Y-82360119D01*
X202717579Y-82026786D01*
X202689008Y-81836310D01*
X202631865Y-81741072D01*
X202574722Y-81693452D01*
X201774722Y-82693452D02*
X202060436Y-82693452D01*
X202060436Y-81693452D01*
X201289008Y-81693452D02*
X201574722Y-81693452D01*
X201603293Y-82169643D01*
X201574722Y-82122024D01*
X201517579Y-82074405D01*
X201374722Y-82074405D01*
X201317579Y-82122024D01*
X201289008Y-82169643D01*
X201260436Y-82264881D01*
X201260436Y-82502976D01*
X201289008Y-82598214D01*
X201317579Y-82645833D01*
X201374722Y-82693452D01*
X201517579Y-82693452D01*
X201574722Y-82645833D01*
X201603293Y-82598214D01*
X187670436Y-82693452D02*
X187870436Y-82217262D01*
X188013294Y-82693452D02*
X188013294Y-81693452D01*
X187784722Y-81693452D01*
X187727579Y-81741072D01*
X187699008Y-81788691D01*
X187670436Y-81883929D01*
X187670436Y-82026786D01*
X187699008Y-82122024D01*
X187727579Y-82169643D01*
X187784722Y-82217262D01*
X188013294Y-82217262D01*
X187299008Y-81693452D02*
X187184722Y-81693452D01*
X187127579Y-81741072D01*
X187070436Y-81836310D01*
X187041865Y-82026786D01*
X187041865Y-82360119D01*
X187070436Y-82550595D01*
X187127579Y-82645833D01*
X187184722Y-82693452D01*
X187299008Y-82693452D01*
X187356151Y-82645833D01*
X187413294Y-82550595D01*
X187441865Y-82360119D01*
X187441865Y-82026786D01*
X187413294Y-81836310D01*
X187356151Y-81741072D01*
X187299008Y-81693452D01*
X186841865Y-81693452D02*
X186699008Y-82693452D01*
X186584722Y-81979167D01*
X186470436Y-82693452D01*
X186327579Y-81693452D01*
X185841865Y-82026786D02*
X185841865Y-82693452D01*
X185984722Y-81645833D02*
X186127579Y-82360119D01*
X185756151Y-82360119D01*
X187670436Y-69898214D02*
X187699007Y-69945833D01*
X187784721Y-69993452D01*
X187841864Y-69993452D01*
X187927578Y-69945833D01*
X187984721Y-69850595D01*
X188013293Y-69755357D01*
X188041864Y-69564881D01*
X188041864Y-69422024D01*
X188013293Y-69231548D01*
X187984721Y-69136310D01*
X187927578Y-69041072D01*
X187841864Y-68993452D01*
X187784721Y-68993452D01*
X187699007Y-69041072D01*
X187670436Y-69088691D01*
X187441864Y-69945833D02*
X187356150Y-69993452D01*
X187213293Y-69993452D01*
X187156150Y-69945833D01*
X187127578Y-69898214D01*
X187099007Y-69802976D01*
X187099007Y-69707738D01*
X187127578Y-69612500D01*
X187156150Y-69564881D01*
X187213293Y-69517262D01*
X187327578Y-69469643D01*
X187384721Y-69422024D01*
X187413293Y-69374405D01*
X187441864Y-69279167D01*
X187441864Y-69183929D01*
X187413293Y-69088691D01*
X187384721Y-69041072D01*
X187327578Y-68993452D01*
X187184721Y-68993452D01*
X187099007Y-69041072D01*
D12*
%TO.C,J2*%
X212159436Y-111691446D02*
X211588007Y-111691446D01*
X211873722Y-112691446D02*
X211873722Y-111691446D01*
X210683245Y-112691446D02*
X211016579Y-112215256D01*
X211254674Y-112691446D02*
X211254674Y-111691446D01*
X210873722Y-111691446D01*
X210778484Y-111739066D01*
X210730865Y-111786685D01*
X210683245Y-111881923D01*
X210683245Y-112024780D01*
X210730865Y-112120018D01*
X210778484Y-112167637D01*
X210873722Y-112215256D01*
X211254674Y-112215256D01*
X209968960Y-113072399D02*
X210016579Y-113024780D01*
X210111817Y-112881923D01*
X210159436Y-112786685D01*
X210207055Y-112643827D01*
X210254674Y-112405732D01*
X210254674Y-112215256D01*
X210207055Y-111977161D01*
X210159436Y-111834304D01*
X210111817Y-111739066D01*
X210016579Y-111596208D01*
X209968960Y-111548589D01*
X209016579Y-112691446D02*
X209349912Y-112215256D01*
X209588007Y-112691446D02*
X209588007Y-111691446D01*
X209207055Y-111691446D01*
X209111817Y-111739066D01*
X209064198Y-111786685D01*
X209016579Y-111881923D01*
X209016579Y-112024780D01*
X209064198Y-112120018D01*
X209111817Y-112167637D01*
X209207055Y-112215256D01*
X209588007Y-112215256D01*
X208683245Y-113072399D02*
X208635626Y-113024780D01*
X208540388Y-112881923D01*
X208492769Y-112786685D01*
X208445150Y-112643827D01*
X208397531Y-112405732D01*
X208397531Y-112215256D01*
X208445150Y-111977161D01*
X208492769Y-111834304D01*
X208540388Y-111739066D01*
X208635626Y-111596208D01*
X208683245Y-111548589D01*
X207968960Y-112643827D02*
X207826103Y-112691446D01*
X207588007Y-112691446D01*
X207492769Y-112643827D01*
X207445150Y-112596208D01*
X207397531Y-112500970D01*
X207397531Y-112405732D01*
X207445150Y-112310494D01*
X207492769Y-112262875D01*
X207588007Y-112215256D01*
X207778484Y-112167637D01*
X207873722Y-112120018D01*
X207921341Y-112072399D01*
X207968960Y-111977161D01*
X207968960Y-111881923D01*
X207921341Y-111786685D01*
X207873722Y-111739066D01*
X207778484Y-111691446D01*
X207540388Y-111691446D01*
X207397531Y-111739066D01*
D10*
%TO.C,H1*%
X151096080Y-70181566D02*
X152096080Y-70181566D01*
X151143699Y-70181566D02*
X151096080Y-70276804D01*
X151096080Y-70467280D01*
X151143699Y-70562518D01*
X151191318Y-70610137D01*
X151286556Y-70657756D01*
X151572270Y-70657756D01*
X151667508Y-70610137D01*
X151715127Y-70562518D01*
X151762746Y-70467280D01*
X151762746Y-70276804D01*
X151715127Y-70181566D01*
X151096080Y-71514899D02*
X151762746Y-71514899D01*
X151096080Y-71086327D02*
X151619889Y-71086327D01*
X151715127Y-71133946D01*
X151762746Y-71229185D01*
X151762746Y-71372042D01*
X151715127Y-71467280D01*
X151667508Y-71514899D01*
X151715127Y-72419661D02*
X151762746Y-72324423D01*
X151762746Y-72133946D01*
X151715127Y-72038708D01*
X151667508Y-71991089D01*
X151572270Y-71943470D01*
X151286556Y-71943470D01*
X151191318Y-71991089D01*
X151143699Y-72038708D01*
X151096080Y-72133946D01*
X151096080Y-72324423D01*
X151143699Y-72419661D01*
X151762746Y-72848232D02*
X150762746Y-72848232D01*
X151381794Y-72943470D02*
X151762746Y-73229185D01*
X151096080Y-73229185D02*
X151477032Y-72848232D01*
X151032580Y-56227566D02*
X151032580Y-56608518D01*
X150699246Y-56370423D02*
X151556389Y-56370423D01*
X151651627Y-56418042D01*
X151699246Y-56513280D01*
X151699246Y-56608518D01*
X151651627Y-57322804D02*
X151699246Y-57227566D01*
X151699246Y-57037089D01*
X151651627Y-56941851D01*
X151556389Y-56894232D01*
X151175437Y-56894232D01*
X151080199Y-56941851D01*
X151032580Y-57037089D01*
X151032580Y-57227566D01*
X151080199Y-57322804D01*
X151175437Y-57370423D01*
X151270675Y-57370423D01*
X151365913Y-56894232D01*
X151032580Y-57798994D02*
X151699246Y-57798994D01*
X151127818Y-57798994D02*
X151080199Y-57846613D01*
X151032580Y-57941851D01*
X151032580Y-58084708D01*
X151080199Y-58179946D01*
X151175437Y-58227566D01*
X151699246Y-58227566D01*
X151032580Y-58560899D02*
X151032580Y-58941851D01*
X150699246Y-58703756D02*
X151556389Y-58703756D01*
X151651627Y-58751375D01*
X151699246Y-58846613D01*
X151699246Y-58941851D01*
X151699246Y-59275185D02*
X151032580Y-59275185D01*
X150699246Y-59275185D02*
X150746866Y-59227566D01*
X150794485Y-59275185D01*
X150746866Y-59322804D01*
X150699246Y-59275185D01*
X150794485Y-59275185D01*
X151032580Y-59751375D02*
X151699246Y-59751375D01*
X151127818Y-59751375D02*
X151080199Y-59798994D01*
X151032580Y-59894232D01*
X151032580Y-60037089D01*
X151080199Y-60132327D01*
X151175437Y-60179946D01*
X151699246Y-60179946D01*
X151032580Y-61084708D02*
X151842104Y-61084708D01*
X151937342Y-61037089D01*
X151984961Y-60989470D01*
X152032580Y-60894232D01*
X152032580Y-60751375D01*
X151984961Y-60656137D01*
X151651627Y-61084708D02*
X151699246Y-60989470D01*
X151699246Y-60798994D01*
X151651627Y-60703756D01*
X151604008Y-60656137D01*
X151508770Y-60608518D01*
X151223056Y-60608518D01*
X151127818Y-60656137D01*
X151080199Y-60703756D01*
X151032580Y-60798994D01*
X151032580Y-60989470D01*
X151080199Y-61084708D01*
%TO.C,J4*%
X206776257Y-50638867D02*
X206690543Y-50681724D01*
X206661971Y-50724581D01*
X206633400Y-50810295D01*
X206633400Y-50938867D01*
X206661971Y-51024581D01*
X206690543Y-51067438D01*
X206747686Y-51110295D01*
X206976257Y-51110295D01*
X206976257Y-50210295D01*
X206776257Y-50210295D01*
X206719114Y-50253153D01*
X206690543Y-50296010D01*
X206661971Y-50381724D01*
X206661971Y-50467438D01*
X206690543Y-50553153D01*
X206719114Y-50596010D01*
X206776257Y-50638867D01*
X206976257Y-50638867D01*
X206119114Y-51110295D02*
X206119114Y-50638867D01*
X206147686Y-50553153D01*
X206204829Y-50510295D01*
X206319114Y-50510295D01*
X206376257Y-50553153D01*
X206119114Y-51067438D02*
X206176257Y-51110295D01*
X206319114Y-51110295D01*
X206376257Y-51067438D01*
X206404829Y-50981724D01*
X206404829Y-50896010D01*
X206376257Y-50810295D01*
X206319114Y-50767438D01*
X206176257Y-50767438D01*
X206119114Y-50724581D01*
X205919114Y-50510295D02*
X205690543Y-50510295D01*
X205833400Y-50210295D02*
X205833400Y-50981724D01*
X205804829Y-51067438D01*
X205747686Y-51110295D01*
X205690543Y-51110295D01*
X205633400Y-51196010D02*
X205176257Y-51196010D01*
X205033400Y-51110295D02*
X205033400Y-50210295D01*
X204690543Y-51110295D01*
X204690543Y-50210295D01*
X204176257Y-51067438D02*
X204233400Y-51110295D01*
X204347686Y-51110295D01*
X204404829Y-51067438D01*
X204433400Y-50981724D01*
X204433400Y-50638867D01*
X204404829Y-50553153D01*
X204347686Y-50510295D01*
X204233400Y-50510295D01*
X204176257Y-50553153D01*
X204147686Y-50638867D01*
X204147686Y-50724581D01*
X204433400Y-50810295D01*
X203633400Y-50510295D02*
X203633400Y-51238867D01*
X203661971Y-51324581D01*
X203690543Y-51367438D01*
X203747686Y-51410295D01*
X203833400Y-51410295D01*
X203890543Y-51367438D01*
X203633400Y-51067438D02*
X203690543Y-51110295D01*
X203804829Y-51110295D01*
X203861971Y-51067438D01*
X203890543Y-51024581D01*
X203919114Y-50938867D01*
X203919114Y-50681724D01*
X203890543Y-50596010D01*
X203861971Y-50553153D01*
X203804829Y-50510295D01*
X203690543Y-50510295D01*
X203633400Y-50553153D01*
D12*
%TO.C,SW1*%
X210043246Y-119550964D02*
X209567056Y-119217631D01*
X210043246Y-118979536D02*
X209043246Y-118979536D01*
X209043246Y-119360488D01*
X209090866Y-119455726D01*
X209138485Y-119503345D01*
X209233723Y-119550964D01*
X209376580Y-119550964D01*
X209471818Y-119503345D01*
X209519437Y-119455726D01*
X209567056Y-119360488D01*
X209567056Y-118979536D01*
X209995627Y-120360488D02*
X210043246Y-120265250D01*
X210043246Y-120074774D01*
X209995627Y-119979536D01*
X209900389Y-119931917D01*
X209519437Y-119931917D01*
X209424199Y-119979536D01*
X209376580Y-120074774D01*
X209376580Y-120265250D01*
X209424199Y-120360488D01*
X209519437Y-120408107D01*
X209614675Y-120408107D01*
X209709913Y-119931917D01*
X209995627Y-120789060D02*
X210043246Y-120884298D01*
X210043246Y-121074774D01*
X209995627Y-121170012D01*
X209900389Y-121217631D01*
X209852770Y-121217631D01*
X209757532Y-121170012D01*
X209709913Y-121074774D01*
X209709913Y-120931917D01*
X209662294Y-120836679D01*
X209567056Y-120789060D01*
X209519437Y-120789060D01*
X209424199Y-120836679D01*
X209376580Y-120931917D01*
X209376580Y-121074774D01*
X209424199Y-121170012D01*
X209995627Y-122027155D02*
X210043246Y-121931917D01*
X210043246Y-121741440D01*
X209995627Y-121646202D01*
X209900389Y-121598583D01*
X209519437Y-121598583D01*
X209424199Y-121646202D01*
X209376580Y-121741440D01*
X209376580Y-121931917D01*
X209424199Y-122027155D01*
X209519437Y-122074774D01*
X209614675Y-122074774D01*
X209709913Y-121598583D01*
X209376580Y-122360488D02*
X209376580Y-122741440D01*
X209043246Y-122503345D02*
X209900389Y-122503345D01*
X209995627Y-122550964D01*
X210043246Y-122646202D01*
X210043246Y-122741440D01*
%TO.C,SW2*%
X211838096Y-96995590D02*
X211918595Y-97168220D01*
X212002002Y-97234410D01*
X212128566Y-97280476D01*
X212321321Y-97243135D01*
X212623424Y-97102262D01*
X212775929Y-96978606D01*
X212821995Y-96852041D01*
X212824903Y-96745601D01*
X212744404Y-96572971D01*
X212660997Y-96506781D01*
X212534433Y-96460715D01*
X212341678Y-96498057D01*
X212039575Y-96638929D01*
X211887070Y-96762586D01*
X211841004Y-96889150D01*
X211838096Y-96995590D01*
X213106648Y-97349807D02*
X212200340Y-97772425D01*
X213348144Y-97867697D01*
X212441837Y-98290315D01*
X213304528Y-98957262D02*
X213195180Y-99060793D01*
X213172147Y-99124075D01*
X213169239Y-99230515D01*
X213229613Y-99359988D01*
X213313020Y-99426178D01*
X213376302Y-99449211D01*
X213482742Y-99452119D01*
X213828002Y-99291122D01*
X213405384Y-98384814D01*
X213103281Y-98525687D01*
X213037091Y-98609093D01*
X213014058Y-98672376D01*
X213011150Y-98778815D01*
X213051399Y-98865130D01*
X213134806Y-98931321D01*
X213198088Y-98954353D01*
X213304528Y-98957262D01*
X213606630Y-98816389D01*
X212533276Y-99894862D02*
X212311905Y-99420129D01*
X212314813Y-99313690D01*
X212381003Y-99230283D01*
X212553633Y-99149784D01*
X212660073Y-99152692D01*
X212513152Y-99851704D02*
X212619591Y-99854613D01*
X212835379Y-99753989D01*
X212901569Y-99670582D01*
X212904478Y-99564143D01*
X212864228Y-99477828D01*
X212780821Y-99411637D01*
X212674382Y-99408729D01*
X212458594Y-99509352D01*
X212352154Y-99506444D01*
X211949428Y-99431529D02*
X211604168Y-99592527D01*
X211679083Y-99189801D02*
X212041327Y-99966636D01*
X212038419Y-100073076D01*
X211972229Y-100156483D01*
X211885914Y-100196732D01*
X211431538Y-99673026D02*
X211086278Y-99834023D01*
X211161193Y-99431297D02*
X211523437Y-100208132D01*
X211520529Y-100314572D01*
X211454339Y-100397979D01*
X211368024Y-100438228D01*
D10*
%TO.C,J3*%
X191883720Y-50887635D02*
X191798005Y-50935254D01*
X191769434Y-50982873D01*
X191740863Y-51078111D01*
X191740863Y-51220968D01*
X191769434Y-51316206D01*
X191798005Y-51363825D01*
X191855148Y-51411444D01*
X192083720Y-51411444D01*
X192083720Y-50411444D01*
X191883720Y-50411444D01*
X191826577Y-50459064D01*
X191798005Y-50506683D01*
X191769434Y-50601921D01*
X191769434Y-50697159D01*
X191798005Y-50792397D01*
X191826577Y-50840016D01*
X191883720Y-50887635D01*
X192083720Y-50887635D01*
X191226577Y-51411444D02*
X191226577Y-50887635D01*
X191255148Y-50792397D01*
X191312291Y-50744778D01*
X191426577Y-50744778D01*
X191483720Y-50792397D01*
X191226577Y-51363825D02*
X191283720Y-51411444D01*
X191426577Y-51411444D01*
X191483720Y-51363825D01*
X191512291Y-51268587D01*
X191512291Y-51173349D01*
X191483720Y-51078111D01*
X191426577Y-51030492D01*
X191283720Y-51030492D01*
X191226577Y-50982873D01*
X191026577Y-50744778D02*
X190798005Y-50744778D01*
X190940863Y-50411444D02*
X190940863Y-51268587D01*
X190912291Y-51363825D01*
X190855148Y-51411444D01*
X190798005Y-51411444D01*
X190740863Y-51506683D02*
X190283720Y-51506683D01*
X190140863Y-51411444D02*
X190140863Y-50411444D01*
X189912291Y-50411444D01*
X189855148Y-50459064D01*
X189826577Y-50506683D01*
X189798005Y-50601921D01*
X189798005Y-50744778D01*
X189826577Y-50840016D01*
X189855148Y-50887635D01*
X189912291Y-50935254D01*
X190140863Y-50935254D01*
X189455148Y-51411444D02*
X189512291Y-51363825D01*
X189540863Y-51316206D01*
X189569434Y-51220968D01*
X189569434Y-50935254D01*
X189540863Y-50840016D01*
X189512291Y-50792397D01*
X189455148Y-50744778D01*
X189369434Y-50744778D01*
X189312291Y-50792397D01*
X189283720Y-50840016D01*
X189255148Y-50935254D01*
X189255148Y-51220968D01*
X189283720Y-51316206D01*
X189312291Y-51363825D01*
X189369434Y-51411444D01*
X189455148Y-51411444D01*
X189026577Y-51363825D02*
X188969434Y-51411444D01*
X188855148Y-51411444D01*
X188798005Y-51363825D01*
X188769434Y-51268587D01*
X188769434Y-51220968D01*
X188798005Y-51125730D01*
X188855148Y-51078111D01*
X188940863Y-51078111D01*
X188998005Y-51030492D01*
X189026577Y-50935254D01*
X189026577Y-50887635D01*
X188998005Y-50792397D01*
X188940863Y-50744778D01*
X188855148Y-50744778D01*
X188798005Y-50792397D01*
%TO.C,U2*%
X186062769Y-92114255D02*
X186062769Y-92923779D01*
X186015150Y-93019017D01*
X185967531Y-93066636D01*
X185872293Y-93114255D01*
X185681817Y-93114255D01*
X185586579Y-93066636D01*
X185538960Y-93019017D01*
X185491341Y-92923779D01*
X185491341Y-92114255D01*
X185062769Y-92209494D02*
X185015150Y-92161875D01*
X184919912Y-92114255D01*
X184681817Y-92114255D01*
X184586579Y-92161875D01*
X184538960Y-92209494D01*
X184491341Y-92304732D01*
X184491341Y-92399970D01*
X184538960Y-92542827D01*
X185110388Y-93114255D01*
X184491341Y-93114255D01*
D13*
%TO.C,DS1*%
X193010829Y-86281153D02*
X205710829Y-86281153D01*
X205710829Y-83741153D02*
X193010829Y-83741153D01*
X193010829Y-83741153D02*
X193010829Y-86281153D01*
X205710829Y-86281153D02*
X205710829Y-83741153D01*
D10*
%TO.C,U1*%
X203570865Y-83511072D02*
X203570865Y-53031072D01*
X206110865Y-53031072D02*
X206110865Y-83511072D01*
X190870865Y-83511072D02*
X188330865Y-83511072D01*
X190870865Y-53031072D02*
X190870865Y-83511072D01*
X188330865Y-83511072D02*
X188330865Y-53031072D01*
X188330865Y-53031072D02*
X190870865Y-53031072D01*
X206110865Y-83511072D02*
X203570865Y-83511072D01*
X203570865Y-53031072D02*
X206110865Y-53031072D01*
%TO.C,D3*%
G36*
X178847760Y-103722186D02*
G01*
X178112913Y-104146451D01*
X178268204Y-103566895D01*
X178847760Y-103722186D01*
G37*
D14*
X178847760Y-103722186D02*
X178112913Y-104146451D01*
X178268204Y-103566895D01*
X178847760Y-103722186D01*
%TO.C,D2*%
G36*
X193882909Y-111680380D02*
G01*
X193063294Y-111899995D01*
X193363294Y-111380380D01*
X193882909Y-111680380D01*
G37*
X193882909Y-111680380D02*
X193063294Y-111899995D01*
X193363294Y-111380380D01*
X193882909Y-111680380D01*
D10*
%TO.C,J2*%
X202970865Y-114299066D02*
X202970865Y-108299066D01*
D13*
X215970865Y-113649066D02*
X214970865Y-113649066D01*
D10*
X202970865Y-108299066D02*
X214970865Y-108299066D01*
X214970865Y-108299066D02*
X214970865Y-114299066D01*
D13*
X215970865Y-109049066D02*
X215970865Y-113649066D01*
X214970865Y-109049066D02*
X215970865Y-109049066D01*
D10*
X214970865Y-114299066D02*
X202970865Y-114299066D01*
D15*
%TO.C,H1*%
X152629251Y-54913203D02*
G75*
G03*
X151500866Y-54854066I-1128385J-10735763D01*
G01*
X154358366Y-85969066D02*
G75*
G03*
X158508911Y-84935201I-2857506J20320019D01*
G01*
X151500866Y-76444067D02*
G75*
G03*
X152629251Y-76384930I0J10794901D01*
G01*
X150372481Y-76384930D02*
G75*
G03*
X151500866Y-76444066I1128379J10735785D01*
G01*
X148643366Y-45329065D02*
G75*
G03*
X144492820Y-46362931I2857500J-20320001D01*
G01*
X132214731Y-58641022D02*
G75*
G03*
X131180866Y-62791566I19286255J-7008074D01*
G01*
X158508915Y-46362933D02*
G75*
G03*
X154358366Y-45329066I-7008049J-19286133D01*
G01*
X144492821Y-84935201D02*
G75*
G03*
X148643366Y-85969066I7008045J19286135D01*
G01*
X171820866Y-62791566D02*
G75*
G03*
X170787000Y-58641018I-20320000J-2857500D01*
G01*
X170787000Y-72657114D02*
G75*
G03*
X171820866Y-68506566I-19286134J7008048D01*
G01*
X131180865Y-68506566D02*
G75*
G03*
X132214731Y-72657112I20320001J2857500D01*
G01*
X151500866Y-54854066D02*
G75*
G03*
X150372481Y-54913202I-6J-10794921D01*
G01*
D13*
%TO.C,D7*%
X99768075Y-66791169D02*
X100683946Y-66629676D01*
X102880068Y-66242441D02*
X103255148Y-68369626D01*
X99768075Y-66791169D02*
X100021601Y-68228989D01*
X102880068Y-66242441D02*
X101964196Y-66403934D01*
%TO.C,D13*%
X107321765Y-109630300D02*
X107575291Y-111068120D01*
X107321765Y-109630300D02*
X108237636Y-109468807D01*
X110433758Y-109081572D02*
X109517886Y-109243065D01*
X110433758Y-109081572D02*
X110808838Y-111208757D01*
%TO.C,D8*%
X122538704Y-50724327D02*
X121612243Y-50805382D01*
X122538704Y-50724327D02*
X122726961Y-52876108D01*
X119390729Y-50999739D02*
X119517976Y-52454183D01*
X119390729Y-50999739D02*
X120317190Y-50918684D01*
%TO.C,D10*%
X102728775Y-83582135D02*
X102982301Y-85019955D01*
X105840768Y-83033407D02*
X106215848Y-85160592D01*
X102728775Y-83582135D02*
X103644646Y-83420642D01*
X105840768Y-83033407D02*
X104924896Y-83194900D01*
%TO.C,D11*%
X124020357Y-67659632D02*
X123093896Y-67740687D01*
X120872382Y-67935044D02*
X121798843Y-67853989D01*
X120872382Y-67935044D02*
X120999629Y-69389488D01*
X124020357Y-67659632D02*
X124208614Y-69811413D01*
%TO.C,D14*%
X125502007Y-84594940D02*
X124575546Y-84675995D01*
X122354032Y-84870352D02*
X123280493Y-84789297D01*
X122354032Y-84870352D02*
X122481279Y-86324796D01*
X125502007Y-84594940D02*
X125690264Y-86746721D01*
%TO.C,D9*%
X158910867Y-49229062D02*
X158910867Y-50689062D01*
X162070867Y-49229062D02*
X161140867Y-49229062D01*
X158910867Y-49229062D02*
X159840867Y-49229062D01*
X162070867Y-49229062D02*
X162070867Y-51389062D01*
%TO.C,D12*%
X158910867Y-66229060D02*
X159840867Y-66229060D01*
X158910867Y-66229060D02*
X158910867Y-67689060D01*
X162070867Y-66229060D02*
X162070867Y-68389060D01*
X162070867Y-66229060D02*
X161140867Y-66229060D01*
%TO.C,D15*%
X158910868Y-83229060D02*
X159840868Y-83229060D01*
X162070868Y-83229060D02*
X161140868Y-83229060D01*
X158910868Y-83229060D02*
X158910868Y-84689060D01*
X162070868Y-83229060D02*
X162070868Y-85389060D01*
%TO.C,D20*%
X170107289Y-112790413D02*
X169208978Y-112549712D01*
X167054964Y-111972545D02*
X166677088Y-113382797D01*
X170107289Y-112790413D02*
X169548240Y-114876813D01*
X167054964Y-111972545D02*
X167953275Y-112213247D01*
%TO.C,D21*%
X201962441Y-132283544D02*
X201304832Y-131625934D01*
X199727983Y-130049086D02*
X198695608Y-131081462D01*
X201962441Y-132283544D02*
X200435090Y-133810894D01*
X199727983Y-130049086D02*
X200385593Y-130706695D01*
%TO.C,D19*%
X166980864Y-97229070D02*
X166980864Y-99389070D01*
X166980864Y-97229070D02*
X166050864Y-97229070D01*
X163820864Y-97229070D02*
X164750864Y-97229070D01*
X163820864Y-97229070D02*
X163820864Y-98689070D01*
%TO.C,D4*%
G36*
X157048202Y-99204987D02*
G01*
X157048202Y-98604987D01*
X157648202Y-98604987D01*
X157048202Y-99204987D01*
G37*
D14*
X157048202Y-99204987D02*
X157048202Y-98604987D01*
X157648202Y-98604987D01*
X157048202Y-99204987D01*
%TO.C,D1*%
G36*
X199317190Y-95193894D02*
G01*
X198497575Y-95413509D01*
X198797575Y-94893894D01*
X199317190Y-95193894D01*
G37*
X199317190Y-95193894D02*
X198497575Y-95413509D01*
X198797575Y-94893894D01*
X199317190Y-95193894D01*
D10*
%TO.C,J4*%
X203290867Y-49979059D02*
X203290867Y-51979059D01*
X201290867Y-51979059D02*
X201290867Y-49979059D01*
X201290867Y-49979059D02*
X203290867Y-49979059D01*
X203290867Y-51979059D02*
X201290867Y-51979059D01*
D13*
%TO.C,C1*%
X198252122Y-50174069D02*
X197729618Y-50174069D01*
X198252122Y-51644069D02*
X197729618Y-51644069D01*
%TO.C,SW1*%
X215910866Y-119339060D02*
X215420866Y-118849060D01*
X214230866Y-123509060D02*
X212150866Y-123509060D01*
X210470866Y-122239060D02*
X210960866Y-122729060D01*
X214230866Y-118069060D02*
X212150866Y-118069060D01*
X215910866Y-119339060D02*
X215910866Y-122239060D01*
X215910866Y-122239060D02*
X215420866Y-122729060D01*
X210470866Y-119339060D02*
X210470866Y-122239060D01*
X210470866Y-119339060D02*
X210960866Y-118849060D01*
D10*
%TO.C,J3*%
X192390863Y-51979064D02*
X192390863Y-49979064D01*
X194390863Y-51979064D02*
X192390863Y-51979064D01*
X192390863Y-49979064D02*
X194390863Y-49979064D01*
X194390863Y-49979064D02*
X194390863Y-51979064D01*
D13*
%TO.C,C3*%
X188809454Y-86928926D02*
X188286950Y-86928926D01*
X188809454Y-88398926D02*
X188286950Y-88398926D01*
%TO.C,C2*%
X188809453Y-94598923D02*
X188286949Y-94598923D01*
X188809453Y-93128923D02*
X188286949Y-93128923D01*
%TO.C,U2*%
X187648197Y-89163924D02*
X189448197Y-89163924D01*
X186523197Y-92373924D02*
X189473197Y-92373924D01*
%TD*%
%LPC*%
D16*
%TO.C,DS1*%
X204440829Y-85011153D03*
X193264829Y-87043153D03*
D17*
X195804829Y-87043153D03*
X201900829Y-85011153D03*
D18*
X198344829Y-87043153D03*
X199360829Y-85011153D03*
X196820829Y-85011153D03*
X200884829Y-87043153D03*
X203424829Y-87043153D03*
X194280829Y-85011153D03*
%TD*%
D19*
%TO.C,U1*%
X206147265Y-53031072D03*
X206147265Y-55571072D03*
X206147265Y-58111072D03*
X206147265Y-60651072D03*
X206147265Y-63191072D03*
X206147265Y-65731072D03*
X206147265Y-68271072D03*
X206147265Y-70811072D03*
X206147265Y-73351072D03*
X206147265Y-75891072D03*
X206147265Y-78431072D03*
X206147265Y-80971072D03*
X190927265Y-80971072D03*
X190927265Y-78431072D03*
X190927265Y-75891072D03*
X190927265Y-73351072D03*
X190927265Y-70811072D03*
X190927265Y-68271072D03*
X190927265Y-65731072D03*
X190927265Y-63191072D03*
X190927265Y-60651072D03*
X190927265Y-58111072D03*
X190927265Y-55571072D03*
X190927265Y-53031072D03*
%TD*%
D20*
%TO.C,D3*%
X174212369Y-100254294D03*
X173824141Y-101703182D03*
D21*
X178798659Y-103036100D03*
D20*
X179186887Y-101587212D03*
%TD*%
D22*
%TO.C,D2*%
X190303023Y-107130925D03*
X189553023Y-108429963D03*
D23*
X194013053Y-111004963D03*
D22*
X194763053Y-109705925D03*
%TD*%
D24*
%TO.C,J2*%
X206470865Y-111299066D03*
X213470865Y-111299066D03*
X213470865Y-113049066D03*
X206470865Y-113049066D03*
D25*
X208670865Y-115149066D03*
X211670865Y-115149066D03*
X203170865Y-110949066D03*
X204670865Y-115149066D03*
%TD*%
D26*
%TO.C,H1*%
X132450866Y-65649066D03*
X170550866Y-65649066D03*
X151500866Y-84699066D03*
X151500866Y-46599066D03*
%TD*%
D27*
%TO.C,D7*%
X100694125Y-68415033D03*
X102565260Y-68085101D03*
X101282396Y-66280451D03*
%TD*%
%TO.C,D13*%
X108247815Y-111254164D03*
X110118950Y-110924232D03*
X108836086Y-109119582D03*
%TD*%
D16*
%TO.C,K13*%
X85041926Y-109507290D03*
D28*
X90458369Y-108552225D03*
D16*
X95874812Y-107597160D03*
D29*
X89433845Y-102741858D03*
X94722545Y-103941715D03*
%TD*%
D28*
%TO.C,K14*%
X108184906Y-105426554D03*
D16*
X102768463Y-106381619D03*
X113601349Y-104471489D03*
D29*
X107160382Y-99616187D03*
X112449082Y-100816044D03*
%TD*%
D30*
%TO.C,D8*%
X120171726Y-52698134D03*
X122064496Y-52532538D03*
X120943799Y-50622946D03*
%TD*%
D27*
%TO.C,D10*%
X103654825Y-85205999D03*
X105525960Y-84876067D03*
X104243096Y-83071417D03*
%TD*%
D16*
%TO.C,K1*%
X89970778Y-74113691D03*
D28*
X84554335Y-75068756D03*
D16*
X79137892Y-76023821D03*
D29*
X85578859Y-80879123D03*
X80290159Y-79679266D03*
%TD*%
D28*
%TO.C,K3*%
X121440591Y-56301255D03*
D16*
X115961520Y-56780612D03*
X126919662Y-55821898D03*
D29*
X121954810Y-62178805D03*
X116790809Y-60522574D03*
%TD*%
D28*
%TO.C,K4*%
X142490869Y-49189062D03*
D16*
X147990869Y-49189062D03*
X136990869Y-49189062D03*
D29*
X142490869Y-55089063D03*
X137490869Y-52989062D03*
%TD*%
D28*
%TO.C,K8*%
X105232890Y-88684826D03*
D16*
X99816447Y-89639891D03*
X110649333Y-87729761D03*
D29*
X106257414Y-94495193D03*
X100968714Y-93295336D03*
%TD*%
D30*
%TO.C,D11*%
X121653379Y-69633439D03*
X123546149Y-69467843D03*
X122425452Y-67558251D03*
%TD*%
D28*
%TO.C,K9*%
X122922241Y-73236560D03*
D16*
X117443170Y-73715917D03*
X128401312Y-72757203D03*
D29*
X123436460Y-79114110D03*
X118272459Y-77457879D03*
%TD*%
D16*
%TO.C,K10*%
X147990862Y-66189064D03*
D28*
X142490862Y-66189064D03*
D16*
X136990862Y-66189064D03*
D29*
X142490862Y-72089065D03*
X137490862Y-69989064D03*
%TD*%
D16*
%TO.C,K15*%
X129882952Y-89692510D03*
X118924810Y-90651224D03*
D28*
X124403881Y-90171867D03*
D29*
X124918100Y-96049417D03*
X119754099Y-94393186D03*
%TD*%
D16*
%TO.C,K16*%
X147990864Y-83189063D03*
D28*
X142490864Y-83189063D03*
D16*
X136990864Y-83189063D03*
D29*
X142490864Y-89089064D03*
X137490864Y-86989063D03*
%TD*%
D30*
%TO.C,D14*%
X123135029Y-86568747D03*
X125027799Y-86403151D03*
X123907102Y-84493559D03*
%TD*%
D31*
%TO.C,D9*%
X159540867Y-50989062D03*
X161440867Y-50989062D03*
X160490867Y-48989062D03*
%TD*%
%TO.C,D12*%
X159540867Y-67989060D03*
X161440867Y-67989060D03*
X160490867Y-65989060D03*
%TD*%
%TO.C,D15*%
X159540868Y-84989060D03*
X161440868Y-84989060D03*
X160490868Y-82989060D03*
%TD*%
D28*
%TO.C,K5*%
X160490866Y-54689071D03*
D16*
X154990866Y-54689071D03*
X165990866Y-54689071D03*
D29*
X160490866Y-60589072D03*
X155490866Y-58489071D03*
%TD*%
D16*
%TO.C,K6*%
X183990870Y-57189063D03*
D28*
X178490870Y-57189063D03*
D16*
X172990870Y-57189063D03*
D29*
X178490870Y-63089064D03*
X173490870Y-60989063D03*
%TD*%
D28*
%TO.C,K11*%
X160490858Y-71689068D03*
D16*
X154990858Y-71689068D03*
X165990858Y-71689068D03*
D29*
X160490858Y-77589069D03*
X155490858Y-75489068D03*
%TD*%
D16*
%TO.C,K12*%
X172990862Y-74189064D03*
X183990862Y-74189064D03*
D28*
X178490862Y-74189064D03*
D29*
X178490862Y-80089065D03*
X173490862Y-77989064D03*
%TD*%
D16*
%TO.C,K17*%
X154990865Y-88689063D03*
D28*
X160490865Y-88689063D03*
D16*
X165990865Y-88689063D03*
D29*
X160490865Y-94589064D03*
X155490865Y-92489063D03*
%TD*%
D16*
%TO.C,K18*%
X183990866Y-91189061D03*
X172990866Y-91189061D03*
D28*
X178490866Y-91189061D03*
D29*
X178490866Y-97089062D03*
X173490866Y-94989061D03*
%TD*%
D32*
%TO.C,K20*%
X149964739Y-111311586D03*
D16*
X155464739Y-105711586D03*
D28*
X149964739Y-105711586D03*
D33*
X142464739Y-103211586D03*
D34*
X142464739Y-108211586D03*
D35*
X144464739Y-105711586D03*
D34*
X142464739Y-105711586D03*
X156964739Y-108211586D03*
D29*
X149964739Y-99811586D03*
D34*
X156964739Y-103211586D03*
D29*
X154964739Y-101911586D03*
%TD*%
D28*
%TO.C,K2*%
X102280872Y-71943094D03*
D16*
X107697315Y-70988029D03*
X96864429Y-72898159D03*
D29*
X103305396Y-77753461D03*
X98016696Y-76553604D03*
%TD*%
D36*
%TO.C,D20*%
X167207975Y-113835631D03*
X169043234Y-114327387D03*
X168643243Y-112149657D03*
%TD*%
D16*
%TO.C,K22*%
X183206007Y-113488983D03*
D28*
X187969147Y-116238983D03*
D16*
X192732287Y-118988983D03*
D29*
X185019147Y-121348534D03*
X181739020Y-117029880D03*
%TD*%
D37*
%TO.C,D21*%
X198928953Y-131739071D03*
X200272456Y-133082574D03*
X201014918Y-130996609D03*
%TD*%
D31*
%TO.C,D19*%
X164450864Y-98989070D03*
X166350864Y-98989070D03*
X165400864Y-96989070D03*
%TD*%
D16*
%TO.C,K19*%
X191706005Y-98766552D03*
D28*
X196469145Y-101516552D03*
D38*
X199269145Y-96666810D03*
D39*
X201714336Y-107431616D03*
D34*
X204214336Y-103101489D03*
D35*
X201232285Y-104266552D03*
D34*
X202964336Y-105266552D03*
D29*
X193519145Y-106626102D03*
D34*
X191656967Y-95851489D03*
X189156967Y-100181616D03*
D29*
X190239018Y-102307449D03*
%TD*%
D28*
%TO.C,K23*%
X203631215Y-128380308D03*
D16*
X207520302Y-132269395D03*
X199742128Y-124491221D03*
D29*
X207803146Y-124208377D03*
X209853755Y-129228836D03*
%TD*%
D40*
%TO.C,D4*%
X152273202Y-96454987D03*
X152273202Y-97954987D03*
D41*
X157423202Y-97954987D03*
D40*
X157423202Y-96454987D03*
%TD*%
D22*
%TO.C,D1*%
X195737304Y-90644439D03*
X194987304Y-91943477D03*
D23*
X199447334Y-94518477D03*
D22*
X200197334Y-93219439D03*
%TD*%
D42*
%TO.C,J4*%
X202290867Y-50979059D03*
%TD*%
D43*
%TO.C,C1*%
X197040870Y-50909069D03*
X198940870Y-50909069D03*
%TD*%
D44*
%TO.C,SW1*%
X211340866Y-120789060D03*
D45*
X211340866Y-117689060D03*
X211340866Y-123889060D03*
X215040866Y-117689060D03*
X215040866Y-123889060D03*
D44*
X215040866Y-120789060D03*
%TD*%
D16*
%TO.C,K7*%
X82089908Y-92765560D03*
X92922794Y-90855430D03*
D28*
X87506351Y-91810495D03*
D29*
X86481827Y-86000128D03*
X91770527Y-87199985D03*
%TD*%
D46*
%TO.C,SW2*%
X205688911Y-93870610D03*
D47*
X208679727Y-92475969D03*
X209736273Y-94741739D03*
D46*
X206745457Y-96136379D03*
D47*
X210792819Y-97007508D03*
D46*
X207802003Y-98402149D03*
%TD*%
D48*
%TO.C,H3*%
X131903819Y-100555962D03*
D49*
X134723819Y-95495962D03*
D50*
X131353819Y-98905962D03*
D51*
X135003819Y-104105962D03*
X132653819Y-105855962D03*
X135853819Y-101105962D03*
D52*
X130803819Y-106055962D03*
D53*
X127503819Y-109405962D03*
D54*
X127109987Y-110670160D03*
D51*
X132303819Y-102555962D03*
D55*
X130603819Y-108415962D03*
X130603819Y-107905962D03*
D56*
X136583819Y-94155962D03*
D57*
X136303819Y-104155962D03*
%TD*%
D26*
%TO.C,H4*%
X111842403Y-65751727D03*
%TD*%
%TO.C,H5*%
X118703427Y-106452211D03*
%TD*%
%TO.C,H6*%
X198590866Y-118589073D03*
%TD*%
%TO.C,H7*%
X169490866Y-51689062D03*
%TD*%
D58*
%TO.C,J3*%
X193390863Y-50979064D03*
%TD*%
D59*
%TO.C,H30*%
X100240802Y-112045650D03*
%TD*%
%TO.C,H28*%
X85193823Y-112515671D03*
%TD*%
D60*
%TO.C,H24*%
X78023818Y-70545961D03*
%TD*%
D59*
%TO.C,H29*%
X92177848Y-105782514D03*
%TD*%
D43*
%TO.C,C3*%
X187598202Y-87663926D03*
X189498202Y-87663926D03*
%TD*%
%TO.C,C2*%
X187598201Y-93863923D03*
X189498201Y-93863923D03*
%TD*%
D59*
%TO.C,H27*%
X77727848Y-95332514D03*
%TD*%
%TO.C,H31*%
X94527847Y-94132514D03*
%TD*%
D60*
%TO.C,H25*%
X203619919Y-136149962D03*
%TD*%
%TO.C,H23*%
X184219923Y-51949958D03*
%TD*%
D59*
%TO.C,H26*%
X77427848Y-83232515D03*
%TD*%
D28*
%TO.C,K21*%
X169600864Y-108575724D03*
D16*
X174913456Y-109999229D03*
X164288272Y-107152219D03*
D29*
X171127897Y-102876761D03*
X175414006Y-106199301D03*
%TD*%
D61*
%TO.C,U2*%
X189898197Y-91713924D03*
X189898197Y-90763924D03*
X187198197Y-90763924D03*
X187198197Y-91713924D03*
X189898197Y-89813924D03*
X187198197Y-89813924D03*
%TD*%
D62*
X202579829Y-83552153D03*
X202620910Y-63191072D03*
X194324829Y-68312153D03*
X203214829Y-68312153D03*
X201944829Y-83044153D03*
X201944829Y-65645153D03*
X190006829Y-85711153D03*
X193054829Y-55569065D03*
X207086832Y-89329156D03*
X201944829Y-91807153D03*
X202960829Y-98665153D03*
X205565826Y-91364150D03*
X215152829Y-108063153D03*
D63*
X210580829Y-58787153D03*
X199404829Y-61962153D03*
X202960829Y-89521153D03*
D62*
X191907988Y-64860870D03*
X155707994Y-107310877D03*
X168901053Y-68134802D03*
X181647994Y-59890874D03*
X185304829Y-71703153D03*
X190786186Y-72097472D03*
X169491051Y-69808296D03*
X89018459Y-85552847D03*
X191762131Y-69861595D03*
X96815576Y-83739765D03*
X184254829Y-71753153D03*
X190790635Y-74636987D03*
X190740869Y-77179064D03*
X111299972Y-97230670D03*
X186740866Y-81439067D03*
X191904656Y-72488776D03*
X106898879Y-80396099D03*
X157790864Y-63765563D03*
X159348201Y-99763926D03*
X170154829Y-79503153D03*
X191964652Y-75008776D03*
X125711495Y-81023091D03*
X172171125Y-72865050D03*
X170990742Y-80189066D03*
X174004829Y-76253153D03*
X146600862Y-80235563D03*
X191887996Y-77483585D03*
X150948197Y-97163925D03*
X191788795Y-79994928D03*
X171654829Y-80929065D03*
X163537854Y-80919064D03*
X182948201Y-105763921D03*
X194890862Y-104139065D03*
X180704829Y-83353153D03*
X191636654Y-82687023D03*
D63*
X196282983Y-111403300D03*
X158832408Y-98501830D03*
X201930857Y-95139066D03*
X179951846Y-104222426D03*
X192330862Y-58309062D03*
X192330861Y-57019059D03*
X191619924Y-90763927D03*
X203873201Y-101113922D03*
D62*
X188548197Y-90763924D03*
X205223200Y-100713922D03*
X200931007Y-94528925D03*
X195433634Y-110910881D03*
X194130797Y-90450788D03*
X196073198Y-104363924D03*
X196223202Y-94913926D03*
X195390864Y-108689066D03*
X193423201Y-102138924D03*
X188894989Y-107184969D03*
X180391846Y-102902436D03*
X158573301Y-97214580D03*
X172771847Y-100622436D03*
X170452908Y-99892506D03*
X190740864Y-79710111D03*
X158537420Y-105367461D03*
X168961057Y-68974797D03*
X192071058Y-67464798D03*
X94409495Y-67613724D03*
X101903680Y-109670815D03*
X97369763Y-84454388D03*
D63*
X192230863Y-54299063D03*
X188116099Y-106417555D03*
X193170864Y-89909071D03*
X150216247Y-97811877D03*
X171731843Y-101082431D03*
D62*
X190790865Y-69539062D03*
X190690868Y-82239067D03*
X164630863Y-109859066D03*
X185850866Y-117561875D03*
X191450866Y-124299061D03*
M02*
