M48
; DRILL file {KiCad (6.0.8)} date Mon 10 Oct 2022 08:06:03 PM PDT
; FORMAT={-:-/ absolute / inch / decimal}
; #@! TF.CreationDate,2022-10-10T20:06:03-07:00
; #@! TF.GenerationSoftware,Kicad,Pcbnew,(6.0.8)
; #@! TF.FileFunction,NonPlated,1,2,NPTH
FMAT,2
INCH
; #@! TA.AperFunction,NonPlated,NPTH,ComponentDrill
T1C0.0394
; #@! TA.AperFunction,NonPlated,NPTH,ComponentDrill
T2C0.0454
; #@! TA.AperFunction,NonPlated,NPTH,ComponentDrill
T3C0.0472
; #@! TA.AperFunction,NonPlated,NPTH,ComponentDrill
T4C0.0591
; #@! TA.AperFunction,NonPlated,NPTH,ComponentDrill
T5C0.0669
; #@! TA.AperFunction,NonPlated,NPTH,ComponentDrill
T6C0.1339
%
G90
G05
T1
X3.0483Y-3.2769
X3.0602Y-3.7532
X3.3541Y-4.4298
X3.629Y-4.1647
X3.7216Y-3.706
X3.9465Y-4.4112
T2
X3.0718Y-2.7774
X7.2528Y-2.0453
X8.0165Y-5.3602
T3
X8.1288Y-4.3819
X8.1288Y-4.4508
X8.4044Y-4.3819
X8.4044Y-4.4508
T5
X3.1157Y-2.9931
X3.2319Y-3.6522
X3.3481Y-4.3113
X3.5422Y-2.9179
X3.6584Y-3.577
X3.7746Y-4.2361
X3.8136Y-2.87
X3.9298Y-3.5291
X4.046Y-4.1883
X4.2401Y-2.7948
X4.3563Y-3.4539
X4.4725Y-4.1131
X4.5654Y-2.2355
X4.6237Y-2.9022
X4.6821Y-3.5689
X4.9968Y-2.1977
X5.0552Y-2.8645
X5.1135Y-3.5312
X5.3933Y-2.6059
X5.3933Y-3.2752
X5.3933Y-1.9366
X5.8264Y-2.6059
X5.8264Y-3.2752
X5.8264Y-1.9366
X6.102Y-2.8224
X6.102Y-3.4917
X6.102Y-2.1531
X6.1207Y-4.1619
X6.468Y-4.2186
X6.5351Y-2.8224
X6.5351Y-3.4917
X6.5351Y-2.1531
X6.8107Y-2.9208
X6.8107Y-3.5901
X6.8107Y-2.2515
X6.8864Y-4.3307
X7.2128Y-4.4681
X7.2437Y-2.9208
X7.2437Y-3.5901
X7.2437Y-2.2515
X7.5475Y-3.8884
X7.5879Y-4.6846
X7.8639Y-4.9012
X8.1701Y-5.2075
T6
X3.3289Y-2.9555
X3.4451Y-3.6146
X3.5614Y-4.2737
X4.0268Y-2.8324
X4.143Y-3.4915
X4.2592Y-4.1507
X4.7811Y-2.2166
X4.8395Y-2.8833
X4.8978Y-3.5501
X5.6099Y-2.6059
X5.6099Y-3.2752
X5.6099Y-1.9366
X5.9041Y-4.1619
X6.3185Y-2.8224
X6.3185Y-3.4917
X6.3185Y-2.1531
X6.6772Y-4.2746
X7.0272Y-2.9208
X7.0272Y-3.5901
X7.0272Y-2.2515
X7.4004Y-4.5763
X7.735Y-3.9967
X8.017Y-5.0543
T4
G00X5.8785Y-4.3823
M15
G01X5.9297Y-4.3823
M16
G05
G00X7.8674Y-3.8186
M15
G01X7.8231Y-3.793
M16
G05
T0
M30
