M48
; DRILL file {KiCad (6.0.8)} date Mon 10 Oct 2022 08:06:03 PM PDT
; FORMAT={-:-/ absolute / inch / decimal}
; #@! TF.CreationDate,2022-10-10T20:06:03-07:00
; #@! TF.GenerationSoftware,Kicad,Pcbnew,(6.0.8)
; #@! TF.FileFunction,Plated,1,2,PTH
FMAT,2
INCH
; #@! TA.AperFunction,Plated,PTH,ViaDrill
T1C0.0157
; #@! TA.AperFunction,Plated,PTH,ComponentDrill
T2C0.0157
; #@! TA.AperFunction,Plated,PTH,ComponentDrill
T3C0.0276
; #@! TA.AperFunction,Plated,PTH,ComponentDrill
T4C0.0320
; #@! TA.AperFunction,Plated,PTH,ComponentDrill
T5C0.0354
; #@! TA.AperFunction,Plated,PTH,ComponentDrill
T6C0.0394
; #@! TA.AperFunction,Plated,PTH,ComponentDrill
T7C0.0620
; #@! TA.AperFunction,Plated,PTH,ComponentDrill
T8C0.0669
; #@! TA.AperFunction,Plated,PTH,ComponentDrill
T9C0.0866
%
G90
G05
T1
X3.5047Y-3.3682
X3.7169Y-2.662
X3.8116Y-3.2968
X3.8335Y-3.325
X4.012Y-4.3177
X4.2086Y-3.1652
X4.3819Y-3.828
X4.9493Y-3.1899
X5.7717Y-3.1589
X5.914Y-3.8509
X5.9428Y-3.8254
X6.1302Y-4.2248
X6.2122Y-2.5105
X6.2416Y-4.1483
X6.243Y-3.8273
X6.2532Y-3.878
X6.2736Y-3.9277
X6.4385Y-3.1858
X6.4815Y-4.3252
X6.6496Y-2.6825
X6.652Y-2.7155
X6.6729Y-2.7484
X6.699Y-3.13
X6.7107Y-3.9328
X6.7319Y-3.157
X6.7581Y-3.1862
X6.7611Y-3.9796
X6.7784Y-2.8687
X6.802Y-3.9615
X6.8506Y-3.0021
X7.0847Y-4.1032
X7.102Y-4.0513
X7.1144Y-3.2816
X7.1515Y-2.3579
X7.2027Y-4.1639
X7.2541Y-2.8249
X7.2955Y-2.823
X7.317Y-4.6284
X7.352Y-3.2063
X7.4061Y-4.1897
X7.4232Y-3.5734
X7.4368Y-4.2199
X7.4806Y-3.3745
X7.5075Y-3.2378
X7.5095Y-3.1382
X7.5095Y-3.0385
X7.5113Y-2.8385
X7.5114Y-2.9385
X7.5115Y-2.7378
X7.5374Y-4.8937
X7.5441Y-3.5734
X7.5448Y-3.2554
X7.5497Y-2.7505
X7.5507Y-3.1494
X7.5546Y-3.0505
X7.5553Y-2.8539
X7.5554Y-2.5536
X7.5577Y-2.9531
X7.5619Y-2.6561
X7.5681Y-2.1378
X7.5721Y-2.2448
X7.5721Y-2.2956
X7.6006Y-2.1878
X7.6052Y-3.5397
X7.6151Y-4.0212
X7.6429Y-3.5611
X7.6506Y-2.6895
X7.6729Y-4.1
X7.6926Y-4.2791
X7.6942Y-4.3666
X7.7194Y-4.1088
X7.7253Y-3.7368
X7.7277Y-4.386
X7.8506Y-2.4395
X7.9107Y-3.7216
X7.95Y-3.7456
X7.9506Y-2.5845
X7.9506Y-3.2695
X7.9506Y-3.6145
X7.9756Y-3.2895
X7.9772Y-2.4878
X7.9906Y-3.5245
X7.9906Y-3.8845
X8.0006Y-2.6895
X8.0265Y-3.9809
X8.0797Y-3.9651
X8.0931Y-3.597
X8.153Y-3.5169
X8.2906Y-2.3145
X8.4706Y-4.2545
T2
X3.9404Y-2.7277
X3.9796Y-2.5649
X4.0569Y-3.3888
X4.0722Y-2.7045
X4.0962Y-3.2259
X4.1888Y-3.3655
X4.2378Y-4.4143
X4.277Y-4.2515
X4.3696Y-4.391
X4.7043Y-2.1067
X4.7576Y-1.9479
X4.7627Y-2.7735
X4.816Y-2.6147
X4.821Y-3.4402
X4.8377Y-2.0951
X4.8743Y-3.2814
X4.896Y-2.7618
X4.9543Y-3.4285
X6.2516Y-2.037
X6.2516Y-2.7063
X6.2516Y-3.3756
X6.3185Y-1.8834
X6.3185Y-2.5527
X6.3185Y-3.222
X6.3855Y-2.037
X6.3855Y-2.7063
X6.3855Y-3.3756
X6.4107Y-4.0433
X6.4449Y-3.9267
X6.5118Y-3.7732
X6.5468Y-4.5026
X6.5788Y-3.9267
X6.6512Y-4.3716
X6.6761Y-4.5372
X7.3405Y-3.6954
X7.3405Y-3.4513
X7.3641Y-4.282
X7.4181Y-3.7854
X7.4378Y-3.313
X7.5058Y-3.6954
X7.5058Y-3.4513
X7.6768Y-4.7299
X7.7122Y-2.0043
X7.7901Y-5.1866
X7.8776Y-2.0043
X7.8847Y-5.2812
X7.946Y-5.1253
T3
X8.3205Y-4.7555
X8.4662Y-4.7555
T4
X7.4646Y-2.1378
X7.4646Y-2.2378
X7.4646Y-2.3378
X7.4646Y-2.4378
X7.4646Y-2.5378
X7.4646Y-2.6378
X7.4646Y-2.7378
X7.4646Y-2.8378
X7.4646Y-2.9378
X7.4646Y-3.0378
X7.4646Y-3.1378
X7.4646Y-3.2378
X7.5168Y-2.0878
X7.5168Y-2.1878
X7.5168Y-2.2878
X7.5168Y-2.3878
X7.5168Y-2.4878
X7.5168Y-2.5878
X7.5168Y-2.6878
X7.5168Y-2.7878
X7.5168Y-2.8878
X7.5168Y-2.9878
X7.5168Y-3.0878
X7.5168Y-3.1878
X7.6138Y-2.007
X7.9642Y-2.007
X8.0646Y-2.1378
X8.0646Y-2.2378
X8.0646Y-2.3378
X8.0646Y-2.4378
X8.0646Y-2.5378
X8.0646Y-2.6378
X8.0646Y-2.7378
X8.0646Y-2.8378
X8.0646Y-2.9378
X8.0646Y-3.0378
X8.0646Y-3.1378
X8.0646Y-3.2378
X8.116Y-2.0878
X8.116Y-2.1878
X8.116Y-2.2878
X8.116Y-2.3878
X8.116Y-2.4878
X8.116Y-2.5878
X8.116Y-2.6878
X8.116Y-2.7878
X8.116Y-2.8878
X8.116Y-2.9878
X8.116Y-3.0878
X8.116Y-3.1878
T5
X8.098Y-3.6957
X8.1396Y-3.7849
X8.1812Y-3.8741
X8.2157Y-3.6408
X8.2573Y-3.73
X8.2989Y-3.8192
T6
X5.6088Y-4.0634
X5.6088Y-4.1619
X5.6088Y-4.2603
X6.1797Y-4.0634
X6.1797Y-4.2603
X7.4471Y-3.9442
X7.5455Y-3.7737
X7.6089Y-3.4269
X7.6489Y-3.3469
X7.7089Y-3.4269
X7.7489Y-3.3469
X7.8089Y-3.4269
X7.8489Y-3.3469
X7.9089Y-3.4269
X7.9415Y-4.2296
X7.9489Y-3.3469
X7.9907Y-4.1444
X8.0089Y-3.4269
X8.0399Y-4.0591
X8.0489Y-3.3469
T7
X3.161Y-3.137
X3.2253Y-3.5014
X3.3415Y-4.1606
X3.3692Y-3.1842
X3.4048Y-3.3858
X3.521Y-4.045
X3.5487Y-3.0686
X3.613Y-3.4331
X3.7292Y-4.0922
X3.8589Y-3.0139
X3.9751Y-3.673
X4.0394Y-4.0375
X4.0671Y-3.0612
X4.1834Y-3.7203
X4.2189Y-3.9219
X4.2466Y-2.9456
X4.3629Y-3.6047
X4.4271Y-3.9691
X4.5981Y-2.3828
X4.6564Y-3.0495
X4.7147Y-3.7163
X4.8014Y-2.448
X4.8597Y-3.1147
X4.918Y-3.7815
X4.9903Y-2.3485
X5.0486Y-3.0152
X5.1069Y-3.682
X5.413Y-2.7555
X5.413Y-3.4248
X5.413Y-2.0862
X5.6099Y-2.8382
X5.6099Y-3.5074
X5.6099Y-2.1689
X5.7073Y-4.0123
X5.8067Y-2.7555
X5.8067Y-3.4248
X5.8067Y-2.0862
X5.9041Y-3.9296
X6.101Y-4.0123
X6.1217Y-2.972
X6.1217Y-3.6413
X6.1217Y-2.3027
X6.3185Y-3.0547
X6.3185Y-3.724
X6.3185Y-2.3854
X6.5154Y-2.972
X6.5154Y-3.6413
X6.5154Y-2.3027
X6.5258Y-4.0792
X6.7373Y-4.0503
X6.8303Y-3.0704
X6.8303Y-3.7397
X6.8303Y-2.4011
X6.9061Y-4.1811
X7.0272Y-3.1531
X7.0272Y-3.8224
X7.0272Y-2.4838
X7.1551Y-4.6075
X7.224Y-3.0704
X7.224Y-3.7397
X7.2241Y-2.4011
X7.2842Y-4.7775
X7.4897Y-4.0279
X7.496Y-4.8043
X7.6189Y-4.1979
X7.8307Y-4.2247
X7.9836Y-4.8094
X8.1812Y-4.8901
X8.262Y-5.0877
T8
X5.6876Y-4.1619
X7.9225Y-4.105
T9
X4.4032Y-2.5887
X4.6734Y-4.191
X5.2146Y-2.5846
X5.9646Y-1.8346
X5.9646Y-3.3346
X6.6729Y-2.035
X6.7146Y-2.5846
X7.8185Y-4.6689
T6
G00X8.0087Y-4.3681
M15
G01X7.989Y-4.3681
M16
G05
G00X8.0087Y-4.4645
M15
G01X7.989Y-4.4645
M16
G05
G00X8.0678Y-4.2992
M15
G01X8.0481Y-4.2992
M16
G05
G00X8.0678Y-4.5334
M15
G01X8.0481Y-4.5334
M16
G05
G00X8.2252Y-4.2992
M15
G01X8.2055Y-4.2992
M16
G05
G00X8.2252Y-4.5334
M15
G01X8.2055Y-4.5334
M16
G05
G00X8.3433Y-4.2992
M15
G01X8.3237Y-4.2992
M16
G05
G00X8.3433Y-4.5334
M15
G01X8.3237Y-4.5334
M16
G05
T0
M30
