%TF.GenerationSoftware,KiCad,Pcbnew,(6.0.8)*%
%TF.CreationDate,2022-10-10T20:06:03-07:00*%
%TF.ProjectId,hillside46,68696c6c-7369-4646-9534-362e6b696361,0.1.0*%
%TF.SameCoordinates,Original*%
%TF.FileFunction,Other,Comment*%
%FSLAX46Y46*%
G04 Gerber Fmt 4.6, Leading zero omitted, Abs format (unit mm)*
G04 Created by KiCad (PCBNEW (6.0.8)) date 2022-10-10 20:06:03*
%MOMM*%
%LPD*%
G01*
G04 APERTURE LIST*
%ADD10C,0.030000*%
%ADD11C,0.120000*%
%ADD12C,0.150000*%
G04 APERTURE END LIST*
D10*
%TO.C,SW1*%
X213481342Y-119370012D02*
X213281342Y-119370012D01*
X213481342Y-119255726D01*
X213281342Y-119255726D01*
X213481342Y-119131917D02*
X213471818Y-119150964D01*
X213462294Y-119160488D01*
X213443246Y-119170012D01*
X213386104Y-119170012D01*
X213367056Y-119160488D01*
X213357532Y-119150964D01*
X213348008Y-119131917D01*
X213348008Y-119103345D01*
X213357532Y-119084298D01*
X213367056Y-119074774D01*
X213386104Y-119065250D01*
X213443246Y-119065250D01*
X213462294Y-119074774D01*
X213471818Y-119084298D01*
X213481342Y-119103345D01*
X213481342Y-119131917D01*
X213376580Y-118760488D02*
X213376580Y-118827155D01*
X213481342Y-118827155D02*
X213281342Y-118827155D01*
X213281342Y-118731917D01*
X213462294Y-118655726D02*
X213471818Y-118646202D01*
X213481342Y-118655726D01*
X213471818Y-118665250D01*
X213462294Y-118655726D01*
X213481342Y-118655726D01*
X213462294Y-118446202D02*
X213471818Y-118455726D01*
X213481342Y-118484298D01*
X213481342Y-118503345D01*
X213471818Y-118531917D01*
X213452770Y-118550964D01*
X213433723Y-118560488D01*
X213395627Y-118570012D01*
X213367056Y-118570012D01*
X213328961Y-118560488D01*
X213309913Y-118550964D01*
X213290866Y-118531917D01*
X213281342Y-118503345D01*
X213281342Y-118484298D01*
X213290866Y-118455726D01*
X213300389Y-118446202D01*
X213348008Y-118274774D02*
X213481342Y-118274774D01*
X213348008Y-118360488D02*
X213452770Y-118360488D01*
X213471818Y-118350964D01*
X213481342Y-118331917D01*
X213481342Y-118303345D01*
X213471818Y-118284298D01*
X213462294Y-118274774D01*
X213348008Y-118055726D02*
X213348008Y-117979536D01*
X213281342Y-118027155D02*
X213452770Y-118027155D01*
X213471818Y-118017631D01*
X213481342Y-117998583D01*
X213481342Y-117979536D01*
X213481342Y-117912869D02*
X213348008Y-117912869D01*
X213386104Y-117912869D02*
X213367056Y-117903345D01*
X213357532Y-117893821D01*
X213348008Y-117874774D01*
X213348008Y-117855726D01*
X213481342Y-117703345D02*
X213376580Y-117703345D01*
X213357532Y-117712869D01*
X213348008Y-117731917D01*
X213348008Y-117770012D01*
X213357532Y-117789060D01*
X213471818Y-117703345D02*
X213481342Y-117722393D01*
X213481342Y-117770012D01*
X213471818Y-117789060D01*
X213452770Y-117798583D01*
X213433723Y-117798583D01*
X213414675Y-117789060D01*
X213405151Y-117770012D01*
X213405151Y-117722393D01*
X213395627Y-117703345D01*
X213471818Y-117522393D02*
X213481342Y-117541440D01*
X213481342Y-117579536D01*
X213471818Y-117598583D01*
X213462294Y-117608107D01*
X213443246Y-117617631D01*
X213386104Y-117617631D01*
X213367056Y-117608107D01*
X213357532Y-117598583D01*
X213348008Y-117579536D01*
X213348008Y-117541440D01*
X213357532Y-117522393D01*
X213481342Y-117436679D02*
X213281342Y-117436679D01*
X213405151Y-117417631D02*
X213481342Y-117360488D01*
X213348008Y-117360488D02*
X213424199Y-117436679D01*
X213471818Y-117284298D02*
X213481342Y-117265250D01*
X213481342Y-117227155D01*
X213471818Y-117208107D01*
X213452770Y-117198583D01*
X213443246Y-117198583D01*
X213424199Y-117208107D01*
X213414675Y-117227155D01*
X213414675Y-117255726D01*
X213405151Y-117274774D01*
X213386104Y-117284298D01*
X213376580Y-117284298D01*
X213357532Y-117274774D01*
X213348008Y-117255726D01*
X213348008Y-117227155D01*
X213357532Y-117208107D01*
X213081342Y-119503345D02*
X212881342Y-119503345D01*
X213081342Y-119389060D02*
X212967056Y-119474774D01*
X212881342Y-119389060D02*
X212995627Y-119503345D01*
X212976580Y-119303345D02*
X212976580Y-119236679D01*
X213081342Y-119208107D02*
X213081342Y-119303345D01*
X212881342Y-119303345D01*
X212881342Y-119208107D01*
X212976580Y-119122393D02*
X212976580Y-119055726D01*
X213081342Y-119027155D02*
X213081342Y-119122393D01*
X212881342Y-119122393D01*
X212881342Y-119027155D01*
X213081342Y-118941440D02*
X212881342Y-118941440D01*
X212881342Y-118865250D01*
X212890866Y-118846202D01*
X212900389Y-118836679D01*
X212919437Y-118827155D01*
X212948008Y-118827155D01*
X212967056Y-118836679D01*
X212976580Y-118846202D01*
X212986104Y-118865250D01*
X212986104Y-118941440D01*
X213005151Y-118741440D02*
X213005151Y-118589060D01*
X212881342Y-118455726D02*
X212881342Y-118417631D01*
X212890866Y-118398583D01*
X212909913Y-118379536D01*
X212948008Y-118370012D01*
X213014675Y-118370012D01*
X213052770Y-118379536D01*
X213071818Y-118398583D01*
X213081342Y-118417631D01*
X213081342Y-118455726D01*
X213071818Y-118474774D01*
X213052770Y-118493821D01*
X213014675Y-118503345D01*
X212948008Y-118503345D01*
X212909913Y-118493821D01*
X212890866Y-118474774D01*
X212881342Y-118455726D01*
X212881342Y-118284298D02*
X213043246Y-118284298D01*
X213062294Y-118274774D01*
X213071818Y-118265250D01*
X213081342Y-118246202D01*
X213081342Y-118208107D01*
X213071818Y-118189060D01*
X213062294Y-118179536D01*
X213043246Y-118170012D01*
X212881342Y-118170012D01*
X212881342Y-118103345D02*
X212881342Y-117989060D01*
X213081342Y-118046202D02*
X212881342Y-118046202D01*
X212881342Y-117789060D02*
X212881342Y-117655726D01*
X213081342Y-117789060D01*
X213081342Y-117655726D01*
X212881342Y-117541440D02*
X212881342Y-117503345D01*
X212890866Y-117484298D01*
X212909913Y-117465250D01*
X212948008Y-117455726D01*
X213014675Y-117455726D01*
X213052770Y-117465250D01*
X213071818Y-117484298D01*
X213081342Y-117503345D01*
X213081342Y-117541440D01*
X213071818Y-117560488D01*
X213052770Y-117579536D01*
X213014675Y-117589060D01*
X212948008Y-117589060D01*
X212909913Y-117579536D01*
X212890866Y-117560488D01*
X212881342Y-117541440D01*
X213081342Y-117370012D02*
X212881342Y-117370012D01*
X213081342Y-117255726D01*
X212881342Y-117255726D01*
X212976580Y-117160488D02*
X212976580Y-117093821D01*
X213081342Y-117065250D02*
X213081342Y-117160488D01*
X212881342Y-117160488D01*
X212881342Y-117065250D01*
X213081342Y-124503345D02*
X212881342Y-124503345D01*
X213081342Y-124389060D02*
X212967056Y-124474774D01*
X212881342Y-124389060D02*
X212995627Y-124503345D01*
X212976580Y-124303345D02*
X212976580Y-124236679D01*
X213081342Y-124208107D02*
X213081342Y-124303345D01*
X212881342Y-124303345D01*
X212881342Y-124208107D01*
X212976580Y-124122393D02*
X212976580Y-124055726D01*
X213081342Y-124027155D02*
X213081342Y-124122393D01*
X212881342Y-124122393D01*
X212881342Y-124027155D01*
X213081342Y-123941440D02*
X212881342Y-123941440D01*
X212881342Y-123865250D01*
X212890866Y-123846202D01*
X212900389Y-123836679D01*
X212919437Y-123827155D01*
X212948008Y-123827155D01*
X212967056Y-123836679D01*
X212976580Y-123846202D01*
X212986104Y-123865250D01*
X212986104Y-123941440D01*
X213005151Y-123741440D02*
X213005151Y-123589060D01*
X212881342Y-123455726D02*
X212881342Y-123417631D01*
X212890866Y-123398583D01*
X212909913Y-123379536D01*
X212948008Y-123370012D01*
X213014675Y-123370012D01*
X213052770Y-123379536D01*
X213071818Y-123398583D01*
X213081342Y-123417631D01*
X213081342Y-123455726D01*
X213071818Y-123474774D01*
X213052770Y-123493821D01*
X213014675Y-123503345D01*
X212948008Y-123503345D01*
X212909913Y-123493821D01*
X212890866Y-123474774D01*
X212881342Y-123455726D01*
X212881342Y-123284298D02*
X213043246Y-123284298D01*
X213062294Y-123274774D01*
X213071818Y-123265250D01*
X213081342Y-123246202D01*
X213081342Y-123208107D01*
X213071818Y-123189060D01*
X213062294Y-123179536D01*
X213043246Y-123170012D01*
X212881342Y-123170012D01*
X212881342Y-123103345D02*
X212881342Y-122989060D01*
X213081342Y-123046202D02*
X212881342Y-123046202D01*
X212881342Y-122789060D02*
X212881342Y-122655726D01*
X213081342Y-122789060D01*
X213081342Y-122655726D01*
X212881342Y-122541440D02*
X212881342Y-122503345D01*
X212890866Y-122484298D01*
X212909913Y-122465250D01*
X212948008Y-122455726D01*
X213014675Y-122455726D01*
X213052770Y-122465250D01*
X213071818Y-122484298D01*
X213081342Y-122503345D01*
X213081342Y-122541440D01*
X213071818Y-122560488D01*
X213052770Y-122579536D01*
X213014675Y-122589060D01*
X212948008Y-122589060D01*
X212909913Y-122579536D01*
X212890866Y-122560488D01*
X212881342Y-122541440D01*
X213081342Y-122370012D02*
X212881342Y-122370012D01*
X213081342Y-122255726D01*
X212881342Y-122255726D01*
X212976580Y-122160488D02*
X212976580Y-122093821D01*
X213081342Y-122065250D02*
X213081342Y-122160488D01*
X212881342Y-122160488D01*
X212881342Y-122065250D01*
X213481342Y-124370012D02*
X213281342Y-124370012D01*
X213481342Y-124255726D01*
X213281342Y-124255726D01*
X213481342Y-124131917D02*
X213471818Y-124150964D01*
X213462294Y-124160488D01*
X213443246Y-124170012D01*
X213386104Y-124170012D01*
X213367056Y-124160488D01*
X213357532Y-124150964D01*
X213348008Y-124131917D01*
X213348008Y-124103345D01*
X213357532Y-124084298D01*
X213367056Y-124074774D01*
X213386104Y-124065250D01*
X213443246Y-124065250D01*
X213462294Y-124074774D01*
X213471818Y-124084298D01*
X213481342Y-124103345D01*
X213481342Y-124131917D01*
X213376580Y-123760488D02*
X213376580Y-123827155D01*
X213481342Y-123827155D02*
X213281342Y-123827155D01*
X213281342Y-123731917D01*
X213462294Y-123655726D02*
X213471818Y-123646202D01*
X213481342Y-123655726D01*
X213471818Y-123665250D01*
X213462294Y-123655726D01*
X213481342Y-123655726D01*
X213462294Y-123446202D02*
X213471818Y-123455726D01*
X213481342Y-123484298D01*
X213481342Y-123503345D01*
X213471818Y-123531917D01*
X213452770Y-123550964D01*
X213433723Y-123560488D01*
X213395627Y-123570012D01*
X213367056Y-123570012D01*
X213328961Y-123560488D01*
X213309913Y-123550964D01*
X213290866Y-123531917D01*
X213281342Y-123503345D01*
X213281342Y-123484298D01*
X213290866Y-123455726D01*
X213300389Y-123446202D01*
X213348008Y-123274774D02*
X213481342Y-123274774D01*
X213348008Y-123360488D02*
X213452770Y-123360488D01*
X213471818Y-123350964D01*
X213481342Y-123331917D01*
X213481342Y-123303345D01*
X213471818Y-123284298D01*
X213462294Y-123274774D01*
X213348008Y-123055726D02*
X213348008Y-122979536D01*
X213281342Y-123027155D02*
X213452770Y-123027155D01*
X213471818Y-123017631D01*
X213481342Y-122998583D01*
X213481342Y-122979536D01*
X213481342Y-122912869D02*
X213348008Y-122912869D01*
X213386104Y-122912869D02*
X213367056Y-122903345D01*
X213357532Y-122893821D01*
X213348008Y-122874774D01*
X213348008Y-122855726D01*
X213481342Y-122703345D02*
X213376580Y-122703345D01*
X213357532Y-122712869D01*
X213348008Y-122731917D01*
X213348008Y-122770012D01*
X213357532Y-122789060D01*
X213471818Y-122703345D02*
X213481342Y-122722393D01*
X213481342Y-122770012D01*
X213471818Y-122789060D01*
X213452770Y-122798583D01*
X213433723Y-122798583D01*
X213414675Y-122789060D01*
X213405151Y-122770012D01*
X213405151Y-122722393D01*
X213395627Y-122703345D01*
X213471818Y-122522393D02*
X213481342Y-122541440D01*
X213481342Y-122579536D01*
X213471818Y-122598583D01*
X213462294Y-122608107D01*
X213443246Y-122617631D01*
X213386104Y-122617631D01*
X213367056Y-122608107D01*
X213357532Y-122598583D01*
X213348008Y-122579536D01*
X213348008Y-122541440D01*
X213357532Y-122522393D01*
X213481342Y-122436679D02*
X213281342Y-122436679D01*
X213405151Y-122417631D02*
X213481342Y-122360488D01*
X213348008Y-122360488D02*
X213424199Y-122436679D01*
X213471818Y-122284298D02*
X213481342Y-122265250D01*
X213481342Y-122227155D01*
X213471818Y-122208107D01*
X213452770Y-122198583D01*
X213443246Y-122198583D01*
X213424199Y-122208107D01*
X213414675Y-122227155D01*
X213414675Y-122255726D01*
X213405151Y-122274774D01*
X213386104Y-122284298D01*
X213376580Y-122284298D01*
X213357532Y-122274774D01*
X213348008Y-122255726D01*
X213348008Y-122227155D01*
X213357532Y-122208107D01*
D11*
%TO.C,D3*%
X175322379Y-99878790D02*
X178413342Y-100707011D01*
X178413342Y-100707011D02*
X177688649Y-103411604D01*
X174597686Y-102583383D02*
X175322379Y-99878790D01*
X177688649Y-103411604D02*
X174597686Y-102583383D01*
%TO.C,D2*%
X191472397Y-107055508D02*
X194243679Y-108655508D01*
X192843679Y-111080380D02*
X190072397Y-109480380D01*
X190072397Y-109480380D02*
X191472397Y-107055508D01*
X194243679Y-108655508D02*
X192843679Y-111080380D01*
D12*
%TO.C,K13*%
X84201024Y-116255837D02*
X81943598Y-103453336D01*
X82754757Y-102294880D02*
X95557258Y-100037454D01*
X96229018Y-101543687D02*
X98278067Y-113164418D01*
X83449831Y-102781576D02*
X95070562Y-100732527D01*
X97466907Y-114322874D02*
X85846176Y-116371923D01*
X96715714Y-100848613D02*
X98973140Y-113651114D01*
X98161981Y-114809570D02*
X85359480Y-117066996D01*
X84687720Y-115560763D02*
X82638671Y-103940032D01*
X84687720Y-115560763D02*
G75*
G03*
X85846176Y-116371923I984807J173647D01*
G01*
X97466907Y-114322874D02*
G75*
G03*
X98278067Y-113164418I-173648J984808D01*
G01*
X96715713Y-100848613D02*
G75*
G03*
X95557258Y-100037454I-984807J-173648D01*
G01*
X82754757Y-102294881D02*
G75*
G03*
X81943598Y-103453336I173647J-984806D01*
G01*
X98161981Y-114809569D02*
G75*
G03*
X98973140Y-113651114I-173648J984807D01*
G01*
X83449831Y-102781576D02*
G75*
G03*
X82638671Y-103940032I173647J-984807D01*
G01*
X96229018Y-101543687D02*
G75*
G03*
X95070562Y-100732527I-984808J-173648D01*
G01*
X84201025Y-116255837D02*
G75*
G03*
X85359480Y-117066996I984806J173647D01*
G01*
%TO.C,K14*%
X100481294Y-99169209D02*
X113283795Y-96911783D01*
X113955555Y-98418016D02*
X116004604Y-110038747D01*
X101176368Y-99655905D02*
X112797099Y-97606856D01*
X102414257Y-112435092D02*
X100365208Y-100814361D01*
X115193444Y-111197203D02*
X103572713Y-113246252D01*
X114442251Y-97722942D02*
X116699677Y-110525443D01*
X115888518Y-111683899D02*
X103086017Y-113941325D01*
X101927561Y-113130166D02*
X99670135Y-100327665D01*
X114442250Y-97722942D02*
G75*
G03*
X113283795Y-96911783I-984807J-173648D01*
G01*
X101176368Y-99655905D02*
G75*
G03*
X100365208Y-100814361I173647J-984807D01*
G01*
X100481294Y-99169210D02*
G75*
G03*
X99670135Y-100327665I173647J-984806D01*
G01*
X102414257Y-112435092D02*
G75*
G03*
X103572713Y-113246252I984807J173647D01*
G01*
X115888518Y-111683898D02*
G75*
G03*
X116699677Y-110525443I-173648J984807D01*
G01*
X115193444Y-111197203D02*
G75*
G03*
X116004604Y-110038747I-173648J984808D01*
G01*
X113955555Y-98418016D02*
G75*
G03*
X112797099Y-97606856I-984808J-173648D01*
G01*
X101927562Y-113130166D02*
G75*
G03*
X103086017Y-113941325I984806J173647D01*
G01*
%TO.C,K1*%
X90811680Y-67365144D02*
X93069106Y-80167645D01*
X78296990Y-82772368D02*
X76039564Y-69969867D01*
X90324984Y-68060218D02*
X92374033Y-79680949D01*
X78783686Y-82077294D02*
X76734637Y-70456563D01*
X77545797Y-69298107D02*
X89166528Y-67249058D01*
X92257947Y-81326101D02*
X79455446Y-83583527D01*
X76850723Y-68811411D02*
X89653224Y-66553985D01*
X91562873Y-80839405D02*
X79942142Y-82888454D01*
X76850723Y-68811412D02*
G75*
G03*
X76039564Y-69969867I173648J-984807D01*
G01*
X90811679Y-67365144D02*
G75*
G03*
X89653224Y-66553985I-984806J-173647D01*
G01*
X91562873Y-80839405D02*
G75*
G03*
X92374033Y-79680949I-173647J984807D01*
G01*
X92257947Y-81326100D02*
G75*
G03*
X93069106Y-80167645I-173647J984806D01*
G01*
X90324984Y-68060218D02*
G75*
G03*
X89166528Y-67249058I-984807J-173647D01*
G01*
X78296991Y-82772368D02*
G75*
G03*
X79455446Y-83583527I984807J173648D01*
G01*
X77545797Y-69298107D02*
G75*
G03*
X76734637Y-70456563I173648J-984808D01*
G01*
X78783686Y-82077294D02*
G75*
G03*
X79942142Y-82888454I984808J173648D01*
G01*
%TO.C,K3*%
X114311657Y-49396307D02*
X127262188Y-48263282D01*
X127800116Y-49822332D02*
X128828553Y-61577429D01*
X114961668Y-49941730D02*
X126716765Y-48913293D01*
X128569525Y-63206203D02*
X115618994Y-64339228D01*
X128345539Y-49172321D02*
X129478564Y-62122852D01*
X114535643Y-63430189D02*
X113402618Y-50479658D01*
X115081066Y-62780178D02*
X114052629Y-51025081D01*
X127919514Y-62660780D02*
X116164417Y-63689217D01*
X127800115Y-49822332D02*
G75*
G03*
X126716765Y-48913293I-996193J-87154D01*
G01*
X127919514Y-62660779D02*
G75*
G03*
X128828553Y-61577429I-87154J996193D01*
G01*
X114535643Y-63430189D02*
G75*
G03*
X115618994Y-64339228I996195J87156D01*
G01*
X128345539Y-49172321D02*
G75*
G03*
X127262188Y-48263282I-996194J-87155D01*
G01*
X114961668Y-49941731D02*
G75*
G03*
X114052629Y-51025081I87155J-996194D01*
G01*
X128569525Y-63206203D02*
G75*
G03*
X129478564Y-62122852I-87155J996194D01*
G01*
X114311657Y-49396307D02*
G75*
G03*
X113402618Y-50479658I87156J-996195D01*
G01*
X115081067Y-62780178D02*
G75*
G03*
X116164417Y-63689217I996194J87155D01*
G01*
%TO.C,K4*%
X149390869Y-43289062D02*
X149390869Y-55089062D01*
X134990869Y-55689062D02*
X134990869Y-42689062D01*
X149990869Y-42689062D02*
X149990869Y-55689062D01*
X136590869Y-42289062D02*
X148390869Y-42289062D01*
X135590869Y-55089062D02*
X135590869Y-43289062D01*
X148390869Y-56089062D02*
X136590869Y-56089062D01*
X135990869Y-41689062D02*
X148990869Y-41689062D01*
X148990869Y-56689062D02*
X135990869Y-56689062D01*
X149390869Y-43289062D02*
G75*
G03*
X148390869Y-42289062I-999999J1D01*
G01*
X136590869Y-42289062D02*
G75*
G03*
X135590869Y-43289062I0J-1000000D01*
G01*
X148390869Y-56089062D02*
G75*
G03*
X149390869Y-55089062I1J999999D01*
G01*
X149990869Y-42689062D02*
G75*
G03*
X148990869Y-41689062I-999999J1D01*
G01*
X148990869Y-56689062D02*
G75*
G03*
X149990869Y-55689062I1J999999D01*
G01*
X135990869Y-41689062D02*
G75*
G03*
X134990869Y-42689062I0J-1000000D01*
G01*
X134990869Y-55689062D02*
G75*
G03*
X135990869Y-56689062I1000000J0D01*
G01*
X135590869Y-55089062D02*
G75*
G03*
X136590869Y-56089062I1000000J0D01*
G01*
%TO.C,K8*%
X112241428Y-94455475D02*
X100620697Y-96504524D01*
X111490235Y-80981214D02*
X113747661Y-93783715D01*
X98975545Y-96388438D02*
X96718119Y-83585937D01*
X111003539Y-81676288D02*
X113052588Y-93297019D01*
X97529278Y-82427481D02*
X110331779Y-80170055D01*
X98224352Y-82914177D02*
X109845083Y-80865128D01*
X99462241Y-95693364D02*
X97413192Y-84072633D01*
X112936502Y-94942171D02*
X100134001Y-97199597D01*
X111003539Y-81676288D02*
G75*
G03*
X109845083Y-80865128I-984807J-173647D01*
G01*
X112241428Y-94455475D02*
G75*
G03*
X113052588Y-93297019I-173647J984807D01*
G01*
X97529278Y-82427482D02*
G75*
G03*
X96718119Y-83585937I173648J-984807D01*
G01*
X99462241Y-95693364D02*
G75*
G03*
X100620697Y-96504524I984808J173648D01*
G01*
X98975546Y-96388438D02*
G75*
G03*
X100134001Y-97199597I984807J173648D01*
G01*
X111490234Y-80981214D02*
G75*
G03*
X110331779Y-80170055I-984806J-173647D01*
G01*
X112936502Y-94942170D02*
G75*
G03*
X113747661Y-93783715I-173647J984806D01*
G01*
X98224352Y-82914177D02*
G75*
G03*
X97413192Y-84072633I173648J-984808D01*
G01*
%TO.C,K9*%
X129281766Y-66757637D02*
X130310203Y-78512734D01*
X129401164Y-79596085D02*
X117646067Y-80624522D01*
X129827189Y-66107626D02*
X130960214Y-79058157D01*
X130051175Y-80141508D02*
X117100644Y-81274533D01*
X116562716Y-79715483D02*
X115534279Y-67960386D01*
X116017293Y-80365494D02*
X114884268Y-67414963D01*
X116443318Y-66877035D02*
X128198415Y-65848598D01*
X115793307Y-66331612D02*
X128743838Y-65198587D01*
X115793307Y-66331612D02*
G75*
G03*
X114884268Y-67414963I87156J-996195D01*
G01*
X129827189Y-66107626D02*
G75*
G03*
X128743838Y-65198587I-996194J-87155D01*
G01*
X129281765Y-66757637D02*
G75*
G03*
X128198415Y-65848598I-996193J-87154D01*
G01*
X130051175Y-80141508D02*
G75*
G03*
X130960214Y-79058157I-87155J996194D01*
G01*
X116562717Y-79715483D02*
G75*
G03*
X117646067Y-80624522I996194J87155D01*
G01*
X116443318Y-66877036D02*
G75*
G03*
X115534279Y-67960386I87155J-996194D01*
G01*
X116017293Y-80365494D02*
G75*
G03*
X117100644Y-81274533I996195J87156D01*
G01*
X129401164Y-79596084D02*
G75*
G03*
X130310203Y-78512734I-87154J996193D01*
G01*
%TO.C,K10*%
X136590862Y-59289064D02*
X148390862Y-59289064D01*
X149990862Y-59689064D02*
X149990862Y-72689064D01*
X148390862Y-73089064D02*
X136590862Y-73089064D01*
X135590862Y-72089064D02*
X135590862Y-60289064D01*
X148990862Y-73689064D02*
X135990862Y-73689064D01*
X149390862Y-60289064D02*
X149390862Y-72089064D01*
X135990862Y-58689064D02*
X148990862Y-58689064D01*
X134990862Y-72689064D02*
X134990862Y-59689064D01*
X135990862Y-58689064D02*
G75*
G03*
X134990862Y-59689064I0J-1000000D01*
G01*
X136590862Y-59289064D02*
G75*
G03*
X135590862Y-60289064I0J-1000000D01*
G01*
X148390862Y-73089064D02*
G75*
G03*
X149390862Y-72089064I1J999999D01*
G01*
X149990862Y-59689064D02*
G75*
G03*
X148990862Y-58689064I-999999J1D01*
G01*
X135590862Y-72089064D02*
G75*
G03*
X136590862Y-73089064I1000000J0D01*
G01*
X148990862Y-73689064D02*
G75*
G03*
X149990862Y-72689064I1J999999D01*
G01*
X134990862Y-72689064D02*
G75*
G03*
X135990862Y-73689064I1000000J0D01*
G01*
X149390862Y-60289064D02*
G75*
G03*
X148390862Y-59289064I-999999J1D01*
G01*
%TO.C,K15*%
X117498933Y-97300801D02*
X116365908Y-84350270D01*
X118044356Y-96650790D02*
X117015919Y-84895693D01*
X117924958Y-83812342D02*
X129680055Y-82783905D01*
X131532815Y-97076815D02*
X118582284Y-98209840D01*
X130882804Y-96531392D02*
X119127707Y-97559829D01*
X130763406Y-83692944D02*
X131791843Y-95448041D01*
X131308829Y-83042933D02*
X132441854Y-95993464D01*
X117274947Y-83266919D02*
X130225478Y-82133894D01*
X118044357Y-96650790D02*
G75*
G03*
X119127707Y-97559829I996194J87155D01*
G01*
X117924958Y-83812343D02*
G75*
G03*
X117015919Y-84895693I87155J-996194D01*
G01*
X117498933Y-97300801D02*
G75*
G03*
X118582284Y-98209840I996195J87156D01*
G01*
X130882804Y-96531391D02*
G75*
G03*
X131791843Y-95448041I-87154J996193D01*
G01*
X130763405Y-83692944D02*
G75*
G03*
X129680055Y-82783905I-996193J-87154D01*
G01*
X117274947Y-83266919D02*
G75*
G03*
X116365908Y-84350270I87156J-996195D01*
G01*
X131308829Y-83042933D02*
G75*
G03*
X130225478Y-82133894I-996194J-87155D01*
G01*
X131532815Y-97076815D02*
G75*
G03*
X132441854Y-95993464I-87155J996194D01*
G01*
%TO.C,K16*%
X148390864Y-90089063D02*
X136590864Y-90089063D01*
X149990864Y-76689063D02*
X149990864Y-89689063D01*
X135590864Y-89089063D02*
X135590864Y-77289063D01*
X148990864Y-90689063D02*
X135990864Y-90689063D01*
X149390864Y-77289063D02*
X149390864Y-89089063D01*
X136590864Y-76289063D02*
X148390864Y-76289063D01*
X135990864Y-75689063D02*
X148990864Y-75689063D01*
X134990864Y-89689063D02*
X134990864Y-76689063D01*
X135990864Y-75689063D02*
G75*
G03*
X134990864Y-76689063I0J-1000000D01*
G01*
X149390864Y-77289063D02*
G75*
G03*
X148390864Y-76289063I-999999J1D01*
G01*
X136590864Y-76289063D02*
G75*
G03*
X135590864Y-77289063I0J-1000000D01*
G01*
X134990864Y-89689063D02*
G75*
G03*
X135990864Y-90689063I1000000J0D01*
G01*
X148390864Y-90089063D02*
G75*
G03*
X149390864Y-89089063I1J999999D01*
G01*
X149990864Y-76689063D02*
G75*
G03*
X148990864Y-75689063I-999999J1D01*
G01*
X148990864Y-90689063D02*
G75*
G03*
X149990864Y-89689063I1J999999D01*
G01*
X135590864Y-89089063D02*
G75*
G03*
X136590864Y-90089063I1000000J0D01*
G01*
%TO.C,K5*%
X154590866Y-47789071D02*
X166390866Y-47789071D01*
X166390866Y-61589071D02*
X154590866Y-61589071D01*
X167990866Y-48189071D02*
X167990866Y-61189071D01*
X153990866Y-47189071D02*
X166990866Y-47189071D01*
X166990866Y-62189071D02*
X153990866Y-62189071D01*
X167390866Y-48789071D02*
X167390866Y-60589071D01*
X153590866Y-60589071D02*
X153590866Y-48789071D01*
X152990866Y-61189071D02*
X152990866Y-48189071D01*
X166390866Y-61589071D02*
G75*
G03*
X167390866Y-60589071I1J999999D01*
G01*
X167390866Y-48789071D02*
G75*
G03*
X166390866Y-47789071I-999999J1D01*
G01*
X166990866Y-62189071D02*
G75*
G03*
X167990866Y-61189071I1J999999D01*
G01*
X152990866Y-61189071D02*
G75*
G03*
X153990866Y-62189071I1000000J0D01*
G01*
X153590866Y-60589071D02*
G75*
G03*
X154590866Y-61589071I1000000J0D01*
G01*
X154590866Y-47789071D02*
G75*
G03*
X153590866Y-48789071I0J-1000000D01*
G01*
X153990866Y-47189071D02*
G75*
G03*
X152990866Y-48189071I0J-1000000D01*
G01*
X167990866Y-48189071D02*
G75*
G03*
X166990866Y-47189071I-999999J1D01*
G01*
%TO.C,K6*%
X171990870Y-49689063D02*
X184990870Y-49689063D01*
X185390870Y-51289063D02*
X185390870Y-63089063D01*
X171590870Y-63089063D02*
X171590870Y-51289063D01*
X184390870Y-64089063D02*
X172590870Y-64089063D01*
X184990870Y-64689063D02*
X171990870Y-64689063D01*
X185990870Y-50689063D02*
X185990870Y-63689063D01*
X170990870Y-63689063D02*
X170990870Y-50689063D01*
X172590870Y-50289063D02*
X184390870Y-50289063D01*
X171590870Y-63089063D02*
G75*
G03*
X172590870Y-64089063I1000000J0D01*
G01*
X184990870Y-64689063D02*
G75*
G03*
X185990870Y-63689063I1J999999D01*
G01*
X185390870Y-51289063D02*
G75*
G03*
X184390870Y-50289063I-999999J1D01*
G01*
X185990870Y-50689063D02*
G75*
G03*
X184990870Y-49689063I-999999J1D01*
G01*
X170990870Y-63689063D02*
G75*
G03*
X171990870Y-64689063I1000000J0D01*
G01*
X184390870Y-64089063D02*
G75*
G03*
X185390870Y-63089063I1J999999D01*
G01*
X172590870Y-50289063D02*
G75*
G03*
X171590870Y-51289063I0J-1000000D01*
G01*
X171990870Y-49689063D02*
G75*
G03*
X170990870Y-50689063I0J-1000000D01*
G01*
%TO.C,K11*%
X152990858Y-78189068D02*
X152990858Y-65189068D01*
X153990858Y-64189068D02*
X166990858Y-64189068D01*
X166990858Y-79189068D02*
X153990858Y-79189068D01*
X154590858Y-64789068D02*
X166390858Y-64789068D01*
X153590858Y-77589068D02*
X153590858Y-65789068D01*
X167990858Y-65189068D02*
X167990858Y-78189068D01*
X166390858Y-78589068D02*
X154590858Y-78589068D01*
X167390858Y-65789068D02*
X167390858Y-77589068D01*
X154590858Y-64789068D02*
G75*
G03*
X153590858Y-65789068I0J-1000000D01*
G01*
X152990858Y-78189068D02*
G75*
G03*
X153990858Y-79189068I1000000J0D01*
G01*
X167390858Y-65789068D02*
G75*
G03*
X166390858Y-64789068I-999999J1D01*
G01*
X167990858Y-65189068D02*
G75*
G03*
X166990858Y-64189068I-999999J1D01*
G01*
X166390858Y-78589068D02*
G75*
G03*
X167390858Y-77589068I1J999999D01*
G01*
X153590858Y-77589068D02*
G75*
G03*
X154590858Y-78589068I1000000J0D01*
G01*
X153990858Y-64189068D02*
G75*
G03*
X152990858Y-65189068I0J-1000000D01*
G01*
X166990858Y-79189068D02*
G75*
G03*
X167990858Y-78189068I1J999999D01*
G01*
%TO.C,K12*%
X171990862Y-66689064D02*
X184990862Y-66689064D01*
X185990862Y-67689064D02*
X185990862Y-80689064D01*
X184390862Y-81089064D02*
X172590862Y-81089064D01*
X184990862Y-81689064D02*
X171990862Y-81689064D01*
X172590862Y-67289064D02*
X184390862Y-67289064D01*
X170990862Y-80689064D02*
X170990862Y-67689064D01*
X185390862Y-68289064D02*
X185390862Y-80089064D01*
X171590862Y-80089064D02*
X171590862Y-68289064D01*
X184390862Y-81089064D02*
G75*
G03*
X185390862Y-80089064I1J999999D01*
G01*
X170990862Y-80689064D02*
G75*
G03*
X171990862Y-81689064I1000000J0D01*
G01*
X184990862Y-81689064D02*
G75*
G03*
X185990862Y-80689064I1J999999D01*
G01*
X185990862Y-67689064D02*
G75*
G03*
X184990862Y-66689064I-999999J1D01*
G01*
X172590862Y-67289064D02*
G75*
G03*
X171590862Y-68289064I0J-1000000D01*
G01*
X171990862Y-66689064D02*
G75*
G03*
X170990862Y-67689064I0J-1000000D01*
G01*
X171590862Y-80089064D02*
G75*
G03*
X172590862Y-81089064I1000000J0D01*
G01*
X185390862Y-68289064D02*
G75*
G03*
X184390862Y-67289064I-999999J1D01*
G01*
%TO.C,K17*%
X166990865Y-96189063D02*
X153990865Y-96189063D01*
X153990865Y-81189063D02*
X166990865Y-81189063D01*
X166390865Y-95589063D02*
X154590865Y-95589063D01*
X152990865Y-95189063D02*
X152990865Y-82189063D01*
X167390865Y-82789063D02*
X167390865Y-94589063D01*
X167990865Y-82189063D02*
X167990865Y-95189063D01*
X154590865Y-81789063D02*
X166390865Y-81789063D01*
X153590865Y-94589063D02*
X153590865Y-82789063D01*
X166390865Y-95589063D02*
G75*
G03*
X167390865Y-94589063I1J999999D01*
G01*
X152990865Y-95189063D02*
G75*
G03*
X153990865Y-96189063I1000000J0D01*
G01*
X154590865Y-81789063D02*
G75*
G03*
X153590865Y-82789063I0J-1000000D01*
G01*
X153990865Y-81189063D02*
G75*
G03*
X152990865Y-82189063I0J-1000000D01*
G01*
X166990865Y-96189063D02*
G75*
G03*
X167990865Y-95189063I1J999999D01*
G01*
X167390865Y-82789063D02*
G75*
G03*
X166390865Y-81789063I-999999J1D01*
G01*
X167990865Y-82189063D02*
G75*
G03*
X166990865Y-81189063I-999999J1D01*
G01*
X153590865Y-94589063D02*
G75*
G03*
X154590865Y-95589063I1000000J0D01*
G01*
%TO.C,K18*%
X185390866Y-85289061D02*
X185390866Y-97089061D01*
X170990866Y-97689061D02*
X170990866Y-84689061D01*
X184390866Y-98089061D02*
X172590866Y-98089061D01*
X184990866Y-98689061D02*
X171990866Y-98689061D01*
X171990866Y-83689061D02*
X184990866Y-83689061D01*
X185990866Y-84689061D02*
X185990866Y-97689061D01*
X172590866Y-84289061D02*
X184390866Y-84289061D01*
X171590866Y-97089061D02*
X171590866Y-85289061D01*
X171990866Y-83689061D02*
G75*
G03*
X170990866Y-84689061I0J-1000000D01*
G01*
X184990866Y-98689061D02*
G75*
G03*
X185990866Y-97689061I1J999999D01*
G01*
X185990866Y-84689061D02*
G75*
G03*
X184990866Y-83689061I-999999J1D01*
G01*
X170990866Y-97689061D02*
G75*
G03*
X171990866Y-98689061I1000000J0D01*
G01*
X171590866Y-97089061D02*
G75*
G03*
X172590866Y-98089061I1000000J0D01*
G01*
X172590866Y-84289061D02*
G75*
G03*
X171590866Y-85289061I0J-1000000D01*
G01*
X185390866Y-85289061D02*
G75*
G03*
X184390866Y-84289061I-999999J1D01*
G01*
X184390866Y-98089061D02*
G75*
G03*
X185390866Y-97089061I1J999999D01*
G01*
%TO.C,K20*%
X142464739Y-112211586D02*
X142464739Y-99211586D01*
X157464739Y-99211586D02*
X157464739Y-112211586D01*
X155864739Y-112611586D02*
X144064739Y-112611586D01*
X144064739Y-98811586D02*
X155864739Y-98811586D01*
X143064739Y-111611586D02*
X143064739Y-99811586D01*
X156464739Y-113211586D02*
X143464739Y-113211586D01*
X156864739Y-99811586D02*
X156864739Y-111611586D01*
X143464739Y-98211586D02*
X156464739Y-98211586D01*
X144064739Y-98811586D02*
G75*
G03*
X143064739Y-99811586I-1J-999999D01*
G01*
X142464739Y-112211586D02*
G75*
G03*
X143464739Y-113211586I999999J-1D01*
G01*
X156864739Y-99811586D02*
G75*
G03*
X155864739Y-98811586I-1000000J0D01*
G01*
X157464739Y-99211586D02*
G75*
G03*
X156464739Y-98211586I-1000000J0D01*
G01*
X155864739Y-112611586D02*
G75*
G03*
X156864739Y-111611586I0J1000000D01*
G01*
X156464739Y-113211586D02*
G75*
G03*
X157464739Y-112211586I0J1000000D01*
G01*
X143064739Y-111611586D02*
G75*
G03*
X144064739Y-112611586I999999J-1D01*
G01*
X143464739Y-98211586D02*
G75*
G03*
X142464739Y-99211586I-1J-999999D01*
G01*
%TO.C,K2*%
X109289410Y-77713743D02*
X97668679Y-79762792D01*
X96510223Y-78951632D02*
X94461174Y-67330901D01*
X94577260Y-65685749D02*
X107379761Y-63428323D01*
X108051521Y-64934556D02*
X110100570Y-76555287D01*
X95272334Y-66172445D02*
X106893065Y-64123396D01*
X109984484Y-78200439D02*
X97181983Y-80457865D01*
X108538217Y-64239482D02*
X110795643Y-77041983D01*
X96023527Y-79646706D02*
X93766101Y-66844205D01*
X109289410Y-77713743D02*
G75*
G03*
X110100570Y-76555287I-173647J984807D01*
G01*
X94577260Y-65685750D02*
G75*
G03*
X93766101Y-66844205I173648J-984807D01*
G01*
X96510223Y-78951632D02*
G75*
G03*
X97668679Y-79762792I984808J173648D01*
G01*
X108538216Y-64239482D02*
G75*
G03*
X107379761Y-63428323I-984806J-173647D01*
G01*
X109984484Y-78200438D02*
G75*
G03*
X110795643Y-77041983I-173647J984806D01*
G01*
X95272334Y-66172445D02*
G75*
G03*
X94461174Y-67330901I173648J-984808D01*
G01*
X96023528Y-79646706D02*
G75*
G03*
X97181983Y-80457865I984807J173648D01*
G01*
X108051521Y-64934556D02*
G75*
G03*
X106893065Y-64123396I-984807J-173647D01*
G01*
%TO.C,K22*%
X189848312Y-125984174D02*
X178589982Y-119484174D01*
X186309597Y-107313408D02*
X196528697Y-113213408D01*
X189628697Y-125164558D02*
X179409597Y-119264558D01*
X196894722Y-114579433D02*
X190994722Y-124798533D01*
X186089982Y-106493792D02*
X197348312Y-112993792D01*
X197714338Y-114359818D02*
X191214338Y-125618148D01*
X179043572Y-117898533D02*
X184943572Y-107679433D01*
X178223956Y-118118148D02*
X184723956Y-106859818D01*
X179043572Y-117898533D02*
G75*
G03*
X179409597Y-119264558I866025J-500000D01*
G01*
X196894722Y-114579433D02*
G75*
G03*
X196528697Y-113213408I-866024J500000D01*
G01*
X197714338Y-114359818D02*
G75*
G03*
X197348312Y-112993792I-866025J500000D01*
G01*
X189848312Y-125984174D02*
G75*
G03*
X191214338Y-125618148I500000J866025D01*
G01*
X186309597Y-107313408D02*
G75*
G03*
X184943572Y-107679433I-500000J-866025D01*
G01*
X178223956Y-118118148D02*
G75*
G03*
X178589982Y-119484174I866026J-500000D01*
G01*
X189628697Y-125164558D02*
G75*
G03*
X190994722Y-124798533I500000J866024D01*
G01*
X186089982Y-106493792D02*
G75*
G03*
X184723956Y-106859818I-500000J-866026D01*
G01*
%TO.C,K19*%
X187543570Y-103176102D02*
X193443570Y-92957002D01*
X186723954Y-103395717D02*
X193223954Y-92137387D01*
X198128695Y-110442128D02*
X187909595Y-104542128D01*
X194809595Y-92590977D02*
X205028695Y-98490977D01*
X198348310Y-111261743D02*
X187089980Y-104761743D01*
X194589980Y-91771362D02*
X205848310Y-98271362D01*
X205394720Y-99857002D02*
X199494720Y-110076102D01*
X206214336Y-99637387D02*
X199714336Y-110895717D01*
X198128695Y-110442128D02*
G75*
G03*
X199494720Y-110076102I500000J866024D01*
G01*
X206214335Y-99637387D02*
G75*
G03*
X205848310Y-98271362I-866024J500000D01*
G01*
X198348309Y-111261744D02*
G75*
G03*
X199714336Y-110895717I500001J866025D01*
G01*
X205394720Y-99857002D02*
G75*
G03*
X205028695Y-98490977I-866024J500000D01*
G01*
X194809595Y-92590977D02*
G75*
G03*
X193443570Y-92957002I-500000J-866025D01*
G01*
X186723954Y-103395717D02*
G75*
G03*
X187089980Y-104761743I866026J-500000D01*
G01*
X187543569Y-103176101D02*
G75*
G03*
X187909595Y-104542128I866026J-500001D01*
G01*
X194589981Y-91771361D02*
G75*
G03*
X193223954Y-92137387I-500001J-866026D01*
G01*
%TO.C,K23*%
X213530710Y-129087415D02*
X204338322Y-138279803D01*
X204338322Y-118480813D02*
X213530710Y-127673201D01*
X212682182Y-129087415D02*
X204338322Y-137431275D01*
X193731720Y-127673201D02*
X202924108Y-118480813D01*
X202924108Y-138279803D02*
X193731720Y-129087415D01*
X202924108Y-137431275D02*
X194580248Y-129087415D01*
X194580248Y-127673201D02*
X202924108Y-119329341D01*
X204338322Y-119329341D02*
X212682182Y-127673201D01*
X193731720Y-127673201D02*
G75*
G03*
X193731720Y-129087415I707105J-707107D01*
G01*
X204338322Y-119329341D02*
G75*
G03*
X202924108Y-119329341I-707107J-707106D01*
G01*
X204338322Y-118480813D02*
G75*
G03*
X202924108Y-118480813I-707107J-707105D01*
G01*
X202924108Y-138279803D02*
G75*
G03*
X204338322Y-138279803I707107J707107D01*
G01*
X202924108Y-137431275D02*
G75*
G03*
X204338322Y-137431275I707107J707107D01*
G01*
X194580248Y-127673201D02*
G75*
G03*
X194580248Y-129087415I707106J-707107D01*
G01*
X213530710Y-129087415D02*
G75*
G03*
X213530710Y-127673201I-707107J707107D01*
G01*
X212682182Y-129087415D02*
G75*
G03*
X212682182Y-127673201I-707107J707107D01*
G01*
D11*
%TO.C,D4*%
X153248202Y-98604987D02*
X153248202Y-95804987D01*
X156448202Y-95804987D02*
X156448202Y-98604987D01*
X153248202Y-95804987D02*
X156448202Y-95804987D01*
X156448202Y-98604987D02*
X153248202Y-98604987D01*
%TO.C,D1*%
X195506678Y-92993894D02*
X196906678Y-90569022D01*
X196906678Y-90569022D02*
X199677960Y-92169022D01*
X198277960Y-94593894D02*
X195506678Y-92993894D01*
X199677960Y-92169022D02*
X198277960Y-94593894D01*
D12*
%TO.C,K7*%
X94514889Y-97581144D02*
X82894158Y-99630193D01*
X81735702Y-98819033D02*
X79686653Y-87198302D01*
X80497813Y-86039846D02*
X92118544Y-83990797D01*
X93763696Y-84106883D02*
X96021122Y-96909384D01*
X79802739Y-85553150D02*
X92605240Y-83295724D01*
X93277000Y-84801957D02*
X95326049Y-96422688D01*
X95209963Y-98067840D02*
X82407462Y-100325266D01*
X81249006Y-99514107D02*
X78991580Y-86711606D01*
X93277000Y-84801957D02*
G75*
G03*
X92118544Y-83990797I-984808J-173648D01*
G01*
X94514889Y-97581144D02*
G75*
G03*
X95326049Y-96422688I-173648J984808D01*
G01*
X81735702Y-98819033D02*
G75*
G03*
X82894158Y-99630193I984807J173647D01*
G01*
X93763695Y-84106883D02*
G75*
G03*
X92605240Y-83295724I-984807J-173648D01*
G01*
X79802739Y-85553151D02*
G75*
G03*
X78991580Y-86711606I173647J-984806D01*
G01*
X80497813Y-86039846D02*
G75*
G03*
X79686653Y-87198302I173647J-984807D01*
G01*
X95209963Y-98067839D02*
G75*
G03*
X96021122Y-96909384I-173648J984807D01*
G01*
X81249007Y-99514107D02*
G75*
G03*
X82407462Y-100325266I984806J173647D01*
G01*
D11*
%TO.C,SW2*%
X208075359Y-93309480D02*
X206715898Y-93943407D01*
X208406371Y-97568638D02*
X209765832Y-96934711D01*
X209765832Y-96934711D02*
X208075359Y-93309480D01*
X206715898Y-93943407D02*
X208406371Y-97568638D01*
%TO.C,H3*%
X137863819Y-95575962D02*
X141663819Y-95575962D01*
X141663819Y-88805962D02*
X129803819Y-88805962D01*
X129803819Y-88805962D02*
X129783819Y-112085962D01*
X141663819Y-95505962D02*
X141663819Y-88805962D01*
X129783819Y-112085962D02*
X137863819Y-111515962D01*
X137853819Y-111525962D02*
X137853819Y-95585962D01*
D12*
%TO.C,H4*%
X114042403Y-65751727D02*
G75*
G03*
X114042403Y-65751727I-2200000J0D01*
G01*
%TO.C,H5*%
X120903427Y-106452211D02*
G75*
G03*
X120903427Y-106452211I-2200000J0D01*
G01*
%TO.C,H6*%
X200790866Y-118589073D02*
G75*
G03*
X200790866Y-118589073I-2200000J0D01*
G01*
%TO.C,H7*%
X171690866Y-51689062D02*
G75*
G03*
X171690866Y-51689062I-2200000J0D01*
G01*
%TO.C,K21*%
X177792785Y-104662613D02*
X174738720Y-116060538D01*
X165687753Y-100383803D02*
X177085678Y-103437868D01*
X161408943Y-112488835D02*
X164463008Y-101090910D01*
X173513975Y-116767645D02*
X162116050Y-113713580D01*
X178527631Y-104238349D02*
X175162984Y-116795385D01*
X160674097Y-112913099D02*
X164038744Y-100356063D01*
X173938239Y-117502491D02*
X161381203Y-114137844D01*
X165263489Y-99648957D02*
X177820525Y-103013604D01*
X177792785Y-104662613D02*
G75*
G03*
X177085678Y-103437868I-965926J258819D01*
G01*
X165687753Y-100383803D02*
G75*
G03*
X164463008Y-101090910I-258820J-965925D01*
G01*
X160674097Y-112913099D02*
G75*
G03*
X161381203Y-114137844I965924J-258820D01*
G01*
X173513975Y-116767645D02*
G75*
G03*
X174738720Y-116060538I258819J965926D01*
G01*
X165263489Y-99648957D02*
G75*
G03*
X164038744Y-100356063I-258820J-965924D01*
G01*
X178527632Y-104238349D02*
G75*
G03*
X177820525Y-103013604I-965926J258819D01*
G01*
X161408943Y-112488835D02*
G75*
G03*
X162116050Y-113713580I965925J-258820D01*
G01*
X173938239Y-117502492D02*
G75*
G03*
X175162984Y-116795385I258819J965926D01*
G01*
%TD*%
M02*
