%TF.GenerationSoftware,KiCad,Pcbnew,(6.0.8)*%
%TF.CreationDate,2022-10-10T20:06:03-07:00*%
%TF.ProjectId,hillside46,68696c6c-7369-4646-9534-362e6b696361,0.1.0*%
%TF.SameCoordinates,Original*%
%TF.FileFunction,Legend,Top*%
%TF.FilePolarity,Positive*%
%FSLAX46Y46*%
G04 Gerber Fmt 4.6, Leading zero omitted, Abs format (unit mm)*
G04 Created by KiCad (PCBNEW (6.0.8)) date 2022-10-10 20:06:03*
%MOMM*%
%LPD*%
G01*
G04 APERTURE LIST*
G04 Aperture macros list*
%AMRoundRect*
0 Rectangle with rounded corners*
0 $1 Rounding radius*
0 $2 $3 $4 $5 $6 $7 $8 $9 X,Y pos of 4 corners*
0 Add a 4 corners polygon primitive as box body*
4,1,4,$2,$3,$4,$5,$6,$7,$8,$9,$2,$3,0*
0 Add four circle primitives for the rounded corners*
1,1,$1+$1,$2,$3*
1,1,$1+$1,$4,$5*
1,1,$1+$1,$6,$7*
1,1,$1+$1,$8,$9*
0 Add four rect primitives between the rounded corners*
20,1,$1+$1,$2,$3,$4,$5,0*
20,1,$1+$1,$4,$5,$6,$7,0*
20,1,$1+$1,$6,$7,$8,$9,0*
20,1,$1+$1,$8,$9,$2,$3,0*%
%AMRotRect*
0 Rectangle, with rotation*
0 The origin of the aperture is its center*
0 $1 length*
0 $2 width*
0 $3 Rotation angle, in degrees counterclockwise*
0 Add horizontal line*
21,1,$1,$2,0,0,$3*%
%AMFreePoly0*
4,1,22,0.500000,-0.750000,0.000000,-0.750000,0.000000,-0.745033,-0.079941,-0.743568,-0.215256,-0.701293,-0.333266,-0.622738,-0.424486,-0.514219,-0.481581,-0.384460,-0.499164,-0.250000,-0.500000,-0.250000,-0.500000,0.250000,-0.499164,0.250000,-0.499963,0.256109,-0.478152,0.396186,-0.417904,0.524511,-0.324060,0.630769,-0.204165,0.706417,-0.067858,0.745374,0.000000,0.744959,0.000000,0.750000,
0.500000,0.750000,0.500000,-0.750000,0.500000,-0.750000,$1*%
%AMFreePoly1*
4,1,20,0.000000,0.744959,0.073905,0.744508,0.209726,0.703889,0.328688,0.626782,0.421226,0.519385,0.479903,0.390333,0.500000,0.250000,0.500000,-0.250000,0.499851,-0.262216,0.476331,-0.402017,0.414519,-0.529596,0.319384,-0.634700,0.198574,-0.708877,0.061801,-0.746166,0.000000,-0.745033,0.000000,-0.750000,-0.500000,-0.750000,-0.500000,0.750000,0.000000,0.750000,0.000000,0.744959,
0.000000,0.744959,$1*%
%AMFreePoly2*
4,1,41,0.142350,0.531259,0.275000,0.476314,0.388909,0.388909,0.476314,0.275000,0.531259,0.142350,0.533280,0.127000,3.200000,0.127000,3.236070,0.121770,3.296138,0.082984,3.325733,0.017894,3.315473,-0.052868,3.268611,-0.106872,3.200000,-0.127000,0.533280,-0.127000,0.531259,-0.142350,0.476314,-0.275000,0.388909,-0.388909,0.275000,-0.476314,0.142350,-0.531259,0.000000,-0.550000,
-0.142350,-0.531259,-0.275000,-0.476314,-0.388909,-0.388909,-0.476314,-0.275000,-0.531259,-0.142350,-0.533280,-0.127000,-3.200000,-0.127000,-3.236070,-0.121770,-3.296138,-0.082984,-3.325733,-0.017894,-3.315473,0.052868,-3.268611,0.106872,-3.200000,0.127000,-0.533280,0.127000,-0.531259,0.142350,-0.476314,0.275000,-0.388909,0.388909,-0.275000,0.476314,-0.142350,0.531259,0.000000,0.550000,
0.142350,0.531259,0.142350,0.531259,$1*%
%AMFreePoly3*
4,1,37,0.042529,3.485692,0.118849,3.448880,0.171655,3.382612,0.190499,3.300000,0.190499,0.776079,0.350697,0.719035,0.501283,0.623470,0.626955,0.496918,0.721466,0.345669,0.780119,0.177240,0.800000,0.000000,0.799688,-0.022336,0.774867,-0.198952,0.711533,-0.365678,0.612836,-0.514230,0.483680,-0.637224,0.330484,-0.728547,0.160862,-0.783660,-0.016754,-0.799825,-0.193538,-0.776237,
-0.360702,-0.714070,-0.509939,-0.616411,-0.633832,-0.488116,-0.726222,-0.335562,-0.782518,-0.166330,-0.799922,0.011170,-0.777569,0.188114,-0.716569,0.355708,-0.619956,0.505623,-0.492529,0.630409,-0.340623,0.723862,-0.190500,0.774968,-0.190500,3.300332,-0.171511,3.382912,-0.118589,3.449087,-0.042205,3.485766,0.042529,3.485692,0.042529,3.485692,$1*%
%AMFreePoly4*
4,1,74,0.090320,1.758079,0.239662,1.720567,0.375744,1.648515,0.490712,1.546082,0.531399,1.486883,0.554756,1.483183,0.658279,1.430436,0.740436,1.348279,0.793183,1.244756,0.811359,1.130000,0.793183,1.015244,0.742519,0.915810,0.751359,0.860000,0.733183,0.745244,0.680436,0.641721,0.598279,0.559564,0.494756,0.506817,0.380000,0.488641,0.376841,0.489141,0.127000,0.190090,
0.127000,-0.587846,0.211346,-0.711884,0.214346,-0.726349,0.220000,-0.740000,0.218118,-0.744543,0.219116,-0.749355,0.211010,-0.761703,0.205355,-0.775355,0.200813,-0.777237,0.198115,-0.781346,0.183652,-0.784345,0.170000,-0.790000,-0.120000,-0.790000,-0.130398,-0.785693,-0.141637,-0.785076,-0.147391,-0.778654,-0.155355,-0.775355,-0.159662,-0.764957,-0.167173,-0.756574,-0.166701,-0.747965,
-0.170000,-0.740000,-0.165693,-0.729602,-0.165076,-0.718363,-0.127000,-0.639038,-0.127000,0.213346,-0.320215,0.401476,-0.430000,0.384087,-0.539983,0.401507,-0.639200,0.452060,-0.717940,0.530800,-0.768493,0.630017,-0.780316,0.704660,-0.475881,0.704660,-0.472794,0.697206,-0.464310,0.693692,-0.475123,0.703531,-0.475881,0.704660,-0.780316,0.704660,-0.785913,0.740000,-0.768493,0.849983,
-0.737725,0.910369,-0.799077,0.971721,-0.851824,1.075244,-0.870000,1.190000,-0.851824,1.304756,-0.799077,1.408279,-0.716920,1.490436,-0.613397,1.543183,-0.498641,1.561359,-0.461265,1.555439,-0.350213,1.652316,-0.213384,1.722939,-0.063658,1.758885,0.090320,1.758079,0.090320,1.758079,$1*%
%AMFreePoly5*
4,1,36,-0.382313,0.442677,-0.365044,0.435750,-0.364806,0.435194,-0.364250,0.434956,-0.127000,0.192314,-0.127000,0.250000,0.127000,0.250000,0.127000,-0.067459,0.185750,-0.127544,0.192765,-0.145034,0.200000,-0.162500,0.200000,-0.750000,0.185355,-0.785355,0.150000,-0.800000,-0.300000,-0.800000,-0.335355,-0.785355,-0.350000,-0.750000,-0.350000,-0.400000,-0.650000,-0.400000,-0.650000,-0.750000,
-0.664645,-0.785355,-0.700000,-0.800000,-0.950000,-0.800000,-0.985355,-0.785355,-1.000000,-0.750000,-1.000000,-0.162500,-0.992765,-0.145034,-0.985750,-0.127544,-0.435750,0.434956,-0.435194,0.435194,-0.434956,0.435750,-0.417687,0.442677,-0.400562,0.449996,-0.400000,0.449771,-0.399438,0.449996,-0.382313,0.442677,-0.382313,0.442677,$1*%
%AMFreePoly6*
4,1,76,3.244632,0.331818,3.506852,0.292599,3.763564,0.226297,4.011980,0.133633,4.047291,0.105601,4.089074,0.099399,4.099042,0.091486,4.344144,0.002132,4.610121,-0.060258,4.881629,-0.090581,5.154817,-0.088406,5.425808,-0.053765,5.690758,0.012850,5.934405,0.106094,5.944247,0.114165,6.009113,0.124852,6.070632,0.101675,6.112320,0.050844,6.123007,-0.014022,6.099830,-0.075541,
6.048997,-0.117229,5.802089,-0.213835,5.546464,-0.284215,5.284902,-0.327603,5.020245,-0.343528,4.755368,-0.331818,4.493148,-0.292599,4.236436,-0.226297,3.988020,-0.133633,3.952709,-0.105601,3.910926,-0.099399,3.900958,-0.091486,3.655856,-0.002132,3.389879,0.060258,3.118371,0.090581,2.845183,0.088406,2.574192,0.053765,2.309242,-0.012850,2.065595,-0.106094,2.055753,-0.114165,
2.051976,-0.114787,2.048997,-0.117229,1.802089,-0.213835,1.546464,-0.284215,1.284902,-0.327603,1.020245,-0.343528,0.755368,-0.331818,0.493148,-0.292599,0.236436,-0.226297,-0.011980,-0.133633,-0.030697,-0.118775,-0.063500,-0.109985,-0.109985,-0.063500,-0.127000,0.000000,-0.109985,0.063500,-0.063500,0.109985,0.000000,0.127000,0.063500,0.109985,0.071473,0.102012,0.089074,0.099399,
0.099042,0.091486,0.344144,0.002132,0.610121,-0.060258,0.881629,-0.090581,1.154817,-0.088406,1.425808,-0.053765,1.690758,0.012850,1.934405,0.106094,1.944247,0.114165,1.948024,0.114787,1.951003,0.117229,2.197911,0.213835,2.453536,0.284215,2.715098,0.327603,2.979755,0.343528,3.244632,0.331818,3.244632,0.331818,$1*%
%AMFreePoly7*
4,1,66,0.090320,1.758079,0.239662,1.720567,0.375744,1.648515,0.490712,1.546082,0.531399,1.486883,0.554756,1.483183,0.658279,1.430436,0.740436,1.348279,0.793183,1.244756,0.811359,1.130000,0.793183,1.015244,0.742519,0.915810,0.751359,0.860000,0.733183,0.745244,0.680436,0.641721,0.598279,0.559564,0.494756,0.506817,0.380000,0.488641,0.323760,0.497549,0.127000,0.283428,
0.127000,-0.587846,0.211346,-0.711884,0.214346,-0.726349,0.220000,-0.740000,0.218118,-0.744543,0.219116,-0.749355,0.211010,-0.761703,0.205355,-0.775355,0.200813,-0.777237,0.198115,-0.781346,0.183652,-0.784345,0.170000,-0.790000,-0.120000,-0.790000,-0.130398,-0.785693,-0.141637,-0.785076,-0.147391,-0.778654,-0.155355,-0.775355,-0.159662,-0.764957,-0.167173,-0.756574,-0.166701,-0.747965,
-0.170000,-0.740000,-0.165693,-0.729602,-0.165076,-0.718363,-0.127000,-0.639038,-0.127000,0.293608,-0.245184,0.408682,-0.300000,0.400000,-0.409983,0.417420,-0.509200,0.467973,-0.587940,0.546713,-0.638493,0.645930,-0.655913,0.755913,-0.642064,0.843349,-0.710436,0.911721,-0.763183,1.015244,-0.781359,1.130000,-0.763183,1.244756,-0.710436,1.348279,-0.628279,1.430436,-0.524756,1.483183,
-0.512625,1.485104,-0.466247,1.551093,-0.350213,1.652316,-0.213384,1.722939,-0.063658,1.758885,0.090320,1.758079,0.090320,1.758079,$1*%
%AMFreePoly8*
4,1,31,7.836070,3.521770,7.896138,3.482984,7.925733,3.417894,7.915473,3.347132,7.868611,3.293128,7.800000,3.273000,6.402605,3.273000,3.039803,-0.089803,3.021679,-0.103336,3.018611,-0.106872,3.015866,-0.107677,3.010599,-0.111610,2.980023,-0.118192,2.950000,-0.127000,-2.800000,-0.127000,-2.836070,-0.121770,-2.896138,-0.082984,-2.925733,-0.017894,-2.915473,0.052868,-2.868611,0.106872,
-2.800000,0.127000,2.897394,0.127000,6.260197,3.489802,6.278320,3.503335,6.281389,3.506872,6.284135,3.507678,6.289401,3.511610,6.319977,3.518192,6.350000,3.527000,7.800000,3.527000,7.836070,3.521770,7.836070,3.521770,$1*%
%AMFreePoly9*
4,1,68,0.090320,1.758079,0.239662,1.720567,0.375744,1.648515,0.490712,1.546082,0.531399,1.486883,0.554756,1.483183,0.658279,1.430436,0.740436,1.348279,0.793183,1.244756,0.811359,1.130000,0.793183,1.015244,0.740436,0.911721,0.670111,0.841396,0.693183,0.796115,0.711359,0.681359,0.693183,0.566603,0.640436,0.463080,0.558279,0.380923,0.454756,0.328176,0.340000,0.310000,
0.294288,0.317240,0.127000,0.135192,0.127000,-0.587846,0.211346,-0.711884,0.214346,-0.726349,0.220000,-0.740000,0.218118,-0.744543,0.219116,-0.749355,0.211010,-0.761703,0.205355,-0.775355,0.200813,-0.777237,0.198115,-0.781346,0.183652,-0.784345,0.170000,-0.790000,-0.120000,-0.790000,-0.130398,-0.785693,-0.141637,-0.785076,-0.147391,-0.778654,-0.155355,-0.775355,-0.159662,-0.764957,
-0.167173,-0.756574,-0.166701,-0.747965,-0.170000,-0.740000,-0.165693,-0.729602,-0.165076,-0.718363,-0.127000,-0.639038,-0.127000,0.104135,-0.395567,0.365633,-0.469983,0.377420,-0.569200,0.427973,-0.647940,0.506713,-0.698493,0.605930,-0.715913,0.715913,-0.698493,0.825896,-0.673555,0.874840,-0.710436,0.911721,-0.763183,1.015244,-0.781359,1.130000,-0.763183,1.244756,-0.710436,1.348279,
-0.628279,1.430436,-0.524756,1.483183,-0.512625,1.485104,-0.466247,1.551093,-0.350213,1.652316,-0.213384,1.722939,-0.063658,1.758885,0.090320,1.758079,0.090320,1.758079,$1*%
%AMFreePoly10*
4,1,226,9.026694,0.536870,9.083627,0.504000,9.086540,0.498955,9.091598,0.496093,9.097638,0.485839,9.243102,0.363672,9.415675,0.259672,9.602327,0.183785,9.798513,0.137861,9.999454,0.123016,10.200258,0.139614,10.396035,0.187248,10.582018,0.264761,10.753677,0.370263,10.898069,0.493695,10.904019,0.504001,10.960952,0.536870,11.026692,0.536870,11.083625,0.504001,11.086535,0.498960,
11.091599,0.496095,11.097640,0.485840,11.243102,0.363674,11.415675,0.259674,11.602327,0.183788,11.798512,0.137863,11.999453,0.123018,12.200256,0.139615,12.396033,0.187250,12.582016,0.264762,12.753675,0.370264,12.898069,0.493697,12.904018,0.504001,12.960950,0.536870,13.026690,0.536870,13.083623,0.504000,13.086530,0.498965,13.091599,0.496097,13.097640,0.485841,13.243101,0.363676,
13.415674,0.259675,13.602326,0.183789,13.798511,0.137864,13.999451,0.123019,14.200255,0.139616,14.396032,0.187250,14.582014,0.264762,14.753673,0.370264,14.898066,0.493695,14.904016,0.504001,14.960948,0.536870,15.026688,0.536870,15.083621,0.504000,15.116490,0.447068,15.116490,0.381328,15.083617,0.324393,14.918411,0.181127,14.734587,0.062682,14.535851,-0.028554,14.326203,-0.090745,
14.109863,-0.122638,13.891187,-0.123592,13.674577,-0.093587,13.464394,-0.033227,13.264869,0.056272,13.080020,0.173109,12.993839,0.246537,12.918412,0.181127,12.734589,0.062682,12.535853,-0.028555,12.326204,-0.090746,12.109864,-0.122639,11.891188,-0.123593,11.674578,-0.093588,11.464395,-0.033229,11.264870,0.056270,11.080021,0.173107,10.993840,0.246535,10.918415,0.181126,10.734592,0.062681,
10.535855,-0.028556,10.326206,-0.090747,10.109866,-0.122641,9.891190,-0.123595,9.674579,-0.093590,9.464396,-0.033231,9.264871,0.056268,9.080021,0.173105,8.993839,0.246533,8.918416,0.181127,8.734593,0.062683,8.535857,-0.028553,8.326209,-0.090743,8.109869,-0.122635,7.891194,-0.123589,7.674584,-0.093583,7.464402,-0.033223,7.264878,0.056276,7.080029,0.173113,6.993850,0.246540,
6.918419,0.181127,6.734596,0.062682,6.535859,-0.028554,6.326211,-0.090744,6.109871,-0.122637,5.891195,-0.123591,5.674586,-0.093586,5.464403,-0.033226,5.264879,0.056274,5.080029,0.173111,4.993850,0.246538,4.918421,0.181127,4.734597,0.062682,4.535861,-0.028554,4.326213,-0.090745,4.109873,-0.122638,3.891197,-0.123592,3.674587,-0.093587,3.464404,-0.033227,3.264879,0.056272,
3.080030,0.173109,2.993849,0.246537,2.918422,0.181127,2.734599,0.062682,2.535863,-0.028555,2.326214,-0.090746,2.109874,-0.122639,1.891198,-0.123593,1.674588,-0.093588,1.464405,-0.033229,1.264880,0.056270,1.080031,0.173107,0.994423,0.246047,0.933833,0.192834,0.768304,0.081712,0.589815,-0.007114,0.401354,-0.072156,0.206074,-0.112327,0.007242,-0.126955,0.003642,-0.126024,
0.000000,-0.127000,-0.063500,-0.109985,-0.109985,-0.063500,-0.127000,0.000000,-0.109985,0.063500,-0.063500,0.109985,0.000000,0.127000,0.002494,0.126332,0.005030,0.127035,0.016564,0.124052,0.204689,0.140342,0.399236,0.188305,0.584020,0.265788,0.754592,0.370926,0.898073,0.493683,0.904031,0.504002,0.960964,0.536871,1.026704,0.536870,1.083636,0.503999,1.086545,0.498960,
1.091609,0.496095,1.097650,0.485840,1.243112,0.363674,1.415685,0.259674,1.602337,0.183788,1.798522,0.137863,1.999463,0.123018,2.200266,0.139615,2.396043,0.187250,2.582026,0.264762,2.753685,0.370264,2.898079,0.493697,2.904028,0.504001,2.960960,0.536870,3.026700,0.536870,3.083633,0.504000,3.086540,0.498965,3.091609,0.496097,3.097650,0.485841,3.243111,0.363676,
3.415684,0.259675,3.602336,0.183789,3.798521,0.137864,3.999461,0.123019,4.200265,0.139616,4.396042,0.187250,4.582024,0.264762,4.753683,0.370264,4.898076,0.493695,4.904026,0.504001,4.960958,0.536870,5.026698,0.536870,5.083631,0.504000,5.086535,0.498969,5.091609,0.496099,5.097651,0.485842,5.243111,0.363678,5.415684,0.259677,5.602335,0.183790,5.798519,0.137865,
5.999460,0.123020,6.200263,0.139617,6.396040,0.187251,6.582022,0.264763,6.753682,0.370264,6.898074,0.493695,6.904024,0.504001,6.960957,0.536871,7.026696,0.536870,7.083629,0.504000,7.086531,0.498973,7.091609,0.496100,7.097649,0.485846,7.243111,0.363680,7.415683,0.259679,7.602334,0.183792,7.798518,0.137867,7.999459,0.123022,8.200262,0.139619,8.396038,0.187253,
8.582020,0.264764,8.753680,0.370265,8.898072,0.493695,8.904022,0.504001,8.960955,0.536871,9.026694,0.536870,9.026694,0.536870,$1*%
%AMFreePoly11*
4,1,31,9.086070,4.561770,9.146138,4.522984,9.175733,4.457894,9.165473,4.387132,9.118611,4.333128,9.050000,4.313000,7.092605,4.313000,2.689803,-0.089803,2.671679,-0.103336,2.668611,-0.106872,2.665866,-0.107677,2.660599,-0.111610,2.630023,-0.118192,2.600000,-0.127000,-3.450000,-0.127000,-3.486070,-0.121770,-3.546138,-0.082984,-3.575733,-0.017894,-3.565473,0.052868,-3.518611,0.106872,
-3.450000,0.127000,2.547394,0.127000,6.950197,4.529802,6.968320,4.543335,6.971389,4.546872,6.974135,4.547678,6.979401,4.551610,7.009977,4.558192,7.040000,4.567000,9.050000,4.567000,9.086070,4.561770,9.086070,4.561770,$1*%
%AMFreePoly12*
4,1,207,0.063500,0.109985,0.083519,0.089966,0.097781,0.081897,0.103822,0.071641,0.249283,-0.050524,0.421856,-0.154524,0.608507,-0.230411,0.804692,-0.276335,1.005633,-0.291180,1.206436,-0.274583,1.402213,-0.226948,1.588195,-0.149436,1.759854,-0.043934,1.904245,0.079495,1.910196,0.089803,1.967128,0.122672,2.032868,0.122672,2.089801,0.089802,2.092706,0.084770,2.097781,0.081899,
2.103822,0.071643,2.249283,-0.050522,2.421856,-0.154522,2.608507,-0.230408,2.804691,-0.276333,3.005631,-0.291178,3.206434,-0.274581,3.402211,-0.226947,3.588193,-0.149435,3.759852,-0.043933,3.904245,0.079499,3.910194,0.089803,3.967126,0.122672,4.032866,0.122672,4.089799,0.089802,4.092701,0.084775,4.097781,0.081901,4.103822,0.071645,4.249283,-0.050520,4.421855,-0.154520,
4.608506,-0.230407,4.804690,-0.276332,5.005630,-0.291177,5.206433,-0.274580,5.402209,-0.226946,5.588191,-0.149435,5.759850,-0.043933,5.904242,0.079497,5.910192,0.089803,5.967125,0.122673,6.032864,0.122672,6.089797,0.089802,6.097956,0.075670,6.112312,0.067843,6.118225,0.058157,6.264318,-0.060868,6.436492,-0.161519,6.622114,-0.234451,6.816754,-0.277924,7.015767,-0.290899,
7.214404,-0.273067,7.407924,-0.224854,7.591709,-0.147409,7.761373,-0.042583,7.904515,0.079973,7.910190,0.089803,7.967123,0.122673,8.032862,0.122672,8.089795,0.089802,8.097366,0.076689,8.110687,0.069396,8.116583,0.059699,8.262652,-0.059709,8.434870,-0.160730,8.620605,-0.233987,8.815414,-0.277730,9.014639,-0.290911,9.213513,-0.273215,9.407281,-0.225066,9.591307,-0.147616,
9.761190,-0.042715,9.904514,0.079976,9.910188,0.089803,9.967121,0.122673,10.032860,0.122672,10.089793,0.089802,10.093272,0.083776,10.099384,0.080332,10.105443,0.070086,10.250933,-0.051692,10.423466,-0.155321,10.610007,-0.230879,10.806023,-0.276531,11.006753,-0.291167,11.207318,-0.274432,11.402847,-0.226733,11.588587,-0.149228,11.760027,-0.043800,11.904234,0.079495,11.910186,0.089803,
11.967119,0.122673,12.032859,0.122672,12.089791,0.089802,12.092684,0.084791,12.097780,0.081908,12.103819,0.071656,12.249281,-0.050512,12.421853,-0.154512,12.608502,-0.230400,12.804685,-0.276325,13.005624,-0.291171,13.206427,-0.274575,13.402202,-0.226942,13.588184,-0.149432,13.759842,-0.043932,13.904234,0.079497,13.910184,0.089803,13.967117,0.122673,14.032857,0.122672,14.089789,0.089802,
14.122659,0.032869,14.122658,-0.032871,14.089785,-0.089805,13.924578,-0.233070,13.740756,-0.351513,13.542020,-0.442748,13.332373,-0.504937,13.116034,-0.536829,12.897359,-0.537781,12.680751,-0.507775,12.470570,-0.447415,12.271047,-0.357915,12.086199,-0.241078,12.000027,-0.167657,11.924776,-0.232924,11.741187,-0.351279,11.542709,-0.442491,11.333330,-0.504727,11.117255,-0.536738,10.898825,-0.537881,
10.682427,-0.508131,10.472408,-0.448088,10.272987,-0.358958,10.088170,-0.242529,10.000065,-0.167713,9.926147,-0.231896,9.744189,-0.349629,9.547514,-0.440675,9.340013,-0.503232,9.125789,-0.536064,8.909077,-0.538522,8.694163,-0.510556,8.485297,-0.452720,8.286608,-0.366158,8.102027,-0.252581,7.999889,-0.167880,7.926344,-0.231749,7.744619,-0.349393,7.548202,-0.440414,7.340969,-0.503017,
7.127009,-0.535965,6.910543,-0.538609,6.695842,-0.510896,6.487143,-0.453374,6.288561,-0.367177,6.104016,-0.254006,5.999784,-0.167861,5.924587,-0.233071,5.740764,-0.351515,5.542028,-0.442751,5.332380,-0.504941,5.116041,-0.536834,4.897365,-0.537788,4.680756,-0.507783,4.470574,-0.447423,4.271050,-0.357924,4.086201,-0.241087,4.000020,-0.167658,3.924589,-0.233071,3.740766,-0.351515,
3.542030,-0.442751,3.332382,-0.504942,3.116043,-0.536835,2.897367,-0.537789,2.680757,-0.507784,2.470575,-0.447424,2.271051,-0.357925,2.086202,-0.241089,2.000020,-0.167660,1.924591,-0.233072,1.740768,-0.351516,1.542032,-0.442753,1.332384,-0.504944,1.116044,-0.536837,0.897368,-0.537791,0.680759,-0.507786,0.470576,-0.447427,0.271051,-0.357928,0.086202,-0.241091,-0.080251,-0.099269,
-0.088901,-0.084584,-0.109985,-0.063500,-0.127000,0.000000,-0.109985,0.063500,-0.063500,0.109985,0.000000,0.127000,0.063500,0.109985,0.063500,0.109985,$1*%
%AMFreePoly13*
4,1,74,0.090320,1.758079,0.239662,1.720567,0.375744,1.648515,0.490712,1.546082,0.531399,1.486883,0.554756,1.483183,0.658279,1.430436,0.740436,1.348279,0.793183,1.244756,0.811359,1.130000,0.793183,1.015244,0.742519,0.915810,0.751359,0.860000,0.733183,0.745244,0.680436,0.641721,0.598279,0.559564,0.494756,0.506817,0.380000,0.488641,0.323760,0.497549,0.127000,0.283428,
0.127000,-0.587846,0.211346,-0.711884,0.214346,-0.726349,0.220000,-0.740000,0.218118,-0.744543,0.219116,-0.749355,0.211010,-0.761703,0.205355,-0.775355,0.200813,-0.777237,0.198115,-0.781346,0.183652,-0.784345,0.170000,-0.790000,-0.120000,-0.790000,-0.130398,-0.785693,-0.141637,-0.785076,-0.147391,-0.778654,-0.155355,-0.775355,-0.159662,-0.764957,-0.167173,-0.756574,-0.166701,-0.747965,
-0.170000,-0.740000,-0.165693,-0.729602,-0.165076,-0.718363,-0.127000,-0.639038,-0.127000,0.293608,-0.266054,0.429002,-0.320017,0.401507,-0.430000,0.384087,-0.539983,0.401507,-0.639200,0.452060,-0.717940,0.530800,-0.768493,0.630017,-0.780316,0.704660,-0.475881,0.704660,-0.472794,0.697206,-0.464310,0.693692,-0.475123,0.703531,-0.475881,0.704660,-0.780316,0.704660,-0.785913,0.740000,
-0.768493,0.849983,-0.723736,0.937824,-0.763183,1.015244,-0.781359,1.130000,-0.763183,1.244756,-0.710436,1.348279,-0.628279,1.430436,-0.524756,1.483183,-0.512625,1.485104,-0.466247,1.551093,-0.350213,1.652316,-0.213384,1.722939,-0.063658,1.758885,0.090320,1.758079,0.090320,1.758079,$1*%
%AMFreePoly14*
4,1,6,1.000000,0.000000,0.500000,-0.750000,-0.500000,-0.750000,-0.500000,0.750000,0.500000,0.750000,1.000000,0.000000,1.000000,0.000000,$1*%
%AMFreePoly15*
4,1,6,0.500000,-0.750000,-0.650000,-0.750000,-0.150000,0.000000,-0.650000,0.750000,0.500000,0.750000,0.500000,-0.750000,0.500000,-0.750000,$1*%
G04 Aperture macros list end*
%ADD10C,0.153000*%
%ADD11C,0.150000*%
%ADD12C,0.225000*%
%ADD13C,0.120000*%
%ADD14C,0.100000*%
%ADD15C,0.200000*%
%ADD16C,1.200000*%
%ADD17C,1.397000*%
%ADD18R,1.397000X1.397000*%
%ADD19C,0.240000*%
%ADD20C,1.700000*%
%ADD21R,1.700000X1.700000*%
%ADD22O,1.700000X1.700000*%
%ADD23C,1.524000*%
%ADD24RotRect,1.650000X0.820000X345.000000*%
%ADD25RoundRect,0.205000X-0.651932X-0.037547X0.545816X-0.358483X0.651932X0.037547X-0.545816X0.358483X0*%
%ADD26RotRect,1.650000X0.820000X330.000000*%
%ADD27RoundRect,0.205000X-0.639436X0.132465X0.434436X-0.487535X0.639436X-0.132465X-0.434436X0.487535X0*%
%ADD28O,2.500000X1.700000*%
%ADD29C,4.400000*%
%ADD30RotRect,0.900000X0.800000X100.000000*%
%ADD31C,3.400000*%
%ADD32C,2.350000*%
%ADD33RotRect,0.900000X0.800000X95.000000*%
%ADD34R,0.800000X0.900000*%
%ADD35R,3.200000X2.000000*%
%ADD36R,2.000000X2.000000*%
%ADD37C,2.000000*%
%ADD38C,1.800000*%
%ADD39RotRect,0.900000X0.800000X75.000000*%
%ADD40RotRect,0.900000X0.800000X45.000000*%
%ADD41RotRect,3.200000X2.000000X150.000000*%
%ADD42RotRect,2.000000X2.000000X150.000000*%
%ADD43R,1.650000X0.820000*%
%ADD44RoundRect,0.205000X-0.620000X-0.205000X0.620000X-0.205000X0.620000X0.205000X-0.620000X0.205000X0*%
%ADD45FreePoly0,270.000000*%
%ADD46FreePoly1,270.000000*%
%ADD47RoundRect,0.250000X-0.250000X-0.475000X0.250000X-0.475000X0.250000X0.475000X-0.250000X0.475000X0*%
%ADD48FreePoly2,90.000000*%
%ADD49R,1.100000X1.800000*%
%ADD50FreePoly3,295.000000*%
%ADD51C,1.600000*%
%ADD52FreePoly4,0.000000*%
%ADD53FreePoly5,0.000000*%
%ADD54FreePoly6,0.000000*%
%ADD55FreePoly7,0.000000*%
%ADD56FreePoly8,0.000000*%
%ADD57FreePoly9,0.000000*%
%ADD58FreePoly10,0.000000*%
%ADD59FreePoly11,0.000000*%
%ADD60FreePoly12,0.000000*%
%ADD61FreePoly13,0.000000*%
%ADD62C,1.000000*%
%ADD63C,1.300000*%
%ADD64FreePoly14,270.000000*%
%ADD65FreePoly15,270.000000*%
%ADD66R,1.560000X0.650000*%
%ADD67C,0.600000*%
%ADD68C,0.800000*%
G04 APERTURE END LIST*
D10*
X147186031Y-95857100D02*
X147271745Y-95857100D01*
X147357459Y-95899958D01*
X147400317Y-95942815D01*
X147443174Y-96028529D01*
X147486031Y-96199958D01*
X147486031Y-96414243D01*
X147443174Y-96585672D01*
X147400317Y-96671386D01*
X147357459Y-96714243D01*
X147271745Y-96757100D01*
X147186031Y-96757100D01*
X147100317Y-96714243D01*
X147057459Y-96671386D01*
X147014602Y-96585672D01*
X146971745Y-96414243D01*
X146971745Y-96199958D01*
X147014602Y-96028529D01*
X147057459Y-95942815D01*
X147100317Y-95899958D01*
X147186031Y-95857100D01*
X147871745Y-96671386D02*
X147914602Y-96714243D01*
X147871745Y-96757100D01*
X147828888Y-96714243D01*
X147871745Y-96671386D01*
X147871745Y-96757100D01*
X148771745Y-96757100D02*
X148257459Y-96757100D01*
X148514602Y-96757100D02*
X148514602Y-95857100D01*
X148428888Y-95985672D01*
X148343174Y-96071386D01*
X148257459Y-96114243D01*
X149157459Y-96671386D02*
X149200317Y-96714243D01*
X149157459Y-96757100D01*
X149114602Y-96714243D01*
X149157459Y-96671386D01*
X149157459Y-96757100D01*
X149757459Y-95857100D02*
X149843174Y-95857100D01*
X149928888Y-95899958D01*
X149971745Y-95942815D01*
X150014602Y-96028529D01*
X150057459Y-96199958D01*
X150057459Y-96414243D01*
X150014602Y-96585672D01*
X149971745Y-96671386D01*
X149928888Y-96714243D01*
X149843174Y-96757100D01*
X149757459Y-96757100D01*
X149671745Y-96714243D01*
X149628888Y-96671386D01*
X149586031Y-96585672D01*
X149543174Y-96414243D01*
X149543174Y-96199958D01*
X149586031Y-96028529D01*
X149628888Y-95942815D01*
X149671745Y-95899958D01*
X149757459Y-95857100D01*
X147557469Y-92797340D02*
X147557469Y-91797340D01*
X147938421Y-91797340D01*
X148033659Y-91844960D01*
X148081278Y-91892579D01*
X148128897Y-91987817D01*
X148128897Y-92130674D01*
X148081278Y-92225912D01*
X148033659Y-92273531D01*
X147938421Y-92321150D01*
X147557469Y-92321150D01*
X149128897Y-92702102D02*
X149081278Y-92749721D01*
X148938421Y-92797340D01*
X148843183Y-92797340D01*
X148700326Y-92749721D01*
X148605088Y-92654483D01*
X148557469Y-92559245D01*
X148509850Y-92368769D01*
X148509850Y-92225912D01*
X148557469Y-92035436D01*
X148605088Y-91940198D01*
X148700326Y-91844960D01*
X148843183Y-91797340D01*
X148938421Y-91797340D01*
X149081278Y-91844960D01*
X149128897Y-91892579D01*
X149890802Y-92273531D02*
X150033659Y-92321150D01*
X150081278Y-92368769D01*
X150128897Y-92464007D01*
X150128897Y-92606864D01*
X150081278Y-92702102D01*
X150033659Y-92749721D01*
X149938421Y-92797340D01*
X149557469Y-92797340D01*
X149557469Y-91797340D01*
X149890802Y-91797340D01*
X149986040Y-91844960D01*
X150033659Y-91892579D01*
X150081278Y-91987817D01*
X150081278Y-92083055D01*
X150033659Y-92178293D01*
X149986040Y-92225912D01*
X149890802Y-92273531D01*
X149557469Y-92273531D01*
X151319374Y-92797340D02*
X151319374Y-91797340D01*
X151319374Y-92178293D02*
X151414612Y-92130674D01*
X151605088Y-92130674D01*
X151700326Y-92178293D01*
X151747945Y-92225912D01*
X151795564Y-92321150D01*
X151795564Y-92606864D01*
X151747945Y-92702102D01*
X151700326Y-92749721D01*
X151605088Y-92797340D01*
X151414612Y-92797340D01*
X151319374Y-92749721D01*
X152128897Y-92130674D02*
X152366993Y-92797340D01*
X152605088Y-92130674D02*
X152366993Y-92797340D01*
X152271754Y-93035436D01*
X152224135Y-93083055D01*
X152128897Y-93130674D01*
X149081278Y-94407340D02*
X149081278Y-93407340D01*
X149414612Y-94121626D01*
X149747945Y-93407340D01*
X149747945Y-94407340D01*
X150224135Y-94407340D02*
X150224135Y-93407340D01*
X150557469Y-94121626D01*
X150890802Y-93407340D01*
X150890802Y-94407340D01*
D11*
X193400875Y-53906388D02*
X193400875Y-54484960D01*
X193353256Y-54600674D01*
X193258018Y-54677817D01*
X193115161Y-54716388D01*
X193019923Y-54716388D01*
X194353256Y-54716388D02*
X193877065Y-54716388D01*
X193877065Y-53906388D01*
X195258018Y-54639245D02*
X195210399Y-54677817D01*
X195067542Y-54716388D01*
X194972303Y-54716388D01*
X194829446Y-54677817D01*
X194734208Y-54600674D01*
X194686589Y-54523531D01*
X194638970Y-54369245D01*
X194638970Y-54253531D01*
X194686589Y-54099245D01*
X194734208Y-54022102D01*
X194829446Y-53944960D01*
X194972303Y-53906388D01*
X195067542Y-53906388D01*
X195210399Y-53944960D01*
X195258018Y-53983531D01*
X195972303Y-53906388D02*
X195972303Y-54484960D01*
X195924684Y-54600674D01*
X195829446Y-54677817D01*
X195686589Y-54716388D01*
X195591351Y-54716388D01*
X196924684Y-54716388D02*
X196448494Y-54716388D01*
X196448494Y-53906388D01*
X197829446Y-54639245D02*
X197781827Y-54677817D01*
X197638970Y-54716388D01*
X197543732Y-54716388D01*
X197400875Y-54677817D01*
X197305637Y-54600674D01*
X197258018Y-54523531D01*
X197210399Y-54369245D01*
X197210399Y-54253531D01*
X197258018Y-54099245D01*
X197305637Y-54022102D01*
X197400875Y-53944960D01*
X197543732Y-53906388D01*
X197638970Y-53906388D01*
X197781827Y-53944960D01*
X197829446Y-53983531D01*
X198543732Y-53906388D02*
X198543732Y-54484960D01*
X198496113Y-54600674D01*
X198400875Y-54677817D01*
X198258018Y-54716388D01*
X198162780Y-54716388D01*
X199496113Y-54716388D02*
X199019923Y-54716388D01*
X199019923Y-53906388D01*
X200400875Y-54639245D02*
X200353256Y-54677817D01*
X200210399Y-54716388D01*
X200115161Y-54716388D01*
X199972303Y-54677817D01*
X199877065Y-54600674D01*
X199829446Y-54523531D01*
X199781827Y-54369245D01*
X199781827Y-54253531D01*
X199829446Y-54099245D01*
X199877065Y-54022102D01*
X199972303Y-53944960D01*
X200115161Y-53906388D01*
X200210399Y-53906388D01*
X200353256Y-53944960D01*
X200400875Y-53983531D01*
X201115161Y-53906388D02*
X201115161Y-54484960D01*
X201067542Y-54600674D01*
X200972303Y-54677817D01*
X200829446Y-54716388D01*
X200734208Y-54716388D01*
X202067542Y-54716388D02*
X201591351Y-54716388D01*
X201591351Y-53906388D01*
X202972303Y-54639245D02*
X202924684Y-54677817D01*
X202781827Y-54716388D01*
X202686589Y-54716388D01*
X202543732Y-54677817D01*
X202448494Y-54600674D01*
X202400875Y-54523531D01*
X202353256Y-54369245D01*
X202353256Y-54253531D01*
X202400875Y-54099245D01*
X202448494Y-54022102D01*
X202543732Y-53944960D01*
X202686589Y-53906388D01*
X202781827Y-53906388D01*
X202924684Y-53944960D01*
X202972303Y-53983531D01*
%TO.C,DS1*%
X197130543Y-90035533D02*
X197130543Y-89035533D01*
X197368638Y-89035533D01*
X197511495Y-89083153D01*
X197606733Y-89178391D01*
X197654352Y-89273629D01*
X197701971Y-89464105D01*
X197701971Y-89606962D01*
X197654352Y-89797438D01*
X197606733Y-89892676D01*
X197511495Y-89987914D01*
X197368638Y-90035533D01*
X197130543Y-90035533D01*
X198082924Y-89987914D02*
X198225781Y-90035533D01*
X198463876Y-90035533D01*
X198559114Y-89987914D01*
X198606733Y-89940295D01*
X198654352Y-89845057D01*
X198654352Y-89749819D01*
X198606733Y-89654581D01*
X198559114Y-89606962D01*
X198463876Y-89559343D01*
X198273400Y-89511724D01*
X198178162Y-89464105D01*
X198130543Y-89416486D01*
X198082924Y-89321248D01*
X198082924Y-89226010D01*
X198130543Y-89130772D01*
X198178162Y-89083153D01*
X198273400Y-89035533D01*
X198511495Y-89035533D01*
X198654352Y-89083153D01*
X199606733Y-90035533D02*
X199035305Y-90035533D01*
X199321019Y-90035533D02*
X199321019Y-89035533D01*
X199225781Y-89178391D01*
X199130543Y-89273629D01*
X199035305Y-89321248D01*
%TO.C,U1*%
X202126579Y-53483452D02*
X201840865Y-53483452D01*
X201840865Y-52483452D01*
X202326579Y-52959643D02*
X202526579Y-52959643D01*
X202612293Y-53483452D02*
X202326579Y-53483452D01*
X202326579Y-52483452D01*
X202612293Y-52483452D01*
X202869436Y-53483452D02*
X202869436Y-52483452D01*
X203012293Y-52483452D01*
X203098008Y-52531072D01*
X203155151Y-52626310D01*
X203183722Y-52721548D01*
X203212293Y-52912024D01*
X203212293Y-53054881D01*
X203183722Y-53245357D01*
X203155151Y-53340595D01*
X203098008Y-53435833D01*
X203012293Y-53483452D01*
X202869436Y-53483452D01*
X203469436Y-53102500D02*
X203926579Y-53102500D01*
X204212293Y-52816786D02*
X204669436Y-53102500D01*
X204212293Y-53388214D01*
X186305151Y-73708214D02*
X186276579Y-73755833D01*
X186190865Y-73803452D01*
X186133722Y-73803452D01*
X186048008Y-73755833D01*
X185990865Y-73660595D01*
X185962293Y-73565357D01*
X185933722Y-73374881D01*
X185933722Y-73232024D01*
X185962293Y-73041548D01*
X185990865Y-72946310D01*
X186048008Y-72851072D01*
X186133722Y-72803452D01*
X186190865Y-72803452D01*
X186276579Y-72851072D01*
X186305151Y-72898691D01*
X186676579Y-72803452D02*
X186790865Y-72803452D01*
X186848008Y-72851072D01*
X186905151Y-72946310D01*
X186933722Y-73136786D01*
X186933722Y-73470119D01*
X186905151Y-73660595D01*
X186848008Y-73755833D01*
X186790865Y-73803452D01*
X186676579Y-73803452D01*
X186619436Y-73755833D01*
X186562293Y-73660595D01*
X186533722Y-73470119D01*
X186533722Y-73136786D01*
X186562293Y-72946310D01*
X186619436Y-72851072D01*
X186676579Y-72803452D01*
X187476579Y-73803452D02*
X187190865Y-73803452D01*
X187190865Y-72803452D01*
X187648008Y-72898691D02*
X187676579Y-72851072D01*
X187733722Y-72803452D01*
X187876579Y-72803452D01*
X187933722Y-72851072D01*
X187962293Y-72898691D01*
X187990865Y-72993929D01*
X187990865Y-73089167D01*
X187962293Y-73232024D01*
X187619436Y-73803452D01*
X187990865Y-73803452D01*
X188248008Y-73422500D02*
X188705151Y-73422500D01*
X188990865Y-73136786D02*
X189448008Y-73422500D01*
X188990865Y-73708214D01*
X186305151Y-68628214D02*
X186276579Y-68675833D01*
X186190865Y-68723452D01*
X186133722Y-68723452D01*
X186048008Y-68675833D01*
X185990865Y-68580595D01*
X185962293Y-68485357D01*
X185933722Y-68294881D01*
X185933722Y-68152024D01*
X185962293Y-67961548D01*
X185990865Y-67866310D01*
X186048008Y-67771072D01*
X186133722Y-67723452D01*
X186190865Y-67723452D01*
X186276579Y-67771072D01*
X186305151Y-67818691D01*
X186676579Y-67723452D02*
X186790865Y-67723452D01*
X186848008Y-67771072D01*
X186905151Y-67866310D01*
X186933722Y-68056786D01*
X186933722Y-68390119D01*
X186905151Y-68580595D01*
X186848008Y-68675833D01*
X186790865Y-68723452D01*
X186676579Y-68723452D01*
X186619436Y-68675833D01*
X186562293Y-68580595D01*
X186533722Y-68390119D01*
X186533722Y-68056786D01*
X186562293Y-67866310D01*
X186619436Y-67771072D01*
X186676579Y-67723452D01*
X187476579Y-68723452D02*
X187190865Y-68723452D01*
X187190865Y-67723452D01*
X187790865Y-67723452D02*
X187848008Y-67723452D01*
X187905151Y-67771072D01*
X187933722Y-67818691D01*
X187962293Y-67913929D01*
X187990865Y-68104405D01*
X187990865Y-68342500D01*
X187962293Y-68532976D01*
X187933722Y-68628214D01*
X187905151Y-68675833D01*
X187848008Y-68723452D01*
X187790865Y-68723452D01*
X187733722Y-68675833D01*
X187705151Y-68628214D01*
X187676579Y-68532976D01*
X187648008Y-68342500D01*
X187648008Y-68104405D01*
X187676579Y-67913929D01*
X187705151Y-67818691D01*
X187733722Y-67771072D01*
X187790865Y-67723452D01*
X188248008Y-68342500D02*
X188705151Y-68342500D01*
X188990865Y-68056786D02*
X189448008Y-68342500D01*
X188990865Y-68628214D01*
X201540865Y-63643452D02*
X201540865Y-62643452D01*
X201740865Y-63357738D01*
X201940865Y-62643452D01*
X201940865Y-63643452D01*
X202340865Y-62643452D02*
X202455151Y-62643452D01*
X202512294Y-62691072D01*
X202569437Y-62786310D01*
X202598008Y-62976786D01*
X202598008Y-63310119D01*
X202569437Y-63500595D01*
X202512294Y-63595833D01*
X202455151Y-63643452D01*
X202340865Y-63643452D01*
X202283722Y-63595833D01*
X202226580Y-63500595D01*
X202198008Y-63310119D01*
X202198008Y-62976786D01*
X202226580Y-62786310D01*
X202283722Y-62691072D01*
X202340865Y-62643452D01*
X202826580Y-63595833D02*
X202912294Y-63643452D01*
X203055151Y-63643452D01*
X203112294Y-63595833D01*
X203140865Y-63548214D01*
X203169437Y-63452976D01*
X203169437Y-63357738D01*
X203140865Y-63262500D01*
X203112294Y-63214881D01*
X203055151Y-63167262D01*
X202940865Y-63119643D01*
X202883722Y-63072024D01*
X202855151Y-63024405D01*
X202826580Y-62929167D01*
X202826580Y-62833929D01*
X202855151Y-62738691D01*
X202883722Y-62691072D01*
X202940865Y-62643452D01*
X203083722Y-62643452D01*
X203169437Y-62691072D01*
X203426580Y-63643452D02*
X203426580Y-62643452D01*
X203712294Y-63262500D02*
X204169437Y-63262500D01*
X204455151Y-62976786D02*
X204912294Y-63262500D01*
X204455151Y-63548214D01*
X186305151Y-76248214D02*
X186276579Y-76295833D01*
X186190865Y-76343452D01*
X186133722Y-76343452D01*
X186048008Y-76295833D01*
X185990865Y-76200595D01*
X185962293Y-76105357D01*
X185933722Y-75914881D01*
X185933722Y-75772024D01*
X185962293Y-75581548D01*
X185990865Y-75486310D01*
X186048008Y-75391072D01*
X186133722Y-75343452D01*
X186190865Y-75343452D01*
X186276579Y-75391072D01*
X186305151Y-75438691D01*
X186676579Y-75343452D02*
X186790865Y-75343452D01*
X186848008Y-75391072D01*
X186905151Y-75486310D01*
X186933722Y-75676786D01*
X186933722Y-76010119D01*
X186905151Y-76200595D01*
X186848008Y-76295833D01*
X186790865Y-76343452D01*
X186676579Y-76343452D01*
X186619436Y-76295833D01*
X186562293Y-76200595D01*
X186533722Y-76010119D01*
X186533722Y-75676786D01*
X186562293Y-75486310D01*
X186619436Y-75391072D01*
X186676579Y-75343452D01*
X187476579Y-76343452D02*
X187190865Y-76343452D01*
X187190865Y-75343452D01*
X187619436Y-75343452D02*
X187990865Y-75343452D01*
X187790865Y-75724405D01*
X187876579Y-75724405D01*
X187933722Y-75772024D01*
X187962293Y-75819643D01*
X187990865Y-75914881D01*
X187990865Y-76152976D01*
X187962293Y-76248214D01*
X187933722Y-76295833D01*
X187876579Y-76343452D01*
X187705151Y-76343452D01*
X187648008Y-76295833D01*
X187619436Y-76248214D01*
X188248008Y-75962500D02*
X188705151Y-75962500D01*
X188990865Y-75676786D02*
X189448008Y-75962500D01*
X188990865Y-76248214D01*
X198306793Y-60610500D02*
X198992507Y-60610500D01*
X199421079Y-60610500D02*
X200106793Y-60610500D01*
X200535365Y-60324786D02*
X201221079Y-60610500D01*
X200535365Y-60896214D01*
X201326580Y-71263452D02*
X201126580Y-70787262D01*
X200983722Y-71263452D02*
X200983722Y-70263452D01*
X201212294Y-70263452D01*
X201269437Y-70311072D01*
X201298008Y-70358691D01*
X201326580Y-70453929D01*
X201326580Y-70596786D01*
X201298008Y-70692024D01*
X201269437Y-70739643D01*
X201212294Y-70787262D01*
X200983722Y-70787262D01*
X201698008Y-70263452D02*
X201812294Y-70263452D01*
X201869437Y-70311072D01*
X201926580Y-70406310D01*
X201955151Y-70596786D01*
X201955151Y-70930119D01*
X201926580Y-71120595D01*
X201869437Y-71215833D01*
X201812294Y-71263452D01*
X201698008Y-71263452D01*
X201640865Y-71215833D01*
X201583722Y-71120595D01*
X201555151Y-70930119D01*
X201555151Y-70596786D01*
X201583722Y-70406310D01*
X201640865Y-70311072D01*
X201698008Y-70263452D01*
X202155151Y-70263452D02*
X202298008Y-71263452D01*
X202412294Y-70549167D01*
X202526580Y-71263452D01*
X202669437Y-70263452D01*
X203012294Y-70263452D02*
X203069437Y-70263452D01*
X203126580Y-70311072D01*
X203155151Y-70358691D01*
X203183722Y-70453929D01*
X203212294Y-70644405D01*
X203212294Y-70882500D01*
X203183722Y-71072976D01*
X203155151Y-71168214D01*
X203126580Y-71215833D01*
X203069437Y-71263452D01*
X203012294Y-71263452D01*
X202955151Y-71215833D01*
X202926580Y-71168214D01*
X202898008Y-71072976D01*
X202869437Y-70882500D01*
X202869437Y-70644405D01*
X202898008Y-70453929D01*
X202926580Y-70358691D01*
X202955151Y-70311072D01*
X203012294Y-70263452D01*
X203469437Y-70882500D02*
X203926580Y-70882500D01*
X204212294Y-70596786D02*
X204669437Y-70882500D01*
X204212294Y-71168214D01*
X186305151Y-81328214D02*
X186276579Y-81375833D01*
X186190865Y-81423452D01*
X186133722Y-81423452D01*
X186048008Y-81375833D01*
X185990865Y-81280595D01*
X185962293Y-81185357D01*
X185933722Y-80994881D01*
X185933722Y-80852024D01*
X185962293Y-80661548D01*
X185990865Y-80566310D01*
X186048008Y-80471072D01*
X186133722Y-80423452D01*
X186190865Y-80423452D01*
X186276579Y-80471072D01*
X186305151Y-80518691D01*
X186676579Y-80423452D02*
X186790865Y-80423452D01*
X186848008Y-80471072D01*
X186905151Y-80566310D01*
X186933722Y-80756786D01*
X186933722Y-81090119D01*
X186905151Y-81280595D01*
X186848008Y-81375833D01*
X186790865Y-81423452D01*
X186676579Y-81423452D01*
X186619436Y-81375833D01*
X186562293Y-81280595D01*
X186533722Y-81090119D01*
X186533722Y-80756786D01*
X186562293Y-80566310D01*
X186619436Y-80471072D01*
X186676579Y-80423452D01*
X187476579Y-81423452D02*
X187190865Y-81423452D01*
X187190865Y-80423452D01*
X187962293Y-80423452D02*
X187676579Y-80423452D01*
X187648008Y-80899643D01*
X187676579Y-80852024D01*
X187733722Y-80804405D01*
X187876579Y-80804405D01*
X187933722Y-80852024D01*
X187962293Y-80899643D01*
X187990865Y-80994881D01*
X187990865Y-81232976D01*
X187962293Y-81328214D01*
X187933722Y-81375833D01*
X187876579Y-81423452D01*
X187733722Y-81423452D01*
X187676579Y-81375833D01*
X187648008Y-81328214D01*
X188248008Y-81042500D02*
X188705151Y-81042500D01*
X188990865Y-80756786D02*
X189448008Y-81042500D01*
X188990865Y-81328214D01*
X201955151Y-57611072D02*
X201898008Y-57563452D01*
X201812293Y-57563452D01*
X201726579Y-57611072D01*
X201669436Y-57706310D01*
X201640865Y-57801548D01*
X201612293Y-57992024D01*
X201612293Y-58134881D01*
X201640865Y-58325357D01*
X201669436Y-58420595D01*
X201726579Y-58515833D01*
X201812293Y-58563452D01*
X201869436Y-58563452D01*
X201955151Y-58515833D01*
X201983722Y-58468214D01*
X201983722Y-58134881D01*
X201869436Y-58134881D01*
X202240865Y-58563452D02*
X202240865Y-57563452D01*
X202583722Y-58563452D01*
X202583722Y-57563452D01*
X202869436Y-58563452D02*
X202869436Y-57563452D01*
X203012293Y-57563452D01*
X203098008Y-57611072D01*
X203155151Y-57706310D01*
X203183722Y-57801548D01*
X203212293Y-57992024D01*
X203212293Y-58134881D01*
X203183722Y-58325357D01*
X203155151Y-58420595D01*
X203098008Y-58515833D01*
X203012293Y-58563452D01*
X202869436Y-58563452D01*
X203469436Y-58182500D02*
X203926579Y-58182500D01*
X204212293Y-57896786D02*
X204669436Y-58182500D01*
X204212293Y-58468214D01*
X193288365Y-60396786D02*
X192602650Y-60682500D01*
X193288365Y-60968214D01*
X193716936Y-60682500D02*
X194402650Y-60682500D01*
X194831222Y-60682500D02*
X195516936Y-60682500D01*
X186733722Y-55071072D02*
X186676579Y-55023452D01*
X186590864Y-55023452D01*
X186505150Y-55071072D01*
X186448007Y-55166310D01*
X186419436Y-55261548D01*
X186390864Y-55452024D01*
X186390864Y-55594881D01*
X186419436Y-55785357D01*
X186448007Y-55880595D01*
X186505150Y-55975833D01*
X186590864Y-56023452D01*
X186648007Y-56023452D01*
X186733722Y-55975833D01*
X186762293Y-55928214D01*
X186762293Y-55594881D01*
X186648007Y-55594881D01*
X187019436Y-56023452D02*
X187019436Y-55023452D01*
X187362293Y-56023452D01*
X187362293Y-55023452D01*
X187648007Y-56023452D02*
X187648007Y-55023452D01*
X187790864Y-55023452D01*
X187876579Y-55071072D01*
X187933722Y-55166310D01*
X187962293Y-55261548D01*
X187990864Y-55452024D01*
X187990864Y-55594881D01*
X187962293Y-55785357D01*
X187933722Y-55880595D01*
X187876579Y-55975833D01*
X187790864Y-56023452D01*
X187648007Y-56023452D01*
X188248007Y-55642500D02*
X188705150Y-55642500D01*
X188990864Y-55356786D02*
X189448007Y-55642500D01*
X188990864Y-55928214D01*
D12*
X196052293Y-56320500D02*
X197552293Y-56320500D01*
X196480865Y-56620500D01*
X197552293Y-56920500D01*
X196052293Y-56920500D01*
X196052293Y-57734786D02*
X196838007Y-57734786D01*
X196980865Y-57691929D01*
X197052293Y-57606214D01*
X197052293Y-57434786D01*
X196980865Y-57349072D01*
X196123722Y-57734786D02*
X196052293Y-57649072D01*
X196052293Y-57434786D01*
X196123722Y-57349072D01*
X196266579Y-57306214D01*
X196409436Y-57306214D01*
X196552293Y-57349072D01*
X196623722Y-57434786D01*
X196623722Y-57649072D01*
X196695150Y-57734786D01*
X197052293Y-58034786D02*
X197052293Y-58377643D01*
X197552293Y-58163357D02*
X196266579Y-58163357D01*
X196123722Y-58206214D01*
X196052293Y-58291929D01*
X196052293Y-58377643D01*
X196123722Y-59063357D02*
X196052293Y-58977643D01*
X196052293Y-58806214D01*
X196123722Y-58720500D01*
X196195150Y-58677643D01*
X196338007Y-58634786D01*
X196766579Y-58634786D01*
X196909436Y-58677643D01*
X196980865Y-58720500D01*
X197052293Y-58806214D01*
X197052293Y-58977643D01*
X196980865Y-59063357D01*
X196052293Y-59449072D02*
X197552293Y-59449072D01*
X196052293Y-59834786D02*
X196838007Y-59834786D01*
X196980865Y-59791929D01*
X197052293Y-59706214D01*
X197052293Y-59577643D01*
X196980865Y-59491929D01*
X196909436Y-59449072D01*
X197052293Y-60863357D02*
X196052293Y-61034786D01*
X196766579Y-61206214D01*
X196052293Y-61377643D01*
X197052293Y-61549072D01*
X196052293Y-61891929D02*
X197052293Y-61891929D01*
X197552293Y-61891929D02*
X197480865Y-61849072D01*
X197409436Y-61891929D01*
X197480865Y-61934786D01*
X197552293Y-61891929D01*
X197409436Y-61891929D01*
X197052293Y-62191929D02*
X197052293Y-62534786D01*
X197552293Y-62320500D02*
X196266579Y-62320500D01*
X196123722Y-62363357D01*
X196052293Y-62449072D01*
X196052293Y-62534786D01*
X196052293Y-62834786D02*
X197552293Y-62834786D01*
X196052293Y-63220500D02*
X196838007Y-63220500D01*
X196980865Y-63177643D01*
X197052293Y-63091929D01*
X197052293Y-62963357D01*
X196980865Y-62877643D01*
X196909436Y-62834786D01*
X196052293Y-64334786D02*
X197552293Y-64334786D01*
X196480865Y-64634786D01*
X197552293Y-64934786D01*
X196052293Y-64934786D01*
X196195150Y-65877643D02*
X196123722Y-65834786D01*
X196052293Y-65706214D01*
X196052293Y-65620500D01*
X196123722Y-65491929D01*
X196266579Y-65406214D01*
X196409436Y-65363357D01*
X196695150Y-65320500D01*
X196909436Y-65320500D01*
X197195150Y-65363357D01*
X197338007Y-65406214D01*
X197480865Y-65491929D01*
X197552293Y-65620500D01*
X197552293Y-65706214D01*
X197480865Y-65834786D01*
X197409436Y-65877643D01*
X197552293Y-66263357D02*
X196338007Y-66263357D01*
X196195150Y-66306214D01*
X196123722Y-66349072D01*
X196052293Y-66434786D01*
X196052293Y-66606214D01*
X196123722Y-66691929D01*
X196195150Y-66734786D01*
X196338007Y-66777643D01*
X197552293Y-66777643D01*
X197052293Y-67891929D02*
X195552293Y-67891929D01*
X196980865Y-67891929D02*
X197052293Y-67977643D01*
X197052293Y-68149072D01*
X196980865Y-68234786D01*
X196909436Y-68277643D01*
X196766579Y-68320500D01*
X196338007Y-68320500D01*
X196195150Y-68277643D01*
X196123722Y-68234786D01*
X196052293Y-68149072D01*
X196052293Y-67977643D01*
X196123722Y-67891929D01*
X196052293Y-68706214D02*
X197052293Y-68706214D01*
X197552293Y-68706214D02*
X197480865Y-68663357D01*
X197409436Y-68706214D01*
X197480865Y-68749072D01*
X197552293Y-68706214D01*
X197409436Y-68706214D01*
X197052293Y-69134786D02*
X196052293Y-69134786D01*
X196909436Y-69134786D02*
X196980865Y-69177643D01*
X197052293Y-69263357D01*
X197052293Y-69391929D01*
X196980865Y-69477643D01*
X196838007Y-69520500D01*
X196052293Y-69520500D01*
X196052293Y-70763357D02*
X196123722Y-70677643D01*
X196266579Y-70634786D01*
X197552293Y-70634786D01*
X196052293Y-71491929D02*
X196838007Y-71491929D01*
X196980865Y-71449072D01*
X197052293Y-71363357D01*
X197052293Y-71191929D01*
X196980865Y-71106214D01*
X196123722Y-71491929D02*
X196052293Y-71406214D01*
X196052293Y-71191929D01*
X196123722Y-71106214D01*
X196266579Y-71063357D01*
X196409436Y-71063357D01*
X196552293Y-71106214D01*
X196623722Y-71191929D01*
X196623722Y-71406214D01*
X196695150Y-71491929D01*
X196052293Y-71920500D02*
X197552293Y-71920500D01*
X196980865Y-71920500D02*
X197052293Y-72006214D01*
X197052293Y-72177643D01*
X196980865Y-72263357D01*
X196909436Y-72306214D01*
X196766579Y-72349072D01*
X196338007Y-72349072D01*
X196195150Y-72306214D01*
X196123722Y-72263357D01*
X196052293Y-72177643D01*
X196052293Y-72006214D01*
X196123722Y-71920500D01*
X196123722Y-73077643D02*
X196052293Y-72991929D01*
X196052293Y-72820500D01*
X196123722Y-72734786D01*
X196266579Y-72691929D01*
X196838007Y-72691929D01*
X196980865Y-72734786D01*
X197052293Y-72820500D01*
X197052293Y-72991929D01*
X196980865Y-73077643D01*
X196838007Y-73120500D01*
X196695150Y-73120500D01*
X196552293Y-72691929D01*
X196052293Y-73634786D02*
X196123722Y-73549072D01*
X196266579Y-73506214D01*
X197552293Y-73506214D01*
X196123722Y-73934786D02*
X196052293Y-74020500D01*
X196052293Y-74191929D01*
X196123722Y-74277643D01*
X196266579Y-74320500D01*
X196338007Y-74320500D01*
X196480865Y-74277643D01*
X196552293Y-74191929D01*
X196552293Y-74063357D01*
X196623722Y-73977643D01*
X196766579Y-73934786D01*
X196838007Y-73934786D01*
X196980865Y-73977643D01*
X197052293Y-74063357D01*
X197052293Y-74191929D01*
X196980865Y-74277643D01*
D11*
X186448007Y-60103452D02*
X186648007Y-61103452D01*
X186848007Y-60103452D01*
X187390865Y-61008214D02*
X187362293Y-61055833D01*
X187276579Y-61103452D01*
X187219436Y-61103452D01*
X187133722Y-61055833D01*
X187076579Y-60960595D01*
X187048007Y-60865357D01*
X187019436Y-60674881D01*
X187019436Y-60532024D01*
X187048007Y-60341548D01*
X187076579Y-60246310D01*
X187133722Y-60151072D01*
X187219436Y-60103452D01*
X187276579Y-60103452D01*
X187362293Y-60151072D01*
X187390865Y-60198691D01*
X187990865Y-61008214D02*
X187962293Y-61055833D01*
X187876579Y-61103452D01*
X187819436Y-61103452D01*
X187733722Y-61055833D01*
X187676579Y-60960595D01*
X187648007Y-60865357D01*
X187619436Y-60674881D01*
X187619436Y-60532024D01*
X187648007Y-60341548D01*
X187676579Y-60246310D01*
X187733722Y-60151072D01*
X187819436Y-60103452D01*
X187876579Y-60103452D01*
X187962293Y-60151072D01*
X187990865Y-60198691D01*
X188248007Y-60722500D02*
X188705150Y-60722500D01*
X188990865Y-60436786D02*
X189448007Y-60722500D01*
X188990865Y-61008214D01*
X186790865Y-53483452D02*
X186590865Y-53007262D01*
X186448008Y-53483452D02*
X186448008Y-52483452D01*
X186676579Y-52483452D01*
X186733722Y-52531072D01*
X186762293Y-52578691D01*
X186790865Y-52673929D01*
X186790865Y-52816786D01*
X186762293Y-52912024D01*
X186733722Y-52959643D01*
X186676579Y-53007262D01*
X186448008Y-53007262D01*
X187019436Y-53197738D02*
X187305150Y-53197738D01*
X186962293Y-53483452D02*
X187162293Y-52483452D01*
X187362293Y-53483452D01*
X187505150Y-52483452D02*
X187648008Y-53483452D01*
X187762293Y-52769167D01*
X187876579Y-53483452D01*
X188019436Y-52483452D01*
X188248008Y-53102500D02*
X188705150Y-53102500D01*
X188990865Y-52816786D02*
X189448008Y-53102500D01*
X188990865Y-53388214D01*
X201326580Y-73803452D02*
X201126580Y-73327262D01*
X200983722Y-73803452D02*
X200983722Y-72803452D01*
X201212294Y-72803452D01*
X201269437Y-72851072D01*
X201298008Y-72898691D01*
X201326580Y-72993929D01*
X201326580Y-73136786D01*
X201298008Y-73232024D01*
X201269437Y-73279643D01*
X201212294Y-73327262D01*
X200983722Y-73327262D01*
X201698008Y-72803452D02*
X201812294Y-72803452D01*
X201869437Y-72851072D01*
X201926580Y-72946310D01*
X201955151Y-73136786D01*
X201955151Y-73470119D01*
X201926580Y-73660595D01*
X201869437Y-73755833D01*
X201812294Y-73803452D01*
X201698008Y-73803452D01*
X201640865Y-73755833D01*
X201583722Y-73660595D01*
X201555151Y-73470119D01*
X201555151Y-73136786D01*
X201583722Y-72946310D01*
X201640865Y-72851072D01*
X201698008Y-72803452D01*
X202155151Y-72803452D02*
X202298008Y-73803452D01*
X202412294Y-73089167D01*
X202526580Y-73803452D01*
X202669437Y-72803452D01*
X203212294Y-73803452D02*
X202869437Y-73803452D01*
X203040865Y-73803452D02*
X203040865Y-72803452D01*
X202983722Y-72946310D01*
X202926580Y-73041548D01*
X202869437Y-73089167D01*
X203469437Y-73422500D02*
X203926580Y-73422500D01*
X204212294Y-73136786D02*
X204669437Y-73422500D01*
X204212294Y-73708214D01*
X186962293Y-58563452D02*
X186762293Y-58087262D01*
X186619436Y-58563452D02*
X186619436Y-57563452D01*
X186848007Y-57563452D01*
X186905150Y-57611072D01*
X186933722Y-57658691D01*
X186962293Y-57753929D01*
X186962293Y-57896786D01*
X186933722Y-57992024D01*
X186905150Y-58039643D01*
X186848007Y-58087262D01*
X186619436Y-58087262D01*
X187190864Y-58515833D02*
X187276579Y-58563452D01*
X187419436Y-58563452D01*
X187476579Y-58515833D01*
X187505150Y-58468214D01*
X187533722Y-58372976D01*
X187533722Y-58277738D01*
X187505150Y-58182500D01*
X187476579Y-58134881D01*
X187419436Y-58087262D01*
X187305150Y-58039643D01*
X187248007Y-57992024D01*
X187219436Y-57944405D01*
X187190864Y-57849167D01*
X187190864Y-57753929D01*
X187219436Y-57658691D01*
X187248007Y-57611072D01*
X187305150Y-57563452D01*
X187448007Y-57563452D01*
X187533722Y-57611072D01*
X187705150Y-57563452D02*
X188048007Y-57563452D01*
X187876579Y-58563452D02*
X187876579Y-57563452D01*
X188248007Y-58182500D02*
X188705150Y-58182500D01*
X188990864Y-57896786D02*
X189448007Y-58182500D01*
X188990864Y-58468214D01*
X201383722Y-56023452D02*
X201383722Y-55023452D01*
X201526580Y-55023452D01*
X201612294Y-55071072D01*
X201669437Y-55166310D01*
X201698008Y-55261548D01*
X201726580Y-55452024D01*
X201726580Y-55594881D01*
X201698008Y-55785357D01*
X201669437Y-55880595D01*
X201612294Y-55975833D01*
X201526580Y-56023452D01*
X201383722Y-56023452D01*
X201955151Y-55737738D02*
X202240865Y-55737738D01*
X201898008Y-56023452D02*
X202098008Y-55023452D01*
X202298008Y-56023452D01*
X202412294Y-55023452D02*
X202755151Y-55023452D01*
X202583722Y-56023452D02*
X202583722Y-55023452D01*
X202926580Y-55737738D02*
X203212294Y-55737738D01*
X202869437Y-56023452D02*
X203069437Y-55023452D01*
X203269437Y-56023452D01*
X203469437Y-55642500D02*
X203926580Y-55642500D01*
X204212294Y-55356786D02*
X204669437Y-55642500D01*
X204212294Y-55928214D01*
X185505150Y-65659643D02*
X185705150Y-65659643D01*
X185790864Y-66183452D02*
X185505150Y-66183452D01*
X185505150Y-65183452D01*
X185790864Y-65183452D01*
X186048007Y-66183452D02*
X186048007Y-65183452D01*
X186390864Y-66183452D01*
X186390864Y-65183452D01*
X187019436Y-66088214D02*
X186990864Y-66135833D01*
X186905150Y-66183452D01*
X186848007Y-66183452D01*
X186762293Y-66135833D01*
X186705150Y-66040595D01*
X186676579Y-65945357D01*
X186648007Y-65754881D01*
X186648007Y-65612024D01*
X186676579Y-65421548D01*
X186705150Y-65326310D01*
X186762293Y-65231072D01*
X186848007Y-65183452D01*
X186905150Y-65183452D01*
X186990864Y-65231072D01*
X187019436Y-65278691D01*
X187133721Y-66278691D02*
X187590864Y-66278691D01*
X187705150Y-65897738D02*
X187990864Y-65897738D01*
X187648007Y-66183452D02*
X187848007Y-65183452D01*
X188048007Y-66183452D01*
X188248007Y-65802500D02*
X188705150Y-65802500D01*
X188990864Y-65516786D02*
X189448007Y-65802500D01*
X188990864Y-66088214D01*
X185419436Y-63119643D02*
X185619436Y-63119643D01*
X185705150Y-63643452D02*
X185419436Y-63643452D01*
X185419436Y-62643452D01*
X185705150Y-62643452D01*
X185962293Y-63643452D02*
X185962293Y-62643452D01*
X186305150Y-63643452D01*
X186305150Y-62643452D01*
X186933722Y-63548214D02*
X186905150Y-63595833D01*
X186819436Y-63643452D01*
X186762293Y-63643452D01*
X186676579Y-63595833D01*
X186619436Y-63500595D01*
X186590864Y-63405357D01*
X186562293Y-63214881D01*
X186562293Y-63072024D01*
X186590864Y-62881548D01*
X186619436Y-62786310D01*
X186676579Y-62691072D01*
X186762293Y-62643452D01*
X186819436Y-62643452D01*
X186905150Y-62691072D01*
X186933722Y-62738691D01*
X187048007Y-63738691D02*
X187505150Y-63738691D01*
X187848007Y-63119643D02*
X187933722Y-63167262D01*
X187962293Y-63214881D01*
X187990864Y-63310119D01*
X187990864Y-63452976D01*
X187962293Y-63548214D01*
X187933722Y-63595833D01*
X187876579Y-63643452D01*
X187648007Y-63643452D01*
X187648007Y-62643452D01*
X187848007Y-62643452D01*
X187905150Y-62691072D01*
X187933722Y-62738691D01*
X187962293Y-62833929D01*
X187962293Y-62929167D01*
X187933722Y-63024405D01*
X187905150Y-63072024D01*
X187848007Y-63119643D01*
X187648007Y-63119643D01*
X188248007Y-63262500D02*
X188705150Y-63262500D01*
X188990864Y-62976786D02*
X189448007Y-63262500D01*
X188990864Y-63548214D01*
X202640864Y-68628214D02*
X202612293Y-68675833D01*
X202526579Y-68723452D01*
X202469436Y-68723452D01*
X202383722Y-68675833D01*
X202326579Y-68580595D01*
X202298007Y-68485357D01*
X202269436Y-68294881D01*
X202269436Y-68152024D01*
X202298007Y-67961548D01*
X202326579Y-67866310D01*
X202383722Y-67771072D01*
X202469436Y-67723452D01*
X202526579Y-67723452D01*
X202612293Y-67771072D01*
X202640864Y-67818691D01*
X202869436Y-68675833D02*
X202955150Y-68723452D01*
X203098007Y-68723452D01*
X203155150Y-68675833D01*
X203183722Y-68628214D01*
X203212293Y-68532976D01*
X203212293Y-68437738D01*
X203183722Y-68342500D01*
X203155150Y-68294881D01*
X203098007Y-68247262D01*
X202983722Y-68199643D01*
X202926579Y-68152024D01*
X202898007Y-68104405D01*
X202869436Y-68009167D01*
X202869436Y-67913929D01*
X202898007Y-67818691D01*
X202926579Y-67771072D01*
X202983722Y-67723452D01*
X203126579Y-67723452D01*
X203212293Y-67771072D01*
X203469436Y-68342500D02*
X203926579Y-68342500D01*
X204212293Y-68056786D02*
X204669436Y-68342500D01*
X204212293Y-68628214D01*
X201326580Y-76343452D02*
X201126580Y-75867262D01*
X200983722Y-76343452D02*
X200983722Y-75343452D01*
X201212294Y-75343452D01*
X201269437Y-75391072D01*
X201298008Y-75438691D01*
X201326580Y-75533929D01*
X201326580Y-75676786D01*
X201298008Y-75772024D01*
X201269437Y-75819643D01*
X201212294Y-75867262D01*
X200983722Y-75867262D01*
X201698008Y-75343452D02*
X201812294Y-75343452D01*
X201869437Y-75391072D01*
X201926580Y-75486310D01*
X201955151Y-75676786D01*
X201955151Y-76010119D01*
X201926580Y-76200595D01*
X201869437Y-76295833D01*
X201812294Y-76343452D01*
X201698008Y-76343452D01*
X201640865Y-76295833D01*
X201583722Y-76200595D01*
X201555151Y-76010119D01*
X201555151Y-75676786D01*
X201583722Y-75486310D01*
X201640865Y-75391072D01*
X201698008Y-75343452D01*
X202155151Y-75343452D02*
X202298008Y-76343452D01*
X202412294Y-75629167D01*
X202526580Y-76343452D01*
X202669437Y-75343452D01*
X202869437Y-75438691D02*
X202898008Y-75391072D01*
X202955151Y-75343452D01*
X203098008Y-75343452D01*
X203155151Y-75391072D01*
X203183722Y-75438691D01*
X203212294Y-75533929D01*
X203212294Y-75629167D01*
X203183722Y-75772024D01*
X202840865Y-76343452D01*
X203212294Y-76343452D01*
X203469437Y-75962500D02*
X203926580Y-75962500D01*
X204212294Y-75676786D02*
X204669437Y-75962500D01*
X204212294Y-76248214D01*
X186305151Y-71168214D02*
X186276579Y-71215833D01*
X186190865Y-71263452D01*
X186133722Y-71263452D01*
X186048008Y-71215833D01*
X185990865Y-71120595D01*
X185962293Y-71025357D01*
X185933722Y-70834881D01*
X185933722Y-70692024D01*
X185962293Y-70501548D01*
X185990865Y-70406310D01*
X186048008Y-70311072D01*
X186133722Y-70263452D01*
X186190865Y-70263452D01*
X186276579Y-70311072D01*
X186305151Y-70358691D01*
X186676579Y-70263452D02*
X186790865Y-70263452D01*
X186848008Y-70311072D01*
X186905151Y-70406310D01*
X186933722Y-70596786D01*
X186933722Y-70930119D01*
X186905151Y-71120595D01*
X186848008Y-71215833D01*
X186790865Y-71263452D01*
X186676579Y-71263452D01*
X186619436Y-71215833D01*
X186562293Y-71120595D01*
X186533722Y-70930119D01*
X186533722Y-70596786D01*
X186562293Y-70406310D01*
X186619436Y-70311072D01*
X186676579Y-70263452D01*
X187476579Y-71263452D02*
X187190865Y-71263452D01*
X187190865Y-70263452D01*
X187990865Y-71263452D02*
X187648008Y-71263452D01*
X187819436Y-71263452D02*
X187819436Y-70263452D01*
X187762293Y-70406310D01*
X187705151Y-70501548D01*
X187648008Y-70549167D01*
X188248008Y-70882500D02*
X188705151Y-70882500D01*
X188990865Y-70596786D02*
X189448008Y-70882500D01*
X188990865Y-71168214D01*
X193288365Y-55316786D02*
X192602650Y-55602500D01*
X193288365Y-55888214D01*
X193716936Y-55602500D02*
X194402650Y-55602500D01*
X194831222Y-55602500D02*
X195516936Y-55602500D01*
X186305151Y-78788214D02*
X186276579Y-78835833D01*
X186190865Y-78883452D01*
X186133722Y-78883452D01*
X186048008Y-78835833D01*
X185990865Y-78740595D01*
X185962293Y-78645357D01*
X185933722Y-78454881D01*
X185933722Y-78312024D01*
X185962293Y-78121548D01*
X185990865Y-78026310D01*
X186048008Y-77931072D01*
X186133722Y-77883452D01*
X186190865Y-77883452D01*
X186276579Y-77931072D01*
X186305151Y-77978691D01*
X186676579Y-77883452D02*
X186790865Y-77883452D01*
X186848008Y-77931072D01*
X186905151Y-78026310D01*
X186933722Y-78216786D01*
X186933722Y-78550119D01*
X186905151Y-78740595D01*
X186848008Y-78835833D01*
X186790865Y-78883452D01*
X186676579Y-78883452D01*
X186619436Y-78835833D01*
X186562293Y-78740595D01*
X186533722Y-78550119D01*
X186533722Y-78216786D01*
X186562293Y-78026310D01*
X186619436Y-77931072D01*
X186676579Y-77883452D01*
X187476579Y-78883452D02*
X187190865Y-78883452D01*
X187190865Y-77883452D01*
X187933722Y-78216786D02*
X187933722Y-78883452D01*
X187790865Y-77835833D02*
X187648008Y-78550119D01*
X188019436Y-78550119D01*
X188248008Y-78502500D02*
X188705151Y-78502500D01*
X188990865Y-78216786D02*
X189448008Y-78502500D01*
X188990865Y-78788214D01*
X193288365Y-57856786D02*
X192602650Y-58142500D01*
X193288365Y-58428214D01*
X193716936Y-58142500D02*
X194402650Y-58142500D01*
X194831222Y-58142500D02*
X195516936Y-58142500D01*
X201326580Y-78883452D02*
X201126580Y-78407262D01*
X200983722Y-78883452D02*
X200983722Y-77883452D01*
X201212294Y-77883452D01*
X201269437Y-77931072D01*
X201298008Y-77978691D01*
X201326580Y-78073929D01*
X201326580Y-78216786D01*
X201298008Y-78312024D01*
X201269437Y-78359643D01*
X201212294Y-78407262D01*
X200983722Y-78407262D01*
X201698008Y-77883452D02*
X201812294Y-77883452D01*
X201869437Y-77931072D01*
X201926580Y-78026310D01*
X201955151Y-78216786D01*
X201955151Y-78550119D01*
X201926580Y-78740595D01*
X201869437Y-78835833D01*
X201812294Y-78883452D01*
X201698008Y-78883452D01*
X201640865Y-78835833D01*
X201583722Y-78740595D01*
X201555151Y-78550119D01*
X201555151Y-78216786D01*
X201583722Y-78026310D01*
X201640865Y-77931072D01*
X201698008Y-77883452D01*
X202155151Y-77883452D02*
X202298008Y-78883452D01*
X202412294Y-78169167D01*
X202526580Y-78883452D01*
X202669437Y-77883452D01*
X202840865Y-77883452D02*
X203212294Y-77883452D01*
X203012294Y-78264405D01*
X203098008Y-78264405D01*
X203155151Y-78312024D01*
X203183722Y-78359643D01*
X203212294Y-78454881D01*
X203212294Y-78692976D01*
X203183722Y-78788214D01*
X203155151Y-78835833D01*
X203098008Y-78883452D01*
X202926580Y-78883452D01*
X202869437Y-78835833D01*
X202840865Y-78788214D01*
X203469437Y-78502500D02*
X203926580Y-78502500D01*
X204212294Y-78216786D02*
X204669437Y-78502500D01*
X204212294Y-78788214D01*
X201255150Y-66135833D02*
X201340865Y-66183452D01*
X201483722Y-66183452D01*
X201540865Y-66135833D01*
X201569436Y-66088214D01*
X201598007Y-65992976D01*
X201598007Y-65897738D01*
X201569436Y-65802500D01*
X201540865Y-65754881D01*
X201483722Y-65707262D01*
X201369436Y-65659643D01*
X201312293Y-65612024D01*
X201283722Y-65564405D01*
X201255150Y-65469167D01*
X201255150Y-65373929D01*
X201283722Y-65278691D01*
X201312293Y-65231072D01*
X201369436Y-65183452D01*
X201512293Y-65183452D01*
X201598007Y-65231072D01*
X202198007Y-66088214D02*
X202169436Y-66135833D01*
X202083722Y-66183452D01*
X202026579Y-66183452D01*
X201940865Y-66135833D01*
X201883722Y-66040595D01*
X201855150Y-65945357D01*
X201826579Y-65754881D01*
X201826579Y-65612024D01*
X201855150Y-65421548D01*
X201883722Y-65326310D01*
X201940865Y-65231072D01*
X202026579Y-65183452D01*
X202083722Y-65183452D01*
X202169436Y-65231072D01*
X202198007Y-65278691D01*
X202740865Y-66183452D02*
X202455150Y-66183452D01*
X202455150Y-65183452D01*
X202940865Y-66183452D02*
X202940865Y-65183452D01*
X203283722Y-66183452D02*
X203026579Y-65612024D01*
X203283722Y-65183452D02*
X202940865Y-65754881D01*
X203998007Y-65802500D02*
X204455150Y-65802500D01*
X204740865Y-65516786D02*
X205198007Y-65802500D01*
X204740865Y-66088214D01*
X201955151Y-60151072D02*
X201898008Y-60103452D01*
X201812293Y-60103452D01*
X201726579Y-60151072D01*
X201669436Y-60246310D01*
X201640865Y-60341548D01*
X201612293Y-60532024D01*
X201612293Y-60674881D01*
X201640865Y-60865357D01*
X201669436Y-60960595D01*
X201726579Y-61055833D01*
X201812293Y-61103452D01*
X201869436Y-61103452D01*
X201955151Y-61055833D01*
X201983722Y-61008214D01*
X201983722Y-60674881D01*
X201869436Y-60674881D01*
X202240865Y-61103452D02*
X202240865Y-60103452D01*
X202583722Y-61103452D01*
X202583722Y-60103452D01*
X202869436Y-61103452D02*
X202869436Y-60103452D01*
X203012293Y-60103452D01*
X203098008Y-60151072D01*
X203155151Y-60246310D01*
X203183722Y-60341548D01*
X203212293Y-60532024D01*
X203212293Y-60674881D01*
X203183722Y-60865357D01*
X203155151Y-60960595D01*
X203098008Y-61055833D01*
X203012293Y-61103452D01*
X202869436Y-61103452D01*
X203469436Y-60722500D02*
X203926579Y-60722500D01*
X204212293Y-60436786D02*
X204669436Y-60722500D01*
X204212293Y-61008214D01*
X201326580Y-81423452D02*
X201126580Y-80947262D01*
X200983722Y-81423452D02*
X200983722Y-80423452D01*
X201212294Y-80423452D01*
X201269437Y-80471072D01*
X201298008Y-80518691D01*
X201326580Y-80613929D01*
X201326580Y-80756786D01*
X201298008Y-80852024D01*
X201269437Y-80899643D01*
X201212294Y-80947262D01*
X200983722Y-80947262D01*
X201698008Y-80423452D02*
X201812294Y-80423452D01*
X201869437Y-80471072D01*
X201926580Y-80566310D01*
X201955151Y-80756786D01*
X201955151Y-81090119D01*
X201926580Y-81280595D01*
X201869437Y-81375833D01*
X201812294Y-81423452D01*
X201698008Y-81423452D01*
X201640865Y-81375833D01*
X201583722Y-81280595D01*
X201555151Y-81090119D01*
X201555151Y-80756786D01*
X201583722Y-80566310D01*
X201640865Y-80471072D01*
X201698008Y-80423452D01*
X202155151Y-80423452D02*
X202298008Y-81423452D01*
X202412294Y-80709167D01*
X202526580Y-81423452D01*
X202669437Y-80423452D01*
X203155151Y-80756786D02*
X203155151Y-81423452D01*
X203012294Y-80375833D02*
X202869437Y-81090119D01*
X203240865Y-81090119D01*
X203469437Y-81042500D02*
X203926580Y-81042500D01*
X204212294Y-80756786D02*
X204669437Y-81042500D01*
X204212294Y-81328214D01*
D10*
%TO.C,J2*%
X207352293Y-111711446D02*
X207923722Y-111711446D01*
X207638007Y-112711446D02*
X207638007Y-111711446D01*
X208828484Y-112711446D02*
X208495150Y-112235256D01*
X208257055Y-112711446D02*
X208257055Y-111711446D01*
X208638007Y-111711446D01*
X208733245Y-111759066D01*
X208780865Y-111806685D01*
X208828484Y-111901923D01*
X208828484Y-112044780D01*
X208780865Y-112140018D01*
X208733245Y-112187637D01*
X208638007Y-112235256D01*
X208257055Y-112235256D01*
X209542769Y-113092399D02*
X209495150Y-113044780D01*
X209399912Y-112901923D01*
X209352293Y-112806685D01*
X209304674Y-112663827D01*
X209257055Y-112425732D01*
X209257055Y-112235256D01*
X209304674Y-111997161D01*
X209352293Y-111854304D01*
X209399912Y-111759066D01*
X209495150Y-111616208D01*
X209542769Y-111568589D01*
X210495150Y-112711446D02*
X210161817Y-112235256D01*
X209923722Y-112711446D02*
X209923722Y-111711446D01*
X210304674Y-111711446D01*
X210399912Y-111759066D01*
X210447531Y-111806685D01*
X210495150Y-111901923D01*
X210495150Y-112044780D01*
X210447531Y-112140018D01*
X210399912Y-112187637D01*
X210304674Y-112235256D01*
X209923722Y-112235256D01*
X210828484Y-113092399D02*
X210876103Y-113044780D01*
X210971341Y-112901923D01*
X211018960Y-112806685D01*
X211066579Y-112663827D01*
X211114198Y-112425732D01*
X211114198Y-112235256D01*
X211066579Y-111997161D01*
X211018960Y-111854304D01*
X210971341Y-111759066D01*
X210876103Y-111616208D01*
X210828484Y-111568589D01*
X211542769Y-112663827D02*
X211685626Y-112711446D01*
X211923722Y-112711446D01*
X212018960Y-112663827D01*
X212066579Y-112616208D01*
X212114198Y-112520970D01*
X212114198Y-112425732D01*
X212066579Y-112330494D01*
X212018960Y-112282875D01*
X211923722Y-112235256D01*
X211733245Y-112187637D01*
X211638007Y-112140018D01*
X211590388Y-112092399D01*
X211542769Y-111997161D01*
X211542769Y-111901923D01*
X211590388Y-111806685D01*
X211638007Y-111759066D01*
X211733245Y-111711446D01*
X211971341Y-111711446D01*
X212114198Y-111759066D01*
D11*
%TO.C,J4*%
X203833400Y-50638867D02*
X203919114Y-50681724D01*
X203947686Y-50724581D01*
X203976257Y-50810295D01*
X203976257Y-50938867D01*
X203947686Y-51024581D01*
X203919114Y-51067438D01*
X203861971Y-51110295D01*
X203633400Y-51110295D01*
X203633400Y-50210295D01*
X203833400Y-50210295D01*
X203890543Y-50253153D01*
X203919114Y-50296010D01*
X203947686Y-50381724D01*
X203947686Y-50467438D01*
X203919114Y-50553153D01*
X203890543Y-50596010D01*
X203833400Y-50638867D01*
X203633400Y-50638867D01*
X204490543Y-51110295D02*
X204490543Y-50638867D01*
X204461971Y-50553153D01*
X204404829Y-50510295D01*
X204290543Y-50510295D01*
X204233400Y-50553153D01*
X204490543Y-51067438D02*
X204433400Y-51110295D01*
X204290543Y-51110295D01*
X204233400Y-51067438D01*
X204204829Y-50981724D01*
X204204829Y-50896010D01*
X204233400Y-50810295D01*
X204290543Y-50767438D01*
X204433400Y-50767438D01*
X204490543Y-50724581D01*
X204690543Y-50510295D02*
X204919114Y-50510295D01*
X204776257Y-50210295D02*
X204776257Y-50981724D01*
X204804829Y-51067438D01*
X204861971Y-51110295D01*
X204919114Y-51110295D01*
X204976257Y-51196010D02*
X205433400Y-51196010D01*
X205576257Y-51110295D02*
X205576257Y-50210295D01*
X205919114Y-51110295D01*
X205919114Y-50210295D01*
X206433400Y-51067438D02*
X206376257Y-51110295D01*
X206261971Y-51110295D01*
X206204829Y-51067438D01*
X206176257Y-50981724D01*
X206176257Y-50638867D01*
X206204829Y-50553153D01*
X206261971Y-50510295D01*
X206376257Y-50510295D01*
X206433400Y-50553153D01*
X206461971Y-50638867D01*
X206461971Y-50724581D01*
X206176257Y-50810295D01*
X206976257Y-50510295D02*
X206976257Y-51238867D01*
X206947686Y-51324581D01*
X206919114Y-51367438D01*
X206861971Y-51410295D01*
X206776257Y-51410295D01*
X206719114Y-51367438D01*
X206976257Y-51067438D02*
X206919114Y-51110295D01*
X206804829Y-51110295D01*
X206747686Y-51067438D01*
X206719114Y-51024581D01*
X206690543Y-50938867D01*
X206690543Y-50681724D01*
X206719114Y-50596010D01*
X206747686Y-50553153D01*
X206804829Y-50510295D01*
X206919114Y-50510295D01*
X206976257Y-50553153D01*
%TO.C,C1*%
X198719924Y-52871391D02*
X198691352Y-52914248D01*
X198605638Y-52957105D01*
X198548495Y-52957105D01*
X198462781Y-52914248D01*
X198405638Y-52828534D01*
X198377066Y-52742820D01*
X198348495Y-52571391D01*
X198348495Y-52442820D01*
X198377066Y-52271391D01*
X198405638Y-52185677D01*
X198462781Y-52099963D01*
X198548495Y-52057105D01*
X198605638Y-52057105D01*
X198691352Y-52099963D01*
X198719924Y-52142820D01*
X199291352Y-52957105D02*
X198948495Y-52957105D01*
X199119924Y-52957105D02*
X199119924Y-52057105D01*
X199062781Y-52185677D01*
X199005638Y-52271391D01*
X198948495Y-52314248D01*
%TO.C,SW1*%
X210053247Y-121949970D02*
X209577057Y-122283303D01*
X210053247Y-122521398D02*
X209053247Y-122521398D01*
X209053247Y-122140446D01*
X209100867Y-122045208D01*
X209148486Y-121997589D01*
X209243724Y-121949970D01*
X209386581Y-121949970D01*
X209481819Y-121997589D01*
X209529438Y-122045208D01*
X209577057Y-122140446D01*
X209577057Y-122521398D01*
X210005628Y-121140446D02*
X210053247Y-121235684D01*
X210053247Y-121426160D01*
X210005628Y-121521398D01*
X209910390Y-121569017D01*
X209529438Y-121569017D01*
X209434200Y-121521398D01*
X209386581Y-121426160D01*
X209386581Y-121235684D01*
X209434200Y-121140446D01*
X209529438Y-121092827D01*
X209624676Y-121092827D01*
X209719914Y-121569017D01*
X210005628Y-120711875D02*
X210053247Y-120616636D01*
X210053247Y-120426160D01*
X210005628Y-120330922D01*
X209910390Y-120283303D01*
X209862771Y-120283303D01*
X209767533Y-120330922D01*
X209719914Y-120426160D01*
X209719914Y-120569017D01*
X209672295Y-120664255D01*
X209577057Y-120711875D01*
X209529438Y-120711875D01*
X209434200Y-120664255D01*
X209386581Y-120569017D01*
X209386581Y-120426160D01*
X209434200Y-120330922D01*
X210005628Y-119473779D02*
X210053247Y-119569017D01*
X210053247Y-119759494D01*
X210005628Y-119854732D01*
X209910390Y-119902351D01*
X209529438Y-119902351D01*
X209434200Y-119854732D01*
X209386581Y-119759494D01*
X209386581Y-119569017D01*
X209434200Y-119473779D01*
X209529438Y-119426160D01*
X209624676Y-119426160D01*
X209719914Y-119902351D01*
X209386581Y-119140446D02*
X209386581Y-118759494D01*
X209053247Y-118997589D02*
X209910390Y-118997589D01*
X210005628Y-118949970D01*
X210053247Y-118854732D01*
X210053247Y-118759494D01*
%TO.C,SW2*%
X211442281Y-99825642D02*
X211591878Y-99808425D01*
X211655161Y-99831458D01*
X211738567Y-99897648D01*
X211798942Y-100027121D01*
X211796033Y-100133561D01*
X211773001Y-100196843D01*
X211706810Y-100280250D01*
X211361550Y-100441247D01*
X210938932Y-99534939D01*
X211241034Y-99394067D01*
X211347474Y-99396975D01*
X211410756Y-99420008D01*
X211494163Y-99486198D01*
X211534413Y-99572513D01*
X211531504Y-99678953D01*
X211508472Y-99742235D01*
X211442281Y-99825642D01*
X211140179Y-99966515D01*
X212656275Y-99837507D02*
X212434904Y-99362774D01*
X212351497Y-99296584D01*
X212245057Y-99293676D01*
X212072427Y-99374174D01*
X212006237Y-99457581D01*
X212636151Y-99794349D02*
X212569960Y-99877756D01*
X212354173Y-99978380D01*
X212247733Y-99975471D01*
X212164326Y-99909281D01*
X212124077Y-99822966D01*
X212126985Y-99716526D01*
X212193175Y-99633119D01*
X212408963Y-99532496D01*
X212475153Y-99449089D01*
X212676633Y-99092429D02*
X213021893Y-98931431D01*
X212665232Y-98729952D02*
X213027477Y-99506788D01*
X213110883Y-99572978D01*
X213217323Y-99575886D01*
X213303638Y-99535637D01*
X213194523Y-98850933D02*
X213539783Y-98689935D01*
X213183123Y-98488456D02*
X213545367Y-99265291D01*
X213628774Y-99331482D01*
X213735213Y-99334390D01*
X213821528Y-99294141D01*
D10*
X212361338Y-98117685D02*
X212280839Y-97945055D01*
X212283747Y-97838615D01*
X212329813Y-97712051D01*
X212482318Y-97588395D01*
X212784421Y-97447522D01*
X212977176Y-97410181D01*
X213103740Y-97456246D01*
X213187147Y-97522437D01*
X213267646Y-97695067D01*
X213264738Y-97801506D01*
X213218672Y-97928071D01*
X213066167Y-98051727D01*
X212764064Y-98192600D01*
X212571309Y-98229941D01*
X212444745Y-98183875D01*
X212361338Y-98117685D01*
X212905401Y-96918231D02*
X211999094Y-97340850D01*
X212663905Y-96400341D01*
X211757598Y-96822960D01*
D11*
%TO.C,J3*%
X188968005Y-50617635D02*
X189053720Y-50665254D01*
X189082291Y-50712873D01*
X189110863Y-50808111D01*
X189110863Y-50950968D01*
X189082291Y-51046206D01*
X189053720Y-51093825D01*
X188996577Y-51141444D01*
X188768005Y-51141444D01*
X188768005Y-50141444D01*
X188968005Y-50141444D01*
X189025148Y-50189064D01*
X189053720Y-50236683D01*
X189082291Y-50331921D01*
X189082291Y-50427159D01*
X189053720Y-50522397D01*
X189025148Y-50570016D01*
X188968005Y-50617635D01*
X188768005Y-50617635D01*
X189625148Y-51141444D02*
X189625148Y-50617635D01*
X189596577Y-50522397D01*
X189539434Y-50474778D01*
X189425148Y-50474778D01*
X189368005Y-50522397D01*
X189625148Y-51093825D02*
X189568005Y-51141444D01*
X189425148Y-51141444D01*
X189368005Y-51093825D01*
X189339434Y-50998587D01*
X189339434Y-50903349D01*
X189368005Y-50808111D01*
X189425148Y-50760492D01*
X189568005Y-50760492D01*
X189625148Y-50712873D01*
X189825148Y-50474778D02*
X190053720Y-50474778D01*
X189910863Y-50141444D02*
X189910863Y-50998587D01*
X189939434Y-51093825D01*
X189996577Y-51141444D01*
X190053720Y-51141444D01*
X190110863Y-51236683D02*
X190568005Y-51236683D01*
X190710863Y-51141444D02*
X190710863Y-50141444D01*
X190939434Y-50141444D01*
X190996577Y-50189064D01*
X191025148Y-50236683D01*
X191053720Y-50331921D01*
X191053720Y-50474778D01*
X191025148Y-50570016D01*
X190996577Y-50617635D01*
X190939434Y-50665254D01*
X190710863Y-50665254D01*
X191396577Y-51141444D02*
X191339434Y-51093825D01*
X191310863Y-51046206D01*
X191282291Y-50950968D01*
X191282291Y-50665254D01*
X191310863Y-50570016D01*
X191339434Y-50522397D01*
X191396577Y-50474778D01*
X191482291Y-50474778D01*
X191539434Y-50522397D01*
X191568005Y-50570016D01*
X191596577Y-50665254D01*
X191596577Y-50950968D01*
X191568005Y-51046206D01*
X191539434Y-51093825D01*
X191482291Y-51141444D01*
X191396577Y-51141444D01*
X191825148Y-51093825D02*
X191882291Y-51141444D01*
X191996577Y-51141444D01*
X192053720Y-51093825D01*
X192082291Y-50998587D01*
X192082291Y-50950968D01*
X192053720Y-50855730D01*
X191996577Y-50808111D01*
X191910863Y-50808111D01*
X191853720Y-50760492D01*
X191825148Y-50665254D01*
X191825148Y-50617635D01*
X191853720Y-50522397D01*
X191910863Y-50474778D01*
X191996577Y-50474778D01*
X192053720Y-50522397D01*
%TO.C,JP2*%
X168253247Y-76437164D02*
X168253247Y-76913354D01*
X167253247Y-76913354D01*
X168205628Y-75722878D02*
X168253247Y-75818116D01*
X168253247Y-76008592D01*
X168205628Y-76103830D01*
X168110390Y-76151449D01*
X167729438Y-76151449D01*
X167634200Y-76103830D01*
X167586581Y-76008592D01*
X167586581Y-75818116D01*
X167634200Y-75722878D01*
X167729438Y-75675259D01*
X167824676Y-75675259D01*
X167919914Y-76151449D01*
X167586581Y-75389545D02*
X167586581Y-75008592D01*
X168253247Y-75246688D02*
X167396105Y-75246688D01*
X167300867Y-75199069D01*
X167253247Y-75103830D01*
X167253247Y-75008592D01*
X167586581Y-74818116D02*
X167586581Y-74437164D01*
X167253247Y-74675259D02*
X168110390Y-74675259D01*
X168205628Y-74627640D01*
X168253247Y-74532402D01*
X168253247Y-74437164D01*
X168348486Y-74341926D02*
X168348486Y-73580021D01*
X167729438Y-73008592D02*
X167777057Y-72865735D01*
X167824676Y-72818116D01*
X167919914Y-72770497D01*
X168062771Y-72770497D01*
X168158009Y-72818116D01*
X168205628Y-72865735D01*
X168253247Y-72960973D01*
X168253247Y-73341926D01*
X167253247Y-73341926D01*
X167253247Y-73008592D01*
X167300867Y-72913354D01*
X167348486Y-72865735D01*
X167443724Y-72818116D01*
X167538962Y-72818116D01*
X167634200Y-72865735D01*
X167681819Y-72913354D01*
X167729438Y-73008592D01*
X167729438Y-73341926D01*
X168253247Y-72199069D02*
X168205628Y-72294307D01*
X168158009Y-72341926D01*
X168062771Y-72389545D01*
X167777057Y-72389545D01*
X167681819Y-72341926D01*
X167634200Y-72294307D01*
X167586581Y-72199069D01*
X167586581Y-72056211D01*
X167634200Y-71960973D01*
X167681819Y-71913354D01*
X167777057Y-71865735D01*
X168062771Y-71865735D01*
X168158009Y-71913354D01*
X168205628Y-71960973D01*
X168253247Y-72056211D01*
X168253247Y-72199069D01*
X168253247Y-71008592D02*
X167729438Y-71008592D01*
X167634200Y-71056211D01*
X167586581Y-71151449D01*
X167586581Y-71341926D01*
X167634200Y-71437164D01*
X168205628Y-71008592D02*
X168253247Y-71103830D01*
X168253247Y-71341926D01*
X168205628Y-71437164D01*
X168110390Y-71484783D01*
X168015152Y-71484783D01*
X167919914Y-71437164D01*
X167872295Y-71341926D01*
X167872295Y-71103830D01*
X167824676Y-71008592D01*
X168253247Y-70532402D02*
X167586581Y-70532402D01*
X167777057Y-70532402D02*
X167681819Y-70484783D01*
X167634200Y-70437164D01*
X167586581Y-70341926D01*
X167586581Y-70246688D01*
X168253247Y-69484783D02*
X167253247Y-69484783D01*
X168205628Y-69484783D02*
X168253247Y-69580021D01*
X168253247Y-69770497D01*
X168205628Y-69865735D01*
X168158009Y-69913354D01*
X168062771Y-69960973D01*
X167777057Y-69960973D01*
X167681819Y-69913354D01*
X167634200Y-69865735D01*
X167586581Y-69770497D01*
X167586581Y-69580021D01*
X167634200Y-69484783D01*
%TO.C,C3*%
X185719924Y-87371391D02*
X185691352Y-87414248D01*
X185605638Y-87457105D01*
X185548495Y-87457105D01*
X185462781Y-87414248D01*
X185405638Y-87328534D01*
X185377066Y-87242820D01*
X185348495Y-87071391D01*
X185348495Y-86942820D01*
X185377066Y-86771391D01*
X185405638Y-86685677D01*
X185462781Y-86599963D01*
X185548495Y-86557105D01*
X185605638Y-86557105D01*
X185691352Y-86599963D01*
X185719924Y-86642820D01*
X185919924Y-86557105D02*
X186291352Y-86557105D01*
X186091352Y-86899963D01*
X186177066Y-86899963D01*
X186234209Y-86942820D01*
X186262781Y-86985677D01*
X186291352Y-87071391D01*
X186291352Y-87285677D01*
X186262781Y-87371391D01*
X186234209Y-87414248D01*
X186177066Y-87457105D01*
X186005638Y-87457105D01*
X185948495Y-87414248D01*
X185919924Y-87371391D01*
%TO.C,C2*%
X185719922Y-94871388D02*
X185691350Y-94914245D01*
X185605636Y-94957102D01*
X185548493Y-94957102D01*
X185462779Y-94914245D01*
X185405636Y-94828531D01*
X185377064Y-94742817D01*
X185348493Y-94571388D01*
X185348493Y-94442817D01*
X185377064Y-94271388D01*
X185405636Y-94185674D01*
X185462779Y-94099960D01*
X185548493Y-94057102D01*
X185605636Y-94057102D01*
X185691350Y-94099960D01*
X185719922Y-94142817D01*
X185948493Y-94142817D02*
X185977064Y-94099960D01*
X186034207Y-94057102D01*
X186177064Y-94057102D01*
X186234207Y-94099960D01*
X186262779Y-94142817D01*
X186291350Y-94228531D01*
X186291350Y-94314245D01*
X186262779Y-94442817D01*
X185919922Y-94957102D01*
X186291350Y-94957102D01*
%TO.C,U2*%
X184588960Y-89064255D02*
X184588960Y-89873779D01*
X184636579Y-89969017D01*
X184684198Y-90016636D01*
X184779436Y-90064255D01*
X184969912Y-90064255D01*
X185065150Y-90016636D01*
X185112769Y-89969017D01*
X185160388Y-89873779D01*
X185160388Y-89064255D01*
X185588960Y-89159494D02*
X185636579Y-89111875D01*
X185731817Y-89064255D01*
X185969912Y-89064255D01*
X186065150Y-89111875D01*
X186112769Y-89159494D01*
X186160388Y-89254732D01*
X186160388Y-89349970D01*
X186112769Y-89492827D01*
X185541341Y-90064255D01*
X186160388Y-90064255D01*
D13*
%TO.C,DS1*%
X204694829Y-88313153D02*
X191994829Y-88313153D01*
X191994829Y-88313153D02*
X191994829Y-85773153D01*
X204694829Y-85773153D02*
X204694829Y-88313153D01*
X191994829Y-85773153D02*
X204694829Y-85773153D01*
D11*
%TO.C,U1*%
X204877265Y-82241072D02*
X204877265Y-51761072D01*
X207417265Y-51761072D02*
X207417265Y-82241072D01*
X189657265Y-82241072D02*
X189657265Y-51761072D01*
X204877265Y-51761072D02*
X207417265Y-51761072D01*
X192197265Y-82241072D02*
X189657265Y-82241072D01*
X207417265Y-82241072D02*
X204877265Y-82241072D01*
X192197265Y-51761072D02*
X192197265Y-82241072D01*
X189657265Y-51761072D02*
X192197265Y-51761072D01*
%TO.C,D3*%
G36*
X179572453Y-101017594D02*
G01*
X178992897Y-100862303D01*
X179148189Y-100282747D01*
X179572453Y-101017594D01*
G37*
D14*
X179572453Y-101017594D02*
X178992897Y-100862303D01*
X179148189Y-100282747D01*
X179572453Y-101017594D01*
%TO.C,D2*%
G36*
X195282909Y-109255508D02*
G01*
X194763294Y-108955508D01*
X195063294Y-108435893D01*
X195282909Y-109255508D01*
G37*
X195282909Y-109255508D02*
X194763294Y-108955508D01*
X195063294Y-108435893D01*
X195282909Y-109255508D01*
D11*
%TO.C,J2*%
X214970865Y-116049066D02*
X202970865Y-116049066D01*
X202970865Y-116049066D02*
X202970865Y-110049066D01*
D13*
X215970865Y-115049066D02*
X215970865Y-111049066D01*
X214970865Y-115049066D02*
X215970865Y-115049066D01*
X215970865Y-111049066D02*
X215070865Y-111049066D01*
D11*
X214970865Y-110049066D02*
X214970865Y-116049066D01*
X202970865Y-110049066D02*
X214970865Y-110049066D01*
D15*
%TO.C,H1*%
X152629251Y-54913203D02*
G75*
G03*
X151500866Y-54854066I-1128385J-10735763D01*
G01*
X170787001Y-72657112D02*
G75*
G03*
X171820866Y-68506566I-19286185J7008058D01*
G01*
X132214732Y-58641018D02*
G75*
G03*
X131180866Y-62791566I19286117J-7008044D01*
G01*
X158508913Y-46362932D02*
G75*
G03*
X154358366Y-45329066I-7008047J-19286134D01*
G01*
X154358366Y-85969066D02*
G75*
G03*
X158508913Y-84935200I-2857500J20320000D01*
G01*
X151500866Y-54854066D02*
G75*
G03*
X150372481Y-54913202I-6J-10794921D01*
G01*
X171820866Y-62791566D02*
G75*
G03*
X170787001Y-58641021I-20320019J-2857506D01*
G01*
X131180866Y-68506566D02*
G75*
G03*
X132214732Y-72657113I20319953J2857490D01*
G01*
X150372481Y-76384930D02*
G75*
G03*
X151500866Y-76444066I1128379J10735785D01*
G01*
X151500866Y-76444067D02*
G75*
G03*
X152629251Y-76384930I0J10794901D01*
G01*
X148643366Y-45329066D02*
G75*
G03*
X144492818Y-46362932I2857496J-20319983D01*
G01*
X144492820Y-84935201D02*
G75*
G03*
X148643366Y-85969066I7008046J19286135D01*
G01*
D13*
%TO.C,D7*%
X102880068Y-66242441D02*
X101964196Y-66403934D01*
X99768075Y-66791169D02*
X100683946Y-66629676D01*
X102880068Y-66242441D02*
X103133594Y-67680260D01*
X99768075Y-66791169D02*
X100143155Y-68918354D01*
%TO.C,D13*%
X110433758Y-109081572D02*
X109517886Y-109243065D01*
X107321765Y-109630300D02*
X107696845Y-111757485D01*
X110433758Y-109081572D02*
X110687284Y-110519391D01*
X107321765Y-109630300D02*
X108237636Y-109468807D01*
%TO.C,D8*%
X119390729Y-50999739D02*
X119578985Y-53151520D01*
X122538704Y-50724327D02*
X121612243Y-50805382D01*
X122538704Y-50724327D02*
X122665952Y-52178771D01*
X119390729Y-50999739D02*
X120317190Y-50918684D01*
%TO.C,D10*%
X102728775Y-83582135D02*
X103644646Y-83420642D01*
X105840768Y-83033407D02*
X106094294Y-84471226D01*
X102728775Y-83582135D02*
X103103855Y-85709320D01*
X105840768Y-83033407D02*
X104924896Y-83194900D01*
%TO.C,D11*%
X124020357Y-67659632D02*
X124147605Y-69114076D01*
X120872382Y-67935044D02*
X121060638Y-70086825D01*
X124020357Y-67659632D02*
X123093896Y-67740687D01*
X120872382Y-67935044D02*
X121798843Y-67853989D01*
%TO.C,D14*%
X122354032Y-84870352D02*
X123280493Y-84789297D01*
X125502007Y-84594940D02*
X125629255Y-86049384D01*
X125502007Y-84594940D02*
X124575546Y-84675995D01*
X122354032Y-84870352D02*
X122542288Y-87022133D01*
%TO.C,D9*%
X158910867Y-49229062D02*
X159840867Y-49229062D01*
X162070867Y-49229062D02*
X162070867Y-50689062D01*
X162070867Y-49229062D02*
X161140867Y-49229062D01*
X158910867Y-49229062D02*
X158910867Y-51389062D01*
%TO.C,D12*%
X158910867Y-66229060D02*
X159840867Y-66229060D01*
X162070867Y-66229060D02*
X162070867Y-67689060D01*
X162070867Y-66229060D02*
X161140867Y-66229060D01*
X158910867Y-66229060D02*
X158910867Y-68389060D01*
%TO.C,D15*%
X158910868Y-83229060D02*
X159840868Y-83229060D01*
X162070868Y-83229060D02*
X162070868Y-84689060D01*
X158910868Y-83229060D02*
X158910868Y-85389060D01*
X162070868Y-83229060D02*
X161140868Y-83229060D01*
%TO.C,K20*%
X142164739Y-101611586D02*
X142764739Y-101611586D01*
X142464739Y-101911586D02*
X142164739Y-101611586D01*
X142764739Y-101611586D02*
X142464739Y-101911586D01*
%TO.C,D20*%
X167054964Y-111972545D02*
X167953275Y-112213247D01*
X170107289Y-112790413D02*
X169729413Y-114200665D01*
X170107289Y-112790413D02*
X169208978Y-112549712D01*
X167054964Y-111972545D02*
X166495915Y-114058945D01*
%TO.C,D21*%
X199727983Y-130049086D02*
X198200633Y-131576437D01*
X201962441Y-132283544D02*
X200930065Y-133315919D01*
X199727983Y-130049086D02*
X200385593Y-130706695D01*
X201962441Y-132283544D02*
X201304832Y-131625934D01*
%TO.C,D19*%
X166980864Y-97229070D02*
X166980864Y-98689070D01*
X163820864Y-97229070D02*
X164750864Y-97229070D01*
X163820864Y-97229070D02*
X163820864Y-99389070D01*
X166980864Y-97229070D02*
X166050864Y-97229070D01*
%TO.C,K19*%
X200654528Y-108667256D02*
X201064336Y-108557449D01*
X201174143Y-108967256D02*
X200654528Y-108667256D01*
X201064336Y-108557449D02*
X201174143Y-108967256D01*
%TO.C,D4*%
G36*
X157648202Y-95804987D02*
G01*
X157048202Y-95804987D01*
X157048202Y-95204987D01*
X157648202Y-95804987D01*
G37*
D14*
X157648202Y-95804987D02*
X157048202Y-95804987D01*
X157048202Y-95204987D01*
X157648202Y-95804987D01*
%TO.C,D1*%
G36*
X200717190Y-92769022D02*
G01*
X200197575Y-92469022D01*
X200497575Y-91949407D01*
X200717190Y-92769022D01*
G37*
X200717190Y-92769022D02*
X200197575Y-92469022D01*
X200497575Y-91949407D01*
X200717190Y-92769022D01*
D11*
%TO.C,J4*%
X201290867Y-49979059D02*
X201290867Y-51979059D01*
X203290867Y-51979059D02*
X203290867Y-49979059D01*
X203290867Y-49979059D02*
X201290867Y-49979059D01*
X201290867Y-51979059D02*
X203290867Y-51979059D01*
D13*
%TO.C,C1*%
X197729618Y-51644069D02*
X198252122Y-51644069D01*
X197729618Y-50174069D02*
X198252122Y-50174069D01*
%TO.C,SW1*%
X210470866Y-122239060D02*
X210960866Y-122729060D01*
X215910866Y-122239060D02*
X215420866Y-122729060D01*
X215910866Y-119339060D02*
X215420866Y-118849060D01*
X215910866Y-122239060D02*
X215910866Y-119339060D01*
X214230866Y-123509060D02*
X212150866Y-123509060D01*
X210470866Y-122239060D02*
X210470866Y-119339060D01*
X210470866Y-119339060D02*
X210960866Y-118849060D01*
X214230866Y-118069060D02*
X212150866Y-118069060D01*
D11*
%TO.C,J3*%
X194390863Y-49979064D02*
X192390863Y-49979064D01*
X192390863Y-51979064D02*
X194390863Y-51979064D01*
X194390863Y-51979064D02*
X194390863Y-49979064D01*
X192390863Y-49979064D02*
X192390863Y-51979064D01*
D13*
%TO.C,JP2*%
X170490867Y-71764069D02*
X170490867Y-74564069D01*
X170490867Y-74564069D02*
X168490867Y-74564069D01*
X168490867Y-71764069D02*
X170490867Y-71764069D01*
X168490867Y-74564069D02*
X168490867Y-71764069D01*
%TO.C,C3*%
X188286950Y-88398926D02*
X188809454Y-88398926D01*
X188286950Y-86928926D02*
X188809454Y-86928926D01*
%TO.C,C2*%
X188286949Y-93128923D02*
X188809453Y-93128923D01*
X188286949Y-94598923D02*
X188809453Y-94598923D01*
%TO.C,U2*%
X189448197Y-89153924D02*
X186498197Y-89153924D01*
X187648197Y-92373924D02*
X189448197Y-92373924D01*
%TD*%
D16*
%TO.C,J2*%
X206470865Y-111299066D03*
X213470865Y-111299066D03*
X213470865Y-113049066D03*
X206470865Y-113049066D03*
%TD*%
D17*
%TO.C,J4*%
X202290867Y-50979059D03*
%TD*%
D18*
%TO.C,J3*%
X193390863Y-50979064D03*
%TD*%
%LPC*%
D19*
X138056874Y-93815243D02*
X138056874Y-92015243D01*
X138056874Y-92872386D02*
X138971160Y-92872386D01*
X138971160Y-93815243D02*
X138971160Y-92015243D01*
X139733064Y-93815243D02*
X139733064Y-92615243D01*
X139733064Y-92015243D02*
X139656874Y-92100958D01*
X139733064Y-92186672D01*
X139809255Y-92100958D01*
X139733064Y-92015243D01*
X139733064Y-92186672D01*
X140723541Y-93815243D02*
X140571160Y-93729529D01*
X140494969Y-93558100D01*
X140494969Y-92015243D01*
X141561636Y-93815243D02*
X141409255Y-93729529D01*
X141333064Y-93558100D01*
X141333064Y-92015243D01*
X142094969Y-93729529D02*
X142247350Y-93815243D01*
X142552112Y-93815243D01*
X142704493Y-93729529D01*
X142780683Y-93558100D01*
X142780683Y-93472386D01*
X142704493Y-93300958D01*
X142552112Y-93215243D01*
X142323541Y-93215243D01*
X142171160Y-93129529D01*
X142094969Y-92958100D01*
X142094969Y-92872386D01*
X142171160Y-92700958D01*
X142323541Y-92615243D01*
X142552112Y-92615243D01*
X142704493Y-92700958D01*
X143466398Y-93815243D02*
X143466398Y-92615243D01*
X143466398Y-92015243D02*
X143390207Y-92100958D01*
X143466398Y-92186672D01*
X143542588Y-92100958D01*
X143466398Y-92015243D01*
X143466398Y-92186672D01*
X144914017Y-93815243D02*
X144914017Y-92015243D01*
X144914017Y-93729529D02*
X144761636Y-93815243D01*
X144456874Y-93815243D01*
X144304493Y-93729529D01*
X144228302Y-93643815D01*
X144152112Y-93472386D01*
X144152112Y-92958100D01*
X144228302Y-92786672D01*
X144304493Y-92700958D01*
X144456874Y-92615243D01*
X144761636Y-92615243D01*
X144914017Y-92700958D01*
X146285445Y-93729529D02*
X146133064Y-93815243D01*
X145828302Y-93815243D01*
X145675922Y-93729529D01*
X145599731Y-93558100D01*
X145599731Y-92872386D01*
X145675922Y-92700958D01*
X145828302Y-92615243D01*
X146133064Y-92615243D01*
X146285445Y-92700958D01*
X146361636Y-92872386D01*
X146361636Y-93043815D01*
X145599731Y-93215243D01*
X141180683Y-95513243D02*
X141180683Y-96713243D01*
X140799731Y-94827529D02*
X140418779Y-96113243D01*
X141409255Y-96113243D01*
X142704493Y-94913243D02*
X142399731Y-94913243D01*
X142247350Y-94998958D01*
X142171160Y-95084672D01*
X142018779Y-95341815D01*
X141942588Y-95684672D01*
X141942588Y-96370386D01*
X142018779Y-96541815D01*
X142094969Y-96627529D01*
X142247350Y-96713243D01*
X142552112Y-96713243D01*
X142704493Y-96627529D01*
X142780683Y-96541815D01*
X142856874Y-96370386D01*
X142856874Y-95941815D01*
X142780683Y-95770386D01*
X142704493Y-95684672D01*
X142552112Y-95598958D01*
X142247350Y-95598958D01*
X142094969Y-95684672D01*
X142018779Y-95770386D01*
X141942588Y-95941815D01*
D20*
%TO.C,DS1*%
X204440829Y-85011153D03*
X193264829Y-87043153D03*
D21*
X195804829Y-87043153D03*
X201900829Y-85011153D03*
D22*
X198344829Y-87043153D03*
X199360829Y-85011153D03*
X196820829Y-85011153D03*
X200884829Y-87043153D03*
X203424829Y-87043153D03*
X194280829Y-85011153D03*
%TD*%
D23*
%TO.C,U1*%
X189600865Y-54301072D03*
X189600865Y-56841072D03*
X189600865Y-59381072D03*
X189600865Y-61921072D03*
X189600865Y-64461072D03*
X189600865Y-67001072D03*
X189600865Y-69541072D03*
X189600865Y-72081072D03*
X189600865Y-74621072D03*
X189600865Y-77161072D03*
X189600865Y-79701072D03*
X189600865Y-82241072D03*
X204840865Y-82241072D03*
X204840865Y-79701072D03*
X204840865Y-77161072D03*
X204840865Y-74621072D03*
X204840865Y-72081072D03*
X204840865Y-69541072D03*
X204840865Y-67001072D03*
X204840865Y-64461072D03*
X204840865Y-61921072D03*
X204840865Y-59381072D03*
X204840865Y-56841072D03*
X204840865Y-54301072D03*
%TD*%
D24*
%TO.C,D3*%
X173824141Y-101703182D03*
X174212369Y-100254294D03*
D25*
X179186887Y-101587212D03*
D24*
X178798659Y-103036100D03*
%TD*%
D26*
%TO.C,D2*%
X189553023Y-108429963D03*
X190303023Y-107130925D03*
D27*
X194763053Y-109705925D03*
D26*
X194013053Y-111004963D03*
%TD*%
D16*
%TO.C,J2*%
X206470865Y-111299066D03*
X213470865Y-111299066D03*
X213470865Y-113049066D03*
X206470865Y-113049066D03*
D28*
X208670865Y-109199066D03*
X211670865Y-109199066D03*
X203170865Y-113399066D03*
X204670865Y-109199066D03*
%TD*%
D29*
%TO.C,H1*%
X132450866Y-65649066D03*
X170550866Y-65649066D03*
X151500866Y-84699066D03*
X151500866Y-46599066D03*
%TD*%
D30*
%TO.C,D7*%
X100694125Y-68415033D03*
X102565260Y-68085101D03*
X101282396Y-66280451D03*
%TD*%
%TO.C,D13*%
X108247815Y-111254164D03*
X110118950Y-110924232D03*
X108836086Y-109119582D03*
%TD*%
D20*
%TO.C,K13*%
X85041926Y-109507290D03*
D31*
X90458369Y-108552225D03*
D20*
X95874812Y-107597160D03*
D32*
X89433845Y-102741858D03*
X84874467Y-105678196D03*
%TD*%
D31*
%TO.C,K14*%
X108184906Y-105426554D03*
D20*
X102768463Y-106381619D03*
X113601349Y-104471489D03*
D32*
X107160382Y-99616187D03*
X102601004Y-102552525D03*
%TD*%
D33*
%TO.C,D8*%
X120171726Y-52698134D03*
X122064496Y-52532538D03*
X120943799Y-50622946D03*
%TD*%
D30*
%TO.C,D10*%
X103654825Y-85205999D03*
X105525960Y-84876067D03*
X104243096Y-83071417D03*
%TD*%
D20*
%TO.C,K1*%
X89970778Y-74113691D03*
D31*
X84554335Y-75068756D03*
D20*
X79137892Y-76023821D03*
D32*
X85578859Y-80879123D03*
X90138237Y-77942785D03*
%TD*%
D31*
%TO.C,K3*%
X121440591Y-56301255D03*
D20*
X115961520Y-56780612D03*
X126919662Y-55821898D03*
D32*
X121954810Y-62178805D03*
X126752756Y-59651016D03*
%TD*%
D31*
%TO.C,K4*%
X142490869Y-49189062D03*
D20*
X147990869Y-49189062D03*
X136990869Y-49189062D03*
D32*
X142490869Y-55089063D03*
X147490869Y-52989062D03*
%TD*%
D31*
%TO.C,K8*%
X105232890Y-88684826D03*
D20*
X99816447Y-89639891D03*
X110649333Y-87729761D03*
D32*
X106257414Y-94495193D03*
X110816792Y-91558855D03*
%TD*%
D33*
%TO.C,D11*%
X121653379Y-69633439D03*
X123546149Y-69467843D03*
X122425452Y-67558251D03*
%TD*%
D31*
%TO.C,K9*%
X122922241Y-73236560D03*
D20*
X117443170Y-73715917D03*
X128401312Y-72757203D03*
D32*
X123436460Y-79114110D03*
X128234406Y-76586321D03*
%TD*%
D20*
%TO.C,K10*%
X147990862Y-66189064D03*
D31*
X142490862Y-66189064D03*
D20*
X136990862Y-66189064D03*
D32*
X142490862Y-72089065D03*
X147490862Y-69989064D03*
%TD*%
D20*
%TO.C,K15*%
X129882952Y-89692510D03*
X118924810Y-90651224D03*
D31*
X124403881Y-90171867D03*
D32*
X124918100Y-96049417D03*
X129716046Y-93521628D03*
%TD*%
D20*
%TO.C,K16*%
X147990864Y-83189063D03*
D31*
X142490864Y-83189063D03*
D20*
X136990864Y-83189063D03*
D32*
X142490864Y-89089064D03*
X147490864Y-86989063D03*
%TD*%
D33*
%TO.C,D14*%
X123135029Y-86568747D03*
X125027799Y-86403151D03*
X123907102Y-84493559D03*
%TD*%
D34*
%TO.C,D9*%
X159540867Y-50989062D03*
X161440867Y-50989062D03*
X160490867Y-48989062D03*
%TD*%
%TO.C,D12*%
X159540867Y-67989060D03*
X161440867Y-67989060D03*
X160490867Y-65989060D03*
%TD*%
%TO.C,D15*%
X159540868Y-84989060D03*
X161440868Y-84989060D03*
X160490868Y-82989060D03*
%TD*%
D31*
%TO.C,K5*%
X160490866Y-54689071D03*
D20*
X154990866Y-54689071D03*
X165990866Y-54689071D03*
D32*
X160490866Y-60589072D03*
X165490866Y-58489071D03*
%TD*%
D20*
%TO.C,K6*%
X183990870Y-57189063D03*
D31*
X178490870Y-57189063D03*
D20*
X172990870Y-57189063D03*
D32*
X178490870Y-63089064D03*
X183490870Y-60989063D03*
%TD*%
D31*
%TO.C,K11*%
X160490858Y-71689068D03*
D20*
X154990858Y-71689068D03*
X165990858Y-71689068D03*
D32*
X160490858Y-77589069D03*
X165490858Y-75489068D03*
%TD*%
D20*
%TO.C,K12*%
X172990862Y-74189064D03*
X183990862Y-74189064D03*
D31*
X178490862Y-74189064D03*
D32*
X178490862Y-80089065D03*
X183490862Y-77989064D03*
%TD*%
D20*
%TO.C,K17*%
X154990865Y-88689063D03*
D31*
X160490865Y-88689063D03*
D20*
X165990865Y-88689063D03*
D32*
X160490865Y-94589064D03*
X165490865Y-92489063D03*
%TD*%
D20*
%TO.C,K18*%
X183990866Y-91189061D03*
X172990866Y-91189061D03*
D31*
X178490866Y-91189061D03*
D32*
X178490866Y-97089062D03*
X183490866Y-94989061D03*
%TD*%
D35*
%TO.C,K20*%
X149964739Y-111311586D03*
D20*
X155464739Y-105711586D03*
D31*
X149964739Y-105711586D03*
D36*
X142464739Y-103211586D03*
D37*
X142464739Y-108211586D03*
D38*
X144464739Y-105711586D03*
D37*
X142464739Y-105711586D03*
X156964739Y-108211586D03*
D32*
X149964739Y-99811586D03*
D37*
X156964739Y-103211586D03*
D32*
X144964739Y-101911586D03*
%TD*%
D31*
%TO.C,K2*%
X102280872Y-71943094D03*
D20*
X107697315Y-70988029D03*
X96864429Y-72898159D03*
D32*
X103305396Y-77753461D03*
X107864774Y-74817123D03*
%TD*%
D39*
%TO.C,D20*%
X167207975Y-113835631D03*
X169043234Y-114327387D03*
X168643243Y-112149657D03*
%TD*%
D20*
%TO.C,K22*%
X183206007Y-113488983D03*
D31*
X187969147Y-116238983D03*
D20*
X192732287Y-118988983D03*
D32*
X185019147Y-121348534D03*
X190399274Y-122029880D03*
%TD*%
D40*
%TO.C,D21*%
X198928953Y-131739071D03*
X200272456Y-133082574D03*
X201014918Y-130996609D03*
%TD*%
D34*
%TO.C,D19*%
X164450864Y-98989070D03*
X166350864Y-98989070D03*
X165400864Y-96989070D03*
%TD*%
D20*
%TO.C,K19*%
X191706005Y-98766552D03*
D31*
X196469145Y-101516552D03*
D41*
X199269145Y-96666810D03*
D42*
X201714336Y-107431616D03*
D37*
X204214336Y-103101489D03*
D38*
X201232285Y-104266552D03*
D37*
X202964336Y-105266552D03*
D32*
X193519145Y-106626102D03*
D37*
X191656967Y-95851489D03*
D32*
X198899272Y-107307449D03*
D37*
X189156967Y-100181616D03*
%TD*%
D31*
%TO.C,K23*%
X203631215Y-128380308D03*
D20*
X207520302Y-132269395D03*
X199742128Y-124491221D03*
D32*
X207803146Y-124208377D03*
X202782687Y-122157768D03*
%TD*%
D43*
%TO.C,D4*%
X152273202Y-97954987D03*
X152273202Y-96454987D03*
D44*
X157423202Y-96454987D03*
D43*
X157423202Y-97954987D03*
%TD*%
D26*
%TO.C,D1*%
X194987304Y-91943477D03*
X195737304Y-90644439D03*
D27*
X200197334Y-93219439D03*
D26*
X199447334Y-94518477D03*
%TD*%
D17*
%TO.C,J4*%
X202290867Y-50979059D03*
%TD*%
D45*
%TO.C,JP1*%
X210720868Y-63319062D03*
D46*
X210720868Y-64619062D03*
%TD*%
D47*
%TO.C,C1*%
X197040870Y-50909069D03*
X198940870Y-50909069D03*
%TD*%
D48*
%TO.C,SW1*%
X211340866Y-120789060D03*
D49*
X211340866Y-117689060D03*
X211340866Y-123889060D03*
X215040866Y-117689060D03*
X215040866Y-123889060D03*
D48*
X215040866Y-120789060D03*
%TD*%
D20*
%TO.C,K7*%
X82089908Y-92765560D03*
X92922794Y-90855430D03*
D31*
X87506351Y-91810495D03*
D32*
X86481827Y-86000128D03*
X81922449Y-88936466D03*
%TD*%
D50*
%TO.C,SW2*%
X205688911Y-93870610D03*
D51*
X208679727Y-92475969D03*
X209736273Y-94741739D03*
D50*
X206745457Y-96136379D03*
D51*
X210792819Y-97007508D03*
D50*
X207802003Y-98402149D03*
%TD*%
D52*
%TO.C,H3*%
X134723819Y-95495962D03*
D53*
X132653819Y-105855962D03*
X135003819Y-104105962D03*
D54*
X130603819Y-108415962D03*
D55*
X136303819Y-104155962D03*
D54*
X130603819Y-107905962D03*
D56*
X131903819Y-100555962D03*
D57*
X130803819Y-106055962D03*
D58*
X127109987Y-110670160D03*
D53*
X135853819Y-101105962D03*
D59*
X131353819Y-98905962D03*
D53*
X132303819Y-102555962D03*
D60*
X127503819Y-109405962D03*
D61*
X136583819Y-94155962D03*
%TD*%
D29*
%TO.C,H4*%
X111842403Y-65751727D03*
%TD*%
%TO.C,H5*%
X118703427Y-106452211D03*
%TD*%
%TO.C,H6*%
X198590866Y-118589073D03*
%TD*%
%TO.C,H7*%
X169490866Y-51689062D03*
%TD*%
D18*
%TO.C,J3*%
X193390863Y-50979064D03*
%TD*%
D62*
%TO.C,H30*%
X100240802Y-112045650D03*
%TD*%
%TO.C,H28*%
X85193823Y-112515671D03*
%TD*%
D63*
%TO.C,H24*%
X78023818Y-70545961D03*
%TD*%
D62*
%TO.C,H29*%
X92177848Y-105782514D03*
%TD*%
D64*
%TO.C,JP2*%
X169490867Y-72439069D03*
D65*
X169490867Y-73889069D03*
%TD*%
D47*
%TO.C,C3*%
X187598202Y-87663926D03*
X189498202Y-87663926D03*
%TD*%
%TO.C,C2*%
X187598201Y-93863923D03*
X189498201Y-93863923D03*
%TD*%
D62*
%TO.C,H27*%
X77727848Y-95332514D03*
%TD*%
%TO.C,H31*%
X94527847Y-94132514D03*
%TD*%
D63*
%TO.C,H25*%
X203619919Y-136149962D03*
%TD*%
%TO.C,H23*%
X184219923Y-51949958D03*
%TD*%
D62*
%TO.C,H26*%
X77427848Y-83232515D03*
%TD*%
D31*
%TO.C,K21*%
X169600864Y-108575724D03*
D20*
X174913456Y-109999229D03*
X164288272Y-107152219D03*
D32*
X171127897Y-102876761D03*
X165754747Y-103611111D03*
%TD*%
D66*
%TO.C,U2*%
X189898197Y-89813924D03*
X189898197Y-90763924D03*
X187198197Y-90763924D03*
X187198197Y-89813924D03*
X189898197Y-91713924D03*
X187198197Y-91713924D03*
%TD*%
D67*
X202579829Y-83552153D03*
X202620910Y-63191072D03*
X194324829Y-68312153D03*
X203214829Y-68312153D03*
X201944829Y-83044153D03*
X201944829Y-65645153D03*
X190006829Y-85711153D03*
X193054829Y-55569065D03*
X207086832Y-89329156D03*
X201944829Y-91807153D03*
X202960829Y-98665153D03*
X205565826Y-91364150D03*
X215152829Y-108063153D03*
D68*
X210580829Y-58787153D03*
X199404829Y-61962153D03*
X202960829Y-89521153D03*
D67*
X191907988Y-64860870D03*
X155707994Y-107310877D03*
X168901053Y-68134802D03*
X181647994Y-59890874D03*
X185304829Y-71703153D03*
X190786186Y-72097472D03*
X169491051Y-69808296D03*
X89018459Y-85552847D03*
X191762131Y-69861595D03*
X96815576Y-83739765D03*
X184254829Y-71753153D03*
X190790635Y-74636987D03*
X190740869Y-77179064D03*
X111299972Y-97230670D03*
X186740866Y-81439067D03*
X191904656Y-72488776D03*
X106898879Y-80396099D03*
X157790864Y-63765563D03*
X159348201Y-99763926D03*
X170154829Y-79503153D03*
X191964652Y-75008776D03*
X125711495Y-81023091D03*
X172171125Y-72865050D03*
X170990742Y-80189066D03*
X174004829Y-76253153D03*
X146600862Y-80235563D03*
X191887996Y-77483585D03*
X150948197Y-97163925D03*
X191788795Y-79994928D03*
X171654829Y-80929065D03*
X163537854Y-80919064D03*
X182948201Y-105763921D03*
X194890862Y-104139065D03*
X180704829Y-83353153D03*
X191636654Y-82687023D03*
D68*
X196282983Y-111403300D03*
X158832408Y-98501830D03*
X201930857Y-95139066D03*
X179951846Y-104222426D03*
X192330862Y-58309062D03*
X192330861Y-57019059D03*
X191619924Y-90763927D03*
X203873201Y-101113922D03*
D67*
X188548197Y-90763924D03*
X205223200Y-100713922D03*
X200931007Y-94528925D03*
X195433634Y-110910881D03*
X194130797Y-90450788D03*
X196073198Y-104363924D03*
X196223202Y-94913926D03*
X195390864Y-108689066D03*
X193423201Y-102138924D03*
X188894989Y-107184969D03*
X180391846Y-102902436D03*
X158573301Y-97214580D03*
X172771847Y-100622436D03*
X170452908Y-99892506D03*
X190740864Y-79710111D03*
X158537420Y-105367461D03*
X168961057Y-68974797D03*
X192071058Y-67464798D03*
X94409495Y-67613724D03*
X101903680Y-109670815D03*
X97369763Y-84454388D03*
D68*
X192230863Y-54299063D03*
X188116099Y-106417555D03*
X193170864Y-89909071D03*
X150216247Y-97811877D03*
X171731843Y-101082431D03*
D67*
X190790865Y-69539062D03*
X190690868Y-82239067D03*
X164630863Y-109859066D03*
X185850866Y-117561875D03*
X191450866Y-124299061D03*
M02*
