<?xml version="1.0" standalone="no"?>
 <!DOCTYPE svg PUBLIC "-//W3C//DTD SVG 1.1//EN" 
 "http://www.w3.org/Graphics/SVG/1.1/DTD/svg11.dtd"> 
<svg
  xmlns:svg="http://www.w3.org/2000/svg"
  xmlns="http://www.w3.org/2000/svg"
  xmlns:xlink="http://www.w3.org/1999/xlink"
  version="1.1"
  width="29.700220cm" height="21.000720cm" viewBox="0 0 11693000 8268000">
<title>SVG Picture created as hillside-User_Eco2.svg date 2022/02/03 10:02:41 </title>
  <desc>Picture generated by PCBNEW </desc>
<g style="fill:#000000; fill-opacity:1.000000;stroke:#000000; stroke-opacity:1.000000;
stroke-linecap:round; stroke-linejoin:round;"
 transform="translate(0 0) scale(1 1)">
</g>
<g style="fill:#000000; fill-opacity:0.0; 
stroke:#000000; stroke-width:0.000000; stroke-opacity:1; 
stroke-linecap:round; stroke-linejoin:round;">
</g>
<g style="fill:#000000; fill-opacity:0.0; 
stroke:#000000; stroke-width:5905.511811; stroke-opacity:1; 
stroke-linecap:round; stroke-linejoin:round;">
<text x="6463000.000000" y="5939685.039370"
transform="scale(-1 1) translate(-12926000.000000 0)"
textLength="207920.866142" font-size="52493.425197" lengthAdjust="spacingAndGlyphs"
text-anchor="middle" opacity="0">3.00 in</text>
<g class="stroked-text"><desc>3.00 in</desc>
<path d="M6360825 5898440
L6385197 5898440
L6372073 5913438
L6377698 5913438
L6381447 5915313
L6383322 5917187
L6385197 5920937
L6385197 5930311
L6383322 5934060
L6381447 5935935
L6377698 5937810
L6366449 5937810
L6362700 5935935
L6360825 5934060
" />
<path d="M6402070 5934060
L6403944 5935935
L6402070 5937810
L6400195 5935935
L6402070 5934060
L6402070 5937810
" />
<path d="M6428316 5898440
L6432066 5898440
L6435815 5900314
L6437690 5902189
L6439565 5905939
L6441440 5913438
L6441440 5922812
L6439565 5930311
L6437690 5934060
L6435815 5935935
L6432066 5937810
L6428316 5937810
L6424567 5935935
L6422692 5934060
L6420817 5930311
L6418943 5922812
L6418943 5913438
L6420817 5905939
L6422692 5902189
L6424567 5900314
L6428316 5898440
" />
<path d="M6465812 5898440
L6469561 5898440
L6473311 5900314
L6475185 5902189
L6477060 5905939
L6478935 5913438
L6478935 5922812
L6477060 5930311
L6475185 5934060
L6473311 5935935
L6469561 5937810
L6465812 5937810
L6462062 5935935
L6460187 5934060
L6458313 5930311
L6456438 5922812
L6456438 5913438
L6458313 5905939
L6460187 5902189
L6462062 5900314
L6465812 5898440
" />
<path d="M6525804 5937810
L6525804 5911563
" />
<path d="M6525804 5898440
L6523929 5900314
L6525804 5902189
L6527679 5900314
L6525804 5898440
L6525804 5902189
" />
<path d="M6544552 5911563
L6544552 5937810
" />
<path d="M6544552 5915313
L6546427 5913438
L6550176 5911563
L6555800 5911563
L6559550 5913438
L6561425 5917187
L6561425 5937810
" />
</g></g>
<g style="fill:#000000; fill-opacity:0.0; 
stroke:#000000; stroke-width:3937.007874; stroke-opacity:1; 
stroke-linecap:round; stroke-linejoin:round;">
<path d="M7963000 5970314
L7963000 5896912
" />
<path d="M4963000 5970314
L4963000 5896912
" />
<path d="M7963000 5920000
L6593436 5920000
" />
<path d="M6332563 5920000
L4963000 5920000
" />
<path d="M7963000 5920000
L7918649 5943087
" />
<path d="M7963000 5920000
L7918649 5896912
" />
<path d="M4963000 5920000
L5007350 5896912
" />
<path d="M4963000 5920000
L5007350 5943087
" />
</g>
<g style="fill:#000000; fill-opacity:0.0; 
stroke:#000000; stroke-width:5905.511811; stroke-opacity:1; 
stroke-linecap:round; stroke-linejoin:round;">
<text x="6584732.283465" y="5760551.181102"
transform="scale(-1 1) translate(-13169464.566929 0)"
textLength="258539.566929" font-size="52493.425197" lengthAdjust="spacingAndGlyphs"
text-anchor="middle" opacity="0">70.0 mm</text>
<g class="stroked-text"><desc>70.0 mm</desc>
<path d="M6457248 5719306
L6483494 5719306
L6466622 5758676
" />
<path d="M6505992 5719306
L6509741 5719306
L6513491 5721181
L6515365 5723055
L6517240 5726805
L6519115 5734304
L6519115 5743678
L6517240 5751177
L6515365 5754926
L6513491 5756801
L6509741 5758676
L6505992 5758676
L6502242 5756801
L6500367 5754926
L6498493 5751177
L6496618 5743678
L6496618 5734304
L6498493 5726805
L6500367 5723055
L6502242 5721181
L6505992 5719306
" />
<path d="M6535988 5754926
L6537863 5756801
L6535988 5758676
L6534113 5756801
L6535988 5754926
L6535988 5758676
" />
<path d="M6562235 5719306
L6565984 5719306
L6569734 5721181
L6571608 5723055
L6573483 5726805
L6575358 5734304
L6575358 5743678
L6573483 5751177
L6571608 5754926
L6569734 5756801
L6565984 5758676
L6562235 5758676
L6558485 5756801
L6556610 5754926
L6554736 5751177
L6552861 5743678
L6552861 5734304
L6554736 5726805
L6556610 5723055
L6558485 5721181
L6562235 5719306
" />
<path d="M6622227 5758676
L6622227 5732429
" />
<path d="M6622227 5736179
L6624102 5734304
L6627851 5732429
L6633476 5732429
L6637225 5734304
L6639100 5738053
L6639100 5758676
" />
<path d="M6639100 5738053
L6640975 5734304
L6644724 5732429
L6650349 5732429
L6654098 5734304
L6655973 5738053
L6655973 5758676
" />
<path d="M6674721 5758676
L6674721 5732429
" />
<path d="M6674721 5736179
L6676595 5734304
L6680345 5732429
L6685969 5732429
L6689719 5734304
L6691593 5738053
L6691593 5758676
" />
<path d="M6691593 5738053
L6693468 5734304
L6697218 5732429
L6702842 5732429
L6706592 5734304
L6708466 5738053
L6708466 5758676
" />
</g></g>
<g style="fill:#000000; fill-opacity:0.0; 
stroke:#000000; stroke-width:3937.007874; stroke-opacity:1; 
stroke-linecap:round; stroke-linejoin:round;">
<path d="M7962685 5809763
L7962685 5717778
" />
<path d="M5206779 5809763
L5206779 5717778
" />
<path d="M7962685 5740866
L6740478 5740866
" />
<path d="M6428986 5740866
L5206779 5740866
" />
<path d="M7962685 5740866
L7918334 5763953
" />
<path d="M7962685 5740866
L7918334 5717778
" />
<path d="M5206779 5740866
L5251130 5717778
" />
<path d="M5206779 5740866
L5251130 5763953
" />
</g>
<g style="fill:#000000; fill-opacity:0.0; 
stroke:#000000; stroke-width:1968.503937; stroke-opacity:1; 
stroke-linecap:round; stroke-linejoin:round;">
<path d="M5482370 2155511
L6062685 2155511
" />
<path d="M2964805 5669430
L3309329 6014067
" />
<path d="M3309329.223580 6014067.863289 A79248.425197 79248.425197 0.0 0 0 3421346.445058 6015428.334525" />
<path d="M3608354 5828420
L3421346 6015428
" />
<path d="M8257960 2982283
L8257960 4812992
" />
<path d="M7578826 3001968
L7578826 2982283
" />
<path d="M3287488.188976 2470472.440945 A78740.118110 78740.118110 0.0 0 0 3208748.031496 2549212.598425" />
<path d="M5511897.637795 5039370.078740 A2690625.196850 2690625.196850 0.0 0 0 3608354.337793 5828420.479518" />
<path d="M2871136 5444517
L2871136 4723109
" />
<path d="M7578826.771654 4812992.125984 A78740.118110 78740.118110 0.0 0 0 7657566.929134 4891732.283465" />
<path d="M6771740 5088582
L6239062 5088582
" />
<path d="M7578826.771654 3996062.992126 A19685.039370 19685.039370 0.0 0 0 7539456.692913 3996062.992126" />
<path d="M7539456 3996062
L7539456 4596456
" />
<path d="M2871136.768583 5444517.598431 A318328.700787 318328.700787 0.0 0 0 2964805.355257 5669430.432141" />
<path d="M2992212 4153937
L2992212 2984076
" />
<path d="M7578826 3799212
L7578826 3198818
" />
<path d="M3996149.606299,2470472.440945 C4803236.220472,2470472.440945 4133944.881890,2155511.811024 5482370.078740,2155511.811024" />
<path d="M6062685.039370,2155511.811024 C7263866.141732,2155511.811024 6555204.724409,2893700.787402 7460716.535433,2903543.307087" />
<path d="M7539456 3198818
L7539456 3799212
" />
<path d="M7657566 2903543
L8179220 2903543
" />
<path d="M7578826.771654 4793307.086614 A19685.039370 19685.039370 0.0 0 0 7539456.692913 4793307.086614" />
<path d="M2992212.598425,2984076.141732 C2992212.598425,2836614.173228 3208748.031496,2751181.102362 3208748.031496,2604724.409449" />
<path d="M7578826.771654 3198818.897638 A19685.039370 19685.039370 0.0 0 0 7539456.692913 3198818.897638" />
<path d="M7539456.692913 3001968.503937 A19685.039370 19685.039370 0.0 0 0 7578826.771654 3001968.503937" />
<path d="M7578826 4812992
L7578826 4793307
" />
<path d="M7657566 4891732
L8179220 4891732
" />
<path d="M8179220.472441 4891732.283465 A78740.118110 78740.118110 0.0 0 0 8257960.629921 4812992.125984" />
<path d="M3208748 2549212
L3208748 2604724
" />
<path d="M6771740.157480,5088582.677165 C6952055.118110,5088582.677165 6952055.118110,4891732.283465 7131582.677165,4891732.283465" />
<path d="M2871136.771654,4723109.606299 C2871136.771654,4429133.858268 2992212.598425,4429133.858268 2992212.598425,4153937.007874" />
<path d="M7657566.929134 2903543.307087 A78740.118110 78740.118110 0.0 0 0 7578826.771654 2982283.464567" />
<path d="M7578826 4596456
L7578826 3996062
" />
<path d="M7539456.692913 2982283.464567 A78740.118110 78740.118110 0.0 0 0 7460716.535433 2903543.307087" />
<path d="M7131582 4891732
L7460716 4891732
" />
<path d="M7539456 4793307
L7539456 4812992
" />
<path d="M7539456 3001968
L7539456 2982283
" />
<path d="M5511897.637795,5039370.078740 C6004023.622047,5039370.078740 6000874.015748,5088582.677165 6239062.992126,5088582.677165" />
<path d="M3287488 2470472
L3996149 2470472
" />
<path d="M7539456.692913 3799212.598425 A19685.039370 19685.039370 0.0 0 0 7578826.771654 3799212.598425" />
<path d="M7539456.692913 4596456.692913 A19685.039370 19685.039370 0.0 0 0 7578826.771654 4596456.692913" />
<path d="M7460716.535433 4891732.283465 A78740.118110 78740.118110 0.0 0 0 7539456.692913 4812992.125984" />
<path d="M8257960.629921 2982283.464567 A78740.118110 78740.118110 0.0 0 0 8179220.472441 2903543.307087" />
</g>
<g style="fill:#000000; fill-opacity:0.0; 
stroke:#000000; stroke-width:5905.511811; stroke-opacity:1; 
stroke-linecap:round; stroke-linejoin:round;">
<path d="M6802956 4437287
L6192720 4437287
" />
<path d="M6192720 5086893
L6802956 5086893
" />
<path d="M6842326 4476657
L6842326 5047523
" />
<path d="M6153350 4476657
L6153350 5047523
" />
<path d="M6802956.417323 5086893.937008 A39370.196850 39370.196850 0.0 0 0 6842326.496063 5047523.858268" />
<path d="M6842326.496063 4476657.716535 A39370.196850 39370.196850 0.0 0 0 6802956.417323 4437287.637795" />
<path d="M6192720.196850 4437287.637795 A39370.196850 39370.196850 0.0 0 0 6153350.118110 4476657.716535" />
<path d="M6153350.118110 5047523.858268 A39370.196850 39370.196850 0.0 0 0 6192720.196850 5086893.937008" />
<path d="M7608354 4891732
L8218590 4891732
" />
<path d="M8218590 4242125
L7608354 4242125
" />
<path d="M7568984 4281496
L7568984 4852362
" />
<path d="M8257960 4281496
L8257960 4852362
" />
<path d="M8218590.551181 4891732.283464 A39370.196850 39370.196850 0.0 0 0 8257960.629921 4852362.204724" />
<path d="M7608354.330709 4242125.984252 A39370.196850 39370.196850 0.0 0 0 7568984.251969 4281496.062992" />
<path d="M7568984.251969 4852362.204724 A39370.196850 39370.196850 0.0 0 0 7608354.330709 4891732.283464" />
<path d="M8257960.629921 4281496.062992 A39370.196850 39370.196850 0.0 0 0 8218590.551181 4242125.984252" />
<path d="M7549299 4281496
L7549299 4852362
" />
<path d="M7509929 4242125
L6899692 4242125
" />
<path d="M6860322 4281496
L6860322 4852362
" />
<path d="M6899692 4891732
L7509929 4891732
" />
<path d="M6860322.834646 4852362.204724 A39370.196850 39370.196850 0.0 0 0 6899692.913386 4891732.283464" />
<path d="M7509929.133858 4891732.283464 A39370.196850 39370.196850 0.0 0 0 7549299.212598 4852362.204724" />
<path d="M6899692.913386 4242125.984252 A39370.196850 39370.196850 0.0 0 0 6860322.834646 4281496.062992" />
<path d="M7549299.212598 4281496.062992 A39370.196850 39370.196850 0.0 0 0 7509929.133858 4242125.984252" />
<path d="M7608354 3553149
L8218590 3553149
" />
<path d="M7568984 2942913
L7568984 3513779
" />
<path d="M8218590 2903543
L7608354 2903543
" />
<path d="M8257960 2942913
L8257960 3513779
" />
<path d="M7608354.330709 2903543.307087 A39370.196850 39370.196850 0.0 0 0 7568984.251969 2942913.385827" />
<path d="M7568984.251969 3513779.527559 A39370.196850 39370.196850 0.0 0 0 7608354.330709 3553149.606299" />
<path d="M8257960.629921 2942913.385827 A39370.196850 39370.196850 0.0 0 0 8218590.551181 2903543.307087" />
<path d="M8218590.551181 3553149.606299 A39370.196850 39370.196850 0.0 0 0 8257960.629921 3513779.527559" />
<path d="M6151661 2470472
L6151661 3041338
" />
<path d="M6191031 3080708
L6801267 3080708
" />
<path d="M6840637 2470472
L6840637 3041338
" />
<path d="M6801267 2431102
L6191031 2431102
" />
<path d="M6191031.496063 2431102.362205 A39370.196850 39370.196850 0.0 0 0 6151661.417323 2470472.440945" />
<path d="M6151661.417323 3041338.582677 A39370.196850 39370.196850 0.0 0 0 6191031.496063 3080708.661417" />
<path d="M6801267.716535 3080708.661417 A39370.196850 39370.196850 0.0 0 0 6840637.795275 3041338.582677" />
<path d="M6840637.795275 2470472.440945 A39370.196850 39370.196850 0.0 0 0 6801267.716535 2431102.362205" />
<path d="M6131976 2194881
L6131976 2765748
" />
<path d="M6092606 2155511
L5482370 2155511
" />
<path d="M5443000 2194881
L5443000 2765748
" />
<path d="M5482370 2805118
L6092606 2805118
" />
<path d="M5482370.078740 2155511.811024 A39370.196850 39370.196850 0.0 0 0 5443000.000000 2194881.889764" />
<path d="M6131976.377953 2194881.889764 A39370.196850 39370.196850 0.0 0 0 6092606.299213 2155511.811024" />
<path d="M5443000.000000 2765748.031496 A39370.196850 39370.196850 0.0 0 0 5482370.078740 2805118.110236" />
<path d="M6092606.299213 2805118.110236 A39370.196850 39370.196850 0.0 0 0 6131976.377953 2765748.031496" />
<path d="M7549299 3612204
L7549299 4183070
" />
<path d="M6899692 4222440
L7509929 4222440
" />
<path d="M6860322 3612204
L6860322 4183070
" />
<path d="M7509929 3572834
L6899692 3572834
" />
<path d="M7509929.133858 4222440.944882 A39370.196850 39370.196850 0.0 0 0 7549299.212598 4183070.866142" />
<path d="M6860322.834646 4183070.866142 A39370.196850 39370.196850 0.0 0 0 6899692.913386 4222440.944882" />
<path d="M7549299.212598 3612204.724409 A39370.196850 39370.196850 0.0 0 0 7509929.133858 3572834.645669" />
<path d="M6899692.913386 3572834.645669 A39370.196850 39370.196850 0.0 0 0 6860322.834646 3612204.724409" />
<path d="M6191031 3750000
L6801267 3750000
" />
<path d="M6151661 3139763
L6151661 3710629
" />
<path d="M6801267 3100393
L6191031 3100393
" />
<path d="M6840637 3139763
L6840637 3710629
" />
<path d="M6191031.496063 3100393.700788 A39370.196850 39370.196850 0.0 0 0 6151661.417323 3139763.779528" />
<path d="M6840637.795275 3139763.779528 A39370.196850 39370.196850 0.0 0 0 6801267.716535 3100393.700788" />
<path d="M6801267.716535 3750000.000000 A39370.196850 39370.196850 0.0 0 0 6840637.795275 3710629.921260" />
<path d="M6151661.417323 3710629.921260 A39370.196850 39370.196850 0.0 0 0 6191031.496063 3750000.000000" />
<path d="M6092606 2824803
L5482370 2824803
" />
<path d="M5443000 2864173
L5443000 3435039
" />
<path d="M6131976 2864173
L6131976 3435039
" />
<path d="M5482370 3474409
L6092606 3474409
" />
<path d="M6131976.377953 2864173.228346 A39370.196850 39370.196850 0.0 0 0 6092606.299213 2824803.149606" />
<path d="M6092606.299213 3474409.448819 A39370.196850 39370.196850 0.0 0 0 6131976.377953 3435039.370079" />
<path d="M5482370.078740 2824803.149606 A39370.196850 39370.196850 0.0 0 0 5443000.000000 2864173.228346" />
<path d="M5443000.000000 3435039.370079 A39370.196850 39370.196850 0.0 0 0 5482370.078740 3474409.448819" />
<path d="M6840637 3809055
L6840637 4379921
" />
<path d="M6151661 3809055
L6151661 4379921
" />
<path d="M6191031 4419291
L6801267 4419291
" />
<path d="M6801267 3769685
L6191031 3769685
" />
<path d="M6840637.795275 3809055.118110 A39370.196850 39370.196850 0.0 0 0 6801267.716535 3769685.039370" />
<path d="M6801267.716535 4419291.338583 A39370.196850 39370.196850 0.0 0 0 6840637.795275 4379921.259843" />
<path d="M6151661.417323 4379921.259843 A39370.196850 39370.196850 0.0 0 0 6191031.496063 4419291.338583" />
<path d="M6191031.496063 3769685.039370 A39370.196850 39370.196850 0.0 0 0 6151661.417323 3809055.118110" />
<path d="M5443000 3533464
L5443000 4104330
" />
<path d="M5482370 4143700
L6092606 4143700
" />
<path d="M6092606 3494094
L5482370 3494094
" />
<path d="M6131976 3533464
L6131976 4104330
" />
<path d="M6131976.377953 3533464.566929 A39370.196850 39370.196850 0.0 0 0 6092606.299213 3494094.488189" />
<path d="M5443000.000000 4104330.708661 A39370.196850 39370.196850 0.0 0 0 5482370.078740 4143700.787401" />
<path d="M5482370.078740 3494094.488189 A39370.196850 39370.196850 0.0 0 0 5443000.000000 3533464.566929" />
<path d="M6092606.299213 4143700.787401 A39370.196850 39370.196850 0.0 0 0 6131976.377953 4104330.708661" />
<path d="M4734338 2411417
L4734338 2982283
" />
<path d="M4773708 3021653
L5383944 3021653
" />
<path d="M5423314 2411417
L5423314 2982283
" />
<path d="M5383944 2372047
L4773708 2372047
" />
<path d="M4773708.661417 2372047.244095 A39370.196850 39370.196850 0.0 0 0 4734338.582677 2411417.322835" />
<path d="M5423314.960630 2411417.322835 A39370.196850 39370.196850 0.0 0 0 5383944.881890 2372047.244095" />
<path d="M4734338.582677 2982283.464567 A39370.196850 39370.196850 0.0 0 0 4773708.661417 3021653.543307" />
<path d="M5383944.881890 3021653.543307 A39370.196850 39370.196850 0.0 0 0 5423314.960630 2982283.464567" />
<path d="M4714653 2509842
L4714653 3080708
" />
<path d="M4025677 2509842
L4025677 3080708
" />
<path d="M4675283 2470472
L4065047 2470472
" />
<path d="M4065047 3120078
L4675283 3120078
" />
<path d="M4065047.244094 2470472.440945 A39370.196850 39370.196850 0.0 0 0 4025677.165355 2509842.519685" />
<path d="M4714653.543307 2509842.519685 A39370.196850 39370.196850 0.0 0 0 4675283.464567 2470472.440945" />
<path d="M4025677.165355 3080708.661417 A39370.196850 39370.196850 0.0 0 0 4065047.244094 3120078.740157" />
<path d="M4675283.464567 3120078.740157 A39370.196850 39370.196850 0.0 0 0 4714653.543307 3080708.661417" />
<path d="M4734338 3080708
L4734338 3651574
" />
<path d="M5423314 3080708
L5423314 3651574
" />
<path d="M4773708 3690944
L5383944 3690944
" />
<path d="M5383944 3041338
L4773708 3041338
" />
<path d="M5383944.881890 3690944.881890 A39370.196850 39370.196850 0.0 0 0 5423314.960630 3651574.803150" />
<path d="M4734338.582677 3651574.803150 A39370.196850 39370.196850 0.0 0 0 4773708.661417 3690944.881890" />
<path d="M5423314.960630 3080708.661417 A39370.196850 39370.196850 0.0 0 0 5383944.881890 3041338.582677" />
<path d="M4773708.661417 3041338.582677 A39370.196850 39370.196850 0.0 0 0 4734338.582677 3080708.661417" />
<path d="M4675283 3139763
L4065047 3139763
" />
<path d="M4065047 3789370
L4675283 3789370
" />
<path d="M4714653 3179133
L4714653 3750000
" />
<path d="M4025677 3179133
L4025677 3750000
" />
<path d="M4675283.464567 3789370.078740 A39370.196850 39370.196850 0.0 0 0 4714653.543307 3750000.000000" />
<path d="M4025677.165355 3750000.000000 A39370.196850 39370.196850 0.0 0 0 4065047.244094 3789370.078740" />
<path d="M4065047.244094 3139763.779528 A39370.196850 39370.196850 0.0 0 0 4025677.165355 3179133.858268" />
<path d="M4714653.543307 3179133.858268 A39370.196850 39370.196850 0.0 0 0 4675283.464567 3139763.779528" />
<path d="M5383944 3710629
L4773708 3710629
" />
<path d="M4734338 3750000
L4734338 4320866
" />
<path d="M4773708 4360236
L5383944 4360236
" />
<path d="M5423314 3750000
L5423314 4320866
" />
<path d="M4773708.661417 3710629.921260 A39370.196850 39370.196850 0.0 0 0 4734338.582677 3750000.000000" />
<path d="M5423314.960630 3750000.000000 A39370.196850 39370.196850 0.0 0 0 5383944.881890 3710629.921260" />
<path d="M5383944.881890 4360236.220472 A39370.196850 39370.196850 0.0 0 0 5423314.960630 4320866.141732" />
<path d="M4734338.582677 4320866.141732 A39370.196850 39370.196850 0.0 0 0 4773708.661417 4360236.220472" />
<path d="M4025677 3848425
L4025677 4419291
" />
<path d="M4675283 3809055
L4065047 3809055
" />
<path d="M4714653 3848425
L4714653 4419291
" />
<path d="M4065047 4458661
L4675283 4458661
" />
<path d="M4714653.543307 3848425.196850 A39370.196850 39370.196850 0.0 0 0 4675283.464567 3809055.118110" />
<path d="M4025677.165355 4419291.338583 A39370.196850 39370.196850 0.0 0 0 4065047.244094 4458661.417323" />
<path d="M4065047.244094 3809055.118110 A39370.196850 39370.196850 0.0 0 0 4025677.165355 3848425.196850" />
<path d="M4675283.464567 4458661.417323 A39370.196850 39370.196850 0.0 0 0 4714653.543307 4419291.338583" />
<path d="M5836700 4990157
L5836700 4419291
" />
<path d="M5187094 5029527
L5797330 5029527
" />
<path d="M5147724 4990157
L5147724 4419291
" />
<path d="M5797330 4379921
L5187094 4379921
" />
<path d="M5836700.787401 4419291.338583 A39370.196850 39370.196850 0.0 0 0 5797330.708661 4379921.259843" />
<path d="M5797330.708661 5029527.559055 A39370.196850 39370.196850 0.0 0 0 5836700.787401 4990157.480315" />
<path d="M5147724.409449 4990157.480315 A39370.196850 39370.196850 0.0 0 0 5187094.488189 5029527.559055" />
<path d="M5187094.488189 4379921.259843 A39370.196850 39370.196850 0.0 0 0 5147724.409449 4419291.338583" />
<path d="M6860322 2942913
L6860322 3513779
" />
<path d="M7509929 2903543
L6899692 2903543
" />
<path d="M6899692 3553149
L7509929 3553149
" />
<path d="M7549299 2942913
L7549299 3513779
" />
<path d="M7549299.212598 2942913.385827 A39370.196850 39370.196850 0.0 0 0 7509929.133858 2903543.307087" />
<path d="M6899692.913386 2903543.307087 A39370.196850 39370.196850 0.0 0 0 6860322.834646 2942913.385827" />
<path d="M7509929.133858 3553149.606299 A39370.196850 39370.196850 0.0 0 0 7549299.212598 3513779.527559" />
<path d="M6860322.834646 3513779.527559 A39370.196850 39370.196850 0.0 0 0 6899692.913386 3553149.606299" />
<path d="M4930821 4425666
L4341378 4583607
" />
<path d="M4461290 5183239
L4313539 4631825
" />
<path d="M4509509 5211078
L5098952 5053138
" />
<path d="M5126790 5004919
L4979039 4453505
" />
<path d="M5098952.003646 5053138.015717 A39370.078740 39370.078740 0.0 0 0 5126790.833314 5004919.772576" />
<path d="M4461290.801885 5183239.956749 A39370.118110 39370.118110 0.0 0 0 4509509.095882 5211078.824099" />
<path d="M4341378.626275 4583607.338614 A39370.078740 39370.078740 0.0 0 0 4313539.796607 4631825.581755" />
<path d="M4979039.828036 4453505.397582 A39370.118110 39370.118110 0.0 0 0 4930821.534039 4425666.530232" />
<path d="M3555952 5045127
L3841385 5539511
" />
<path d="M4098843 4686228
L3570363 4991346
" />
<path d="M3895166 5553922
L4423646 5248804
" />
<path d="M4152623 4700639
L4438056 5195023
" />
<path d="M3841385.871267 5539511.965545 A39370.078740 39370.078740 0.0 0 0 3895166.350741 5553922.393812" />
<path d="M3570363.228668 4991346.850951 A39370.118110 39370.118110 0.0 0 0 3555952.778785 5045127.411096" />
<path d="M4423646.456371 5248804.330152 A39370.118110 39370.118110 0.0 0 0 4438056.906254 5195023.770007" />
<path d="M4152623.813773 4700639.215557 A39370.078740 39370.078740 0.0 0 0 4098843.334298 4686228.787290" />
<path d="M3560520 4974299
L4089000 4669181
" />
<path d="M3221307 4465504
L3506740 4959888
" />
<path d="M3817978 4121015
L4103411 4615400
" />
<path d="M3764197 4106605
L3235717 4411723
" />
<path d="M3817978.144481 4121015.908471 A39370.078740 39370.078740 0.0 0 0 3764197.665007 4106605.480203" />
<path d="M3506740.201975 4959888.658458 A39370.078740 39370.078740 0.0 0 0 3560520.681450 4974299.086726" />
<path d="M3235717.559377 4411723.543864 A39370.118110 39370.118110 0.0 0 0 3221307.109494 4465504.104009" />
<path d="M4089000.787080 4669181.023065 A39370.118110 39370.118110 0.0 0 0 4103411.236963 4615400.462920" />
<path d="M3338629 6043502
L2934966 5639838
" />
<path d="M3825809 5556322
L3422146 5152659
" />
<path d="M3394307 6043502
L3825809 5612000
" />
<path d="M3366468 5152659
L2934966 5584161
" />
<path d="M3422146.141271 5152659.055579 A39370.118110 39370.118110 0.0 0 0 3366468.445343 5152659.035894" />
<path d="M3338629.606760 6043502.204264 A39370.118110 39370.118110 0.0 0 0 3394307.302689 6043502.223949" />
<path d="M2934966.307827 5584161.229087 A39370.078740 39370.078740 0.0 0 0 2934966.327512 5639838.869338" />
<path d="M3825809.440204 5612000.030755 A39370.078740 39370.078740 0.0 0 0 3825809.420519 5556322.390504" />
<path d="M8218590 3572834
L7608354 3572834
" />
<path d="M7608354 4222440
L8218590 4222440
" />
<path d="M8257960 3612204
L8257960 4183070
" />
<path d="M7568984 3612204
L7568984 4183070
" />
<path d="M7608354.330709 3572834.645669 A39370.196850 39370.196850 0.0 0 0 7568984.251969 3612204.724409" />
<path d="M7568984.251969 4183070.866142 A39370.196850 39370.196850 0.0 0 0 7608354.330709 4222440.944882" />
<path d="M8257960.629921 3612204.724409 A39370.196850 39370.196850 0.0 0 0 8218590.551181 3572834.645669" />
<path d="M8218590.551181 4222440.944882 A39370.196850 39370.196850 0.0 0 0 8257960.629921 4183070.866142" />
<g >
</g>
<g >
</g>
<g >
</g>
<g >
</g>
<g >
</g>
<g >
</g>
<g >
</g>
<g >
</g>
<g >
</g>
<g >
</g>
<g >
</g>
<g >
</g>
<g >
</g>
<g >
</g>
<g >
</g>
<g >
</g>
<g >
</g>
<g >
</g>
<g >
</g>
<g >
</g>
<g >
</g>
<g >
</g>
<g >
</g>
<g >
</g>
<g >
</g>
<g >
</g>
<g >
</g>
<g >
</g>
<g >
</g>
<g >
</g>
<g >
</g>
<g >
</g>
<g >
</g>
<g >
</g>
<g >
</g>
<g >
</g>
<g >
</g>
<g >
</g>
<g >
</g>
<g >
</g>
<g >
</g>
<g >
</g>
<g >
</g>
<g >
</g>
<g >
</g>
<g >
</g>
<g >
</g>
<g >
</g>
<g >
</g>
<g >
</g>
<g >
</g>
<g >
</g>
<g >
</g>
<g >
</g>
<g >
</g>
<g >
</g>
<g >
</g>
<g >
</g>
<g >
</g>
<g >
</g>
<g >
</g>
<g >
</g>
<g >
</g>
<g >
</g>
</g> 
</svg>
