<?xml version="1.0" standalone="no"?>
 <!DOCTYPE svg PUBLIC "-//W3C//DTD SVG 1.1//EN" 
 "http://www.w3.org/Graphics/SVG/1.1/DTD/svg11.dtd"> 
<svg
  xmlns:svg="http://www.w3.org/2000/svg"
  xmlns="http://www.w3.org/2000/svg"
  xmlns:xlink="http://www.w3.org/1999/xlink"
  version="1.1"
  width="27.940000cm" height="21.590000cm" viewBox="0 0 11000000 8500000">
<title>SVG Picture created as hillside56-User_Eco2.svg date 2022/02/03 15:04:16 </title>
  <desc>Picture generated by PCBNEW </desc>
<g style="fill:#000000; fill-opacity:1.000000;stroke:#000000; stroke-opacity:1.000000;
stroke-linecap:round; stroke-linejoin:round;"
 transform="translate(0 0) scale(1 1)">
</g>
<g style="fill:#000000; fill-opacity:0.0; 
stroke:#000000; stroke-width:0.000000; stroke-opacity:1; 
stroke-linecap:round; stroke-linejoin:round;">
</g>
<g style="fill:#000000; fill-opacity:0.0; 
stroke:#000000; stroke-width:5905.511811; stroke-opacity:1; 
stroke-linecap:round; stroke-linejoin:round;">
<text x="5850000.000000" y="5969685.039370"
transform="scale(-1 1) translate(-11700000.000000 0)"
textLength="170425.590551" font-size="52493.425197" lengthAdjust="spacingAndGlyphs"
text-anchor="middle" opacity="0">3.0 in</text>
<g class="stroked-text"><desc>3.0 in</desc>
<path d="M5766572 5928440
L5790944 5928440
L5777821 5943438
L5783445 5943438
L5787195 5945313
L5789070 5947187
L5790944 5950937
L5790944 5960311
L5789070 5964060
L5787195 5965935
L5783445 5967810
L5772197 5967810
L5768447 5965935
L5766572 5964060
" />
<path d="M5807817 5964060
L5809692 5965935
L5807817 5967810
L5805943 5965935
L5807817 5964060
L5807817 5967810
" />
<path d="M5834064 5928440
L5837814 5928440
L5841563 5930314
L5843438 5932189
L5845313 5935939
L5847187 5943438
L5847187 5952812
L5845313 5960311
L5843438 5964060
L5841563 5965935
L5837814 5967810
L5834064 5967810
L5830314 5965935
L5828440 5964060
L5826565 5960311
L5824690 5952812
L5824690 5943438
L5826565 5935939
L5828440 5932189
L5830314 5930314
L5834064 5928440
" />
<path d="M5894057 5967810
L5894057 5941563
" />
<path d="M5894057 5928440
L5892182 5930314
L5894057 5932189
L5895931 5930314
L5894057 5928440
L5894057 5932189
" />
<path d="M5912804 5941563
L5912804 5967810
" />
<path d="M5912804 5945313
L5914679 5943438
L5918428 5941563
L5924053 5941563
L5927802 5943438
L5929677 5947187
L5929677 5967810
" />
</g></g>
<g style="fill:#000000; fill-opacity:0.0; 
stroke:#000000; stroke-width:3937.007874; stroke-opacity:1; 
stroke-linecap:round; stroke-linejoin:round;">
<path d="M7350000 5919685
L7350000 5973087
" />
<path d="M4350000 5919685
L4350000 5973087
" />
<path d="M7350000 5950000
L5961689 5950000
" />
<path d="M5738310 5950000
L4350000 5950000
" />
<path d="M7350000 5950000
L7305649 5973087
" />
<path d="M7350000 5950000
L7305649 5926912
" />
<path d="M4350000 5950000
L4394350 5926912
" />
<path d="M4350000 5950000
L4394350 5973087
" />
</g>
<g style="fill:#000000; fill-opacity:0.0; 
stroke:#000000; stroke-width:5905.511811; stroke-opacity:1; 
stroke-linecap:round; stroke-linejoin:round;">
<text x="5974409.448819" y="5861023.622047"
transform="scale(-1 1) translate(-11948818.897638 0)"
textLength="258539.566929" font-size="52493.425197" lengthAdjust="spacingAndGlyphs"
text-anchor="middle" opacity="0">70.0 mm</text>
<g class="stroked-text"><desc>70.0 mm</desc>
<path d="M5846925 5819778
L5873172 5819778
L5856299 5859148
" />
<path d="M5895669 5819778
L5899418 5819778
L5903168 5821653
L5905043 5823528
L5906917 5827277
L5908792 5834776
L5908792 5844150
L5906917 5851649
L5905043 5855399
L5903168 5857274
L5899418 5859148
L5895669 5859148
L5891919 5857274
L5890045 5855399
L5888170 5851649
L5886295 5844150
L5886295 5834776
L5888170 5827277
L5890045 5823528
L5891919 5821653
L5895669 5819778
" />
<path d="M5925665 5855399
L5927540 5857274
L5925665 5859148
L5923790 5857274
L5925665 5855399
L5925665 5859148
" />
<path d="M5951912 5819778
L5955661 5819778
L5959411 5821653
L5961286 5823528
L5963160 5827277
L5965035 5834776
L5965035 5844150
L5963160 5851649
L5961286 5855399
L5959411 5857274
L5955661 5859148
L5951912 5859148
L5948162 5857274
L5946287 5855399
L5944413 5851649
L5942538 5844150
L5942538 5834776
L5944413 5827277
L5946287 5823528
L5948162 5821653
L5951912 5819778
" />
<path d="M6011904 5859148
L6011904 5832902
" />
<path d="M6011904 5836651
L6013779 5834776
L6017529 5832902
L6023153 5832902
L6026902 5834776
L6028777 5838526
L6028777 5859148
" />
<path d="M6028777 5838526
L6030652 5834776
L6034401 5832902
L6040026 5832902
L6043775 5834776
L6045650 5838526
L6045650 5859148
" />
<path d="M6064398 5859148
L6064398 5832902
" />
<path d="M6064398 5836651
L6066272 5834776
L6070022 5832902
L6075646 5832902
L6079396 5834776
L6081271 5838526
L6081271 5859148
" />
<path d="M6081271 5838526
L6083145 5834776
L6086895 5832902
L6092519 5832902
L6096269 5834776
L6098144 5838526
L6098144 5859148
" />
</g></g>
<g style="fill:#000000; fill-opacity:0.0; 
stroke:#000000; stroke-width:3937.007874; stroke-opacity:1; 
stroke-linecap:round; stroke-linejoin:round;">
<path d="M7352362 5880708
L7352362 5818251
" />
<path d="M4596456 5880708
L4596456 5818251
" />
<path d="M7352362 5841338
L6130155 5841338
" />
<path d="M5818663 5841338
L4596456 5841338
" />
<path d="M7352362 5841338
L7308011 5864426
" />
<path d="M7352362 5841338
L7308011 5818251
" />
<path d="M4596456 5841338
L4640807 5818251
" />
<path d="M4596456 5841338
L4640807 5864426
" />
</g>
<g style="fill:#000000; fill-opacity:0.0; 
stroke:#000000; stroke-width:1968.503937; stroke-opacity:1; 
stroke-linecap:round; stroke-linejoin:round;">
<path d="M4789370 2145669
L5369685 2145669
" />
<path d="M2250926 5690309
L2616329 6055826
" />
<path d="M7594488 2982283
L7594488 5482283
" />
<path d="M2545275.590551 2460629.921260 A78740.118110 78740.118110 0.0 0 0 2466535.433071 2539370.078740" />
<path d="M2178136 5444517
L2178136 4723109
" />
<path d="M6885826.771654 3996062.992126 A19685.039370 19685.039370 0.0 0 0 6846456.692913 3996062.992126" />
<path d="M6846456 3996062
L6846456 4468503
" />
<path d="M2299212 4153937
L2299212 2984076
" />
<path d="M6885826 3799212
L6885826 3051181
" />
<path d="M3064960.629921,2460629.921260 C3533464.566929,2460629.921260 3261811.023622,2145669.291339 4789370.078740,2145669.291339" />
<path d="M5369685.039370,2145669.291339 C6334645.669291,2145669.291339 6437007.874016,2881889.763780 7188976.377953,2874015.748031" />
<path d="M6846456 3051181
L6846456 3799212
" />
<path d="M2250926.220472,5690309.566929 C2184251.968504,5626377.952756 2178346.456693,5517322.834646 2178136.771654,5444517.598425" />
<path d="M7188976 2874015
L7486220 2874015
" />
<path d="M2879330.708661,5967716.535433 C3149212.598425,5716929.133858 3557086.614173,5303149.606299 4017716.535433,5299212.598425" />
<path d="M2299212.598425,2984076.141732 C2299212.598425,2836614.173228 2466535.433071,2746062.992126 2466535.433071,2604724.409449" />
<path d="M6885826.771654 3051181.102362 A19685.039370 19685.039370 0.0 0 0 6846456.692913 3051181.102362" />
<path d="M7190944 5590551
L7486220 5590551
" />
<path d="M6885826 5541338
L6885826 4665354
" />
<path d="M2466535 2539370
L2466535 2604724
" />
<path d="M4017716.535433,5299212.598425 C4568897.637795,5299212.598425 4592519.685039,5787401.574803 4809055.118110,5787401.574803" />
<path d="M7486220.472441 5590551.181101 A108267.283465 108267.283465 0.0 0 0 7594488.188976 5482283.464567" />
<path d="M2178136.771654,4723109.606299 C2178136.771654,4429133.858268 2299212.598425,4429133.858268 2299212.598425,4153937.007874" />
<path d="M7190944.881890,5590551.181102 C7074803.149606,5590551.181102 7043307.086614,5787401.574803 6866141.732283,5787401.574803" />
<path d="M6846456.692913 5541338.582677 A19685.039370 19685.039370 0.0 0 0 6885826.771654 5541338.582677" />
<path d="M6885826 4468503
L6885826 3996062
" />
<path d="M6846456 4665354
L6846456 5541338
" />
<path d="M6052165 5787401
L6866141 5787401
" />
<circle cx="6157480.314961" cy="5105472.440945" r="135000.000000" /> 
<path d="M5542322 5787401
L6052165 5787401
" />
<path d="M6885826.771654 4665354.330709 A19685.039370 19685.039370 0.0 0 0 6846456.692913 4665354.330709" />
<path d="M2545275 2460629
L3064960 2460629
" />
<path d="M6846456.692913 3799212.598425 A19685.039370 19685.039370 0.0 0 0 6885826.771654 3799212.598425" />
<path d="M4809055 5787401
L5542322 5787401
" />
<path d="M6846456.692913 4468503.937008 A19685.039370 19685.039370 0.0 0 0 6885826.771654 4468503.937008" />
<path d="M2616329.212598,6055826.141732 C2684251.968504,6121259.842520 2823228.346457,6024409.448819 2879330.708661,5967716.535433" />
<path d="M7594488.188976 2982283.464567 A108267.283465 108267.283465 0.0 0 0 7486220.472441 2874015.748032" />
</g>
<g style="fill:#000000; fill-opacity:0.0; 
stroke:#000000; stroke-width:4724.409449; stroke-opacity:1; 
stroke-linecap:round; stroke-linejoin:round;">
<path d="M3817050 4466794
L3748598 4485135
" />
<path d="M3718175 4493287
L3748745 4607373
" />
<path d="M3878042 4572728
L3847472 4458642
" />
<path d="M3779167 4599221
L3847619 4580880
" />
<path d="M3847619.282957 4580880.238466 A15748.031496 15748.031496 0.0 1 0 3878042.134366 4572728.422951" />
<path d="M3847472.961137 4458642.714290 A15748.031496 15748.031496 0.0 0 0 3817050.099886 4466794.493072" />
<path d="M3748598.669799 4485135.982006 A15748.031496 15748.031496 0.0 0 0 3718175.818390 4493287.797521" />
<path d="M3748744.991619 4607373.506183 A15748.031496 15748.031496 0.0 0 0 3779167.852870 4599221.727400" />
<path d="M6038188 4492519
L6038188 4374409
" />
<path d="M6006692 4374409
L5935826 4374409
" />
<path d="M5904330 4374409
L5904330 4492519
" />
<path d="M5935826 4492519
L6006692 4492519
" />
<path d="M6038188.976378 4374409.448819 A15748.031496 15748.031496 0.0 0 0 6006692.913386 4374409.448819" />
<path d="M6006692.913386 4492519.685039 A15748.031496 15748.031496 0.0 0 0 6038188.976378 4492519.685039" />
<path d="M5935826.771654 4374409.448819 A15748.031496 15748.031496 0.0 0 0 5904330.708661 4374409.448819" />
<path d="M5904330.708661 4492519.685039 A15748.031496 15748.031496 0.0 0 0 5935826.771654 4492519.685039" />
<path d="M3140246 4768891
L3078874 4804324
" />
<path d="M3226577 4855429
L3167522 4753143
" />
<path d="M3051598 4820072
L3110653 4922358
" />
<path d="M3137929 4906610
L3199301 4871177
" />
<path d="M3078874.571698 4804324.446065 A15748.031496 15748.031496 0.0 0 0 3051598.184207 4820072.483068" />
<path d="M3167522.839415 4753143.343703 A15748.031496 15748.031496 0.0 0 0 3140246.451924 4768891.380706" />
<path d="M3199301.570034 4871177.837399 A15748.031496 15748.031496 0.0 1 0 3226577.957525 4855429.800396" />
<path d="M3110653.302318 4922358.939761 A15748.031496 15748.031496 0.0 1 0 3137929.689808 4906610.902758" />
</g>
<g style="fill:#000000; fill-opacity:0.0; 
stroke:#000000; stroke-width:5905.511811; stroke-opacity:1; 
stroke-linecap:round; stroke-linejoin:round;">
<path d="M6109956 4437287
L5499720 4437287
" />
<path d="M5499720 5086893
L6109956 5086893
" />
<path d="M6149326 4476657
L6149326 5047523
" />
<path d="M5460350 4476657
L5460350 5047523
" />
<path d="M6109956.417323 5086893.937008 A39370.196850 39370.196850 0.0 0 0 6149326.496063 5047523.858268" />
<path d="M6149326.496063 4476657.716535 A39370.196850 39370.196850 0.0 0 0 6109956.417323 4437287.637795" />
<path d="M5499720.196850 4437287.637795 A39370.196850 39370.196850 0.0 0 0 5460350.118110 4476657.716535" />
<path d="M5460350.118110 5047523.858268 A39370.196850 39370.196850 0.0 0 0 5499720.196850 5086893.937008" />
<path d="M7525590 4242125
L6915354 4242125
" />
<path d="M6915354 4891732
L7525590 4891732
" />
<path d="M7564960 4852362
L7564960 4281496
" />
<path d="M6875984 4852362
L6875984 4281496
" />
<path d="M6915354.330709 4242125.984252 A39370.196850 39370.196850 0.0 0 0 6875984.251969 4281496.062992" />
<path d="M7525590.551181 4891732.283464 A39370.196850 39370.196850 0.0 0 0 7564960.629921 4852362.204724" />
<path d="M7564960.629921 4281496.062992 A39370.196850 39370.196850 0.0 0 0 7525590.551181 4242125.984252" />
<path d="M6875984.251969 4852362.204724 A39370.196850 39370.196850 0.0 0 0 6915354.330709 4891732.283464" />
<path d="M6167322 4852362
L6167322 4281496
" />
<path d="M6206692 4891732
L6816929 4891732
" />
<path d="M6856299 4852362
L6856299 4281496
" />
<path d="M6816929 4242125
L6206692 4242125
" />
<path d="M6856299.212598 4281496.062992 A39370.196850 39370.196850 0.0 0 0 6816929.133858 4242125.984252" />
<path d="M6206692.913386 4242125.984252 A39370.196850 39370.196850 0.0 0 0 6167322.834646 4281496.062992" />
<path d="M6816929.133858 4891732.283464 A39370.196850 39370.196850 0.0 0 0 6856299.212598 4852362.204724" />
<path d="M6167322.834646 4852362.204724 A39370.196850 39370.196850 0.0 0 0 6206692.913386 4891732.283464" />
<path d="M6915354 3553149
L7525590 3553149
" />
<path d="M6875984 2942913
L6875984 3513779
" />
<path d="M7525590 2903543
L6915354 2903543
" />
<path d="M7564960 2942913
L7564960 3513779
" />
<path d="M6915354.330709 2903543.307087 A39370.196850 39370.196850 0.0 0 0 6875984.251969 2942913.385827" />
<path d="M6875984.251969 3513779.527559 A39370.196850 39370.196850 0.0 0 0 6915354.330709 3553149.606299" />
<path d="M7564960.629921 2942913.385827 A39370.196850 39370.196850 0.0 0 0 7525590.551181 2903543.307087" />
<path d="M7525590.551181 3553149.606299 A39370.196850 39370.196850 0.0 0 0 7564960.629921 3513779.527559" />
<path d="M5458661 2470472
L5458661 3041338
" />
<path d="M5498031 3080708
L6108267 3080708
" />
<path d="M6147637 2470472
L6147637 3041338
" />
<path d="M6108267 2431102
L5498031 2431102
" />
<path d="M5498031.496063 2431102.362205 A39370.196850 39370.196850 0.0 0 0 5458661.417323 2470472.440945" />
<path d="M5458661.417323 3041338.582677 A39370.196850 39370.196850 0.0 0 0 5498031.496063 3080708.661417" />
<path d="M6108267.716535 3080708.661417 A39370.196850 39370.196850 0.0 0 0 6147637.795275 3041338.582677" />
<path d="M6147637.795275 2470472.440945 A39370.196850 39370.196850 0.0 0 0 6108267.716535 2431102.362205" />
<path d="M5438976 2194881
L5438976 2765748
" />
<path d="M5399606 2155511
L4789370 2155511
" />
<path d="M4750000 2194881
L4750000 2765748
" />
<path d="M4789370 2805118
L5399606 2805118
" />
<path d="M4789370.078740 2155511.811024 A39370.196850 39370.196850 0.0 0 0 4750000.000000 2194881.889764" />
<path d="M5438976.377953 2194881.889764 A39370.196850 39370.196850 0.0 0 0 5399606.299213 2155511.811024" />
<path d="M4750000.000000 2765748.031496 A39370.196850 39370.196850 0.0 0 0 4789370.078740 2805118.110236" />
<path d="M5399606.299213 2805118.110236 A39370.196850 39370.196850 0.0 0 0 5438976.377953 2765748.031496" />
<path d="M6856299 3612204
L6856299 4183070
" />
<path d="M6206692 4222440
L6816929 4222440
" />
<path d="M6167322 3612204
L6167322 4183070
" />
<path d="M6816929 3572834
L6206692 3572834
" />
<path d="M6816929.133858 4222440.944882 A39370.196850 39370.196850 0.0 0 0 6856299.212598 4183070.866142" />
<path d="M6167322.834646 4183070.866142 A39370.196850 39370.196850 0.0 0 0 6206692.913386 4222440.944882" />
<path d="M6856299.212598 3612204.724409 A39370.196850 39370.196850 0.0 0 0 6816929.133858 3572834.645669" />
<path d="M6206692.913386 3572834.645669 A39370.196850 39370.196850 0.0 0 0 6167322.834646 3612204.724409" />
<path d="M5498031 3750000
L6108267 3750000
" />
<path d="M5458661 3139763
L5458661 3710629
" />
<path d="M6108267 3100393
L5498031 3100393
" />
<path d="M6147637 3139763
L6147637 3710629
" />
<path d="M5498031.496063 3100393.700788 A39370.196850 39370.196850 0.0 0 0 5458661.417323 3139763.779528" />
<path d="M6147637.795275 3139763.779528 A39370.196850 39370.196850 0.0 0 0 6108267.716535 3100393.700788" />
<path d="M6108267.716535 3750000.000000 A39370.196850 39370.196850 0.0 0 0 6147637.795275 3710629.921260" />
<path d="M5458661.417323 3710629.921260 A39370.196850 39370.196850 0.0 0 0 5498031.496063 3750000.000000" />
<path d="M5399606 2824803
L4789370 2824803
" />
<path d="M4750000 2864173
L4750000 3435039
" />
<path d="M5438976 2864173
L5438976 3435039
" />
<path d="M4789370 3474409
L5399606 3474409
" />
<path d="M5438976.377953 2864173.228346 A39370.196850 39370.196850 0.0 0 0 5399606.299213 2824803.149606" />
<path d="M5399606.299213 3474409.448819 A39370.196850 39370.196850 0.0 0 0 5438976.377953 3435039.370079" />
<path d="M4789370.078740 2824803.149606 A39370.196850 39370.196850 0.0 0 0 4750000.000000 2864173.228346" />
<path d="M4750000.000000 3435039.370079 A39370.196850 39370.196850 0.0 0 0 4789370.078740 3474409.448819" />
<path d="M6147637 3809055
L6147637 4379921
" />
<path d="M5458661 3809055
L5458661 4379921
" />
<path d="M5498031 4419291
L6108267 4419291
" />
<path d="M6108267 3769685
L5498031 3769685
" />
<path d="M6147637.795275 3809055.118110 A39370.196850 39370.196850 0.0 0 0 6108267.716535 3769685.039370" />
<path d="M6108267.716535 4419291.338583 A39370.196850 39370.196850 0.0 0 0 6147637.795275 4379921.259843" />
<path d="M5458661.417323 4379921.259843 A39370.196850 39370.196850 0.0 0 0 5498031.496063 4419291.338583" />
<path d="M5498031.496063 3769685.039370 A39370.196850 39370.196850 0.0 0 0 5458661.417323 3809055.118110" />
<path d="M4750000 3533464
L4750000 4104330
" />
<path d="M4789370 4143700
L5399606 4143700
" />
<path d="M5399606 3494094
L4789370 3494094
" />
<path d="M5438976 3533464
L5438976 4104330
" />
<path d="M5438976.377953 3533464.566929 A39370.196850 39370.196850 0.0 0 0 5399606.299213 3494094.488189" />
<path d="M4750000.000000 4104330.708661 A39370.196850 39370.196850 0.0 0 0 4789370.078740 4143700.787401" />
<path d="M4789370.078740 3494094.488189 A39370.196850 39370.196850 0.0 0 0 4750000.000000 3533464.566929" />
<path d="M5399606.299213 4143700.787401 A39370.196850 39370.196850 0.0 0 0 5438976.377953 4104330.708661" />
<path d="M4041338 2411417
L4041338 2982283
" />
<path d="M4080708 3021653
L4690944 3021653
" />
<path d="M4730314 2411417
L4730314 2982283
" />
<path d="M4690944 2372047
L4080708 2372047
" />
<path d="M4080708.661417 2372047.244095 A39370.196850 39370.196850 0.0 0 0 4041338.582677 2411417.322835" />
<path d="M4730314.960630 2411417.322835 A39370.196850 39370.196850 0.0 0 0 4690944.881890 2372047.244095" />
<path d="M4041338.582677 2982283.464567 A39370.196850 39370.196850 0.0 0 0 4080708.661417 3021653.543307" />
<path d="M4690944.881890 3021653.543307 A39370.196850 39370.196850 0.0 0 0 4730314.960630 2982283.464567" />
<path d="M4021653 2509842
L4021653 3080708
" />
<path d="M3332677 2509842
L3332677 3080708
" />
<path d="M3982283 2470472
L3372047 2470472
" />
<path d="M3372047 3120078
L3982283 3120078
" />
<path d="M3372047.244094 2470472.440945 A39370.196850 39370.196850 0.0 0 0 3332677.165355 2509842.519685" />
<path d="M4021653.543307 2509842.519685 A39370.196850 39370.196850 0.0 0 0 3982283.464567 2470472.440945" />
<path d="M3332677.165355 3080708.661417 A39370.196850 39370.196850 0.0 0 0 3372047.244094 3120078.740157" />
<path d="M3982283.464567 3120078.740157 A39370.196850 39370.196850 0.0 0 0 4021653.543307 3080708.661417" />
<path d="M4041338 3080708
L4041338 3651574
" />
<path d="M4730314 3080708
L4730314 3651574
" />
<path d="M4080708 3690944
L4690944 3690944
" />
<path d="M4690944 3041338
L4080708 3041338
" />
<path d="M4690944.881890 3690944.881890 A39370.196850 39370.196850 0.0 0 0 4730314.960630 3651574.803150" />
<path d="M4041338.582677 3651574.803150 A39370.196850 39370.196850 0.0 0 0 4080708.661417 3690944.881890" />
<path d="M4730314.960630 3080708.661417 A39370.196850 39370.196850 0.0 0 0 4690944.881890 3041338.582677" />
<path d="M4080708.661417 3041338.582677 A39370.196850 39370.196850 0.0 0 0 4041338.582677 3080708.661417" />
<path d="M3982283 3139763
L3372047 3139763
" />
<path d="M3372047 3789370
L3982283 3789370
" />
<path d="M4021653 3179133
L4021653 3750000
" />
<path d="M3332677 3179133
L3332677 3750000
" />
<path d="M3982283.464567 3789370.078740 A39370.196850 39370.196850 0.0 0 0 4021653.543307 3750000.000000" />
<path d="M3332677.165355 3750000.000000 A39370.196850 39370.196850 0.0 0 0 3372047.244094 3789370.078740" />
<path d="M3372047.244094 3139763.779528 A39370.196850 39370.196850 0.0 0 0 3332677.165355 3179133.858268" />
<path d="M4021653.543307 3179133.858268 A39370.196850 39370.196850 0.0 0 0 3982283.464567 3139763.779528" />
<path d="M4690944 3710629
L4080708 3710629
" />
<path d="M4041338 3750000
L4041338 4320866
" />
<path d="M4080708 4360236
L4690944 4360236
" />
<path d="M4730314 3750000
L4730314 4320866
" />
<path d="M4080708.661417 3710629.921260 A39370.196850 39370.196850 0.0 0 0 4041338.582677 3750000.000000" />
<path d="M4730314.960630 3750000.000000 A39370.196850 39370.196850 0.0 0 0 4690944.881890 3710629.921260" />
<path d="M4690944.881890 4360236.220472 A39370.196850 39370.196850 0.0 0 0 4730314.960630 4320866.141732" />
<path d="M4041338.582677 4320866.141732 A39370.196850 39370.196850 0.0 0 0 4080708.661417 4360236.220472" />
<path d="M3332677 3848425
L3332677 4419291
" />
<path d="M3982283 3809055
L3372047 3809055
" />
<path d="M4021653 3848425
L4021653 4419291
" />
<path d="M3372047 4458661
L3982283 4458661
" />
<path d="M4021653.543307 3848425.196850 A39370.196850 39370.196850 0.0 0 0 3982283.464567 3809055.118110" />
<path d="M3332677.165355 4419291.338583 A39370.196850 39370.196850 0.0 0 0 3372047.244094 4458661.417323" />
<path d="M3372047.244094 3809055.118110 A39370.196850 39370.196850 0.0 0 0 3332677.165355 3848425.196850" />
<path d="M3982283.464567 4458661.417323 A39370.196850 39370.196850 0.0 0 0 4021653.543307 4419291.338583" />
<path d="M5142012 4991846
L5142012 4420980
" />
<path d="M4453035 4991846
L4453035 4420980
" />
<path d="M4492405 5031216
L5102642 5031216
" />
<path d="M5102642 4381610
L4492405 4381610
" />
<path d="M4453035.708662 4991846.220472 A39370.196850 39370.196850 0.0 0 0 4492405.787402 5031216.299212" />
<path d="M5102642.007874 5031216.299212 A39370.196850 39370.196850 0.0 0 0 5142012.086614 4991846.220472" />
<path d="M4492405.787402 4381610.000000 A39370.196850 39370.196850 0.0 0 0 4453035.708662 4420980.078740" />
<path d="M5142012.086614 4420980.078740 A39370.196850 39370.196850 0.0 0 0 5102642.007874 4381610.000000" />
<path d="M6167322 2942913
L6167322 3513779
" />
<path d="M6816929 2903543
L6206692 2903543
" />
<path d="M6206692 3553149
L6816929 3553149
" />
<path d="M6856299 2942913
L6856299 3513779
" />
<path d="M6856299.212598 2942913.385827 A39370.196850 39370.196850 0.0 0 0 6816929.133858 2903543.307087" />
<path d="M6206692.913386 2903543.307087 A39370.196850 39370.196850 0.0 0 0 6167322.834646 2942913.385827" />
<path d="M6816929.133858 3553149.606299 A39370.196850 39370.196850 0.0 0 0 6856299.212598 3513779.527559" />
<path d="M6167322.834646 3513779.527559 A39370.196850 39370.196850 0.0 0 0 6206692.913386 3553149.606299" />
<path d="M2862952 5045127
L3148385 5539511
" />
<path d="M3405843 4686228
L2877363 4991346
" />
<path d="M3202166 5553922
L3730646 5248804
" />
<path d="M3459623 4700639
L3745056 5195023
" />
<path d="M3148385.871267 5539511.965545 A39370.078740 39370.078740 0.0 0 0 3202166.350741 5553922.393812" />
<path d="M2877363.228668 4991346.850951 A39370.118110 39370.118110 0.0 0 0 2862952.778785 5045127.411096" />
<path d="M3730646.456371 5248804.330152 A39370.118110 39370.118110 0.0 0 0 3745056.906254 5195023.770007" />
<path d="M3459623.813773 4700639.215557 A39370.078740 39370.078740 0.0 0 0 3405843.334298 4686228.787290" />
<path d="M3125596 4118709
L3411029 4613093
" />
<path d="M2528925 4463197
L2814358 4957581
" />
<path d="M2868138 4971992
L3396618 4666874
" />
<path d="M3071815 4104298
L2543335 4409416
" />
<path d="M3125596.246806 4118709.062645 A39370.196850 39370.196850 0.0 0 0 3071815.701071 4104298.608901" />
<path d="M2814358.280753 4957581.842867 A39370.196850 39370.196850 0.0 0 0 2868138.826488 4971992.296611" />
<path d="M3396618.867789 4666874.189719 A39370.196850 39370.196850 0.0 0 0 3411029.314328 4613093.670875" />
<path d="M2543335.659770 4409416.715793 A39370.196850 39370.196850 0.0 0 0 2528925.213231 4463197.234637" />
<path d="M2645629 6043502
L2241966 5639838
" />
<path d="M3132809 5556322
L2729146 5152659
" />
<path d="M2701307 6043502
L3132809 5612000
" />
<path d="M2673468 5152659
L2241966 5584161
" />
<path d="M2729146.141271 5152659.055579 A39370.118110 39370.118110 0.0 0 0 2673468.445343 5152659.035894" />
<path d="M2645629.606760 6043502.204264 A39370.118110 39370.118110 0.0 0 0 2701307.302689 6043502.223949" />
<path d="M2241966.307827 5584161.229087 A39370.078740 39370.078740 0.0 0 0 2241966.327512 5639838.869338" />
<path d="M3132809.440204 5612000.030755 A39370.078740 39370.078740 0.0 0 0 3132809.420519 5556322.390504" />
</g>
<g style="fill:#000000; fill-opacity:0.0; 
stroke:#000000; stroke-width:4724.409449; stroke-opacity:1; 
stroke-linecap:round; stroke-linejoin:round;">
<path d="M4576043 4311650
L4576043 4429760
" />
<path d="M4607539 4429760
L4678405 4429760
" />
<path d="M4678405 4311650
L4607539 4311650
" />
<path d="M4709902 4429760
L4709902 4311650
" />
<path d="M4607539.842520 4311650.472441 A15748.031496 15748.031496 0.0 0 0 4576043.779528 4311650.472441" />
<path d="M4678405.984252 4429760.708661 A15748.031496 15748.031496 0.0 0 0 4709902.047244 4429760.708661" />
<path d="M4576043.779528 4429760.708661 A15748.031496 15748.031496 0.0 0 0 4607539.842520 4429760.708661" />
<path d="M4709902.047244 4311650.472441 A15748.031496 15748.031496 0.0 0 0 4678405.984252 4311650.472441" />
<path d="M2837649 4170998
L2896704 4273284
" />
<path d="M2926297 4119817
L2864926 4155250
" />
<path d="M2923981 4257536
L2985353 4222103
" />
<path d="M3012629 4206355
L2953574 4104069
" />
<path d="M2985353.026727 4222103.782281 A15748.031496 15748.031496 0.0 1 0 3012629.414218 4206355.745278" />
<path d="M2953574.296108 4104069.288585 A15748.031496 15748.031496 0.0 0 0 2926297.908617 4119817.325588" />
<path d="M2864926.028391 4155250.390947 A15748.031496 15748.031496 0.0 0 0 2837649.640900 4170998.427950" />
<path d="M2896704.759010 4273284.884643 A15748.031496 15748.031496 0.0 1 0 2923981.146501 4257536.847640" />
</g>
<g style="fill:#000000; fill-opacity:0.0; 
stroke:#000000; stroke-width:5905.511811; stroke-opacity:1; 
stroke-linecap:round; stroke-linejoin:round;">
<path d="M7525590 3572834
L6915354 3572834
" />
<path d="M6915354 4222440
L7525590 4222440
" />
<path d="M7564960 3612204
L7564960 4183070
" />
<path d="M6875984 3612204
L6875984 4183070
" />
<path d="M6915354.330709 3572834.645669 A39370.196850 39370.196850 0.0 0 0 6875984.251969 3612204.724409" />
<path d="M6875984.251969 4183070.866142 A39370.196850 39370.196850 0.0 0 0 6915354.330709 4222440.944882" />
<path d="M7564960.629921 3612204.724409 A39370.196850 39370.196850 0.0 0 0 7525590.551181 3572834.645669" />
<path d="M7525590.551181 4222440.944882 A39370.196850 39370.196850 0.0 0 0 7564960.629921 4183070.866142" />
<path d="M6206692 5757874
L6816929 5757874
" />
<path d="M6167322 5718503
L6167322 5147637
" />
<path d="M6816929 5108267
L6206692 5108267
" />
<path d="M6856299 5718503
L6856299 5147637
" />
<path d="M6206692.913386 5108267.716536 A39370.196850 39370.196850 0.0 0 0 6167322.834646 5147637.795276" />
<path d="M6856299.212598 5147637.795276 A39370.196850 39370.196850 0.0 0 0 6816929.133858 5108267.716536" />
<path d="M6167322.834646 5718503.937008 A39370.196850 39370.196850 0.0 0 0 6206692.913386 5757874.015748" />
<path d="M6816929.133858 5757874.015748 A39370.196850 39370.196850 0.0 0 0 6856299.212598 5718503.937008" />
<path d="M4789370 5757874
L5399606 5757874
" />
<path d="M5438976 5718503
L5438976 5147637
" />
<path d="M4750000 5718503
L4750000 5147637
" />
<path d="M5399606 5108267
L4789370 5108267
" />
<path d="M4789370.078740 5108267.716536 A39370.196850 39370.196850 0.0 0 0 4750000.000000 5147637.795276" />
<path d="M4750000.000000 5718503.937008 A39370.196850 39370.196850 0.0 0 0 4789370.078740 5757874.015748" />
<path d="M5438976.377953 5147637.795276 A39370.196850 39370.196850 0.0 0 0 5399606.299213 5108267.716536" />
<path d="M5399606.299213 5757874.015748 A39370.196850 39370.196850 0.0 0 0 5438976.377953 5718503.937008" />
<path d="M3768290 5183239
L3620539 4631825
" />
<path d="M4237821 4425666
L3648378 4583607
" />
<path d="M3816509 5211078
L4405952 5053138
" />
<path d="M4433790 5004919
L4286039 4453505
" />
<path d="M3768290.801885 5183239.956749 A39370.118110 39370.118110 0.0 0 0 3816509.095882 5211078.824099" />
<path d="M4286039.828036 4453505.397582 A39370.118110 39370.118110 0.0 0 0 4237821.534039 4425666.530232" />
<path d="M3648378.626275 4583607.338614 A39370.078740 39370.078740 0.0 0 0 3620539.796607 4631825.581755" />
<path d="M4405952.003646 5053138.015717 A39370.078740 39370.078740 0.0 0 0 4433790.833314 5004919.772576" />
<path d="M7564960 5521653
L7564960 4950787
" />
<path d="M6875984 5521653
L6875984 4950787
" />
<path d="M7525590 4911417
L6915354 4911417
" />
<path d="M6915354 5561023
L7525590 5561023
" />
<path d="M6915354.330709 4911417.322835 A39370.196850 39370.196850 0.0 0 0 6875984.251969 4950787.401575" />
<path d="M7564960.629921 4950787.401575 A39370.196850 39370.196850 0.0 0 0 7525590.551181 4911417.322835" />
<path d="M7525590.551181 5561023.622047 A39370.196850 39370.196850 0.0 0 0 7564960.629921 5521653.543307" />
<path d="M6875984.251969 5521653.543307 A39370.196850 39370.196850 0.0 0 0 6915354.330709 5561023.622047" />
<path d="M6109956 5106578
L5499720 5106578
" />
<path d="M5460350 5145949
L5460350 5716815
" />
<path d="M6149326 5145949
L6149326 5716815
" />
<path d="M5499720 5756185
L6109956 5756185
" />
<path d="M5499720.196850 5106578.976378 A39370.196850 39370.196850 0.0 0 0 5460350.118110 5145949.055118" />
<path d="M5460350.118110 5716815.196850 A39370.196850 39370.196850 0.0 0 0 5499720.196850 5756185.275590" />
<path d="M6109956.417323 5756185.275590 A39370.196850 39370.196850 0.0 0 0 6149326.496063 5716815.196850" />
<path d="M6149326.496063 5145949.055118 A39370.196850 39370.196850 0.0 0 0 6109956.417323 5106578.976378" />
<g >
</g>
<g >
</g>
<g >
</g>
<g >
</g>
<g >
</g>
<g >
</g>
<g >
</g>
<g >
</g>
<g >
</g>
<g >
</g>
<g >
</g>
<g >
</g>
<g >
</g>
<g >
</g>
<g >
</g>
<g >
</g>
<g >
</g>
<g >
</g>
<g >
</g>
<g >
</g>
<g >
</g>
<g >
</g>
<g >
</g>
<g >
</g>
<g >
</g>
<g >
</g>
<g >
</g>
<g >
</g>
<g >
</g>
<g >
</g>
<g >
</g>
<g >
</g>
<g >
</g>
<g >
</g>
<g >
</g>
<g >
</g>
<g >
</g>
<g >
</g>
<g >
</g>
<g >
</g>
<g >
</g>
<g >
</g>
<g >
</g>
<g >
</g>
<g >
</g>
<g >
</g>
<g >
</g>
<g >
</g>
<g >
</g>
<g >
</g>
<g >
</g>
<g >
</g>
<g >
</g>
<g >
</g>
<g >
</g>
<g >
</g>
<g >
</g>
<g >
</g>
<g >
</g>
<g >
</g>
<g >
</g>
<g >
</g>
<g >
</g>
<g >
</g>
<g >
</g>
<g >
</g>
<g >
</g>
<g >
</g>
<g >
</g>
<g >
</g>
<g >
</g>
<g >
</g>
<g >
</g>
<g >
</g>
<g >
</g>
<g >
</g>
<g >
</g>
<g >
</g>
<g >
</g>
<g >
</g>
<g >
</g>
<g >
</g>
<g >
</g>
<g >
</g>
<g >
</g>
<g >
</g>
<g >
</g>
<g >
</g>
<g >
</g>
<g >
</g>
<g >
</g>
<g >
</g>
</g> 
</svg>
