<?xml version="1.0" standalone="no"?>
 <!DOCTYPE svg PUBLIC "-//W3C//DTD SVG 1.1//EN" 
 "http://www.w3.org/Graphics/SVG/1.1/DTD/svg11.dtd"> 
<svg
  xmlns:svg="http://www.w3.org/2000/svg"
  xmlns="http://www.w3.org/2000/svg"
  xmlns:xlink="http://www.w3.org/1999/xlink"
  version="1.1"
  width="27.940000cm" height="21.590000cm" viewBox="0 0 11000000 8500000">
<title>SVG Picture created as hillside56-User_Eco2.svg date 2022/02/03 14:57:57 </title>
  <desc>Picture generated by PCBNEW </desc>
<g style="fill:#000000; fill-opacity:1.000000;stroke:#000000; stroke-opacity:1.000000;
stroke-linecap:round; stroke-linejoin:round;"
 transform="translate(0 0) scale(1 1)">
</g>
<g style="fill:#000000; fill-opacity:0.0; 
stroke:#000000; stroke-width:0.000000; stroke-opacity:1; 
stroke-linecap:round; stroke-linejoin:round;">
</g>
<g style="fill:#000000; fill-opacity:0.0; 
stroke:#000000; stroke-width:5905.511811; stroke-opacity:1; 
stroke-linecap:round; stroke-linejoin:round;">
<text x="2900000.000000" y="4419685.039370"
textLength="178102.992126" font-size="52493.425197" lengthAdjust="spacingAndGlyphs"
text-anchor="middle" opacity="0">3.0 in</text>
<g class="stroked-text"><desc>3.0 in</desc>
<path d="M2816572 4378440
L2840944 4378440
L2827821 4393438
L2833445 4393438
L2837195 4395313
L2839070 4397187
L2840944 4400937
L2840944 4410311
L2839070 4414060
L2837195 4415935
L2833445 4417810
L2822197 4417810
L2818447 4415935
L2816572 4414060
" />
<path d="M2857817 4414060
L2859692 4415935
L2857817 4417810
L2855942 4415935
L2857817 4414060
L2857817 4417810
" />
<path d="M2884064 4378440
L2887814 4378440
L2891563 4380314
L2893438 4382189
L2895313 4385939
L2897187 4393438
L2897187 4402812
L2895313 4410311
L2893438 4414060
L2891563 4415935
L2887814 4417810
L2884064 4417810
L2880314 4415935
L2878440 4414060
L2876565 4410311
L2874690 4402812
L2874690 4393438
L2876565 4385939
L2878440 4382189
L2880314 4380314
L2884064 4378440
" />
<path d="M2944056 4417810
L2944056 4391563
" />
<path d="M2944056 4378440
L2942182 4380314
L2944056 4382189
L2945931 4380314
L2944056 4378440
L2944056 4382189
" />
<path d="M2962804 4391563
L2962804 4417810
" />
<path d="M2962804 4395313
L2964679 4393438
L2968428 4391563
L2974053 4391563
L2977802 4393438
L2979677 4397187
L2979677 4417810
" />
</g></g>
<g style="fill:#000000; fill-opacity:0.0; 
stroke:#000000; stroke-width:3937.007874; stroke-opacity:1; 
stroke-linecap:round; stroke-linejoin:round;">
<path d="M1400000 4369685
L1400000 4423087
" />
<path d="M4400000 4369685
L4400000 4423087
" />
<path d="M1400000 4400000
L2788310 4400000
" />
<path d="M3011689 4400000
L4400000 4400000
" />
<path d="M1400000 4400000
L1444350 4423087
" />
<path d="M1400000 4400000
L1444350 4376912
" />
<path d="M4400000 4400000
L4355649 4376912
" />
<path d="M4400000 4400000
L4355649 4423087
" />
</g>
<g style="fill:#000000; fill-opacity:0.0; 
stroke:#000000; stroke-width:5905.511811; stroke-opacity:1; 
stroke-linecap:round; stroke-linejoin:round;">
<text x="2775590.551181" y="4311023.622047"
textLength="273893.897638" font-size="52493.425197" lengthAdjust="spacingAndGlyphs"
text-anchor="middle" opacity="0">70.0 mm</text>
<g class="stroked-text"><desc>70.0 mm</desc>
<path d="M2648106 4269778
L2674353 4269778
L2657480 4309148
" />
<path d="M2696850 4269778
L2700599 4269778
L2704349 4271653
L2706224 4273528
L2708098 4277277
L2709973 4284776
L2709973 4294150
L2708098 4301649
L2706224 4305399
L2704349 4307274
L2700599 4309148
L2696850 4309148
L2693100 4307274
L2691226 4305399
L2689351 4301649
L2687476 4294150
L2687476 4284776
L2689351 4277277
L2691226 4273528
L2693100 4271653
L2696850 4269778
" />
<path d="M2726846 4305399
L2728721 4307274
L2726846 4309148
L2724971 4307274
L2726846 4305399
L2726846 4309148
" />
<path d="M2753093 4269778
L2756842 4269778
L2760592 4271653
L2762467 4273528
L2764341 4277277
L2766216 4284776
L2766216 4294150
L2764341 4301649
L2762467 4305399
L2760592 4307274
L2756842 4309148
L2753093 4309148
L2749343 4307274
L2747469 4305399
L2745594 4301649
L2743719 4294150
L2743719 4284776
L2745594 4277277
L2747469 4273528
L2749343 4271653
L2753093 4269778
" />
<path d="M2813085 4309148
L2813085 4282902
" />
<path d="M2813085 4286651
L2814960 4284776
L2818710 4282902
L2824334 4282902
L2828083 4284776
L2829958 4288526
L2829958 4309148
" />
<path d="M2829958 4288526
L2831833 4284776
L2835583 4282902
L2841207 4282902
L2844956 4284776
L2846831 4288526
L2846831 4309148
" />
<path d="M2865579 4309148
L2865579 4282902
" />
<path d="M2865579 4286651
L2867454 4284776
L2871203 4282902
L2876827 4282902
L2880577 4284776
L2882452 4288526
L2882452 4309148
" />
<path d="M2882452 4288526
L2884326 4284776
L2888076 4282902
L2893700 4282902
L2897450 4284776
L2899325 4288526
L2899325 4309148
" />
</g></g>
<g style="fill:#000000; fill-opacity:0.0; 
stroke:#000000; stroke-width:3937.007874; stroke-opacity:1; 
stroke-linecap:round; stroke-linejoin:round;">
<path d="M1397637 4330708
L1397637 4268251
" />
<path d="M4153543 4330708
L4153543 4268251
" />
<path d="M1397637 4291338
L2619844 4291338
" />
<path d="M2931336 4291338
L4153543 4291338
" />
<path d="M1397637 4291338
L1441988 4314426
" />
<path d="M1397637 4291338
L1441988 4268251
" />
<path d="M4153543 4291338
L4109192 4268251
" />
<path d="M4153543 4291338
L4109192 4314426
" />
</g>
<g style="fill:#000000; fill-opacity:0.0; 
stroke:#000000; stroke-width:1968.503937; stroke-opacity:1; 
stroke-linecap:round; stroke-linejoin:round;">
<circle cx="3149606.299213" cy="1574803.149606" r="65616.771654" /> 
<path d="M3051181 1574803
L3248031 1574803
" />
<path d="M3149606 1476377
L3149606 1673228
" />
<path d="M3454724 570866
L2874409 570866
" />
<path d="M5993168 4115506
L5627765 4481022
" />
<path d="M649606 1407480
L649606 3907480
" />
<path d="M5777559.055118 964566.929134 A78740.118110 78740.118110 0.0 0 0 5698818.897638 885826.771654" />
<path d="M6065957 3869714
L6065957 3148306
" />
<path d="M1397637.795276 2421259.842520 A19685.039370 19685.039370 0.0 0 0 1358267.716535 2421259.842520" />
<path d="M1397637 2421259
L1397637 2893700
" />
<path d="M5944881 2579133
L5944881 1409272
" />
<path d="M1358267 2224409
L1358267 1476377
" />
<path d="M5179133.858268,885826.771654 C4710629.921260,885826.771654 4982283.464567,570866.141732 3454724.409449,570866.141732" />
<path d="M2874409.448819,570866.141732 C1909448.818898,570866.141732 1807086.614173,1307086.614173 1055118.110236,1299212.598425" />
<path d="M1397637 1476377
L1397637 2224409
" />
<path d="M5993168.267717,4115506.417323 C6059842.519685,4051574.803150 6065748.031496,3942519.685039 6065957.716535,3869714.448819" />
<path d="M1055118 1299212
L757874 1299212
" />
<path d="M5364763.779528,4392913.385827 C5094881.889764,4142125.984252 4687007.874016,3728346.456693 4226377.952756,3724409.448819" />
<path d="M5944881.889764,1409272.992126 C5944881.889764,1261811.023622 5777559.055118,1171259.842520 5777559.055118,1029921.259843" />
<path d="M1397637.795276 1476377.952756 A19685.039370 19685.039370 0.0 0 0 1358267.716535 1476377.952756" />
<path d="M1053149 4015748
L757874 4015748
" />
<path d="M1358267 3966535
L1358267 3090551
" />
<path d="M5777559 964566
L5777559 1029921
" />
<path d="M4226377.952756,3724409.448819 C3675196.850394,3724409.448819 3651574.803150,4212598.425197 3435039.370079,4212598.425197" />
<path d="M649606.299213 3907480.314961 A108267.283465 108267.283465 0.0 0 0 757874.015748 4015748.031495" />
<path d="M6065957.716535,3148306.456693 C6065957.716535,2854330.708661 5944881.889764,2854330.708661 5944881.889764,2579133.858268" />
<path d="M1053149.606299,4015748.031496 C1169291.338583,4015748.031496 1200787.401575,4212598.425197 1377952.755906,4212598.425197" />
<path d="M1358267.716535 3966535.433071 A19685.039370 19685.039370 0.0 0 0 1397637.795276 3966535.433071" />
<path d="M1358267 2893700
L1358267 2421259
" />
<path d="M1397637 3090551
L1397637 3966535
" />
<path d="M2191929 4212598
L1377952 4212598
" />
<path d="M2701771 4212598
L2191929 4212598
" />
<path d="M1397637.795276 3090551.181102 A19685.039370 19685.039370 0.0 0 0 1358267.716535 3090551.181102" />
<path d="M5698818 885826
L5179133 885826
" />
<path d="M1358267.716535 2224409.448819 A19685.039370 19685.039370 0.0 0 0 1397637.795276 2224409.448819" />
<path d="M3435039 4212598
L2701771 4212598
" />
<path d="M1358267.716535 2893700.787402 A19685.039370 19685.039370 0.0 0 0 1397637.795276 2893700.787402" />
<path d="M5627765.275591,4481022.992126 C5559842.519685,4546456.692913 5420866.141732,4449606.299213 5364763.779528,4392913.385827" />
<path d="M757874.015748 1299212.598426 A108267.283465 108267.283465 0.0 0 0 649606.299213 1407480.314961" />
</g>
<g style="fill:#000000; fill-opacity:0.0; 
stroke:#000000; stroke-width:5905.511811; stroke-opacity:1; 
stroke-linecap:round; stroke-linejoin:round;">
<path d="M2744374.291339 3512090.787401 A39370.196850 39370.196850 0.0 0 0 2783744.370079 3472720.708661" />
<path d="M2783744.370079 2901854.566929 A39370.196850 39370.196850 0.0 0 0 2744374.291339 2862484.488189" />
<path d="M2134138.070866 2862484.488189 A39370.196850 39370.196850 0.0 0 0 2094767.992126 2901854.566929" />
<path d="M2094767.992126 3472720.708661 A39370.196850 39370.196850 0.0 0 0 2134138.070866 3512090.787401" />
<path d="M2783744 2901854
L2783744 3472720
" />
<path d="M2094767 2901854
L2094767 3472720
" />
<path d="M2744374 3512090
L2134138 3512090
" />
<path d="M2134138 2862484
L2744374 2862484
" />
<path d="M1328740.157480 3316929.133858 A39370.196850 39370.196850 0.0 0 0 1368110.236220 3277559.055118" />
<path d="M718503.937008 2667322.834646 A39370.196850 39370.196850 0.0 0 0 679133.858268 2706692.913386" />
<path d="M679133.858268 3277559.055118 A39370.196850 39370.196850 0.0 0 0 718503.937008 3316929.133858" />
<path d="M1368110.236220 2706692.913386 A39370.196850 39370.196850 0.0 0 0 1328740.157480 2667322.834646" />
<path d="M1368110 3277559
L1368110 2706692
" />
<path d="M679133 3277559
L679133 2706692
" />
<path d="M1328740 3316929
L718503 3316929
" />
<path d="M718503 2667322
L1328740 2667322
" />
<path d="M2037401.574803 3316929.133858 A39370.196850 39370.196850 0.0 0 0 2076771.653543 3277559.055118" />
<path d="M1387795.275591 3277559.055118 A39370.196850 39370.196850 0.0 0 0 1427165.354331 3316929.133858" />
<path d="M2076771.653543 2706692.913386 A39370.196850 39370.196850 0.0 0 0 2037401.574803 2667322.834646" />
<path d="M1427165.354331 2667322.834646 A39370.196850 39370.196850 0.0 0 0 1387795.275591 2706692.913386" />
<path d="M1427165 2667322
L2037401 2667322
" />
<path d="M1387795 3277559
L1387795 2706692
" />
<path d="M2037401 3316929
L1427165 3316929
" />
<path d="M2076771 3277559
L2076771 2706692
" />
<path d="M679133.858268 1938976.377953 A39370.196850 39370.196850 0.0 0 0 718503.937008 1978346.456693" />
<path d="M718503.937008 1328740.157480 A39370.196850 39370.196850 0.0 0 0 679133.858268 1368110.236220" />
<path d="M1328740.157480 1978346.456693 A39370.196850 39370.196850 0.0 0 0 1368110.236220 1938976.377953" />
<path d="M1368110.236220 1368110.236220 A39370.196850 39370.196850 0.0 0 0 1328740.157480 1328740.157480" />
<path d="M679133 1368110
L679133 1938976
" />
<path d="M718503 1328740
L1328740 1328740
" />
<path d="M1368110 1368110
L1368110 1938976
" />
<path d="M1328740 1978346
L718503 1978346
" />
<path d="M2135826.771654 856299.212599 A39370.196850 39370.196850 0.0 0 0 2096456.692914 895669.291339" />
<path d="M2096456.692914 1466535.433071 A39370.196850 39370.196850 0.0 0 0 2135826.771654 1505905.511811" />
<path d="M2746062.992126 1505905.511811 A39370.196850 39370.196850 0.0 0 0 2785433.070866 1466535.433071" />
<path d="M2785433.070866 895669.291339 A39370.196850 39370.196850 0.0 0 0 2746062.992126 856299.212599" />
<path d="M2135826 856299
L2746062 856299
" />
<path d="M2096456 895669
L2096456 1466535
" />
<path d="M2746062 1505905
L2135826 1505905
" />
<path d="M2785433 895669
L2785433 1466535
" />
<path d="M2805118.110236 1190944.881890 A39370.196850 39370.196850 0.0 0 0 2844488.188976 1230314.960630" />
<path d="M3454724.409449 1230314.960630 A39370.196850 39370.196850 0.0 0 0 3494094.488189 1190944.881890" />
<path d="M2844488.188976 580708.661417 A39370.196850 39370.196850 0.0 0 0 2805118.110236 620078.740157" />
<path d="M3494094.488189 620078.740157 A39370.196850 39370.196850 0.0 0 0 3454724.409449 580708.661417" />
<path d="M3454724 1230314
L2844488 1230314
" />
<path d="M3494094 620078
L3494094 1190944
" />
<path d="M2844488 580708
L3454724 580708
" />
<path d="M2805118 620078
L2805118 1190944
" />
<path d="M2076771.653543 2037401.574803 A39370.196850 39370.196850 0.0 0 0 2037401.574803 1998031.496063" />
<path d="M1427165.354331 1998031.496063 A39370.196850 39370.196850 0.0 0 0 1387795.275591 2037401.574803" />
<path d="M2037401.574803 2647637.795275 A39370.196850 39370.196850 0.0 0 0 2076771.653543 2608267.716535" />
<path d="M1387795.275591 2608267.716535 A39370.196850 39370.196850 0.0 0 0 1427165.354331 2647637.795275" />
<path d="M1427165 1998031
L2037401 1998031
" />
<path d="M2076771 2037401
L2076771 2608267
" />
<path d="M2037401 2647637
L1427165 2647637
" />
<path d="M1387795 2037401
L1387795 2608267
" />
<path d="M2746062.992126 2175196.850394 A39370.196850 39370.196850 0.0 0 0 2785433.070866 2135826.771654" />
<path d="M2096456.692914 2135826.771654 A39370.196850 39370.196850 0.0 0 0 2135826.771654 2175196.850394" />
<path d="M2135826.771654 1525590.551181 A39370.196850 39370.196850 0.0 0 0 2096456.692914 1564960.629921" />
<path d="M2785433.070866 1564960.629921 A39370.196850 39370.196850 0.0 0 0 2746062.992126 1525590.551181" />
<path d="M2096456 1564960
L2096456 2135826
" />
<path d="M2135826 1525590
L2746062 1525590
" />
<path d="M2785433 1564960
L2785433 2135826
" />
<path d="M2746062 2175196
L2135826 2175196
" />
<path d="M3454724.409449 1899606.299212 A39370.196850 39370.196850 0.0 0 0 3494094.488189 1860236.220472" />
<path d="M3494094.488189 1289370.078740 A39370.196850 39370.196850 0.0 0 0 3454724.409449 1250000.000000" />
<path d="M2805118.110236 1860236.220472 A39370.196850 39370.196850 0.0 0 0 2844488.188976 1899606.299212" />
<path d="M2844488.188976 1250000.000000 A39370.196850 39370.196850 0.0 0 0 2805118.110236 1289370.078740" />
<path d="M3454724 1899606
L2844488 1899606
" />
<path d="M2805118 1289370
L2805118 1860236
" />
<path d="M3494094 1289370
L3494094 1860236
" />
<path d="M2844488 1250000
L3454724 1250000
" />
<path d="M2785433.070866 2234251.968504 A39370.196850 39370.196850 0.0 0 0 2746062.992126 2194881.889764" />
<path d="M2746062.992126 2844488.188976 A39370.196850 39370.196850 0.0 0 0 2785433.070866 2805118.110236" />
<path d="M2096456.692914 2805118.110236 A39370.196850 39370.196850 0.0 0 0 2135826.771654 2844488.188976" />
<path d="M2135826.771654 2194881.889764 A39370.196850 39370.196850 0.0 0 0 2096456.692914 2234251.968504" />
<path d="M2135826 2194881
L2746062 2194881
" />
<path d="M2746062 2844488
L2135826 2844488
" />
<path d="M2785433 2234251
L2785433 2805118
" />
<path d="M2096456 2234251
L2096456 2805118
" />
<path d="M2805118.110236 2529527.559055 A39370.196850 39370.196850 0.0 0 0 2844488.188976 2568897.637795" />
<path d="M3494094.488189 1958661.417323 A39370.196850 39370.196850 0.0 0 0 3454724.409449 1919291.338583" />
<path d="M3454724.409449 2568897.637795 A39370.196850 39370.196850 0.0 0 0 3494094.488189 2529527.559055" />
<path d="M2844488.188976 1919291.338583 A39370.196850 39370.196850 0.0 0 0 2805118.110236 1958661.417323" />
<path d="M2805118 1958661
L2805118 2529527
" />
<path d="M2844488 1919291
L3454724 1919291
" />
<path d="M3454724 2568897
L2844488 2568897
" />
<path d="M3494094 1958661
L3494094 2529527
" />
<path d="M3513779.527559 1407480.314961 A39370.196850 39370.196850 0.0 0 0 3553149.606299 1446850.393701" />
<path d="M4163385.826772 1446850.393701 A39370.196850 39370.196850 0.0 0 0 4202755.905512 1407480.314961" />
<path d="M3553149.606299 797244.094488 A39370.196850 39370.196850 0.0 0 0 3513779.527559 836614.173228" />
<path d="M4202755.905512 836614.173228 A39370.196850 39370.196850 0.0 0 0 4163385.826772 797244.094488" />
<path d="M3553149 797244
L4163385 797244
" />
<path d="M3513779 836614
L3513779 1407480
" />
<path d="M4163385 1446850
L3553149 1446850
" />
<path d="M4202755 836614
L4202755 1407480
" />
<path d="M4222440.944882 1505905.511811 A39370.196850 39370.196850 0.0 0 0 4261811.023622 1545275.590551" />
<path d="M4872047.244094 1545275.590551 A39370.196850 39370.196850 0.0 0 0 4911417.322834 1505905.511811" />
<path d="M4261811.023622 895669.291339 A39370.196850 39370.196850 0.0 0 0 4222440.944882 935039.370079" />
<path d="M4911417.322834 935039.370079 A39370.196850 39370.196850 0.0 0 0 4872047.244094 895669.291339" />
<path d="M4872047 1545275
L4261811 1545275
" />
<path d="M4261811 895669
L4872047 895669
" />
<path d="M4911417 935039
L4911417 1505905
" />
<path d="M4222440 935039
L4222440 1505905
" />
<path d="M4202755.905512 1505905.511811 A39370.196850 39370.196850 0.0 0 0 4163385.826772 1466535.433071" />
<path d="M3553149.606299 1466535.433071 A39370.196850 39370.196850 0.0 0 0 3513779.527559 1505905.511811" />
<path d="M4163385.826772 2116141.732283 A39370.196850 39370.196850 0.0 0 0 4202755.905512 2076771.653543" />
<path d="M3513779.527559 2076771.653543 A39370.196850 39370.196850 0.0 0 0 3553149.606299 2116141.732283" />
<path d="M3553149 1466535
L4163385 1466535
" />
<path d="M4163385 2116141
L3553149 2116141
" />
<path d="M3513779 1505905
L3513779 2076771
" />
<path d="M4202755 1505905
L4202755 2076771
" />
<path d="M4261811.023622 1564960.629921 A39370.196850 39370.196850 0.0 0 0 4222440.944882 1604330.708661" />
<path d="M4911417.322834 1604330.708661 A39370.196850 39370.196850 0.0 0 0 4872047.244094 1564960.629921" />
<path d="M4872047.244094 2214566.929134 A39370.196850 39370.196850 0.0 0 0 4911417.322834 2175196.850394" />
<path d="M4222440.944882 2175196.850394 A39370.196850 39370.196850 0.0 0 0 4261811.023622 2214566.929134" />
<path d="M4911417 1604330
L4911417 2175196
" />
<path d="M4222440 1604330
L4222440 2175196
" />
<path d="M4872047 2214566
L4261811 2214566
" />
<path d="M4261811 1564960
L4872047 1564960
" />
<path d="M4163385.826772 2785433.070866 A39370.196850 39370.196850 0.0 0 0 4202755.905512 2746062.992126" />
<path d="M3513779.527559 2746062.992126 A39370.196850 39370.196850 0.0 0 0 3553149.606299 2785433.070866" />
<path d="M3553149.606299 2135826.771654 A39370.196850 39370.196850 0.0 0 0 3513779.527559 2175196.850394" />
<path d="M4202755.905512 2175196.850394 A39370.196850 39370.196850 0.0 0 0 4163385.826772 2135826.771654" />
<path d="M3513779 2175196
L3513779 2746062
" />
<path d="M4163385 2785433
L3553149 2785433
" />
<path d="M4202755 2175196
L4202755 2746062
" />
<path d="M3553149 2135826
L4163385 2135826
" />
<path d="M4222440.944882 2844488.188976 A39370.196850 39370.196850 0.0 0 0 4261811.023622 2883858.267716" />
<path d="M4911417.322834 2273622.047244 A39370.196850 39370.196850 0.0 0 0 4872047.244094 2234251.968504" />
<path d="M4872047.244094 2883858.267716 A39370.196850 39370.196850 0.0 0 0 4911417.322834 2844488.188976" />
<path d="M4261811.023622 2234251.968504 A39370.196850 39370.196850 0.0 0 0 4222440.944882 2273622.047244" />
<path d="M4872047 2883858
L4261811 2883858
" />
<path d="M4222440 2273622
L4222440 2844488
" />
<path d="M4261811 2234251
L4872047 2234251
" />
<path d="M4911417 2273622
L4911417 2844488
" />
<path d="M3141452.480315 2806806.850394 A39370.196850 39370.196850 0.0 0 0 3102082.401575 2846176.929134" />
<path d="M3791058.779527 2846176.929134 A39370.196850 39370.196850 0.0 0 0 3751688.700787 2806806.850394" />
<path d="M3102082.401575 3417043.070866 A39370.196850 39370.196850 0.0 0 0 3141452.480315 3456413.149606" />
<path d="M3751688.700787 3456413.149606 A39370.196850 39370.196850 0.0 0 0 3791058.779527 3417043.070866" />
<path d="M3141452 2806806
L3751688 2806806
" />
<path d="M3751688 3456413
L3141452 3456413
" />
<path d="M3791058 3417043
L3791058 2846176
" />
<path d="M3102082 3417043
L3102082 2846176
" />
<path d="M2037401.574803 1978346.456693 A39370.196850 39370.196850 0.0 0 0 2076771.653543 1938976.377953" />
<path d="M1387795.275591 1938976.377953 A39370.196850 39370.196850 0.0 0 0 1427165.354331 1978346.456693" />
<path d="M2076771.653543 1368110.236220 A39370.196850 39370.196850 0.0 0 0 2037401.574803 1328740.157480" />
<path d="M1427165.354331 1328740.157480 A39370.196850 39370.196850 0.0 0 0 1387795.275591 1368110.236220" />
<path d="M1387795 1368110
L1387795 1938976
" />
<path d="M2037401 1978346
L1427165 1978346
" />
<path d="M1427165 1328740
L2037401 1328740
" />
<path d="M2076771 1368110
L2076771 1938976
" />
<path d="M4838251.153891 3111425.637684 A39370.078740 39370.078740 0.0 0 0 4784470.674416 3125836.065951" />
<path d="M4499037.581934 3620220.620400 A39370.118110 39370.118110 0.0 0 0 4513448.031818 3674001.180545" />
<path d="M5381141.709404 3470324.261489 A39370.118110 39370.118110 0.0 0 0 5366731.259521 3416543.701344" />
<path d="M5041928.137448 3979119.244206 A39370.078740 39370.078740 0.0 0 0 5095708.616922 3964708.815939" />
<path d="M4784470 3125836
L4499037 3620220
" />
<path d="M5041928 3979119
L4513448 3674001
" />
<path d="M4838251 3111425
L5366731 3416543
" />
<path d="M5381141 3470324
L5095708 3964708
" />
<path d="M5715169.274958 2888394.085031 A39370.196850 39370.196850 0.0 0 0 5700758.828418 2834613.566187" />
<path d="M4833065.173861 3038290.521269 A39370.196850 39370.196850 0.0 0 0 4847475.620400 3092071.040113" />
<path d="M5375955.661701 3397189.147005 A39370.196850 39370.196850 0.0 0 0 5429736.207435 3382778.693260" />
<path d="M5172278.787118 2529495.459294 A39370.196850 39370.196850 0.0 0 0 5118498.241383 2543905.913039" />
<path d="M5172278 2529495
L5700758 2834613
" />
<path d="M5375955 3397189
L4847475 3092071
" />
<path d="M5715169 2888394
L5429736 3382778
" />
<path d="M5118498 2543905
L4833065 3038290
" />
<path d="M5111285.067670 3981519.240898 A39370.078740 39370.078740 0.0 0 0 5111285.047985 4037196.881149" />
<path d="M6002128.160677 4065035.719732 A39370.078740 39370.078740 0.0 0 0 6002128.180362 4009358.079481" />
<path d="M5542787.185500 4468699.074342 A39370.118110 39370.118110 0.0 0 0 5598464.881429 4468699.054657" />
<path d="M5570626.042846 3577855.886288 A39370.118110 39370.118110 0.0 0 0 5514948.346918 3577855.905973" />
<path d="M5570626 3577855
L6002128 4009358
" />
<path d="M5542787 4468699
L5111285 4037196
" />
<path d="M5111285 3981519
L5514948 3577855
" />
<path d="M5598464 4468699
L6002128 4065035
" />
<path d="M679133.858268 2608267.716535 A39370.196850 39370.196850 0.0 0 0 718503.937008 2647637.795275" />
<path d="M718503.937008 1998031.496063 A39370.196850 39370.196850 0.0 0 0 679133.858268 2037401.574803" />
<path d="M1328740.157480 2647637.795275 A39370.196850 39370.196850 0.0 0 0 1368110.236220 2608267.716535" />
<path d="M1368110.236220 2037401.574803 A39370.196850 39370.196850 0.0 0 0 1328740.157480 1998031.496063" />
<path d="M1368110 2037401
L1368110 2608267
" />
<path d="M679133 2037401
L679133 2608267
" />
<path d="M1328740 2647637
L718503 2647637
" />
<path d="M718503 1998031
L1328740 1998031
" />
<path d="M1387795.275591 4143700.787402 A39370.196850 39370.196850 0.0 0 0 1427165.354331 4183070.866142" />
<path d="M2037401.574803 4183070.866142 A39370.196850 39370.196850 0.0 0 0 2076771.653543 4143700.787402" />
<path d="M1427165.354331 3533464.566929 A39370.196850 39370.196850 0.0 0 0 1387795.275591 3572834.645669" />
<path d="M2076771.653543 3572834.645669 A39370.196850 39370.196850 0.0 0 0 2037401.574803 3533464.566929" />
<path d="M1387795 4143700
L1387795 3572834
" />
<path d="M1427165 3533464
L2037401 3533464
" />
<path d="M2076771 4143700
L2076771 3572834
" />
<path d="M2037401 4183070
L1427165 4183070
" />
<path d="M2805118.110236 4143700.787402 A39370.196850 39370.196850 0.0 0 0 2844488.188976 4183070.866142" />
<path d="M2844488.188976 3533464.566929 A39370.196850 39370.196850 0.0 0 0 2805118.110236 3572834.645669" />
<path d="M3454724.409449 4183070.866142 A39370.196850 39370.196850 0.0 0 0 3494094.488189 4143700.787402" />
<path d="M3494094.488189 3572834.645669 A39370.196850 39370.196850 0.0 0 0 3454724.409449 3533464.566929" />
<path d="M2844488 3533464
L3454724 3533464
" />
<path d="M3494094 4143700
L3494094 3572834
" />
<path d="M2805118 4143700
L2805118 3572834
" />
<path d="M3454724 4183070
L2844488 4183070
" />
<path d="M3810303.654875 3430116.622969 A39370.078740 39370.078740 0.0 0 0 3838142.484543 3478334.866110" />
<path d="M4623554.691582 3057022.432149 A39370.078740 39370.078740 0.0 0 0 4595715.861914 3008804.189008" />
<path d="M4006272.954150 2850863.380625 A39370.118110 39370.118110 0.0 0 0 3958054.660153 2878702.247975" />
<path d="M4427585.392307 3636275.674493 A39370.118110 39370.118110 0.0 0 0 4475803.686304 3608436.807143" />
<path d="M3810303 3430116
L3958054 2878702
" />
<path d="M4427585 3636275
L3838142 3478334
" />
<path d="M4006272 2850863
L4595715 3008804
" />
<path d="M4475803 3608436
L4623554 3057022
" />
<path d="M1328740.157480 3986220.472441 A39370.196850 39370.196850 0.0 0 0 1368110.236220 3946850.393701" />
<path d="M679133.858268 3946850.393701 A39370.196850 39370.196850 0.0 0 0 718503.937008 3986220.472441" />
<path d="M718503.937008 3336614.173229 A39370.196850 39370.196850 0.0 0 0 679133.858268 3375984.251969" />
<path d="M1368110.236220 3375984.251969 A39370.196850 39370.196850 0.0 0 0 1328740.157480 3336614.173229" />
<path d="M1328740 3986220
L718503 3986220
" />
<path d="M718503 3336614
L1328740 3336614
" />
<path d="M1368110 3946850
L1368110 3375984
" />
<path d="M679133 3946850
L679133 3375984
" />
<path d="M2134138.070866 3531775.826772 A39370.196850 39370.196850 0.0 0 0 2094767.992126 3571145.905512" />
<path d="M2094767.992126 4142012.047244 A39370.196850 39370.196850 0.0 0 0 2134138.070866 4181382.125984" />
<path d="M2744374.291339 4181382.125984 A39370.196850 39370.196850 0.0 0 0 2783744.370079 4142012.047244" />
<path d="M2783744.370079 3571145.905512 A39370.196850 39370.196850 0.0 0 0 2744374.291339 3531775.826772" />
<path d="M2744374 4181382
L2134138 4181382
" />
<path d="M2094767 3571145
L2094767 4142012
" />
<path d="M2783744 3571145
L2783744 4142012
" />
<path d="M2134138 3531775
L2744374 3531775
" />
<g >
</g>
<g >
</g>
<g >
</g>
<g >
</g>
<g >
</g>
<g >
</g>
<g >
</g>
<g >
</g>
<g >
</g>
<g >
</g>
<g >
</g>
<g >
</g>
<g >
</g>
<g >
</g>
<g >
</g>
<g >
</g>
<g >
</g>
<g >
</g>
<g >
</g>
<g >
</g>
<g >
</g>
<g >
</g>
<g >
</g>
<g >
</g>
<g >
</g>
<g >
</g>
<g >
</g>
<g >
</g>
<g >
</g>
<g >
</g>
<g >
</g>
<g >
</g>
<g >
</g>
<g >
</g>
<g >
</g>
<g >
</g>
<g >
</g>
<g >
</g>
<g >
</g>
<g >
</g>
<g >
</g>
<g >
</g>
<g >
</g>
<g >
</g>
<g >
</g>
<g >
</g>
<g >
</g>
<g >
</g>
<g >
</g>
<g >
</g>
<g >
</g>
<g >
</g>
<g >
</g>
<g >
</g>
<g >
</g>
<g >
</g>
<g >
</g>
<g >
</g>
<g >
</g>
<g >
</g>
<g >
</g>
<g >
</g>
<g >
</g>
<g >
</g>
<g >
</g>
<g >
</g>
<g >
</g>
<g >
</g>
<g >
</g>
<g >
</g>
<g >
</g>
<g >
</g>
<g >
</g>
<g >
</g>
<g >
</g>
<g >
</g>
<g >
</g>
<g >
</g>
<g >
</g>
<g >
</g>
<g >
</g>
<g >
</g>
<g >
</g>
<g >
</g>
<g >
</g>
<g >
</g>
<g >
</g>
</g> 
</svg>
