<?xml version="1.0" standalone="no"?>
 <!DOCTYPE svg PUBLIC "-//W3C//DTD SVG 1.1//EN" 
 "http://www.w3.org/Graphics/SVG/1.1/DTD/svg11.dtd"> 
<svg
  xmlns:svg="http://www.w3.org/2000/svg"
  xmlns="http://www.w3.org/2000/svg"
  xmlns:xlink="http://www.w3.org/1999/xlink"
  version="1.1"
  width="27.940000cm" height="21.590000cm" viewBox="0 0 11000000 8500000">
<title>SVG Picture created as hillside46-User_Eco2.svg date 2022/08/06 16:18:22 </title>
  <desc>Picture generated by PCBNEW </desc>
<g style="fill:#000000; fill-opacity:1.000000;stroke:#000000; stroke-opacity:1.000000;
stroke-linecap:round; stroke-linejoin:round;"
 transform="translate(0 0) scale(1 1)">
</g>
<g style="fill:#000000; fill-opacity:0.0; 
stroke:#000000; stroke-width:0.000000; stroke-opacity:1; 
stroke-linecap:round; stroke-linejoin:round;">
</g>
<g style="fill:#000000; fill-opacity:0.0; 
stroke:#000000; stroke-width:1968.503937; stroke-opacity:1; 
stroke-linecap:round; stroke-linejoin:round;">
<path d="M5148821 1601931
L5665320 1601931
" />
<path d="M2546561 5146571
L2911964 5512088
" />
<path d="M8083629 2758362
L8083629 4125295
" />
<path d="M2840910.669291 1916892.283474 A78741.574803 78741.574803 0.0 0 0 2762167.874027 1995632.519634" />
<path d="M2473772 4900780
L2473771 4179372
" />
<path d="M7254314.178032 3389591.024466 A19685.866142 19685.866142 0.0 0 0 7215540.596708 3382754.208120" />
<path d="M7215542 3382754
L7168373 3650283
" />
<path d="M2594847 3610199
L2594847 2440338
" />
<path d="M7382011 3322154
L7382011 2725616
" />
<path d="M4379136.929134,1770667.637795 C4838782.559055,1742124.370079 4818113.307087,1600392.047244 5148821.889764,1601931.653543" />
<path d="M7507995 3298055
L7849457 3298055
" />
<path d="M7500915.863166 4424562.103530 A19686.614173 19686.614173 0.0 0 0 7507752.958240 4385787.047106" />
<path d="M7638828.107673 4668803.675955 A108267.637795 108267.637795 0.0 0 0 7764252.747565 4580981.482797" />
<path d="M6493310.078740,1876966.889764 C6897837.677165,1981297.559055 6709845.590551,2427163.700787 7490357.322835,2563974.724409" />
<path d="M7342641 2725616
L7342641 3322154
" />
<path d="M2546561.299213,5146571.850394 C2479887.165354,5082640.511811 2473981.653543,4973585.314961 2473772.086614,4900780.039370" />
<path d="M7490357 2563974
L7994328 2652661
" />
<path d="M7808859.685040 3773276.770595 A19686.220472 19686.220472 0.0 1 0 7808859.566022 3733904.331807" />
<path d="M3360596.102362,1916892.519685 C3944097.480315,1911415.669291 4062207.716535,1789368.622047 4379136.929134,1770667.637795" />
<path d="M3174965.984252,5423979.055118 C3542383.307087,5128604.763780 3930008.267717,4517337.244094 5358117.480315,4526219.015748" />
<path d="M2594847.913386,2440338.464567 C2594847.755906,2292876.535433 2762170.629921,2202325.314961 2762170.551181,2060986.929134" />
<path d="M7382011.929043 2725616.220472 A19685.157480 19685.157480 0.0 0 0 7342641.614276 2725616.102378" />
<path d="M7526618.897638 3733906.968756 A19683.582677 19683.582677 0.0 0 0 7526618.661912 3773274.133567" />
<path d="M6381030 4447019
L7638828 4668803
" />
<path d="M7096975 4280984
L7139375 4040504
" />
<path d="M7382011 4050023
L7382013 3761466
" />
<path d="M7764251 4580981
L7806716 4338084
" />
<path d="M7256933 4381544
L7500915 4424562
" />
<path d="M7849457.362205 3298055.354319 A19685.275591 19685.275591 0.0 0 0 7849457.362215 3258684.803161" />
<path d="M7139375.504245 4040504.644337 A19685.629921 19685.629921 0.0 0 0 7100602.396478 4033667.822062" />
<path d="M2762170 1995632
L2762170 2060986
" />
<path d="M7058203.779567 4274147.795283 A19686.653543 19686.653543 0.0 1 0 7096978.938387 4280984.774356" />
<path d="M7507996.062992 3258685.236220 A19684.842520 19684.842520 0.0 0 0 7507995.944882 3298054.921259" />
<path d="M7849457 3258685
L7507996 3258685
" />
<path d="M5358117.480315,4526219.015748 C5660085.905512,4526612.677165 5448274.803150,4305746.417323 6381030.039370,4447019.763780" />
<path d="M2473771.968504,4179372.165354 C2473772.165354,3885396.377953 2594847.795276,3885396.299213 2594847.677165,3610199.566929" />
<path d="M7100603 4033668
L7058203 4274147
" />
<path d="M7507752 4385790
L7263770 4342772
" />
<path d="M7342641.692913 4050023.622047 A19685.078740 19685.078740 0.0 0 0 7382011.850393 4050023.779531" />
<path d="M7808859 3733907
L7526618 3733906
" />
<path d="M7207145 3657119
L7254314 3389591
" />
<path d="M8083629.222190 2758362.913353 A107637.716535 107637.716535 0.0 0 0 7994327.989821 2652663.865511" />
<path d="M7342642 3761466
L7342641 4050023
" />
<path d="M7526618 3773277
L7808859 3773276
" />
<path d="M5665320.393701,1601931.968504 C5943113.385827,1605313.425197 5960829.763780,1785431.535433 6493310.078740,1876966.889764" />
<circle cx="6362680.629921" cy="3962690.826772" r="129999.763780" /> 
<path d="M7382013.110205 3761466.102362 A19685.157480 19685.157480 0.0 1 0 7342642.795306 3761466.102364" />
<path d="M2840910 1916892
L3360596 1916892
" />
<path d="M7263770.038583 4342772.917843 A19684.566929 19684.566929 0.0 1 0 7256933.756351 4381543.961470" />
<path d="M7342641.537186 3322154.488188 A19685.118110 19685.118110 0.0 0 0 7382011.769901 3322154.488188" />
<path d="M7806716.181102,4338084.566929 C7834993.464567,4202412.598425 8077643.779528,4274902.125984 8083629.251969,4125295.826772" />
<path d="M7168373.119328 3650283.505543 A19686.968504 19686.968504 0.0 1 0 7207148.901780 3657120.568489" />
<circle cx="4083627.795276" cy="2040650.196850" r="129999.763780" /> 
<path d="M2911964.488189,5512088.700787 C2979887.440945,5577522.283465 3118863.582677,5480671.811024 3174965.984252,5423979.055118" />
</g>
<g style="fill:#000000; fill-opacity:0.0; 
stroke:#000000; stroke-width:11811.023622; stroke-opacity:1; 
stroke-linecap:round; stroke-linejoin:round;">
<g transform="rotate(-359.999998 1671931.377953 6268870.984252)">
<text x="1671931.377953" y="6298398.543307"
transform="scale(-1 1) translate(-3343862.755906 0)"
textLength="299606.299213" font-size="78740.157480" lengthAdjust="spacingAndGlyphs"
text-anchor="middle" opacity="0">50 mm</text>
</g>
<g class="stroked-text"><desc>50 mm</desc>
<path d="M1556633 6236531
L1528511 6236531
L1525699 6264652
L1528511 6261840
L1534136 6259028
L1548196 6259028
L1553821 6261840
L1556633 6264652
L1559445 6270277
L1559445 6284337
L1556633 6289962
L1553821 6292774
L1548196 6295586
L1534136 6295586
L1528511 6292774
L1525699 6289962
" />
<path d="M1596003 6236531
L1601627 6236531
L1607251 6239343
L1610064 6242155
L1612876 6247779
L1615688 6259028
L1615688 6273089
L1612876 6284337
L1610064 6289962
L1607251 6292774
L1601627 6295586
L1596003 6295586
L1590379 6292774
L1587566 6289962
L1584754 6284337
L1581942 6273089
L1581942 6259028
L1584754 6247779
L1587566 6242155
L1590379 6239343
L1596003 6236531
" />
<path d="M1685992 6295586
L1685992 6256216
" />
<path d="M1685992 6261840
L1688804 6259028
L1694428 6256216
L1702865 6256216
L1708489 6259028
L1711301 6264652
L1711301 6295586
" />
<path d="M1711301 6264652
L1714113 6259028
L1719737 6256216
L1728174 6256216
L1733798 6259028
L1736610 6264652
L1736610 6295586
" />
<path d="M1764732 6295586
L1764732 6256216
" />
<path d="M1764732 6261840
L1767544 6259028
L1773168 6256216
L1781605 6256216
L1787229 6259028
L1790041 6264652
L1790041 6295586
" />
<path d="M1790041 6264652
L1792853 6259028
L1798478 6256216
L1806914 6256216
L1812538 6259028
L1815350 6264652
L1815350 6295586
" />
</g></g>
<g style="fill:#000000; fill-opacity:0.0; 
stroke:#000000; stroke-width:7874.015748; stroke-opacity:1; 
stroke-linecap:round; stroke-linejoin:round;">
<path d="M2652640 6211781
L2652640 6291958
" />
<path d="M691222 6211781
L691222 6291958
" />
<path d="M2652640 6268870
L1864844 6268870
" />
<path d="M1479017 6268871
L691222 6268871
" />
<path d="M2652640 6268870
L2608289 6291958
" />
<path d="M2652640 6268870
L2608289 6245783
" />
<path d="M691222 6268871
L735573 6245783
" />
<path d="M691222 6268871
L735573 6291958
" />
</g>
<g style="fill:#000000; fill-opacity:0.0; 
stroke:#000000; stroke-width:4724.409449; stroke-opacity:1; 
stroke-linecap:round; stroke-linejoin:round;">
<path d="M4069905 3935565
L4001453 3953907
" />
<path d="M3971030 3962059
L4001600 4076144
" />
<path d="M4130897 4041499
L4100327 3927414
" />
<path d="M4032022 4067993
L4100474 4049651
" />
<path d="M4100474.322327 4049651.537679 A15748.031496 15748.031496 0.0 1 0 4130897.173736 4041499.722164" />
<path d="M4100328.000507 3927414.013502 A15748.031496 15748.031496 0.0 0 0 4069905.139256 3935565.792285" />
<path d="M4001453.709169 3953907.281219 A15748.031496 15748.031496 0.0 0 0 3971030.857760 3962059.096734" />
<path d="M4001600.030989 4076144.805395 A15748.031496 15748.031496 0.0 0 0 4032022.892240 4067993.026613" />
<path d="M3435881 4225153
L3374509 4260586
" />
<path d="M3522212 4311692
L3463157 4209405
" />
<path d="M3347233 4276334
L3406288 4378621
" />
<path d="M3433564 4362873
L3494936 4327440
" />
<path d="M3374509.414218 4260586.847640 A15748.031496 15748.031496 0.0 0 0 3347233.026727 4276334.884643" />
<path d="M3463157.681934 4209405.745278 A15748.031496 15748.031496 0.0 0 0 3435881.294443 4225153.782281" />
<path d="M3494936.412554 4327440.238974 A15748.031496 15748.031496 0.0 1 0 3522212.800045 4311692.201971" />
<path d="M3406288.144837 4378621.341336 A15748.031496 15748.031496 0.0 1 0 3433564.532328 4362873.304333" />
</g>
<g style="fill:#000000; fill-opacity:0.0; 
stroke:#000000; stroke-width:5905.511811; stroke-opacity:1; 
stroke-linecap:round; stroke-linejoin:round;">
<path d="M7049827 4494986
L7148957 3932793
" />
<path d="M7081762 4540595
L7682728 4646561
" />
<path d="M7795531 4006824
L7194565 3900857
" />
<path d="M7728336 4614626
L7827466 4052432
" />
<path d="M7194565.667736 3900857.804099 A39370.039370 39370.039370 0.0 0 0 7148957.212361 3932793.197265" />
<path d="M7827466.470423 4052432.679586 A39370.196850 39370.196850 0.0 0 0 7795531.057103 4006824.206627" />
<path d="M7049827.331069 4494986.615625 A39370.078740 39370.078740 0.0 0 0 7081762.719175 4540595.103143" />
<path d="M7682728.107815 4646561.509793 A39370.196850 39370.196850 0.0 0 0 7728336.580775 4614626.096473" />
<path d="M7097635 3883766
L6496670 3777799
" />
<path d="M6383867 4417537
L6984832 4523503
" />
<path d="M6351932 4371928
L6451062 3809735
" />
<path d="M7030441 4491568
L7129571 3929374
" />
<path d="M6984832.950335 4523503.596408 A39370.196850 39370.196850 0.0 0 0 7030441.423295 4491568.183087" />
<path d="M6496670.510255 3777799.890713 A39370.039370 39370.039370 0.0 0 0 6451062.054881 3809735.283879" />
<path d="M7129571.312943 3929374.766201 A39370.196850 39370.196850 0.0 0 0 7097635.899623 3883766.293241" />
<path d="M6351932.173589 4371928.702239 A39370.078740 39370.078740 0.0 0 0 6383867.561694 4417537.189757" />
<path d="M8059908 2734185
L7960778 3296379
" />
<path d="M7314205 3222348
L7915170 3328314
" />
<path d="M7381399 2614546
L7282269 3176739
" />
<path d="M8027973 2688577
L7427007 2582610
" />
<path d="M8059908.731923 2734185.864690 A39370.078740 39370.078740 0.0 0 0 8027973.343818 2688577.377172" />
<path d="M7915170.395257 3328314.676216 A39370.039370 39370.039370 0.0 0 0 7960778.850631 3296379.283050" />
<path d="M7282269.592569 3176739.800729 A39370.196850 39370.196850 0.0 0 0 7314205.005889 3222348.273688" />
<path d="M7427007.955177 2582610.970522 A39370.196850 39370.196850 0.0 0 0 7381399.482217 2614546.383842" />
<path d="M6551139 1919610
L5943225 1866424
" />
<path d="M6586928 1962262
L6537174 2530955
" />
<path d="M5886608 2513559
L6494522 2566744
" />
<path d="M5900574 1902213
L5850819 2470907
" />
<path d="M6494522.953878 2566744.790325 A39370.039370 39370.039370 0.0 0 0 6537174.518153 2530955.865319" />
<path d="M5943225.787229 1866424.883863 A39370.196850 39370.196850 0.0 0 0 5900574.196010 1902213.817446" />
<path d="M5850819.923233 2470907.637968 A39370.196850 39370.196850 0.0 0 0 5886608.856816 2513559.229187" />
<path d="M6586928.806222 1962262.046135 A39370.078740 39370.078740 0.0 0 0 6551139.884199 1919610.446045" />
<path d="M5085005 2261380
L5695241 2261380
" />
<path d="M5045635 1651144
L5045635 2222010
" />
<path d="M5734611 1651144
L5734611 2222010
" />
<path d="M5695241 1611774
L5085005 1611774
" />
<path d="M5045635.078740 2222010.314961 A39370.196850 39370.196850 0.0 0 0 5085005.157480 2261380.393701" />
<path d="M5695241.377953 2261380.393701 A39370.078740 39370.078740 0.0 0 0 5734611.456693 2222010.314961" />
<path d="M5734611.456693 1651144.173228 A39370.078740 39370.078740 0.0 0 0 5695241.377953 1611774.094488" />
<path d="M5085005.157480 1611774.094488 A39370.196850 39370.196850 0.0 0 0 5045635.078740 1651144.173228" />
<path d="M7245792 3270251
L7146662 3832445
" />
<path d="M7213857 3224643
L6612891 3118676
" />
<path d="M6500088 3758414
L7101054 3864380
" />
<path d="M6567283 3150612
L6468153 3712805
" />
<path d="M7101054.056674 3864380.424247 A39370.039370 39370.039370 0.0 0 0 7146662.512049 3832445.031082" />
<path d="M6468153.253986 3712805.548760 A39370.196850 39370.196850 0.0 0 0 6500088.667306 3758414.021720" />
<path d="M7245792.393340 3270251.612721 A39370.078740 39370.078740 0.0 0 0 7213857.005235 3224643.125203" />
<path d="M6612891.616594 3118676.718553 A39370.196850 39370.196850 0.0 0 0 6567283.143635 3150612.131873" />
<path d="M6528596 2629006
L6478841 3197700
" />
<path d="M5842241 2568958
L5792487 3137651
" />
<path d="M5828276 3180303
L6436190 3233489
" />
<path d="M6492807 2586354
L5884893 2533169
" />
<path d="M5792487.246067 3137651.929306 A39370.196850 39370.196850 0.0 0 0 5828276.179651 3180303.520526" />
<path d="M6528596.129057 2629006.337474 A39370.078740 39370.078740 0.0 0 0 6492807.207034 2586354.737384" />
<path d="M6436190.276713 3233489.081664 A39370.039370 39370.039370 0.0 0 0 6478841.840987 3197700.156657" />
<path d="M5884893.110064 2533169.175201 A39370.196850 39370.196850 0.0 0 0 5842241.518845 2568958.108785" />
<path d="M5695241 2281065
L5085005 2281065
" />
<path d="M5085005 2930671
L5695241 2930671
" />
<path d="M5734611 2320435
L5734611 2891301
" />
<path d="M5045635 2320435
L5045635 2891301
" />
<path d="M5734611.732283 2320435.590551 A39370.078740 39370.078740 0.0 0 0 5695241.653543 2281065.511811" />
<path d="M5045635.354331 2891301.732283 A39370.196850 39370.196850 0.0 0 0 5085005.433071 2930671.811023" />
<path d="M5695241.653543 2930671.811024 A39370.078740 39370.078740 0.0 0 0 5734611.732283 2891301.732283" />
<path d="M5085005.433071 2281065.511811 A39370.196850 39370.196850 0.0 0 0 5045635.354331 2320435.590551" />
<path d="M6434474 3253099
L5826560 3199913
" />
<path d="M5783909 3235702
L5734154 3804396
" />
<path d="M6470263 3295750
L6420509 3864444
" />
<path d="M5769943 3847047
L6377857 3900233
" />
<path d="M6470263.845592 3295750.707552 A39370.078740 39370.078740 0.0 0 0 6434474.923569 3253099.107462" />
<path d="M5826560.826599 3199913.545280 A39370.196850 39370.196850 0.0 0 0 5783909.235380 3235702.478864" />
<path d="M6377857.993248 3900233.451742 A39370.039370 39370.039370 0.0 0 0 6420509.557523 3864444.526736" />
<path d="M5734154.962603 3804396.299385 A39370.196850 39370.196850 0.0 0 0 5769943.896186 3847047.890604" />
<path d="M5085005 3599963
L5695241 3599963
" />
<path d="M5045635 2989726
L5045635 3560593
" />
<path d="M5734611 2989726
L5734611 3560593
" />
<path d="M5695241 2950356
L5085005 2950356
" />
<path d="M5045635.275591 3560593.031496 A39370.196850 39370.196850 0.0 0 0 5085005.354331 3599963.110236" />
<path d="M5085005.354331 2950356.811024 A39370.196850 39370.196850 0.0 0 0 5045635.275591 2989726.889764" />
<path d="M5695241.574803 3599963.110236 A39370.078740 39370.078740 0.0 0 0 5734611.653543 3560593.031496" />
<path d="M5734611.653543 2989726.889764 A39370.078740 39370.078740 0.0 0 0 5695241.574803 2950356.811024" />
<path d="M4336973 1867679
L4336973 2438546
" />
<path d="M5025950 1867679
L5025950 2438546
" />
<path d="M4376343 2477916
L4986580 2477916
" />
<path d="M4986580 1828309
L4376343 1828309
" />
<path d="M4376343.858268 1828309.881890 A39370.196850 39370.196850 0.0 0 0 4336973.779528 1867679.960630" />
<path d="M4986580.078740 2477916.181102 A39370.078740 39370.078740 0.0 0 0 5025950.157480 2438546.102362" />
<path d="M4336973.779528 2438546.102362 A39370.196850 39370.196850 0.0 0 0 4376343.858268 2477916.181102" />
<path d="M5025950.157480 1867679.960630 A39370.078740 39370.078740 0.0 0 0 4986580.078740 1828309.881890" />
<path d="M3628312 1966104
L3628312 2536970
" />
<path d="M4317288 1966104
L4317288 2536970
" />
<path d="M3667682 2576341
L4277918 2576341
" />
<path d="M4277918 1926734
L3667682 1926734
" />
<path d="M3667682.283465 1926734.763780 A39370.196850 39370.196850 0.0 0 0 3628312.204725 1966104.842520" />
<path d="M4277918.503937 2576341.062992 A39370.078740 39370.078740 0.0 0 0 4317288.582677 2536970.984252" />
<path d="M3628312.204725 2536970.984252 A39370.196850 39370.196850 0.0 0 0 3667682.283465 2576341.062992" />
<path d="M4317288.582677 1966104.842520 A39370.078740 39370.078740 0.0 0 0 4277918.503937 1926734.763780" />
<path d="M4336974 2536971
L4336974 3107837
" />
<path d="M4986580 2497601
L4376344 2497601
" />
<path d="M5025950 2536971
L5025950 3107837
" />
<path d="M4376344 3147207
L4986580 3147207
" />
<path d="M4986580.393701 3147207.401575 A39370.078740 39370.078740 0.0 0 0 5025950.472441 3107837.322835" />
<path d="M4336974.094488 3107837.322835 A39370.196850 39370.196850 0.0 0 0 4376344.173228 3147207.401575" />
<path d="M5025950.472441 2536971.181102 A39370.078740 39370.078740 0.0 0 0 4986580.393701 2497601.102362" />
<path d="M4376344.173228 2497601.102362 A39370.196850 39370.196850 0.0 0 0 4336974.094488 2536971.181102" />
<path d="M4277918 2596026
L3667682 2596026
" />
<path d="M3667682 3245632
L4277918 3245632
" />
<path d="M3628312 2635396
L3628312 3206262
" />
<path d="M4317288 2635396
L4317288 3206262
" />
<path d="M4277918.818898 3245632.440945 A39370.078740 39370.078740 0.0 0 0 4317288.897638 3206262.362205" />
<path d="M3667682.598425 2596026.141732 A39370.196850 39370.196850 0.0 0 0 3628312.519685 2635396.220472" />
<path d="M4317288.897638 2635396.220472 A39370.078740 39370.078740 0.0 0 0 4277918.818898 2596026.141732" />
<path d="M3628312.519685 3206262.362205 A39370.196850 39370.196850 0.0 0 0 3667682.598425 3245632.440945" />
<path d="M4376343 3816498
L4986580 3816498
" />
<path d="M4986580 3166892
L4376343 3166892
" />
<path d="M5025950 3206262
L5025950 3777128
" />
<path d="M4336973 3206262
L4336973 3777128
" />
<path d="M4986580.118110 3816498.543307 A39370.078740 39370.078740 0.0 0 0 5025950.196850 3777128.464567" />
<path d="M4336973.818898 3777128.464567 A39370.196850 39370.196850 0.0 0 0 4376343.897638 3816498.543307" />
<path d="M4376343.897638 3166892.244095 A39370.196850 39370.196850 0.0 0 0 4336973.818898 3206262.322835" />
<path d="M5025950.196850 3206262.322835 A39370.078740 39370.078740 0.0 0 0 4986580.118110 3166892.244094" />
<path d="M4317288 3304687
L4317288 3875553
" />
<path d="M3628312 3304687
L3628312 3875553
" />
<path d="M4277918 3265317
L3667682 3265317
" />
<path d="M3667682 3914923
L4277918 3914923
" />
<path d="M3667682.440945 3265317.362205 A39370.196850 39370.196850 0.0 0 0 3628312.362205 3304687.440945" />
<path d="M4277918.661417 3914923.661417 A39370.078740 39370.078740 0.0 0 0 4317288.740157 3875553.582677" />
<path d="M3628312.362205 3875553.582677 A39370.196850 39370.196850 0.0 0 0 3667682.440945 3914923.661417" />
<path d="M4317288.740157 3304687.440945 A39370.078740 39370.078740 0.0 0 0 4277918.661417 3265317.362205" />
<path d="M5438675 4448995
L5438675 3878129
" />
<path d="M5399305 3838759
L4789069 3838759
" />
<path d="M4789069 4488365
L5399305 4488365
" />
<path d="M4749699 4448995
L4749699 3878129
" />
<path d="M4789069.606299 3838759.055119 A39370.314961 39370.314961 0.0 0 0 4749699.015749 3878129.133855" />
<path d="M5399305.826772 4488365.354331 A39370.196850 39370.196850 0.0 0 0 5438675.905512 4448995.275591" />
<path d="M5438675.905512 3878129.133858 A39370.196850 39370.196850 0.0 0 0 5399305.826772 3838759.055118" />
<path d="M4749699.527560 4448995.275591 A39369.803150 39369.803150 0.0 0 0 4789069.606299 4488365.314960" />
<path d="M7362013 2611128
L7262883 3173321
" />
<path d="M6683504 2491488
L6584374 3053682
" />
<path d="M6616309 3099290
L7217275 3205257
" />
<path d="M7330078 2565519
L6729112 2459553
" />
<path d="M6729112.797697 2459553.411467 A39370.196850 39370.196850 0.0 0 0 6683504.324737 2491488.824787" />
<path d="M7217275.237776 3205257.117161 A39370.039370 39370.039370 0.0 0 0 7262883.693151 3173321.723995" />
<path d="M7362013.574443 2611128.305635 A39370.078740 39370.078740 0.0 0 0 7330078.186337 2565519.818117" />
<path d="M6584374.435089 3053682.241674 A39370.196850 39370.196850 0.0 0 0 6616309.848409 3099290.714633" />
<path d="M3755258 4156901
L4040691 4651286
" />
<path d="M3497801 5010184
L4026281 4705066
" />
<path d="M3701478 4142491
L3172998 4447609
" />
<path d="M3158587 4501389
L3444020 4995774
" />
<path d="M3172998.275243 4447609.186265 A39370.196850 39370.196850 0.0 0 0 3158587.821499 4501389.732000" />
<path d="M4026281.505584 4705066.670034 A39370.118110 39370.118110 0.0 0 0 4040691.975152 4651286.075794" />
<path d="M3755258.870190 4156901.528549 A39370.078740 39370.078740 0.0 0 0 3701478.356621 4142491.080597" />
<path d="M3444020.889021 4995774.300859 A39370.196850 39370.196850 0.0 0 0 3497801.407865 5010184.747399" />
<path d="M3421231 3574971
L3706664 4069356
" />
<path d="M3163773 4428254
L3692253 4123136
" />
<path d="M3367450 3560560
L2838970 3865679
" />
<path d="M2824560 3919459
L3109993 4413844
" />
<path d="M3109993.398864 4413844.205071 A39370.196850 39370.196850 0.0 0 0 3163773.944598 4428254.658816" />
<path d="M3692253.977469 4123136.537323 A39370.314961 39370.314961 0.0 0 0 3706664.877800 4069355.775953" />
<path d="M3421231.380739 3574971.415714 A39369.842520 39369.842520 0.0 0 0 3367450.831144 3560560.991826" />
<path d="M2838970.777881 3865679.077998 A39370.196850 39370.196850 0.0 0 0 2824560.331342 3919459.596842" />
<path d="M3428444 5012584
L3024781 4608921
" />
<path d="M2941264 5499764
L2537601 5096101
" />
<path d="M2969103 4608921
L2537601 5040423
" />
<path d="M2996942 5499764
L3428444 5068262
" />
<path d="M2941264.752709 5499764.420519 A39370.078740 39370.078740 0.0 0 0 2996942.471700 5499764.440204" />
<path d="M2537601.453776 5040423.422280 A39370.039370 39370.039370 0.0 0 0 2537601.473461 5096101.085594" />
<path d="M3428444.594307 5068262.232102 A39370.157480 39370.157480 0.0 0 0 3428444.574622 5012584.598606" />
<path d="M3024781.295374 4608921.263681 A39370.196850 39370.196850 0.0 0 0 2969103.606201 4608921.243996" />
</g>
<g style="fill:#000000; fill-opacity:0.0; 
stroke:#000000; stroke-width:4724.409449; stroke-opacity:1; 
stroke-linecap:round; stroke-linejoin:round;">
<path d="M4836684 3767912
L4836684 3886023
" />
<path d="M4868181 3886023
L4939047 3886023
" />
<path d="M4939047 3767912
L4868181 3767912
" />
<path d="M4970543 3886023
L4970543 3767912
" />
<path d="M4868181.023622 3767912.874016 A15748.031496 15748.031496 0.0 0 0 4836684.960630 3767912.874016" />
<path d="M4939047.165354 3886023.110236 A15748.031496 15748.031496 0.0 0 0 4970543.228346 3886023.110236" />
<path d="M4836684.960630 3886023.110236 A15748.031496 15748.031496 0.0 0 0 4868181.023622 3886023.110236" />
<path d="M4970543.228346 3767912.874016 A15748.031496 15748.031496 0.0 0 0 4939047.165354 3767912.874016" />
<path d="M3133284 3627260
L3192340 3729547
" />
<path d="M3221933 3576079
L3160561 3611512
" />
<path d="M3219616 3713799
L3280988 3678365
" />
<path d="M3308264 3662617
L3249209 3560331
" />
<path d="M3280988.341688 3678365.987005 A15748.031496 15748.031496 0.0 1 0 3308264.729179 3662617.950002" />
<path d="M3249209.611068 3560331.493310 A15748.031496 15748.031496 0.0 0 0 3221933.223577 3576079.530313" />
<path d="M3160561.343352 3611512.595672 A15748.031496 15748.031496 0.0 0 0 3133284.955861 3627260.632675" />
<path d="M3192340.073971 3729547.089368 A15748.031496 15748.031496 0.0 1 0 3219616.461462 3713799.052365" />
</g>
<g style="fill:#000000; fill-opacity:0.0; 
stroke:#000000; stroke-width:5905.511811; stroke-opacity:1; 
stroke-linecap:round; stroke-linejoin:round;">
<path d="M7197983 3881471
L7798949 3987438
" />
<path d="M7166048 3835863
L7265178 3273669
" />
<path d="M7911752 3347700
L7310786 3241734
" />
<path d="M7844557 3955502
L7943687 3393309
" />
<path d="M7310786.848838 3241734.575753 A39370.039370 39370.039370 0.0 0 0 7265178.393463 3273669.968918" />
<path d="M7166048.512172 3835863.387279 A39370.078740 39370.078740 0.0 0 0 7197983.900277 3881471.874797" />
<path d="M7798949.288918 3987438.281447 A39370.196850 39370.196850 0.0 0 0 7844557.761877 3955502.868127" />
<path d="M7943687.651526 3393309.451240 A39370.196850 39370.196850 0.0 0 0 7911752.238205 3347700.978280" />
<path d="M4729426 4461181
L4581675 3909767
" />
<path d="M4063926 4639502
L3916175 4088087
" />
<path d="M4533456 3881928
L3944013 4039869
" />
<path d="M4112144 4667340
L4701587 4509400
" />
<path d="M4063926.108299 4639502.085023 A39370.078740 39370.078740 0.0 0 0 4112144.407858 4667340.938945" />
<path d="M3944013.938946 4039869.456052 A39370.039370 39370.039370 0.0 0 0 3916175.122706 4088087.704755" />
<path d="M4581675.152793 3909767.520941 A39370.196850 39370.196850 0.0 0 0 4533456.855511 3881928.680515" />
<path d="M4701587.323869 4509400.161340 A39370.157480 39370.157480 0.0 0 0 4729426.160709 4461181.895228" />
<g >
</g>
<g >
</g>
<g >
</g>
<g >
</g>
<g >
</g>
<g >
</g>
<g >
</g>
<g >
</g>
<g >
</g>
<g >
</g>
<g >
</g>
<g >
</g>
<g >
</g>
<g >
</g>
<g >
</g>
<g >
</g>
<g >
</g>
<g >
</g>
<g >
</g>
<g >
</g>
<g >
</g>
<g >
</g>
<g >
</g>
<g >
</g>
<g >
</g>
<g >
</g>
<g >
</g>
<g >
</g>
<g >
</g>
<g >
</g>
<g >
</g>
<g >
</g>
<g >
</g>
<g >
</g>
<g >
</g>
<g >
</g>
<g >
</g>
<g >
</g>
<g >
</g>
<g >
</g>
<g >
</g>
<g >
</g>
<g >
</g>
<g >
</g>
<g >
</g>
<g >
</g>
<g >
</g>
<g >
</g>
<g >
</g>
<g >
</g>
<g >
</g>
<g >
</g>
<g >
</g>
<g >
</g>
<g >
</g>
<g >
</g>
<g >
</g>
<g >
</g>
<g >
</g>
<g >
</g>
<g >
</g>
<g >
</g>
<g >
</g>
<g >
</g>
<g >
</g>
<g >
</g>
<g >
</g>
<g >
</g>
<g >
</g>
<g >
</g>
<g >
</g>
<g >
</g>
<g >
</g>
<g >
</g>
<g >
</g>
<g >
</g>
<g >
</g>
<g >
</g>
<g >
</g>
<g >
</g>
<g >
</g>
<g >
</g>
<g >
</g>
<g >
</g>
<g >
</g>
<g >
</g>
<g >
</g>
<g >
</g>
<g >
</g>
<g >
</g>
<g >
</g>
<g >
</g>
<g >
</g>
<g >
</g>
<g >
</g>
</g> 
</svg>
