<?xml version="1.0" standalone="no"?>
 <!DOCTYPE svg PUBLIC "-//W3C//DTD SVG 1.1//EN" 
 "http://www.w3.org/Graphics/SVG/1.1/DTD/svg11.dtd"> 
<svg
  xmlns:svg="http://www.w3.org/2000/svg"
  xmlns="http://www.w3.org/2000/svg"
  xmlns:xlink="http://www.w3.org/1999/xlink"
  version="1.1"
  width="27.940000cm" height="21.590000cm" viewBox="0 0 11000000 8500000">
<title>SVG Picture created as hillside46-User_Eco2.svg date 2022/08/06 15:37:42 </title>
  <desc>Picture generated by PCBNEW </desc>
<g style="fill:#000000; fill-opacity:1.000000;stroke:#000000; stroke-opacity:1.000000;
stroke-linecap:round; stroke-linejoin:round;"
 transform="translate(0 0) scale(1 1)">
</g>
<g style="fill:#000000; fill-opacity:0.0; 
stroke:#000000; stroke-width:0.000000; stroke-opacity:1; 
stroke-linecap:round; stroke-linejoin:round;">
</g>
<g style="fill:#000000; fill-opacity:0.0; 
stroke:#000000; stroke-width:1968.503937; stroke-opacity:1; 
stroke-linecap:round; stroke-linejoin:round;">
<path d="M5851178 1601931
L5334679 1601931
" />
<path d="M8453438 5146571
L8088035 5512088
" />
<path d="M2916370 2758362
L2916370 4125295
" />
<path d="M8237832.125973 1995632.519634 A78741.574803 78741.574803 0.0 0 0 8159089.330709 1916892.283474" />
<path d="M8526227 4900780
L8526228 4179372
" />
<path d="M3784459.403292 3382754.208120 A19685.866142 19685.866142 0.0 0 0 3745685.821968 3389591.024466" />
<path d="M3784457 3382754
L3831626 3650283
" />
<path d="M8405152 3610199
L8405152 2440338
" />
<path d="M3617988 3322154
L3617988 2725616
" />
<path d="M6620863.070866,1770667.637795 C6161217.440945,1742124.370079 6181886.692913,1600392.047244 5851178.110236,1601931.653543" />
<path d="M3492004 3298055
L3150542 3298055
" />
<path d="M3492247.041760 4385787.047106 A19686.614173 19686.614173 0.0 0 0 3499084.136834 4424562.103530" />
<path d="M3235747.252435 4580981.482797 A108267.637795 108267.637795 0.0 0 0 3361171.892327 4668803.675955" />
<path d="M4506689.921260,1876966.889764 C4102162.322835,1981297.559055 4290154.409449,2427163.700787 3509642.677165,2563974.724409" />
<path d="M3657358 2725616
L3657358 3322154
" />
<path d="M8453438.700787,5146571.850394 C8520112.834646,5082640.511811 8526018.346457,4973585.314961 8526227.913386,4900780.039370" />
<path d="M3509642 2563974
L3005671 2652661
" />
<path d="M3191140.433978 3733904.331807 A19686.220472 19686.220472 0.0 1 0 3191140.314960 3773276.770595" />
<path d="M7639403.897638,1916892.519685 C7055902.519685,1911415.669291 6937792.283465,1789368.622047 6620863.070866,1770667.637795" />
<path d="M7825034.015748,5423979.055118 C7457616.692913,5128604.763780 7069991.732283,4517337.244094 5641882.519685,4526219.015748" />
<path d="M8405152.086614,2440338.464567 C8405152.244094,2292876.535433 8237829.370079,2202325.314961 8237829.448819,2060986.929134" />
<path d="M3657358.385724 2725616.102378 A19685.157480 19685.157480 0.0 0 0 3617988.070957 2725616.220472" />
<path d="M3473381.338088 3773274.133567 A19683.582677 19683.582677 0.0 0 0 3473381.102362 3733906.968756" />
<path d="M4618969 4447019
L3361171 4668803
" />
<path d="M3903024 4280984
L3860624 4040504
" />
<path d="M3617988 4050023
L3617986 3761466
" />
<path d="M3235748 4580981
L3193283 4338084
" />
<path d="M3743066 4381544
L3499084 4424562
" />
<path d="M3150542.637785 3258684.803161 A19685.275591 19685.275591 0.0 0 0 3150542.637795 3298055.354319" />
<path d="M3899397.603522 4033667.822062 A19685.629921 19685.629921 0.0 0 0 3860624.495755 4040504.644337" />
<path d="M8237829 1995632
L8237829 2060986
" />
<path d="M3903021.061613 4280984.774356 A19686.653543 19686.653543 0.0 1 0 3941796.220433 4274147.795283" />
<path d="M3492004.055118 3298054.921259 A19684.842520 19684.842520 0.0 0 0 3492003.937008 3258685.236220" />
<path d="M3150542 3258685
L3492003 3258685
" />
<path d="M5641882.519685,4526219.015748 C5339914.094488,4526612.677165 5551725.196850,4305746.417323 4618969.960630,4447019.763780" />
<path d="M8526228.031496,4179372.165354 C8526227.834646,3885396.377953 8405152.204724,3885396.299213 8405152.322835,3610199.566929" />
<path d="M3899396 4033668
L3941796 4274147
" />
<path d="M3492247 4385790
L3736229 4342772
" />
<path d="M3617988.149607 4050023.779531 A19685.078740 19685.078740 0.0 0 0 3657358.307087 4050023.622047" />
<path d="M3191140 3733907
L3473381 3733906
" />
<path d="M3792855 3657119
L3745685 3389591
" />
<path d="M3005672.010179 2652663.865511 A107637.716535 107637.716535 0.0 0 0 2916370.777810 2758362.913353" />
<path d="M3657357 3761466
L3657358 4050023
" />
<path d="M3473381 3773277
L3191140 3773276
" />
<path d="M5334679.606299,1601931.968504 C5056886.614173,1605313.425197 5039170.236220,1785431.535433 4506689.921260,1876966.889764" />
<circle cx="4637319.370079" cy="3962690.826772" r="129999.763780" /> 
<path d="M3657357.204694 3761466.102364 A19685.157480 19685.157480 0.0 1 0 3617986.889795 3761466.102362" />
<path d="M8159089 1916892
L7639403 1916892
" />
<path d="M3743066.243649 4381543.961470 A19684.566929 19684.566929 0.0 1 0 3736229.961417 4342772.917843" />
<path d="M3617988.230099 3322154.488188 A19685.118110 19685.118110 0.0 0 0 3657358.462814 3322154.488188" />
<path d="M3193283.818898,4338084.566929 C3165006.535433,4202412.598425 2922356.220472,4274902.125984 2916370.748031,4125295.826772" />
<path d="M3792851.098220 3657120.568489 A19686.968504 19686.968504 0.0 1 0 3831626.880672 3650283.505543" />
<circle cx="6916372.204724" cy="2040650.196850" r="129999.763780" /> 
<path d="M8088035.511811,5512088.700787 C8020112.559055,5577522.283465 7881136.417323,5480671.811024 7825034.015748,5423979.055118" />
</g>
<g style="fill:#000000; fill-opacity:0.0; 
stroke:#000000; stroke-width:11811.023622; stroke-opacity:1; 
stroke-linecap:round; stroke-linejoin:round;">
<g transform="rotate(-359.999998 9328068.622047 6268870.984252)">
<text x="9328068.622047" y="6298398.543307"
textLength="330314.960630" font-size="78740.157480" lengthAdjust="spacingAndGlyphs"
text-anchor="middle" opacity="0">50 mm</text>
</g>
<g class="stroked-text"><desc>50 mm</desc>
<path d="M9212770 6236531
L9184649 6236531
L9181836 6264652
L9184649 6261840
L9190273 6259028
L9204334 6259028
L9209958 6261840
L9212770 6264652
L9215582 6270277
L9215582 6284337
L9212770 6289962
L9209958 6292774
L9204334 6295586
L9190273 6295586
L9184649 6292774
L9181836 6289962
" />
<path d="M9252140 6236531
L9257764 6236531
L9263389 6239343
L9266201 6242155
L9269013 6247779
L9271825 6259028
L9271825 6273089
L9269013 6284337
L9266201 6289962
L9263389 6292774
L9257764 6295586
L9252140 6295586
L9246516 6292774
L9243704 6289962
L9240892 6284337
L9238079 6273089
L9238079 6259028
L9240892 6247779
L9243704 6242155
L9246516 6239343
L9252140 6236531
" />
<path d="M9342129 6295586
L9342129 6256216
" />
<path d="M9342129 6261840
L9344941 6259028
L9350565 6256216
L9359002 6256216
L9364626 6259028
L9367438 6264652
L9367438 6295586
" />
<path d="M9367438 6264652
L9370250 6259028
L9375875 6256216
L9384311 6256216
L9389935 6259028
L9392748 6264652
L9392748 6295586
" />
<path d="M9420869 6295586
L9420869 6256216
" />
<path d="M9420869 6261840
L9423681 6259028
L9429305 6256216
L9437742 6256216
L9443366 6259028
L9446178 6264652
L9446178 6295586
" />
<path d="M9446178 6264652
L9448990 6259028
L9454615 6256216
L9463051 6256216
L9468676 6259028
L9471488 6264652
L9471488 6295586
" />
</g></g>
<g style="fill:#000000; fill-opacity:0.0; 
stroke:#000000; stroke-width:7874.015748; stroke-opacity:1; 
stroke-linecap:round; stroke-linejoin:round;">
<path d="M8347359 6211781
L8347359 6291958
" />
<path d="M10308777 6211781
L10308777 6291958
" />
<path d="M8347359 6268870
L9135155 6268870
" />
<path d="M9520982 6268871
L10308777 6268871
" />
<path d="M8347359 6268870
L8391710 6291958
" />
<path d="M8347359 6268870
L8391710 6245783
" />
<path d="M10308777 6268871
L10264426 6245783
" />
<path d="M10308777 6268871
L10264426 6291958
" />
</g>
<g style="fill:#000000; fill-opacity:0.0; 
stroke:#000000; stroke-width:4724.409449; stroke-opacity:1; 
stroke-linecap:round; stroke-linejoin:round;">
<path d="M6930094 3935565
L6998546 3953907
" />
<path d="M7028969 3962059
L6998399 4076144
" />
<path d="M6869102 4041499
L6899672 3927414
" />
<path d="M6967977 4067993
L6899525 4049651
" />
<path d="M6869102.826264 4041499.722164 A15748.031496 15748.031496 0.0 0 0 6899525.677673 4049651.537679" />
<path d="M6930094.860744 3935565.792285 A15748.031496 15748.031496 0.0 0 0 6899671.999493 3927414.013502" />
<path d="M7028969.142240 3962059.096734 A15748.031496 15748.031496 0.0 0 0 6998546.290831 3953907.281219" />
<path d="M6967977.107760 4067993.026613 A15748.031496 15748.031496 0.0 0 0 6998399.969011 4076144.805395" />
<path d="M7564118 4225153
L7625490 4260586
" />
<path d="M7477787 4311692
L7536842 4209405
" />
<path d="M7652766 4276334
L7593711 4378621
" />
<path d="M7566435 4362873
L7505063 4327440
" />
<path d="M7652766.973273 4276334.884643 A15748.031496 15748.031496 0.0 0 0 7625490.585782 4260586.847640" />
<path d="M7564118.705557 4225153.782281 A15748.031496 15748.031496 0.0 0 0 7536842.318066 4209405.745278" />
<path d="M7477787.199955 4311692.201971 A15748.031496 15748.031496 0.0 0 0 7505063.587446 4327440.238974" />
<path d="M7566435.467672 4362873.304333 A15748.031496 15748.031496 0.0 0 0 7593711.855163 4378621.341336" />
</g>
<g style="fill:#000000; fill-opacity:0.0; 
stroke:#000000; stroke-width:5905.511811; stroke-opacity:1; 
stroke-linecap:round; stroke-linejoin:round;">
<path d="M3950172 4494986
L3851042 3932793
" />
<path d="M3918237 4540595
L3317271 4646561
" />
<path d="M3204468 4006824
L3805434 3900857
" />
<path d="M3271663 4614626
L3172533 4052432
" />
<path d="M3851042.787639 3932793.197265 A39370.039370 39370.039370 0.0 0 0 3805434.332264 3900857.804099" />
<path d="M3204468.942897 4006824.206627 A39370.196850 39370.196850 0.0 0 0 3172533.529577 4052432.679586" />
<path d="M3918237.280825 4540595.103143 A39370.078740 39370.078740 0.0 0 0 3950172.668931 4494986.615625" />
<path d="M3271663.419225 4614626.096473 A39370.196850 39370.196850 0.0 0 0 3317271.892185 4646561.509793" />
<path d="M3902364 3883766
L4503329 3777799
" />
<path d="M4616132 4417537
L4015167 4523503
" />
<path d="M4648067 4371928
L4548937 3809735
" />
<path d="M3969558 4491568
L3870428 3929374
" />
<path d="M3969558.576705 4491568.183087 A39370.196850 39370.196850 0.0 0 0 4015167.049665 4523503.596408" />
<path d="M4548937.945119 3809735.283879 A39370.039370 39370.039370 0.0 0 0 4503329.489745 3777799.890713" />
<path d="M3902364.100377 3883766.293241 A39370.196850 39370.196850 0.0 0 0 3870428.687057 3929374.766201" />
<path d="M4616132.438306 4417537.189757 A39370.078740 39370.078740 0.0 0 0 4648067.826411 4371928.702239" />
<path d="M2940091 2734185
L3039221 3296379
" />
<path d="M3685795 3222348
L3084829 3328314
" />
<path d="M3618600 2614546
L3717730 3176739
" />
<path d="M2972026 2688577
L3572992 2582610
" />
<path d="M2972026.656182 2688577.377172 A39370.078740 39370.078740 0.0 0 0 2940091.268077 2734185.864690" />
<path d="M3039221.149369 3296379.283050 A39370.039370 39370.039370 0.0 0 0 3084829.604743 3328314.676216" />
<path d="M3685794.994111 3222348.273688 A39370.196850 39370.196850 0.0 0 0 3717730.407431 3176739.800729" />
<path d="M3618600.517783 2614546.383842 A39370.196850 39370.196850 0.0 0 0 3572992.044823 2582610.970522" />
<path d="M4448860 1919610
L5056774 1866424
" />
<path d="M4413071 1962262
L4462825 2530955
" />
<path d="M5113391 2513559
L4505477 2566744
" />
<path d="M5099425 1902213
L5149180 2470907
" />
<path d="M4462825.481847 2530955.865319 A39370.039370 39370.039370 0.0 0 0 4505477.046122 2566744.790325" />
<path d="M5099425.803990 1902213.817446 A39370.196850 39370.196850 0.0 0 0 5056774.212771 1866424.883863" />
<path d="M5113391.143184 2513559.229187 A39370.196850 39370.196850 0.0 0 0 5149180.076767 2470907.637968" />
<path d="M4448860.115801 1919610.446045 A39370.078740 39370.078740 0.0 0 0 4413071.193778 1962262.046135" />
<path d="M5914994 2261380
L5304758 2261380
" />
<path d="M5954364 1651144
L5954364 2222010
" />
<path d="M5265388 1651144
L5265388 2222010
" />
<path d="M5304758 1611774
L5914994 1611774
" />
<path d="M5914994.842520 2261380.393701 A39370.196850 39370.196850 0.0 0 0 5954364.921260 2222010.314961" />
<path d="M5265388.543307 2222010.314961 A39370.078740 39370.078740 0.0 0 0 5304758.622047 2261380.393701" />
<path d="M5304758.622047 1611774.094488 A39370.078740 39370.078740 0.0 0 0 5265388.543307 1651144.173228" />
<path d="M5954364.921260 1651144.173228 A39370.196850 39370.196850 0.0 0 0 5914994.842520 1611774.094488" />
<path d="M3754207 3270251
L3853337 3832445
" />
<path d="M3786142 3224643
L4387108 3118676
" />
<path d="M4499911 3758414
L3898945 3864380
" />
<path d="M4432716 3150612
L4531846 3712805
" />
<path d="M3853337.487951 3832445.031082 A39370.039370 39370.039370 0.0 0 0 3898945.943326 3864380.424247" />
<path d="M4499911.332694 3758414.021720 A39370.196850 39370.196850 0.0 0 0 4531846.746014 3712805.548760" />
<path d="M3786142.994765 3224643.125203 A39370.078740 39370.078740 0.0 0 0 3754207.606660 3270251.612721" />
<path d="M4432716.856365 3150612.131873 A39370.196850 39370.196850 0.0 0 0 4387108.383406 3118676.718553" />
<path d="M4471403 2629006
L4521158 3197700
" />
<path d="M5157758 2568958
L5207512 3137651
" />
<path d="M5171723 3180303
L4563809 3233489
" />
<path d="M4507192 2586354
L5115106 2533169
" />
<path d="M5171723.820349 3180303.520526 A39370.196850 39370.196850 0.0 0 0 5207512.753933 3137651.929306" />
<path d="M4507192.792966 2586354.737384 A39370.078740 39370.078740 0.0 0 0 4471403.870943 2629006.337474" />
<path d="M4521158.159013 3197700.156657 A39370.039370 39370.039370 0.0 0 0 4563809.723287 3233489.081664" />
<path d="M5157758.481155 2568958.108785 A39370.196850 39370.196850 0.0 0 0 5115106.889936 2533169.175201" />
<path d="M5304758 2281065
L5914994 2281065
" />
<path d="M5914994 2930671
L5304758 2930671
" />
<path d="M5265388 2320435
L5265388 2891301
" />
<path d="M5954364 2320435
L5954364 2891301
" />
<path d="M5304758.346457 2281065.511811 A39370.078740 39370.078740 0.0 0 0 5265388.267717 2320435.590551" />
<path d="M5914994.566929 2930671.811023 A39370.196850 39370.196850 0.0 0 0 5954364.645669 2891301.732283" />
<path d="M5265388.267717 2891301.732283 A39370.078740 39370.078740 0.0 0 0 5304758.346457 2930671.811024" />
<path d="M5954364.645669 2320435.590551 A39370.196850 39370.196850 0.0 0 0 5914994.566929 2281065.511811" />
<path d="M4565525 3253099
L5173439 3199913
" />
<path d="M5216090 3235702
L5265845 3804396
" />
<path d="M4529736 3295750
L4579490 3864444
" />
<path d="M5230056 3847047
L4622142 3900233
" />
<path d="M4565525.076431 3253099.107462 A39370.078740 39370.078740 0.0 0 0 4529736.154408 3295750.707552" />
<path d="M5216090.764620 3235702.478864 A39370.196850 39370.196850 0.0 0 0 5173439.173401 3199913.545280" />
<path d="M4579490.442477 3864444.526736 A39370.039370 39370.039370 0.0 0 0 4622142.006752 3900233.451742" />
<path d="M5230056.103814 3847047.890604 A39370.196850 39370.196850 0.0 0 0 5265845.037397 3804396.299385" />
<path d="M5914994 3599963
L5304758 3599963
" />
<path d="M5954364 2989726
L5954364 3560593
" />
<path d="M5265388 2989726
L5265388 3560593
" />
<path d="M5304758 2950356
L5914994 2950356
" />
<path d="M5914994.645669 3599963.110236 A39370.196850 39370.196850 0.0 0 0 5954364.724409 3560593.031496" />
<path d="M5954364.724409 2989726.889764 A39370.196850 39370.196850 0.0 0 0 5914994.645669 2950356.811024" />
<path d="M5265388.346457 3560593.031496 A39370.078740 39370.078740 0.0 0 0 5304758.425197 3599963.110236" />
<path d="M5304758.425197 2950356.811024 A39370.078740 39370.078740 0.0 0 0 5265388.346457 2989726.889764" />
<path d="M6663026 1867679
L6663026 2438546
" />
<path d="M5974049 1867679
L5974049 2438546
" />
<path d="M6623656 2477916
L6013419 2477916
" />
<path d="M6013419 1828309
L6623656 1828309
" />
<path d="M6663026.220472 1867679.960630 A39370.196850 39370.196850 0.0 0 0 6623656.141732 1828309.881890" />
<path d="M5974049.842520 2438546.102362 A39370.078740 39370.078740 0.0 0 0 6013419.921260 2477916.181102" />
<path d="M6623656.141732 2477916.181102 A39370.196850 39370.196850 0.0 0 0 6663026.220472 2438546.102362" />
<path d="M6013419.921260 1828309.881890 A39370.078740 39370.078740 0.0 0 0 5974049.842520 1867679.960630" />
<path d="M7371687 1966104
L7371687 2536970
" />
<path d="M6682711 1966104
L6682711 2536970
" />
<path d="M7332317 2576341
L6722081 2576341
" />
<path d="M6722081 1926734
L7332317 1926734
" />
<path d="M7371687.795275 1966104.842520 A39370.196850 39370.196850 0.0 0 0 7332317.716535 1926734.763780" />
<path d="M6682711.417323 2536970.984252 A39370.078740 39370.078740 0.0 0 0 6722081.496063 2576341.062992" />
<path d="M7332317.716535 2576341.062992 A39370.196850 39370.196850 0.0 0 0 7371687.795275 2536970.984252" />
<path d="M6722081.496063 1926734.763780 A39370.078740 39370.078740 0.0 0 0 6682711.417323 1966104.842520" />
<path d="M6663025 2536971
L6663025 3107837
" />
<path d="M6013419 2497601
L6623655 2497601
" />
<path d="M5974049 2536971
L5974049 3107837
" />
<path d="M6623655 3147207
L6013419 3147207
" />
<path d="M5974049.527559 3107837.322835 A39370.078740 39370.078740 0.0 0 0 6013419.606299 3147207.401575" />
<path d="M6623655.826772 3147207.401575 A39370.196850 39370.196850 0.0 0 0 6663025.905512 3107837.322835" />
<path d="M6013419.606299 2497601.102362 A39370.078740 39370.078740 0.0 0 0 5974049.527559 2536971.181102" />
<path d="M6663025.905512 2536971.181102 A39370.196850 39370.196850 0.0 0 0 6623655.826772 2497601.102362" />
<path d="M6722081 2596026
L7332317 2596026
" />
<path d="M7332317 3245632
L6722081 3245632
" />
<path d="M7371687 2635396
L7371687 3206262
" />
<path d="M6682711 2635396
L6682711 3206262
" />
<path d="M6682711.102362 3206262.362205 A39370.078740 39370.078740 0.0 0 0 6722081.181102 3245632.440945" />
<path d="M7371687.480315 2635396.220472 A39370.196850 39370.196850 0.0 0 0 7332317.401575 2596026.141732" />
<path d="M6722081.181102 2596026.141732 A39370.078740 39370.078740 0.0 0 0 6682711.102362 2635396.220472" />
<path d="M7332317.401575 3245632.440945 A39370.196850 39370.196850 0.0 0 0 7371687.480315 3206262.362205" />
<path d="M6623656 3816498
L6013419 3816498
" />
<path d="M6013419 3166892
L6623656 3166892
" />
<path d="M5974049 3206262
L5974049 3777128
" />
<path d="M6663026 3206262
L6663026 3777128
" />
<path d="M5974049.803150 3777128.464567 A39370.078740 39370.078740 0.0 0 0 6013419.881890 3816498.543307" />
<path d="M6623656.102362 3816498.543307 A39370.196850 39370.196850 0.0 0 0 6663026.181102 3777128.464567" />
<path d="M6663026.181102 3206262.322835 A39370.196850 39370.196850 0.0 0 0 6623656.102362 3166892.244095" />
<path d="M6013419.881890 3166892.244094 A39370.078740 39370.078740 0.0 0 0 5974049.803150 3206262.322835" />
<path d="M6682711 3304687
L6682711 3875553
" />
<path d="M7371687 3304687
L7371687 3875553
" />
<path d="M6722081 3265317
L7332317 3265317
" />
<path d="M7332317 3914923
L6722081 3914923
" />
<path d="M7371687.637795 3304687.440945 A39370.196850 39370.196850 0.0 0 0 7332317.559055 3265317.362205" />
<path d="M6682711.259843 3875553.582677 A39370.078740 39370.078740 0.0 0 0 6722081.338583 3914923.661417" />
<path d="M7332317.559055 3914923.661417 A39370.196850 39370.196850 0.0 0 0 7371687.637795 3875553.582677" />
<path d="M6722081.338583 3265317.362205 A39370.078740 39370.078740 0.0 0 0 6682711.259843 3304687.440945" />
<path d="M5561324 4448995
L5561324 3878129
" />
<path d="M5600694 3838759
L6210930 3838759
" />
<path d="M6210930 4488365
L5600694 4488365
" />
<path d="M6250300 4448995
L6250300 3878129
" />
<path d="M6250300.984251 3878129.133855 A39370.314961 39370.314961 0.0 0 0 6210930.393701 3838759.055119" />
<path d="M5561324.094488 4448995.275591 A39370.196850 39370.196850 0.0 0 0 5600694.173228 4488365.354331" />
<path d="M5600694.173228 3838759.055118 A39370.196850 39370.196850 0.0 0 0 5561324.094488 3878129.133858" />
<path d="M6210930.393701 4488365.314960 A39369.803150 39369.803150 0.0 0 0 6250300.472440 4448995.275591" />
<path d="M3637986 2611128
L3737116 3173321
" />
<path d="M4316495 2491488
L4415625 3053682
" />
<path d="M4383690 3099290
L3782724 3205257
" />
<path d="M3669921 2565519
L4270887 2459553
" />
<path d="M4316495.675263 2491488.824787 A39370.196850 39370.196850 0.0 0 0 4270887.202303 2459553.411467" />
<path d="M3737116.306849 3173321.723995 A39370.039370 39370.039370 0.0 0 0 3782724.762224 3205257.117161" />
<path d="M3669921.813663 2565519.818117 A39370.078740 39370.078740 0.0 0 0 3637986.425557 2611128.305635" />
<path d="M4383690.151591 3099290.714633 A39370.196850 39370.196850 0.0 0 0 4415625.564911 3053682.241674" />
<path d="M7244741 4156901
L6959308 4651286
" />
<path d="M7502198 5010184
L6973718 4705066
" />
<path d="M7298521 4142491
L7827001 4447609
" />
<path d="M7841412 4501389
L7555979 4995774
" />
<path d="M7841412.178501 4501389.732000 A39370.196850 39370.196850 0.0 0 0 7827001.724757 4447609.186265" />
<path d="M6959308.024848 4651286.075794 A39370.118110 39370.118110 0.0 0 0 6973718.494416 4705066.670034" />
<path d="M7298521.643379 4142491.080597 A39370.078740 39370.078740 0.0 0 0 7244741.129810 4156901.528549" />
<path d="M7502198.592135 5010184.747399 A39370.196850 39370.196850 0.0 0 0 7555979.110979 4995774.300859" />
<path d="M7578768 3574971
L7293335 4069356
" />
<path d="M7836226 4428254
L7307746 4123136
" />
<path d="M7632549 3560560
L8161029 3865679
" />
<path d="M8175439 3919459
L7890006 4413844
" />
<path d="M7836226.055402 4428254.658816 A39370.196850 39370.196850 0.0 0 0 7890006.601136 4413844.205071" />
<path d="M7293335.122200 4069355.775953 A39370.314961 39370.314961 0.0 0 0 7307746.022531 4123136.537323" />
<path d="M7632549.168856 3560560.991826 A39369.842520 39369.842520 0.0 0 0 7578768.619261 3574971.415714" />
<path d="M8175439.668658 3919459.596842 A39370.196850 39370.196850 0.0 0 0 8161029.222119 3865679.077998" />
<path d="M7571555 5012584
L7975218 4608921
" />
<path d="M8058735 5499764
L8462398 5096101
" />
<path d="M8030896 4608921
L8462398 5040423
" />
<path d="M8003057 5499764
L7571555 5068262
" />
<path d="M8003057.528300 5499764.440204 A39370.078740 39370.078740 0.0 0 0 8058735.247291 5499764.420519" />
<path d="M8462398.526539 5096101.085594 A39370.039370 39370.039370 0.0 0 0 8462398.546224 5040423.422280" />
<path d="M7571555.425378 5012584.598606 A39370.157480 39370.157480 0.0 0 0 7571555.405693 5068262.232102" />
<path d="M8030896.393799 4608921.243996 A39370.196850 39370.196850 0.0 0 0 7975218.704626 4608921.263681" />
</g>
<g style="fill:#000000; fill-opacity:0.0; 
stroke:#000000; stroke-width:4724.409449; stroke-opacity:1; 
stroke-linecap:round; stroke-linejoin:round;">
<path d="M6163315 3767912
L6163315 3886023
" />
<path d="M6131818 3886023
L6060952 3886023
" />
<path d="M6060952 3767912
L6131818 3767912
" />
<path d="M6029456 3886023
L6029456 3767912
" />
<path d="M6163315.039370 3767912.874016 A15748.031496 15748.031496 0.0 0 0 6131818.976378 3767912.874016" />
<path d="M6029456.771654 3886023.110236 A15748.031496 15748.031496 0.0 0 0 6060952.834646 3886023.110236" />
<path d="M6131818.976378 3886023.110236 A15748.031496 15748.031496 0.0 0 0 6163315.039370 3886023.110236" />
<path d="M6060952.834646 3767912.874016 A15748.031496 15748.031496 0.0 0 0 6029456.771654 3767912.874016" />
<path d="M7866715 3627260
L7807659 3729547
" />
<path d="M7778066 3576079
L7839438 3611512
" />
<path d="M7780383 3713799
L7719011 3678365
" />
<path d="M7691735 3662617
L7750790 3560331
" />
<path d="M7691735.270821 3662617.950002 A15748.031496 15748.031496 0.0 0 0 7719011.658312 3678365.987005" />
<path d="M7778066.776423 3576079.530313 A15748.031496 15748.031496 0.0 0 0 7750790.388932 3560331.493310" />
<path d="M7866715.044139 3627260.632675 A15748.031496 15748.031496 0.0 0 0 7839438.656648 3611512.595672" />
<path d="M7780383.538538 3713799.052365 A15748.031496 15748.031496 0.0 0 0 7807659.926029 3729547.089368" />
</g>
<g style="fill:#000000; fill-opacity:0.0; 
stroke:#000000; stroke-width:5905.511811; stroke-opacity:1; 
stroke-linecap:round; stroke-linejoin:round;">
<path d="M3802016 3881471
L3201050 3987438
" />
<path d="M3833951 3835863
L3734821 3273669
" />
<path d="M3088247 3347700
L3689213 3241734
" />
<path d="M3155442 3955502
L3056312 3393309
" />
<path d="M3734821.606537 3273669.968918 A39370.039370 39370.039370 0.0 0 0 3689213.151162 3241734.575753" />
<path d="M3802016.099723 3881471.874797 A39370.078740 39370.078740 0.0 0 0 3833951.487828 3835863.387279" />
<path d="M3155442.238123 3955502.868127 A39370.196850 39370.196850 0.0 0 0 3201050.711082 3987438.281447" />
<path d="M3088247.761795 3347700.978280 A39370.196850 39370.196850 0.0 0 0 3056312.348474 3393309.451240" />
<path d="M6270573 4461181
L6418324 3909767
" />
<path d="M6936073 4639502
L7083824 4088087
" />
<path d="M6466543 3881928
L7055986 4039869
" />
<path d="M6887855 4667340
L6298412 4509400
" />
<path d="M6887855.592142 4667340.938945 A39370.078740 39370.078740 0.0 0 0 6936073.891701 4639502.085023" />
<path d="M7083824.877294 4088087.704755 A39370.039370 39370.039370 0.0 0 0 7055986.061054 4039869.456052" />
<path d="M6466543.144489 3881928.680515 A39370.196850 39370.196850 0.0 0 0 6418324.847207 3909767.520941" />
<path d="M6270573.839291 4461181.895228 A39370.157480 39370.157480 0.0 0 0 6298412.676131 4509400.161340" />
<g >
</g>
<g >
</g>
<g >
</g>
<g >
</g>
<g >
</g>
<g >
</g>
<g >
</g>
<g >
</g>
<g >
</g>
<g >
</g>
<g >
</g>
<g >
</g>
<g >
</g>
<g >
</g>
<g >
</g>
<g >
</g>
<g >
</g>
<g >
</g>
<g >
</g>
<g >
</g>
<g >
</g>
<g >
</g>
<g >
</g>
<g >
</g>
<g >
</g>
<g >
</g>
<g >
</g>
<g >
</g>
<g >
</g>
<g >
</g>
<g >
</g>
<g >
</g>
<g >
</g>
<g >
</g>
<g >
</g>
<g >
</g>
<g >
</g>
<g >
</g>
<g >
</g>
<g >
</g>
<g >
</g>
<g >
</g>
<g >
</g>
<g >
</g>
<g >
</g>
<g >
</g>
<g >
</g>
<g >
</g>
<g >
</g>
<g >
</g>
<g >
</g>
<g >
</g>
<g >
</g>
<g >
</g>
<g >
</g>
<g >
</g>
<g >
</g>
<g >
</g>
<g >
</g>
<g >
</g>
<g >
</g>
<g >
</g>
<g >
</g>
<g >
</g>
<g >
</g>
<g >
</g>
<g >
</g>
<g >
</g>
<g >
</g>
<g >
</g>
<g >
</g>
<g >
</g>
<g >
</g>
<g >
</g>
<g >
</g>
<g >
</g>
<g >
</g>
<g >
</g>
<g >
</g>
<g >
</g>
<g >
</g>
<g >
</g>
<g >
</g>
<g >
</g>
<g >
</g>
<g >
</g>
<g >
</g>
<g >
</g>
<g >
</g>
<g >
</g>
<g >
</g>
<g >
</g>
<g >
</g>
<g >
</g>
<g >
</g>
</g> 
</svg>
