<?xml version='1.0' encoding='ASCII' standalone='yes'?>
<svg xmlns:svg="http://www.w3.org/2000/svg" xmlns="http://www.w3.org/2000/svg" xmlns:xlink="http://www.w3.org/1999/xlink" version="1.1" width="27.940000cm" height="21.590000cm" viewBox="0 0 279400000 215900000">
<title>SVG Picture created as hillside46-User_Eco2.svg date 2022/07/23 17:23:18 </title>
  <desc>Picture generated by PCBNEW </desc>
<g style="fill:#000000; fill-opacity:1.000000;stroke:#000000; stroke-opacity:1.000000; stroke-linecap:round; stroke-linejoin:round;" transform="translate(0 0) scale(1 1)">
</g>
<g style="fill:#000000; fill-opacity:0.0;  stroke:#000000; stroke-width:0.000000; stroke-opacity:1;  stroke-linecap:round; stroke-linejoin:round;">
</g>
<g style="fill:#000000; fill-opacity:0.0;  stroke:#000000; stroke-width:300000.000000; stroke-opacity:1;  stroke-linecap:round; stroke-linejoin:round;">
<g transform="rotate(-359.999998 236932943.000000 159229323.000000)">
<text x="236932943.000000" y="159979323.000000" textLength="8195000.000000" font-size="2000000.000000" lengthAdjust="spacingAndGlyphs" text-anchor="middle" opacity="0">50 mm</text>
</g>
<g class="stroked-text"><desc>50 mm</desc>
<path d="M234004371 158407894 L233290085 158407894 L233218657 159122179 L233290085 159050751 L233432943 158979322 L233790085 158979322 L233932943 159050751 L234004371 159122180 L234075800 159265037 L234075800 159622180 L234004371 159765037 L233932942 159836465 L233790085 159907894 L233432942 159907894 L233290085 159836465 L233218657 159765037 "/>
<path d="M235004371 158407894 L235147228 158407894 L235290085 158479322 L235361514 158550751 L235432943 158693608 L235504371 158979322 L235504371 159336465 L235432942 159622180 L235361514 159765037 L235290085 159836465 L235147228 159907894 L235004371 159907894 L234861514 159836465 L234790085 159765037 L234718657 159622180 L234647228 159336465 L234647228 158979322 L234718657 158693608 L234790085 158550751 L234861514 158479322 L235004371 158407894 "/>
<path d="M237290085 159907894 L237290085 158907894 "/>
<path d="M237290085 159050751 L237361514 158979323 L237504371 158907894 L237718657 158907894 L237861514 158979323 L237932943 159122180 L237932942 159907894 "/>
<path d="M237932943 159122180 L238004371 158979323 L238147228 158907894 L238361514 158907894 L238504371 158979323 L238575800 159122180 L238575800 159907894 "/>
<path d="M239290085 159907894 L239290085 158907894 "/>
<path d="M239290085 159050751 L239361514 158979323 L239504371 158907894 L239718657 158907894 L239861514 158979323 L239932943 159122180 L239932942 159907894 "/>
<path d="M239932943 159122180 L240004371 158979323 L240147228 158907894 L240361514 158907894 L240504371 158979323 L240575800 159122180 L240575800 159907894 "/>
</g></g>
<g style="fill:#000000; fill-opacity:0.0;  stroke:#000000; stroke-width:200000.000000; stroke-opacity:1;  stroke-linecap:round; stroke-linejoin:round;">
<path d="M212022943 157779258 L212022943 159815742 "/>
<path d="M261842943 157779261 L261842943 159815745 "/>
<path d="M212022943 159229322 L232032943 159229323 "/>
<path d="M241832943 159229324 L261842943 159229325 "/>
<path d="M212022943 159229322 L213149447 159815743 "/>
<path d="M212022943 159229322 L213149447 158642901 "/>
<path d="M261842943 159229325 L260716439 158642904 "/>
<path d="M261842943 159229325 L260716439 159815746 "/>
</g>
<g style="fill:#000000; fill-opacity:0.0;  stroke:#000000; stroke-width:150000.000000; stroke-opacity:1;  stroke-linecap:round; stroke-linejoin:round;">
<path d="M100334386 114172660 L97816488 99892947 "/>
<path d="M99523227 115331116 L84258706 118022662 "/>
<path d="M81393511 101773334 L96658032 99081788 "/>
<path d="M83100250 117211503 L80582352 102931790 "/>
<path d="M97816486.806035 99892947.210528 A999999.000000 999999.000000 0.0 0 0 96658032.039518 99081788.224119"/>
<path d="M81393511.149584 101773334.848318 A1000003.000000 1000003.000000 0.0 0 0 80582351.651249 102931790.061493"/>
<path d="M99523226.932966 115331115.619832 A1000000.000000 1000000.000000 0.0 0 0 100334385.790843 114172660.036880"/>
<path d="M83100250.848318 117211502.850416 A1000003.000000 1000003.000000 0.0 0 0 84258706.061493 118022662.348751"/>
<path d="M99120048 98647663 L114384569 95956117 "/>
<path d="M117249764 112205445 L101985243 114896991 "/>
<path d="M118060923 111046989 L115543025 96767276 "/>
<path d="M100826787 114085832 L98308889 99806119 "/>
<path d="M100826787.848318 114085831.850416 A1000003.000000 1000003.000000 0.0 0 0 101985243.061493 114896991.348751"/>
<path d="M115543023.806035 96767276.210528 A999999.000000 999999.000000 0.0 0 0 114384569.039518 95956117.224119"/>
<path d="M99120048.149584 98647663.848318 A1000003.000000 1000003.000000 0.0 0 0 98308888.651249 99806119.061493"/>
<path d="M117249763.932966 112205444.619832 A1000000.000000 1000000.000000 0.0 0 0 118060922.790843 111046989.036880"/>
<path d="M74678318 69448321 L77196216 83728034 "/>
<path d="M93619193 81847647 L78354672 84539193 "/>
<path d="M91912454 66409478 L94430352 80689191 "/>
<path d="M75489477 68289865 L90753998 65598319 "/>
<path d="M75489477.067034 68289865.380168 A1000000.000000 1000000.000000 0.0 0 0 74678318.209157 69448320.963120"/>
<path d="M77196217.193965 83728033.789472 A999999.000000 999999.000000 0.0 0 0 78354671.960482 84539192.775881"/>
<path d="M93619192.850416 81847646.151682 A1000003.000000 1000003.000000 0.0 0 0 94430352.348751 80689190.938507"/>
<path d="M91912453.151682 66409478.149584 A1000003.000000 1000003.000000 0.0 0 0 90753997.938507 65598318.651249"/>
<path d="M113001047 48758106 L128442065 47407192 "/>
<path d="M112092008 49841456 L113355767 64286279 "/>
<path d="M129880135 63844404 L114439117 65195318 "/>
<path d="M129525415 48316231 L130789174 62761054 "/>
<path d="M113355767.238918 64286278.979098 A999999.000000 999999.000000 0.0 0 0 114439116.971501 65195317.674259"/>
<path d="M129525415.421349 48316230.963135 A1000003.000000 1000003.000000 0.0 0 0 128442065.004384 47407192.050110"/>
<path d="M129880135.036865 63844404.421349 A1000003.000000 1000003.000000 0.0 0 0 130789173.949890 62761054.004384"/>
<path d="M113001046.941343 48758105.329547 A1000000.000000 1000000.000000 0.0 0 0 112092008.321951 49841455.971833"/>
<path d="M150240869 57439062 L134740869 57439062 "/>
<path d="M151240869 41939062 L151240869 56439062 "/>
<path d="M133740869 41939062 L133740869 56439062 "/>
<path d="M134740869 40939062 L150240869 40939062 "/>
<path d="M150240869.000000 57439061.999995 A1000003.000000 1000003.000000 0.0 0 0 151240868.999995 56439062.000000"/>
<path d="M133740869.000000 56439062.000000 A1000000.000000 1000000.000000 0.0 0 0 134740869.000000 57439062.000000"/>
<path d="M134740869.000000 40939062.000000 A1000000.000000 1000000.000000 0.0 0 0 133740869.000000 41939062.000000"/>
<path d="M151240868.999995 41939062.000000 A1000003.000000 1000003.000000 0.0 0 0 150240869.000000 40939062.000005"/>
<path d="M95356873 83064391 L97874771 97344104 "/>
<path d="M96168032 81905935 L111432553 79214389 "/>
<path d="M114297748 95463717 L99033227 98155263 "/>
<path d="M112591009 80025548 L115108907 94305261 "/>
<path d="M97874772.193965 97344103.789472 A999999.000000 999999.000000 0.0 0 0 99033226.960482 98155262.775881"/>
<path d="M114297747.850416 95463716.151682 A1000003.000000 1000003.000000 0.0 0 0 115108907.348751 94305260.938507"/>
<path d="M96168032.067034 81905935.380168 A1000000.000000 1000000.000000 0.0 0 0 95356873.209157 83064390.963120"/>
<path d="M112591008.151682 80025548.149584 A1000003.000000 1000003.000000 0.0 0 0 111432552.938507 79214388.651249"/>
<path d="M113573658 66776761 L114837417 81221584 "/>
<path d="M131007065 65251536 L132270824 79696359 "/>
<path d="M131361785 80779709 L115920767 82130623 "/>
<path d="M114482697 65693411 L129923715 64342497 "/>
<path d="M131361785.036865 80779709.421349 A1000003.000000 1000003.000000 0.0 0 0 132270823.949890 79696359.004384"/>
<path d="M114482696.941343 65693410.329547 A1000000.000000 1000000.000000 0.0 0 0 113573658.321951 66776760.971833"/>
<path d="M114837417.238918 81221583.979098 A999999.000000 999999.000000 0.0 0 0 115920766.971501 82130622.674259"/>
<path d="M131007065.421349 65251535.963135 A1000003.000000 1000003.000000 0.0 0 0 129923715.004384 64342497.050110"/>
<path d="M134740862 57939064 L150240862 57939064 "/>
<path d="M150240862 74439064 L134740862 74439064 "/>
<path d="M133740862 58939064 L133740862 73439064 "/>
<path d="M151240862 58939064 L151240862 73439064 "/>
<path d="M134740862.000000 57939064.000000 A1000000.000000 1000000.000000 0.0 0 0 133740862.000000 58939064.000000"/>
<path d="M150240862.000000 74439063.999995 A1000003.000000 1000003.000000 0.0 0 0 151240861.999995 73439064.000000"/>
<path d="M133740862.000000 73439064.000000 A1000000.000000 1000000.000000 0.0 0 0 134740862.000000 74439064.000000"/>
<path d="M151240861.999995 58939064.000000 A1000003.000000 1000003.000000 0.0 0 0 150240862.000000 57939064.000005"/>
<path d="M115964337 82628718 L131405355 81277804 "/>
<path d="M132488705 82186843 L133752464 96631666 "/>
<path d="M115055298 83712068 L116319057 98156891 "/>
<path d="M132843425 97715016 L117402407 99065930 "/>
<path d="M115964336.941343 82628717.329547 A1000000.000000 1000000.000000 0.0 0 0 115055298.321951 83712067.971833"/>
<path d="M132488705.421349 82186842.963135 A1000003.000000 1000003.000000 0.0 0 0 131405355.004384 81277804.050110"/>
<path d="M116319057.238918 98156890.979098 A999999.000000 999999.000000 0.0 0 0 117402406.971501 99065929.674259"/>
<path d="M132843425.036865 97715016.421349 A1000003.000000 1000003.000000 0.0 0 0 133752463.949890 96631666.004384"/>
<path d="M150240864 91439063 L134740864 91439063 "/>
<path d="M151240864 75939063 L151240864 90439063 "/>
<path d="M133740864 75939063 L133740864 90439063 "/>
<path d="M134740864 74939063 L150240864 74939063 "/>
<path d="M150240864.000000 91439062.999995 A1000003.000000 1000003.000000 0.0 0 0 151240863.999995 90439063.000000"/>
<path d="M151240863.999995 75939063.000000 A1000003.000000 1000003.000000 0.0 0 0 150240864.000000 74939063.000005"/>
<path d="M133740864.000000 90439063.000000 A1000000.000000 1000000.000000 0.0 0 0 134740864.000000 91439063.000000"/>
<path d="M134740864.000000 74939063.000000 A1000000.000000 1000000.000000 0.0 0 0 133740864.000000 75939063.000000"/>
<path d="M169240866 47439071 L169240866 61939071 "/>
<path d="M151740866 47439071 L151740866 61939071 "/>
<path d="M168240866 62939071 L152740866 62939071 "/>
<path d="M152740866 46439071 L168240866 46439071 "/>
<path d="M169240865.999995 47439071.000000 A1000003.000000 1000003.000000 0.0 0 0 168240866.000000 46439071.000005"/>
<path d="M151740866.000000 61939071.000000 A1000000.000000 1000000.000000 0.0 0 0 152740866.000000 62939071.000000"/>
<path d="M168240866.000000 62939070.999995 A1000003.000000 1000003.000000 0.0 0 0 169240865.999995 61939071.000000"/>
<path d="M152740866.000000 46439071.000000 A1000000.000000 1000000.000000 0.0 0 0 151740866.000000 47439071.000000"/>
<path d="M187240870 49939063 L187240870 64439063 "/>
<path d="M169740870 49939063 L169740870 64439063 "/>
<path d="M186240870 65439063 L170740870 65439063 "/>
<path d="M170740870 48939063 L186240870 48939063 "/>
<path d="M187240869.999995 49939063.000000 A1000003.000000 1000003.000000 0.0 0 0 186240870.000000 48939063.000005"/>
<path d="M169740870.000000 64439063.000000 A1000000.000000 1000000.000000 0.0 0 0 170740870.000000 65439063.000000"/>
<path d="M186240870.000000 65439062.999995 A1000003.000000 1000003.000000 0.0 0 0 187240869.999995 64439063.000000"/>
<path d="M170740870.000000 48939063.000000 A1000000.000000 1000000.000000 0.0 0 0 169740870.000000 49939063.000000"/>
<path d="M169240858 64439068 L169240858 78939068 "/>
<path d="M152740858 63439068 L168240858 63439068 "/>
<path d="M151740858 64439068 L151740858 78939068 "/>
<path d="M168240858 79939068 L152740858 79939068 "/>
<path d="M151740858.000000 78939068.000000 A1000000.000000 1000000.000000 0.0 0 0 152740858.000000 79939068.000000"/>
<path d="M168240858.000000 79939067.999995 A1000003.000000 1000003.000000 0.0 0 0 169240857.999995 78939068.000000"/>
<path d="M152740858.000000 63439068.000000 A1000000.000000 1000000.000000 0.0 0 0 151740858.000000 64439068.000000"/>
<path d="M169240857.999995 64439068.000000 A1000003.000000 1000003.000000 0.0 0 0 168240858.000000 63439068.000005"/>
<path d="M170740862 65939064 L186240862 65939064 "/>
<path d="M186240862 82439064 L170740862 82439064 "/>
<path d="M187240862 66939064 L187240862 81439064 "/>
<path d="M169740862 66939064 L169740862 81439064 "/>
<path d="M169740862.000000 81439064.000000 A1000000.000000 1000000.000000 0.0 0 0 170740862.000000 82439064.000000"/>
<path d="M187240861.999995 66939064.000000 A1000003.000000 1000003.000000 0.0 0 0 186240862.000000 65939064.000005"/>
<path d="M170740862.000000 65939064.000000 A1000000.000000 1000000.000000 0.0 0 0 169740862.000000 66939064.000000"/>
<path d="M186240862.000000 82439063.999995 A1000003.000000 1000003.000000 0.0 0 0 187240861.999995 81439064.000000"/>
<path d="M168240865 96939063 L152740865 96939063 "/>
<path d="M152740865 80439063 L168240865 80439063 "/>
<path d="M151740865 81439063 L151740865 95939063 "/>
<path d="M169240865 81439063 L169240865 95939063 "/>
<path d="M151740865.000000 95939063.000000 A1000000.000000 1000000.000000 0.0 0 0 152740865.000000 96939063.000000"/>
<path d="M168240865.000000 96939062.999995 A1000003.000000 1000003.000000 0.0 0 0 169240864.999995 95939063.000000"/>
<path d="M169240864.999995 81439063.000000 A1000003.000000 1000003.000000 0.0 0 0 168240865.000000 80439063.000005"/>
<path d="M152740865.000000 80439063.000000 A1000000.000000 1000000.000000 0.0 0 0 151740865.000000 81439063.000000"/>
<path d="M169740866 83939061 L169740866 98439061 "/>
<path d="M187240866 83939061 L187240866 98439061 "/>
<path d="M170740866 82939061 L186240866 82939061 "/>
<path d="M186240866 99439061 L170740866 99439061 "/>
<path d="M187240865.999995 83939061.000000 A1000003.000000 1000003.000000 0.0 0 0 186240866.000000 82939061.000005"/>
<path d="M169740866.000000 98439061.000000 A1000000.000000 1000000.000000 0.0 0 0 170740866.000000 99439061.000000"/>
<path d="M186240866.000000 99439060.999995 A1000003.000000 1000003.000000 0.0 0 0 187240865.999995 98439061.000000"/>
<path d="M170740866.000000 82939061.000000 A1000000.000000 1000000.000000 0.0 0 0 169740866.000000 83939061.000000"/>
<path d="M141257632 113004480 L141257632 98504480 "/>
<path d="M142257632 97504480 L157757632 97504480 "/>
<path d="M157757632 114004480 L142257632 114004480 "/>
<path d="M158757632 113004480 L158757632 98504480 "/>
<path d="M158757644.999982 98504479.999922 A1000006.000000 1000006.000000 0.0 0 0 157757632.000000 97504480.000024"/>
<path d="M141257632.000005 113004480.000000 A1000003.000000 1000003.000000 0.0 0 0 142257632.000000 114004479.999995"/>
<path d="M142257632.000000 97504480.000005 A1000003.000000 1000003.000000 0.0 0 0 141257632.000005 98504480.000000"/>
<path d="M157757632.000007 114004478.999976 A999993.000000 999993.000000 0.0 0 0 158757631.999982 113004480.000000"/>
<path d="M92404855 66322659 L94922753 80602372 "/>
<path d="M109638991 63283816 L112156889 77563529 "/>
<path d="M111345730 78721985 L96081209 81413531 "/>
<path d="M93216014 65164203 L108480535 62472657 "/>
<path d="M109638990.151682 63283816.149584 A1000003.000000 1000003.000000 0.0 0 0 108480534.938507 62472656.651249"/>
<path d="M94922754.193965 80602371.789472 A999999.000000 999999.000000 0.0 0 0 96081208.960482 81413530.775881"/>
<path d="M93216014.067034 65164203.380168 A1000000.000000 1000000.000000 0.0 0 0 92404855.209157 66322658.963120"/>
<path d="M111345729.850416 78721984.151682 A1000003.000000 1000003.000000 0.0 0 0 112156889.348751 77563528.938507"/>
<path d="M184016425 105585299 L176766425 118142667 "/>
<path d="M190555844 127258693 L177132450 119508693 "/>
<path d="M185382450 105219273 L198805844 112969273 "/>
<path d="M199171869 114335299 L191921869 126892667 "/>
<path d="M199171869.333925 114335299.192790 A1000003.000000 1000003.000000 0.0 0 0 198805843.808816 112969273.331139"/>
<path d="M176766423.831136 118142666.325156 A1000001.000000 1000001.000000 0.0 0 0 177132449.758169 119508693.418864"/>
<path d="M185382449.741831 105219273.447162 A1000000.000000 1000000.000000 0.0 0 0 184016424.697162 105585298.825156"/>
<path d="M190555844.240221 127258692.583922 A1000003.000000 1000003.000000 0.0 0 0 191921869.418859 126892667.241830"/>
<path d="M192500723 90804274 L185250723 103361643 "/>
<path d="M199040142 112477668 L185616749 104727668 "/>
<path d="M193866749 90438249 L207290142 98188249 "/>
<path d="M207656168 99554274 L200406168 112111643 "/>
<path d="M199040141.807210 112477668.333925 A1000003.000000 1000003.000000 0.0 0 0 200406167.668861 112111642.808816"/>
<path d="M185250712.103872 103361636.709213 A1000006.000000 1000006.000000 0.0 0 0 185616748.972283 104727668.048008"/>
<path d="M193866748.888933 90438249.192371 A999994.000000 999994.000000 0.0 0 0 192500722.929226 90804273.959139"/>
<path d="M207656167.583922 99554273.759779 A1000003.000000 1000003.000000 0.0 0 0 207290142.241830 98188248.581141"/>
<path d="M192317507 127319648 L202570555 117066600 "/>
<path d="M204691875 139694016 L214944923 129440968 "/>
<path d="M203984768 117066600 L214944923 128026755 "/>
<path d="M203277662 139694016 L192317507 128733861 "/>
<path d="M203277661.218813 139694016.781187 A1000000.000000 1000000.000000 0.0 0 0 204691875.281187 139694016.281186"/>
<path d="M214944922.574080 129440967.574079 A999999.000000 999999.000000 0.0 0 0 214944923.074080 128026754.925920"/>
<path d="M192317507.804605 127319648.804600 A1000002.000000 1000002.000000 0.0 0 0 192317507.304605 128733860.695397"/>
<path d="M203984768.402501 117066599.597496 A1000003.000000 1000003.000000 0.0 0 0 202570555.097496 117066600.097496"/>
<path d="M96571209 98589386 L81306688 101280932 "/>
<path d="M97382368 97430930 L94864470 83151217 "/>
<path d="M78441493 85031604 L93706014 82340058 "/>
<path d="M80148232 100469773 L77630334 86190060 "/>
<path d="M94864468.806035 83151217.210528 A999999.000000 999999.000000 0.0 0 0 93706014.039518 82340058.224119"/>
<path d="M96571208.932966 98589385.619832 A1000000.000000 1000000.000000 0.0 0 0 97382367.790843 97430930.036880"/>
<path d="M80148232.848318 100469772.850416 A1000003.000000 1000003.000000 0.0 0 0 81306688.061493 101280932.348751"/>
<path d="M78441493.149584 85031604.848318 A1000003.000000 1000003.000000 0.0 0 0 77630333.651249 86190060.061493"/>
<path d="M159272575 113314020 L163025451 99308095 "/>
<path d="M176176277 117843353 L179929153 103837428 "/>
<path d="M164250196 98600988 L179222046 102612684 "/>
<path d="M174951532 118550460 L159979682 114538764 "/>
<path d="M174951532.040406 118550459.849201 A1000000.000000 1000000.000000 0.0 0 0 176176276.849201 117843352.959594"/>
<path d="M179929151.883275 103837427.700775 A999999.000000 999999.000000 0.0 0 0 179222045.950774 102612684.183712"/>
<path d="M164250195.870026 98600988.485077 A1000003.000000 1000003.000000 0.0 0 0 163025451.119052 99308095.031900"/>
<path d="M159272575.517989 113314020.138793 A1000002.000000 1000002.000000 0.0 0 0 159979681.973731 114538764.098037"/>
<g>
</g>
<g>
</g>
<g>
</g>
<g>
</g>
<g>
</g>
<g>
</g>
<g>
</g>
<g>
</g>
<g>
</g>
<g>
</g>
<g>
</g>
<g>
</g>
<g>
</g>
<g>
</g>
<g>
</g>
<g>
</g>
<g>
</g>
<g>
</g>
<g>
</g>
<g>
</g>
<g>
</g>
<g>
</g>
<g>
</g>
<g>
</g>
<g>
</g>
<g>
</g>
<g>
</g>
<g>
</g>
<g>
</g>
<g>
</g>
<g>
</g>
<g>
</g>
<g>
</g>
<g>
</g>
<g>
</g>
<g>
</g>
<g>
</g>
<g>
</g>
<g>
</g>
<g>
</g>
<g>
</g>
<g>
</g>
<g>
</g>
<g>
</g>
<g>
</g>
<g>
</g>
<g>
</g>
<g>
</g>
<g>
</g>
<g>
</g>
<g>
</g>
<g>
</g>
<g>
</g>
<g>
</g>
<g>
</g>
<g>
</g>
<g>
</g>
<g>
</g>
<g>
</g>
<g>
</g>
<g>
</g>
<g>
</g>
<g>
</g>
<g>
</g>
<g>
</g>
<g>
</g>
<g>
</g>
<g>
</g>
<g>
</g>
<g>
</g>
<g>
</g>
<g>
</g>
<g>
</g>
<g>
</g>
<g>
</g>
<g>
</g>
<g>
</g>
<g>
</g>
<g>
</g>
<g>
</g>
<g>
</g>
<g>
</g>
<g>
</g>
<g>
</g>
<g>
</g>
<g>
</g>
<g>
</g>
<g>
</g>
<g>
</g>
<g>
</g>
<g>
</g>
<g>
</g>
<g>
</g>
<g>
</g>
<g>
</g>
</g> 
<svg:g><svg:g><svg:title>SVG Picture created as hillside46-Edge_Cuts.svg date 2022/07/23 17:23:18 </svg:title>
  <svg:desc>Picture generated by PCBNEW </svg:desc>
<svg:g style="fill:#000000; fill-opacity:1.000000;stroke:#000000; stroke-opacity:1.000000; stroke-linecap:round; stroke-linejoin:round;" transform="translate(0 0) scale(1 1)">
</svg:g>
<svg:g style="fill:#000000; fill-opacity:0.0;  stroke:#000000; stroke-width:0.000000; stroke-opacity:1;  stroke-linecap:round; stroke-linejoin:round;">
</svg:g>
<svg:g style="fill:#000000; fill-opacity:0.0;  stroke:#000000; stroke-width:50000.000000; stroke-opacity:1;  stroke-linecap:round; stroke-linejoin:round;">
<svg:path d="M148619924 40689064 L135500862 40689072 "/>
<svg:path d="M214717343 130722925 L205436102 140007053 "/>
<svg:path d="M74075818 70062418 L74075817 104782514 "/>
<svg:path d="M209240935.999711 50689065.998691 A2000036.000000 2000036.000000 0.0 0 0 207240869.000000 48689064.000240"/>
<svg:path d="M216566189 124479813 L216566192 106156053 "/>
<svg:path d="M96125268.843620 85921956.886254 A500021.000000 500021.000000 0.0 0 0 95140419.877977 86095612.021435"/>
<svg:path d="M96125223 85921965 L97323323 92717201 "/>
<svg:path d="M213490869 91699069 L213490863 61984597 "/>
<svg:path d="M91896901 84382724 L91896897 69230652 "/>
<svg:path d="M168169922.000000,44974958.000000 C156494923.000000,44249959.000000 157019922.000000,40649958.000000 148619924.000000,40689064.000000"/>
<svg:path d="M88696903 83770597 L80023783 83770606 "/>
<svg:path d="M88703074.860705 111398990.996497 A500040.000000 500040.000000 0.0 0 0 88876737.075588 112383877.429669"/>
<svg:path d="M82187980.211850 116356929.663035 A2749998.000000 2749998.000000 0.0 0 0 85373766.065116 118587613.369263"/>
<svg:path d="M114469924.000000,47674959.000000 C104194923.000000,50324958.000000 108969922.000000,61649958.000000 89144924.000000,65124958.000000"/>
<svg:path d="M92896907 69230649 L92896905 84382724 "/>
<svg:path d="M214717343.000000,130722925.000000 C216410866.000000,129099069.000000 216560866.000000,126329067.000000 216566189.000000,124479813.000000"/>
<svg:path d="M89144924 65124958 L76344059 67377604 "/>
<svg:path d="M81054967.023038 94841170.027895 A500030.000000 500030.000000 0.0 1 0 81054963.999991 95841229.973106"/>
<svg:path d="M194040859.000000,48689070.000000 C179219924.000000,48549958.000000 176219924.000000,45449963.000000 168169922.000000,44974958.000000"/>
<svg:path d="M198755864.000000,137769068.000000 C189423464.000000,130266561.000000 179577790.000000,114740366.000000 143303816.000000,114965963.000000"/>
<svg:path d="M213490863.000000,61984597.000000 C213490867.000000,58239064.000000 209240866.000000,55939063.000000 209240868.000000,52349068.000000"/>
<svg:path d="M92896902.997399 69230649.000408 A500003.000000 500003.000000 0.0 0 0 91896897.002304 69230652.000000"/>
<svg:path d="M88223885.987444 95841162.992606 A499963.000000 499963.000000 0.0 0 0 88223879.999999 94841237.006400"/>
<svg:path d="M117321837 112954302 L85373766 118587613 "/>
<svg:path d="M99136816 108736999 L98059862 102628818 "/>
<svg:path d="M91896910 102870604 L91896867 95541239 "/>
<svg:path d="M82188018 116356923 L81109409 110187348 "/>
<svg:path d="M95073886 111291236 L88876737 112383877 "/>
<svg:path d="M80023782.999728 82770594.000289 A500006.000000 500006.000000 0.0 0 0 80023783.000000 83770605.999711"/>
<svg:path d="M99044699.129450 102455162.680385 A500015.000000 500015.000000 0.0 0 0 98059862.192180 102628817.966157"/>
<svg:path d="M209240859 50689066 L209240868 52349068 "/>
<svg:path d="M99136734.964976 108737013.268651 A500041.000000 500041.000000 0.0 1 0 100121623.999004 108563354.000176"/>
<svg:path d="M88696902.999988 83770594.999991 A499995.000000 499995.000000 0.0 0 0 88696900.000000 82770605.000000"/>
<svg:path d="M80023783 82770602 L88696900 82770605 "/>
<svg:path d="M143303816.000000,114965963.000000 C135633818.000000,114975962.000000 141013820.000000,109365959.000000 117321837.000000,112954302.000000"/>
<svg:path d="M216566192.000000,106156053.000000 C216566187.000000,98689068.000000 213490866.000000,98689066.000000 213490869.000000,91699069.000000"/>
<svg:path d="M99044669 102455168 L100121624 108563354 "/>
<svg:path d="M88703089 111399071 L94900241 110306432 "/>
<svg:path d="M91896899.000016 102870604.000088 A500001.000000 500001.000000 0.0 0 0 92896901.000000 102870600.000000"/>
<svg:path d="M81054967 94841239 L88223880 94841237 "/>
<svg:path d="M96338517 92890845 L95140420 86095612 "/>
<svg:path d="M76344069.058537 67377662.183976 A2733998.000000 2733998.000000 0.0 0 0 74075817.756374 70062417.999173"/>
<svg:path d="M92896872 95541239 L92896901 102870600 "/>
<svg:path d="M88223886 95841236 L81054964 95841230 "/>
<svg:path d="M135500862.000000,40689072.000000 C128444920.000000,40774961.000000 127994924.000000,45349961.000000 114469924.000000,47674959.000000"/>
<svg:circle cx="117787912.000000" cy="100652347.000000" r="3301994.000000"/> 
<svg:path d="M92896872.999216 95541239.000056 A500003.000000 500003.000000 0.0 1 0 91896867.000784 95541239.000000"/>
<svg:path d="M207240869 48689064 L194040859 48689070 "/>
<svg:path d="M95073882.588675 111291216.621333 A499988.000000 499988.000000 0.0 1 0 94900241.019995 110306432.113212"/>
<svg:path d="M91896901.044521 84382723.999981 A500002.000000 500002.000000 0.0 0 0 92896904.955479 84382723.999981"/>
<svg:path d="M81109409.000000,110187348.000000 C80391166.000000,106741280.000000 74227848.000000,108582514.000000 74075817.000000,104782514.000000"/>
<svg:path d="M96338417.894782 92890862.439618 A500049.000000 500049.000000 0.0 1 0 97323322.769070 92717201.040800"/>
<svg:circle cx="175675854.000000" cy="51832515.000000" r="3301994.000000"/> 
<svg:path d="M205436102.000000,140007053.000000 C203710859.000000,141669066.000000 200180865.000000,139209064.000000 198755864.000000,137769068.000000"/>
</svg:g>
<svg:g style="fill:#000000; fill-opacity:0.0;  stroke:#000000; stroke-width:120000.000000; stroke-opacity:1;  stroke-linecap:round; stroke-linejoin:round;">
<svg:path d="M176024409 99963371 L177763076 100429245 "/>
<svg:path d="M178535816 100636301 L177759359 103534078 "/>
<svg:path d="M174475212 102654093 L175251669 99756316 "/>
<svg:path d="M176986619 103327023 L175247952 102861149 "/>
<svg:path d="M174475211.787115 102654092.942957 A400000.000000 400000.000000 0.0 0 0 175247952.212885 102861149.057043"/>
<svg:path d="M176024409.462885 99963371.124029 A400000.000000 400000.000000 0.0 0 0 175251668.787115 99756315.942957"/>
<svg:path d="M178535816.212885 100636301.057043 A400000.000000 400000.000000 0.0 0 0 177763075.787115 100429244.942957"/>
<svg:path d="M176986618.537115 103327022.875971 A400000.000000 400000.000000 0.0 0 0 177759359.212885 103534078.057043"/>
<svg:path d="M192128615 107318906 L193687461 108218906 "/>
<svg:path d="M189935795 109516982 L191435795 106918906 "/>
<svg:path d="M194380281 108618906 L192880281 111216982 "/>
<svg:path d="M192187461 110816982 L190628615 109916982 "/>
<svg:path d="M194380281.121135 108618906.069938 A400000.000000 400000.000000 0.0 0 0 193687460.878865 108218905.930062"/>
<svg:path d="M192128615.121135 107318906.069938 A400000.000000 400000.000000 0.0 0 0 191435794.878865 106918905.930062"/>
<svg:path d="M189935794.878865 109516981.930062 A400000.000000 400000.000000 0.0 0 0 190628615.121135 109916982.069938"/>
<svg:path d="M192187460.878865 110816981.930062 A400000.000000 400000.000000 0.0 0 0 192880281.121135 111216982.069938"/>
<svg:path d="M156548202 95704987 L156548202 98704987 "/>
<svg:path d="M155748202 98704987 L153948202 98704987 "/>
<svg:path d="M153948202 95704987 L155748202 95704987 "/>
<svg:path d="M153148202 98704987 L153148202 95704987 "/>
<svg:path d="M156548202.000000 95704987.000000 A400000.000000 400000.000000 0.0 0 0 155748202.000000 95704987.000000"/>
<svg:path d="M153148202.000000 98704987.000000 A400000.000000 400000.000000 0.0 0 0 153948202.000000 98704987.000000"/>
<svg:path d="M155748202.000000 98704987.000000 A400000.000000 400000.000000 0.0 0 0 156548202.000000 98704987.000000"/>
<svg:path d="M153948202.000000 95704987.000000 A400000.000000 400000.000000 0.0 0 0 153148202.000000 95704987.000000"/>
<svg:path d="M199814562 92132420 L198314562 94730496 "/>
<svg:path d="M197562896 90832420 L199121742 91732420 "/>
<svg:path d="M197621742 94330496 L196062896 93430496 "/>
<svg:path d="M195370076 93030496 L196870076 90432420 "/>
<svg:path d="M195370075.878865 93030495.930062 A400000.000000 400000.000000 0.0 0 0 196062896.121135 93430496.069938"/>
<svg:path d="M197562896.121135 90832420.069938 A400000.000000 400000.000000 0.0 0 0 196870075.878865 90432419.930062"/>
<svg:path d="M199814562.121135 92132420.069938 A400000.000000 400000.000000 0.0 0 0 199121741.878865 91732419.930062"/>
<svg:path d="M197621741.878865 94330495.930062 A400000.000000 400000.000000 0.0 0 0 198314562.121135 94730496.069938"/>
<svg:g>
</svg:g>
<svg:g>
</svg:g>
<svg:g>
</svg:g>
<svg:g>
</svg:g>
<svg:g>
</svg:g>
<svg:g>
</svg:g>
<svg:g>
</svg:g>
<svg:g>
</svg:g>
<svg:g>
</svg:g>
<svg:g>
</svg:g>
<svg:g>
</svg:g>
<svg:g>
</svg:g>
<svg:g>
</svg:g>
<svg:g>
</svg:g>
<svg:g>
</svg:g>
<svg:g>
</svg:g>
<svg:g>
</svg:g>
<svg:g>
</svg:g>
<svg:g>
</svg:g>
<svg:g>
</svg:g>
<svg:g>
</svg:g>
<svg:g>
</svg:g>
<svg:g>
</svg:g>
<svg:g>
</svg:g>
<svg:g>
</svg:g>
<svg:g>
</svg:g>
<svg:g>
</svg:g>
<svg:g>
</svg:g>
<svg:g>
</svg:g>
<svg:g>
</svg:g>
<svg:g>
</svg:g>
<svg:g>
</svg:g>
<svg:g>
</svg:g>
<svg:g>
</svg:g>
<svg:g>
</svg:g>
<svg:g>
</svg:g>
<svg:g>
</svg:g>
<svg:g>
</svg:g>
<svg:g>
</svg:g>
<svg:g>
</svg:g>
<svg:g>
</svg:g>
<svg:g>
</svg:g>
<svg:g>
</svg:g>
<svg:g>
</svg:g>
<svg:g>
</svg:g>
<svg:g>
</svg:g>
<svg:g>
</svg:g>
<svg:g>
</svg:g>
<svg:g>
</svg:g>
<svg:g>
</svg:g>
<svg:g>
</svg:g>
<svg:g>
</svg:g>
<svg:g>
</svg:g>
<svg:g>
</svg:g>
<svg:g>
</svg:g>
<svg:g>
</svg:g>
<svg:g>
</svg:g>
<svg:g>
</svg:g>
<svg:g>
</svg:g>
<svg:g>
</svg:g>
<svg:g>
</svg:g>
<svg:g>
</svg:g>
<svg:g>
</svg:g>
<svg:g>
</svg:g>
<svg:g>
</svg:g>
<svg:g>
</svg:g>
<svg:g>
</svg:g>
<svg:g>
</svg:g>
<svg:g>
</svg:g>
<svg:g>
</svg:g>
<svg:g>
</svg:g>
<svg:g>
</svg:g>
<svg:g>
</svg:g>
<svg:g>
</svg:g>
<svg:g>
</svg:g>
<svg:g>
</svg:g>
<svg:g>
</svg:g>
<svg:g>
</svg:g>
<svg:g>
</svg:g>
<svg:g>
</svg:g>
<svg:g>
</svg:g>
<svg:g>
</svg:g>
<svg:g>
</svg:g>
<svg:g>
</svg:g>
<svg:g>
</svg:g>
<svg:g>
</svg:g>
<svg:g>
</svg:g>
<svg:g>
</svg:g>
<svg:g>
</svg:g>
<svg:g>
</svg:g>
<svg:g>
</svg:g>
<svg:g>
</svg:g>
<svg:g>
</svg:g>
<svg:g>
</svg:g>
<svg:g>
</svg:g>
</svg:g> 
</svg:g></svg:g></svg>
