<?xml version="1.0" standalone="no"?>
 <!DOCTYPE svg PUBLIC "-//W3C//DTD SVG 1.1//EN" 
 "http://www.w3.org/Graphics/SVG/1.1/DTD/svg11.dtd"> 
<svg
  xmlns:svg="http://www.w3.org/2000/svg"
  xmlns="http://www.w3.org/2000/svg"
  xmlns:xlink="http://www.w3.org/1999/xlink"
  version="1.1"
  width="27.940000cm" height="21.590000cm" viewBox="0 0 279400000 215900000">
<title>SVG Picture created as hillside46-brd.svg date 2022/08/03 15:51:18 </title>
  <desc>Picture generated by PCBNEW </desc>
<g style="fill:#000000; fill-opacity:1.000000;stroke:#000000; stroke-opacity:1.000000;
stroke-linecap:round; stroke-linejoin:round;"
 transform="translate(0 0) scale(1 1)">
</g>
<g style="fill:#000000; fill-opacity:0.0; 
stroke:#000000; stroke-width:0.000000; stroke-opacity:1; 
stroke-linecap:round; stroke-linejoin:round;">
</g>
<g style="fill:#000000; fill-opacity:0.0; 
stroke:#000000; stroke-width:300000.000000; stroke-opacity:1; 
stroke-linecap:round; stroke-linejoin:round;">
<g transform="rotate(-359.999998 42467057.000000 159229323.000000)">
<text x="42467057.000000" y="159979323.000000"
textLength="8390000.000000" font-size="2000000.000000" lengthAdjust="spacingAndGlyphs"
text-anchor="middle" opacity="0">50 mm</text>
</g>
<g class="stroked-text"><desc>50 mm</desc>
<path d="M45395629 158407894
L46109915 158407894
L46181343 159122179
L46109915 159050751
L45967057 158979322
L45609915 158979322
L45467057 159050751
L45395629 159122180
L45324200 159265037
L45324200 159622180
L45395629 159765037
L45467058 159836465
L45609915 159907894
L45967058 159907894
L46109915 159836465
L46181343 159765037
" />
<path d="M44395629 158407894
L44252772 158407894
L44109915 158479322
L44038486 158550751
L43967057 158693608
L43895629 158979322
L43895629 159336465
L43967058 159622180
L44038486 159765037
L44109915 159836465
L44252772 159907894
L44395629 159907894
L44538486 159836465
L44609915 159765037
L44681343 159622180
L44752772 159336465
L44752772 158979322
L44681343 158693608
L44609915 158550751
L44538486 158479322
L44395629 158407894
" />
<path d="M42109915 159907894
L42109915 158907894
" />
<path d="M42109915 159050751
L42038486 158979323
L41895629 158907894
L41681343 158907894
L41538486 158979323
L41467057 159122180
L41467058 159907894
" />
<path d="M41467057 159122180
L41395629 158979323
L41252772 158907894
L41038486 158907894
L40895629 158979323
L40824200 159122180
L40824200 159907894
" />
<path d="M40109915 159907894
L40109915 158907894
" />
<path d="M40109915 159050751
L40038486 158979323
L39895629 158907894
L39681343 158907894
L39538486 158979323
L39467057 159122180
L39467058 159907894
" />
<path d="M39467057 159122180
L39395629 158979323
L39252772 158907894
L39038486 158907894
L38895629 158979323
L38824200 159122180
L38824200 159907894
" />
</g></g>
<g style="fill:#000000; fill-opacity:0.0; 
stroke:#000000; stroke-width:200000.000000; stroke-opacity:1; 
stroke-linecap:round; stroke-linejoin:round;">
<path d="M67377057 157779258
L67377057 159815742
" />
<path d="M17557057 157779261
L17557057 159815745
" />
<path d="M67377057 159229322
L47367057 159229323
" />
<path d="M37567057 159229324
L17557057 159229325
" />
<path d="M67377057 159229322
L66250553 159815743
" />
<path d="M67377057 159229322
L66250553 158642901
" />
<path d="M17557057 159229325
L18683561 158642904
" />
<path d="M17557057 159229325
L18683561 159815746
" />
</g>
<g style="fill:#000000; fill-opacity:0.0; 
stroke:#000000; stroke-width:150000.000000; stroke-opacity:1; 
stroke-linecap:round; stroke-linejoin:round;">
<path d="M179065614 114172660
L181583512 99892947
" />
<path d="M179876773 115331116
L195141294 118022662
" />
<path d="M198006489 101773334
L182741968 99081788
" />
<path d="M196299750 117211503
L198817648 102931790
" />
<path d="M182741967.960482 99081788.224119 A999999.000000 999999.000000 0.0 0 0 181583513.193965 99892947.210528" />
<path d="M198817648.348751 102931790.061493 A1000003.000000 1000003.000000 0.0 0 0 198006488.850416 101773334.848318" />
<path d="M179065614.209157 114172660.036880 A1000000.000000 1000000.000000 0.0 0 0 179876773.067034 115331115.619832" />
<path d="M195141293.938507 118022662.348751 A1000003.000000 1000003.000000 0.0 0 0 196299749.151682 117211502.850416" />
<path d="M180279952 98647663
L165015431 95956117
" />
<path d="M162150236 112205445
L177414757 114896991
" />
<path d="M161339077 111046989
L163856975 96767276
" />
<path d="M178573213 114085832
L181091111 99806119
" />
<path d="M177414756.938507 114896991.348751 A1000003.000000 1000003.000000 0.0 0 0 178573212.151682 114085831.850416" />
<path d="M165015430.960482 95956117.224119 A999999.000000 999999.000000 0.0 0 0 163856976.193965 96767276.210528" />
<path d="M181091111.348751 99806119.061493 A1000003.000000 1000003.000000 0.0 0 0 180279951.850416 98647663.848318" />
<path d="M161339077.209157 111046989.036880 A1000000.000000 1000000.000000 0.0 0 0 162150236.067034 112205444.619832" />
<path d="M204721682 69448321
L202203784 83728034
" />
<path d="M185780807 81847647
L201045328 84539193
" />
<path d="M187487546 66409478
L184969648 80689191
" />
<path d="M203910523 68289865
L188646002 65598319
" />
<path d="M204721681.790843 69448320.963120 A1000000.000000 1000000.000000 0.0 0 0 203910522.932966 68289865.380168" />
<path d="M201045328.039518 84539192.775881 A999999.000000 999999.000000 0.0 0 0 202203782.806035 83728033.789472" />
<path d="M184969647.651249 80689190.938507 A1000003.000000 1000003.000000 0.0 0 0 185780807.149584 81847646.151682" />
<path d="M188646002.061493 65598318.651249 A1000003.000000 1000003.000000 0.0 0 0 187487546.848318 66409478.149584" />
<path d="M166398953 48758106
L150957935 47407192
" />
<path d="M167307992 49841456
L166044233 64286279
" />
<path d="M149519865 63844404
L164960883 65195318
" />
<path d="M149874585 48316231
L148610826 62761054
" />
<path d="M164960883.028499 65195317.674259 A999999.000000 999999.000000 0.0 0 0 166044232.761082 64286278.979098" />
<path d="M150957934.995616 47407192.050110 A1000003.000000 1000003.000000 0.0 0 0 149874584.578651 48316230.963135" />
<path d="M148610826.050110 62761054.004384 A1000003.000000 1000003.000000 0.0 0 0 149519864.963135 63844404.421349" />
<path d="M167307991.678049 49841455.971833 A1000000.000000 1000000.000000 0.0 0 0 166398953.058657 48758105.329547" />
<path d="M129159131 57439062
L144659131 57439062
" />
<path d="M128159131 41939062
L128159131 56439062
" />
<path d="M145659131 41939062
L145659131 56439062
" />
<path d="M144659131 40939062
L129159131 40939062
" />
<path d="M128159131.000005 56439062.000000 A1000003.000000 1000003.000000 0.0 0 0 129159131.000000 57439061.999995" />
<path d="M144659131.000000 57439062.000000 A1000000.000000 1000000.000000 0.0 0 0 145659131.000000 56439062.000000" />
<path d="M145659131.000000 41939062.000000 A1000000.000000 1000000.000000 0.0 0 0 144659131.000000 40939062.000000" />
<path d="M129159131.000000 40939062.000005 A1000003.000000 1000003.000000 0.0 0 0 128159131.000005 41939062.000000" />
<path d="M184043127 83064391
L181525229 97344104
" />
<path d="M183231968 81905935
L167967447 79214389
" />
<path d="M165102252 95463717
L180366773 98155263
" />
<path d="M166808991 80025548
L164291093 94305261
" />
<path d="M180366773.039518 98155262.775881 A999999.000000 999999.000000 0.0 0 0 181525227.806035 97344103.789472" />
<path d="M164291092.651249 94305260.938507 A1000003.000000 1000003.000000 0.0 0 0 165102252.149584 95463716.151682" />
<path d="M184043126.790843 83064390.963120 A1000000.000000 1000000.000000 0.0 0 0 183231967.932966 81905935.380168" />
<path d="M167967447.061493 79214388.651249 A1000003.000000 1000003.000000 0.0 0 0 166808991.848318 80025548.149584" />
<path d="M165826342 66776761
L164562583 81221584
" />
<path d="M148392935 65251536
L147129176 79696359
" />
<path d="M148038215 80779709
L163479233 82130623
" />
<path d="M164917303 65693411
L149476285 64342497
" />
<path d="M147129176.050110 79696359.004384 A1000003.000000 1000003.000000 0.0 0 0 148038214.963135 80779709.421349" />
<path d="M165826341.678049 66776760.971833 A1000000.000000 1000000.000000 0.0 0 0 164917303.058657 65693410.329547" />
<path d="M163479233.028499 82130622.674259 A999999.000000 999999.000000 0.0 0 0 164562582.761082 81221583.979098" />
<path d="M149476284.995616 64342497.050110 A1000003.000000 1000003.000000 0.0 0 0 148392934.578651 65251535.963135" />
<path d="M144659138 57939064
L129159138 57939064
" />
<path d="M129159138 74439064
L144659138 74439064
" />
<path d="M145659138 58939064
L145659138 73439064
" />
<path d="M128159138 58939064
L128159138 73439064
" />
<path d="M145659138.000000 58939064.000000 A1000000.000000 1000000.000000 0.0 0 0 144659138.000000 57939064.000000" />
<path d="M128159138.000005 73439064.000000 A1000003.000000 1000003.000000 0.0 0 0 129159138.000000 74439063.999995" />
<path d="M144659138.000000 74439064.000000 A1000000.000000 1000000.000000 0.0 0 0 145659138.000000 73439064.000000" />
<path d="M129159138.000000 57939064.000005 A1000003.000000 1000003.000000 0.0 0 0 128159138.000005 58939064.000000" />
<path d="M163435663 82628718
L147994645 81277804
" />
<path d="M146911295 82186843
L145647536 96631666
" />
<path d="M164344702 83712068
L163080943 98156891
" />
<path d="M146556575 97715016
L161997593 99065930
" />
<path d="M164344701.678049 83712067.971833 A1000000.000000 1000000.000000 0.0 0 0 163435663.058657 82628717.329547" />
<path d="M147994644.995616 81277804.050110 A1000003.000000 1000003.000000 0.0 0 0 146911294.578651 82186842.963135" />
<path d="M161997593.028499 99065929.674259 A999999.000000 999999.000000 0.0 0 0 163080942.761082 98156890.979098" />
<path d="M145647536.050110 96631666.004384 A1000003.000000 1000003.000000 0.0 0 0 146556574.963135 97715016.421349" />
<path d="M129159136 91439063
L144659136 91439063
" />
<path d="M128159136 75939063
L128159136 90439063
" />
<path d="M145659136 75939063
L145659136 90439063
" />
<path d="M144659136 74939063
L129159136 74939063
" />
<path d="M128159136.000005 90439063.000000 A1000003.000000 1000003.000000 0.0 0 0 129159136.000000 91439062.999995" />
<path d="M129159136.000000 74939063.000005 A1000003.000000 1000003.000000 0.0 0 0 128159136.000005 75939063.000000" />
<path d="M144659136.000000 91439063.000000 A1000000.000000 1000000.000000 0.0 0 0 145659136.000000 90439063.000000" />
<path d="M145659136.000000 75939063.000000 A1000000.000000 1000000.000000 0.0 0 0 144659136.000000 74939063.000000" />
<path d="M110159134 47439071
L110159134 61939071
" />
<path d="M127659134 47439071
L127659134 61939071
" />
<path d="M111159134 62939071
L126659134 62939071
" />
<path d="M126659134 46439071
L111159134 46439071
" />
<path d="M111159134.000000 46439071.000005 A1000003.000000 1000003.000000 0.0 0 0 110159134.000005 47439071.000000" />
<path d="M126659134.000000 62939071.000000 A1000000.000000 1000000.000000 0.0 0 0 127659134.000000 61939071.000000" />
<path d="M110159134.000005 61939071.000000 A1000003.000000 1000003.000000 0.0 0 0 111159134.000000 62939070.999995" />
<path d="M127659134.000000 47439071.000000 A1000000.000000 1000000.000000 0.0 0 0 126659134.000000 46439071.000000" />
<path d="M92159130 49939063
L92159130 64439063
" />
<path d="M109659130 49939063
L109659130 64439063
" />
<path d="M93159130 65439063
L108659130 65439063
" />
<path d="M108659130 48939063
L93159130 48939063
" />
<path d="M93159130.000000 48939063.000005 A1000003.000000 1000003.000000 0.0 0 0 92159130.000005 49939063.000000" />
<path d="M108659130.000000 65439063.000000 A1000000.000000 1000000.000000 0.0 0 0 109659130.000000 64439063.000000" />
<path d="M92159130.000005 64439063.000000 A1000003.000000 1000003.000000 0.0 0 0 93159130.000000 65439062.999995" />
<path d="M109659130.000000 49939063.000000 A1000000.000000 1000000.000000 0.0 0 0 108659130.000000 48939063.000000" />
<path d="M110159142 64439068
L110159142 78939068
" />
<path d="M126659142 63439068
L111159142 63439068
" />
<path d="M127659142 64439068
L127659142 78939068
" />
<path d="M111159142 79939068
L126659142 79939068
" />
<path d="M126659142.000000 79939068.000000 A1000000.000000 1000000.000000 0.0 0 0 127659142.000000 78939068.000000" />
<path d="M110159142.000005 78939068.000000 A1000003.000000 1000003.000000 0.0 0 0 111159142.000000 79939067.999995" />
<path d="M127659142.000000 64439068.000000 A1000000.000000 1000000.000000 0.0 0 0 126659142.000000 63439068.000000" />
<path d="M111159142.000000 63439068.000005 A1000003.000000 1000003.000000 0.0 0 0 110159142.000005 64439068.000000" />
<path d="M108659138 65939064
L93159138 65939064
" />
<path d="M93159138 82439064
L108659138 82439064
" />
<path d="M92159138 66939064
L92159138 81439064
" />
<path d="M109659138 66939064
L109659138 81439064
" />
<path d="M108659138.000000 82439064.000000 A1000000.000000 1000000.000000 0.0 0 0 109659138.000000 81439064.000000" />
<path d="M93159138.000000 65939064.000005 A1000003.000000 1000003.000000 0.0 0 0 92159138.000005 66939064.000000" />
<path d="M109659138.000000 66939064.000000 A1000000.000000 1000000.000000 0.0 0 0 108659138.000000 65939064.000000" />
<path d="M92159138.000005 81439064.000000 A1000003.000000 1000003.000000 0.0 0 0 93159138.000000 82439063.999995" />
<path d="M111159135 96939063
L126659135 96939063
" />
<path d="M126659135 80439063
L111159135 80439063
" />
<path d="M127659135 81439063
L127659135 95939063
" />
<path d="M110159135 81439063
L110159135 95939063
" />
<path d="M126659135.000000 96939063.000000 A1000000.000000 1000000.000000 0.0 0 0 127659135.000000 95939063.000000" />
<path d="M110159135.000005 95939063.000000 A1000003.000000 1000003.000000 0.0 0 0 111159135.000000 96939062.999995" />
<path d="M111159135.000000 80439063.000005 A1000003.000000 1000003.000000 0.0 0 0 110159135.000005 81439063.000000" />
<path d="M127659135.000000 81439063.000000 A1000000.000000 1000000.000000 0.0 0 0 126659135.000000 80439063.000000" />
<path d="M109659134 83939061
L109659134 98439061
" />
<path d="M92159134 83939061
L92159134 98439061
" />
<path d="M108659134 82939061
L93159134 82939061
" />
<path d="M93159134 99439061
L108659134 99439061
" />
<path d="M93159134.000000 82939061.000005 A1000003.000000 1000003.000000 0.0 0 0 92159134.000005 83939061.000000" />
<path d="M108659134.000000 99439061.000000 A1000000.000000 1000000.000000 0.0 0 0 109659134.000000 98439061.000000" />
<path d="M92159134.000005 98439061.000000 A1000003.000000 1000003.000000 0.0 0 0 93159134.000000 99439060.999995" />
<path d="M109659134.000000 83939061.000000 A1000000.000000 1000000.000000 0.0 0 0 108659134.000000 82939061.000000" />
<path d="M138142368 113004480
L138142368 98504480
" />
<path d="M137142368 97504480
L121642368 97504480
" />
<path d="M121642368 114004480
L137142368 114004480
" />
<path d="M120642368 113004480
L120642368 98504480
" />
<path d="M121642368.000000 97504480.000024 A1000006.000000 1000006.000000 0.0 0 0 120642355.000018 98504479.999922" />
<path d="M137142368.000000 114004479.999995 A1000003.000000 1000003.000000 0.0 0 0 138142367.999995 113004480.000000" />
<path d="M138142367.999995 98504480.000000 A1000003.000000 1000003.000000 0.0 0 0 137142368.000000 97504480.000005" />
<path d="M120642368.000018 113004480.000000 A999993.000000 999993.000000 0.0 0 0 121642367.999993 114004478.999976" />
<path d="M186995145 66322659
L184477247 80602372
" />
<path d="M169761009 63283816
L167243111 77563529
" />
<path d="M168054270 78721985
L183318791 81413531
" />
<path d="M186183986 65164203
L170919465 62472657
" />
<path d="M170919465.061493 62472656.651249 A1000003.000000 1000003.000000 0.0 0 0 169761009.848318 63283816.149584" />
<path d="M183318791.039518 81413530.775881 A999999.000000 999999.000000 0.0 0 0 184477245.806035 80602371.789472" />
<path d="M186995144.790843 66322658.963120 A1000000.000000 1000000.000000 0.0 0 0 186183985.932966 65164203.380168" />
<path d="M167243110.651249 77563528.938507 A1000003.000000 1000003.000000 0.0 0 0 168054270.149584 78721984.151682" />
<path d="M95383575 105585299
L102633575 118142667
" />
<path d="M88844156 127258693
L102267550 119508693
" />
<path d="M94017550 105219273
L80594156 112969273
" />
<path d="M80228131 114335299
L87478131 126892667
" />
<path d="M80594156.191184 112969273.331139 A1000003.000000 1000003.000000 0.0 0 0 80228130.666075 114335299.192790" />
<path d="M102267550.241831 119508693.418864 A1000001.000000 1000001.000000 0.0 0 0 102633576.168864 118142666.325156" />
<path d="M95383575.302838 105585298.825156 A1000000.000000 1000000.000000 0.0 0 0 94017550.258169 105219273.447162" />
<path d="M87478130.581141 126892667.241830 A1000003.000000 1000003.000000 0.0 0 0 88844155.759779 127258692.583922" />
<path d="M86899277 90804274
L94149277 103361643
" />
<path d="M80359858 112477668
L93783251 104727668
" />
<path d="M85533251 90438249
L72109858 98188249
" />
<path d="M71743832 99554274
L78993832 112111643
" />
<path d="M78993832.331139 112111642.808816 A1000003.000000 1000003.000000 0.0 0 0 80359858.192790 112477668.333925" />
<path d="M93783251.027717 104727668.048008 A1000006.000000 1000006.000000 0.0 0 0 94149287.896128 103361636.709213" />
<path d="M86899277.070774 90804273.959139 A999994.000000 999994.000000 0.0 0 0 85533251.111067 90438249.192371" />
<path d="M72109857.758170 98188248.581141 A1000003.000000 1000003.000000 0.0 0 0 71743832.416078 99554273.759779" />
<path d="M87082493 127319648
L76829445 117066600
" />
<path d="M74708125 139694016
L64455077 129440968
" />
<path d="M75415232 117066600
L64455077 128026755
" />
<path d="M76122338 139694016
L87082493 128733861
" />
<path d="M74708124.718813 139694016.281186 A1000000.000000 1000000.000000 0.0 0 0 76122338.781187 139694016.781187" />
<path d="M64455076.925920 128026754.925920 A999999.000000 999999.000000 0.0 0 0 64455077.425920 129440967.574079" />
<path d="M87082492.695395 128733860.695397 A1000002.000000 1000002.000000 0.0 0 0 87082492.195395 127319648.804600" />
<path d="M76829444.902504 117066600.097496 A1000003.000000 1000003.000000 0.0 0 0 75415231.597499 117066599.597496" />
<path d="M182828791 98589386
L198093312 101280932
" />
<path d="M182017632 97430930
L184535530 83151217
" />
<path d="M200958507 85031604
L185693986 82340058
" />
<path d="M199251768 100469773
L201769666 86190060
" />
<path d="M185693985.960482 82340058.224119 A999999.000000 999999.000000 0.0 0 0 184535531.193965 83151217.210528" />
<path d="M182017632.209157 97430930.036880 A1000000.000000 1000000.000000 0.0 0 0 182828791.067034 98589385.619832" />
<path d="M198093311.938507 101280932.348751 A1000003.000000 1000003.000000 0.0 0 0 199251767.151682 100469772.850416" />
<path d="M201769666.348751 86190060.061493 A1000003.000000 1000003.000000 0.0 0 0 200958506.850416 85031604.848318" />
<path d="M120127425 113314020
L116374549 99308095
" />
<path d="M103223723 117843353
L99470847 103837428
" />
<path d="M115149804 98600988
L100177954 102612684
" />
<path d="M104448468 118550460
L119420318 114538764
" />
<path d="M103223723.150799 117843352.959594 A1000000.000000 1000000.000000 0.0 0 0 104448467.959594 118550459.849201" />
<path d="M100177954.049226 102612684.183712 A999999.000000 999999.000000 0.0 0 0 99470848.116725 103837427.700775" />
<path d="M116374548.880948 99308095.031900 A1000003.000000 1000003.000000 0.0 0 0 115149804.129974 98600988.485077" />
<path d="M119420318.026269 114538764.098037 A1000002.000000 1000002.000000 0.0 0 0 120127424.482010 113314020.138793" />
<g >
</g>
<g >
</g>
<g >
</g>
<g >
</g>
<g >
</g>
<g >
</g>
<g >
</g>
<g >
</g>
<g >
</g>
<g >
</g>
<g >
</g>
<g >
</g>
<g >
</g>
<g >
</g>
<g >
</g>
<g >
</g>
<g >
</g>
<g >
</g>
<g >
</g>
<g >
</g>
<g >
</g>
<g >
</g>
<g >
</g>
<g >
</g>
<g >
</g>
<g >
</g>
<g >
</g>
<g >
</g>
<g >
</g>
<g >
</g>
<g >
</g>
<g >
</g>
<g >
</g>
<g >
</g>
<g >
</g>
<g >
</g>
<g >
</g>
<g >
</g>
<g >
</g>
<g >
</g>
<g >
</g>
<g >
</g>
<g >
</g>
<g >
</g>
<g >
</g>
<g >
</g>
<g >
</g>
<g >
</g>
<g >
</g>
<g >
</g>
<g >
</g>
<g >
</g>
<g >
</g>
<g >
</g>
<g >
</g>
<g >
</g>
<g >
</g>
<g >
</g>
<g >
</g>
<g >
</g>
<g >
</g>
<g >
</g>
<g >
</g>
<g >
</g>
<g >
</g>
<g >
</g>
<g >
</g>
<g >
</g>
<g >
</g>
<g >
</g>
<g >
</g>
<g >
</g>
<g >
</g>
<g >
</g>
<g >
</g>
<g >
</g>
<g >
</g>
<g >
</g>
<g >
</g>
<g >
</g>
<g >
</g>
<g >
</g>
<g >
</g>
<g >
</g>
<g >
</g>
<g >
</g>
<g >
</g>
<g >
</g>
<g >
</g>
<g >
</g>
<g >
</g>
<g >
</g>
<g >
</g>
<g >
</g>
<g >
</g>
</g>
<g style="fill:#000000; fill-opacity:0.0; 
stroke:#000000; stroke-width:150000.000000; stroke-opacity:1; 
stroke-linecap:round; stroke-linejoin:round;">
</g>
<g style="fill:#000000; fill-opacity:0.0; 
stroke:#000000; stroke-width:50000.000000; stroke-opacity:1; 
stroke-linecap:round; stroke-linejoin:round;">
<path d="M130780076 40689064
L143899138 40689072
" />
<path d="M64682657 130722925
L73963898 140007053
" />
<path d="M205324182 70062418
L205324183 104782514
" />
<path d="M72159131.000000 48689064.000240 A2000036.000000 2000036.000000 0.0 0 0 70159064.000289 50689065.998691" />
<path d="M62833811 124479813
L62833808 106156053
" />
<path d="M184259580.122023 86095612.021435 A500021.000000 500021.000000 0.0 0 0 183274731.156380 85921956.886254" />
<path d="M183274777 85921965
L182076677 92717201
" />
<path d="M65909131 91699069
L65909137 61984597
" />
<path d="M187503099 84382724
L187503103 69230652
" />
<path d="M111230078.000000,44974958.000000 C122905077.000000,44249959.000000 122380078.000000,40649958.000000 130780076.000000,40689064.000000" />
<path d="M190703097 83770597
L199376217 83770606
" />
<path d="M190523262.924412 112383877.429669 A500040.000000 500040.000000 0.0 0 0 190696925.139295 111398990.996497" />
<path d="M194026233.934884 118587613.369263 A2749998.000000 2749998.000000 0.0 0 0 197212019.788150 116356929.663035" />
<path d="M164930076.000000,47674959.000000 C175205077.000000,50324958.000000 170430078.000000,61649958.000000 190255076.000000,65124958.000000" />
<path d="M186503093 69230649
L186503095 84382724
" />
<path d="M64682657.000000,130722925.000000 C62989134.000000,129099069.000000 62839134.000000,126329067.000000 62833811.000000,124479813.000000" />
<path d="M190255076 65124958
L203055941 67377604
" />
<path d="M198345036.000009 95841229.973106 A500030.000000 500030.000000 0.0 1 0 198345032.976962 94841170.027895" />
<path d="M85359141.000000,48689070.000000 C100180076.000000,48549958.000000 103180076.000000,45449963.000000 111230078.000000,44974958.000000" />
<path d="M80644136.000000,137769068.000000 C89976536.000000,130266561.000000 99822210.000000,114740366.000000 136096184.000000,114965963.000000" />
<path d="M65909137.000000,61984597.000000 C65909133.000000,58239064.000000 70159134.000000,55939063.000000 70159132.000000,52349068.000000" />
<path d="M187503102.997696 69230652.000000 A500003.000000 500003.000000 0.0 0 0 186503097.002601 69230649.000408" />
<path d="M191176120.000001 94841237.006400 A499963.000000 499963.000000 0.0 0 0 191176114.012556 95841162.992606" />
<path d="M162078163 112954302
L194026234 118587613
" />
<path d="M180263184 108736999
L181340138 102628818
" />
<path d="M187503090 102870604
L187503133 95541239
" />
<path d="M197211982 116356923
L198290591 110187348
" />
<path d="M184326114 111291236
L190523263 112383877
" />
<path d="M199376217.000000 83770605.999711 A500006.000000 500006.000000 0.0 0 0 199376217.000272 82770594.000289" />
<path d="M181340137.807820 102628817.966157 A500015.000000 500015.000000 0.0 0 0 180355300.870550 102455162.680385" />
<path d="M70159141 50689066
L70159132 52349068
" />
<path d="M179278376.000996 108563354.000176 A500041.000000 500041.000000 0.0 1 0 180263265.035024 108737013.268651" />
<path d="M190703100.000000 82770605.000000 A499995.000000 499995.000000 0.0 0 0 190703097.000012 83770594.999991" />
<path d="M199376217 82770602
L190703100 82770605
" />
<path d="M136096184.000000,114965963.000000 C143766182.000000,114975962.000000 138386180.000000,109365959.000000 162078163.000000,112954302.000000" />
<path d="M62833808.000000,106156053.000000 C62833813.000000,98689068.000000 65909134.000000,98689066.000000 65909131.000000,91699069.000000" />
<path d="M180355331 102455168
L179278376 108563354
" />
<path d="M190696911 111399071
L184499759 110306432
" />
<path d="M186503099.000000 102870600.000000 A500001.000000 500001.000000 0.0 0 0 187503100.999984 102870604.000088" />
<path d="M198345033 94841239
L191176120 94841237
" />
<path d="M183061483 92890845
L184259580 86095612
" />
<path d="M205324182.243626 70062417.999173 A2733998.000000 2733998.000000 0.0 0 0 203055930.941463 67377662.183976" />
<path d="M186503128 95541239
L186503099 102870600
" />
<path d="M191176114 95841236
L198345036 95841230
" />
<path d="M143899138.000000,40689072.000000 C150955080.000000,40774961.000000 151405076.000000,45349961.000000 164930076.000000,47674959.000000" />
<circle cx="161612088.000000" cy="100652347.000000" r="3301994.000000" /> 
<path d="M187503132.999216 95541239.000000 A500003.000000 500003.000000 0.0 1 0 186503127.000784 95541239.000056" />
<path d="M72159131 48689064
L85359141 48689070
" />
<path d="M184499758.980005 110306432.113212 A499988.000000 499988.000000 0.0 1 0 184326117.411325 111291216.621333" />
<path d="M186503095.044521 84382723.999981 A500002.000000 500002.000000 0.0 0 0 187503098.955479 84382723.999981" />
<path d="M198290591.000000,110187348.000000 C199008834.000000,106741280.000000 205172152.000000,108582514.000000 205324183.000000,104782514.000000" />
<path d="M182076677.230930 92717201.040800 A500049.000000 500049.000000 0.0 1 0 183061582.105218 92890862.439618" />
<circle cx="103724146.000000" cy="51832515.000000" r="3301994.000000" /> 
<path d="M73963898.000000,140007053.000000 C75689141.000000,141669066.000000 79219135.000000,139209064.000000 80644136.000000,137769068.000000" />
</g>
<g style="fill:#000000; fill-opacity:0.0; 
stroke:#000000; stroke-width:120000.000000; stroke-opacity:1; 
stroke-linecap:round; stroke-linejoin:round;">
<path d="M103375591 99963371
L101636924 100429245
" />
<path d="M100864184 100636301
L101640641 103534078
" />
<path d="M104924788 102654093
L104148331 99756316
" />
<path d="M102413381 103327023
L104152048 102861149
" />
<path d="M104152047.787115 102861149.057043 A400000.000000 400000.000000 0.0 1 0 104924788.212885 102654092.942957" />
<path d="M104148331.212885 99756315.942957 A400000.000000 400000.000000 0.0 0 0 103375590.537115 99963371.124029" />
<path d="M101636924.212885 100429244.942957 A400000.000000 400000.000000 0.0 0 0 100864183.787115 100636301.057043" />
<path d="M101640640.787115 103534078.057043 A400000.000000 400000.000000 0.0 0 0 102413381.462885 103327022.875971" />
<path d="M87271385 107318906
L85712539 108218906
" />
<path d="M89464205 109516982
L87964205 106918906
" />
<path d="M85019719 108618906
L86519719 111216982
" />
<path d="M87212539 110816982
L88771385 109916982
" />
<path d="M85712539.121135 108218905.930062 A400000.000000 400000.000000 0.0 0 0 85019718.878865 108618906.069938" />
<path d="M87964205.121135 106918905.930062 A400000.000000 400000.000000 0.0 0 0 87271384.878865 107318906.069938" />
<path d="M88771384.878865 109916982.069938 A400000.000000 400000.000000 0.0 1 0 89464205.121135 109516981.930062" />
<path d="M86519718.878865 111216982.069938 A400000.000000 400000.000000 0.0 1 0 87212539.121135 110816981.930062" />
<path d="M122851798 95704987
L122851798 98704987
" />
<path d="M123651798 98704987
L125451798 98704987
" />
<path d="M125451798 95704987
L123651798 95704987
" />
<path d="M126251798 98704987
L126251798 95704987
" />
<path d="M123651798.000000 95704987.000000 A400000.000000 400000.000000 0.0 0 0 122851798.000000 95704987.000000" />
<path d="M125451798.000000 98704987.000000 A400000.000000 400000.000000 0.0 0 0 126251798.000000 98704987.000000" />
<path d="M122851798.000000 98704987.000000 A400000.000000 400000.000000 0.0 0 0 123651798.000000 98704987.000000" />
<path d="M126251798.000000 95704987.000000 A400000.000000 400000.000000 0.0 0 0 125451798.000000 95704987.000000" />
<path d="M79585438 92132420
L81085438 94730496
" />
<path d="M81837104 90832420
L80278258 91732420
" />
<path d="M81778258 94330496
L83337104 93430496
" />
<path d="M84029924 93030496
L82529924 90432420
" />
<path d="M83337103.878865 93430496.069938 A400000.000000 400000.000000 0.0 1 0 84029924.121135 93030495.930062" />
<path d="M82529924.121135 90432419.930062 A400000.000000 400000.000000 0.0 0 0 81837103.878865 90832420.069938" />
<path d="M80278258.121135 91732419.930062 A400000.000000 400000.000000 0.0 0 0 79585437.878865 92132420.069938" />
<path d="M81085437.878865 94730496.069938 A400000.000000 400000.000000 0.0 1 0 81778258.121135 94330495.930062" />
<g >
</g>
<g >
</g>
<g >
</g>
<g >
</g>
<g >
</g>
<g >
</g>
<g >
</g>
<g >
</g>
<g >
</g>
<g >
</g>
<g >
</g>
<g >
</g>
<g >
</g>
<g >
</g>
<g >
</g>
<g >
</g>
<g >
</g>
<g >
</g>
<g >
</g>
<g >
</g>
<g >
</g>
<g >
</g>
<g >
</g>
<g >
</g>
<g >
</g>
<g >
</g>
<g >
</g>
<g >
</g>
<g >
</g>
<g >
</g>
<g >
</g>
<g >
</g>
<g >
</g>
<g >
</g>
<g >
</g>
<g >
</g>
<g >
</g>
<g >
</g>
<g >
</g>
<g >
</g>
<g >
</g>
<g >
</g>
<g >
</g>
<g >
</g>
<g >
</g>
<g >
</g>
<g >
</g>
<g >
</g>
<g >
</g>
<g >
</g>
<g >
</g>
<g >
</g>
<g >
</g>
<g >
</g>
<g >
</g>
<g >
</g>
<g >
</g>
<g >
</g>
<g >
</g>
<g >
</g>
<g >
</g>
<g >
</g>
<g >
</g>
<g >
</g>
<g >
</g>
<g >
</g>
<g >
</g>
<g >
</g>
<g >
</g>
<g >
</g>
<g >
</g>
<g >
</g>
<g >
</g>
<g >
</g>
<g >
</g>
<g >
</g>
<g >
</g>
<g >
</g>
<g >
</g>
<g >
</g>
<g >
</g>
<g >
</g>
<g >
</g>
<g >
</g>
<g >
</g>
<g >
</g>
<g >
</g>
<g >
</g>
<g >
</g>
<g >
</g>
<g >
</g>
<g >
</g>
<g >
</g>
<g >
</g>
<g >
</g>
</g> 
</svg>
