%TF.GenerationSoftware,KiCad,Pcbnew,(5.1.10-1-10_14)*%
%TF.CreationDate,2021-09-20T15:17:19-07:00*%
%TF.ProjectId,redwood,72656477-6f6f-4642-9e6b-696361645f70,rev?*%
%TF.SameCoordinates,Original*%
%TF.FileFunction,Legend,Bot*%
%TF.FilePolarity,Positive*%
%FSLAX46Y46*%
G04 Gerber Fmt 4.6, Leading zero omitted, Abs format (unit mm)*
G04 Created by KiCad (PCBNEW (5.1.10-1-10_14)) date 2021-09-20 15:17:19*
%MOMM*%
%LPD*%
G01*
G04 APERTURE LIST*
%ADD10C,0.120000*%
%ADD11C,0.100000*%
%ADD12C,0.150000*%
%ADD13C,0.200000*%
%ADD14C,0.125000*%
%ADD15R,0.900000X1.200000*%
%ADD16C,0.800000*%
%ADD17C,2.000000*%
%ADD18R,3.200000X2.000000*%
%ADD19R,2.000000X2.000000*%
%ADD20C,1.700000*%
%ADD21C,3.400000*%
%ADD22R,1.700000X0.820000*%
%ADD23R,1.700000X1.700000*%
%ADD24O,1.700000X1.700000*%
%ADD25C,5.000000*%
%ADD26C,1.524000*%
%ADD27C,1.200000*%
%ADD28C,2.100000*%
%ADD29C,1.750000*%
%ADD30O,2.500000X1.700000*%
%ADD31C,4.400000*%
G04 APERTURE END LIST*
D10*
%TO.C,D6*%
X143150000Y-116000000D02*
X143150000Y-114000000D01*
X143150000Y-116000000D02*
X139250000Y-116000000D01*
X143150000Y-114000000D02*
X139250000Y-114000000D01*
%TO.C,K24*%
X219276922Y-143878076D02*
X216448495Y-141049649D01*
X220691136Y-142463862D02*
X217862709Y-139635435D01*
X219276922Y-143878076D02*
X220691136Y-142463862D01*
%TO.C,K23*%
X203263436Y-130693831D02*
X199799334Y-128693831D01*
X204263436Y-128961781D02*
X200799334Y-126961781D01*
X203263436Y-130693831D02*
X204263436Y-128961781D01*
%TO.C,K22*%
X184285793Y-122114151D02*
X180422089Y-121078874D01*
X184803431Y-120182299D02*
X180939727Y-119147023D01*
X184285793Y-122114151D02*
X184803431Y-120182299D01*
%TO.C,K21*%
X163850000Y-118500000D02*
X159850000Y-118500000D01*
X163850000Y-116500000D02*
X159850000Y-116500000D01*
X163850000Y-118500000D02*
X163850000Y-116500000D01*
%TO.C,K19*%
X211763436Y-115971399D02*
X208299334Y-113971399D01*
X212763436Y-114239349D02*
X209299334Y-112239349D01*
X211763436Y-115971399D02*
X212763436Y-114239349D01*
%TO.C,K18*%
X192350000Y-104000000D02*
X188350000Y-104000000D01*
X192350000Y-102000000D02*
X188350000Y-102000000D01*
X192350000Y-104000000D02*
X192350000Y-102000000D01*
%TO.C,K17*%
X174350000Y-101500000D02*
X170350000Y-101500000D01*
X174350000Y-99500000D02*
X170350000Y-99500000D01*
X174350000Y-101500000D02*
X174350000Y-99500000D01*
%TO.C,K16*%
X156350000Y-96000000D02*
X152350000Y-96000000D01*
X156350000Y-94000000D02*
X152350000Y-94000000D01*
X156350000Y-96000000D02*
X156350000Y-94000000D01*
%TO.C,K15*%
X138350000Y-103000000D02*
X134350000Y-103000000D01*
X138350000Y-101000000D02*
X134350000Y-101000000D01*
X138350000Y-103000000D02*
X138350000Y-101000000D01*
%TO.C,K14*%
X120350000Y-115000000D02*
X116350000Y-115000000D01*
X120350000Y-113000000D02*
X116350000Y-113000000D01*
X120350000Y-115000000D02*
X120350000Y-113000000D01*
%TO.C,K13*%
X102350000Y-115000000D02*
X98350000Y-115000000D01*
X102350000Y-113000000D02*
X98350000Y-113000000D01*
X102350000Y-115000000D02*
X102350000Y-113000000D01*
%TO.C,K12*%
X192350000Y-87000000D02*
X188350000Y-87000000D01*
X192350000Y-85000000D02*
X188350000Y-85000000D01*
X192350000Y-87000000D02*
X192350000Y-85000000D01*
%TO.C,K11*%
X174350000Y-84500000D02*
X170350000Y-84500000D01*
X174350000Y-82500000D02*
X170350000Y-82500000D01*
X174350000Y-84500000D02*
X174350000Y-82500000D01*
%TO.C,K10*%
X156350000Y-79000000D02*
X152350000Y-79000000D01*
X156350000Y-77000000D02*
X152350000Y-77000000D01*
X156350000Y-79000000D02*
X156350000Y-77000000D01*
%TO.C,K9*%
X138350000Y-86000000D02*
X134350000Y-86000000D01*
X138350000Y-84000000D02*
X134350000Y-84000000D01*
X138350000Y-86000000D02*
X138350000Y-84000000D01*
%TO.C,K8*%
X120350000Y-98000000D02*
X116350000Y-98000000D01*
X120350000Y-96000000D02*
X116350000Y-96000000D01*
X120350000Y-98000000D02*
X120350000Y-96000000D01*
%TO.C,K7*%
X102350000Y-98000000D02*
X98350000Y-98000000D01*
X102350000Y-96000000D02*
X98350000Y-96000000D01*
X102350000Y-98000000D02*
X102350000Y-96000000D01*
%TO.C,K6*%
X192350000Y-70000000D02*
X188350000Y-70000000D01*
X192350000Y-68000000D02*
X188350000Y-68000000D01*
X192350000Y-70000000D02*
X192350000Y-68000000D01*
%TO.C,K5*%
X174350000Y-67500000D02*
X170350000Y-67500000D01*
X174350000Y-65500000D02*
X170350000Y-65500000D01*
X174350000Y-67500000D02*
X174350000Y-65500000D01*
%TO.C,K4*%
X156350000Y-62000000D02*
X152350000Y-62000000D01*
X156350000Y-60000000D02*
X152350000Y-60000000D01*
X156350000Y-62000000D02*
X156350000Y-60000000D01*
%TO.C,K3*%
X138350000Y-69000000D02*
X134350000Y-69000000D01*
X138350000Y-67000000D02*
X134350000Y-67000000D01*
X138350000Y-69000000D02*
X138350000Y-67000000D01*
%TO.C,K2*%
X120350000Y-81000000D02*
X116350000Y-81000000D01*
X120350000Y-79000000D02*
X116350000Y-79000000D01*
X120350000Y-81000000D02*
X120350000Y-79000000D01*
%TO.C,K1*%
X102350000Y-81000000D02*
X98350000Y-81000000D01*
X102350000Y-79000000D02*
X98350000Y-79000000D01*
X102350000Y-81000000D02*
X102350000Y-79000000D01*
D11*
%TO.C,D5*%
G36*
X133930000Y-117110000D02*
G01*
X133930000Y-116510000D01*
X134530000Y-116510000D01*
X133930000Y-117110000D01*
G37*
X133930000Y-117110000D02*
X133930000Y-116510000D01*
X134530000Y-116510000D01*
X133930000Y-117110000D01*
%TO.C,D4*%
G36*
X163686067Y-115577196D02*
G01*
X163686067Y-114977196D01*
X164286067Y-114977196D01*
X163686067Y-115577196D01*
G37*
X163686067Y-115577196D02*
X163686067Y-114977196D01*
X164286067Y-114977196D01*
X163686067Y-115577196D01*
%TO.C,D3*%
G36*
X184921070Y-119294021D02*
G01*
X185076361Y-118714465D01*
X185655917Y-118869756D01*
X184921070Y-119294021D01*
G37*
X184921070Y-119294021D02*
X185076361Y-118714465D01*
X185655917Y-118869756D01*
X184921070Y-119294021D01*
%TO.C,D2*%
G36*
X204604674Y-128119930D02*
G01*
X204904674Y-127600315D01*
X205424289Y-127900315D01*
X204604674Y-128119930D01*
G37*
X204604674Y-128119930D02*
X204904674Y-127600315D01*
X205424289Y-127900315D01*
X204604674Y-128119930D01*
%TO.C,D1*%
G36*
X209426712Y-111244449D02*
G01*
X209726712Y-110724834D01*
X210246327Y-111024834D01*
X209426712Y-111244449D01*
G37*
X209426712Y-111244449D02*
X209726712Y-110724834D01*
X210246327Y-111024834D01*
X209426712Y-111244449D01*
D12*
%TO.C,U1*%
X199840000Y-102632000D02*
X199840000Y-72152000D01*
X202380000Y-102632000D02*
X199840000Y-102632000D01*
X202380000Y-72152000D02*
X202380000Y-102632000D01*
X199840000Y-72152000D02*
X202380000Y-72152000D01*
X215080000Y-102632000D02*
X215080000Y-72152000D01*
X217620000Y-102632000D02*
X215080000Y-102632000D01*
X217620000Y-72152000D02*
X217620000Y-102632000D01*
X215080000Y-72152000D02*
X217620000Y-72152000D01*
%TO.C,J2*%
X214980000Y-124610000D02*
X226980000Y-124610000D01*
X214980000Y-130610000D02*
X214980000Y-124610000D01*
X226980000Y-130610000D02*
X214980000Y-130610000D01*
X226980000Y-124610000D02*
X226980000Y-130610000D01*
D10*
X226980000Y-125360000D02*
X227980000Y-125360000D01*
X227980000Y-125360000D02*
X227980000Y-129960000D01*
X227980000Y-129960000D02*
X226980000Y-129960000D01*
D13*
%TO.C,H1*%
X161881615Y-92695864D02*
G75*
G03*
X163010000Y-92755000I1128385J10735864D01*
G01*
X161881615Y-71224136D02*
G75*
G02*
X163010000Y-71165000I1128385J-10735864D01*
G01*
X164138385Y-71224136D02*
G75*
G03*
X163010000Y-71165000I-1128385J-10735864D01*
G01*
X164138385Y-92695864D02*
G75*
G02*
X163010000Y-92755000I-1128385J10735864D01*
G01*
X143723865Y-74951956D02*
G75*
G03*
X142690000Y-79102500I19286135J-7008044D01*
G01*
X143723865Y-88968046D02*
G75*
G02*
X142690000Y-84817500I19286135J7008046D01*
G01*
X156001955Y-101246135D02*
G75*
G03*
X160152500Y-102280000I7008045J19286135D01*
G01*
X170018045Y-101246135D02*
G75*
G02*
X165867500Y-102280000I-7008045J19286135D01*
G01*
X182296134Y-88968048D02*
G75*
G03*
X183330000Y-84817500I-19286134J7008048D01*
G01*
X182296134Y-74951952D02*
G75*
G02*
X183330000Y-79102500I-19286134J-7008048D01*
G01*
X170018049Y-62673867D02*
G75*
G03*
X165867500Y-61640000I-7008049J-19286133D01*
G01*
X156001954Y-62673865D02*
G75*
G02*
X160152500Y-61640000I7008046J-19286135D01*
G01*
%TO.C,J1*%
D14*
X220405952Y-102405000D02*
X220453571Y-102369285D01*
X220525000Y-102369285D01*
X220596428Y-102405000D01*
X220644047Y-102476428D01*
X220667857Y-102547857D01*
X220691666Y-102690714D01*
X220691666Y-102797857D01*
X220667857Y-102940714D01*
X220644047Y-103012142D01*
X220596428Y-103083571D01*
X220525000Y-103119285D01*
X220477380Y-103119285D01*
X220405952Y-103083571D01*
X220382142Y-103047857D01*
X220382142Y-102797857D01*
X220477380Y-102797857D01*
X220167857Y-103119285D02*
X220167857Y-102369285D01*
X219882142Y-103119285D01*
X219882142Y-102369285D01*
X219644047Y-103119285D02*
X219644047Y-102369285D01*
X219525000Y-102369285D01*
X219453571Y-102405000D01*
X219405952Y-102476428D01*
X219382142Y-102547857D01*
X219358333Y-102690714D01*
X219358333Y-102797857D01*
X219382142Y-102940714D01*
X219405952Y-103012142D01*
X219453571Y-103083571D01*
X219525000Y-103119285D01*
X219644047Y-103119285D01*
X217803570Y-102405000D02*
X217851189Y-102369285D01*
X217922618Y-102369285D01*
X217994046Y-102405000D01*
X218041665Y-102476428D01*
X218065475Y-102547857D01*
X218089284Y-102690714D01*
X218089284Y-102797857D01*
X218065475Y-102940714D01*
X218041665Y-103012142D01*
X217994046Y-103083571D01*
X217922618Y-103119285D01*
X217874998Y-103119285D01*
X217803570Y-103083571D01*
X217779760Y-103047857D01*
X217779760Y-102797857D01*
X217874998Y-102797857D01*
X217565475Y-103119285D02*
X217565475Y-102369285D01*
X217279760Y-103119285D01*
X217279760Y-102369285D01*
X217041665Y-103119285D02*
X217041665Y-102369285D01*
X216922618Y-102369285D01*
X216851189Y-102405000D01*
X216803570Y-102476428D01*
X216779760Y-102547857D01*
X216755951Y-102690714D01*
X216755951Y-102797857D01*
X216779760Y-102940714D01*
X216803570Y-103012142D01*
X216851189Y-103083571D01*
X216922618Y-103119285D01*
X217041665Y-103119285D01*
X215486904Y-103083571D02*
X215415475Y-103119285D01*
X215296427Y-103119285D01*
X215248808Y-103083571D01*
X215224999Y-103047857D01*
X215201189Y-102976428D01*
X215201189Y-102905000D01*
X215224999Y-102833571D01*
X215248808Y-102797857D01*
X215296427Y-102762142D01*
X215391666Y-102726428D01*
X215439285Y-102690714D01*
X215463094Y-102655000D01*
X215486904Y-102583571D01*
X215486904Y-102512142D01*
X215463094Y-102440714D01*
X215439285Y-102405000D01*
X215391666Y-102369285D01*
X215272618Y-102369285D01*
X215201189Y-102405000D01*
X214701189Y-103047857D02*
X214724999Y-103083571D01*
X214796427Y-103119285D01*
X214844046Y-103119285D01*
X214915475Y-103083571D01*
X214963094Y-103012142D01*
X214986904Y-102940714D01*
X215010713Y-102797857D01*
X215010713Y-102690714D01*
X214986904Y-102547857D01*
X214963094Y-102476428D01*
X214915475Y-102405000D01*
X214844046Y-102369285D01*
X214796427Y-102369285D01*
X214724999Y-102405000D01*
X214701189Y-102440714D01*
X214248808Y-103119285D02*
X214486904Y-103119285D01*
X214486904Y-102369285D01*
X213027380Y-103083571D02*
X212955952Y-103119285D01*
X212836904Y-103119285D01*
X212789285Y-103083571D01*
X212765476Y-103047857D01*
X212741666Y-102976428D01*
X212741666Y-102905000D01*
X212765476Y-102833571D01*
X212789285Y-102797857D01*
X212836904Y-102762142D01*
X212932142Y-102726428D01*
X212979761Y-102690714D01*
X213003571Y-102655000D01*
X213027380Y-102583571D01*
X213027380Y-102512142D01*
X213003571Y-102440714D01*
X212979761Y-102405000D01*
X212932142Y-102369285D01*
X212813095Y-102369285D01*
X212741666Y-102405000D01*
X212527380Y-103119285D02*
X212527380Y-102369285D01*
X212408333Y-102369285D01*
X212336904Y-102405000D01*
X212289285Y-102476428D01*
X212265476Y-102547857D01*
X212241666Y-102690714D01*
X212241666Y-102797857D01*
X212265476Y-102940714D01*
X212289285Y-103012142D01*
X212336904Y-103083571D01*
X212408333Y-103119285D01*
X212527380Y-103119285D01*
X212051190Y-102905000D02*
X211813095Y-102905000D01*
X212098809Y-103119285D02*
X211932142Y-102369285D01*
X211765476Y-103119285D01*
X210591666Y-102369285D02*
X210425000Y-103119285D01*
X210258333Y-102369285D01*
X209805952Y-103047857D02*
X209829761Y-103083571D01*
X209901190Y-103119285D01*
X209948809Y-103119285D01*
X210020238Y-103083571D01*
X210067857Y-103012142D01*
X210091666Y-102940714D01*
X210115476Y-102797857D01*
X210115476Y-102690714D01*
X210091666Y-102547857D01*
X210067857Y-102476428D01*
X210020238Y-102405000D01*
X209948809Y-102369285D01*
X209901190Y-102369285D01*
X209829761Y-102405000D01*
X209805952Y-102440714D01*
X209305952Y-103047857D02*
X209329761Y-103083571D01*
X209401190Y-103119285D01*
X209448809Y-103119285D01*
X209520238Y-103083571D01*
X209567857Y-103012142D01*
X209591666Y-102940714D01*
X209615476Y-102797857D01*
X209615476Y-102690714D01*
X209591666Y-102547857D01*
X209567857Y-102476428D01*
X209520238Y-102405000D01*
X209448809Y-102369285D01*
X209401190Y-102369285D01*
X209329761Y-102405000D01*
X209305952Y-102440714D01*
%TO.C,U1*%
D12*
D14*
X199233333Y-91533357D02*
X199257142Y-91569071D01*
X199328571Y-91604785D01*
X199376190Y-91604785D01*
X199447619Y-91569071D01*
X199495238Y-91497642D01*
X199519047Y-91426214D01*
X199542857Y-91283357D01*
X199542857Y-91176214D01*
X199519047Y-91033357D01*
X199495238Y-90961928D01*
X199447619Y-90890500D01*
X199376190Y-90854785D01*
X199328571Y-90854785D01*
X199257142Y-90890500D01*
X199233333Y-90926214D01*
X198804761Y-90854785D02*
X198900000Y-90854785D01*
X198947619Y-90890500D01*
X198971428Y-90926214D01*
X199019047Y-91033357D01*
X199042857Y-91176214D01*
X199042857Y-91461928D01*
X199019047Y-91533357D01*
X198995238Y-91569071D01*
X198947619Y-91604785D01*
X198852380Y-91604785D01*
X198804761Y-91569071D01*
X198780952Y-91533357D01*
X198757142Y-91461928D01*
X198757142Y-91283357D01*
X198780952Y-91211928D01*
X198804761Y-91176214D01*
X198852380Y-91140500D01*
X198947619Y-91140500D01*
X198995238Y-91176214D01*
X199019047Y-91211928D01*
X199042857Y-91283357D01*
X214497619Y-94009857D02*
X214521428Y-94045571D01*
X214592857Y-94081285D01*
X214640476Y-94081285D01*
X214711904Y-94045571D01*
X214759523Y-93974142D01*
X214783333Y-93902714D01*
X214807142Y-93759857D01*
X214807142Y-93652714D01*
X214783333Y-93509857D01*
X214759523Y-93438428D01*
X214711904Y-93367000D01*
X214640476Y-93331285D01*
X214592857Y-93331285D01*
X214521428Y-93367000D01*
X214497619Y-93402714D01*
X214188095Y-93331285D02*
X214092857Y-93331285D01*
X214045238Y-93367000D01*
X213997619Y-93438428D01*
X213973809Y-93581285D01*
X213973809Y-93831285D01*
X213997619Y-93974142D01*
X214045238Y-94045571D01*
X214092857Y-94081285D01*
X214188095Y-94081285D01*
X214235714Y-94045571D01*
X214283333Y-93974142D01*
X214307142Y-93831285D01*
X214307142Y-93581285D01*
X214283333Y-93438428D01*
X214235714Y-93367000D01*
X214188095Y-93331285D01*
X213521428Y-94081285D02*
X213759523Y-94081285D01*
X213759523Y-93331285D01*
X213378571Y-93402714D02*
X213354761Y-93367000D01*
X213307142Y-93331285D01*
X213188095Y-93331285D01*
X213140476Y-93367000D01*
X213116666Y-93402714D01*
X213092857Y-93474142D01*
X213092857Y-93545571D01*
X213116666Y-93652714D01*
X213402380Y-94081285D01*
X213092857Y-94081285D01*
X199330952Y-94208285D02*
X199497619Y-93851142D01*
X199616666Y-94208285D02*
X199616666Y-93458285D01*
X199426190Y-93458285D01*
X199378571Y-93494000D01*
X199354761Y-93529714D01*
X199330952Y-93601142D01*
X199330952Y-93708285D01*
X199354761Y-93779714D01*
X199378571Y-93815428D01*
X199426190Y-93851142D01*
X199616666Y-93851142D01*
X199021428Y-93458285D02*
X198926190Y-93458285D01*
X198878571Y-93494000D01*
X198830952Y-93565428D01*
X198807142Y-93708285D01*
X198807142Y-93958285D01*
X198830952Y-94101142D01*
X198878571Y-94172571D01*
X198926190Y-94208285D01*
X199021428Y-94208285D01*
X199069047Y-94172571D01*
X199116666Y-94101142D01*
X199140476Y-93958285D01*
X199140476Y-93708285D01*
X199116666Y-93565428D01*
X199069047Y-93494000D01*
X199021428Y-93458285D01*
X198640476Y-93458285D02*
X198521428Y-94208285D01*
X198426190Y-93672571D01*
X198330952Y-94208285D01*
X198211904Y-93458285D01*
X197926190Y-93458285D02*
X197878571Y-93458285D01*
X197830952Y-93494000D01*
X197807142Y-93529714D01*
X197783333Y-93601142D01*
X197759523Y-93744000D01*
X197759523Y-93922571D01*
X197783333Y-94065428D01*
X197807142Y-94136857D01*
X197830952Y-94172571D01*
X197878571Y-94208285D01*
X197926190Y-94208285D01*
X197973809Y-94172571D01*
X197997619Y-94136857D01*
X198021428Y-94065428D01*
X198045238Y-93922571D01*
X198045238Y-93744000D01*
X198021428Y-93601142D01*
X197997619Y-93529714D01*
X197973809Y-93494000D01*
X197926190Y-93458285D01*
X214547619Y-96647857D02*
X214571428Y-96683571D01*
X214642857Y-96719285D01*
X214690476Y-96719285D01*
X214761904Y-96683571D01*
X214809523Y-96612142D01*
X214833333Y-96540714D01*
X214857142Y-96397857D01*
X214857142Y-96290714D01*
X214833333Y-96147857D01*
X214809523Y-96076428D01*
X214761904Y-96005000D01*
X214690476Y-95969285D01*
X214642857Y-95969285D01*
X214571428Y-96005000D01*
X214547619Y-96040714D01*
X214238095Y-95969285D02*
X214142857Y-95969285D01*
X214095238Y-96005000D01*
X214047619Y-96076428D01*
X214023809Y-96219285D01*
X214023809Y-96469285D01*
X214047619Y-96612142D01*
X214095238Y-96683571D01*
X214142857Y-96719285D01*
X214238095Y-96719285D01*
X214285714Y-96683571D01*
X214333333Y-96612142D01*
X214357142Y-96469285D01*
X214357142Y-96219285D01*
X214333333Y-96076428D01*
X214285714Y-96005000D01*
X214238095Y-95969285D01*
X213571428Y-96719285D02*
X213809523Y-96719285D01*
X213809523Y-95969285D01*
X213452380Y-95969285D02*
X213142857Y-95969285D01*
X213309523Y-96255000D01*
X213238095Y-96255000D01*
X213190476Y-96290714D01*
X213166666Y-96326428D01*
X213142857Y-96397857D01*
X213142857Y-96576428D01*
X213166666Y-96647857D01*
X213190476Y-96683571D01*
X213238095Y-96719285D01*
X213380952Y-96719285D01*
X213428571Y-96683571D01*
X213452380Y-96647857D01*
X199330952Y-96719285D02*
X199497619Y-96362142D01*
X199616666Y-96719285D02*
X199616666Y-95969285D01*
X199426190Y-95969285D01*
X199378571Y-96005000D01*
X199354761Y-96040714D01*
X199330952Y-96112142D01*
X199330952Y-96219285D01*
X199354761Y-96290714D01*
X199378571Y-96326428D01*
X199426190Y-96362142D01*
X199616666Y-96362142D01*
X199021428Y-95969285D02*
X198926190Y-95969285D01*
X198878571Y-96005000D01*
X198830952Y-96076428D01*
X198807142Y-96219285D01*
X198807142Y-96469285D01*
X198830952Y-96612142D01*
X198878571Y-96683571D01*
X198926190Y-96719285D01*
X199021428Y-96719285D01*
X199069047Y-96683571D01*
X199116666Y-96612142D01*
X199140476Y-96469285D01*
X199140476Y-96219285D01*
X199116666Y-96076428D01*
X199069047Y-96005000D01*
X199021428Y-95969285D01*
X198640476Y-95969285D02*
X198521428Y-96719285D01*
X198426190Y-96183571D01*
X198330952Y-96719285D01*
X198211904Y-95969285D01*
X197759523Y-96719285D02*
X198045238Y-96719285D01*
X197902380Y-96719285D02*
X197902380Y-95969285D01*
X197950000Y-96076428D01*
X197997619Y-96147857D01*
X198045238Y-96183571D01*
X214547619Y-99026357D02*
X214571428Y-99062071D01*
X214642857Y-99097785D01*
X214690476Y-99097785D01*
X214761904Y-99062071D01*
X214809523Y-98990642D01*
X214833333Y-98919214D01*
X214857142Y-98776357D01*
X214857142Y-98669214D01*
X214833333Y-98526357D01*
X214809523Y-98454928D01*
X214761904Y-98383500D01*
X214690476Y-98347785D01*
X214642857Y-98347785D01*
X214571428Y-98383500D01*
X214547619Y-98419214D01*
X214238095Y-98347785D02*
X214142857Y-98347785D01*
X214095238Y-98383500D01*
X214047619Y-98454928D01*
X214023809Y-98597785D01*
X214023809Y-98847785D01*
X214047619Y-98990642D01*
X214095238Y-99062071D01*
X214142857Y-99097785D01*
X214238095Y-99097785D01*
X214285714Y-99062071D01*
X214333333Y-98990642D01*
X214357142Y-98847785D01*
X214357142Y-98597785D01*
X214333333Y-98454928D01*
X214285714Y-98383500D01*
X214238095Y-98347785D01*
X213571428Y-99097785D02*
X213809523Y-99097785D01*
X213809523Y-98347785D01*
X213190476Y-98597785D02*
X213190476Y-99097785D01*
X213309523Y-98312071D02*
X213428571Y-98847785D01*
X213119047Y-98847785D01*
X199330952Y-99224785D02*
X199497619Y-98867642D01*
X199616666Y-99224785D02*
X199616666Y-98474785D01*
X199426190Y-98474785D01*
X199378571Y-98510500D01*
X199354761Y-98546214D01*
X199330952Y-98617642D01*
X199330952Y-98724785D01*
X199354761Y-98796214D01*
X199378571Y-98831928D01*
X199426190Y-98867642D01*
X199616666Y-98867642D01*
X199021428Y-98474785D02*
X198926190Y-98474785D01*
X198878571Y-98510500D01*
X198830952Y-98581928D01*
X198807142Y-98724785D01*
X198807142Y-98974785D01*
X198830952Y-99117642D01*
X198878571Y-99189071D01*
X198926190Y-99224785D01*
X199021428Y-99224785D01*
X199069047Y-99189071D01*
X199116666Y-99117642D01*
X199140476Y-98974785D01*
X199140476Y-98724785D01*
X199116666Y-98581928D01*
X199069047Y-98510500D01*
X199021428Y-98474785D01*
X198640476Y-98474785D02*
X198521428Y-99224785D01*
X198426190Y-98689071D01*
X198330952Y-99224785D01*
X198211904Y-98474785D01*
X198045238Y-98546214D02*
X198021428Y-98510500D01*
X197973809Y-98474785D01*
X197854761Y-98474785D01*
X197807142Y-98510500D01*
X197783333Y-98546214D01*
X197759523Y-98617642D01*
X197759523Y-98689071D01*
X197783333Y-98796214D01*
X198069047Y-99224785D01*
X197759523Y-99224785D01*
X199330952Y-101764785D02*
X199497619Y-101407642D01*
X199616666Y-101764785D02*
X199616666Y-101014785D01*
X199426190Y-101014785D01*
X199378571Y-101050500D01*
X199354761Y-101086214D01*
X199330952Y-101157642D01*
X199330952Y-101264785D01*
X199354761Y-101336214D01*
X199378571Y-101371928D01*
X199426190Y-101407642D01*
X199616666Y-101407642D01*
X199021428Y-101014785D02*
X198926190Y-101014785D01*
X198878571Y-101050500D01*
X198830952Y-101121928D01*
X198807142Y-101264785D01*
X198807142Y-101514785D01*
X198830952Y-101657642D01*
X198878571Y-101729071D01*
X198926190Y-101764785D01*
X199021428Y-101764785D01*
X199069047Y-101729071D01*
X199116666Y-101657642D01*
X199140476Y-101514785D01*
X199140476Y-101264785D01*
X199116666Y-101121928D01*
X199069047Y-101050500D01*
X199021428Y-101014785D01*
X198640476Y-101014785D02*
X198521428Y-101764785D01*
X198426190Y-101229071D01*
X198330952Y-101764785D01*
X198211904Y-101014785D01*
X198069047Y-101014785D02*
X197759523Y-101014785D01*
X197926190Y-101300500D01*
X197854761Y-101300500D01*
X197807142Y-101336214D01*
X197783333Y-101371928D01*
X197759523Y-101443357D01*
X197759523Y-101621928D01*
X197783333Y-101693357D01*
X197807142Y-101729071D01*
X197854761Y-101764785D01*
X197997619Y-101764785D01*
X198045238Y-101729071D01*
X198069047Y-101693357D01*
X214547619Y-101629857D02*
X214571428Y-101665571D01*
X214642857Y-101701285D01*
X214690476Y-101701285D01*
X214761904Y-101665571D01*
X214809523Y-101594142D01*
X214833333Y-101522714D01*
X214857142Y-101379857D01*
X214857142Y-101272714D01*
X214833333Y-101129857D01*
X214809523Y-101058428D01*
X214761904Y-100987000D01*
X214690476Y-100951285D01*
X214642857Y-100951285D01*
X214571428Y-100987000D01*
X214547619Y-101022714D01*
X214238095Y-100951285D02*
X214142857Y-100951285D01*
X214095238Y-100987000D01*
X214047619Y-101058428D01*
X214023809Y-101201285D01*
X214023809Y-101451285D01*
X214047619Y-101594142D01*
X214095238Y-101665571D01*
X214142857Y-101701285D01*
X214238095Y-101701285D01*
X214285714Y-101665571D01*
X214333333Y-101594142D01*
X214357142Y-101451285D01*
X214357142Y-101201285D01*
X214333333Y-101058428D01*
X214285714Y-100987000D01*
X214238095Y-100951285D01*
X213571428Y-101701285D02*
X213809523Y-101701285D01*
X213809523Y-100951285D01*
X213166666Y-100951285D02*
X213404761Y-100951285D01*
X213428571Y-101308428D01*
X213404761Y-101272714D01*
X213357142Y-101237000D01*
X213238095Y-101237000D01*
X213190476Y-101272714D01*
X213166666Y-101308428D01*
X213142857Y-101379857D01*
X213142857Y-101558428D01*
X213166666Y-101629857D01*
X213190476Y-101665571D01*
X213238095Y-101701285D01*
X213357142Y-101701285D01*
X213404761Y-101665571D01*
X213428571Y-101629857D01*
X214859523Y-83626428D02*
X214692857Y-83626428D01*
X214621428Y-84019285D02*
X214859523Y-84019285D01*
X214859523Y-83269285D01*
X214621428Y-83269285D01*
X214407142Y-84019285D02*
X214407142Y-83269285D01*
X214121428Y-84019285D01*
X214121428Y-83269285D01*
X213597619Y-83947857D02*
X213621428Y-83983571D01*
X213692857Y-84019285D01*
X213740476Y-84019285D01*
X213811904Y-83983571D01*
X213859523Y-83912142D01*
X213883333Y-83840714D01*
X213907142Y-83697857D01*
X213907142Y-83590714D01*
X213883333Y-83447857D01*
X213859523Y-83376428D01*
X213811904Y-83305000D01*
X213740476Y-83269285D01*
X213692857Y-83269285D01*
X213621428Y-83305000D01*
X213597619Y-83340714D01*
X213502380Y-84090714D02*
X213121428Y-84090714D01*
X212835714Y-83626428D02*
X212764285Y-83662142D01*
X212740476Y-83697857D01*
X212716666Y-83769285D01*
X212716666Y-83876428D01*
X212740476Y-83947857D01*
X212764285Y-83983571D01*
X212811904Y-84019285D01*
X213002380Y-84019285D01*
X213002380Y-83269285D01*
X212835714Y-83269285D01*
X212788095Y-83305000D01*
X212764285Y-83340714D01*
X212740476Y-83412142D01*
X212740476Y-83483571D01*
X212764285Y-83555000D01*
X212788095Y-83590714D01*
X212835714Y-83626428D01*
X213002380Y-83626428D01*
X199558142Y-83949071D02*
X199486714Y-83984785D01*
X199367666Y-83984785D01*
X199320047Y-83949071D01*
X199296238Y-83913357D01*
X199272428Y-83841928D01*
X199272428Y-83770500D01*
X199296238Y-83699071D01*
X199320047Y-83663357D01*
X199367666Y-83627642D01*
X199462904Y-83591928D01*
X199510523Y-83556214D01*
X199534333Y-83520500D01*
X199558142Y-83449071D01*
X199558142Y-83377642D01*
X199534333Y-83306214D01*
X199510523Y-83270500D01*
X199462904Y-83234785D01*
X199343857Y-83234785D01*
X199272428Y-83270500D01*
X199058142Y-83984785D02*
X199058142Y-83234785D01*
X198939095Y-83234785D01*
X198867666Y-83270500D01*
X198820047Y-83341928D01*
X198796238Y-83413357D01*
X198772428Y-83556214D01*
X198772428Y-83663357D01*
X198796238Y-83806214D01*
X198820047Y-83877642D01*
X198867666Y-83949071D01*
X198939095Y-83984785D01*
X199058142Y-83984785D01*
X198581952Y-83770500D02*
X198343857Y-83770500D01*
X198629571Y-83984785D02*
X198462904Y-83234785D01*
X198296238Y-83984785D01*
X214823809Y-86131928D02*
X214657142Y-86131928D01*
X214585714Y-86524785D02*
X214823809Y-86524785D01*
X214823809Y-85774785D01*
X214585714Y-85774785D01*
X214371428Y-86524785D02*
X214371428Y-85774785D01*
X214085714Y-86524785D01*
X214085714Y-85774785D01*
X213561904Y-86453357D02*
X213585714Y-86489071D01*
X213657142Y-86524785D01*
X213704761Y-86524785D01*
X213776190Y-86489071D01*
X213823809Y-86417642D01*
X213847619Y-86346214D01*
X213871428Y-86203357D01*
X213871428Y-86096214D01*
X213847619Y-85953357D01*
X213823809Y-85881928D01*
X213776190Y-85810500D01*
X213704761Y-85774785D01*
X213657142Y-85774785D01*
X213585714Y-85810500D01*
X213561904Y-85846214D01*
X213466666Y-86596214D02*
X213085714Y-86596214D01*
X212990476Y-86310500D02*
X212752380Y-86310500D01*
X213038095Y-86524785D02*
X212871428Y-85774785D01*
X212704761Y-86524785D01*
X199546238Y-86489071D02*
X199474809Y-86524785D01*
X199355761Y-86524785D01*
X199308142Y-86489071D01*
X199284333Y-86453357D01*
X199260523Y-86381928D01*
X199260523Y-86310500D01*
X199284333Y-86239071D01*
X199308142Y-86203357D01*
X199355761Y-86167642D01*
X199451000Y-86131928D01*
X199498619Y-86096214D01*
X199522428Y-86060500D01*
X199546238Y-85989071D01*
X199546238Y-85917642D01*
X199522428Y-85846214D01*
X199498619Y-85810500D01*
X199451000Y-85774785D01*
X199331952Y-85774785D01*
X199260523Y-85810500D01*
X198760523Y-86453357D02*
X198784333Y-86489071D01*
X198855761Y-86524785D01*
X198903380Y-86524785D01*
X198974809Y-86489071D01*
X199022428Y-86417642D01*
X199046238Y-86346214D01*
X199070047Y-86203357D01*
X199070047Y-86096214D01*
X199046238Y-85953357D01*
X199022428Y-85881928D01*
X198974809Y-85810500D01*
X198903380Y-85774785D01*
X198855761Y-85774785D01*
X198784333Y-85810500D01*
X198760523Y-85846214D01*
X198308142Y-86524785D02*
X198546238Y-86524785D01*
X198546238Y-85774785D01*
X214547619Y-88997857D02*
X214571428Y-89033571D01*
X214642857Y-89069285D01*
X214690476Y-89069285D01*
X214761904Y-89033571D01*
X214809523Y-88962142D01*
X214833333Y-88890714D01*
X214857142Y-88747857D01*
X214857142Y-88640714D01*
X214833333Y-88497857D01*
X214809523Y-88426428D01*
X214761904Y-88355000D01*
X214690476Y-88319285D01*
X214642857Y-88319285D01*
X214571428Y-88355000D01*
X214547619Y-88390714D01*
X214238095Y-88319285D02*
X214142857Y-88319285D01*
X214095238Y-88355000D01*
X214047619Y-88426428D01*
X214023809Y-88569285D01*
X214023809Y-88819285D01*
X214047619Y-88962142D01*
X214095238Y-89033571D01*
X214142857Y-89069285D01*
X214238095Y-89069285D01*
X214285714Y-89033571D01*
X214333333Y-88962142D01*
X214357142Y-88819285D01*
X214357142Y-88569285D01*
X214333333Y-88426428D01*
X214285714Y-88355000D01*
X214238095Y-88319285D01*
X213571428Y-89069285D02*
X213809523Y-89069285D01*
X213809523Y-88319285D01*
X213309523Y-88319285D02*
X213261904Y-88319285D01*
X213214285Y-88355000D01*
X213190476Y-88390714D01*
X213166666Y-88462142D01*
X213142857Y-88605000D01*
X213142857Y-88783571D01*
X213166666Y-88926428D01*
X213190476Y-88997857D01*
X213214285Y-89033571D01*
X213261904Y-89069285D01*
X213309523Y-89069285D01*
X213357142Y-89033571D01*
X213380952Y-88997857D01*
X213404761Y-88926428D01*
X213428571Y-88783571D01*
X213428571Y-88605000D01*
X213404761Y-88462142D01*
X213380952Y-88390714D01*
X213357142Y-88355000D01*
X213309523Y-88319285D01*
X199233333Y-88929857D02*
X199257142Y-88965571D01*
X199328571Y-89001285D01*
X199376190Y-89001285D01*
X199447619Y-88965571D01*
X199495238Y-88894142D01*
X199519047Y-88822714D01*
X199542857Y-88679857D01*
X199542857Y-88572714D01*
X199519047Y-88429857D01*
X199495238Y-88358428D01*
X199447619Y-88287000D01*
X199376190Y-88251285D01*
X199328571Y-88251285D01*
X199257142Y-88287000D01*
X199233333Y-88322714D01*
X198804761Y-88501285D02*
X198804761Y-89001285D01*
X198923809Y-88215571D02*
X199042857Y-88751285D01*
X198733333Y-88751285D01*
X214547619Y-91497857D02*
X214571428Y-91533571D01*
X214642857Y-91569285D01*
X214690476Y-91569285D01*
X214761904Y-91533571D01*
X214809523Y-91462142D01*
X214833333Y-91390714D01*
X214857142Y-91247857D01*
X214857142Y-91140714D01*
X214833333Y-90997857D01*
X214809523Y-90926428D01*
X214761904Y-90855000D01*
X214690476Y-90819285D01*
X214642857Y-90819285D01*
X214571428Y-90855000D01*
X214547619Y-90890714D01*
X214238095Y-90819285D02*
X214142857Y-90819285D01*
X214095238Y-90855000D01*
X214047619Y-90926428D01*
X214023809Y-91069285D01*
X214023809Y-91319285D01*
X214047619Y-91462142D01*
X214095238Y-91533571D01*
X214142857Y-91569285D01*
X214238095Y-91569285D01*
X214285714Y-91533571D01*
X214333333Y-91462142D01*
X214357142Y-91319285D01*
X214357142Y-91069285D01*
X214333333Y-90926428D01*
X214285714Y-90855000D01*
X214238095Y-90819285D01*
X213571428Y-91569285D02*
X213809523Y-91569285D01*
X213809523Y-90819285D01*
X213142857Y-91569285D02*
X213428571Y-91569285D01*
X213285714Y-91569285D02*
X213285714Y-90819285D01*
X213333333Y-90926428D01*
X213380952Y-90997857D01*
X213428571Y-91033571D01*
X199331952Y-80730500D02*
X199379571Y-80694785D01*
X199451000Y-80694785D01*
X199522428Y-80730500D01*
X199570047Y-80801928D01*
X199593857Y-80873357D01*
X199617666Y-81016214D01*
X199617666Y-81123357D01*
X199593857Y-81266214D01*
X199570047Y-81337642D01*
X199522428Y-81409071D01*
X199451000Y-81444785D01*
X199403380Y-81444785D01*
X199331952Y-81409071D01*
X199308142Y-81373357D01*
X199308142Y-81123357D01*
X199403380Y-81123357D01*
X199093857Y-81444785D02*
X199093857Y-80694785D01*
X198808142Y-81444785D01*
X198808142Y-80694785D01*
X198570047Y-81444785D02*
X198570047Y-80694785D01*
X198451000Y-80694785D01*
X198379571Y-80730500D01*
X198331952Y-80801928D01*
X198308142Y-80873357D01*
X198284333Y-81016214D01*
X198284333Y-81123357D01*
X198308142Y-81266214D01*
X198331952Y-81337642D01*
X198379571Y-81409071D01*
X198451000Y-81444785D01*
X198570047Y-81444785D01*
X214794166Y-80694785D02*
X214627500Y-81444785D01*
X214460833Y-80694785D01*
X214008452Y-81373357D02*
X214032261Y-81409071D01*
X214103690Y-81444785D01*
X214151309Y-81444785D01*
X214222738Y-81409071D01*
X214270357Y-81337642D01*
X214294166Y-81266214D01*
X214317976Y-81123357D01*
X214317976Y-81016214D01*
X214294166Y-80873357D01*
X214270357Y-80801928D01*
X214222738Y-80730500D01*
X214151309Y-80694785D01*
X214103690Y-80694785D01*
X214032261Y-80730500D01*
X214008452Y-80766214D01*
X213508452Y-81373357D02*
X213532261Y-81409071D01*
X213603690Y-81444785D01*
X213651309Y-81444785D01*
X213722738Y-81409071D01*
X213770357Y-81337642D01*
X213794166Y-81266214D01*
X213817976Y-81123357D01*
X213817976Y-81016214D01*
X213794166Y-80873357D01*
X213770357Y-80801928D01*
X213722738Y-80730500D01*
X213651309Y-80694785D01*
X213603690Y-80694785D01*
X213532261Y-80730500D01*
X213508452Y-80766214D01*
X199331952Y-78190500D02*
X199379571Y-78154785D01*
X199451000Y-78154785D01*
X199522428Y-78190500D01*
X199570047Y-78261928D01*
X199593857Y-78333357D01*
X199617666Y-78476214D01*
X199617666Y-78583357D01*
X199593857Y-78726214D01*
X199570047Y-78797642D01*
X199522428Y-78869071D01*
X199451000Y-78904785D01*
X199403380Y-78904785D01*
X199331952Y-78869071D01*
X199308142Y-78833357D01*
X199308142Y-78583357D01*
X199403380Y-78583357D01*
X199093857Y-78904785D02*
X199093857Y-78154785D01*
X198808142Y-78904785D01*
X198808142Y-78154785D01*
X198570047Y-78904785D02*
X198570047Y-78154785D01*
X198451000Y-78154785D01*
X198379571Y-78190500D01*
X198331952Y-78261928D01*
X198308142Y-78333357D01*
X198284333Y-78476214D01*
X198284333Y-78583357D01*
X198308142Y-78726214D01*
X198331952Y-78797642D01*
X198379571Y-78869071D01*
X198451000Y-78904785D01*
X198570047Y-78904785D01*
X214464809Y-78904785D02*
X214631476Y-78547642D01*
X214750523Y-78904785D02*
X214750523Y-78154785D01*
X214560047Y-78154785D01*
X214512428Y-78190500D01*
X214488619Y-78226214D01*
X214464809Y-78297642D01*
X214464809Y-78404785D01*
X214488619Y-78476214D01*
X214512428Y-78511928D01*
X214560047Y-78547642D01*
X214750523Y-78547642D01*
X214274333Y-78869071D02*
X214202904Y-78904785D01*
X214083857Y-78904785D01*
X214036238Y-78869071D01*
X214012428Y-78833357D01*
X213988619Y-78761928D01*
X213988619Y-78690500D01*
X214012428Y-78619071D01*
X214036238Y-78583357D01*
X214083857Y-78547642D01*
X214179095Y-78511928D01*
X214226714Y-78476214D01*
X214250523Y-78440500D01*
X214274333Y-78369071D01*
X214274333Y-78297642D01*
X214250523Y-78226214D01*
X214226714Y-78190500D01*
X214179095Y-78154785D01*
X214060047Y-78154785D01*
X213988619Y-78190500D01*
X213845761Y-78154785D02*
X213560047Y-78154785D01*
X213702904Y-78904785D02*
X213702904Y-78154785D01*
X199550000Y-76469285D02*
X199550000Y-75719285D01*
X199430952Y-75719285D01*
X199359523Y-75755000D01*
X199311904Y-75826428D01*
X199288095Y-75897857D01*
X199264285Y-76040714D01*
X199264285Y-76147857D01*
X199288095Y-76290714D01*
X199311904Y-76362142D01*
X199359523Y-76433571D01*
X199430952Y-76469285D01*
X199550000Y-76469285D01*
X199073809Y-76255000D02*
X198835714Y-76255000D01*
X199121428Y-76469285D02*
X198954761Y-75719285D01*
X198788095Y-76469285D01*
X198692857Y-75719285D02*
X198407142Y-75719285D01*
X198550000Y-76469285D02*
X198550000Y-75719285D01*
X198264285Y-76255000D02*
X198026190Y-76255000D01*
X198311904Y-76469285D02*
X198145238Y-75719285D01*
X197978571Y-76469285D01*
X214508452Y-75587000D02*
X214556071Y-75551285D01*
X214627500Y-75551285D01*
X214698928Y-75587000D01*
X214746547Y-75658428D01*
X214770357Y-75729857D01*
X214794166Y-75872714D01*
X214794166Y-75979857D01*
X214770357Y-76122714D01*
X214746547Y-76194142D01*
X214698928Y-76265571D01*
X214627500Y-76301285D01*
X214579880Y-76301285D01*
X214508452Y-76265571D01*
X214484642Y-76229857D01*
X214484642Y-75979857D01*
X214579880Y-75979857D01*
X214270357Y-76301285D02*
X214270357Y-75551285D01*
X213984642Y-76301285D01*
X213984642Y-75551285D01*
X213746547Y-76301285D02*
X213746547Y-75551285D01*
X213627500Y-75551285D01*
X213556071Y-75587000D01*
X213508452Y-75658428D01*
X213484642Y-75729857D01*
X213460833Y-75872714D01*
X213460833Y-75979857D01*
X213484642Y-76122714D01*
X213508452Y-76194142D01*
X213556071Y-76265571D01*
X213627500Y-76301285D01*
X213746547Y-76301285D01*
X199272428Y-73824785D02*
X199510523Y-73824785D01*
X199510523Y-73074785D01*
X199105761Y-73431928D02*
X198939095Y-73431928D01*
X198867666Y-73824785D02*
X199105761Y-73824785D01*
X199105761Y-73074785D01*
X198867666Y-73074785D01*
X198653380Y-73824785D02*
X198653380Y-73074785D01*
X198534333Y-73074785D01*
X198462904Y-73110500D01*
X198415285Y-73181928D01*
X198391476Y-73253357D01*
X198367666Y-73396214D01*
X198367666Y-73503357D01*
X198391476Y-73646214D01*
X198415285Y-73717642D01*
X198462904Y-73789071D01*
X198534333Y-73824785D01*
X198653380Y-73824785D01*
X214536238Y-73824785D02*
X214702904Y-73467642D01*
X214821952Y-73824785D02*
X214821952Y-73074785D01*
X214631476Y-73074785D01*
X214583857Y-73110500D01*
X214560047Y-73146214D01*
X214536238Y-73217642D01*
X214536238Y-73324785D01*
X214560047Y-73396214D01*
X214583857Y-73431928D01*
X214631476Y-73467642D01*
X214821952Y-73467642D01*
X214345761Y-73610500D02*
X214107666Y-73610500D01*
X214393380Y-73824785D02*
X214226714Y-73074785D01*
X214060047Y-73824785D01*
X213941000Y-73074785D02*
X213821952Y-73824785D01*
X213726714Y-73289071D01*
X213631476Y-73824785D01*
X213512428Y-73074785D01*
%TO.C,SW1*%
D12*
X219994003Y-113777852D02*
X220540240Y-113976581D01*
X220141899Y-114329810D02*
X221107825Y-114070991D01*
X221009227Y-113703019D01*
X220938581Y-113623351D01*
X220880260Y-113589679D01*
X220775943Y-113568332D01*
X220637953Y-113605306D01*
X220558285Y-113675952D01*
X220524613Y-113734274D01*
X220503266Y-113838591D01*
X220601864Y-114206563D01*
X219830479Y-112983588D02*
X219809132Y-113087905D01*
X219858431Y-113271891D01*
X219929077Y-113351560D01*
X220033394Y-113372907D01*
X220401366Y-113274309D01*
X220481034Y-113203663D01*
X220502381Y-113099345D01*
X220453082Y-112915359D01*
X220382437Y-112835691D01*
X220278119Y-112814344D01*
X220186126Y-112838994D01*
X220217380Y-113323608D01*
X219719557Y-112569620D02*
X219648911Y-112489951D01*
X219599612Y-112305965D01*
X219620959Y-112201648D01*
X219700627Y-112131002D01*
X219746623Y-112118677D01*
X219850941Y-112140024D01*
X219921587Y-112219692D01*
X219958561Y-112357682D01*
X220029207Y-112437350D01*
X220133525Y-112458697D01*
X220179521Y-112446372D01*
X220259189Y-112375727D01*
X220280536Y-112271409D01*
X220243562Y-112133419D01*
X220172916Y-112053751D01*
X219399114Y-111373711D02*
X219377767Y-111478029D01*
X219427066Y-111662015D01*
X219497712Y-111741683D01*
X219602029Y-111763030D01*
X219970001Y-111664432D01*
X220049669Y-111593787D01*
X220071016Y-111489469D01*
X220021717Y-111305483D01*
X219951072Y-111225815D01*
X219846754Y-111204468D01*
X219754761Y-111229117D01*
X219786015Y-111713731D01*
X219910795Y-110891515D02*
X219812197Y-110523543D01*
X220195796Y-110667252D02*
X219367860Y-110889097D01*
X219263542Y-110867750D01*
X219192896Y-110788082D01*
X219168247Y-110696089D01*
%TO.C,J2*%
X224168571Y-128002380D02*
X223597142Y-128002380D01*
X223882857Y-129002380D02*
X223882857Y-128002380D01*
X222692380Y-129002380D02*
X223025714Y-128526190D01*
X223263809Y-129002380D02*
X223263809Y-128002380D01*
X222882857Y-128002380D01*
X222787619Y-128050000D01*
X222740000Y-128097619D01*
X222692380Y-128192857D01*
X222692380Y-128335714D01*
X222740000Y-128430952D01*
X222787619Y-128478571D01*
X222882857Y-128526190D01*
X223263809Y-128526190D01*
X221978095Y-129383333D02*
X222025714Y-129335714D01*
X222120952Y-129192857D01*
X222168571Y-129097619D01*
X222216190Y-128954761D01*
X222263809Y-128716666D01*
X222263809Y-128526190D01*
X222216190Y-128288095D01*
X222168571Y-128145238D01*
X222120952Y-128050000D01*
X222025714Y-127907142D01*
X221978095Y-127859523D01*
X221025714Y-129002380D02*
X221359047Y-128526190D01*
X221597142Y-129002380D02*
X221597142Y-128002380D01*
X221216190Y-128002380D01*
X221120952Y-128050000D01*
X221073333Y-128097619D01*
X221025714Y-128192857D01*
X221025714Y-128335714D01*
X221073333Y-128430952D01*
X221120952Y-128478571D01*
X221216190Y-128526190D01*
X221597142Y-128526190D01*
X220692380Y-129383333D02*
X220644761Y-129335714D01*
X220549523Y-129192857D01*
X220501904Y-129097619D01*
X220454285Y-128954761D01*
X220406666Y-128716666D01*
X220406666Y-128526190D01*
X220454285Y-128288095D01*
X220501904Y-128145238D01*
X220549523Y-128050000D01*
X220644761Y-127907142D01*
X220692380Y-127859523D01*
X219978095Y-128954761D02*
X219835238Y-129002380D01*
X219597142Y-129002380D01*
X219501904Y-128954761D01*
X219454285Y-128907142D01*
X219406666Y-128811904D01*
X219406666Y-128716666D01*
X219454285Y-128621428D01*
X219501904Y-128573809D01*
X219597142Y-128526190D01*
X219787619Y-128478571D01*
X219882857Y-128430952D01*
X219930476Y-128383333D01*
X219978095Y-128288095D01*
X219978095Y-128192857D01*
X219930476Y-128097619D01*
X219882857Y-128050000D01*
X219787619Y-128002380D01*
X219549523Y-128002380D01*
X219406666Y-128050000D01*
%TO.C,H1*%
D11*
X162605214Y-86492500D02*
X163605214Y-86492500D01*
X162652833Y-86492500D02*
X162605214Y-86587738D01*
X162605214Y-86778214D01*
X162652833Y-86873452D01*
X162700452Y-86921071D01*
X162795690Y-86968690D01*
X163081404Y-86968690D01*
X163176642Y-86921071D01*
X163224261Y-86873452D01*
X163271880Y-86778214D01*
X163271880Y-86587738D01*
X163224261Y-86492500D01*
X162605214Y-87825833D02*
X163271880Y-87825833D01*
X162605214Y-87397261D02*
X163129023Y-87397261D01*
X163224261Y-87444880D01*
X163271880Y-87540119D01*
X163271880Y-87682976D01*
X163224261Y-87778214D01*
X163176642Y-87825833D01*
X163224261Y-88730595D02*
X163271880Y-88635357D01*
X163271880Y-88444880D01*
X163224261Y-88349642D01*
X163176642Y-88302023D01*
X163081404Y-88254404D01*
X162795690Y-88254404D01*
X162700452Y-88302023D01*
X162652833Y-88349642D01*
X162605214Y-88444880D01*
X162605214Y-88635357D01*
X162652833Y-88730595D01*
X163271880Y-89159166D02*
X162271880Y-89159166D01*
X162890928Y-89254404D02*
X163271880Y-89540119D01*
X162605214Y-89540119D02*
X162986166Y-89159166D01*
X162541714Y-72538500D02*
X162541714Y-72919452D01*
X162208380Y-72681357D02*
X163065523Y-72681357D01*
X163160761Y-72728976D01*
X163208380Y-72824214D01*
X163208380Y-72919452D01*
X163160761Y-73633738D02*
X163208380Y-73538500D01*
X163208380Y-73348023D01*
X163160761Y-73252785D01*
X163065523Y-73205166D01*
X162684571Y-73205166D01*
X162589333Y-73252785D01*
X162541714Y-73348023D01*
X162541714Y-73538500D01*
X162589333Y-73633738D01*
X162684571Y-73681357D01*
X162779809Y-73681357D01*
X162875047Y-73205166D01*
X162541714Y-74109928D02*
X163208380Y-74109928D01*
X162636952Y-74109928D02*
X162589333Y-74157547D01*
X162541714Y-74252785D01*
X162541714Y-74395642D01*
X162589333Y-74490880D01*
X162684571Y-74538500D01*
X163208380Y-74538500D01*
X162541714Y-74871833D02*
X162541714Y-75252785D01*
X162208380Y-75014690D02*
X163065523Y-75014690D01*
X163160761Y-75062309D01*
X163208380Y-75157547D01*
X163208380Y-75252785D01*
X163208380Y-75586119D02*
X162541714Y-75586119D01*
X162208380Y-75586119D02*
X162256000Y-75538500D01*
X162303619Y-75586119D01*
X162256000Y-75633738D01*
X162208380Y-75586119D01*
X162303619Y-75586119D01*
X162541714Y-76062309D02*
X163208380Y-76062309D01*
X162636952Y-76062309D02*
X162589333Y-76109928D01*
X162541714Y-76205166D01*
X162541714Y-76348023D01*
X162589333Y-76443261D01*
X162684571Y-76490880D01*
X163208380Y-76490880D01*
X162541714Y-77395642D02*
X163351238Y-77395642D01*
X163446476Y-77348023D01*
X163494095Y-77300404D01*
X163541714Y-77205166D01*
X163541714Y-77062309D01*
X163494095Y-76967071D01*
X163160761Y-77395642D02*
X163208380Y-77300404D01*
X163208380Y-77109928D01*
X163160761Y-77014690D01*
X163113142Y-76967071D01*
X163017904Y-76919452D01*
X162732190Y-76919452D01*
X162636952Y-76967071D01*
X162589333Y-77014690D01*
X162541714Y-77109928D01*
X162541714Y-77300404D01*
X162589333Y-77395642D01*
%TD*%
%LPC*%
D15*
%TO.C,D6*%
X139250000Y-115000000D03*
X142550000Y-115000000D03*
%TD*%
D16*
%TO.C,K20*%
X133500000Y-121000000D03*
D17*
X129000000Y-126000000D03*
D18*
X136000000Y-117900000D03*
D17*
X129000000Y-121000000D03*
D19*
X143500000Y-126000000D03*
D17*
X143500000Y-121000000D03*
X143500000Y-123500000D03*
X131000000Y-127300000D03*
X136000000Y-129400000D03*
D20*
X130500000Y-123500000D03*
X141500000Y-123500000D03*
D21*
X136000000Y-123500000D03*
%TD*%
D11*
%TO.C,K24*%
G36*
X220231516Y-142569928D02*
G01*
X219382988Y-143418456D01*
X218746592Y-142782060D01*
X219595120Y-141933532D01*
X220231516Y-142569928D01*
G37*
G36*
X217898064Y-140236476D02*
G01*
X217049536Y-141085004D01*
X216413140Y-140448608D01*
X217261668Y-139600080D01*
X217898064Y-140236476D01*
G37*
D17*
X208917808Y-143842720D03*
X210968417Y-148863179D03*
D20*
X211251260Y-140802161D03*
X219029435Y-148580336D03*
D21*
X215140347Y-144691249D03*
%TD*%
D11*
%TO.C,K23*%
G36*
X203846929Y-129183191D02*
G01*
X203246929Y-130222421D01*
X202467507Y-129772421D01*
X203067507Y-128733191D01*
X203846929Y-129183191D01*
G37*
G36*
X200989045Y-127533191D02*
G01*
X200389045Y-128572421D01*
X199609623Y-128122421D01*
X200209623Y-127083191D01*
X200989045Y-127533191D01*
G37*
D17*
X193248149Y-133340817D03*
X196528276Y-137659470D03*
D20*
X194715136Y-129799920D03*
X204241416Y-135299920D03*
D21*
X199478276Y-132549920D03*
%TD*%
D11*
%TO.C,K22*%
G36*
X184458422Y-120503964D02*
G01*
X184147839Y-121663075D01*
X183278506Y-121430138D01*
X183589089Y-120271027D01*
X184458422Y-120503964D01*
G37*
G36*
X181270866Y-119649862D02*
G01*
X180960283Y-120808973D01*
X180090950Y-120576036D01*
X180401533Y-119416925D01*
X181270866Y-119649862D01*
G37*
D17*
X175296859Y-127263089D03*
X179582968Y-130585629D03*
D20*
X175797408Y-123463161D03*
X186422592Y-126310171D03*
D21*
X181110000Y-124886666D03*
%TD*%
D15*
%TO.C,K21*%
X163150000Y-117500000D03*
X159850000Y-117500000D03*
D17*
X156500000Y-125800000D03*
X161500000Y-127900000D03*
D20*
X156000000Y-122000000D03*
X167000000Y-122000000D03*
D21*
X161500000Y-122000000D03*
%TD*%
D11*
%TO.C,K19*%
G36*
X212346929Y-114460759D02*
G01*
X211746929Y-115499989D01*
X210967507Y-115049989D01*
X211567507Y-114010759D01*
X212346929Y-114460759D01*
G37*
G36*
X209489045Y-112810759D02*
G01*
X208889045Y-113849989D01*
X208109623Y-113399989D01*
X208709623Y-112360759D01*
X209489045Y-112810759D01*
G37*
D17*
X201748149Y-118618385D03*
X205028276Y-122937038D03*
D20*
X203215136Y-115077488D03*
X212741416Y-120577488D03*
D21*
X207978276Y-117827488D03*
%TD*%
D15*
%TO.C,K18*%
X191650000Y-103000000D03*
X188350000Y-103000000D03*
D17*
X185000000Y-111300000D03*
X190000000Y-113400000D03*
D20*
X184500000Y-107500000D03*
X195500000Y-107500000D03*
D21*
X190000000Y-107500000D03*
%TD*%
D15*
%TO.C,K17*%
X173650000Y-100500000D03*
X170350000Y-100500000D03*
D17*
X167000000Y-108800000D03*
X172000000Y-110900000D03*
D20*
X166500000Y-105000000D03*
X177500000Y-105000000D03*
D21*
X172000000Y-105000000D03*
%TD*%
D15*
%TO.C,K16*%
X155650000Y-95000000D03*
X152350000Y-95000000D03*
D17*
X149000000Y-103300000D03*
X154000000Y-105400000D03*
D20*
X148500000Y-99500000D03*
X159500000Y-99500000D03*
D21*
X154000000Y-99500000D03*
%TD*%
D15*
%TO.C,K15*%
X137650000Y-102000000D03*
X134350000Y-102000000D03*
D17*
X131000000Y-110300000D03*
X136000000Y-112400000D03*
D20*
X130500000Y-106500000D03*
X141500000Y-106500000D03*
D21*
X136000000Y-106500000D03*
%TD*%
D15*
%TO.C,K14*%
X119650000Y-114000000D03*
X116350000Y-114000000D03*
D17*
X113000000Y-122300000D03*
X118000000Y-124400000D03*
D20*
X112500000Y-118500000D03*
X123500000Y-118500000D03*
D21*
X118000000Y-118500000D03*
%TD*%
D15*
%TO.C,K13*%
X101650000Y-114000000D03*
X98350000Y-114000000D03*
D17*
X95000000Y-122300000D03*
X100000000Y-124400000D03*
D20*
X94500000Y-118500000D03*
X105500000Y-118500000D03*
D21*
X100000000Y-118500000D03*
%TD*%
D15*
%TO.C,K12*%
X191650000Y-86000000D03*
X188350000Y-86000000D03*
D17*
X185000000Y-94300000D03*
X190000000Y-96400000D03*
D20*
X184500000Y-90500000D03*
X195500000Y-90500000D03*
D21*
X190000000Y-90500000D03*
%TD*%
D15*
%TO.C,K11*%
X173650000Y-83500000D03*
X170350000Y-83500000D03*
D17*
X167000000Y-91800000D03*
X172000000Y-93900000D03*
D20*
X166500000Y-88000000D03*
X177500000Y-88000000D03*
D21*
X172000000Y-88000000D03*
%TD*%
D15*
%TO.C,K10*%
X155650000Y-78000000D03*
X152350000Y-78000000D03*
D17*
X149000000Y-86300000D03*
X154000000Y-88400000D03*
D20*
X148500000Y-82500000D03*
X159500000Y-82500000D03*
D21*
X154000000Y-82500000D03*
%TD*%
D15*
%TO.C,K9*%
X137650000Y-85000000D03*
X134350000Y-85000000D03*
D17*
X131000000Y-93300000D03*
X136000000Y-95400000D03*
D20*
X130500000Y-89500000D03*
X141500000Y-89500000D03*
D21*
X136000000Y-89500000D03*
%TD*%
D15*
%TO.C,K8*%
X119650000Y-97000000D03*
X116350000Y-97000000D03*
D17*
X113000000Y-105300000D03*
X118000000Y-107400000D03*
D20*
X112500000Y-101500000D03*
X123500000Y-101500000D03*
D21*
X118000000Y-101500000D03*
%TD*%
D15*
%TO.C,K7*%
X101650000Y-97000000D03*
X98350000Y-97000000D03*
D17*
X95000000Y-105300000D03*
X100000000Y-107400000D03*
D20*
X94500000Y-101500000D03*
X105500000Y-101500000D03*
D21*
X100000000Y-101500000D03*
%TD*%
D15*
%TO.C,K6*%
X191650000Y-69000000D03*
X188350000Y-69000000D03*
D17*
X185000000Y-77300000D03*
X190000000Y-79400000D03*
D20*
X184500000Y-73500000D03*
X195500000Y-73500000D03*
D21*
X190000000Y-73500000D03*
%TD*%
D15*
%TO.C,K5*%
X173650000Y-66500000D03*
X170350000Y-66500000D03*
D17*
X167000000Y-74800000D03*
X172000000Y-76900000D03*
D20*
X166500000Y-71000000D03*
X177500000Y-71000000D03*
D21*
X172000000Y-71000000D03*
%TD*%
D15*
%TO.C,K4*%
X155650000Y-61000000D03*
X152350000Y-61000000D03*
D17*
X149000000Y-69300000D03*
X154000000Y-71400000D03*
D20*
X148500000Y-65500000D03*
X159500000Y-65500000D03*
D21*
X154000000Y-65500000D03*
%TD*%
D15*
%TO.C,K3*%
X137650000Y-68000000D03*
X134350000Y-68000000D03*
D17*
X131000000Y-76300000D03*
X136000000Y-78400000D03*
D20*
X130500000Y-72500000D03*
X141500000Y-72500000D03*
D21*
X136000000Y-72500000D03*
%TD*%
D15*
%TO.C,K2*%
X119650000Y-80000000D03*
X116350000Y-80000000D03*
D17*
X113000000Y-88300000D03*
X118000000Y-90400000D03*
D20*
X112500000Y-84500000D03*
X123500000Y-84500000D03*
D21*
X118000000Y-84500000D03*
%TD*%
D15*
%TO.C,K1*%
X101650000Y-80000000D03*
X98350000Y-80000000D03*
D17*
X95000000Y-88300000D03*
X100000000Y-90400000D03*
D20*
X94500000Y-84500000D03*
X105500000Y-84500000D03*
D21*
X100000000Y-84500000D03*
%TD*%
D22*
%TO.C,D5*%
X129180000Y-114360000D03*
X129180000Y-115860000D03*
X134280000Y-114360000D03*
G36*
G01*
X133430000Y-116065000D02*
X133430000Y-115655000D01*
G75*
G02*
X133635000Y-115450000I205000J0D01*
G01*
X134925000Y-115450000D01*
G75*
G02*
X135130000Y-115655000I0J-205000D01*
G01*
X135130000Y-116065000D01*
G75*
G02*
X134925000Y-116270000I-205000J0D01*
G01*
X133635000Y-116270000D01*
G75*
G02*
X133430000Y-116065000I0J205000D01*
G01*
G37*
%TD*%
%TO.C,D4*%
X158936067Y-112827196D03*
X158936067Y-114327196D03*
X164036067Y-112827196D03*
G36*
G01*
X163186067Y-114532196D02*
X163186067Y-114122196D01*
G75*
G02*
X163391067Y-113917196I205000J0D01*
G01*
X164681067Y-113917196D01*
G75*
G02*
X164886067Y-114122196I0J-205000D01*
G01*
X164886067Y-114532196D01*
G75*
G02*
X164681067Y-114737196I-205000J0D01*
G01*
X163391067Y-114737196D01*
G75*
G02*
X163186067Y-114532196I0J205000D01*
G01*
G37*
%TD*%
D11*
%TO.C,D3*%
G36*
X180117521Y-115584367D02*
G01*
X180329753Y-114792308D01*
X181971827Y-115232301D01*
X181759595Y-116024360D01*
X180117521Y-115584367D01*
G37*
G36*
X179729293Y-117033256D02*
G01*
X179941525Y-116241197D01*
X181583599Y-116681190D01*
X181371367Y-117473249D01*
X179729293Y-117033256D01*
G37*
G36*
X185043743Y-116904344D02*
G01*
X185255975Y-116112285D01*
X186898049Y-116552278D01*
X186685817Y-117344337D01*
X185043743Y-116904344D01*
G37*
G36*
G01*
X184708573Y-118155219D02*
X184814689Y-117759189D01*
G75*
G02*
X185065762Y-117614232I198015J-53058D01*
G01*
X186311806Y-117948108D01*
G75*
G02*
X186456763Y-118199181I-53058J-198015D01*
G01*
X186350647Y-118595211D01*
G75*
G02*
X186099574Y-118740168I-198015J53058D01*
G01*
X184853530Y-118406292D01*
G75*
G02*
X184708573Y-118155219I53058J198015D01*
G01*
G37*
%TD*%
%TO.C,D2*%
G36*
X200924931Y-123293430D02*
G01*
X201334931Y-122583290D01*
X202807175Y-123433290D01*
X202397175Y-124143430D01*
X200924931Y-123293430D01*
G37*
G36*
X200174931Y-124592468D02*
G01*
X200584931Y-123882328D01*
X202057175Y-124732328D01*
X201647175Y-125442468D01*
X200174931Y-124592468D01*
G37*
G36*
X205341661Y-125843430D02*
G01*
X205751661Y-125133290D01*
X207223905Y-125983290D01*
X206813905Y-126693430D01*
X205341661Y-125843430D01*
G37*
G36*
G01*
X204694162Y-126964933D02*
X204899162Y-126609863D01*
G75*
G02*
X205179197Y-126534828I177535J-102500D01*
G01*
X206296369Y-127179828D01*
G75*
G02*
X206371404Y-127459863I-102500J-177535D01*
G01*
X206166404Y-127814933D01*
G75*
G02*
X205886369Y-127889968I-177535J102500D01*
G01*
X204769197Y-127244968D01*
G75*
G02*
X204694162Y-126964933I102500J177535D01*
G01*
G37*
%TD*%
%TO.C,D1*%
G36*
X205746969Y-106417949D02*
G01*
X206156969Y-105707809D01*
X207629213Y-106557809D01*
X207219213Y-107267949D01*
X205746969Y-106417949D01*
G37*
G36*
X204996969Y-107716987D02*
G01*
X205406969Y-107006847D01*
X206879213Y-107856847D01*
X206469213Y-108566987D01*
X204996969Y-107716987D01*
G37*
G36*
X210163699Y-108967949D02*
G01*
X210573699Y-108257809D01*
X212045943Y-109107809D01*
X211635943Y-109817949D01*
X210163699Y-108967949D01*
G37*
G36*
G01*
X209516200Y-110089452D02*
X209721200Y-109734382D01*
G75*
G02*
X210001235Y-109659347I177535J-102500D01*
G01*
X211118407Y-110304347D01*
G75*
G02*
X211193442Y-110584382I-102500J-177535D01*
G01*
X210988442Y-110939452D01*
G75*
G02*
X210708407Y-111014487I-177535J102500D01*
G01*
X209591235Y-110369487D01*
G75*
G02*
X209516200Y-110089452I102500J177535D01*
G01*
G37*
%TD*%
D23*
%TO.C,J1*%
X220055000Y-104550000D03*
D24*
X217515000Y-104550000D03*
X214975000Y-104550000D03*
X212435000Y-104550000D03*
X209895000Y-104550000D03*
D25*
X221725000Y-85200000D03*
%TD*%
D26*
%TO.C,U1*%
X216350000Y-73422000D03*
X216350000Y-75962000D03*
X216350000Y-78502000D03*
X216350000Y-81042000D03*
X216350000Y-83582000D03*
X216350000Y-86122000D03*
X216350000Y-88662000D03*
X216350000Y-91202000D03*
X216350000Y-93742000D03*
X216350000Y-96282000D03*
X216350000Y-98822000D03*
X216350000Y-101362000D03*
X201110000Y-101362000D03*
X201110000Y-98822000D03*
X201110000Y-96282000D03*
X201110000Y-93742000D03*
X201110000Y-91202000D03*
X201110000Y-88662000D03*
X201110000Y-86122000D03*
X201110000Y-83582000D03*
X201110000Y-81042000D03*
X201110000Y-78502000D03*
X201110000Y-75962000D03*
X201110000Y-73422000D03*
X217656400Y-72152000D03*
X217656400Y-74692000D03*
X217656400Y-77232000D03*
X217656400Y-79772000D03*
X217656400Y-82312000D03*
X217656400Y-84852000D03*
X217656400Y-87392000D03*
X217656400Y-89932000D03*
X217656400Y-92472000D03*
X217656400Y-95012000D03*
X217656400Y-97552000D03*
X217656400Y-100092000D03*
X202436400Y-100092000D03*
X202436400Y-97552000D03*
X202436400Y-95012000D03*
X202436400Y-92472000D03*
X202436400Y-89932000D03*
X202436400Y-87392000D03*
X202436400Y-84852000D03*
X202436400Y-82312000D03*
X202436400Y-79772000D03*
X202436400Y-77232000D03*
X202436400Y-74692000D03*
X202436400Y-72152000D03*
%TD*%
D25*
%TO.C,H2*%
X202200000Y-108795000D03*
X221800000Y-119670000D03*
%TD*%
%TO.C,R2*%
G36*
G01*
X220150100Y-78565000D02*
X221049900Y-78565000D01*
G75*
G02*
X221300000Y-78815100I0J-250100D01*
G01*
X221300000Y-79339900D01*
G75*
G02*
X221049900Y-79590000I-250100J0D01*
G01*
X220150100Y-79590000D01*
G75*
G02*
X219900000Y-79339900I0J250100D01*
G01*
X219900000Y-78815100D01*
G75*
G02*
X220150100Y-78565000I250100J0D01*
G01*
G37*
G36*
G01*
X220150100Y-80390000D02*
X221049900Y-80390000D01*
G75*
G02*
X221300000Y-80640100I0J-250100D01*
G01*
X221300000Y-81164900D01*
G75*
G02*
X221049900Y-81415000I-250100J0D01*
G01*
X220150100Y-81415000D01*
G75*
G02*
X219900000Y-81164900I0J250100D01*
G01*
X219900000Y-80640100D01*
G75*
G02*
X220150100Y-80390000I250100J0D01*
G01*
G37*
%TD*%
%TO.C,R1*%
G36*
G01*
X221049900Y-91835000D02*
X220150100Y-91835000D01*
G75*
G02*
X219900000Y-91584900I0J250100D01*
G01*
X219900000Y-91060100D01*
G75*
G02*
X220150100Y-90810000I250100J0D01*
G01*
X221049900Y-90810000D01*
G75*
G02*
X221300000Y-91060100I0J-250100D01*
G01*
X221300000Y-91584900D01*
G75*
G02*
X221049900Y-91835000I-250100J0D01*
G01*
G37*
G36*
G01*
X221049900Y-90010000D02*
X220150100Y-90010000D01*
G75*
G02*
X219900000Y-89759900I0J250100D01*
G01*
X219900000Y-89235100D01*
G75*
G02*
X220150100Y-88985000I250100J0D01*
G01*
X221049900Y-88985000D01*
G75*
G02*
X221300000Y-89235100I0J-250100D01*
G01*
X221300000Y-89759900D01*
G75*
G02*
X221049900Y-90010000I-250100J0D01*
G01*
G37*
%TD*%
D27*
%TO.C,SW1*%
X223541966Y-111400470D03*
D28*
X218386026Y-109158534D03*
D29*
X221050000Y-109480000D03*
X222344095Y-114309629D03*
D28*
X220200347Y-115929674D03*
%TD*%
D30*
%TO.C,J2*%
X215180000Y-127260000D03*
X216680000Y-131460000D03*
X220680000Y-131460000D03*
X223680000Y-131460000D03*
D27*
X218480000Y-129360000D03*
X225480000Y-129360000D03*
D30*
X220680000Y-125510000D03*
X223680000Y-125510000D03*
X215180000Y-129710000D03*
X216680000Y-125510000D03*
D27*
X225480000Y-127610000D03*
X218480000Y-127610000D03*
%TD*%
D31*
%TO.C,H1*%
X143960000Y-81960000D03*
X163010000Y-101010000D03*
X182060000Y-81960000D03*
X163010000Y-62910000D03*
%TD*%
M02*
