%TF.GenerationSoftware,KiCad,Pcbnew,(5.1.10-1-10_14)*%
%TF.CreationDate,2021-09-20T15:17:19-07:00*%
%TF.ProjectId,redwood,72656477-6f6f-4642-9e6b-696361645f70,rev?*%
%TF.SameCoordinates,Original*%
%TF.FileFunction,Other,Fab,Top*%
%FSLAX46Y46*%
G04 Gerber Fmt 4.6, Leading zero omitted, Abs format (unit mm)*
G04 Created by KiCad (PCBNEW (5.1.10-1-10_14)) date 2021-09-20 15:17:19*
%MOMM*%
%LPD*%
G01*
G04 APERTURE LIST*
%ADD10C,0.200000*%
%ADD11C,0.100000*%
%ADD12C,0.120000*%
%ADD13C,0.150000*%
%ADD14C,0.080000*%
G04 APERTURE END LIST*
D10*
X109357142Y-103804761D02*
X109404761Y-103852380D01*
X109452380Y-103995238D01*
X109452380Y-104090476D01*
X109404761Y-104233333D01*
X109309523Y-104328571D01*
X109214285Y-104376190D01*
X109023809Y-104423809D01*
X108880952Y-104423809D01*
X108690476Y-104376190D01*
X108595238Y-104328571D01*
X108500000Y-104233333D01*
X108452380Y-104090476D01*
X108452380Y-103995238D01*
X108500000Y-103852380D01*
X108547619Y-103804761D01*
X108452380Y-103376190D02*
X109261904Y-103376190D01*
X109357142Y-103328571D01*
X109404761Y-103280952D01*
X109452380Y-103185714D01*
X109452380Y-102995238D01*
X109404761Y-102900000D01*
X109357142Y-102852380D01*
X109261904Y-102804761D01*
X108452380Y-102804761D01*
X108452380Y-102471428D02*
X108452380Y-101900000D01*
X109452380Y-102185714D02*
X108452380Y-102185714D01*
X108452380Y-100614285D02*
X108452380Y-100423809D01*
X108500000Y-100328571D01*
X108595238Y-100233333D01*
X108785714Y-100185714D01*
X109119047Y-100185714D01*
X109309523Y-100233333D01*
X109404761Y-100328571D01*
X109452380Y-100423809D01*
X109452380Y-100614285D01*
X109404761Y-100709523D01*
X109309523Y-100804761D01*
X109119047Y-100852380D01*
X108785714Y-100852380D01*
X108595238Y-100804761D01*
X108500000Y-100709523D01*
X108452380Y-100614285D01*
X108452380Y-99757142D02*
X109261904Y-99757142D01*
X109357142Y-99709523D01*
X109404761Y-99661904D01*
X109452380Y-99566666D01*
X109452380Y-99376190D01*
X109404761Y-99280952D01*
X109357142Y-99233333D01*
X109261904Y-99185714D01*
X108452380Y-99185714D01*
X108452380Y-98852380D02*
X108452380Y-98280952D01*
X109452380Y-98566666D02*
X108452380Y-98566666D01*
X109357142Y-89704761D02*
X109404761Y-89752380D01*
X109452380Y-89895238D01*
X109452380Y-89990476D01*
X109404761Y-90133333D01*
X109309523Y-90228571D01*
X109214285Y-90276190D01*
X109023809Y-90323809D01*
X108880952Y-90323809D01*
X108690476Y-90276190D01*
X108595238Y-90228571D01*
X108500000Y-90133333D01*
X108452380Y-89990476D01*
X108452380Y-89895238D01*
X108500000Y-89752380D01*
X108547619Y-89704761D01*
X108452380Y-89276190D02*
X109261904Y-89276190D01*
X109357142Y-89228571D01*
X109404761Y-89180952D01*
X109452380Y-89085714D01*
X109452380Y-88895238D01*
X109404761Y-88800000D01*
X109357142Y-88752380D01*
X109261904Y-88704761D01*
X108452380Y-88704761D01*
X108452380Y-88371428D02*
X108452380Y-87800000D01*
X109452380Y-88085714D02*
X108452380Y-88085714D01*
X108452380Y-86514285D02*
X108452380Y-86323809D01*
X108500000Y-86228571D01*
X108595238Y-86133333D01*
X108785714Y-86085714D01*
X109119047Y-86085714D01*
X109309523Y-86133333D01*
X109404761Y-86228571D01*
X109452380Y-86323809D01*
X109452380Y-86514285D01*
X109404761Y-86609523D01*
X109309523Y-86704761D01*
X109119047Y-86752380D01*
X108785714Y-86752380D01*
X108595238Y-86704761D01*
X108500000Y-86609523D01*
X108452380Y-86514285D01*
X108452380Y-85657142D02*
X109261904Y-85657142D01*
X109357142Y-85609523D01*
X109404761Y-85561904D01*
X109452380Y-85466666D01*
X109452380Y-85276190D01*
X109404761Y-85180952D01*
X109357142Y-85133333D01*
X109261904Y-85085714D01*
X108452380Y-85085714D01*
X108452380Y-84752380D02*
X108452380Y-84180952D01*
X109452380Y-84466666D02*
X108452380Y-84466666D01*
X109457142Y-118304761D02*
X109504761Y-118352380D01*
X109552380Y-118495238D01*
X109552380Y-118590476D01*
X109504761Y-118733333D01*
X109409523Y-118828571D01*
X109314285Y-118876190D01*
X109123809Y-118923809D01*
X108980952Y-118923809D01*
X108790476Y-118876190D01*
X108695238Y-118828571D01*
X108600000Y-118733333D01*
X108552380Y-118590476D01*
X108552380Y-118495238D01*
X108600000Y-118352380D01*
X108647619Y-118304761D01*
X108552380Y-117876190D02*
X109361904Y-117876190D01*
X109457142Y-117828571D01*
X109504761Y-117780952D01*
X109552380Y-117685714D01*
X109552380Y-117495238D01*
X109504761Y-117400000D01*
X109457142Y-117352380D01*
X109361904Y-117304761D01*
X108552380Y-117304761D01*
X108552380Y-116971428D02*
X108552380Y-116400000D01*
X109552380Y-116685714D02*
X108552380Y-116685714D01*
X108552380Y-115114285D02*
X108552380Y-114923809D01*
X108600000Y-114828571D01*
X108695238Y-114733333D01*
X108885714Y-114685714D01*
X109219047Y-114685714D01*
X109409523Y-114733333D01*
X109504761Y-114828571D01*
X109552380Y-114923809D01*
X109552380Y-115114285D01*
X109504761Y-115209523D01*
X109409523Y-115304761D01*
X109219047Y-115352380D01*
X108885714Y-115352380D01*
X108695238Y-115304761D01*
X108600000Y-115209523D01*
X108552380Y-115114285D01*
X108552380Y-114257142D02*
X109361904Y-114257142D01*
X109457142Y-114209523D01*
X109504761Y-114161904D01*
X109552380Y-114066666D01*
X109552380Y-113876190D01*
X109504761Y-113780952D01*
X109457142Y-113733333D01*
X109361904Y-113685714D01*
X108552380Y-113685714D01*
X108552380Y-113352380D02*
X108552380Y-112780952D01*
X109552380Y-113066666D02*
X108552380Y-113066666D01*
D11*
%TO.C,D6*%
X142300000Y-115900000D02*
X139500000Y-115900000D01*
X139500000Y-115900000D02*
X139500000Y-114100000D01*
X139500000Y-114100000D02*
X142300000Y-114100000D01*
X142300000Y-114100000D02*
X142300000Y-115900000D01*
X141650000Y-115000000D02*
X141250000Y-115000000D01*
X141250000Y-115000000D02*
X141250000Y-115550000D01*
X141250000Y-115000000D02*
X141250000Y-114450000D01*
X141250000Y-115000000D02*
X140650000Y-115400000D01*
X140650000Y-115400000D02*
X140650000Y-114600000D01*
X140650000Y-114600000D02*
X141250000Y-115000000D01*
X140650000Y-115000000D02*
X140150000Y-115000000D01*
D12*
%TO.C,K20*%
X142000000Y-128200000D02*
X141000000Y-129300000D01*
X142000000Y-117700000D02*
X142000000Y-128200000D01*
X130000000Y-117700000D02*
X142000000Y-117700000D01*
X130000000Y-129300000D02*
X130000000Y-117700000D01*
X141000000Y-129300000D02*
X130000000Y-129300000D01*
%TO.C,K24*%
X219948674Y-141862821D02*
X217968775Y-139882922D01*
X218675881Y-143135614D02*
X219948674Y-141862821D01*
X216695982Y-141155715D02*
X218675881Y-143135614D01*
X217968775Y-139882922D02*
X216695982Y-141155715D01*
%TO.C,K23*%
X203390712Y-128573383D02*
X200965840Y-127173383D01*
X202490712Y-130132229D02*
X203390712Y-128573383D01*
X200065840Y-128732229D02*
X202490712Y-130132229D01*
X200965840Y-127173383D02*
X200065840Y-128732229D01*
%TO.C,K22*%
X183859919Y-120033013D02*
X181155327Y-119308320D01*
X183394045Y-121771680D02*
X183859919Y-120033013D01*
X180689453Y-121046987D02*
X183394045Y-121771680D01*
X181155327Y-119308320D02*
X180689453Y-121046987D01*
%TO.C,K21*%
X162900000Y-116600000D02*
X160100000Y-116600000D01*
X162900000Y-118400000D02*
X162900000Y-116600000D01*
X160100000Y-118400000D02*
X162900000Y-118400000D01*
X160100000Y-116600000D02*
X160100000Y-118400000D01*
%TO.C,K19*%
X211890712Y-113850951D02*
X209465840Y-112450951D01*
X210990712Y-115409797D02*
X211890712Y-113850951D01*
X208565840Y-114009797D02*
X210990712Y-115409797D01*
X209465840Y-112450951D02*
X208565840Y-114009797D01*
%TO.C,K18*%
X191400000Y-102100000D02*
X188600000Y-102100000D01*
X191400000Y-103900000D02*
X191400000Y-102100000D01*
X188600000Y-103900000D02*
X191400000Y-103900000D01*
X188600000Y-102100000D02*
X188600000Y-103900000D01*
%TO.C,K17*%
X173400000Y-99600000D02*
X170600000Y-99600000D01*
X173400000Y-101400000D02*
X173400000Y-99600000D01*
X170600000Y-101400000D02*
X173400000Y-101400000D01*
X170600000Y-99600000D02*
X170600000Y-101400000D01*
%TO.C,K16*%
X155400000Y-94100000D02*
X152600000Y-94100000D01*
X155400000Y-95900000D02*
X155400000Y-94100000D01*
X152600000Y-95900000D02*
X155400000Y-95900000D01*
X152600000Y-94100000D02*
X152600000Y-95900000D01*
%TO.C,K15*%
X137400000Y-101100000D02*
X134600000Y-101100000D01*
X137400000Y-102900000D02*
X137400000Y-101100000D01*
X134600000Y-102900000D02*
X137400000Y-102900000D01*
X134600000Y-101100000D02*
X134600000Y-102900000D01*
%TO.C,K14*%
X119400000Y-113100000D02*
X116600000Y-113100000D01*
X119400000Y-114900000D02*
X119400000Y-113100000D01*
X116600000Y-114900000D02*
X119400000Y-114900000D01*
X116600000Y-113100000D02*
X116600000Y-114900000D01*
%TO.C,K13*%
X101400000Y-113100000D02*
X98600000Y-113100000D01*
X101400000Y-114900000D02*
X101400000Y-113100000D01*
X98600000Y-114900000D02*
X101400000Y-114900000D01*
X98600000Y-113100000D02*
X98600000Y-114900000D01*
%TO.C,K12*%
X191400000Y-85100000D02*
X188600000Y-85100000D01*
X191400000Y-86900000D02*
X191400000Y-85100000D01*
X188600000Y-86900000D02*
X191400000Y-86900000D01*
X188600000Y-85100000D02*
X188600000Y-86900000D01*
%TO.C,K11*%
X173400000Y-82600000D02*
X170600000Y-82600000D01*
X173400000Y-84400000D02*
X173400000Y-82600000D01*
X170600000Y-84400000D02*
X173400000Y-84400000D01*
X170600000Y-82600000D02*
X170600000Y-84400000D01*
%TO.C,K10*%
X155400000Y-77100000D02*
X152600000Y-77100000D01*
X155400000Y-78900000D02*
X155400000Y-77100000D01*
X152600000Y-78900000D02*
X155400000Y-78900000D01*
X152600000Y-77100000D02*
X152600000Y-78900000D01*
%TO.C,K9*%
X137400000Y-84100000D02*
X134600000Y-84100000D01*
X137400000Y-85900000D02*
X137400000Y-84100000D01*
X134600000Y-85900000D02*
X137400000Y-85900000D01*
X134600000Y-84100000D02*
X134600000Y-85900000D01*
%TO.C,K8*%
X119400000Y-96100000D02*
X116600000Y-96100000D01*
X119400000Y-97900000D02*
X119400000Y-96100000D01*
X116600000Y-97900000D02*
X119400000Y-97900000D01*
X116600000Y-96100000D02*
X116600000Y-97900000D01*
%TO.C,K7*%
X101400000Y-96100000D02*
X98600000Y-96100000D01*
X101400000Y-97900000D02*
X101400000Y-96100000D01*
X98600000Y-97900000D02*
X101400000Y-97900000D01*
X98600000Y-96100000D02*
X98600000Y-97900000D01*
%TO.C,K6*%
X191400000Y-68100000D02*
X188600000Y-68100000D01*
X191400000Y-69900000D02*
X191400000Y-68100000D01*
X188600000Y-69900000D02*
X191400000Y-69900000D01*
X188600000Y-68100000D02*
X188600000Y-69900000D01*
%TO.C,K5*%
X173400000Y-65600000D02*
X170600000Y-65600000D01*
X173400000Y-67400000D02*
X173400000Y-65600000D01*
X170600000Y-67400000D02*
X173400000Y-67400000D01*
X170600000Y-65600000D02*
X170600000Y-67400000D01*
%TO.C,K4*%
X155400000Y-60100000D02*
X152600000Y-60100000D01*
X155400000Y-61900000D02*
X155400000Y-60100000D01*
X152600000Y-61900000D02*
X155400000Y-61900000D01*
X152600000Y-60100000D02*
X152600000Y-61900000D01*
%TO.C,K3*%
X137400000Y-67100000D02*
X134600000Y-67100000D01*
X137400000Y-68900000D02*
X137400000Y-67100000D01*
X134600000Y-68900000D02*
X137400000Y-68900000D01*
X134600000Y-67100000D02*
X134600000Y-68900000D01*
%TO.C,K2*%
X119400000Y-79100000D02*
X116600000Y-79100000D01*
X119400000Y-80900000D02*
X119400000Y-79100000D01*
X116600000Y-80900000D02*
X119400000Y-80900000D01*
X116600000Y-79100000D02*
X116600000Y-80900000D01*
%TO.C,K1*%
X101400000Y-79100000D02*
X98600000Y-79100000D01*
X101400000Y-80900000D02*
X101400000Y-79100000D01*
X98600000Y-80900000D02*
X101400000Y-80900000D01*
X98600000Y-79100000D02*
X98600000Y-80900000D01*
D11*
%TO.C,J1*%
X221325000Y-103915000D02*
X221325000Y-105820000D01*
X221325000Y-105820000D02*
X208625000Y-105820000D01*
X208625000Y-105820000D02*
X208625000Y-103280000D01*
X208625000Y-103280000D02*
X220690000Y-103280000D01*
X220690000Y-103280000D02*
X221325000Y-103915000D01*
D13*
%TO.C,U1*%
X199840000Y-102632000D02*
X199840000Y-69612000D01*
X217620000Y-102632000D02*
X199840000Y-102632000D01*
X217620000Y-69612000D02*
X217620000Y-102632000D01*
X199840000Y-69612000D02*
X217620000Y-69612000D01*
X201155000Y-68342000D02*
X218935000Y-68342000D01*
X218935000Y-68342000D02*
X218935000Y-101362000D01*
X218935000Y-101362000D02*
X201155000Y-101362000D01*
X201155000Y-101362000D02*
X201155000Y-68342000D01*
D12*
%TO.C,H2*%
X223000000Y-119670000D02*
G75*
G03*
X223000000Y-119670000I-1250000J0D01*
G01*
D11*
%TO.C,R2*%
X219975000Y-80990000D02*
X219975000Y-78990000D01*
X221225000Y-80990000D02*
X219975000Y-80990000D01*
X221225000Y-78990000D02*
X221225000Y-80990000D01*
X219975000Y-78990000D02*
X221225000Y-78990000D01*
%TO.C,R1*%
X221225000Y-89410000D02*
X221225000Y-91410000D01*
X219975000Y-89410000D02*
X221225000Y-89410000D01*
X219975000Y-91410000D02*
X219975000Y-89410000D01*
X221225000Y-91410000D02*
X219975000Y-91410000D01*
%TO.C,SW1*%
X217326789Y-109494119D02*
X219973426Y-108784955D01*
X219112640Y-116159007D02*
X219190286Y-116448785D01*
X217249143Y-109204341D02*
X223228224Y-107602251D01*
X223228224Y-107602251D02*
X225169367Y-114846695D01*
X219190286Y-116448785D02*
X225169367Y-114846695D01*
X219973426Y-108784955D02*
X221759277Y-115449843D01*
X217249143Y-109204341D02*
X217326789Y-109494119D01*
X219112640Y-116159007D02*
X221759277Y-115449843D01*
X225040574Y-109497769D02*
X225791150Y-112298954D01*
X225791150Y-112298954D02*
X224574083Y-112625066D01*
X225040574Y-109497769D02*
X223823508Y-109823881D01*
%TD*%
%TO.C,D6*%
D13*
X143961904Y-114322380D02*
X143961904Y-113322380D01*
X144200000Y-113322380D01*
X144342857Y-113370000D01*
X144438095Y-113465238D01*
X144485714Y-113560476D01*
X144533333Y-113750952D01*
X144533333Y-113893809D01*
X144485714Y-114084285D01*
X144438095Y-114179523D01*
X144342857Y-114274761D01*
X144200000Y-114322380D01*
X143961904Y-114322380D01*
X145390476Y-113322380D02*
X145200000Y-113322380D01*
X145104761Y-113370000D01*
X145057142Y-113417619D01*
X144961904Y-113560476D01*
X144914285Y-113750952D01*
X144914285Y-114131904D01*
X144961904Y-114227142D01*
X145009523Y-114274761D01*
X145104761Y-114322380D01*
X145295238Y-114322380D01*
X145390476Y-114274761D01*
X145438095Y-114227142D01*
X145485714Y-114131904D01*
X145485714Y-113893809D01*
X145438095Y-113798571D01*
X145390476Y-113750952D01*
X145295238Y-113703333D01*
X145104761Y-113703333D01*
X145009523Y-113750952D01*
X144961904Y-113798571D01*
X144914285Y-113893809D01*
%TO.C,K20*%
X132333333Y-116914761D02*
X132238095Y-116962380D01*
X132047619Y-116962380D01*
X131952380Y-116914761D01*
X131904761Y-116867142D01*
X131857142Y-116771904D01*
X131857142Y-116486190D01*
X131904761Y-116390952D01*
X131952380Y-116343333D01*
X132047619Y-116295714D01*
X132238095Y-116295714D01*
X132333333Y-116343333D01*
X132761904Y-116962380D02*
X132761904Y-115962380D01*
X133190476Y-116962380D02*
X133190476Y-116438571D01*
X133142857Y-116343333D01*
X133047619Y-116295714D01*
X132904761Y-116295714D01*
X132809523Y-116343333D01*
X132761904Y-116390952D01*
X133809523Y-116962380D02*
X133714285Y-116914761D01*
X133666666Y-116867142D01*
X133619047Y-116771904D01*
X133619047Y-116486190D01*
X133666666Y-116390952D01*
X133714285Y-116343333D01*
X133809523Y-116295714D01*
X133952380Y-116295714D01*
X134047619Y-116343333D01*
X134095238Y-116390952D01*
X134142857Y-116486190D01*
X134142857Y-116771904D01*
X134095238Y-116867142D01*
X134047619Y-116914761D01*
X133952380Y-116962380D01*
X133809523Y-116962380D01*
X135000000Y-116914761D02*
X134904761Y-116962380D01*
X134714285Y-116962380D01*
X134619047Y-116914761D01*
X134571428Y-116867142D01*
X134523809Y-116771904D01*
X134523809Y-116486190D01*
X134571428Y-116390952D01*
X134619047Y-116343333D01*
X134714285Y-116295714D01*
X134904761Y-116295714D01*
X135000000Y-116343333D01*
X135190476Y-117057619D02*
X135952380Y-117057619D01*
X136190476Y-116962380D02*
X136190476Y-116295714D01*
X136190476Y-116486190D02*
X136238095Y-116390952D01*
X136285714Y-116343333D01*
X136380952Y-116295714D01*
X136476190Y-116295714D01*
X136952380Y-116962380D02*
X136857142Y-116914761D01*
X136809523Y-116867142D01*
X136761904Y-116771904D01*
X136761904Y-116486190D01*
X136809523Y-116390952D01*
X136857142Y-116343333D01*
X136952380Y-116295714D01*
X137095238Y-116295714D01*
X137190476Y-116343333D01*
X137238095Y-116390952D01*
X137285714Y-116486190D01*
X137285714Y-116771904D01*
X137238095Y-116867142D01*
X137190476Y-116914761D01*
X137095238Y-116962380D01*
X136952380Y-116962380D01*
X137571428Y-116295714D02*
X137952380Y-116295714D01*
X137714285Y-115962380D02*
X137714285Y-116819523D01*
X137761904Y-116914761D01*
X137857142Y-116962380D01*
X137952380Y-116962380D01*
X138714285Y-116962380D02*
X138714285Y-116438571D01*
X138666666Y-116343333D01*
X138571428Y-116295714D01*
X138380952Y-116295714D01*
X138285714Y-116343333D01*
X138714285Y-116914761D02*
X138619047Y-116962380D01*
X138380952Y-116962380D01*
X138285714Y-116914761D01*
X138238095Y-116819523D01*
X138238095Y-116724285D01*
X138285714Y-116629047D01*
X138380952Y-116581428D01*
X138619047Y-116581428D01*
X138714285Y-116533809D01*
X139190476Y-116962380D02*
X139190476Y-116295714D01*
X139190476Y-116486190D02*
X139238095Y-116390952D01*
X139285714Y-116343333D01*
X139380952Y-116295714D01*
X139476190Y-116295714D01*
X139714285Y-116295714D02*
X139952380Y-116962380D01*
X140190476Y-116295714D02*
X139952380Y-116962380D01*
X139857142Y-117200476D01*
X139809523Y-117248095D01*
X139714285Y-117295714D01*
%TO.C,K24*%
X217119909Y-137425221D02*
X217827016Y-136718114D01*
X217153581Y-137391549D02*
X217052566Y-137357877D01*
X216917879Y-137223190D01*
X216884207Y-137122175D01*
X216884207Y-137054831D01*
X216917879Y-136953816D01*
X217119909Y-136751786D01*
X217220925Y-136718114D01*
X217288268Y-136718114D01*
X217389283Y-136751786D01*
X217523970Y-136886473D01*
X217557642Y-136987488D01*
X217456627Y-137761938D02*
X217928031Y-137290534D01*
X218163734Y-137054831D02*
X218096390Y-137054831D01*
X218096390Y-137122175D01*
X218163734Y-137122175D01*
X218163734Y-137054831D01*
X218096390Y-137122175D01*
X217894360Y-138199671D02*
X217860688Y-138098656D01*
X217860688Y-138031312D01*
X217894360Y-137930297D01*
X218096390Y-137728266D01*
X218197405Y-137694595D01*
X218264749Y-137694595D01*
X218365764Y-137728266D01*
X218466779Y-137829282D01*
X218500451Y-137930297D01*
X218500451Y-137997640D01*
X218466779Y-138098656D01*
X218264749Y-138300686D01*
X218163734Y-138334358D01*
X218096390Y-138334358D01*
X217995375Y-138300686D01*
X217894360Y-138199671D01*
X218736153Y-139041465D02*
X219443260Y-138334358D01*
X218769825Y-139007793D02*
X218668810Y-138974121D01*
X218534123Y-138839434D01*
X218500451Y-138738419D01*
X218500451Y-138671075D01*
X218534123Y-138570060D01*
X218736153Y-138368030D01*
X218837169Y-138334358D01*
X218904512Y-138334358D01*
X219005527Y-138368030D01*
X219140214Y-138502717D01*
X219173886Y-138603732D01*
X219375917Y-139613884D02*
X219274901Y-139580213D01*
X219140214Y-139445526D01*
X219106543Y-139344510D01*
X219140214Y-139243495D01*
X219409588Y-138974121D01*
X219510604Y-138940449D01*
X219611619Y-138974121D01*
X219746306Y-139108808D01*
X219779978Y-139209823D01*
X219746306Y-139310839D01*
X219678962Y-139378182D01*
X219274901Y-139108808D01*
X219948336Y-139714900D02*
X220487085Y-140253648D01*
X220891146Y-141129113D02*
X220790130Y-141095442D01*
X220655443Y-140960755D01*
X220621772Y-140859739D01*
X220621772Y-140792396D01*
X220655443Y-140691381D01*
X220857474Y-140489350D01*
X220958489Y-140455678D01*
X221025833Y-140455678D01*
X221126848Y-140489350D01*
X221261535Y-140624037D01*
X221295207Y-140725052D01*
X221160520Y-141465831D02*
X221867626Y-140758724D01*
X221463565Y-141768877D02*
X221833955Y-141398487D01*
X221867626Y-141297472D01*
X221833955Y-141196457D01*
X221732939Y-141095442D01*
X221631924Y-141061770D01*
X221564581Y-141061770D01*
X221901298Y-142206609D02*
X221867626Y-142105594D01*
X221867626Y-142038251D01*
X221901298Y-141937235D01*
X222103329Y-141735205D01*
X222204344Y-141701533D01*
X222271687Y-141701533D01*
X222372703Y-141735205D01*
X222473718Y-141836220D01*
X222507390Y-141937235D01*
X222507390Y-142004579D01*
X222473718Y-142105594D01*
X222271687Y-142307625D01*
X222170672Y-142341296D01*
X222103329Y-142341296D01*
X222002313Y-142307625D01*
X221901298Y-142206609D01*
X222776764Y-143014731D02*
X222675748Y-142981060D01*
X222541061Y-142846373D01*
X222507390Y-142745357D01*
X222507390Y-142678014D01*
X222541061Y-142576999D01*
X222743092Y-142374968D01*
X222844107Y-142341296D01*
X222911451Y-142341296D01*
X223012466Y-142374968D01*
X223147153Y-142509655D01*
X223180825Y-142610670D01*
%TO.C,K23*%
X199509800Y-125019128D02*
X200009800Y-124153103D01*
X199533609Y-124977889D02*
X199427321Y-124971509D01*
X199262364Y-124876271D01*
X199203695Y-124787413D01*
X199186265Y-124722364D01*
X199192645Y-124616076D01*
X199335502Y-124368640D01*
X199424360Y-124309971D01*
X199489409Y-124292541D01*
X199595697Y-124298921D01*
X199760654Y-124394159D01*
X199819323Y-124483017D01*
X199922193Y-125257224D02*
X200255526Y-124679873D01*
X200422193Y-124391198D02*
X200357144Y-124408628D01*
X200374574Y-124473677D01*
X200439622Y-124456247D01*
X200422193Y-124391198D01*
X200374574Y-124473677D01*
X200458304Y-125566747D02*
X200399635Y-125477889D01*
X200382205Y-125412840D01*
X200388584Y-125306552D01*
X200531442Y-125059116D01*
X200620300Y-125000447D01*
X200685349Y-124983017D01*
X200791637Y-124989397D01*
X200915355Y-125060826D01*
X200974024Y-125149684D01*
X200991454Y-125214733D01*
X200985074Y-125321021D01*
X200842217Y-125568457D01*
X200753358Y-125627126D01*
X200688310Y-125644556D01*
X200582022Y-125638176D01*
X200458304Y-125566747D01*
X201489286Y-126161985D02*
X201989286Y-125295960D01*
X201513096Y-126120746D02*
X201406808Y-126114366D01*
X201241850Y-126019128D01*
X201183181Y-125930270D01*
X201165752Y-125865221D01*
X201172131Y-125758933D01*
X201314988Y-125511497D01*
X201403847Y-125452828D01*
X201468896Y-125435398D01*
X201575184Y-125441778D01*
X201740141Y-125537016D01*
X201798810Y-125625874D01*
X202255403Y-126549318D02*
X202149115Y-126542938D01*
X201984158Y-126447700D01*
X201925489Y-126358841D01*
X201931869Y-126252553D01*
X202122345Y-125922639D01*
X202211203Y-125863970D01*
X202317491Y-125870349D01*
X202482448Y-125965588D01*
X202541118Y-126054446D01*
X202534738Y-126160734D01*
X202487119Y-126243213D01*
X202027107Y-126087596D01*
X202834463Y-126498738D02*
X203494292Y-126879690D01*
X204111172Y-127620746D02*
X204004884Y-127614366D01*
X203839927Y-127519128D01*
X203781258Y-127430270D01*
X203763828Y-127365221D01*
X203770207Y-127258933D01*
X203913065Y-127011497D01*
X204001923Y-126952828D01*
X204066972Y-126935398D01*
X204173260Y-126941778D01*
X204338217Y-127037016D01*
X204396886Y-127125874D01*
X204458516Y-127876271D02*
X204958516Y-127010246D01*
X204829670Y-128090557D02*
X205091575Y-127636924D01*
X205097954Y-127530636D01*
X205039285Y-127441778D01*
X204915567Y-127370349D01*
X204809279Y-127363970D01*
X204744230Y-127381399D01*
X205365781Y-128400081D02*
X205307112Y-128311222D01*
X205289682Y-128246173D01*
X205296062Y-128139885D01*
X205438919Y-127892450D01*
X205527777Y-127833780D01*
X205592826Y-127816351D01*
X205699114Y-127822730D01*
X205822832Y-127894159D01*
X205881501Y-127983017D01*
X205898931Y-128048066D01*
X205892551Y-128154354D01*
X205749694Y-128401790D01*
X205660836Y-128460459D01*
X205595787Y-128477889D01*
X205489499Y-128471509D01*
X205365781Y-128400081D01*
X206420573Y-128954079D02*
X206314285Y-128947700D01*
X206149328Y-128852462D01*
X206090659Y-128763603D01*
X206073229Y-128698554D01*
X206079609Y-128592266D01*
X206222466Y-128344830D01*
X206311324Y-128286161D01*
X206376373Y-128268732D01*
X206482661Y-128275111D01*
X206647618Y-128370349D01*
X206706287Y-128459208D01*
%TO.C,K22*%
X179191337Y-117604321D02*
X179450156Y-116638395D01*
X179203662Y-117558324D02*
X179099344Y-117579671D01*
X178915358Y-117530372D01*
X178835690Y-117459727D01*
X178802018Y-117401405D01*
X178780671Y-117297088D01*
X178854619Y-117021109D01*
X178925265Y-116941441D01*
X178983587Y-116907769D01*
X179087904Y-116886422D01*
X179271890Y-116935721D01*
X179351558Y-117006367D01*
X179651302Y-117727568D02*
X179823848Y-117083617D01*
X179910121Y-116761642D02*
X179851800Y-116795314D01*
X179885471Y-116853635D01*
X179943792Y-116819963D01*
X179910121Y-116761642D01*
X179885471Y-116853635D01*
X180249256Y-117887789D02*
X180169588Y-117817143D01*
X180135916Y-117758822D01*
X180114569Y-117654504D01*
X180188517Y-117378526D01*
X180259163Y-117298857D01*
X180317484Y-117265186D01*
X180421802Y-117243839D01*
X180559791Y-117280813D01*
X180639459Y-117351459D01*
X180673131Y-117409780D01*
X180694478Y-117514098D01*
X180620530Y-117790076D01*
X180549884Y-117869745D01*
X180491563Y-117903416D01*
X180387245Y-117924763D01*
X180249256Y-117887789D01*
X181399167Y-118195907D02*
X181657986Y-117229981D01*
X181411492Y-118149911D02*
X181307174Y-118171258D01*
X181123189Y-118121959D01*
X181043520Y-118051313D01*
X181009849Y-117992992D01*
X180988502Y-117888674D01*
X181062450Y-117612695D01*
X181133096Y-117533027D01*
X181191417Y-117499355D01*
X181295735Y-117478008D01*
X181479721Y-117527307D01*
X181559389Y-117597953D01*
X182239429Y-118371756D02*
X182135111Y-118393103D01*
X181951125Y-118343804D01*
X181871457Y-118273158D01*
X181850110Y-118168840D01*
X181948708Y-117800868D01*
X182019353Y-117721200D01*
X182123671Y-117699853D01*
X182307657Y-117749152D01*
X182387325Y-117819798D01*
X182408672Y-117924116D01*
X182384023Y-118016108D01*
X181899409Y-117984854D01*
X182785666Y-118173027D02*
X183521610Y-118370223D01*
X184309270Y-118926368D02*
X184204952Y-118947715D01*
X184020966Y-118898416D01*
X183941298Y-118827770D01*
X183907626Y-118769449D01*
X183886279Y-118665131D01*
X183960227Y-118389152D01*
X184030873Y-118309484D01*
X184089194Y-118275812D01*
X184193512Y-118254465D01*
X184377498Y-118303764D01*
X184457166Y-118374410D01*
X184710913Y-119083287D02*
X184969732Y-118117361D01*
X185124881Y-119194209D02*
X185260453Y-118688248D01*
X185239106Y-118583930D01*
X185159438Y-118513284D01*
X185021449Y-118476310D01*
X184917131Y-118497657D01*
X184858810Y-118531329D01*
X185722835Y-119354430D02*
X185643167Y-119283785D01*
X185609495Y-119225463D01*
X185588148Y-119121146D01*
X185662097Y-118845167D01*
X185732743Y-118765499D01*
X185791064Y-118731827D01*
X185895381Y-118710480D01*
X186033371Y-118747454D01*
X186113039Y-118818100D01*
X186146711Y-118876421D01*
X186168058Y-118980739D01*
X186094110Y-119256718D01*
X186023464Y-119336386D01*
X185965142Y-119370058D01*
X185860825Y-119391405D01*
X185722835Y-119354430D01*
X186885072Y-119616552D02*
X186780754Y-119637899D01*
X186596768Y-119588600D01*
X186517100Y-119517954D01*
X186483428Y-119459633D01*
X186462081Y-119355315D01*
X186536030Y-119079337D01*
X186606675Y-118999668D01*
X186664997Y-118965997D01*
X186769314Y-118944650D01*
X186953300Y-118993948D01*
X187032968Y-119064594D01*
%TO.C,K21*%
X157761904Y-115462380D02*
X157761904Y-114462380D01*
X157761904Y-115414761D02*
X157666666Y-115462380D01*
X157476190Y-115462380D01*
X157380952Y-115414761D01*
X157333333Y-115367142D01*
X157285714Y-115271904D01*
X157285714Y-114986190D01*
X157333333Y-114890952D01*
X157380952Y-114843333D01*
X157476190Y-114795714D01*
X157666666Y-114795714D01*
X157761904Y-114843333D01*
X158238095Y-115462380D02*
X158238095Y-114795714D01*
X158238095Y-114462380D02*
X158190476Y-114510000D01*
X158238095Y-114557619D01*
X158285714Y-114510000D01*
X158238095Y-114462380D01*
X158238095Y-114557619D01*
X158857142Y-115462380D02*
X158761904Y-115414761D01*
X158714285Y-115367142D01*
X158666666Y-115271904D01*
X158666666Y-114986190D01*
X158714285Y-114890952D01*
X158761904Y-114843333D01*
X158857142Y-114795714D01*
X159000000Y-114795714D01*
X159095238Y-114843333D01*
X159142857Y-114890952D01*
X159190476Y-114986190D01*
X159190476Y-115271904D01*
X159142857Y-115367142D01*
X159095238Y-115414761D01*
X159000000Y-115462380D01*
X158857142Y-115462380D01*
X160047619Y-115462380D02*
X160047619Y-114462380D01*
X160047619Y-115414761D02*
X159952380Y-115462380D01*
X159761904Y-115462380D01*
X159666666Y-115414761D01*
X159619047Y-115367142D01*
X159571428Y-115271904D01*
X159571428Y-114986190D01*
X159619047Y-114890952D01*
X159666666Y-114843333D01*
X159761904Y-114795714D01*
X159952380Y-114795714D01*
X160047619Y-114843333D01*
X160904761Y-115414761D02*
X160809523Y-115462380D01*
X160619047Y-115462380D01*
X160523809Y-115414761D01*
X160476190Y-115319523D01*
X160476190Y-114938571D01*
X160523809Y-114843333D01*
X160619047Y-114795714D01*
X160809523Y-114795714D01*
X160904761Y-114843333D01*
X160952380Y-114938571D01*
X160952380Y-115033809D01*
X160476190Y-115129047D01*
X161380952Y-115081428D02*
X162142857Y-115081428D01*
X163047619Y-115414761D02*
X162952380Y-115462380D01*
X162761904Y-115462380D01*
X162666666Y-115414761D01*
X162619047Y-115367142D01*
X162571428Y-115271904D01*
X162571428Y-114986190D01*
X162619047Y-114890952D01*
X162666666Y-114843333D01*
X162761904Y-114795714D01*
X162952380Y-114795714D01*
X163047619Y-114843333D01*
X163476190Y-115462380D02*
X163476190Y-114462380D01*
X163904761Y-115462380D02*
X163904761Y-114938571D01*
X163857142Y-114843333D01*
X163761904Y-114795714D01*
X163619047Y-114795714D01*
X163523809Y-114843333D01*
X163476190Y-114890952D01*
X164523809Y-115462380D02*
X164428571Y-115414761D01*
X164380952Y-115367142D01*
X164333333Y-115271904D01*
X164333333Y-114986190D01*
X164380952Y-114890952D01*
X164428571Y-114843333D01*
X164523809Y-114795714D01*
X164666666Y-114795714D01*
X164761904Y-114843333D01*
X164809523Y-114890952D01*
X164857142Y-114986190D01*
X164857142Y-115271904D01*
X164809523Y-115367142D01*
X164761904Y-115414761D01*
X164666666Y-115462380D01*
X164523809Y-115462380D01*
X165714285Y-115414761D02*
X165619047Y-115462380D01*
X165428571Y-115462380D01*
X165333333Y-115414761D01*
X165285714Y-115367142D01*
X165238095Y-115271904D01*
X165238095Y-114986190D01*
X165285714Y-114890952D01*
X165333333Y-114843333D01*
X165428571Y-114795714D01*
X165619047Y-114795714D01*
X165714285Y-114843333D01*
%TO.C,K19*%
X208009800Y-110296696D02*
X208509800Y-109430671D01*
X208033609Y-110255457D02*
X207927321Y-110249077D01*
X207762364Y-110153839D01*
X207703695Y-110064981D01*
X207686265Y-109999932D01*
X207692645Y-109893644D01*
X207835502Y-109646208D01*
X207924360Y-109587539D01*
X207989409Y-109570109D01*
X208095697Y-109576489D01*
X208260654Y-109671727D01*
X208319323Y-109760585D01*
X208422193Y-110534792D02*
X208755526Y-109957441D01*
X208922193Y-109668766D02*
X208857144Y-109686196D01*
X208874574Y-109751245D01*
X208939622Y-109733815D01*
X208922193Y-109668766D01*
X208874574Y-109751245D01*
X208958304Y-110844315D02*
X208899635Y-110755457D01*
X208882205Y-110690408D01*
X208888584Y-110584120D01*
X209031442Y-110336684D01*
X209120300Y-110278015D01*
X209185349Y-110260585D01*
X209291637Y-110266965D01*
X209415355Y-110338394D01*
X209474024Y-110427252D01*
X209491454Y-110492301D01*
X209485074Y-110598589D01*
X209342217Y-110846025D01*
X209253358Y-110904694D01*
X209188310Y-110922124D01*
X209082022Y-110915744D01*
X208958304Y-110844315D01*
X209989286Y-111439553D02*
X210489286Y-110573528D01*
X210013096Y-111398314D02*
X209906808Y-111391934D01*
X209741850Y-111296696D01*
X209683181Y-111207838D01*
X209665752Y-111142789D01*
X209672131Y-111036501D01*
X209814988Y-110789065D01*
X209903847Y-110730396D01*
X209968896Y-110712966D01*
X210075184Y-110719346D01*
X210240141Y-110814584D01*
X210298810Y-110903442D01*
X210755403Y-111826886D02*
X210649115Y-111820506D01*
X210484158Y-111725268D01*
X210425489Y-111636409D01*
X210431869Y-111530121D01*
X210622345Y-111200207D01*
X210711203Y-111141538D01*
X210817491Y-111147917D01*
X210982448Y-111243156D01*
X211041118Y-111332014D01*
X211034738Y-111438302D01*
X210987119Y-111520781D01*
X210527107Y-111365164D01*
X211334463Y-111776306D02*
X211994292Y-112157258D01*
X212611172Y-112898314D02*
X212504884Y-112891934D01*
X212339927Y-112796696D01*
X212281258Y-112707838D01*
X212263828Y-112642789D01*
X212270207Y-112536501D01*
X212413065Y-112289065D01*
X212501923Y-112230396D01*
X212566972Y-112212966D01*
X212673260Y-112219346D01*
X212838217Y-112314584D01*
X212896886Y-112403442D01*
X212958516Y-113153839D02*
X213458516Y-112287814D01*
X213329670Y-113368125D02*
X213591575Y-112914492D01*
X213597954Y-112808204D01*
X213539285Y-112719346D01*
X213415567Y-112647917D01*
X213309279Y-112641538D01*
X213244230Y-112658967D01*
X213865781Y-113677649D02*
X213807112Y-113588790D01*
X213789682Y-113523741D01*
X213796062Y-113417453D01*
X213938919Y-113170018D01*
X214027777Y-113111348D01*
X214092826Y-113093919D01*
X214199114Y-113100298D01*
X214322832Y-113171727D01*
X214381501Y-113260585D01*
X214398931Y-113325634D01*
X214392551Y-113431922D01*
X214249694Y-113679358D01*
X214160836Y-113738027D01*
X214095787Y-113755457D01*
X213989499Y-113749077D01*
X213865781Y-113677649D01*
X214920573Y-114231647D02*
X214814285Y-114225268D01*
X214649328Y-114130030D01*
X214590659Y-114041171D01*
X214573229Y-113976122D01*
X214579609Y-113869834D01*
X214722466Y-113622398D01*
X214811324Y-113563729D01*
X214876373Y-113546300D01*
X214982661Y-113552679D01*
X215147618Y-113647917D01*
X215206287Y-113736776D01*
%TO.C,K18*%
X186261904Y-100962380D02*
X186261904Y-99962380D01*
X186261904Y-100914761D02*
X186166666Y-100962380D01*
X185976190Y-100962380D01*
X185880952Y-100914761D01*
X185833333Y-100867142D01*
X185785714Y-100771904D01*
X185785714Y-100486190D01*
X185833333Y-100390952D01*
X185880952Y-100343333D01*
X185976190Y-100295714D01*
X186166666Y-100295714D01*
X186261904Y-100343333D01*
X186738095Y-100962380D02*
X186738095Y-100295714D01*
X186738095Y-99962380D02*
X186690476Y-100010000D01*
X186738095Y-100057619D01*
X186785714Y-100010000D01*
X186738095Y-99962380D01*
X186738095Y-100057619D01*
X187357142Y-100962380D02*
X187261904Y-100914761D01*
X187214285Y-100867142D01*
X187166666Y-100771904D01*
X187166666Y-100486190D01*
X187214285Y-100390952D01*
X187261904Y-100343333D01*
X187357142Y-100295714D01*
X187500000Y-100295714D01*
X187595238Y-100343333D01*
X187642857Y-100390952D01*
X187690476Y-100486190D01*
X187690476Y-100771904D01*
X187642857Y-100867142D01*
X187595238Y-100914761D01*
X187500000Y-100962380D01*
X187357142Y-100962380D01*
X188547619Y-100962380D02*
X188547619Y-99962380D01*
X188547619Y-100914761D02*
X188452380Y-100962380D01*
X188261904Y-100962380D01*
X188166666Y-100914761D01*
X188119047Y-100867142D01*
X188071428Y-100771904D01*
X188071428Y-100486190D01*
X188119047Y-100390952D01*
X188166666Y-100343333D01*
X188261904Y-100295714D01*
X188452380Y-100295714D01*
X188547619Y-100343333D01*
X189404761Y-100914761D02*
X189309523Y-100962380D01*
X189119047Y-100962380D01*
X189023809Y-100914761D01*
X188976190Y-100819523D01*
X188976190Y-100438571D01*
X189023809Y-100343333D01*
X189119047Y-100295714D01*
X189309523Y-100295714D01*
X189404761Y-100343333D01*
X189452380Y-100438571D01*
X189452380Y-100533809D01*
X188976190Y-100629047D01*
X189880952Y-100581428D02*
X190642857Y-100581428D01*
X191547619Y-100914761D02*
X191452380Y-100962380D01*
X191261904Y-100962380D01*
X191166666Y-100914761D01*
X191119047Y-100867142D01*
X191071428Y-100771904D01*
X191071428Y-100486190D01*
X191119047Y-100390952D01*
X191166666Y-100343333D01*
X191261904Y-100295714D01*
X191452380Y-100295714D01*
X191547619Y-100343333D01*
X191976190Y-100962380D02*
X191976190Y-99962380D01*
X192404761Y-100962380D02*
X192404761Y-100438571D01*
X192357142Y-100343333D01*
X192261904Y-100295714D01*
X192119047Y-100295714D01*
X192023809Y-100343333D01*
X191976190Y-100390952D01*
X193023809Y-100962380D02*
X192928571Y-100914761D01*
X192880952Y-100867142D01*
X192833333Y-100771904D01*
X192833333Y-100486190D01*
X192880952Y-100390952D01*
X192928571Y-100343333D01*
X193023809Y-100295714D01*
X193166666Y-100295714D01*
X193261904Y-100343333D01*
X193309523Y-100390952D01*
X193357142Y-100486190D01*
X193357142Y-100771904D01*
X193309523Y-100867142D01*
X193261904Y-100914761D01*
X193166666Y-100962380D01*
X193023809Y-100962380D01*
X194214285Y-100914761D02*
X194119047Y-100962380D01*
X193928571Y-100962380D01*
X193833333Y-100914761D01*
X193785714Y-100867142D01*
X193738095Y-100771904D01*
X193738095Y-100486190D01*
X193785714Y-100390952D01*
X193833333Y-100343333D01*
X193928571Y-100295714D01*
X194119047Y-100295714D01*
X194214285Y-100343333D01*
%TO.C,K17*%
X168261904Y-98462380D02*
X168261904Y-97462380D01*
X168261904Y-98414761D02*
X168166666Y-98462380D01*
X167976190Y-98462380D01*
X167880952Y-98414761D01*
X167833333Y-98367142D01*
X167785714Y-98271904D01*
X167785714Y-97986190D01*
X167833333Y-97890952D01*
X167880952Y-97843333D01*
X167976190Y-97795714D01*
X168166666Y-97795714D01*
X168261904Y-97843333D01*
X168738095Y-98462380D02*
X168738095Y-97795714D01*
X168738095Y-97462380D02*
X168690476Y-97510000D01*
X168738095Y-97557619D01*
X168785714Y-97510000D01*
X168738095Y-97462380D01*
X168738095Y-97557619D01*
X169357142Y-98462380D02*
X169261904Y-98414761D01*
X169214285Y-98367142D01*
X169166666Y-98271904D01*
X169166666Y-97986190D01*
X169214285Y-97890952D01*
X169261904Y-97843333D01*
X169357142Y-97795714D01*
X169500000Y-97795714D01*
X169595238Y-97843333D01*
X169642857Y-97890952D01*
X169690476Y-97986190D01*
X169690476Y-98271904D01*
X169642857Y-98367142D01*
X169595238Y-98414761D01*
X169500000Y-98462380D01*
X169357142Y-98462380D01*
X170547619Y-98462380D02*
X170547619Y-97462380D01*
X170547619Y-98414761D02*
X170452380Y-98462380D01*
X170261904Y-98462380D01*
X170166666Y-98414761D01*
X170119047Y-98367142D01*
X170071428Y-98271904D01*
X170071428Y-97986190D01*
X170119047Y-97890952D01*
X170166666Y-97843333D01*
X170261904Y-97795714D01*
X170452380Y-97795714D01*
X170547619Y-97843333D01*
X171404761Y-98414761D02*
X171309523Y-98462380D01*
X171119047Y-98462380D01*
X171023809Y-98414761D01*
X170976190Y-98319523D01*
X170976190Y-97938571D01*
X171023809Y-97843333D01*
X171119047Y-97795714D01*
X171309523Y-97795714D01*
X171404761Y-97843333D01*
X171452380Y-97938571D01*
X171452380Y-98033809D01*
X170976190Y-98129047D01*
X171880952Y-98081428D02*
X172642857Y-98081428D01*
X173547619Y-98414761D02*
X173452380Y-98462380D01*
X173261904Y-98462380D01*
X173166666Y-98414761D01*
X173119047Y-98367142D01*
X173071428Y-98271904D01*
X173071428Y-97986190D01*
X173119047Y-97890952D01*
X173166666Y-97843333D01*
X173261904Y-97795714D01*
X173452380Y-97795714D01*
X173547619Y-97843333D01*
X173976190Y-98462380D02*
X173976190Y-97462380D01*
X174404761Y-98462380D02*
X174404761Y-97938571D01*
X174357142Y-97843333D01*
X174261904Y-97795714D01*
X174119047Y-97795714D01*
X174023809Y-97843333D01*
X173976190Y-97890952D01*
X175023809Y-98462380D02*
X174928571Y-98414761D01*
X174880952Y-98367142D01*
X174833333Y-98271904D01*
X174833333Y-97986190D01*
X174880952Y-97890952D01*
X174928571Y-97843333D01*
X175023809Y-97795714D01*
X175166666Y-97795714D01*
X175261904Y-97843333D01*
X175309523Y-97890952D01*
X175357142Y-97986190D01*
X175357142Y-98271904D01*
X175309523Y-98367142D01*
X175261904Y-98414761D01*
X175166666Y-98462380D01*
X175023809Y-98462380D01*
X176214285Y-98414761D02*
X176119047Y-98462380D01*
X175928571Y-98462380D01*
X175833333Y-98414761D01*
X175785714Y-98367142D01*
X175738095Y-98271904D01*
X175738095Y-97986190D01*
X175785714Y-97890952D01*
X175833333Y-97843333D01*
X175928571Y-97795714D01*
X176119047Y-97795714D01*
X176214285Y-97843333D01*
%TO.C,K16*%
X150261904Y-92962380D02*
X150261904Y-91962380D01*
X150261904Y-92914761D02*
X150166666Y-92962380D01*
X149976190Y-92962380D01*
X149880952Y-92914761D01*
X149833333Y-92867142D01*
X149785714Y-92771904D01*
X149785714Y-92486190D01*
X149833333Y-92390952D01*
X149880952Y-92343333D01*
X149976190Y-92295714D01*
X150166666Y-92295714D01*
X150261904Y-92343333D01*
X150738095Y-92962380D02*
X150738095Y-92295714D01*
X150738095Y-91962380D02*
X150690476Y-92010000D01*
X150738095Y-92057619D01*
X150785714Y-92010000D01*
X150738095Y-91962380D01*
X150738095Y-92057619D01*
X151357142Y-92962380D02*
X151261904Y-92914761D01*
X151214285Y-92867142D01*
X151166666Y-92771904D01*
X151166666Y-92486190D01*
X151214285Y-92390952D01*
X151261904Y-92343333D01*
X151357142Y-92295714D01*
X151500000Y-92295714D01*
X151595238Y-92343333D01*
X151642857Y-92390952D01*
X151690476Y-92486190D01*
X151690476Y-92771904D01*
X151642857Y-92867142D01*
X151595238Y-92914761D01*
X151500000Y-92962380D01*
X151357142Y-92962380D01*
X152547619Y-92962380D02*
X152547619Y-91962380D01*
X152547619Y-92914761D02*
X152452380Y-92962380D01*
X152261904Y-92962380D01*
X152166666Y-92914761D01*
X152119047Y-92867142D01*
X152071428Y-92771904D01*
X152071428Y-92486190D01*
X152119047Y-92390952D01*
X152166666Y-92343333D01*
X152261904Y-92295714D01*
X152452380Y-92295714D01*
X152547619Y-92343333D01*
X153404761Y-92914761D02*
X153309523Y-92962380D01*
X153119047Y-92962380D01*
X153023809Y-92914761D01*
X152976190Y-92819523D01*
X152976190Y-92438571D01*
X153023809Y-92343333D01*
X153119047Y-92295714D01*
X153309523Y-92295714D01*
X153404761Y-92343333D01*
X153452380Y-92438571D01*
X153452380Y-92533809D01*
X152976190Y-92629047D01*
X153880952Y-92581428D02*
X154642857Y-92581428D01*
X155547619Y-92914761D02*
X155452380Y-92962380D01*
X155261904Y-92962380D01*
X155166666Y-92914761D01*
X155119047Y-92867142D01*
X155071428Y-92771904D01*
X155071428Y-92486190D01*
X155119047Y-92390952D01*
X155166666Y-92343333D01*
X155261904Y-92295714D01*
X155452380Y-92295714D01*
X155547619Y-92343333D01*
X155976190Y-92962380D02*
X155976190Y-91962380D01*
X156404761Y-92962380D02*
X156404761Y-92438571D01*
X156357142Y-92343333D01*
X156261904Y-92295714D01*
X156119047Y-92295714D01*
X156023809Y-92343333D01*
X155976190Y-92390952D01*
X157023809Y-92962380D02*
X156928571Y-92914761D01*
X156880952Y-92867142D01*
X156833333Y-92771904D01*
X156833333Y-92486190D01*
X156880952Y-92390952D01*
X156928571Y-92343333D01*
X157023809Y-92295714D01*
X157166666Y-92295714D01*
X157261904Y-92343333D01*
X157309523Y-92390952D01*
X157357142Y-92486190D01*
X157357142Y-92771904D01*
X157309523Y-92867142D01*
X157261904Y-92914761D01*
X157166666Y-92962380D01*
X157023809Y-92962380D01*
X158214285Y-92914761D02*
X158119047Y-92962380D01*
X157928571Y-92962380D01*
X157833333Y-92914761D01*
X157785714Y-92867142D01*
X157738095Y-92771904D01*
X157738095Y-92486190D01*
X157785714Y-92390952D01*
X157833333Y-92343333D01*
X157928571Y-92295714D01*
X158119047Y-92295714D01*
X158214285Y-92343333D01*
%TO.C,K15*%
X132261904Y-99962380D02*
X132261904Y-98962380D01*
X132261904Y-99914761D02*
X132166666Y-99962380D01*
X131976190Y-99962380D01*
X131880952Y-99914761D01*
X131833333Y-99867142D01*
X131785714Y-99771904D01*
X131785714Y-99486190D01*
X131833333Y-99390952D01*
X131880952Y-99343333D01*
X131976190Y-99295714D01*
X132166666Y-99295714D01*
X132261904Y-99343333D01*
X132738095Y-99962380D02*
X132738095Y-99295714D01*
X132738095Y-98962380D02*
X132690476Y-99010000D01*
X132738095Y-99057619D01*
X132785714Y-99010000D01*
X132738095Y-98962380D01*
X132738095Y-99057619D01*
X133357142Y-99962380D02*
X133261904Y-99914761D01*
X133214285Y-99867142D01*
X133166666Y-99771904D01*
X133166666Y-99486190D01*
X133214285Y-99390952D01*
X133261904Y-99343333D01*
X133357142Y-99295714D01*
X133500000Y-99295714D01*
X133595238Y-99343333D01*
X133642857Y-99390952D01*
X133690476Y-99486190D01*
X133690476Y-99771904D01*
X133642857Y-99867142D01*
X133595238Y-99914761D01*
X133500000Y-99962380D01*
X133357142Y-99962380D01*
X134547619Y-99962380D02*
X134547619Y-98962380D01*
X134547619Y-99914761D02*
X134452380Y-99962380D01*
X134261904Y-99962380D01*
X134166666Y-99914761D01*
X134119047Y-99867142D01*
X134071428Y-99771904D01*
X134071428Y-99486190D01*
X134119047Y-99390952D01*
X134166666Y-99343333D01*
X134261904Y-99295714D01*
X134452380Y-99295714D01*
X134547619Y-99343333D01*
X135404761Y-99914761D02*
X135309523Y-99962380D01*
X135119047Y-99962380D01*
X135023809Y-99914761D01*
X134976190Y-99819523D01*
X134976190Y-99438571D01*
X135023809Y-99343333D01*
X135119047Y-99295714D01*
X135309523Y-99295714D01*
X135404761Y-99343333D01*
X135452380Y-99438571D01*
X135452380Y-99533809D01*
X134976190Y-99629047D01*
X135880952Y-99581428D02*
X136642857Y-99581428D01*
X137547619Y-99914761D02*
X137452380Y-99962380D01*
X137261904Y-99962380D01*
X137166666Y-99914761D01*
X137119047Y-99867142D01*
X137071428Y-99771904D01*
X137071428Y-99486190D01*
X137119047Y-99390952D01*
X137166666Y-99343333D01*
X137261904Y-99295714D01*
X137452380Y-99295714D01*
X137547619Y-99343333D01*
X137976190Y-99962380D02*
X137976190Y-98962380D01*
X138404761Y-99962380D02*
X138404761Y-99438571D01*
X138357142Y-99343333D01*
X138261904Y-99295714D01*
X138119047Y-99295714D01*
X138023809Y-99343333D01*
X137976190Y-99390952D01*
X139023809Y-99962380D02*
X138928571Y-99914761D01*
X138880952Y-99867142D01*
X138833333Y-99771904D01*
X138833333Y-99486190D01*
X138880952Y-99390952D01*
X138928571Y-99343333D01*
X139023809Y-99295714D01*
X139166666Y-99295714D01*
X139261904Y-99343333D01*
X139309523Y-99390952D01*
X139357142Y-99486190D01*
X139357142Y-99771904D01*
X139309523Y-99867142D01*
X139261904Y-99914761D01*
X139166666Y-99962380D01*
X139023809Y-99962380D01*
X140214285Y-99914761D02*
X140119047Y-99962380D01*
X139928571Y-99962380D01*
X139833333Y-99914761D01*
X139785714Y-99867142D01*
X139738095Y-99771904D01*
X139738095Y-99486190D01*
X139785714Y-99390952D01*
X139833333Y-99343333D01*
X139928571Y-99295714D01*
X140119047Y-99295714D01*
X140214285Y-99343333D01*
%TO.C,K14*%
X114261904Y-111962380D02*
X114261904Y-110962380D01*
X114261904Y-111914761D02*
X114166666Y-111962380D01*
X113976190Y-111962380D01*
X113880952Y-111914761D01*
X113833333Y-111867142D01*
X113785714Y-111771904D01*
X113785714Y-111486190D01*
X113833333Y-111390952D01*
X113880952Y-111343333D01*
X113976190Y-111295714D01*
X114166666Y-111295714D01*
X114261904Y-111343333D01*
X114738095Y-111962380D02*
X114738095Y-111295714D01*
X114738095Y-110962380D02*
X114690476Y-111010000D01*
X114738095Y-111057619D01*
X114785714Y-111010000D01*
X114738095Y-110962380D01*
X114738095Y-111057619D01*
X115357142Y-111962380D02*
X115261904Y-111914761D01*
X115214285Y-111867142D01*
X115166666Y-111771904D01*
X115166666Y-111486190D01*
X115214285Y-111390952D01*
X115261904Y-111343333D01*
X115357142Y-111295714D01*
X115500000Y-111295714D01*
X115595238Y-111343333D01*
X115642857Y-111390952D01*
X115690476Y-111486190D01*
X115690476Y-111771904D01*
X115642857Y-111867142D01*
X115595238Y-111914761D01*
X115500000Y-111962380D01*
X115357142Y-111962380D01*
X116547619Y-111962380D02*
X116547619Y-110962380D01*
X116547619Y-111914761D02*
X116452380Y-111962380D01*
X116261904Y-111962380D01*
X116166666Y-111914761D01*
X116119047Y-111867142D01*
X116071428Y-111771904D01*
X116071428Y-111486190D01*
X116119047Y-111390952D01*
X116166666Y-111343333D01*
X116261904Y-111295714D01*
X116452380Y-111295714D01*
X116547619Y-111343333D01*
X117404761Y-111914761D02*
X117309523Y-111962380D01*
X117119047Y-111962380D01*
X117023809Y-111914761D01*
X116976190Y-111819523D01*
X116976190Y-111438571D01*
X117023809Y-111343333D01*
X117119047Y-111295714D01*
X117309523Y-111295714D01*
X117404761Y-111343333D01*
X117452380Y-111438571D01*
X117452380Y-111533809D01*
X116976190Y-111629047D01*
X117880952Y-111581428D02*
X118642857Y-111581428D01*
X119547619Y-111914761D02*
X119452380Y-111962380D01*
X119261904Y-111962380D01*
X119166666Y-111914761D01*
X119119047Y-111867142D01*
X119071428Y-111771904D01*
X119071428Y-111486190D01*
X119119047Y-111390952D01*
X119166666Y-111343333D01*
X119261904Y-111295714D01*
X119452380Y-111295714D01*
X119547619Y-111343333D01*
X119976190Y-111962380D02*
X119976190Y-110962380D01*
X120404761Y-111962380D02*
X120404761Y-111438571D01*
X120357142Y-111343333D01*
X120261904Y-111295714D01*
X120119047Y-111295714D01*
X120023809Y-111343333D01*
X119976190Y-111390952D01*
X121023809Y-111962380D02*
X120928571Y-111914761D01*
X120880952Y-111867142D01*
X120833333Y-111771904D01*
X120833333Y-111486190D01*
X120880952Y-111390952D01*
X120928571Y-111343333D01*
X121023809Y-111295714D01*
X121166666Y-111295714D01*
X121261904Y-111343333D01*
X121309523Y-111390952D01*
X121357142Y-111486190D01*
X121357142Y-111771904D01*
X121309523Y-111867142D01*
X121261904Y-111914761D01*
X121166666Y-111962380D01*
X121023809Y-111962380D01*
X122214285Y-111914761D02*
X122119047Y-111962380D01*
X121928571Y-111962380D01*
X121833333Y-111914761D01*
X121785714Y-111867142D01*
X121738095Y-111771904D01*
X121738095Y-111486190D01*
X121785714Y-111390952D01*
X121833333Y-111343333D01*
X121928571Y-111295714D01*
X122119047Y-111295714D01*
X122214285Y-111343333D01*
%TO.C,K13*%
X96261904Y-111962380D02*
X96261904Y-110962380D01*
X96261904Y-111914761D02*
X96166666Y-111962380D01*
X95976190Y-111962380D01*
X95880952Y-111914761D01*
X95833333Y-111867142D01*
X95785714Y-111771904D01*
X95785714Y-111486190D01*
X95833333Y-111390952D01*
X95880952Y-111343333D01*
X95976190Y-111295714D01*
X96166666Y-111295714D01*
X96261904Y-111343333D01*
X96738095Y-111962380D02*
X96738095Y-111295714D01*
X96738095Y-110962380D02*
X96690476Y-111010000D01*
X96738095Y-111057619D01*
X96785714Y-111010000D01*
X96738095Y-110962380D01*
X96738095Y-111057619D01*
X97357142Y-111962380D02*
X97261904Y-111914761D01*
X97214285Y-111867142D01*
X97166666Y-111771904D01*
X97166666Y-111486190D01*
X97214285Y-111390952D01*
X97261904Y-111343333D01*
X97357142Y-111295714D01*
X97500000Y-111295714D01*
X97595238Y-111343333D01*
X97642857Y-111390952D01*
X97690476Y-111486190D01*
X97690476Y-111771904D01*
X97642857Y-111867142D01*
X97595238Y-111914761D01*
X97500000Y-111962380D01*
X97357142Y-111962380D01*
X98547619Y-111962380D02*
X98547619Y-110962380D01*
X98547619Y-111914761D02*
X98452380Y-111962380D01*
X98261904Y-111962380D01*
X98166666Y-111914761D01*
X98119047Y-111867142D01*
X98071428Y-111771904D01*
X98071428Y-111486190D01*
X98119047Y-111390952D01*
X98166666Y-111343333D01*
X98261904Y-111295714D01*
X98452380Y-111295714D01*
X98547619Y-111343333D01*
X99404761Y-111914761D02*
X99309523Y-111962380D01*
X99119047Y-111962380D01*
X99023809Y-111914761D01*
X98976190Y-111819523D01*
X98976190Y-111438571D01*
X99023809Y-111343333D01*
X99119047Y-111295714D01*
X99309523Y-111295714D01*
X99404761Y-111343333D01*
X99452380Y-111438571D01*
X99452380Y-111533809D01*
X98976190Y-111629047D01*
X99880952Y-111581428D02*
X100642857Y-111581428D01*
X101547619Y-111914761D02*
X101452380Y-111962380D01*
X101261904Y-111962380D01*
X101166666Y-111914761D01*
X101119047Y-111867142D01*
X101071428Y-111771904D01*
X101071428Y-111486190D01*
X101119047Y-111390952D01*
X101166666Y-111343333D01*
X101261904Y-111295714D01*
X101452380Y-111295714D01*
X101547619Y-111343333D01*
X101976190Y-111962380D02*
X101976190Y-110962380D01*
X102404761Y-111962380D02*
X102404761Y-111438571D01*
X102357142Y-111343333D01*
X102261904Y-111295714D01*
X102119047Y-111295714D01*
X102023809Y-111343333D01*
X101976190Y-111390952D01*
X103023809Y-111962380D02*
X102928571Y-111914761D01*
X102880952Y-111867142D01*
X102833333Y-111771904D01*
X102833333Y-111486190D01*
X102880952Y-111390952D01*
X102928571Y-111343333D01*
X103023809Y-111295714D01*
X103166666Y-111295714D01*
X103261904Y-111343333D01*
X103309523Y-111390952D01*
X103357142Y-111486190D01*
X103357142Y-111771904D01*
X103309523Y-111867142D01*
X103261904Y-111914761D01*
X103166666Y-111962380D01*
X103023809Y-111962380D01*
X104214285Y-111914761D02*
X104119047Y-111962380D01*
X103928571Y-111962380D01*
X103833333Y-111914761D01*
X103785714Y-111867142D01*
X103738095Y-111771904D01*
X103738095Y-111486190D01*
X103785714Y-111390952D01*
X103833333Y-111343333D01*
X103928571Y-111295714D01*
X104119047Y-111295714D01*
X104214285Y-111343333D01*
%TO.C,K12*%
X186261904Y-83962380D02*
X186261904Y-82962380D01*
X186261904Y-83914761D02*
X186166666Y-83962380D01*
X185976190Y-83962380D01*
X185880952Y-83914761D01*
X185833333Y-83867142D01*
X185785714Y-83771904D01*
X185785714Y-83486190D01*
X185833333Y-83390952D01*
X185880952Y-83343333D01*
X185976190Y-83295714D01*
X186166666Y-83295714D01*
X186261904Y-83343333D01*
X186738095Y-83962380D02*
X186738095Y-83295714D01*
X186738095Y-82962380D02*
X186690476Y-83010000D01*
X186738095Y-83057619D01*
X186785714Y-83010000D01*
X186738095Y-82962380D01*
X186738095Y-83057619D01*
X187357142Y-83962380D02*
X187261904Y-83914761D01*
X187214285Y-83867142D01*
X187166666Y-83771904D01*
X187166666Y-83486190D01*
X187214285Y-83390952D01*
X187261904Y-83343333D01*
X187357142Y-83295714D01*
X187500000Y-83295714D01*
X187595238Y-83343333D01*
X187642857Y-83390952D01*
X187690476Y-83486190D01*
X187690476Y-83771904D01*
X187642857Y-83867142D01*
X187595238Y-83914761D01*
X187500000Y-83962380D01*
X187357142Y-83962380D01*
X188547619Y-83962380D02*
X188547619Y-82962380D01*
X188547619Y-83914761D02*
X188452380Y-83962380D01*
X188261904Y-83962380D01*
X188166666Y-83914761D01*
X188119047Y-83867142D01*
X188071428Y-83771904D01*
X188071428Y-83486190D01*
X188119047Y-83390952D01*
X188166666Y-83343333D01*
X188261904Y-83295714D01*
X188452380Y-83295714D01*
X188547619Y-83343333D01*
X189404761Y-83914761D02*
X189309523Y-83962380D01*
X189119047Y-83962380D01*
X189023809Y-83914761D01*
X188976190Y-83819523D01*
X188976190Y-83438571D01*
X189023809Y-83343333D01*
X189119047Y-83295714D01*
X189309523Y-83295714D01*
X189404761Y-83343333D01*
X189452380Y-83438571D01*
X189452380Y-83533809D01*
X188976190Y-83629047D01*
X189880952Y-83581428D02*
X190642857Y-83581428D01*
X191547619Y-83914761D02*
X191452380Y-83962380D01*
X191261904Y-83962380D01*
X191166666Y-83914761D01*
X191119047Y-83867142D01*
X191071428Y-83771904D01*
X191071428Y-83486190D01*
X191119047Y-83390952D01*
X191166666Y-83343333D01*
X191261904Y-83295714D01*
X191452380Y-83295714D01*
X191547619Y-83343333D01*
X191976190Y-83962380D02*
X191976190Y-82962380D01*
X192404761Y-83962380D02*
X192404761Y-83438571D01*
X192357142Y-83343333D01*
X192261904Y-83295714D01*
X192119047Y-83295714D01*
X192023809Y-83343333D01*
X191976190Y-83390952D01*
X193023809Y-83962380D02*
X192928571Y-83914761D01*
X192880952Y-83867142D01*
X192833333Y-83771904D01*
X192833333Y-83486190D01*
X192880952Y-83390952D01*
X192928571Y-83343333D01*
X193023809Y-83295714D01*
X193166666Y-83295714D01*
X193261904Y-83343333D01*
X193309523Y-83390952D01*
X193357142Y-83486190D01*
X193357142Y-83771904D01*
X193309523Y-83867142D01*
X193261904Y-83914761D01*
X193166666Y-83962380D01*
X193023809Y-83962380D01*
X194214285Y-83914761D02*
X194119047Y-83962380D01*
X193928571Y-83962380D01*
X193833333Y-83914761D01*
X193785714Y-83867142D01*
X193738095Y-83771904D01*
X193738095Y-83486190D01*
X193785714Y-83390952D01*
X193833333Y-83343333D01*
X193928571Y-83295714D01*
X194119047Y-83295714D01*
X194214285Y-83343333D01*
%TO.C,K11*%
X168261904Y-81462380D02*
X168261904Y-80462380D01*
X168261904Y-81414761D02*
X168166666Y-81462380D01*
X167976190Y-81462380D01*
X167880952Y-81414761D01*
X167833333Y-81367142D01*
X167785714Y-81271904D01*
X167785714Y-80986190D01*
X167833333Y-80890952D01*
X167880952Y-80843333D01*
X167976190Y-80795714D01*
X168166666Y-80795714D01*
X168261904Y-80843333D01*
X168738095Y-81462380D02*
X168738095Y-80795714D01*
X168738095Y-80462380D02*
X168690476Y-80510000D01*
X168738095Y-80557619D01*
X168785714Y-80510000D01*
X168738095Y-80462380D01*
X168738095Y-80557619D01*
X169357142Y-81462380D02*
X169261904Y-81414761D01*
X169214285Y-81367142D01*
X169166666Y-81271904D01*
X169166666Y-80986190D01*
X169214285Y-80890952D01*
X169261904Y-80843333D01*
X169357142Y-80795714D01*
X169500000Y-80795714D01*
X169595238Y-80843333D01*
X169642857Y-80890952D01*
X169690476Y-80986190D01*
X169690476Y-81271904D01*
X169642857Y-81367142D01*
X169595238Y-81414761D01*
X169500000Y-81462380D01*
X169357142Y-81462380D01*
X170547619Y-81462380D02*
X170547619Y-80462380D01*
X170547619Y-81414761D02*
X170452380Y-81462380D01*
X170261904Y-81462380D01*
X170166666Y-81414761D01*
X170119047Y-81367142D01*
X170071428Y-81271904D01*
X170071428Y-80986190D01*
X170119047Y-80890952D01*
X170166666Y-80843333D01*
X170261904Y-80795714D01*
X170452380Y-80795714D01*
X170547619Y-80843333D01*
X171404761Y-81414761D02*
X171309523Y-81462380D01*
X171119047Y-81462380D01*
X171023809Y-81414761D01*
X170976190Y-81319523D01*
X170976190Y-80938571D01*
X171023809Y-80843333D01*
X171119047Y-80795714D01*
X171309523Y-80795714D01*
X171404761Y-80843333D01*
X171452380Y-80938571D01*
X171452380Y-81033809D01*
X170976190Y-81129047D01*
X171880952Y-81081428D02*
X172642857Y-81081428D01*
X173547619Y-81414761D02*
X173452380Y-81462380D01*
X173261904Y-81462380D01*
X173166666Y-81414761D01*
X173119047Y-81367142D01*
X173071428Y-81271904D01*
X173071428Y-80986190D01*
X173119047Y-80890952D01*
X173166666Y-80843333D01*
X173261904Y-80795714D01*
X173452380Y-80795714D01*
X173547619Y-80843333D01*
X173976190Y-81462380D02*
X173976190Y-80462380D01*
X174404761Y-81462380D02*
X174404761Y-80938571D01*
X174357142Y-80843333D01*
X174261904Y-80795714D01*
X174119047Y-80795714D01*
X174023809Y-80843333D01*
X173976190Y-80890952D01*
X175023809Y-81462380D02*
X174928571Y-81414761D01*
X174880952Y-81367142D01*
X174833333Y-81271904D01*
X174833333Y-80986190D01*
X174880952Y-80890952D01*
X174928571Y-80843333D01*
X175023809Y-80795714D01*
X175166666Y-80795714D01*
X175261904Y-80843333D01*
X175309523Y-80890952D01*
X175357142Y-80986190D01*
X175357142Y-81271904D01*
X175309523Y-81367142D01*
X175261904Y-81414761D01*
X175166666Y-81462380D01*
X175023809Y-81462380D01*
X176214285Y-81414761D02*
X176119047Y-81462380D01*
X175928571Y-81462380D01*
X175833333Y-81414761D01*
X175785714Y-81367142D01*
X175738095Y-81271904D01*
X175738095Y-80986190D01*
X175785714Y-80890952D01*
X175833333Y-80843333D01*
X175928571Y-80795714D01*
X176119047Y-80795714D01*
X176214285Y-80843333D01*
%TO.C,K10*%
X150261904Y-75962380D02*
X150261904Y-74962380D01*
X150261904Y-75914761D02*
X150166666Y-75962380D01*
X149976190Y-75962380D01*
X149880952Y-75914761D01*
X149833333Y-75867142D01*
X149785714Y-75771904D01*
X149785714Y-75486190D01*
X149833333Y-75390952D01*
X149880952Y-75343333D01*
X149976190Y-75295714D01*
X150166666Y-75295714D01*
X150261904Y-75343333D01*
X150738095Y-75962380D02*
X150738095Y-75295714D01*
X150738095Y-74962380D02*
X150690476Y-75010000D01*
X150738095Y-75057619D01*
X150785714Y-75010000D01*
X150738095Y-74962380D01*
X150738095Y-75057619D01*
X151357142Y-75962380D02*
X151261904Y-75914761D01*
X151214285Y-75867142D01*
X151166666Y-75771904D01*
X151166666Y-75486190D01*
X151214285Y-75390952D01*
X151261904Y-75343333D01*
X151357142Y-75295714D01*
X151500000Y-75295714D01*
X151595238Y-75343333D01*
X151642857Y-75390952D01*
X151690476Y-75486190D01*
X151690476Y-75771904D01*
X151642857Y-75867142D01*
X151595238Y-75914761D01*
X151500000Y-75962380D01*
X151357142Y-75962380D01*
X152547619Y-75962380D02*
X152547619Y-74962380D01*
X152547619Y-75914761D02*
X152452380Y-75962380D01*
X152261904Y-75962380D01*
X152166666Y-75914761D01*
X152119047Y-75867142D01*
X152071428Y-75771904D01*
X152071428Y-75486190D01*
X152119047Y-75390952D01*
X152166666Y-75343333D01*
X152261904Y-75295714D01*
X152452380Y-75295714D01*
X152547619Y-75343333D01*
X153404761Y-75914761D02*
X153309523Y-75962380D01*
X153119047Y-75962380D01*
X153023809Y-75914761D01*
X152976190Y-75819523D01*
X152976190Y-75438571D01*
X153023809Y-75343333D01*
X153119047Y-75295714D01*
X153309523Y-75295714D01*
X153404761Y-75343333D01*
X153452380Y-75438571D01*
X153452380Y-75533809D01*
X152976190Y-75629047D01*
X153880952Y-75581428D02*
X154642857Y-75581428D01*
X155547619Y-75914761D02*
X155452380Y-75962380D01*
X155261904Y-75962380D01*
X155166666Y-75914761D01*
X155119047Y-75867142D01*
X155071428Y-75771904D01*
X155071428Y-75486190D01*
X155119047Y-75390952D01*
X155166666Y-75343333D01*
X155261904Y-75295714D01*
X155452380Y-75295714D01*
X155547619Y-75343333D01*
X155976190Y-75962380D02*
X155976190Y-74962380D01*
X156404761Y-75962380D02*
X156404761Y-75438571D01*
X156357142Y-75343333D01*
X156261904Y-75295714D01*
X156119047Y-75295714D01*
X156023809Y-75343333D01*
X155976190Y-75390952D01*
X157023809Y-75962380D02*
X156928571Y-75914761D01*
X156880952Y-75867142D01*
X156833333Y-75771904D01*
X156833333Y-75486190D01*
X156880952Y-75390952D01*
X156928571Y-75343333D01*
X157023809Y-75295714D01*
X157166666Y-75295714D01*
X157261904Y-75343333D01*
X157309523Y-75390952D01*
X157357142Y-75486190D01*
X157357142Y-75771904D01*
X157309523Y-75867142D01*
X157261904Y-75914761D01*
X157166666Y-75962380D01*
X157023809Y-75962380D01*
X158214285Y-75914761D02*
X158119047Y-75962380D01*
X157928571Y-75962380D01*
X157833333Y-75914761D01*
X157785714Y-75867142D01*
X157738095Y-75771904D01*
X157738095Y-75486190D01*
X157785714Y-75390952D01*
X157833333Y-75343333D01*
X157928571Y-75295714D01*
X158119047Y-75295714D01*
X158214285Y-75343333D01*
%TO.C,K9*%
X132261904Y-82962380D02*
X132261904Y-81962380D01*
X132261904Y-82914761D02*
X132166666Y-82962380D01*
X131976190Y-82962380D01*
X131880952Y-82914761D01*
X131833333Y-82867142D01*
X131785714Y-82771904D01*
X131785714Y-82486190D01*
X131833333Y-82390952D01*
X131880952Y-82343333D01*
X131976190Y-82295714D01*
X132166666Y-82295714D01*
X132261904Y-82343333D01*
X132738095Y-82962380D02*
X132738095Y-82295714D01*
X132738095Y-81962380D02*
X132690476Y-82010000D01*
X132738095Y-82057619D01*
X132785714Y-82010000D01*
X132738095Y-81962380D01*
X132738095Y-82057619D01*
X133357142Y-82962380D02*
X133261904Y-82914761D01*
X133214285Y-82867142D01*
X133166666Y-82771904D01*
X133166666Y-82486190D01*
X133214285Y-82390952D01*
X133261904Y-82343333D01*
X133357142Y-82295714D01*
X133500000Y-82295714D01*
X133595238Y-82343333D01*
X133642857Y-82390952D01*
X133690476Y-82486190D01*
X133690476Y-82771904D01*
X133642857Y-82867142D01*
X133595238Y-82914761D01*
X133500000Y-82962380D01*
X133357142Y-82962380D01*
X134547619Y-82962380D02*
X134547619Y-81962380D01*
X134547619Y-82914761D02*
X134452380Y-82962380D01*
X134261904Y-82962380D01*
X134166666Y-82914761D01*
X134119047Y-82867142D01*
X134071428Y-82771904D01*
X134071428Y-82486190D01*
X134119047Y-82390952D01*
X134166666Y-82343333D01*
X134261904Y-82295714D01*
X134452380Y-82295714D01*
X134547619Y-82343333D01*
X135404761Y-82914761D02*
X135309523Y-82962380D01*
X135119047Y-82962380D01*
X135023809Y-82914761D01*
X134976190Y-82819523D01*
X134976190Y-82438571D01*
X135023809Y-82343333D01*
X135119047Y-82295714D01*
X135309523Y-82295714D01*
X135404761Y-82343333D01*
X135452380Y-82438571D01*
X135452380Y-82533809D01*
X134976190Y-82629047D01*
X135880952Y-82581428D02*
X136642857Y-82581428D01*
X137547619Y-82914761D02*
X137452380Y-82962380D01*
X137261904Y-82962380D01*
X137166666Y-82914761D01*
X137119047Y-82867142D01*
X137071428Y-82771904D01*
X137071428Y-82486190D01*
X137119047Y-82390952D01*
X137166666Y-82343333D01*
X137261904Y-82295714D01*
X137452380Y-82295714D01*
X137547619Y-82343333D01*
X137976190Y-82962380D02*
X137976190Y-81962380D01*
X138404761Y-82962380D02*
X138404761Y-82438571D01*
X138357142Y-82343333D01*
X138261904Y-82295714D01*
X138119047Y-82295714D01*
X138023809Y-82343333D01*
X137976190Y-82390952D01*
X139023809Y-82962380D02*
X138928571Y-82914761D01*
X138880952Y-82867142D01*
X138833333Y-82771904D01*
X138833333Y-82486190D01*
X138880952Y-82390952D01*
X138928571Y-82343333D01*
X139023809Y-82295714D01*
X139166666Y-82295714D01*
X139261904Y-82343333D01*
X139309523Y-82390952D01*
X139357142Y-82486190D01*
X139357142Y-82771904D01*
X139309523Y-82867142D01*
X139261904Y-82914761D01*
X139166666Y-82962380D01*
X139023809Y-82962380D01*
X140214285Y-82914761D02*
X140119047Y-82962380D01*
X139928571Y-82962380D01*
X139833333Y-82914761D01*
X139785714Y-82867142D01*
X139738095Y-82771904D01*
X139738095Y-82486190D01*
X139785714Y-82390952D01*
X139833333Y-82343333D01*
X139928571Y-82295714D01*
X140119047Y-82295714D01*
X140214285Y-82343333D01*
%TO.C,K8*%
X114261904Y-94962380D02*
X114261904Y-93962380D01*
X114261904Y-94914761D02*
X114166666Y-94962380D01*
X113976190Y-94962380D01*
X113880952Y-94914761D01*
X113833333Y-94867142D01*
X113785714Y-94771904D01*
X113785714Y-94486190D01*
X113833333Y-94390952D01*
X113880952Y-94343333D01*
X113976190Y-94295714D01*
X114166666Y-94295714D01*
X114261904Y-94343333D01*
X114738095Y-94962380D02*
X114738095Y-94295714D01*
X114738095Y-93962380D02*
X114690476Y-94010000D01*
X114738095Y-94057619D01*
X114785714Y-94010000D01*
X114738095Y-93962380D01*
X114738095Y-94057619D01*
X115357142Y-94962380D02*
X115261904Y-94914761D01*
X115214285Y-94867142D01*
X115166666Y-94771904D01*
X115166666Y-94486190D01*
X115214285Y-94390952D01*
X115261904Y-94343333D01*
X115357142Y-94295714D01*
X115500000Y-94295714D01*
X115595238Y-94343333D01*
X115642857Y-94390952D01*
X115690476Y-94486190D01*
X115690476Y-94771904D01*
X115642857Y-94867142D01*
X115595238Y-94914761D01*
X115500000Y-94962380D01*
X115357142Y-94962380D01*
X116547619Y-94962380D02*
X116547619Y-93962380D01*
X116547619Y-94914761D02*
X116452380Y-94962380D01*
X116261904Y-94962380D01*
X116166666Y-94914761D01*
X116119047Y-94867142D01*
X116071428Y-94771904D01*
X116071428Y-94486190D01*
X116119047Y-94390952D01*
X116166666Y-94343333D01*
X116261904Y-94295714D01*
X116452380Y-94295714D01*
X116547619Y-94343333D01*
X117404761Y-94914761D02*
X117309523Y-94962380D01*
X117119047Y-94962380D01*
X117023809Y-94914761D01*
X116976190Y-94819523D01*
X116976190Y-94438571D01*
X117023809Y-94343333D01*
X117119047Y-94295714D01*
X117309523Y-94295714D01*
X117404761Y-94343333D01*
X117452380Y-94438571D01*
X117452380Y-94533809D01*
X116976190Y-94629047D01*
X117880952Y-94581428D02*
X118642857Y-94581428D01*
X119547619Y-94914761D02*
X119452380Y-94962380D01*
X119261904Y-94962380D01*
X119166666Y-94914761D01*
X119119047Y-94867142D01*
X119071428Y-94771904D01*
X119071428Y-94486190D01*
X119119047Y-94390952D01*
X119166666Y-94343333D01*
X119261904Y-94295714D01*
X119452380Y-94295714D01*
X119547619Y-94343333D01*
X119976190Y-94962380D02*
X119976190Y-93962380D01*
X120404761Y-94962380D02*
X120404761Y-94438571D01*
X120357142Y-94343333D01*
X120261904Y-94295714D01*
X120119047Y-94295714D01*
X120023809Y-94343333D01*
X119976190Y-94390952D01*
X121023809Y-94962380D02*
X120928571Y-94914761D01*
X120880952Y-94867142D01*
X120833333Y-94771904D01*
X120833333Y-94486190D01*
X120880952Y-94390952D01*
X120928571Y-94343333D01*
X121023809Y-94295714D01*
X121166666Y-94295714D01*
X121261904Y-94343333D01*
X121309523Y-94390952D01*
X121357142Y-94486190D01*
X121357142Y-94771904D01*
X121309523Y-94867142D01*
X121261904Y-94914761D01*
X121166666Y-94962380D01*
X121023809Y-94962380D01*
X122214285Y-94914761D02*
X122119047Y-94962380D01*
X121928571Y-94962380D01*
X121833333Y-94914761D01*
X121785714Y-94867142D01*
X121738095Y-94771904D01*
X121738095Y-94486190D01*
X121785714Y-94390952D01*
X121833333Y-94343333D01*
X121928571Y-94295714D01*
X122119047Y-94295714D01*
X122214285Y-94343333D01*
%TO.C,K7*%
X96261904Y-94962380D02*
X96261904Y-93962380D01*
X96261904Y-94914761D02*
X96166666Y-94962380D01*
X95976190Y-94962380D01*
X95880952Y-94914761D01*
X95833333Y-94867142D01*
X95785714Y-94771904D01*
X95785714Y-94486190D01*
X95833333Y-94390952D01*
X95880952Y-94343333D01*
X95976190Y-94295714D01*
X96166666Y-94295714D01*
X96261904Y-94343333D01*
X96738095Y-94962380D02*
X96738095Y-94295714D01*
X96738095Y-93962380D02*
X96690476Y-94010000D01*
X96738095Y-94057619D01*
X96785714Y-94010000D01*
X96738095Y-93962380D01*
X96738095Y-94057619D01*
X97357142Y-94962380D02*
X97261904Y-94914761D01*
X97214285Y-94867142D01*
X97166666Y-94771904D01*
X97166666Y-94486190D01*
X97214285Y-94390952D01*
X97261904Y-94343333D01*
X97357142Y-94295714D01*
X97500000Y-94295714D01*
X97595238Y-94343333D01*
X97642857Y-94390952D01*
X97690476Y-94486190D01*
X97690476Y-94771904D01*
X97642857Y-94867142D01*
X97595238Y-94914761D01*
X97500000Y-94962380D01*
X97357142Y-94962380D01*
X98547619Y-94962380D02*
X98547619Y-93962380D01*
X98547619Y-94914761D02*
X98452380Y-94962380D01*
X98261904Y-94962380D01*
X98166666Y-94914761D01*
X98119047Y-94867142D01*
X98071428Y-94771904D01*
X98071428Y-94486190D01*
X98119047Y-94390952D01*
X98166666Y-94343333D01*
X98261904Y-94295714D01*
X98452380Y-94295714D01*
X98547619Y-94343333D01*
X99404761Y-94914761D02*
X99309523Y-94962380D01*
X99119047Y-94962380D01*
X99023809Y-94914761D01*
X98976190Y-94819523D01*
X98976190Y-94438571D01*
X99023809Y-94343333D01*
X99119047Y-94295714D01*
X99309523Y-94295714D01*
X99404761Y-94343333D01*
X99452380Y-94438571D01*
X99452380Y-94533809D01*
X98976190Y-94629047D01*
X99880952Y-94581428D02*
X100642857Y-94581428D01*
X101547619Y-94914761D02*
X101452380Y-94962380D01*
X101261904Y-94962380D01*
X101166666Y-94914761D01*
X101119047Y-94867142D01*
X101071428Y-94771904D01*
X101071428Y-94486190D01*
X101119047Y-94390952D01*
X101166666Y-94343333D01*
X101261904Y-94295714D01*
X101452380Y-94295714D01*
X101547619Y-94343333D01*
X101976190Y-94962380D02*
X101976190Y-93962380D01*
X102404761Y-94962380D02*
X102404761Y-94438571D01*
X102357142Y-94343333D01*
X102261904Y-94295714D01*
X102119047Y-94295714D01*
X102023809Y-94343333D01*
X101976190Y-94390952D01*
X103023809Y-94962380D02*
X102928571Y-94914761D01*
X102880952Y-94867142D01*
X102833333Y-94771904D01*
X102833333Y-94486190D01*
X102880952Y-94390952D01*
X102928571Y-94343333D01*
X103023809Y-94295714D01*
X103166666Y-94295714D01*
X103261904Y-94343333D01*
X103309523Y-94390952D01*
X103357142Y-94486190D01*
X103357142Y-94771904D01*
X103309523Y-94867142D01*
X103261904Y-94914761D01*
X103166666Y-94962380D01*
X103023809Y-94962380D01*
X104214285Y-94914761D02*
X104119047Y-94962380D01*
X103928571Y-94962380D01*
X103833333Y-94914761D01*
X103785714Y-94867142D01*
X103738095Y-94771904D01*
X103738095Y-94486190D01*
X103785714Y-94390952D01*
X103833333Y-94343333D01*
X103928571Y-94295714D01*
X104119047Y-94295714D01*
X104214285Y-94343333D01*
%TO.C,K6*%
X186261904Y-66962380D02*
X186261904Y-65962380D01*
X186261904Y-66914761D02*
X186166666Y-66962380D01*
X185976190Y-66962380D01*
X185880952Y-66914761D01*
X185833333Y-66867142D01*
X185785714Y-66771904D01*
X185785714Y-66486190D01*
X185833333Y-66390952D01*
X185880952Y-66343333D01*
X185976190Y-66295714D01*
X186166666Y-66295714D01*
X186261904Y-66343333D01*
X186738095Y-66962380D02*
X186738095Y-66295714D01*
X186738095Y-65962380D02*
X186690476Y-66010000D01*
X186738095Y-66057619D01*
X186785714Y-66010000D01*
X186738095Y-65962380D01*
X186738095Y-66057619D01*
X187357142Y-66962380D02*
X187261904Y-66914761D01*
X187214285Y-66867142D01*
X187166666Y-66771904D01*
X187166666Y-66486190D01*
X187214285Y-66390952D01*
X187261904Y-66343333D01*
X187357142Y-66295714D01*
X187500000Y-66295714D01*
X187595238Y-66343333D01*
X187642857Y-66390952D01*
X187690476Y-66486190D01*
X187690476Y-66771904D01*
X187642857Y-66867142D01*
X187595238Y-66914761D01*
X187500000Y-66962380D01*
X187357142Y-66962380D01*
X188547619Y-66962380D02*
X188547619Y-65962380D01*
X188547619Y-66914761D02*
X188452380Y-66962380D01*
X188261904Y-66962380D01*
X188166666Y-66914761D01*
X188119047Y-66867142D01*
X188071428Y-66771904D01*
X188071428Y-66486190D01*
X188119047Y-66390952D01*
X188166666Y-66343333D01*
X188261904Y-66295714D01*
X188452380Y-66295714D01*
X188547619Y-66343333D01*
X189404761Y-66914761D02*
X189309523Y-66962380D01*
X189119047Y-66962380D01*
X189023809Y-66914761D01*
X188976190Y-66819523D01*
X188976190Y-66438571D01*
X189023809Y-66343333D01*
X189119047Y-66295714D01*
X189309523Y-66295714D01*
X189404761Y-66343333D01*
X189452380Y-66438571D01*
X189452380Y-66533809D01*
X188976190Y-66629047D01*
X189880952Y-66581428D02*
X190642857Y-66581428D01*
X191547619Y-66914761D02*
X191452380Y-66962380D01*
X191261904Y-66962380D01*
X191166666Y-66914761D01*
X191119047Y-66867142D01*
X191071428Y-66771904D01*
X191071428Y-66486190D01*
X191119047Y-66390952D01*
X191166666Y-66343333D01*
X191261904Y-66295714D01*
X191452380Y-66295714D01*
X191547619Y-66343333D01*
X191976190Y-66962380D02*
X191976190Y-65962380D01*
X192404761Y-66962380D02*
X192404761Y-66438571D01*
X192357142Y-66343333D01*
X192261904Y-66295714D01*
X192119047Y-66295714D01*
X192023809Y-66343333D01*
X191976190Y-66390952D01*
X193023809Y-66962380D02*
X192928571Y-66914761D01*
X192880952Y-66867142D01*
X192833333Y-66771904D01*
X192833333Y-66486190D01*
X192880952Y-66390952D01*
X192928571Y-66343333D01*
X193023809Y-66295714D01*
X193166666Y-66295714D01*
X193261904Y-66343333D01*
X193309523Y-66390952D01*
X193357142Y-66486190D01*
X193357142Y-66771904D01*
X193309523Y-66867142D01*
X193261904Y-66914761D01*
X193166666Y-66962380D01*
X193023809Y-66962380D01*
X194214285Y-66914761D02*
X194119047Y-66962380D01*
X193928571Y-66962380D01*
X193833333Y-66914761D01*
X193785714Y-66867142D01*
X193738095Y-66771904D01*
X193738095Y-66486190D01*
X193785714Y-66390952D01*
X193833333Y-66343333D01*
X193928571Y-66295714D01*
X194119047Y-66295714D01*
X194214285Y-66343333D01*
%TO.C,K5*%
X168261904Y-64462380D02*
X168261904Y-63462380D01*
X168261904Y-64414761D02*
X168166666Y-64462380D01*
X167976190Y-64462380D01*
X167880952Y-64414761D01*
X167833333Y-64367142D01*
X167785714Y-64271904D01*
X167785714Y-63986190D01*
X167833333Y-63890952D01*
X167880952Y-63843333D01*
X167976190Y-63795714D01*
X168166666Y-63795714D01*
X168261904Y-63843333D01*
X168738095Y-64462380D02*
X168738095Y-63795714D01*
X168738095Y-63462380D02*
X168690476Y-63510000D01*
X168738095Y-63557619D01*
X168785714Y-63510000D01*
X168738095Y-63462380D01*
X168738095Y-63557619D01*
X169357142Y-64462380D02*
X169261904Y-64414761D01*
X169214285Y-64367142D01*
X169166666Y-64271904D01*
X169166666Y-63986190D01*
X169214285Y-63890952D01*
X169261904Y-63843333D01*
X169357142Y-63795714D01*
X169500000Y-63795714D01*
X169595238Y-63843333D01*
X169642857Y-63890952D01*
X169690476Y-63986190D01*
X169690476Y-64271904D01*
X169642857Y-64367142D01*
X169595238Y-64414761D01*
X169500000Y-64462380D01*
X169357142Y-64462380D01*
X170547619Y-64462380D02*
X170547619Y-63462380D01*
X170547619Y-64414761D02*
X170452380Y-64462380D01*
X170261904Y-64462380D01*
X170166666Y-64414761D01*
X170119047Y-64367142D01*
X170071428Y-64271904D01*
X170071428Y-63986190D01*
X170119047Y-63890952D01*
X170166666Y-63843333D01*
X170261904Y-63795714D01*
X170452380Y-63795714D01*
X170547619Y-63843333D01*
X171404761Y-64414761D02*
X171309523Y-64462380D01*
X171119047Y-64462380D01*
X171023809Y-64414761D01*
X170976190Y-64319523D01*
X170976190Y-63938571D01*
X171023809Y-63843333D01*
X171119047Y-63795714D01*
X171309523Y-63795714D01*
X171404761Y-63843333D01*
X171452380Y-63938571D01*
X171452380Y-64033809D01*
X170976190Y-64129047D01*
X171880952Y-64081428D02*
X172642857Y-64081428D01*
X173547619Y-64414761D02*
X173452380Y-64462380D01*
X173261904Y-64462380D01*
X173166666Y-64414761D01*
X173119047Y-64367142D01*
X173071428Y-64271904D01*
X173071428Y-63986190D01*
X173119047Y-63890952D01*
X173166666Y-63843333D01*
X173261904Y-63795714D01*
X173452380Y-63795714D01*
X173547619Y-63843333D01*
X173976190Y-64462380D02*
X173976190Y-63462380D01*
X174404761Y-64462380D02*
X174404761Y-63938571D01*
X174357142Y-63843333D01*
X174261904Y-63795714D01*
X174119047Y-63795714D01*
X174023809Y-63843333D01*
X173976190Y-63890952D01*
X175023809Y-64462380D02*
X174928571Y-64414761D01*
X174880952Y-64367142D01*
X174833333Y-64271904D01*
X174833333Y-63986190D01*
X174880952Y-63890952D01*
X174928571Y-63843333D01*
X175023809Y-63795714D01*
X175166666Y-63795714D01*
X175261904Y-63843333D01*
X175309523Y-63890952D01*
X175357142Y-63986190D01*
X175357142Y-64271904D01*
X175309523Y-64367142D01*
X175261904Y-64414761D01*
X175166666Y-64462380D01*
X175023809Y-64462380D01*
X176214285Y-64414761D02*
X176119047Y-64462380D01*
X175928571Y-64462380D01*
X175833333Y-64414761D01*
X175785714Y-64367142D01*
X175738095Y-64271904D01*
X175738095Y-63986190D01*
X175785714Y-63890952D01*
X175833333Y-63843333D01*
X175928571Y-63795714D01*
X176119047Y-63795714D01*
X176214285Y-63843333D01*
%TO.C,K4*%
X150261904Y-58962380D02*
X150261904Y-57962380D01*
X150261904Y-58914761D02*
X150166666Y-58962380D01*
X149976190Y-58962380D01*
X149880952Y-58914761D01*
X149833333Y-58867142D01*
X149785714Y-58771904D01*
X149785714Y-58486190D01*
X149833333Y-58390952D01*
X149880952Y-58343333D01*
X149976190Y-58295714D01*
X150166666Y-58295714D01*
X150261904Y-58343333D01*
X150738095Y-58962380D02*
X150738095Y-58295714D01*
X150738095Y-57962380D02*
X150690476Y-58010000D01*
X150738095Y-58057619D01*
X150785714Y-58010000D01*
X150738095Y-57962380D01*
X150738095Y-58057619D01*
X151357142Y-58962380D02*
X151261904Y-58914761D01*
X151214285Y-58867142D01*
X151166666Y-58771904D01*
X151166666Y-58486190D01*
X151214285Y-58390952D01*
X151261904Y-58343333D01*
X151357142Y-58295714D01*
X151500000Y-58295714D01*
X151595238Y-58343333D01*
X151642857Y-58390952D01*
X151690476Y-58486190D01*
X151690476Y-58771904D01*
X151642857Y-58867142D01*
X151595238Y-58914761D01*
X151500000Y-58962380D01*
X151357142Y-58962380D01*
X152547619Y-58962380D02*
X152547619Y-57962380D01*
X152547619Y-58914761D02*
X152452380Y-58962380D01*
X152261904Y-58962380D01*
X152166666Y-58914761D01*
X152119047Y-58867142D01*
X152071428Y-58771904D01*
X152071428Y-58486190D01*
X152119047Y-58390952D01*
X152166666Y-58343333D01*
X152261904Y-58295714D01*
X152452380Y-58295714D01*
X152547619Y-58343333D01*
X153404761Y-58914761D02*
X153309523Y-58962380D01*
X153119047Y-58962380D01*
X153023809Y-58914761D01*
X152976190Y-58819523D01*
X152976190Y-58438571D01*
X153023809Y-58343333D01*
X153119047Y-58295714D01*
X153309523Y-58295714D01*
X153404761Y-58343333D01*
X153452380Y-58438571D01*
X153452380Y-58533809D01*
X152976190Y-58629047D01*
X153880952Y-58581428D02*
X154642857Y-58581428D01*
X155547619Y-58914761D02*
X155452380Y-58962380D01*
X155261904Y-58962380D01*
X155166666Y-58914761D01*
X155119047Y-58867142D01*
X155071428Y-58771904D01*
X155071428Y-58486190D01*
X155119047Y-58390952D01*
X155166666Y-58343333D01*
X155261904Y-58295714D01*
X155452380Y-58295714D01*
X155547619Y-58343333D01*
X155976190Y-58962380D02*
X155976190Y-57962380D01*
X156404761Y-58962380D02*
X156404761Y-58438571D01*
X156357142Y-58343333D01*
X156261904Y-58295714D01*
X156119047Y-58295714D01*
X156023809Y-58343333D01*
X155976190Y-58390952D01*
X157023809Y-58962380D02*
X156928571Y-58914761D01*
X156880952Y-58867142D01*
X156833333Y-58771904D01*
X156833333Y-58486190D01*
X156880952Y-58390952D01*
X156928571Y-58343333D01*
X157023809Y-58295714D01*
X157166666Y-58295714D01*
X157261904Y-58343333D01*
X157309523Y-58390952D01*
X157357142Y-58486190D01*
X157357142Y-58771904D01*
X157309523Y-58867142D01*
X157261904Y-58914761D01*
X157166666Y-58962380D01*
X157023809Y-58962380D01*
X158214285Y-58914761D02*
X158119047Y-58962380D01*
X157928571Y-58962380D01*
X157833333Y-58914761D01*
X157785714Y-58867142D01*
X157738095Y-58771904D01*
X157738095Y-58486190D01*
X157785714Y-58390952D01*
X157833333Y-58343333D01*
X157928571Y-58295714D01*
X158119047Y-58295714D01*
X158214285Y-58343333D01*
%TO.C,K3*%
X132261904Y-65962380D02*
X132261904Y-64962380D01*
X132261904Y-65914761D02*
X132166666Y-65962380D01*
X131976190Y-65962380D01*
X131880952Y-65914761D01*
X131833333Y-65867142D01*
X131785714Y-65771904D01*
X131785714Y-65486190D01*
X131833333Y-65390952D01*
X131880952Y-65343333D01*
X131976190Y-65295714D01*
X132166666Y-65295714D01*
X132261904Y-65343333D01*
X132738095Y-65962380D02*
X132738095Y-65295714D01*
X132738095Y-64962380D02*
X132690476Y-65010000D01*
X132738095Y-65057619D01*
X132785714Y-65010000D01*
X132738095Y-64962380D01*
X132738095Y-65057619D01*
X133357142Y-65962380D02*
X133261904Y-65914761D01*
X133214285Y-65867142D01*
X133166666Y-65771904D01*
X133166666Y-65486190D01*
X133214285Y-65390952D01*
X133261904Y-65343333D01*
X133357142Y-65295714D01*
X133500000Y-65295714D01*
X133595238Y-65343333D01*
X133642857Y-65390952D01*
X133690476Y-65486190D01*
X133690476Y-65771904D01*
X133642857Y-65867142D01*
X133595238Y-65914761D01*
X133500000Y-65962380D01*
X133357142Y-65962380D01*
X134547619Y-65962380D02*
X134547619Y-64962380D01*
X134547619Y-65914761D02*
X134452380Y-65962380D01*
X134261904Y-65962380D01*
X134166666Y-65914761D01*
X134119047Y-65867142D01*
X134071428Y-65771904D01*
X134071428Y-65486190D01*
X134119047Y-65390952D01*
X134166666Y-65343333D01*
X134261904Y-65295714D01*
X134452380Y-65295714D01*
X134547619Y-65343333D01*
X135404761Y-65914761D02*
X135309523Y-65962380D01*
X135119047Y-65962380D01*
X135023809Y-65914761D01*
X134976190Y-65819523D01*
X134976190Y-65438571D01*
X135023809Y-65343333D01*
X135119047Y-65295714D01*
X135309523Y-65295714D01*
X135404761Y-65343333D01*
X135452380Y-65438571D01*
X135452380Y-65533809D01*
X134976190Y-65629047D01*
X135880952Y-65581428D02*
X136642857Y-65581428D01*
X137547619Y-65914761D02*
X137452380Y-65962380D01*
X137261904Y-65962380D01*
X137166666Y-65914761D01*
X137119047Y-65867142D01*
X137071428Y-65771904D01*
X137071428Y-65486190D01*
X137119047Y-65390952D01*
X137166666Y-65343333D01*
X137261904Y-65295714D01*
X137452380Y-65295714D01*
X137547619Y-65343333D01*
X137976190Y-65962380D02*
X137976190Y-64962380D01*
X138404761Y-65962380D02*
X138404761Y-65438571D01*
X138357142Y-65343333D01*
X138261904Y-65295714D01*
X138119047Y-65295714D01*
X138023809Y-65343333D01*
X137976190Y-65390952D01*
X139023809Y-65962380D02*
X138928571Y-65914761D01*
X138880952Y-65867142D01*
X138833333Y-65771904D01*
X138833333Y-65486190D01*
X138880952Y-65390952D01*
X138928571Y-65343333D01*
X139023809Y-65295714D01*
X139166666Y-65295714D01*
X139261904Y-65343333D01*
X139309523Y-65390952D01*
X139357142Y-65486190D01*
X139357142Y-65771904D01*
X139309523Y-65867142D01*
X139261904Y-65914761D01*
X139166666Y-65962380D01*
X139023809Y-65962380D01*
X140214285Y-65914761D02*
X140119047Y-65962380D01*
X139928571Y-65962380D01*
X139833333Y-65914761D01*
X139785714Y-65867142D01*
X139738095Y-65771904D01*
X139738095Y-65486190D01*
X139785714Y-65390952D01*
X139833333Y-65343333D01*
X139928571Y-65295714D01*
X140119047Y-65295714D01*
X140214285Y-65343333D01*
%TO.C,K2*%
X114261904Y-77962380D02*
X114261904Y-76962380D01*
X114261904Y-77914761D02*
X114166666Y-77962380D01*
X113976190Y-77962380D01*
X113880952Y-77914761D01*
X113833333Y-77867142D01*
X113785714Y-77771904D01*
X113785714Y-77486190D01*
X113833333Y-77390952D01*
X113880952Y-77343333D01*
X113976190Y-77295714D01*
X114166666Y-77295714D01*
X114261904Y-77343333D01*
X114738095Y-77962380D02*
X114738095Y-77295714D01*
X114738095Y-76962380D02*
X114690476Y-77010000D01*
X114738095Y-77057619D01*
X114785714Y-77010000D01*
X114738095Y-76962380D01*
X114738095Y-77057619D01*
X115357142Y-77962380D02*
X115261904Y-77914761D01*
X115214285Y-77867142D01*
X115166666Y-77771904D01*
X115166666Y-77486190D01*
X115214285Y-77390952D01*
X115261904Y-77343333D01*
X115357142Y-77295714D01*
X115500000Y-77295714D01*
X115595238Y-77343333D01*
X115642857Y-77390952D01*
X115690476Y-77486190D01*
X115690476Y-77771904D01*
X115642857Y-77867142D01*
X115595238Y-77914761D01*
X115500000Y-77962380D01*
X115357142Y-77962380D01*
X116547619Y-77962380D02*
X116547619Y-76962380D01*
X116547619Y-77914761D02*
X116452380Y-77962380D01*
X116261904Y-77962380D01*
X116166666Y-77914761D01*
X116119047Y-77867142D01*
X116071428Y-77771904D01*
X116071428Y-77486190D01*
X116119047Y-77390952D01*
X116166666Y-77343333D01*
X116261904Y-77295714D01*
X116452380Y-77295714D01*
X116547619Y-77343333D01*
X117404761Y-77914761D02*
X117309523Y-77962380D01*
X117119047Y-77962380D01*
X117023809Y-77914761D01*
X116976190Y-77819523D01*
X116976190Y-77438571D01*
X117023809Y-77343333D01*
X117119047Y-77295714D01*
X117309523Y-77295714D01*
X117404761Y-77343333D01*
X117452380Y-77438571D01*
X117452380Y-77533809D01*
X116976190Y-77629047D01*
X117880952Y-77581428D02*
X118642857Y-77581428D01*
X119547619Y-77914761D02*
X119452380Y-77962380D01*
X119261904Y-77962380D01*
X119166666Y-77914761D01*
X119119047Y-77867142D01*
X119071428Y-77771904D01*
X119071428Y-77486190D01*
X119119047Y-77390952D01*
X119166666Y-77343333D01*
X119261904Y-77295714D01*
X119452380Y-77295714D01*
X119547619Y-77343333D01*
X119976190Y-77962380D02*
X119976190Y-76962380D01*
X120404761Y-77962380D02*
X120404761Y-77438571D01*
X120357142Y-77343333D01*
X120261904Y-77295714D01*
X120119047Y-77295714D01*
X120023809Y-77343333D01*
X119976190Y-77390952D01*
X121023809Y-77962380D02*
X120928571Y-77914761D01*
X120880952Y-77867142D01*
X120833333Y-77771904D01*
X120833333Y-77486190D01*
X120880952Y-77390952D01*
X120928571Y-77343333D01*
X121023809Y-77295714D01*
X121166666Y-77295714D01*
X121261904Y-77343333D01*
X121309523Y-77390952D01*
X121357142Y-77486190D01*
X121357142Y-77771904D01*
X121309523Y-77867142D01*
X121261904Y-77914761D01*
X121166666Y-77962380D01*
X121023809Y-77962380D01*
X122214285Y-77914761D02*
X122119047Y-77962380D01*
X121928571Y-77962380D01*
X121833333Y-77914761D01*
X121785714Y-77867142D01*
X121738095Y-77771904D01*
X121738095Y-77486190D01*
X121785714Y-77390952D01*
X121833333Y-77343333D01*
X121928571Y-77295714D01*
X122119047Y-77295714D01*
X122214285Y-77343333D01*
%TO.C,K1*%
X96261904Y-77962380D02*
X96261904Y-76962380D01*
X96261904Y-77914761D02*
X96166666Y-77962380D01*
X95976190Y-77962380D01*
X95880952Y-77914761D01*
X95833333Y-77867142D01*
X95785714Y-77771904D01*
X95785714Y-77486190D01*
X95833333Y-77390952D01*
X95880952Y-77343333D01*
X95976190Y-77295714D01*
X96166666Y-77295714D01*
X96261904Y-77343333D01*
X96738095Y-77962380D02*
X96738095Y-77295714D01*
X96738095Y-76962380D02*
X96690476Y-77010000D01*
X96738095Y-77057619D01*
X96785714Y-77010000D01*
X96738095Y-76962380D01*
X96738095Y-77057619D01*
X97357142Y-77962380D02*
X97261904Y-77914761D01*
X97214285Y-77867142D01*
X97166666Y-77771904D01*
X97166666Y-77486190D01*
X97214285Y-77390952D01*
X97261904Y-77343333D01*
X97357142Y-77295714D01*
X97500000Y-77295714D01*
X97595238Y-77343333D01*
X97642857Y-77390952D01*
X97690476Y-77486190D01*
X97690476Y-77771904D01*
X97642857Y-77867142D01*
X97595238Y-77914761D01*
X97500000Y-77962380D01*
X97357142Y-77962380D01*
X98547619Y-77962380D02*
X98547619Y-76962380D01*
X98547619Y-77914761D02*
X98452380Y-77962380D01*
X98261904Y-77962380D01*
X98166666Y-77914761D01*
X98119047Y-77867142D01*
X98071428Y-77771904D01*
X98071428Y-77486190D01*
X98119047Y-77390952D01*
X98166666Y-77343333D01*
X98261904Y-77295714D01*
X98452380Y-77295714D01*
X98547619Y-77343333D01*
X99404761Y-77914761D02*
X99309523Y-77962380D01*
X99119047Y-77962380D01*
X99023809Y-77914761D01*
X98976190Y-77819523D01*
X98976190Y-77438571D01*
X99023809Y-77343333D01*
X99119047Y-77295714D01*
X99309523Y-77295714D01*
X99404761Y-77343333D01*
X99452380Y-77438571D01*
X99452380Y-77533809D01*
X98976190Y-77629047D01*
X99880952Y-77581428D02*
X100642857Y-77581428D01*
X101547619Y-77914761D02*
X101452380Y-77962380D01*
X101261904Y-77962380D01*
X101166666Y-77914761D01*
X101119047Y-77867142D01*
X101071428Y-77771904D01*
X101071428Y-77486190D01*
X101119047Y-77390952D01*
X101166666Y-77343333D01*
X101261904Y-77295714D01*
X101452380Y-77295714D01*
X101547619Y-77343333D01*
X101976190Y-77962380D02*
X101976190Y-76962380D01*
X102404761Y-77962380D02*
X102404761Y-77438571D01*
X102357142Y-77343333D01*
X102261904Y-77295714D01*
X102119047Y-77295714D01*
X102023809Y-77343333D01*
X101976190Y-77390952D01*
X103023809Y-77962380D02*
X102928571Y-77914761D01*
X102880952Y-77867142D01*
X102833333Y-77771904D01*
X102833333Y-77486190D01*
X102880952Y-77390952D01*
X102928571Y-77343333D01*
X103023809Y-77295714D01*
X103166666Y-77295714D01*
X103261904Y-77343333D01*
X103309523Y-77390952D01*
X103357142Y-77486190D01*
X103357142Y-77771904D01*
X103309523Y-77867142D01*
X103261904Y-77914761D01*
X103166666Y-77962380D01*
X103023809Y-77962380D01*
X104214285Y-77914761D02*
X104119047Y-77962380D01*
X103928571Y-77962380D01*
X103833333Y-77914761D01*
X103785714Y-77867142D01*
X103738095Y-77771904D01*
X103738095Y-77486190D01*
X103785714Y-77390952D01*
X103833333Y-77343333D01*
X103928571Y-77295714D01*
X104119047Y-77295714D01*
X104214285Y-77343333D01*
%TO.C,D5*%
X131313333Y-114596666D02*
X131313333Y-113896666D01*
X131480000Y-113896666D01*
X131580000Y-113930000D01*
X131646666Y-113996666D01*
X131680000Y-114063333D01*
X131713333Y-114196666D01*
X131713333Y-114296666D01*
X131680000Y-114430000D01*
X131646666Y-114496666D01*
X131580000Y-114563333D01*
X131480000Y-114596666D01*
X131313333Y-114596666D01*
X132346666Y-113896666D02*
X132013333Y-113896666D01*
X131980000Y-114230000D01*
X132013333Y-114196666D01*
X132080000Y-114163333D01*
X132246666Y-114163333D01*
X132313333Y-114196666D01*
X132346666Y-114230000D01*
X132380000Y-114296666D01*
X132380000Y-114463333D01*
X132346666Y-114530000D01*
X132313333Y-114563333D01*
X132246666Y-114596666D01*
X132080000Y-114596666D01*
X132013333Y-114563333D01*
X131980000Y-114530000D01*
D11*
X131070000Y-115678571D02*
X131195714Y-115678571D01*
X131258571Y-115710000D01*
X131321428Y-115772857D01*
X131352857Y-115898571D01*
X131352857Y-116118571D01*
X131321428Y-116244285D01*
X131258571Y-116307142D01*
X131195714Y-116338571D01*
X131070000Y-116338571D01*
X131007142Y-116307142D01*
X130944285Y-116244285D01*
X130912857Y-116118571D01*
X130912857Y-115898571D01*
X130944285Y-115772857D01*
X131007142Y-115710000D01*
X131070000Y-115678571D01*
X131635714Y-115678571D02*
X131635714Y-116212857D01*
X131667142Y-116275714D01*
X131698571Y-116307142D01*
X131761428Y-116338571D01*
X131887142Y-116338571D01*
X131950000Y-116307142D01*
X131981428Y-116275714D01*
X132012857Y-116212857D01*
X132012857Y-115678571D01*
X132232857Y-115678571D02*
X132610000Y-115678571D01*
X132421428Y-116338571D02*
X132421428Y-115678571D01*
X131327142Y-115405714D02*
X131295714Y-115437142D01*
X131201428Y-115468571D01*
X131138571Y-115468571D01*
X131044285Y-115437142D01*
X130981428Y-115374285D01*
X130950000Y-115311428D01*
X130918571Y-115185714D01*
X130918571Y-115091428D01*
X130950000Y-114965714D01*
X130981428Y-114902857D01*
X131044285Y-114840000D01*
X131138571Y-114808571D01*
X131201428Y-114808571D01*
X131295714Y-114840000D01*
X131327142Y-114871428D01*
X131610000Y-114808571D02*
X131610000Y-115342857D01*
X131641428Y-115405714D01*
X131672857Y-115437142D01*
X131735714Y-115468571D01*
X131861428Y-115468571D01*
X131924285Y-115437142D01*
X131955714Y-115405714D01*
X131987142Y-115342857D01*
X131987142Y-114808571D01*
X132207142Y-114808571D02*
X132584285Y-114808571D01*
X132395714Y-115468571D02*
X132395714Y-114808571D01*
%TO.C,D4*%
D13*
X161069400Y-113063862D02*
X161069400Y-112363862D01*
X161236067Y-112363862D01*
X161336067Y-112397196D01*
X161402733Y-112463862D01*
X161436067Y-112530529D01*
X161469400Y-112663862D01*
X161469400Y-112763862D01*
X161436067Y-112897196D01*
X161402733Y-112963862D01*
X161336067Y-113030529D01*
X161236067Y-113063862D01*
X161069400Y-113063862D01*
X162069400Y-112597196D02*
X162069400Y-113063862D01*
X161902733Y-112330529D02*
X161736067Y-112830529D01*
X162169400Y-112830529D01*
D11*
X160826067Y-114145767D02*
X160951781Y-114145767D01*
X161014638Y-114177196D01*
X161077495Y-114240053D01*
X161108924Y-114365767D01*
X161108924Y-114585767D01*
X161077495Y-114711481D01*
X161014638Y-114774338D01*
X160951781Y-114805767D01*
X160826067Y-114805767D01*
X160763209Y-114774338D01*
X160700352Y-114711481D01*
X160668924Y-114585767D01*
X160668924Y-114365767D01*
X160700352Y-114240053D01*
X160763209Y-114177196D01*
X160826067Y-114145767D01*
X161391781Y-114145767D02*
X161391781Y-114680053D01*
X161423209Y-114742910D01*
X161454638Y-114774338D01*
X161517495Y-114805767D01*
X161643209Y-114805767D01*
X161706067Y-114774338D01*
X161737495Y-114742910D01*
X161768924Y-114680053D01*
X161768924Y-114145767D01*
X161988924Y-114145767D02*
X162366067Y-114145767D01*
X162177495Y-114805767D02*
X162177495Y-114145767D01*
X161083209Y-113872910D02*
X161051781Y-113904338D01*
X160957495Y-113935767D01*
X160894638Y-113935767D01*
X160800352Y-113904338D01*
X160737495Y-113841481D01*
X160706067Y-113778624D01*
X160674638Y-113652910D01*
X160674638Y-113558624D01*
X160706067Y-113432910D01*
X160737495Y-113370053D01*
X160800352Y-113307196D01*
X160894638Y-113275767D01*
X160957495Y-113275767D01*
X161051781Y-113307196D01*
X161083209Y-113338624D01*
X161366067Y-113275767D02*
X161366067Y-113810053D01*
X161397495Y-113872910D01*
X161428924Y-113904338D01*
X161491781Y-113935767D01*
X161617495Y-113935767D01*
X161680352Y-113904338D01*
X161711781Y-113872910D01*
X161743209Y-113810053D01*
X161743209Y-113275767D01*
X161963209Y-113275767D02*
X162340352Y-113275767D01*
X162151781Y-113935767D02*
X162151781Y-113275767D01*
%TO.C,D3*%
D13*
X183044061Y-116189083D02*
X183225235Y-115512935D01*
X183386222Y-115556071D01*
X183474188Y-115614151D01*
X183521328Y-115695800D01*
X183536271Y-115768823D01*
X183533959Y-115906240D01*
X183508078Y-116002833D01*
X183441371Y-116122996D01*
X183391919Y-116178763D01*
X183310269Y-116225904D01*
X183205049Y-116232219D01*
X183044061Y-116189083D01*
X183836988Y-115676853D02*
X184255556Y-115789008D01*
X183961155Y-115986198D01*
X184057747Y-116012079D01*
X184113515Y-116061532D01*
X184137085Y-116102356D01*
X184152028Y-116175379D01*
X184108892Y-116336366D01*
X184059439Y-116392134D01*
X184018615Y-116415704D01*
X183945592Y-116430647D01*
X183752407Y-116378883D01*
X183696639Y-116329431D01*
X183673069Y-116288607D01*
D11*
X182529002Y-117171144D02*
X182650433Y-117203681D01*
X182703014Y-117250307D01*
X182747460Y-117327291D01*
X182745281Y-117456856D01*
X182688341Y-117669360D01*
X182625446Y-117782656D01*
X182548462Y-117827103D01*
X182479612Y-117841192D01*
X182358181Y-117808655D01*
X182305600Y-117762028D01*
X182261154Y-117685045D01*
X182263333Y-117555480D01*
X182320274Y-117342976D01*
X182383168Y-117229679D01*
X182460152Y-117185233D01*
X182529002Y-117171144D01*
X183075440Y-117317561D02*
X182937157Y-117833642D01*
X182951246Y-117902491D01*
X182973469Y-117940983D01*
X183026050Y-117987610D01*
X183147481Y-118020147D01*
X183216331Y-118006058D01*
X183254823Y-117983835D01*
X183301449Y-117931253D01*
X183439732Y-117415173D01*
X183652236Y-117472113D02*
X184016528Y-117569725D01*
X183663561Y-118158430D02*
X183834382Y-117520919D01*
X182848004Y-116974137D02*
X182809512Y-116996360D01*
X182710305Y-117002315D01*
X182649590Y-116986047D01*
X182566651Y-116931286D01*
X182522204Y-116854302D01*
X182508115Y-116785452D01*
X182510295Y-116655887D01*
X182534698Y-116564814D01*
X182597593Y-116451518D01*
X182644219Y-116398937D01*
X182721203Y-116354490D01*
X182820410Y-116348536D01*
X182881126Y-116364804D01*
X182964064Y-116419565D01*
X182986288Y-116458057D01*
X183275775Y-116470550D02*
X183137492Y-116986631D01*
X183151581Y-117055480D01*
X183173804Y-117093972D01*
X183226385Y-117140599D01*
X183347816Y-117173136D01*
X183416666Y-117159047D01*
X183455158Y-117136823D01*
X183501784Y-117084242D01*
X183640067Y-116568162D01*
X183852571Y-116625102D02*
X184216863Y-116722714D01*
X183863896Y-117311419D02*
X184034717Y-116673908D01*
%TO.C,D2*%
D13*
X203595241Y-124634986D02*
X203945241Y-124028768D01*
X204089578Y-124112101D01*
X204159514Y-124190969D01*
X204183916Y-124282037D01*
X204179450Y-124356439D01*
X204141651Y-124488575D01*
X204091651Y-124575178D01*
X203996117Y-124673981D01*
X203933916Y-124715050D01*
X203842847Y-124739451D01*
X203739578Y-124718319D01*
X203595241Y-124634986D01*
X204489258Y-124419836D02*
X204534792Y-124407635D01*
X204609194Y-124412101D01*
X204753531Y-124495434D01*
X204794599Y-124557635D01*
X204806800Y-124603169D01*
X204802334Y-124677571D01*
X204769001Y-124735306D01*
X204690134Y-124805242D01*
X204143723Y-124951652D01*
X204519001Y-125168319D01*
D11*
X202843555Y-125450276D02*
X202952427Y-125513133D01*
X202991148Y-125571780D01*
X203014156Y-125657644D01*
X202978516Y-125782230D01*
X202868516Y-125972756D01*
X202778441Y-126065913D01*
X202692577Y-126088921D01*
X202622427Y-126084710D01*
X202513555Y-126021853D01*
X202474833Y-125963206D01*
X202451826Y-125877342D01*
X202487465Y-125752756D01*
X202597465Y-125562230D01*
X202687540Y-125469073D01*
X202773405Y-125446066D01*
X202843555Y-125450276D01*
X203333478Y-125733133D02*
X203066335Y-126195838D01*
X203062124Y-126265988D01*
X203073628Y-126308921D01*
X203112350Y-126367567D01*
X203221221Y-126430424D01*
X203291372Y-126434635D01*
X203334304Y-126423131D01*
X203392950Y-126384410D01*
X203660093Y-125921705D01*
X203850619Y-126031705D02*
X204177234Y-126220276D01*
X203683926Y-126697567D02*
X204013926Y-126125990D01*
X203202676Y-125342546D02*
X203159744Y-125354050D01*
X203062376Y-125334125D01*
X203007940Y-125302697D01*
X202942000Y-125228336D01*
X202918993Y-125142471D01*
X202923204Y-125072321D01*
X202958843Y-124947735D01*
X203005986Y-124866081D01*
X203096061Y-124772924D01*
X203154707Y-124734202D01*
X203240572Y-124711195D01*
X203337940Y-124731120D01*
X203392376Y-124762548D01*
X203458315Y-124836909D01*
X203469819Y-124879841D01*
X203746209Y-124966834D02*
X203479066Y-125429539D01*
X203474856Y-125499689D01*
X203486359Y-125542622D01*
X203525081Y-125601268D01*
X203633953Y-125664125D01*
X203704103Y-125668336D01*
X203747035Y-125656832D01*
X203805681Y-125618111D01*
X204072824Y-125155406D01*
X204263350Y-125265406D02*
X204589965Y-125453977D01*
X204096658Y-125931268D02*
X204426658Y-125359691D01*
%TO.C,D1*%
D13*
X208417279Y-107759505D02*
X208767279Y-107153287D01*
X208911616Y-107236620D01*
X208981552Y-107315488D01*
X209005954Y-107406556D01*
X209001488Y-107480958D01*
X208963689Y-107613094D01*
X208913689Y-107699697D01*
X208818155Y-107798500D01*
X208755954Y-107839569D01*
X208664885Y-107863970D01*
X208561616Y-107842838D01*
X208417279Y-107759505D01*
X209341039Y-108292838D02*
X208994629Y-108092838D01*
X209167834Y-108192838D02*
X209517834Y-107586620D01*
X209410099Y-107639889D01*
X209319031Y-107664291D01*
X209244629Y-107659825D01*
D11*
X207665593Y-108574795D02*
X207774465Y-108637652D01*
X207813186Y-108696299D01*
X207836194Y-108782163D01*
X207800554Y-108906749D01*
X207690554Y-109097275D01*
X207600479Y-109190432D01*
X207514615Y-109213440D01*
X207444465Y-109209229D01*
X207335593Y-109146372D01*
X207296871Y-109087725D01*
X207273864Y-109001861D01*
X207309503Y-108877275D01*
X207419503Y-108686749D01*
X207509578Y-108593592D01*
X207595443Y-108570585D01*
X207665593Y-108574795D01*
X208155516Y-108857652D02*
X207888373Y-109320357D01*
X207884162Y-109390507D01*
X207895666Y-109433440D01*
X207934388Y-109492086D01*
X208043259Y-109554943D01*
X208113410Y-109559154D01*
X208156342Y-109547650D01*
X208214988Y-109508929D01*
X208482131Y-109046224D01*
X208672657Y-109156224D02*
X208999272Y-109344795D01*
X208505964Y-109822086D02*
X208835964Y-109250509D01*
X208024714Y-108467065D02*
X207981782Y-108478569D01*
X207884414Y-108458644D01*
X207829978Y-108427216D01*
X207764038Y-108352855D01*
X207741031Y-108266990D01*
X207745242Y-108196840D01*
X207780881Y-108072254D01*
X207828024Y-107990600D01*
X207918099Y-107897443D01*
X207976745Y-107858721D01*
X208062610Y-107835714D01*
X208159978Y-107855639D01*
X208214414Y-107887067D01*
X208280353Y-107961428D01*
X208291857Y-108004360D01*
X208568247Y-108091353D02*
X208301104Y-108554058D01*
X208296894Y-108624208D01*
X208308397Y-108667141D01*
X208347119Y-108725787D01*
X208455991Y-108788644D01*
X208526141Y-108792855D01*
X208569073Y-108781351D01*
X208627719Y-108742630D01*
X208894862Y-108279925D01*
X209085388Y-108389925D02*
X209412003Y-108578496D01*
X208918696Y-109055787D02*
X209248696Y-108484210D01*
%TO.C,R2*%
D13*
X222482380Y-80176666D02*
X222006190Y-80510000D01*
X222482380Y-80748095D02*
X221482380Y-80748095D01*
X221482380Y-80367142D01*
X221530000Y-80271904D01*
X221577619Y-80224285D01*
X221672857Y-80176666D01*
X221815714Y-80176666D01*
X221910952Y-80224285D01*
X221958571Y-80271904D01*
X222006190Y-80367142D01*
X222006190Y-80748095D01*
X221577619Y-79795714D02*
X221530000Y-79748095D01*
X221482380Y-79652857D01*
X221482380Y-79414761D01*
X221530000Y-79319523D01*
X221577619Y-79271904D01*
X221672857Y-79224285D01*
X221768095Y-79224285D01*
X221910952Y-79271904D01*
X222482380Y-79843333D01*
X222482380Y-79224285D01*
D14*
X220826190Y-80073333D02*
X220588095Y-80240000D01*
X220826190Y-80359047D02*
X220326190Y-80359047D01*
X220326190Y-80168571D01*
X220350000Y-80120952D01*
X220373809Y-80097142D01*
X220421428Y-80073333D01*
X220492857Y-80073333D01*
X220540476Y-80097142D01*
X220564285Y-80120952D01*
X220588095Y-80168571D01*
X220588095Y-80359047D01*
X220373809Y-79882857D02*
X220350000Y-79859047D01*
X220326190Y-79811428D01*
X220326190Y-79692380D01*
X220350000Y-79644761D01*
X220373809Y-79620952D01*
X220421428Y-79597142D01*
X220469047Y-79597142D01*
X220540476Y-79620952D01*
X220826190Y-79906666D01*
X220826190Y-79597142D01*
%TO.C,R1*%
D13*
X222632380Y-90566666D02*
X222156190Y-90900000D01*
X222632380Y-91138095D02*
X221632380Y-91138095D01*
X221632380Y-90757142D01*
X221680000Y-90661904D01*
X221727619Y-90614285D01*
X221822857Y-90566666D01*
X221965714Y-90566666D01*
X222060952Y-90614285D01*
X222108571Y-90661904D01*
X222156190Y-90757142D01*
X222156190Y-91138095D01*
X222632380Y-89614285D02*
X222632380Y-90185714D01*
X222632380Y-89900000D02*
X221632380Y-89900000D01*
X221775238Y-89995238D01*
X221870476Y-90090476D01*
X221918095Y-90185714D01*
D14*
X220826190Y-90493333D02*
X220588095Y-90660000D01*
X220826190Y-90779047D02*
X220326190Y-90779047D01*
X220326190Y-90588571D01*
X220350000Y-90540952D01*
X220373809Y-90517142D01*
X220421428Y-90493333D01*
X220492857Y-90493333D01*
X220540476Y-90517142D01*
X220564285Y-90540952D01*
X220588095Y-90588571D01*
X220588095Y-90779047D01*
X220826190Y-90017142D02*
X220826190Y-90302857D01*
X220826190Y-90160000D02*
X220326190Y-90160000D01*
X220397619Y-90207619D01*
X220445238Y-90255238D01*
X220469047Y-90302857D01*
%TO.C,J2*%
D13*
X225252380Y-131683333D02*
X225966666Y-131683333D01*
X226109523Y-131730952D01*
X226204761Y-131826190D01*
X226252380Y-131969047D01*
X226252380Y-132064285D01*
X225347619Y-131254761D02*
X225300000Y-131207142D01*
X225252380Y-131111904D01*
X225252380Y-130873809D01*
X225300000Y-130778571D01*
X225347619Y-130730952D01*
X225442857Y-130683333D01*
X225538095Y-130683333D01*
X225680952Y-130730952D01*
X226252380Y-131302380D01*
X226252380Y-130683333D01*
%TD*%
M02*
