M48
; DRILL file {KiCad (5.1.10-1-10_14)} date Monday, September 20, 2021 at 03:17:23 PM
; FORMAT={-:-/ absolute / inch / decimal}
; #@! TF.CreationDate,2021-09-20T15:17:23-07:00
; #@! TF.GenerationSoftware,Kicad,Pcbnew,(5.1.10-1-10_14)
; #@! TF.FileFunction,Plated,1,2,PTH
FMAT,2
INCH
T1C0.0157
T2C0.0320
T3C0.0390
T4C0.0394
T5C0.0472
T6C0.0512
T7C0.0669
T8C0.0866
T9C0.0984
%
G90
G05
T1
X3.8276Y-3.1496
X3.8276Y-3.8189
X3.8276Y-4.4882
X3.8811Y-4.7602
X4.0465Y-3.1496
X4.0465Y-3.8189
X4.0465Y-4.4882
X4.1961Y-4.7598
X4.1969Y-3.252
X4.1969Y-3.7047
X4.1969Y-4.374
X4.3858Y-3.7047
X4.3858Y-4.7598
X4.3858Y-3.252
X4.3858Y-4.374
X4.5362Y-3.1496
X4.5362Y-3.8189
X4.5362Y-4.4882
X4.5657Y-4.7343
X4.5709Y-3.9
X4.7551Y-3.1496
X4.7551Y-3.8189
X4.7551Y-4.4882
X4.7638Y-4.878
X4.9617Y-4.7621
X4.9634Y-3.4043
X5.0008Y-4.5331
X5.0379Y-4.5319
X5.1096Y-4.6241
X5.2449Y-2.6772
X5.2449Y-3.3465
X5.2449Y-4.0157
X5.2559Y-4.7638
X5.333Y-4.5295
X5.3504Y-4.5653
X5.3543Y-3.8685
X5.439Y-4.5276
X5.4638Y-2.6772
X5.4638Y-3.3465
X5.4638Y-4.0157
X5.6555Y-4.5276
X5.6811Y-4.6614
X5.8173Y-2.9303
X5.8586Y-2.94
X5.9535Y-2.4016
X5.9535Y-3.0709
X5.9535Y-3.7402
X6.063Y-3.6398
X6.1339Y-4.5276
X6.1339Y-4.6142
X6.1724Y-2.4016
X6.1724Y-3.0709
X6.1724Y-3.7402
X6.1743Y-4.4859
X6.2057Y-4.4693
X6.2327Y-4.5673
X6.2488Y-4.626
X6.2752Y-4.735
X6.4677Y-4.626
X6.5044Y-4.4719
X6.5146Y-4.5226
X6.5965Y-4.6854
X6.6622Y-2.6181
X6.6622Y-3.2874
X6.6622Y-3.9567
X6.8417Y-4.7071
X6.8811Y-2.6181
X6.8811Y-3.2874
X6.8811Y-3.9567
X6.9953Y-4.5913
X7.0528Y-4.6094
X7.0704Y-4.7173
X7.0705Y-4.8319
X7.0992Y-4.6531
X7.2819Y-4.774
X7.3528Y-4.6996
X7.3614Y-4.6606
X7.3709Y-2.7165
X7.3709Y-3.3858
X7.3709Y-4.0551
X7.4803Y-3.9358
X7.5898Y-2.7165
X7.5898Y-3.3858
X7.5898Y-3.9075
X7.5898Y-4.0551
X7.5969Y-3.7898
X7.6236Y-3.6618
X7.752Y-4.9839
X7.7547Y-3.9925
X7.7992Y-4.2016
X7.8213Y-4.9665
X7.8272Y-5.1063
X7.8473Y-5.0103
X7.8605Y-4.8282
X7.8877Y-4.7016
X7.8912Y-4.8585
X8.0287Y-3.3898
X8.0303Y-3.4921
X8.0311Y-3.9882
X8.0315Y-3.2913
X8.0315Y-3.7913
X8.0316Y-3.6906
X8.0319Y-3.8898
X8.0343Y-3.5906
X8.0354Y-4.163
X8.0368Y-5.1198
X8.0732Y-4.1843
X8.0748Y-2.9906
X8.0772Y-3.2906
X8.0772Y-3.6906
X8.0772Y-3.7906
X8.0776Y-3.5906
X8.0783Y-2.8909
X8.0799Y-3.3906
X8.0803Y-3.4906
X8.0815Y-3.9906
X8.0819Y-3.8909
X8.0858Y-4.2815
X8.1486Y-5.0052
X8.1614Y-4.5173
X8.1819Y-4.4307
X8.1821Y-5.0245
X8.2083Y-2.8406
X8.2096Y-4.1567
X8.2303Y-5.2795
X8.2637Y-3.1906
X8.3141Y-2.9406
X8.341Y-4.3449
X8.3635Y-3.2406
X8.3715Y-4.5402
X8.3803Y-4.3689
X8.4137Y-3.0906
X8.4405Y-3.3406
X8.4843Y-5.5594
X8.518Y-5.4938
X8.6728Y-5.6486
X8.685Y-3.0665
X8.685Y-3.2319
X8.685Y-3.4768
X8.685Y-3.6421
T2
X7.9177Y-2.8906
X7.9177Y-2.9906
X7.9177Y-3.0906
X7.9177Y-3.1906
X7.9177Y-3.2906
X7.9177Y-3.3906
X7.9177Y-3.4906
X7.9177Y-3.5906
X7.9177Y-3.6906
X7.9177Y-3.7906
X7.9177Y-3.8906
X7.9177Y-3.9906
X7.9699Y-2.8406
X7.9699Y-2.9406
X7.9699Y-3.0406
X7.9699Y-3.1406
X7.9699Y-3.2406
X7.9699Y-3.3406
X7.9699Y-3.4406
X7.9699Y-3.5406
X7.9699Y-3.6406
X7.9699Y-3.7406
X7.9699Y-3.8406
X7.9699Y-3.9406
X8.5177Y-2.8906
X8.5177Y-2.9906
X8.5177Y-3.0906
X8.5177Y-3.1906
X8.5177Y-3.2906
X8.5177Y-3.3906
X8.5177Y-3.4906
X8.5177Y-3.5906
X8.5177Y-3.6906
X8.5177Y-3.7906
X8.5177Y-3.8906
X8.5177Y-3.9906
X8.5691Y-2.8406
X8.5691Y-2.9406
X8.5691Y-3.0406
X8.5691Y-3.1406
X8.5691Y-3.2406
X8.5691Y-3.3406
X8.5691Y-3.4406
X8.5691Y-3.5406
X8.5691Y-3.6406
X8.5691Y-3.7406
X8.5691Y-3.8406
X8.5691Y-3.9406
T3
X8.7028Y-4.3102
X8.7537Y-4.5004
T4
X5.0787Y-4.7638
X5.0787Y-4.9606
X5.6496Y-4.7638
X5.6496Y-4.8622
X5.6496Y-4.9606
X8.2636Y-4.1161
X8.3636Y-4.1161
X8.4636Y-4.1161
X8.5636Y-4.1161
X8.6636Y-4.1161
T5
X3.7402Y-3.4764
X3.7402Y-4.1457
X3.7402Y-4.815
X3.937Y-3.5591
X3.937Y-4.2283
X3.937Y-4.8976
X4.1339Y-3.4764
X4.1339Y-4.1457
X4.1339Y-4.815
X4.4488Y-3.4764
X4.4488Y-4.1457
X4.4488Y-4.815
X4.6457Y-3.5591
X4.6457Y-4.2283
X4.6457Y-4.8976
X4.8425Y-3.4764
X4.8425Y-4.1457
X4.8425Y-4.815
X5.1575Y-3.0039
X5.1575Y-3.6732
X5.1575Y-4.3425
X5.1575Y-5.0118
X5.3543Y-3.0866
X5.3543Y-3.7559
X5.3543Y-4.4252
X5.3543Y-5.0945
X5.5512Y-3.0039
X5.5512Y-3.6732
X5.5512Y-4.3425
X5.5512Y-5.0118
X5.8661Y-2.7283
X5.8661Y-3.3976
X5.8661Y-4.0669
X6.063Y-2.811
X6.063Y-3.4803
X6.063Y-4.1496
X6.1614Y-4.9528
X6.2598Y-2.7283
X6.2598Y-3.3976
X6.2598Y-4.0669
X6.3583Y-5.0354
X6.5551Y-4.9528
X6.5748Y-2.9449
X6.5748Y-3.6142
X6.5748Y-4.2835
X6.7717Y-3.0276
X6.7717Y-3.6969
X6.7717Y-4.3661
X6.9015Y-5.0104
X6.9685Y-2.9449
X6.9685Y-3.6142
X6.9685Y-4.2835
X7.0702Y-5.1412
X7.2817Y-5.1123
X7.2835Y-3.0433
X7.2835Y-3.7126
X7.2835Y-4.3819
X7.4803Y-3.126
X7.4803Y-3.7953
X7.4803Y-4.4646
X7.6082Y-5.2496
X7.6772Y-3.0433
X7.6772Y-3.7126
X7.6772Y-4.3819
X7.7373Y-5.4197
X7.9428Y-4.67
X7.9491Y-5.4465
X8.072Y-4.84
X8.2251Y-5.6631
X8.2838Y-4.8669
X8.3058Y-5.8608
X8.5035Y-5.9415
T6
X8.5979Y-4.2976
X8.6693Y-4.5642
T7
X5.5709Y-4.8622
T8
X5.6677Y-3.2268
X6.4177Y-2.4768
X6.4177Y-3.9768
X7.1677Y-3.2268
T9
X7.9606Y-4.2833
X8.7293Y-3.3543
X8.7323Y-4.7114
T4
G00X8.4815Y-5.0102
M15
G01X8.4618Y-5.0102
M16
G05
G00X8.4815Y-5.1067
M15
G01X8.4618Y-5.1067
M16
G05
G00X8.5406Y-4.9413
M15
G01X8.5209Y-4.9413
M16
G05
G00X8.5406Y-5.1756
M15
G01X8.5209Y-5.1756
M16
G05
G00X8.698Y-4.9413
M15
G01X8.6783Y-4.9413
M16
G05
G00X8.698Y-5.1756
M15
G01X8.6783Y-5.1756
M16
G05
G00X8.8161Y-4.9413
M15
G01X8.7965Y-4.9413
M16
G05
G00X8.8161Y-5.1756
M15
G01X8.7965Y-5.1756
M16
G05
T0
M30
