%TF.GenerationSoftware,KiCad,Pcbnew,(5.1.10-1-10_14)*%
%TF.CreationDate,2021-09-20T15:17:19-07:00*%
%TF.ProjectId,redwood,72656477-6f6f-4642-9e6b-696361645f70,rev?*%
%TF.SameCoordinates,Original*%
%TF.FileFunction,Soldermask,Bot*%
%TF.FilePolarity,Negative*%
%FSLAX46Y46*%
G04 Gerber Fmt 4.6, Leading zero omitted, Abs format (unit mm)*
G04 Created by KiCad (PCBNEW (5.1.10-1-10_14)) date 2021-09-20 15:17:19*
%MOMM*%
%LPD*%
G01*
G04 APERTURE LIST*
%ADD10R,0.900000X1.200000*%
%ADD11C,0.800000*%
%ADD12C,2.000000*%
%ADD13R,3.200000X2.000000*%
%ADD14R,2.000000X2.000000*%
%ADD15C,1.700000*%
%ADD16C,3.400000*%
%ADD17C,0.100000*%
%ADD18R,1.700000X0.820000*%
%ADD19R,1.700000X1.700000*%
%ADD20O,1.700000X1.700000*%
%ADD21C,5.000000*%
%ADD22C,1.524000*%
%ADD23C,1.200000*%
%ADD24C,2.100000*%
%ADD25C,1.750000*%
%ADD26O,2.500000X1.700000*%
%ADD27C,4.400000*%
G04 APERTURE END LIST*
D10*
%TO.C,D6*%
X139250000Y-115000000D03*
X142550000Y-115000000D03*
%TD*%
D11*
%TO.C,K20*%
X133500000Y-121000000D03*
D12*
X129000000Y-126000000D03*
D13*
X136000000Y-117900000D03*
D12*
X129000000Y-121000000D03*
D14*
X143500000Y-126000000D03*
D12*
X143500000Y-121000000D03*
X143500000Y-123500000D03*
X131000000Y-127300000D03*
X136000000Y-129400000D03*
D15*
X130500000Y-123500000D03*
X141500000Y-123500000D03*
D16*
X136000000Y-123500000D03*
%TD*%
D17*
%TO.C,K24*%
G36*
X220231516Y-142569928D02*
G01*
X219382988Y-143418456D01*
X218746592Y-142782060D01*
X219595120Y-141933532D01*
X220231516Y-142569928D01*
G37*
G36*
X217898064Y-140236476D02*
G01*
X217049536Y-141085004D01*
X216413140Y-140448608D01*
X217261668Y-139600080D01*
X217898064Y-140236476D01*
G37*
D12*
X208917808Y-143842720D03*
X210968417Y-148863179D03*
D15*
X211251260Y-140802161D03*
X219029435Y-148580336D03*
D16*
X215140347Y-144691249D03*
%TD*%
D17*
%TO.C,K23*%
G36*
X203846929Y-129183191D02*
G01*
X203246929Y-130222421D01*
X202467507Y-129772421D01*
X203067507Y-128733191D01*
X203846929Y-129183191D01*
G37*
G36*
X200989045Y-127533191D02*
G01*
X200389045Y-128572421D01*
X199609623Y-128122421D01*
X200209623Y-127083191D01*
X200989045Y-127533191D01*
G37*
D12*
X193248149Y-133340817D03*
X196528276Y-137659470D03*
D15*
X194715136Y-129799920D03*
X204241416Y-135299920D03*
D16*
X199478276Y-132549920D03*
%TD*%
D17*
%TO.C,K22*%
G36*
X184458422Y-120503964D02*
G01*
X184147839Y-121663075D01*
X183278506Y-121430138D01*
X183589089Y-120271027D01*
X184458422Y-120503964D01*
G37*
G36*
X181270866Y-119649862D02*
G01*
X180960283Y-120808973D01*
X180090950Y-120576036D01*
X180401533Y-119416925D01*
X181270866Y-119649862D01*
G37*
D12*
X175296859Y-127263089D03*
X179582968Y-130585629D03*
D15*
X175797408Y-123463161D03*
X186422592Y-126310171D03*
D16*
X181110000Y-124886666D03*
%TD*%
D10*
%TO.C,K21*%
X163150000Y-117500000D03*
X159850000Y-117500000D03*
D12*
X156500000Y-125800000D03*
X161500000Y-127900000D03*
D15*
X156000000Y-122000000D03*
X167000000Y-122000000D03*
D16*
X161500000Y-122000000D03*
%TD*%
D17*
%TO.C,K19*%
G36*
X212346929Y-114460759D02*
G01*
X211746929Y-115499989D01*
X210967507Y-115049989D01*
X211567507Y-114010759D01*
X212346929Y-114460759D01*
G37*
G36*
X209489045Y-112810759D02*
G01*
X208889045Y-113849989D01*
X208109623Y-113399989D01*
X208709623Y-112360759D01*
X209489045Y-112810759D01*
G37*
D12*
X201748149Y-118618385D03*
X205028276Y-122937038D03*
D15*
X203215136Y-115077488D03*
X212741416Y-120577488D03*
D16*
X207978276Y-117827488D03*
%TD*%
D10*
%TO.C,K18*%
X191650000Y-103000000D03*
X188350000Y-103000000D03*
D12*
X185000000Y-111300000D03*
X190000000Y-113400000D03*
D15*
X184500000Y-107500000D03*
X195500000Y-107500000D03*
D16*
X190000000Y-107500000D03*
%TD*%
D10*
%TO.C,K17*%
X173650000Y-100500000D03*
X170350000Y-100500000D03*
D12*
X167000000Y-108800000D03*
X172000000Y-110900000D03*
D15*
X166500000Y-105000000D03*
X177500000Y-105000000D03*
D16*
X172000000Y-105000000D03*
%TD*%
D10*
%TO.C,K16*%
X155650000Y-95000000D03*
X152350000Y-95000000D03*
D12*
X149000000Y-103300000D03*
X154000000Y-105400000D03*
D15*
X148500000Y-99500000D03*
X159500000Y-99500000D03*
D16*
X154000000Y-99500000D03*
%TD*%
D10*
%TO.C,K15*%
X137650000Y-102000000D03*
X134350000Y-102000000D03*
D12*
X131000000Y-110300000D03*
X136000000Y-112400000D03*
D15*
X130500000Y-106500000D03*
X141500000Y-106500000D03*
D16*
X136000000Y-106500000D03*
%TD*%
D10*
%TO.C,K14*%
X119650000Y-114000000D03*
X116350000Y-114000000D03*
D12*
X113000000Y-122300000D03*
X118000000Y-124400000D03*
D15*
X112500000Y-118500000D03*
X123500000Y-118500000D03*
D16*
X118000000Y-118500000D03*
%TD*%
D10*
%TO.C,K13*%
X101650000Y-114000000D03*
X98350000Y-114000000D03*
D12*
X95000000Y-122300000D03*
X100000000Y-124400000D03*
D15*
X94500000Y-118500000D03*
X105500000Y-118500000D03*
D16*
X100000000Y-118500000D03*
%TD*%
D10*
%TO.C,K12*%
X191650000Y-86000000D03*
X188350000Y-86000000D03*
D12*
X185000000Y-94300000D03*
X190000000Y-96400000D03*
D15*
X184500000Y-90500000D03*
X195500000Y-90500000D03*
D16*
X190000000Y-90500000D03*
%TD*%
D10*
%TO.C,K11*%
X173650000Y-83500000D03*
X170350000Y-83500000D03*
D12*
X167000000Y-91800000D03*
X172000000Y-93900000D03*
D15*
X166500000Y-88000000D03*
X177500000Y-88000000D03*
D16*
X172000000Y-88000000D03*
%TD*%
D10*
%TO.C,K10*%
X155650000Y-78000000D03*
X152350000Y-78000000D03*
D12*
X149000000Y-86300000D03*
X154000000Y-88400000D03*
D15*
X148500000Y-82500000D03*
X159500000Y-82500000D03*
D16*
X154000000Y-82500000D03*
%TD*%
D10*
%TO.C,K9*%
X137650000Y-85000000D03*
X134350000Y-85000000D03*
D12*
X131000000Y-93300000D03*
X136000000Y-95400000D03*
D15*
X130500000Y-89500000D03*
X141500000Y-89500000D03*
D16*
X136000000Y-89500000D03*
%TD*%
D10*
%TO.C,K8*%
X119650000Y-97000000D03*
X116350000Y-97000000D03*
D12*
X113000000Y-105300000D03*
X118000000Y-107400000D03*
D15*
X112500000Y-101500000D03*
X123500000Y-101500000D03*
D16*
X118000000Y-101500000D03*
%TD*%
D10*
%TO.C,K7*%
X101650000Y-97000000D03*
X98350000Y-97000000D03*
D12*
X95000000Y-105300000D03*
X100000000Y-107400000D03*
D15*
X94500000Y-101500000D03*
X105500000Y-101500000D03*
D16*
X100000000Y-101500000D03*
%TD*%
D10*
%TO.C,K6*%
X191650000Y-69000000D03*
X188350000Y-69000000D03*
D12*
X185000000Y-77300000D03*
X190000000Y-79400000D03*
D15*
X184500000Y-73500000D03*
X195500000Y-73500000D03*
D16*
X190000000Y-73500000D03*
%TD*%
D10*
%TO.C,K5*%
X173650000Y-66500000D03*
X170350000Y-66500000D03*
D12*
X167000000Y-74800000D03*
X172000000Y-76900000D03*
D15*
X166500000Y-71000000D03*
X177500000Y-71000000D03*
D16*
X172000000Y-71000000D03*
%TD*%
D10*
%TO.C,K4*%
X155650000Y-61000000D03*
X152350000Y-61000000D03*
D12*
X149000000Y-69300000D03*
X154000000Y-71400000D03*
D15*
X148500000Y-65500000D03*
X159500000Y-65500000D03*
D16*
X154000000Y-65500000D03*
%TD*%
D10*
%TO.C,K3*%
X137650000Y-68000000D03*
X134350000Y-68000000D03*
D12*
X131000000Y-76300000D03*
X136000000Y-78400000D03*
D15*
X130500000Y-72500000D03*
X141500000Y-72500000D03*
D16*
X136000000Y-72500000D03*
%TD*%
D10*
%TO.C,K2*%
X119650000Y-80000000D03*
X116350000Y-80000000D03*
D12*
X113000000Y-88300000D03*
X118000000Y-90400000D03*
D15*
X112500000Y-84500000D03*
X123500000Y-84500000D03*
D16*
X118000000Y-84500000D03*
%TD*%
D10*
%TO.C,K1*%
X101650000Y-80000000D03*
X98350000Y-80000000D03*
D12*
X95000000Y-88300000D03*
X100000000Y-90400000D03*
D15*
X94500000Y-84500000D03*
X105500000Y-84500000D03*
D16*
X100000000Y-84500000D03*
%TD*%
D18*
%TO.C,D5*%
X129180000Y-114360000D03*
X129180000Y-115860000D03*
X134280000Y-114360000D03*
G36*
G01*
X133430000Y-116065000D02*
X133430000Y-115655000D01*
G75*
G02*
X133635000Y-115450000I205000J0D01*
G01*
X134925000Y-115450000D01*
G75*
G02*
X135130000Y-115655000I0J-205000D01*
G01*
X135130000Y-116065000D01*
G75*
G02*
X134925000Y-116270000I-205000J0D01*
G01*
X133635000Y-116270000D01*
G75*
G02*
X133430000Y-116065000I0J205000D01*
G01*
G37*
%TD*%
%TO.C,D4*%
X158936067Y-112827196D03*
X158936067Y-114327196D03*
X164036067Y-112827196D03*
G36*
G01*
X163186067Y-114532196D02*
X163186067Y-114122196D01*
G75*
G02*
X163391067Y-113917196I205000J0D01*
G01*
X164681067Y-113917196D01*
G75*
G02*
X164886067Y-114122196I0J-205000D01*
G01*
X164886067Y-114532196D01*
G75*
G02*
X164681067Y-114737196I-205000J0D01*
G01*
X163391067Y-114737196D01*
G75*
G02*
X163186067Y-114532196I0J205000D01*
G01*
G37*
%TD*%
D17*
%TO.C,D3*%
G36*
X180117521Y-115584367D02*
G01*
X180329753Y-114792308D01*
X181971827Y-115232301D01*
X181759595Y-116024360D01*
X180117521Y-115584367D01*
G37*
G36*
X179729293Y-117033256D02*
G01*
X179941525Y-116241197D01*
X181583599Y-116681190D01*
X181371367Y-117473249D01*
X179729293Y-117033256D01*
G37*
G36*
X185043743Y-116904344D02*
G01*
X185255975Y-116112285D01*
X186898049Y-116552278D01*
X186685817Y-117344337D01*
X185043743Y-116904344D01*
G37*
G36*
G01*
X184708573Y-118155219D02*
X184814689Y-117759189D01*
G75*
G02*
X185065762Y-117614232I198015J-53058D01*
G01*
X186311806Y-117948108D01*
G75*
G02*
X186456763Y-118199181I-53058J-198015D01*
G01*
X186350647Y-118595211D01*
G75*
G02*
X186099574Y-118740168I-198015J53058D01*
G01*
X184853530Y-118406292D01*
G75*
G02*
X184708573Y-118155219I53058J198015D01*
G01*
G37*
%TD*%
%TO.C,D2*%
G36*
X200924931Y-123293430D02*
G01*
X201334931Y-122583290D01*
X202807175Y-123433290D01*
X202397175Y-124143430D01*
X200924931Y-123293430D01*
G37*
G36*
X200174931Y-124592468D02*
G01*
X200584931Y-123882328D01*
X202057175Y-124732328D01*
X201647175Y-125442468D01*
X200174931Y-124592468D01*
G37*
G36*
X205341661Y-125843430D02*
G01*
X205751661Y-125133290D01*
X207223905Y-125983290D01*
X206813905Y-126693430D01*
X205341661Y-125843430D01*
G37*
G36*
G01*
X204694162Y-126964933D02*
X204899162Y-126609863D01*
G75*
G02*
X205179197Y-126534828I177535J-102500D01*
G01*
X206296369Y-127179828D01*
G75*
G02*
X206371404Y-127459863I-102500J-177535D01*
G01*
X206166404Y-127814933D01*
G75*
G02*
X205886369Y-127889968I-177535J102500D01*
G01*
X204769197Y-127244968D01*
G75*
G02*
X204694162Y-126964933I102500J177535D01*
G01*
G37*
%TD*%
%TO.C,D1*%
G36*
X205746969Y-106417949D02*
G01*
X206156969Y-105707809D01*
X207629213Y-106557809D01*
X207219213Y-107267949D01*
X205746969Y-106417949D01*
G37*
G36*
X204996969Y-107716987D02*
G01*
X205406969Y-107006847D01*
X206879213Y-107856847D01*
X206469213Y-108566987D01*
X204996969Y-107716987D01*
G37*
G36*
X210163699Y-108967949D02*
G01*
X210573699Y-108257809D01*
X212045943Y-109107809D01*
X211635943Y-109817949D01*
X210163699Y-108967949D01*
G37*
G36*
G01*
X209516200Y-110089452D02*
X209721200Y-109734382D01*
G75*
G02*
X210001235Y-109659347I177535J-102500D01*
G01*
X211118407Y-110304347D01*
G75*
G02*
X211193442Y-110584382I-102500J-177535D01*
G01*
X210988442Y-110939452D01*
G75*
G02*
X210708407Y-111014487I-177535J102500D01*
G01*
X209591235Y-110369487D01*
G75*
G02*
X209516200Y-110089452I102500J177535D01*
G01*
G37*
%TD*%
D19*
%TO.C,J1*%
X220055000Y-104550000D03*
D20*
X217515000Y-104550000D03*
X214975000Y-104550000D03*
X212435000Y-104550000D03*
X209895000Y-104550000D03*
D21*
X221725000Y-85200000D03*
%TD*%
D22*
%TO.C,U1*%
X216350000Y-73422000D03*
X216350000Y-75962000D03*
X216350000Y-78502000D03*
X216350000Y-81042000D03*
X216350000Y-83582000D03*
X216350000Y-86122000D03*
X216350000Y-88662000D03*
X216350000Y-91202000D03*
X216350000Y-93742000D03*
X216350000Y-96282000D03*
X216350000Y-98822000D03*
X216350000Y-101362000D03*
X201110000Y-101362000D03*
X201110000Y-98822000D03*
X201110000Y-96282000D03*
X201110000Y-93742000D03*
X201110000Y-91202000D03*
X201110000Y-88662000D03*
X201110000Y-86122000D03*
X201110000Y-83582000D03*
X201110000Y-81042000D03*
X201110000Y-78502000D03*
X201110000Y-75962000D03*
X201110000Y-73422000D03*
X217656400Y-72152000D03*
X217656400Y-74692000D03*
X217656400Y-77232000D03*
X217656400Y-79772000D03*
X217656400Y-82312000D03*
X217656400Y-84852000D03*
X217656400Y-87392000D03*
X217656400Y-89932000D03*
X217656400Y-92472000D03*
X217656400Y-95012000D03*
X217656400Y-97552000D03*
X217656400Y-100092000D03*
X202436400Y-100092000D03*
X202436400Y-97552000D03*
X202436400Y-95012000D03*
X202436400Y-92472000D03*
X202436400Y-89932000D03*
X202436400Y-87392000D03*
X202436400Y-84852000D03*
X202436400Y-82312000D03*
X202436400Y-79772000D03*
X202436400Y-77232000D03*
X202436400Y-74692000D03*
X202436400Y-72152000D03*
%TD*%
D21*
%TO.C,H2*%
X202200000Y-108795000D03*
X221800000Y-119670000D03*
%TD*%
%TO.C,R2*%
G36*
G01*
X220150100Y-78565000D02*
X221049900Y-78565000D01*
G75*
G02*
X221300000Y-78815100I0J-250100D01*
G01*
X221300000Y-79339900D01*
G75*
G02*
X221049900Y-79590000I-250100J0D01*
G01*
X220150100Y-79590000D01*
G75*
G02*
X219900000Y-79339900I0J250100D01*
G01*
X219900000Y-78815100D01*
G75*
G02*
X220150100Y-78565000I250100J0D01*
G01*
G37*
G36*
G01*
X220150100Y-80390000D02*
X221049900Y-80390000D01*
G75*
G02*
X221300000Y-80640100I0J-250100D01*
G01*
X221300000Y-81164900D01*
G75*
G02*
X221049900Y-81415000I-250100J0D01*
G01*
X220150100Y-81415000D01*
G75*
G02*
X219900000Y-81164900I0J250100D01*
G01*
X219900000Y-80640100D01*
G75*
G02*
X220150100Y-80390000I250100J0D01*
G01*
G37*
%TD*%
%TO.C,R1*%
G36*
G01*
X221049900Y-91835000D02*
X220150100Y-91835000D01*
G75*
G02*
X219900000Y-91584900I0J250100D01*
G01*
X219900000Y-91060100D01*
G75*
G02*
X220150100Y-90810000I250100J0D01*
G01*
X221049900Y-90810000D01*
G75*
G02*
X221300000Y-91060100I0J-250100D01*
G01*
X221300000Y-91584900D01*
G75*
G02*
X221049900Y-91835000I-250100J0D01*
G01*
G37*
G36*
G01*
X221049900Y-90010000D02*
X220150100Y-90010000D01*
G75*
G02*
X219900000Y-89759900I0J250100D01*
G01*
X219900000Y-89235100D01*
G75*
G02*
X220150100Y-88985000I250100J0D01*
G01*
X221049900Y-88985000D01*
G75*
G02*
X221300000Y-89235100I0J-250100D01*
G01*
X221300000Y-89759900D01*
G75*
G02*
X221049900Y-90010000I-250100J0D01*
G01*
G37*
%TD*%
D23*
%TO.C,SW1*%
X223541966Y-111400470D03*
D24*
X218386026Y-109158534D03*
D25*
X221050000Y-109480000D03*
X222344095Y-114309629D03*
D24*
X220200347Y-115929674D03*
%TD*%
D26*
%TO.C,J2*%
X215180000Y-127260000D03*
X216680000Y-131460000D03*
X220680000Y-131460000D03*
X223680000Y-131460000D03*
D23*
X218480000Y-129360000D03*
X225480000Y-129360000D03*
D26*
X220680000Y-125510000D03*
X223680000Y-125510000D03*
X215180000Y-129710000D03*
X216680000Y-125510000D03*
D23*
X225480000Y-127610000D03*
X218480000Y-127610000D03*
%TD*%
D27*
%TO.C,H1*%
X143960000Y-81960000D03*
X163010000Y-101010000D03*
X182060000Y-81960000D03*
X163010000Y-62910000D03*
%TD*%
M02*
