%TF.GenerationSoftware,KiCad,Pcbnew,(5.1.10-1-10_14)*%
%TF.CreationDate,2021-09-20T15:17:19-07:00*%
%TF.ProjectId,redwood,72656477-6f6f-4642-9e6b-696361645f70,rev?*%
%TF.SameCoordinates,Original*%
%TF.FileFunction,OtherDrawing,Comment*%
%FSLAX46Y46*%
G04 Gerber Fmt 4.6, Leading zero omitted, Abs format (unit mm)*
G04 Created by KiCad (PCBNEW (5.1.10-1-10_14)) date 2021-09-20 15:17:19*
%MOMM*%
%LPD*%
G01*
G04 APERTURE LIST*
%ADD10C,0.120000*%
%ADD11C,0.150000*%
G04 APERTURE END LIST*
D10*
%TO.C,K20*%
X139000000Y-123500000D02*
G75*
G03*
X139000000Y-123500000I-3000000J0D01*
G01*
D11*
X133500000Y-117250000D02*
X133500000Y-120350000D01*
X133500000Y-120350000D02*
X138500000Y-120350000D01*
X138500000Y-120350000D02*
X138500000Y-117250000D01*
X138500000Y-117250000D02*
X133500000Y-117250000D01*
X144000000Y-132000000D02*
X128000000Y-132000000D01*
X127000000Y-131000000D02*
X127000000Y-116000000D01*
X128000000Y-115000000D02*
X144000000Y-115000000D01*
X145000000Y-116000000D02*
X145000000Y-131000000D01*
X144000000Y-132000000D02*
G75*
G03*
X145000000Y-131000000I0J1000000D01*
G01*
X145000000Y-116000000D02*
G75*
G03*
X144000000Y-115000000I-1000000J0D01*
G01*
X128000000Y-115000000D02*
G75*
G03*
X127000000Y-116000000I0J-1000000D01*
G01*
X127000000Y-131000000D02*
G75*
G03*
X128000000Y-132000000I1000000J0D01*
G01*
%TO.C,K24*%
X226807609Y-145751909D02*
X216201008Y-156358510D01*
X215493901Y-133023987D02*
X226807609Y-144337695D01*
X203473086Y-143630588D02*
X214079687Y-133023987D01*
X214786794Y-156358510D02*
X203473086Y-145044802D01*
X221327532Y-142039598D02*
X217791998Y-138504064D01*
X219135501Y-144231629D02*
X221327532Y-142039598D01*
X215599967Y-140696095D02*
X219135501Y-144231629D01*
X217791998Y-138504064D02*
X215599967Y-140696095D01*
X214786795Y-156358511D02*
G75*
G03*
X216201008Y-156358510I707106J707107D01*
G01*
X226807610Y-145751908D02*
G75*
G03*
X226807609Y-144337695I-707107J707106D01*
G01*
X215493900Y-133023986D02*
G75*
G03*
X214079687Y-133023987I-707106J-707107D01*
G01*
X203473085Y-143630589D02*
G75*
G03*
X203473086Y-145044802I707107J-707106D01*
G01*
%TO.C,K23*%
X211022505Y-130554730D02*
X203522505Y-143545111D01*
X196800073Y-121188704D02*
X210656479Y-129188704D01*
X187934047Y-134545111D02*
X195434047Y-121554730D01*
X202156479Y-143911136D02*
X188300073Y-135911136D01*
X204768340Y-128387262D02*
X200438212Y-125887262D01*
X203218340Y-131071940D02*
X204768340Y-128387262D01*
X198888212Y-128571940D02*
X203218340Y-131071940D01*
X200438212Y-125887262D02*
X198888212Y-128571940D01*
X202156479Y-143911137D02*
G75*
G03*
X203522505Y-143545111I500000J866026D01*
G01*
X211022505Y-130554730D02*
G75*
G03*
X210656479Y-129188704I-866026J500000D01*
G01*
X196800073Y-121188704D02*
G75*
G03*
X195434047Y-121554730I-500000J-866026D01*
G01*
X187934048Y-134545111D02*
G75*
G03*
X188300073Y-135911136I866025J-500000D01*
G01*
%TO.C,K22*%
X191744476Y-119971594D02*
X187862190Y-134460481D01*
X175582556Y-114605744D02*
X191037369Y-118746849D01*
X170475525Y-129801739D02*
X174357811Y-115312851D01*
X186637445Y-135167588D02*
X171182632Y-131026483D01*
X185142434Y-119496677D02*
X180312805Y-118202582D01*
X184340095Y-122491047D02*
X185142434Y-119496677D01*
X179510466Y-121196952D02*
X184340095Y-122491047D01*
X180312805Y-118202582D02*
X179510466Y-121196952D01*
X186637445Y-135167588D02*
G75*
G03*
X187862190Y-134460481I258819J965926D01*
G01*
X191744476Y-119971594D02*
G75*
G03*
X191037369Y-118746849I-965926J258819D01*
G01*
X175582556Y-114605744D02*
G75*
G03*
X174357811Y-115312851I-258819J-965926D01*
G01*
X170475526Y-129801739D02*
G75*
G03*
X171182632Y-131026483I965925J-258819D01*
G01*
%TO.C,K21*%
X170500000Y-114500000D02*
X170500000Y-129500000D01*
X153500000Y-113500000D02*
X169500000Y-113500000D01*
X152500000Y-129500000D02*
X152500000Y-114500000D01*
X169500000Y-130500000D02*
X153500000Y-130500000D01*
X164000000Y-115750000D02*
X159000000Y-115750000D01*
X164000000Y-118850000D02*
X164000000Y-115750000D01*
X159000000Y-118850000D02*
X164000000Y-118850000D01*
X159000000Y-115750000D02*
X159000000Y-118850000D01*
X169500000Y-130500000D02*
G75*
G03*
X170500000Y-129500000I0J1000000D01*
G01*
X170500000Y-114500000D02*
G75*
G03*
X169500000Y-113500000I-1000000J0D01*
G01*
X153500000Y-113500000D02*
G75*
G03*
X152500000Y-114500000I0J-1000000D01*
G01*
X152500000Y-129500000D02*
G75*
G03*
X153500000Y-130500000I1000000J0D01*
G01*
%TO.C,K19*%
X219522505Y-115832298D02*
X212022505Y-128822679D01*
X205300073Y-106466272D02*
X219156479Y-114466272D01*
X196434047Y-119822679D02*
X203934047Y-106832298D01*
X210656479Y-129188704D02*
X196800073Y-121188704D01*
X213268340Y-113664830D02*
X208938212Y-111164830D01*
X211718340Y-116349508D02*
X213268340Y-113664830D01*
X207388212Y-113849508D02*
X211718340Y-116349508D01*
X208938212Y-111164830D02*
X207388212Y-113849508D01*
X210656479Y-129188705D02*
G75*
G03*
X212022505Y-128822679I500000J866026D01*
G01*
X219522505Y-115832298D02*
G75*
G03*
X219156479Y-114466272I-866026J500000D01*
G01*
X205300073Y-106466272D02*
G75*
G03*
X203934047Y-106832298I-500000J-866026D01*
G01*
X196434048Y-119822679D02*
G75*
G03*
X196800073Y-121188704I866025J-500000D01*
G01*
%TO.C,K18*%
X199000000Y-100000000D02*
X199000000Y-115000000D01*
X182000000Y-99000000D02*
X198000000Y-99000000D01*
X181000000Y-115000000D02*
X181000000Y-100000000D01*
X198000000Y-116000000D02*
X182000000Y-116000000D01*
X192500000Y-101250000D02*
X187500000Y-101250000D01*
X192500000Y-104350000D02*
X192500000Y-101250000D01*
X187500000Y-104350000D02*
X192500000Y-104350000D01*
X187500000Y-101250000D02*
X187500000Y-104350000D01*
X198000000Y-116000000D02*
G75*
G03*
X199000000Y-115000000I0J1000000D01*
G01*
X199000000Y-100000000D02*
G75*
G03*
X198000000Y-99000000I-1000000J0D01*
G01*
X182000000Y-99000000D02*
G75*
G03*
X181000000Y-100000000I0J-1000000D01*
G01*
X181000000Y-115000000D02*
G75*
G03*
X182000000Y-116000000I1000000J0D01*
G01*
%TO.C,K17*%
X181000000Y-97500000D02*
X181000000Y-112500000D01*
X164000000Y-96500000D02*
X180000000Y-96500000D01*
X163000000Y-112500000D02*
X163000000Y-97500000D01*
X180000000Y-113500000D02*
X164000000Y-113500000D01*
X174500000Y-98750000D02*
X169500000Y-98750000D01*
X174500000Y-101850000D02*
X174500000Y-98750000D01*
X169500000Y-101850000D02*
X174500000Y-101850000D01*
X169500000Y-98750000D02*
X169500000Y-101850000D01*
X180000000Y-113500000D02*
G75*
G03*
X181000000Y-112500000I0J1000000D01*
G01*
X181000000Y-97500000D02*
G75*
G03*
X180000000Y-96500000I-1000000J0D01*
G01*
X164000000Y-96500000D02*
G75*
G03*
X163000000Y-97500000I0J-1000000D01*
G01*
X163000000Y-112500000D02*
G75*
G03*
X164000000Y-113500000I1000000J0D01*
G01*
%TO.C,K16*%
X163000000Y-92000000D02*
X163000000Y-107000000D01*
X146000000Y-91000000D02*
X162000000Y-91000000D01*
X145000000Y-107000000D02*
X145000000Y-92000000D01*
X162000000Y-108000000D02*
X146000000Y-108000000D01*
X156500000Y-93250000D02*
X151500000Y-93250000D01*
X156500000Y-96350000D02*
X156500000Y-93250000D01*
X151500000Y-96350000D02*
X156500000Y-96350000D01*
X151500000Y-93250000D02*
X151500000Y-96350000D01*
X162000000Y-108000000D02*
G75*
G03*
X163000000Y-107000000I0J1000000D01*
G01*
X163000000Y-92000000D02*
G75*
G03*
X162000000Y-91000000I-1000000J0D01*
G01*
X146000000Y-91000000D02*
G75*
G03*
X145000000Y-92000000I0J-1000000D01*
G01*
X145000000Y-107000000D02*
G75*
G03*
X146000000Y-108000000I1000000J0D01*
G01*
%TO.C,K15*%
X145000000Y-99000000D02*
X145000000Y-114000000D01*
X128000000Y-98000000D02*
X144000000Y-98000000D01*
X127000000Y-114000000D02*
X127000000Y-99000000D01*
X144000000Y-115000000D02*
X128000000Y-115000000D01*
X138500000Y-100250000D02*
X133500000Y-100250000D01*
X138500000Y-103350000D02*
X138500000Y-100250000D01*
X133500000Y-103350000D02*
X138500000Y-103350000D01*
X133500000Y-100250000D02*
X133500000Y-103350000D01*
X144000000Y-115000000D02*
G75*
G03*
X145000000Y-114000000I0J1000000D01*
G01*
X145000000Y-99000000D02*
G75*
G03*
X144000000Y-98000000I-1000000J0D01*
G01*
X128000000Y-98000000D02*
G75*
G03*
X127000000Y-99000000I0J-1000000D01*
G01*
X127000000Y-114000000D02*
G75*
G03*
X128000000Y-115000000I1000000J0D01*
G01*
%TO.C,K14*%
X127000000Y-111000000D02*
X127000000Y-126000000D01*
X110000000Y-110000000D02*
X126000000Y-110000000D01*
X109000000Y-126000000D02*
X109000000Y-111000000D01*
X126000000Y-127000000D02*
X110000000Y-127000000D01*
X120500000Y-112250000D02*
X115500000Y-112250000D01*
X120500000Y-115350000D02*
X120500000Y-112250000D01*
X115500000Y-115350000D02*
X120500000Y-115350000D01*
X115500000Y-112250000D02*
X115500000Y-115350000D01*
X126000000Y-127000000D02*
G75*
G03*
X127000000Y-126000000I0J1000000D01*
G01*
X127000000Y-111000000D02*
G75*
G03*
X126000000Y-110000000I-1000000J0D01*
G01*
X110000000Y-110000000D02*
G75*
G03*
X109000000Y-111000000I0J-1000000D01*
G01*
X109000000Y-126000000D02*
G75*
G03*
X110000000Y-127000000I1000000J0D01*
G01*
%TO.C,K13*%
X109000000Y-111000000D02*
X109000000Y-126000000D01*
X92000000Y-110000000D02*
X108000000Y-110000000D01*
X91000000Y-126000000D02*
X91000000Y-111000000D01*
X108000000Y-127000000D02*
X92000000Y-127000000D01*
X102500000Y-112250000D02*
X97500000Y-112250000D01*
X102500000Y-115350000D02*
X102500000Y-112250000D01*
X97500000Y-115350000D02*
X102500000Y-115350000D01*
X97500000Y-112250000D02*
X97500000Y-115350000D01*
X108000000Y-127000000D02*
G75*
G03*
X109000000Y-126000000I0J1000000D01*
G01*
X109000000Y-111000000D02*
G75*
G03*
X108000000Y-110000000I-1000000J0D01*
G01*
X92000000Y-110000000D02*
G75*
G03*
X91000000Y-111000000I0J-1000000D01*
G01*
X91000000Y-126000000D02*
G75*
G03*
X92000000Y-127000000I1000000J0D01*
G01*
%TO.C,K12*%
X199000000Y-83000000D02*
X199000000Y-98000000D01*
X182000000Y-82000000D02*
X198000000Y-82000000D01*
X181000000Y-98000000D02*
X181000000Y-83000000D01*
X198000000Y-99000000D02*
X182000000Y-99000000D01*
X192500000Y-84250000D02*
X187500000Y-84250000D01*
X192500000Y-87350000D02*
X192500000Y-84250000D01*
X187500000Y-87350000D02*
X192500000Y-87350000D01*
X187500000Y-84250000D02*
X187500000Y-87350000D01*
X198000000Y-99000000D02*
G75*
G03*
X199000000Y-98000000I0J1000000D01*
G01*
X199000000Y-83000000D02*
G75*
G03*
X198000000Y-82000000I-1000000J0D01*
G01*
X182000000Y-82000000D02*
G75*
G03*
X181000000Y-83000000I0J-1000000D01*
G01*
X181000000Y-98000000D02*
G75*
G03*
X182000000Y-99000000I1000000J0D01*
G01*
%TO.C,K11*%
X181000000Y-80500000D02*
X181000000Y-95500000D01*
X164000000Y-79500000D02*
X180000000Y-79500000D01*
X163000000Y-95500000D02*
X163000000Y-80500000D01*
X180000000Y-96500000D02*
X164000000Y-96500000D01*
X174500000Y-81750000D02*
X169500000Y-81750000D01*
X174500000Y-84850000D02*
X174500000Y-81750000D01*
X169500000Y-84850000D02*
X174500000Y-84850000D01*
X169500000Y-81750000D02*
X169500000Y-84850000D01*
X180000000Y-96500000D02*
G75*
G03*
X181000000Y-95500000I0J1000000D01*
G01*
X181000000Y-80500000D02*
G75*
G03*
X180000000Y-79500000I-1000000J0D01*
G01*
X164000000Y-79500000D02*
G75*
G03*
X163000000Y-80500000I0J-1000000D01*
G01*
X163000000Y-95500000D02*
G75*
G03*
X164000000Y-96500000I1000000J0D01*
G01*
%TO.C,K10*%
X163000000Y-75000000D02*
X163000000Y-90000000D01*
X146000000Y-74000000D02*
X162000000Y-74000000D01*
X145000000Y-90000000D02*
X145000000Y-75000000D01*
X162000000Y-91000000D02*
X146000000Y-91000000D01*
X156500000Y-76250000D02*
X151500000Y-76250000D01*
X156500000Y-79350000D02*
X156500000Y-76250000D01*
X151500000Y-79350000D02*
X156500000Y-79350000D01*
X151500000Y-76250000D02*
X151500000Y-79350000D01*
X162000000Y-91000000D02*
G75*
G03*
X163000000Y-90000000I0J1000000D01*
G01*
X163000000Y-75000000D02*
G75*
G03*
X162000000Y-74000000I-1000000J0D01*
G01*
X146000000Y-74000000D02*
G75*
G03*
X145000000Y-75000000I0J-1000000D01*
G01*
X145000000Y-90000000D02*
G75*
G03*
X146000000Y-91000000I1000000J0D01*
G01*
%TO.C,K9*%
X145000000Y-82000000D02*
X145000000Y-97000000D01*
X128000000Y-81000000D02*
X144000000Y-81000000D01*
X127000000Y-97000000D02*
X127000000Y-82000000D01*
X144000000Y-98000000D02*
X128000000Y-98000000D01*
X138500000Y-83250000D02*
X133500000Y-83250000D01*
X138500000Y-86350000D02*
X138500000Y-83250000D01*
X133500000Y-86350000D02*
X138500000Y-86350000D01*
X133500000Y-83250000D02*
X133500000Y-86350000D01*
X144000000Y-98000000D02*
G75*
G03*
X145000000Y-97000000I0J1000000D01*
G01*
X145000000Y-82000000D02*
G75*
G03*
X144000000Y-81000000I-1000000J0D01*
G01*
X128000000Y-81000000D02*
G75*
G03*
X127000000Y-82000000I0J-1000000D01*
G01*
X127000000Y-97000000D02*
G75*
G03*
X128000000Y-98000000I1000000J0D01*
G01*
%TO.C,K8*%
X127000000Y-94000000D02*
X127000000Y-109000000D01*
X110000000Y-93000000D02*
X126000000Y-93000000D01*
X109000000Y-109000000D02*
X109000000Y-94000000D01*
X126000000Y-110000000D02*
X110000000Y-110000000D01*
X120500000Y-95250000D02*
X115500000Y-95250000D01*
X120500000Y-98350000D02*
X120500000Y-95250000D01*
X115500000Y-98350000D02*
X120500000Y-98350000D01*
X115500000Y-95250000D02*
X115500000Y-98350000D01*
X126000000Y-110000000D02*
G75*
G03*
X127000000Y-109000000I0J1000000D01*
G01*
X127000000Y-94000000D02*
G75*
G03*
X126000000Y-93000000I-1000000J0D01*
G01*
X110000000Y-93000000D02*
G75*
G03*
X109000000Y-94000000I0J-1000000D01*
G01*
X109000000Y-109000000D02*
G75*
G03*
X110000000Y-110000000I1000000J0D01*
G01*
%TO.C,K7*%
X109000000Y-94000000D02*
X109000000Y-109000000D01*
X92000000Y-93000000D02*
X108000000Y-93000000D01*
X91000000Y-109000000D02*
X91000000Y-94000000D01*
X108000000Y-110000000D02*
X92000000Y-110000000D01*
X102500000Y-95250000D02*
X97500000Y-95250000D01*
X102500000Y-98350000D02*
X102500000Y-95250000D01*
X97500000Y-98350000D02*
X102500000Y-98350000D01*
X97500000Y-95250000D02*
X97500000Y-98350000D01*
X108000000Y-110000000D02*
G75*
G03*
X109000000Y-109000000I0J1000000D01*
G01*
X109000000Y-94000000D02*
G75*
G03*
X108000000Y-93000000I-1000000J0D01*
G01*
X92000000Y-93000000D02*
G75*
G03*
X91000000Y-94000000I0J-1000000D01*
G01*
X91000000Y-109000000D02*
G75*
G03*
X92000000Y-110000000I1000000J0D01*
G01*
%TO.C,K6*%
X199000000Y-66000000D02*
X199000000Y-81000000D01*
X182000000Y-65000000D02*
X198000000Y-65000000D01*
X181000000Y-81000000D02*
X181000000Y-66000000D01*
X198000000Y-82000000D02*
X182000000Y-82000000D01*
X192500000Y-67250000D02*
X187500000Y-67250000D01*
X192500000Y-70350000D02*
X192500000Y-67250000D01*
X187500000Y-70350000D02*
X192500000Y-70350000D01*
X187500000Y-67250000D02*
X187500000Y-70350000D01*
X198000000Y-82000000D02*
G75*
G03*
X199000000Y-81000000I0J1000000D01*
G01*
X199000000Y-66000000D02*
G75*
G03*
X198000000Y-65000000I-1000000J0D01*
G01*
X182000000Y-65000000D02*
G75*
G03*
X181000000Y-66000000I0J-1000000D01*
G01*
X181000000Y-81000000D02*
G75*
G03*
X182000000Y-82000000I1000000J0D01*
G01*
%TO.C,K5*%
X181000000Y-63500000D02*
X181000000Y-78500000D01*
X164000000Y-62500000D02*
X180000000Y-62500000D01*
X163000000Y-78500000D02*
X163000000Y-63500000D01*
X180000000Y-79500000D02*
X164000000Y-79500000D01*
X174500000Y-64750000D02*
X169500000Y-64750000D01*
X174500000Y-67850000D02*
X174500000Y-64750000D01*
X169500000Y-67850000D02*
X174500000Y-67850000D01*
X169500000Y-64750000D02*
X169500000Y-67850000D01*
X180000000Y-79500000D02*
G75*
G03*
X181000000Y-78500000I0J1000000D01*
G01*
X181000000Y-63500000D02*
G75*
G03*
X180000000Y-62500000I-1000000J0D01*
G01*
X164000000Y-62500000D02*
G75*
G03*
X163000000Y-63500000I0J-1000000D01*
G01*
X163000000Y-78500000D02*
G75*
G03*
X164000000Y-79500000I1000000J0D01*
G01*
%TO.C,K4*%
X163000000Y-58000000D02*
X163000000Y-73000000D01*
X146000000Y-57000000D02*
X162000000Y-57000000D01*
X145000000Y-73000000D02*
X145000000Y-58000000D01*
X162000000Y-74000000D02*
X146000000Y-74000000D01*
X156500000Y-59250000D02*
X151500000Y-59250000D01*
X156500000Y-62350000D02*
X156500000Y-59250000D01*
X151500000Y-62350000D02*
X156500000Y-62350000D01*
X151500000Y-59250000D02*
X151500000Y-62350000D01*
X162000000Y-74000000D02*
G75*
G03*
X163000000Y-73000000I0J1000000D01*
G01*
X163000000Y-58000000D02*
G75*
G03*
X162000000Y-57000000I-1000000J0D01*
G01*
X146000000Y-57000000D02*
G75*
G03*
X145000000Y-58000000I0J-1000000D01*
G01*
X145000000Y-73000000D02*
G75*
G03*
X146000000Y-74000000I1000000J0D01*
G01*
%TO.C,K3*%
X145000000Y-65000000D02*
X145000000Y-80000000D01*
X128000000Y-64000000D02*
X144000000Y-64000000D01*
X127000000Y-80000000D02*
X127000000Y-65000000D01*
X144000000Y-81000000D02*
X128000000Y-81000000D01*
X138500000Y-66250000D02*
X133500000Y-66250000D01*
X138500000Y-69350000D02*
X138500000Y-66250000D01*
X133500000Y-69350000D02*
X138500000Y-69350000D01*
X133500000Y-66250000D02*
X133500000Y-69350000D01*
X144000000Y-81000000D02*
G75*
G03*
X145000000Y-80000000I0J1000000D01*
G01*
X145000000Y-65000000D02*
G75*
G03*
X144000000Y-64000000I-1000000J0D01*
G01*
X128000000Y-64000000D02*
G75*
G03*
X127000000Y-65000000I0J-1000000D01*
G01*
X127000000Y-80000000D02*
G75*
G03*
X128000000Y-81000000I1000000J0D01*
G01*
%TO.C,K2*%
X127000000Y-77000000D02*
X127000000Y-92000000D01*
X110000000Y-76000000D02*
X126000000Y-76000000D01*
X109000000Y-92000000D02*
X109000000Y-77000000D01*
X126000000Y-93000000D02*
X110000000Y-93000000D01*
X120500000Y-78250000D02*
X115500000Y-78250000D01*
X120500000Y-81350000D02*
X120500000Y-78250000D01*
X115500000Y-81350000D02*
X120500000Y-81350000D01*
X115500000Y-78250000D02*
X115500000Y-81350000D01*
X126000000Y-93000000D02*
G75*
G03*
X127000000Y-92000000I0J1000000D01*
G01*
X127000000Y-77000000D02*
G75*
G03*
X126000000Y-76000000I-1000000J0D01*
G01*
X110000000Y-76000000D02*
G75*
G03*
X109000000Y-77000000I0J-1000000D01*
G01*
X109000000Y-92000000D02*
G75*
G03*
X110000000Y-93000000I1000000J0D01*
G01*
%TO.C,K1*%
X109000000Y-77000000D02*
X109000000Y-92000000D01*
X92000000Y-76000000D02*
X108000000Y-76000000D01*
X91000000Y-92000000D02*
X91000000Y-77000000D01*
X108000000Y-93000000D02*
X92000000Y-93000000D01*
X102500000Y-78250000D02*
X97500000Y-78250000D01*
X102500000Y-81350000D02*
X102500000Y-78250000D01*
X97500000Y-81350000D02*
X102500000Y-81350000D01*
X97500000Y-78250000D02*
X97500000Y-81350000D01*
X108000000Y-93000000D02*
G75*
G03*
X109000000Y-92000000I0J1000000D01*
G01*
X109000000Y-77000000D02*
G75*
G03*
X108000000Y-76000000I-1000000J0D01*
G01*
X92000000Y-76000000D02*
G75*
G03*
X91000000Y-77000000I0J-1000000D01*
G01*
X91000000Y-92000000D02*
G75*
G03*
X92000000Y-93000000I1000000J0D01*
G01*
D10*
%TO.C,J1*%
X223725000Y-82450000D02*
X206225000Y-82450000D01*
X205475000Y-83200000D02*
X205475000Y-99700000D01*
X224475000Y-83200000D02*
X224475000Y-99700000D01*
X208225000Y-105950000D02*
X221725000Y-105950000D01*
X207475000Y-105200000D02*
X207475000Y-101200000D01*
X206725000Y-100450000D02*
X206225000Y-100450000D01*
X222475000Y-105200000D02*
X222475000Y-101200000D01*
X223225000Y-100450000D02*
X223725000Y-100450000D01*
X223725000Y-82450000D02*
G75*
G02*
X224475000Y-83200000I0J-750000D01*
G01*
X206725000Y-100450000D02*
G75*
G02*
X207475000Y-101200000I0J-750000D01*
G01*
X206225000Y-100450000D02*
G75*
G02*
X205475000Y-99700000I0J750000D01*
G01*
X205475000Y-83200000D02*
G75*
G02*
X206225000Y-82450000I750000J0D01*
G01*
X224475000Y-99700000D02*
G75*
G02*
X223725000Y-100450000I-750000J0D01*
G01*
X222475000Y-101200000D02*
G75*
G02*
X223225000Y-100450000I750000J0D01*
G01*
X222475000Y-105200000D02*
G75*
G02*
X221725000Y-105950000I-750000J0D01*
G01*
X208225000Y-105950000D02*
G75*
G02*
X207475000Y-105200000I0J750000D01*
G01*
%TO.C,H2*%
X200250000Y-122420000D02*
X223750000Y-122420000D01*
X224500000Y-121670000D02*
X224500000Y-106845000D01*
X199500000Y-121670000D02*
X199500000Y-106845000D01*
X218750000Y-100420000D02*
X205250000Y-100420000D01*
X219500000Y-101170000D02*
X219500000Y-105345000D01*
X220250000Y-106095000D02*
X223750000Y-106095000D01*
X204500000Y-101170000D02*
X204500000Y-105345000D01*
X203750000Y-106095000D02*
X200250000Y-106095000D01*
X218750000Y-100420000D02*
G75*
G02*
X219500000Y-101170000I0J-750000D01*
G01*
X204500000Y-101170000D02*
G75*
G02*
X205250000Y-100420000I750000J0D01*
G01*
X204500000Y-105345000D02*
G75*
G02*
X203750000Y-106095000I-750000J0D01*
G01*
X199500000Y-106845000D02*
G75*
G02*
X200250000Y-106095000I750000J0D01*
G01*
X224500000Y-121670000D02*
G75*
G02*
X223750000Y-122420000I-750000J0D01*
G01*
X223750000Y-106095000D02*
G75*
G02*
X224500000Y-106845000I0J-750000D01*
G01*
X220250000Y-106095000D02*
G75*
G02*
X219500000Y-105345000I0J750000D01*
G01*
X200250000Y-122420000D02*
G75*
G02*
X199500000Y-121670000I0J750000D01*
G01*
%TD*%
%TO.C,J1*%
D11*
X219267142Y-100162380D02*
X219267142Y-99162380D01*
X219267142Y-99638571D02*
X219838571Y-99638571D01*
X219838571Y-100162380D02*
X219838571Y-99162380D01*
X220743333Y-100162380D02*
X220743333Y-99638571D01*
X220695714Y-99543333D01*
X220600476Y-99495714D01*
X220410000Y-99495714D01*
X220314761Y-99543333D01*
X220743333Y-100114761D02*
X220648095Y-100162380D01*
X220410000Y-100162380D01*
X220314761Y-100114761D01*
X220267142Y-100019523D01*
X220267142Y-99924285D01*
X220314761Y-99829047D01*
X220410000Y-99781428D01*
X220648095Y-99781428D01*
X220743333Y-99733809D01*
X221219523Y-99495714D02*
X221219523Y-100495714D01*
X221219523Y-99543333D02*
X221314761Y-99495714D01*
X221505238Y-99495714D01*
X221600476Y-99543333D01*
X221648095Y-99590952D01*
X221695714Y-99686190D01*
X221695714Y-99971904D01*
X221648095Y-100067142D01*
X221600476Y-100114761D01*
X221505238Y-100162380D01*
X221314761Y-100162380D01*
X221219523Y-100114761D01*
X221981428Y-99495714D02*
X222362380Y-99495714D01*
X222124285Y-99162380D02*
X222124285Y-100019523D01*
X222171904Y-100114761D01*
X222267142Y-100162380D01*
X222362380Y-100162380D01*
X222695714Y-100162380D02*
X222695714Y-99495714D01*
X222695714Y-99162380D02*
X222648095Y-99210000D01*
X222695714Y-99257619D01*
X222743333Y-99210000D01*
X222695714Y-99162380D01*
X222695714Y-99257619D01*
X223600476Y-100114761D02*
X223505238Y-100162380D01*
X223314761Y-100162380D01*
X223219523Y-100114761D01*
X223171904Y-100067142D01*
X223124285Y-99971904D01*
X223124285Y-99686190D01*
X223171904Y-99590952D01*
X223219523Y-99543333D01*
X223314761Y-99495714D01*
X223505238Y-99495714D01*
X223600476Y-99543333D01*
%TO.C,H2*%
X199780476Y-111562380D02*
X200351904Y-111562380D01*
X200066190Y-112562380D02*
X200066190Y-111562380D01*
X200685238Y-112562380D02*
X200685238Y-111895714D01*
X200685238Y-112086190D02*
X200732857Y-111990952D01*
X200780476Y-111943333D01*
X200875714Y-111895714D01*
X200970952Y-111895714D01*
X201732857Y-112562380D02*
X201732857Y-112038571D01*
X201685238Y-111943333D01*
X201590000Y-111895714D01*
X201399523Y-111895714D01*
X201304285Y-111943333D01*
X201732857Y-112514761D02*
X201637619Y-112562380D01*
X201399523Y-112562380D01*
X201304285Y-112514761D01*
X201256666Y-112419523D01*
X201256666Y-112324285D01*
X201304285Y-112229047D01*
X201399523Y-112181428D01*
X201637619Y-112181428D01*
X201732857Y-112133809D01*
X202637619Y-112514761D02*
X202542380Y-112562380D01*
X202351904Y-112562380D01*
X202256666Y-112514761D01*
X202209047Y-112467142D01*
X202161428Y-112371904D01*
X202161428Y-112086190D01*
X202209047Y-111990952D01*
X202256666Y-111943333D01*
X202351904Y-111895714D01*
X202542380Y-111895714D01*
X202637619Y-111943333D01*
X203066190Y-112562380D02*
X203066190Y-111562380D01*
X203161428Y-112181428D02*
X203447142Y-112562380D01*
X203447142Y-111895714D02*
X203066190Y-112276666D01*
X203875714Y-112562380D02*
X203875714Y-111562380D01*
X203875714Y-111943333D02*
X203970952Y-111895714D01*
X204161428Y-111895714D01*
X204256666Y-111943333D01*
X204304285Y-111990952D01*
X204351904Y-112086190D01*
X204351904Y-112371904D01*
X204304285Y-112467142D01*
X204256666Y-112514761D01*
X204161428Y-112562380D01*
X203970952Y-112562380D01*
X203875714Y-112514761D01*
X205209047Y-112562380D02*
X205209047Y-112038571D01*
X205161428Y-111943333D01*
X205066190Y-111895714D01*
X204875714Y-111895714D01*
X204780476Y-111943333D01*
X205209047Y-112514761D02*
X205113809Y-112562380D01*
X204875714Y-112562380D01*
X204780476Y-112514761D01*
X204732857Y-112419523D01*
X204732857Y-112324285D01*
X204780476Y-112229047D01*
X204875714Y-112181428D01*
X205113809Y-112181428D01*
X205209047Y-112133809D01*
X205828095Y-112562380D02*
X205732857Y-112514761D01*
X205685238Y-112419523D01*
X205685238Y-111562380D01*
X206351904Y-112562380D02*
X206256666Y-112514761D01*
X206209047Y-112419523D01*
X206209047Y-111562380D01*
%TD*%
M02*
