M48
; DRILL file {KiCad (5.1.10-1-10_14)} date Monday, September 20, 2021 at 03:17:23 PM
; FORMAT={-:-/ absolute / inch / decimal}
; #@! TF.CreationDate,2021-09-20T15:17:23-07:00
; #@! TF.GenerationSoftware,Kicad,Pcbnew,(5.1.10-1-10_14)
; #@! TF.FileFunction,NonPlated,1,2,NPTH
FMAT,2
INCH
T1C0.0472
T2C0.0591
T3C0.0669
T4C0.1339
%
G90
G05
T1
X8.6016Y-5.024
X8.6016Y-5.0929
X8.8009Y-4.3858
X8.8772Y-5.024
X8.8772Y-5.0929
T3
X3.7205Y-3.3268
X3.7205Y-3.9961
X3.7205Y-4.6654
X4.1535Y-3.3268
X4.1535Y-3.9961
X4.1535Y-4.6654
X4.4291Y-3.3268
X4.4291Y-3.9961
X4.4291Y-4.6654
X4.8622Y-3.3268
X4.8622Y-3.9961
X4.8622Y-4.6654
X5.1378Y-2.8543
X5.1378Y-3.5236
X5.1378Y-4.1929
X5.1378Y-4.8622
X5.5709Y-2.8543
X5.5709Y-3.5236
X5.5709Y-4.1929
X5.8465Y-2.5787
X5.8465Y-3.248
X5.8465Y-3.9173
X6.1417Y-4.8031
X6.2795Y-2.5787
X6.2795Y-3.248
X6.2795Y-3.9173
X6.5551Y-2.7953
X6.5551Y-3.4646
X6.5551Y-4.1339
X6.5748Y-4.8031
X6.9212Y-4.8608
X6.9882Y-2.7953
X6.9882Y-3.4646
X6.9882Y-4.1339
X7.2638Y-2.8937
X7.2638Y-3.563
X7.2638Y-4.2323
X7.3395Y-4.9728
X7.666Y-5.1102
X7.6969Y-2.8937
X7.6969Y-3.563
X7.6969Y-4.2323
X8.0006Y-4.5306
X8.041Y-5.3268
X8.317Y-5.5434
X8.3756Y-4.7471
X8.6232Y-5.8496
T4
X3.937Y-3.3268
X3.937Y-3.9961
X3.937Y-4.6654
X4.6457Y-3.3268
X4.6457Y-3.9961
X4.6457Y-4.6654
X5.3543Y-2.8543
X5.3543Y-3.5236
X5.3543Y-4.1929
X5.3543Y-4.8622
X6.063Y-2.5787
X6.063Y-3.248
X6.063Y-3.9173
X6.3583Y-4.8031
X6.7717Y-2.7953
X6.7717Y-3.4646
X6.7717Y-4.1339
X7.1303Y-4.9168
X7.4803Y-2.8937
X7.4803Y-3.563
X7.4803Y-4.2323
X7.8535Y-5.2185
X8.1881Y-4.6389
X8.4701Y-5.6965
T2
G00X5.3799Y-4.6417
M15
G01X5.3287Y-4.6417
M16
G05
T0
M30
