%TF.GenerationSoftware,KiCad,Pcbnew,(6.0.1-0)*%
%TF.CreationDate,2022-01-24T00:31:25-08:00*%
%TF.ProjectId,hillside56,68696c6c-7369-4646-9535-362e6b696361,0.1.0-alpha*%
%TF.SameCoordinates,Original*%
%TF.FileFunction,Soldermask,Bot*%
%TF.FilePolarity,Negative*%
%FSLAX46Y46*%
G04 Gerber Fmt 4.6, Leading zero omitted, Abs format (unit mm)*
G04 Created by KiCad (PCBNEW (6.0.1-0)) date 2022-01-24 00:31:25*
%MOMM*%
%LPD*%
G01*
G04 APERTURE LIST*
G04 Aperture macros list*
%AMRoundRect*
0 Rectangle with rounded corners*
0 $1 Rounding radius*
0 $2 $3 $4 $5 $6 $7 $8 $9 X,Y pos of 4 corners*
0 Add a 4 corners polygon primitive as box body*
4,1,4,$2,$3,$4,$5,$6,$7,$8,$9,$2,$3,0*
0 Add four circle primitives for the rounded corners*
1,1,$1+$1,$2,$3*
1,1,$1+$1,$4,$5*
1,1,$1+$1,$6,$7*
1,1,$1+$1,$8,$9*
0 Add four rect primitives between the rounded corners*
20,1,$1+$1,$2,$3,$4,$5,0*
20,1,$1+$1,$4,$5,$6,$7,0*
20,1,$1+$1,$6,$7,$8,$9,0*
20,1,$1+$1,$8,$9,$2,$3,0*%
%AMRotRect*
0 Rectangle, with rotation*
0 The origin of the aperture is its center*
0 $1 length*
0 $2 width*
0 $3 Rotation angle, in degrees counterclockwise*
0 Add horizontal line*
21,1,$1,$2,0,0,$3*%
%AMFreePoly0*
4,1,41,0.142350,0.531259,0.275000,0.476314,0.388909,0.388909,0.476314,0.275000,0.531259,0.142350,0.533280,0.127000,3.200000,0.127000,3.236070,0.121770,3.296138,0.082984,3.325733,0.017894,3.315473,-0.052868,3.268611,-0.106872,3.200000,-0.127000,0.533280,-0.127000,0.531259,-0.142350,0.476314,-0.275000,0.388909,-0.388909,0.275000,-0.476314,0.142350,-0.531259,0.000000,-0.550000,
-0.142350,-0.531259,-0.275000,-0.476314,-0.388909,-0.388909,-0.476314,-0.275000,-0.531259,-0.142350,-0.533280,-0.127000,-3.200000,-0.127000,-3.236070,-0.121770,-3.296138,-0.082984,-3.325733,-0.017894,-3.315473,0.052868,-3.268611,0.106872,-3.200000,0.127000,-0.533280,0.127000,-0.531259,0.142350,-0.476314,0.275000,-0.388909,0.388909,-0.275000,0.476314,-0.142350,0.531259,0.000000,0.550000,
0.142350,0.531259,0.142350,0.531259,$1*%
%AMFreePoly1*
4,1,37,0.042529,3.485692,0.118849,3.448880,0.171655,3.382612,0.190499,3.300000,0.190499,0.776079,0.350697,0.719035,0.501283,0.623470,0.626955,0.496918,0.721466,0.345669,0.780119,0.177240,0.800000,0.000000,0.799688,-0.022336,0.774867,-0.198952,0.711533,-0.365678,0.612836,-0.514230,0.483680,-0.637224,0.330484,-0.728547,0.160862,-0.783660,-0.016754,-0.799825,-0.193538,-0.776237,
-0.360702,-0.714070,-0.509939,-0.616411,-0.633832,-0.488116,-0.726222,-0.335562,-0.782518,-0.166330,-0.799922,0.011170,-0.777569,0.188114,-0.716569,0.355708,-0.619956,0.505623,-0.492529,0.630409,-0.340623,0.723862,-0.190500,0.774968,-0.190500,3.300332,-0.171511,3.382912,-0.118589,3.449087,-0.042205,3.485766,0.042529,3.485692,0.042529,3.485692,$1*%
G04 Aperture macros list end*
%ADD10RotRect,1.650000X0.820000X345.000000*%
%ADD11RoundRect,0.205000X-0.651932X-0.037547X0.545816X-0.358483X0.651932X0.037547X-0.545816X0.358483X0*%
%ADD12R,1.650000X0.820000*%
%ADD13RoundRect,0.205000X-0.620000X-0.205000X0.620000X-0.205000X0.620000X0.205000X-0.620000X0.205000X0*%
%ADD14RotRect,1.650000X0.820000X330.000000*%
%ADD15RoundRect,0.205000X-0.639436X0.132465X0.434436X-0.487535X0.639436X-0.132465X-0.434436X0.487535X0*%
%ADD16C,1.200000*%
%ADD17O,2.500000X1.700000*%
%ADD18C,1.524000*%
%ADD19C,4.400000*%
%ADD20C,3.400000*%
%ADD21R,3.200000X2.000000*%
%ADD22C,1.700000*%
%ADD23R,2.000000X2.000000*%
%ADD24C,2.000000*%
%ADD25R,0.800000X0.900000*%
%ADD26RotRect,0.900000X0.800000X75.000000*%
%ADD27RotRect,0.900000X0.800000X45.000000*%
%ADD28RotRect,3.200000X2.000000X150.000000*%
%ADD29RotRect,2.000000X2.000000X150.000000*%
%ADD30R,1.397000X1.397000*%
%ADD31RoundRect,0.250100X0.449900X-0.262400X0.449900X0.262400X-0.449900X0.262400X-0.449900X-0.262400X0*%
%ADD32C,5.000000*%
%ADD33R,1.700000X1.700000*%
%ADD34O,1.700000X1.700000*%
%ADD35RoundRect,0.250000X-0.250000X-0.475000X0.250000X-0.475000X0.250000X0.475000X-0.250000X0.475000X0*%
%ADD36FreePoly0,90.000000*%
%ADD37R,1.100000X1.800000*%
%ADD38FreePoly1,295.000000*%
%ADD39C,1.600000*%
%ADD40R,0.900000X0.800000*%
G04 APERTURE END LIST*
D10*
%TO.C,D3*%
X180634887Y-113747503D03*
X180246659Y-115196391D03*
D11*
X185221177Y-116529309D03*
D10*
X185609405Y-115080421D03*
%TD*%
D12*
%TO.C,D5*%
X125155000Y-111860000D03*
X125155000Y-113360000D03*
D13*
X130305000Y-113360000D03*
D12*
X130305000Y-111860000D03*
%TD*%
D14*
%TO.C,D2*%
X197812148Y-120941860D03*
X197062148Y-122240898D03*
D15*
X201522178Y-124815898D03*
D14*
X202272178Y-123516860D03*
%TD*%
D16*
%TO.C,J2*%
X213980000Y-125110000D03*
X220980000Y-125110000D03*
X220980000Y-126860000D03*
X213980000Y-126860000D03*
D17*
X216180000Y-128960000D03*
X219180000Y-128960000D03*
X210680000Y-124760000D03*
X212180000Y-128960000D03*
%TD*%
D18*
%TO.C,U1*%
X213656400Y-66842000D03*
X213656400Y-69382000D03*
X213656400Y-71922000D03*
X213656400Y-74462000D03*
X213656400Y-77002000D03*
X213656400Y-79542000D03*
X213656400Y-82082000D03*
X213656400Y-84622000D03*
X213656400Y-87162000D03*
X213656400Y-89702000D03*
X213656400Y-92242000D03*
X213656400Y-94782000D03*
X198436400Y-94782000D03*
X198436400Y-92242000D03*
X198436400Y-89702000D03*
X198436400Y-87162000D03*
X198436400Y-84622000D03*
X198436400Y-82082000D03*
X198436400Y-79542000D03*
X198436400Y-77002000D03*
X198436400Y-74462000D03*
X198436400Y-71922000D03*
X198436400Y-69382000D03*
X198436400Y-66842000D03*
%TD*%
D19*
%TO.C,H1*%
X159010000Y-60410000D03*
X159010000Y-98510000D03*
X139960000Y-79460000D03*
X178060000Y-79460000D03*
%TD*%
D20*
%TO.C,K22*%
X132000000Y-121000000D03*
D21*
X132000000Y-115400000D03*
D22*
X126500000Y-121000000D03*
D23*
X139500000Y-123500000D03*
D24*
X139500000Y-118500000D03*
D22*
X137500000Y-121000000D03*
D24*
X139500000Y-121000000D03*
X132000000Y-126900000D03*
X125000000Y-118500000D03*
X127000000Y-124800000D03*
X125000000Y-123500000D03*
%TD*%
D25*
%TO.C,D7*%
X113050000Y-78250000D03*
X114950000Y-78250000D03*
X114000000Y-76250000D03*
%TD*%
%TO.C,D13*%
X113050000Y-121750000D03*
X114950000Y-121750000D03*
X114000000Y-119750000D03*
%TD*%
D20*
%TO.C,K13*%
X96000000Y-116000000D03*
D22*
X90500000Y-116000000D03*
X101500000Y-116000000D03*
D24*
X96000000Y-110100000D03*
X101000000Y-112200000D03*
%TD*%
D20*
%TO.C,K14*%
X114000000Y-116000000D03*
D22*
X119500000Y-116000000D03*
X108500000Y-116000000D03*
D24*
X114000000Y-110100000D03*
X119000000Y-112200000D03*
%TD*%
D25*
%TO.C,D8*%
X131050000Y-66300000D03*
X132950000Y-66300000D03*
X132000000Y-64300000D03*
%TD*%
%TO.C,D10*%
X113050000Y-95300000D03*
X114950000Y-95300000D03*
X114000000Y-93300000D03*
%TD*%
D20*
%TO.C,K1*%
X96000000Y-82000000D03*
D22*
X90500000Y-82000000D03*
X101500000Y-82000000D03*
D24*
X96000000Y-87900000D03*
X91000000Y-85800000D03*
%TD*%
D22*
%TO.C,K3*%
X126500000Y-70000000D03*
X137500000Y-70000000D03*
D20*
X132000000Y-70000000D03*
D24*
X132000000Y-75900000D03*
X127000000Y-73800000D03*
%TD*%
D20*
%TO.C,K4*%
X150000000Y-63000000D03*
D22*
X144500000Y-63000000D03*
X155500000Y-63000000D03*
D24*
X150000000Y-68900000D03*
X145000000Y-66800000D03*
%TD*%
D22*
%TO.C,K8*%
X108500000Y-99000000D03*
X119500000Y-99000000D03*
D20*
X114000000Y-99000000D03*
D24*
X114000000Y-104900000D03*
X109000000Y-102800000D03*
%TD*%
D25*
%TO.C,D11*%
X131050000Y-83300000D03*
X132950000Y-83300000D03*
X132000000Y-81300000D03*
%TD*%
D20*
%TO.C,K9*%
X132000000Y-87000000D03*
D22*
X137500000Y-87000000D03*
X126500000Y-87000000D03*
D24*
X132000000Y-92900000D03*
X127000000Y-90800000D03*
%TD*%
D20*
%TO.C,K10*%
X150000000Y-80000000D03*
D22*
X144500000Y-80000000D03*
X155500000Y-80000000D03*
D24*
X150000000Y-85900000D03*
X145000000Y-83800000D03*
%TD*%
D20*
%TO.C,K15*%
X132000000Y-104000000D03*
D22*
X126500000Y-104000000D03*
X137500000Y-104000000D03*
D24*
X132000000Y-109900000D03*
X127000000Y-107800000D03*
%TD*%
D22*
%TO.C,K16*%
X144500000Y-97000000D03*
D20*
X150000000Y-97000000D03*
D22*
X155500000Y-97000000D03*
D24*
X150000000Y-102900000D03*
X145000000Y-100800000D03*
%TD*%
D25*
%TO.C,D14*%
X131050000Y-100300000D03*
X132950000Y-100300000D03*
X132000000Y-98300000D03*
%TD*%
%TO.C,D9*%
X167050000Y-64800000D03*
X168950000Y-64800000D03*
X168000000Y-62800000D03*
%TD*%
%TO.C,D12*%
X167050000Y-81800000D03*
X168950000Y-81800000D03*
X168000000Y-79800000D03*
%TD*%
%TO.C,D15*%
X167050000Y-98800000D03*
X168950000Y-98800000D03*
X168000000Y-96800000D03*
%TD*%
D22*
%TO.C,K5*%
X173500000Y-68500000D03*
X162500000Y-68500000D03*
D20*
X168000000Y-68500000D03*
D24*
X168000000Y-74400000D03*
X163000000Y-72300000D03*
%TD*%
D22*
%TO.C,K6*%
X180500000Y-71000000D03*
D20*
X186000000Y-71000000D03*
D22*
X191500000Y-71000000D03*
D24*
X186000000Y-76900000D03*
X181000000Y-74800000D03*
%TD*%
D20*
%TO.C,K11*%
X168000000Y-85500000D03*
D22*
X162500000Y-85500000D03*
X173500000Y-85500000D03*
D24*
X168000000Y-91400000D03*
X163000000Y-89300000D03*
%TD*%
D22*
%TO.C,K12*%
X191500000Y-88000000D03*
X180500000Y-88000000D03*
D20*
X186000000Y-88000000D03*
D24*
X186000000Y-93900000D03*
X181000000Y-91800000D03*
%TD*%
D22*
%TO.C,K17*%
X162500000Y-102500000D03*
X173500000Y-102500000D03*
D20*
X168000000Y-102500000D03*
D24*
X168000000Y-108400000D03*
X163000000Y-106300000D03*
%TD*%
D20*
%TO.C,K18*%
X186000000Y-105000000D03*
D22*
X180500000Y-105000000D03*
X191500000Y-105000000D03*
D24*
X186000000Y-110900000D03*
X181000000Y-108800000D03*
%TD*%
D21*
%TO.C,K25*%
X157500000Y-125100000D03*
D20*
X157500000Y-119500000D03*
D22*
X163000000Y-119500000D03*
D23*
X150000000Y-117000000D03*
D24*
X150000000Y-122000000D03*
X150000000Y-119500000D03*
D22*
X152000000Y-119500000D03*
D24*
X164500000Y-122000000D03*
X157500000Y-113600000D03*
X162500000Y-115700000D03*
X164500000Y-117000000D03*
%TD*%
D22*
%TO.C,K2*%
X119500000Y-82000000D03*
X108500000Y-82000000D03*
D20*
X114000000Y-82000000D03*
D24*
X114000000Y-87900000D03*
X109000000Y-85800000D03*
%TD*%
D26*
%TO.C,D20*%
X174717102Y-127646565D03*
X176552361Y-128138321D03*
X176152370Y-125960591D03*
%TD*%
D22*
%TO.C,K27*%
X190715137Y-127299920D03*
D20*
X195478277Y-130049920D03*
D22*
X200241417Y-132799920D03*
D24*
X192528277Y-135159470D03*
X189248150Y-130840817D03*
%TD*%
D27*
%TO.C,D21*%
X206438088Y-145550005D03*
X207781591Y-146893508D03*
X208524053Y-144807543D03*
%TD*%
D25*
%TO.C,D19*%
X171960000Y-112800000D03*
X173860000Y-112800000D03*
X172910000Y-110800000D03*
%TD*%
D28*
%TO.C,K19*%
X206778277Y-110477746D03*
D22*
X199215137Y-112577488D03*
D20*
X203978277Y-115327488D03*
D29*
X209223468Y-121242552D03*
D24*
X211723468Y-116912425D03*
X210473468Y-119077488D03*
D22*
X208741417Y-118077488D03*
D24*
X199166099Y-109662425D03*
X201028277Y-120437038D03*
X196666099Y-113992552D03*
X197748150Y-116118385D03*
%TD*%
D22*
%TO.C,K28*%
X207251261Y-138302161D03*
D20*
X211140348Y-142191248D03*
D22*
X215029435Y-146080335D03*
D24*
X215312278Y-138019318D03*
X217362888Y-143039776D03*
%TD*%
D12*
%TO.C,D4*%
X158893488Y-110265922D03*
X158893488Y-111765922D03*
D13*
X164043488Y-111765922D03*
D12*
X164043488Y-110265922D03*
%TD*%
D14*
%TO.C,D1*%
X203246441Y-104455379D03*
X202496441Y-105754417D03*
D15*
X206956471Y-108329417D03*
D14*
X207706471Y-107030379D03*
%TD*%
D30*
%TO.C,J4*%
X209800000Y-64790000D03*
%TD*%
D31*
%TO.C,R2*%
X216870000Y-88932500D03*
X216870000Y-87107500D03*
%TD*%
D32*
%TO.C,J1*%
X218220000Y-82877500D03*
D33*
X216550000Y-102227500D03*
D34*
X214010000Y-102227500D03*
X211470000Y-102227500D03*
X208930000Y-102227500D03*
X206390000Y-102227500D03*
%TD*%
D35*
%TO.C,C1*%
X204550000Y-64720000D03*
X206450000Y-64720000D03*
%TD*%
D36*
%TO.C,SW1*%
X218850000Y-134600000D03*
D37*
X218850000Y-131500000D03*
X218850000Y-137700000D03*
X222550000Y-131500000D03*
D36*
X222550000Y-134600000D03*
D37*
X222550000Y-137700000D03*
%TD*%
D22*
%TO.C,K7*%
X90500000Y-99000000D03*
X101500000Y-99000000D03*
D20*
X96000000Y-99000000D03*
D24*
X96000000Y-104900000D03*
X91000000Y-102800000D03*
%TD*%
D38*
%TO.C,SW2*%
X213198046Y-107681551D03*
D39*
X216188862Y-106286910D03*
X217245408Y-108552680D03*
D38*
X214254592Y-109947320D03*
D39*
X218301954Y-110818449D03*
D38*
X215311138Y-112213090D03*
%TD*%
D19*
%TO.C,H4*%
X123000000Y-78500000D03*
%TD*%
%TO.C,H5*%
X114000000Y-127000000D03*
%TD*%
%TO.C,H6*%
X206100000Y-132400000D03*
%TD*%
%TO.C,H7*%
X177000000Y-65500000D03*
%TD*%
D31*
%TO.C,R1*%
X216845000Y-95032500D03*
X216845000Y-93207500D03*
%TD*%
D30*
%TO.C,J3*%
X200900000Y-64790000D03*
%TD*%
%TO.C,J5*%
X199350000Y-98920000D03*
%TD*%
%TO.C,J6*%
X211760000Y-98920000D03*
%TD*%
D25*
%TO.C,D16*%
X113050000Y-143750000D03*
X114950000Y-143750000D03*
X114000000Y-141750000D03*
%TD*%
%TO.C,D18*%
X149050000Y-143750000D03*
X150950000Y-143750000D03*
X150000000Y-141750000D03*
%TD*%
D22*
%TO.C,K21*%
X108500000Y-138000000D03*
D20*
X114000000Y-138000000D03*
D22*
X119500000Y-138000000D03*
D24*
X114000000Y-132100000D03*
X119000000Y-134200000D03*
%TD*%
D22*
%TO.C,K24*%
X155500000Y-138000000D03*
D20*
X150000000Y-138000000D03*
D22*
X144500000Y-138000000D03*
D24*
X150000000Y-132100000D03*
X155000000Y-134200000D03*
%TD*%
D22*
%TO.C,K26*%
X182422593Y-123810171D03*
D20*
X177110001Y-122386666D03*
D22*
X171797409Y-120963161D03*
D24*
X178637033Y-116687704D03*
X182923143Y-120010243D03*
%TD*%
D20*
%TO.C,K20*%
X96000000Y-133000000D03*
D22*
X90500000Y-133000000D03*
X101500000Y-133000000D03*
D24*
X96000000Y-127100000D03*
X101000000Y-129200000D03*
%TD*%
D40*
%TO.C,D17*%
X124150000Y-101950000D03*
X124150000Y-100050000D03*
X122150000Y-101000000D03*
%TD*%
D22*
%TO.C,K23*%
X126500000Y-138000000D03*
D21*
X132000000Y-132400000D03*
D20*
X132000000Y-138000000D03*
D23*
X139500000Y-140500000D03*
D24*
X139500000Y-135500000D03*
X139500000Y-138000000D03*
D22*
X137500000Y-138000000D03*
D24*
X125000000Y-135500000D03*
X132000000Y-143900000D03*
X127000000Y-141800000D03*
X125000000Y-140500000D03*
%TD*%
M02*
