%TF.GenerationSoftware,KiCad,Pcbnew,(6.0.1-0)*%
%TF.CreationDate,2022-01-24T00:31:25-08:00*%
%TF.ProjectId,hillside56,68696c6c-7369-4646-9535-362e6b696361,0.1.0-alpha*%
%TF.SameCoordinates,Original*%
%TF.FileFunction,Soldermask,Top*%
%TF.FilePolarity,Negative*%
%FSLAX46Y46*%
G04 Gerber Fmt 4.6, Leading zero omitted, Abs format (unit mm)*
G04 Created by KiCad (PCBNEW (6.0.1-0)) date 2022-01-24 00:31:25*
%MOMM*%
%LPD*%
G01*
G04 APERTURE LIST*
G04 Aperture macros list*
%AMRoundRect*
0 Rectangle with rounded corners*
0 $1 Rounding radius*
0 $2 $3 $4 $5 $6 $7 $8 $9 X,Y pos of 4 corners*
0 Add a 4 corners polygon primitive as box body*
4,1,4,$2,$3,$4,$5,$6,$7,$8,$9,$2,$3,0*
0 Add four circle primitives for the rounded corners*
1,1,$1+$1,$2,$3*
1,1,$1+$1,$4,$5*
1,1,$1+$1,$6,$7*
1,1,$1+$1,$8,$9*
0 Add four rect primitives between the rounded corners*
20,1,$1+$1,$2,$3,$4,$5,0*
20,1,$1+$1,$4,$5,$6,$7,0*
20,1,$1+$1,$6,$7,$8,$9,0*
20,1,$1+$1,$8,$9,$2,$3,0*%
%AMRotRect*
0 Rectangle, with rotation*
0 The origin of the aperture is its center*
0 $1 length*
0 $2 width*
0 $3 Rotation angle, in degrees counterclockwise*
0 Add horizontal line*
21,1,$1,$2,0,0,$3*%
%AMFreePoly0*
4,1,22,0.500000,-0.750000,0.000000,-0.750000,0.000000,-0.745033,-0.079941,-0.743568,-0.215256,-0.701293,-0.333266,-0.622738,-0.424486,-0.514219,-0.481581,-0.384460,-0.499164,-0.250000,-0.500000,-0.250000,-0.500000,0.250000,-0.499164,0.250000,-0.499963,0.256109,-0.478152,0.396186,-0.417904,0.524511,-0.324060,0.630769,-0.204165,0.706417,-0.067858,0.745374,0.000000,0.744959,0.000000,0.750000,
0.500000,0.750000,0.500000,-0.750000,0.500000,-0.750000,$1*%
%AMFreePoly1*
4,1,20,0.000000,0.744959,0.073905,0.744508,0.209726,0.703889,0.328688,0.626782,0.421226,0.519385,0.479903,0.390333,0.500000,0.250000,0.500000,-0.250000,0.499851,-0.262216,0.476331,-0.402017,0.414519,-0.529596,0.319384,-0.634700,0.198574,-0.708877,0.061801,-0.746166,0.000000,-0.745033,0.000000,-0.750000,-0.500000,-0.750000,-0.500000,0.750000,0.000000,0.750000,0.000000,0.744959,
0.000000,0.744959,$1*%
%AMFreePoly2*
4,1,41,0.142350,0.531259,0.275000,0.476314,0.388909,0.388909,0.476314,0.275000,0.531259,0.142350,0.533280,0.127000,3.200000,0.127000,3.236070,0.121770,3.296138,0.082984,3.325733,0.017894,3.315473,-0.052868,3.268611,-0.106872,3.200000,-0.127000,0.533280,-0.127000,0.531259,-0.142350,0.476314,-0.275000,0.388909,-0.388909,0.275000,-0.476314,0.142350,-0.531259,0.000000,-0.550000,
-0.142350,-0.531259,-0.275000,-0.476314,-0.388909,-0.388909,-0.476314,-0.275000,-0.531259,-0.142350,-0.533280,-0.127000,-3.200000,-0.127000,-3.236070,-0.121770,-3.296138,-0.082984,-3.325733,-0.017894,-3.315473,0.052868,-3.268611,0.106872,-3.200000,0.127000,-0.533280,0.127000,-0.531259,0.142350,-0.476314,0.275000,-0.388909,0.388909,-0.275000,0.476314,-0.142350,0.531259,0.000000,0.550000,
0.142350,0.531259,0.142350,0.531259,$1*%
%AMFreePoly3*
4,1,37,0.042529,3.485692,0.118849,3.448880,0.171655,3.382612,0.190499,3.300000,0.190499,0.776079,0.350697,0.719035,0.501283,0.623470,0.626955,0.496918,0.721466,0.345669,0.780119,0.177240,0.800000,0.000000,0.799688,-0.022336,0.774867,-0.198952,0.711533,-0.365678,0.612836,-0.514230,0.483680,-0.637224,0.330484,-0.728547,0.160862,-0.783660,-0.016754,-0.799825,-0.193538,-0.776237,
-0.360702,-0.714070,-0.509939,-0.616411,-0.633832,-0.488116,-0.726222,-0.335562,-0.782518,-0.166330,-0.799922,0.011170,-0.777569,0.188114,-0.716569,0.355708,-0.619956,0.505623,-0.492529,0.630409,-0.340623,0.723862,-0.190500,0.774968,-0.190500,3.300332,-0.171511,3.382912,-0.118589,3.449087,-0.042205,3.485766,0.042529,3.485692,0.042529,3.485692,$1*%
%AMFreePoly4*
4,1,86,3.222527,0.333854,3.480719,0.297767,3.733862,0.235442,3.979294,0.147533,3.979296,0.147533,4.031350,0.107382,4.038665,0.089596,4.053340,0.095632,4.118496,0.086887,4.128232,0.079377,4.370538,-0.005415,4.632708,-0.063885,4.899917,-0.091302,5.168498,-0.087289,5.434769,-0.051902,5.695075,0.014375,5.934741,0.106368,5.944248,0.114165,6.009113,0.124852,6.070632,0.101675,
6.112320,0.050843,6.123007,-0.014022,6.099830,-0.075541,6.048998,-0.117229,6.048994,-0.117230,5.806301,-0.212431,5.555133,-0.282291,5.298134,-0.326075,5.038003,-0.343323,4.777473,-0.333854,4.519281,-0.297767,4.266138,-0.235442,4.020706,-0.147533,4.020704,-0.147533,3.968650,-0.107382,3.961335,-0.089596,3.946660,-0.095632,3.881504,-0.086887,3.871768,-0.079377,3.629462,0.005415,
3.367292,0.063885,3.100083,0.091302,2.831502,0.087289,2.565231,0.051902,2.304925,-0.014375,2.065259,-0.106368,2.055752,-0.114165,2.051975,-0.114787,2.048998,-0.117229,2.048994,-0.117230,1.806301,-0.212431,1.555133,-0.282291,1.298134,-0.326075,1.038003,-0.343323,0.777473,-0.333854,0.519281,-0.297767,0.266138,-0.235442,0.020706,-0.147533,0.020704,-0.147533,-0.009065,-0.124571,
-0.063500,-0.109985,-0.109985,-0.063500,-0.127000,0.000000,-0.109985,0.063500,-0.063500,0.109985,0.000000,0.127000,0.063500,0.109985,0.081653,0.091832,0.118496,0.086887,0.128232,0.079377,0.370538,-0.005415,0.632708,-0.063885,0.899917,-0.091302,1.168498,-0.087289,1.434769,-0.051902,1.695075,0.014375,1.934741,0.106368,1.944248,0.114165,1.948025,0.114787,1.951002,0.117229,
1.951006,0.117230,2.193699,0.212431,2.444867,0.282291,2.701866,0.326075,2.961997,0.343323,3.222527,0.333854,3.222527,0.333854,$1*%
%AMFreePoly5*
4,1,31,7.836070,3.521770,7.896138,3.482984,7.925733,3.417894,7.915473,3.347132,7.868611,3.293128,7.800000,3.273000,6.402605,3.273000,3.039803,-0.089803,3.021679,-0.103336,3.018611,-0.106872,3.015866,-0.107677,3.010599,-0.111610,2.980023,-0.118192,2.950000,-0.127000,-2.800000,-0.127000,-2.836070,-0.121770,-2.896138,-0.082984,-2.925733,-0.017894,-2.915473,0.052868,-2.868611,0.106872,
-2.800000,0.127000,2.897394,0.127000,6.260197,3.489802,6.278320,3.503335,6.281389,3.506872,6.284135,3.507678,6.289401,3.511610,6.319977,3.518192,6.350000,3.527000,7.800000,3.527000,7.836070,3.521770,7.836070,3.521770,$1*%
%AMFreePoly6*
4,1,36,-0.382313,0.442677,-0.365044,0.435750,-0.364806,0.435194,-0.364250,0.434956,-0.127000,0.192314,-0.127000,0.250000,0.127000,0.250000,0.127000,-0.067459,0.185750,-0.127544,0.192765,-0.145034,0.200000,-0.162500,0.200000,-0.750000,0.185355,-0.785355,0.150000,-0.800000,-0.300000,-0.800000,-0.335355,-0.785355,-0.350000,-0.750000,-0.350000,-0.400000,-0.650000,-0.400000,-0.650000,-0.750000,
-0.664645,-0.785355,-0.700000,-0.800000,-0.950000,-0.800000,-0.985355,-0.785355,-1.000000,-0.750000,-1.000000,-0.162500,-0.992765,-0.145034,-0.985750,-0.127544,-0.435750,0.434956,-0.435194,0.435194,-0.434956,0.435750,-0.417687,0.442677,-0.400562,0.449996,-0.400000,0.449771,-0.399438,0.449996,-0.382313,0.442677,-0.382313,0.442677,$1*%
%AMFreePoly7*
4,1,236,0.063500,0.109985,0.083516,0.089969,0.097778,0.081900,0.103819,0.071645,0.249281,-0.050521,0.421854,-0.154522,0.608506,-0.230409,0.804691,-0.276334,1.005632,-0.291179,1.206436,-0.274582,1.402213,-0.226948,1.588195,-0.149436,1.759855,-0.043934,1.904249,0.079499,1.910198,0.089803,1.967130,0.122673,2.032870,0.122672,2.089803,0.089802,2.092711,0.084766,2.097776,0.081900,
2.103817,0.071645,2.249279,-0.050521,2.421852,-0.154522,2.608504,-0.230409,2.804689,-0.276334,3.005630,-0.291179,3.206434,-0.274582,3.402211,-0.226948,3.588193,-0.149436,3.759853,-0.043934,3.904247,0.079499,3.910196,0.089803,3.967128,0.122673,4.032868,0.122672,4.089801,0.089802,4.092709,0.084766,4.097774,0.081900,4.103815,0.071645,4.249277,-0.050521,4.421850,-0.154522,
4.608502,-0.230409,4.804687,-0.276334,5.005628,-0.291179,5.206432,-0.274582,5.402209,-0.226948,5.588191,-0.149436,5.759851,-0.043934,5.904245,0.079499,5.910194,0.089803,5.967126,0.122673,6.032866,0.122672,6.089799,0.089802,6.092707,0.084766,6.097772,0.081900,6.103813,0.071645,6.249275,-0.050521,6.421848,-0.154522,6.608500,-0.230409,6.804685,-0.276334,7.005626,-0.291179,
7.206430,-0.274582,7.402207,-0.226948,7.588189,-0.149436,7.759849,-0.043934,7.904243,0.079499,7.910192,0.089803,7.967124,0.122673,8.032864,0.122672,8.089797,0.089802,8.092705,0.084766,8.097770,0.081900,8.103811,0.071645,8.249273,-0.050521,8.421846,-0.154522,8.608498,-0.230409,8.804683,-0.276334,9.005624,-0.291179,9.206428,-0.274582,9.402205,-0.226948,9.588187,-0.149436,
9.759847,-0.043934,9.904241,0.079499,9.910190,0.089803,9.967122,0.122673,10.032862,0.122672,10.089795,0.089802,10.092703,0.084766,10.097768,0.081900,10.103809,0.071645,10.249271,-0.050521,10.421844,-0.154522,10.608496,-0.230409,10.804681,-0.276334,11.005622,-0.291179,11.206426,-0.274582,11.402203,-0.226948,11.588185,-0.149436,11.759845,-0.043934,11.904239,0.079499,11.910188,0.089803,
11.967120,0.122673,12.032860,0.122672,12.089793,0.089802,12.092701,0.084766,12.097766,0.081900,12.103807,0.071645,12.249269,-0.050521,12.421842,-0.154522,12.608494,-0.230409,12.804679,-0.276334,13.005620,-0.291179,13.206424,-0.274582,13.402201,-0.226948,13.588183,-0.149436,13.759843,-0.043934,13.904237,0.079499,13.910186,0.089803,13.967118,0.122673,14.032858,0.122672,14.089791,0.089802,
14.092699,0.084766,14.097764,0.081900,14.103805,0.071645,14.249267,-0.050521,14.421840,-0.154522,14.608492,-0.230409,14.804677,-0.276334,15.005618,-0.291179,15.206422,-0.274582,15.402199,-0.226948,15.588181,-0.149436,15.759841,-0.043934,15.904235,0.079499,15.910184,0.089803,15.967116,0.122673,16.032856,0.122672,16.089789,0.089802,16.122659,0.032870,16.122658,-0.032870,16.089788,-0.089803,
16.089785,-0.089805,15.924578,-0.233071,15.740755,-0.351516,15.542018,-0.442752,15.332369,-0.504943,15.116029,-0.536836,14.897353,-0.537790,14.680743,-0.507785,14.470560,-0.447425,14.271035,-0.357925,14.086185,-0.241088,14.000007,-0.167662,13.924580,-0.233071,13.740757,-0.351516,13.542020,-0.442752,13.332371,-0.504943,13.116031,-0.536836,12.897355,-0.537790,12.680745,-0.507785,12.470562,-0.447425,
12.271037,-0.357925,12.086187,-0.241088,12.000009,-0.167662,11.924582,-0.233071,11.740759,-0.351516,11.542022,-0.442752,11.332373,-0.504943,11.116033,-0.536836,10.897357,-0.537790,10.680747,-0.507785,10.470564,-0.447425,10.271039,-0.357925,10.086189,-0.241088,10.000011,-0.167662,9.924584,-0.233071,9.740761,-0.351516,9.542024,-0.442752,9.332375,-0.504943,9.116035,-0.536836,8.897359,-0.537790,
8.680749,-0.507785,8.470566,-0.447425,8.271041,-0.357925,8.086191,-0.241088,8.000013,-0.167662,7.924586,-0.233071,7.740763,-0.351516,7.542026,-0.442752,7.332377,-0.504943,7.116037,-0.536836,6.897361,-0.537790,6.680751,-0.507785,6.470568,-0.447425,6.271043,-0.357925,6.086193,-0.241088,6.000015,-0.167662,5.924588,-0.233071,5.740765,-0.351516,5.542028,-0.442752,5.332379,-0.504943,
5.116039,-0.536836,4.897363,-0.537790,4.680753,-0.507785,4.470570,-0.447425,4.271045,-0.357925,4.086195,-0.241088,4.000017,-0.167662,3.924590,-0.233071,3.740767,-0.351516,3.542030,-0.442752,3.332381,-0.504943,3.116041,-0.536836,2.897365,-0.537790,2.680755,-0.507785,2.470572,-0.447425,2.271047,-0.357925,2.086197,-0.241088,2.000019,-0.167662,1.924592,-0.233071,1.740769,-0.351516,
1.542032,-0.442752,1.332383,-0.504943,1.116043,-0.536836,0.897367,-0.537790,0.680757,-0.507785,0.470574,-0.447425,0.271049,-0.357925,0.086199,-0.241088,-0.080254,-0.099266,-0.088904,-0.084581,-0.109985,-0.063500,-0.127000,0.000000,-0.109985,0.063500,-0.063500,0.109985,0.000000,0.127000,0.063500,0.109985,0.063500,0.109985,$1*%
%AMFreePoly8*
4,1,74,0.090320,1.758079,0.239662,1.720567,0.375744,1.648515,0.490712,1.546082,0.531399,1.486883,0.554756,1.483183,0.658279,1.430436,0.740436,1.348279,0.793183,1.244756,0.811359,1.130000,0.793183,1.015244,0.742519,0.915810,0.751359,0.860000,0.733183,0.745244,0.680436,0.641721,0.598279,0.559564,0.494756,0.506817,0.380000,0.488641,0.323760,0.497549,0.127000,0.283428,
0.127000,-0.587846,0.211346,-0.711884,0.214346,-0.726349,0.220000,-0.740000,0.218118,-0.744543,0.219116,-0.749355,0.211010,-0.761703,0.205355,-0.775355,0.200813,-0.777237,0.198115,-0.781346,0.183652,-0.784345,0.170000,-0.790000,-0.120000,-0.790000,-0.130398,-0.785693,-0.141637,-0.785076,-0.147391,-0.778654,-0.155355,-0.775355,-0.159662,-0.764957,-0.167173,-0.756574,-0.166701,-0.747965,
-0.170000,-0.740000,-0.165693,-0.729602,-0.165076,-0.718363,-0.127000,-0.639038,-0.127000,0.293608,-0.266054,0.429002,-0.320017,0.401507,-0.430000,0.384087,-0.539983,0.401507,-0.639200,0.452060,-0.717940,0.530800,-0.768493,0.630017,-0.780316,0.704660,-0.475881,0.704660,-0.472794,0.697206,-0.464310,0.693692,-0.475123,0.703531,-0.475881,0.704660,-0.780316,0.704660,-0.785913,0.740000,
-0.768493,0.849983,-0.723736,0.937824,-0.763183,1.015244,-0.781359,1.130000,-0.763183,1.244756,-0.710436,1.348279,-0.628279,1.430436,-0.524756,1.483183,-0.512625,1.485104,-0.466247,1.551093,-0.350213,1.652316,-0.213384,1.722939,-0.063658,1.758885,0.090320,1.758079,0.090320,1.758079,$1*%
%AMFreePoly9*
4,1,68,0.090320,1.758079,0.239662,1.720567,0.375744,1.648515,0.490712,1.546082,0.531399,1.486883,0.554756,1.483183,0.658279,1.430436,0.740436,1.348279,0.793183,1.244756,0.811359,1.130000,0.793183,1.015244,0.740436,0.911721,0.670111,0.841396,0.693183,0.796115,0.711359,0.681359,0.693183,0.566603,0.640436,0.463080,0.558279,0.380923,0.454756,0.328176,0.340000,0.310000,
0.294288,0.317240,0.127000,0.135192,0.127000,-0.587846,0.211346,-0.711884,0.214346,-0.726349,0.220000,-0.740000,0.218118,-0.744543,0.219116,-0.749355,0.211010,-0.761703,0.205355,-0.775355,0.200813,-0.777237,0.198115,-0.781346,0.183652,-0.784345,0.170000,-0.790000,-0.120000,-0.790000,-0.130398,-0.785693,-0.141637,-0.785076,-0.147391,-0.778654,-0.155355,-0.775355,-0.159662,-0.764957,
-0.167173,-0.756574,-0.166701,-0.747965,-0.170000,-0.740000,-0.165693,-0.729602,-0.165076,-0.718363,-0.127000,-0.639038,-0.127000,0.104135,-0.395567,0.365633,-0.469983,0.377420,-0.569200,0.427973,-0.647940,0.506713,-0.698493,0.605930,-0.715913,0.715913,-0.698493,0.825896,-0.673555,0.874840,-0.710436,0.911721,-0.763183,1.015244,-0.781359,1.130000,-0.763183,1.244756,-0.710436,1.348279,
-0.628279,1.430436,-0.524756,1.483183,-0.512625,1.485104,-0.466247,1.551093,-0.350213,1.652316,-0.213384,1.722939,-0.063658,1.758885,0.090320,1.758079,0.090320,1.758079,$1*%
%AMFreePoly10*
4,1,66,0.090320,1.758079,0.239662,1.720567,0.375744,1.648515,0.490712,1.546082,0.531399,1.486883,0.554756,1.483183,0.658279,1.430436,0.740436,1.348279,0.793183,1.244756,0.811359,1.130000,0.793183,1.015244,0.742519,0.915810,0.751359,0.860000,0.733183,0.745244,0.680436,0.641721,0.598279,0.559564,0.494756,0.506817,0.380000,0.488641,0.323760,0.497549,0.127000,0.283428,
0.127000,-0.587846,0.211346,-0.711884,0.214346,-0.726349,0.220000,-0.740000,0.218118,-0.744543,0.219116,-0.749355,0.211010,-0.761703,0.205355,-0.775355,0.200813,-0.777237,0.198115,-0.781346,0.183652,-0.784345,0.170000,-0.790000,-0.120000,-0.790000,-0.130398,-0.785693,-0.141637,-0.785076,-0.147391,-0.778654,-0.155355,-0.775355,-0.159662,-0.764957,-0.167173,-0.756574,-0.166701,-0.747965,
-0.170000,-0.740000,-0.165693,-0.729602,-0.165076,-0.718363,-0.127000,-0.639038,-0.127000,0.293608,-0.245184,0.408682,-0.300000,0.400000,-0.409983,0.417420,-0.509200,0.467973,-0.587940,0.546713,-0.638493,0.645930,-0.655913,0.755913,-0.642064,0.843349,-0.710436,0.911721,-0.763183,1.015244,-0.781359,1.130000,-0.763183,1.244756,-0.710436,1.348279,-0.628279,1.430436,-0.524756,1.483183,
-0.512625,1.485104,-0.466247,1.551093,-0.350213,1.652316,-0.213384,1.722939,-0.063658,1.758885,0.090320,1.758079,0.090320,1.758079,$1*%
%AMFreePoly11*
4,1,31,9.086070,4.561770,9.146138,4.522984,9.175733,4.457894,9.165473,4.387132,9.118611,4.333128,9.050000,4.313000,7.092605,4.313000,2.689803,-0.089803,2.671679,-0.103336,2.668611,-0.106872,2.665866,-0.107677,2.660599,-0.111610,2.630023,-0.118192,2.600000,-0.127000,-3.450000,-0.127000,-3.486070,-0.121770,-3.546138,-0.082984,-3.575733,-0.017894,-3.565473,0.052868,-3.518611,0.106872,
-3.450000,0.127000,2.547394,0.127000,6.950197,4.529802,6.968320,4.543335,6.971389,4.546872,6.974135,4.547678,6.979401,4.551610,7.009977,4.558192,7.040000,4.567000,9.050000,4.567000,9.086070,4.561770,9.086070,4.561770,$1*%
%AMFreePoly12*
4,1,74,0.090320,1.758079,0.239662,1.720567,0.375744,1.648515,0.490712,1.546082,0.531399,1.486883,0.554756,1.483183,0.658279,1.430436,0.740436,1.348279,0.793183,1.244756,0.811359,1.130000,0.793183,1.015244,0.742519,0.915810,0.751359,0.860000,0.733183,0.745244,0.680436,0.641721,0.598279,0.559564,0.494756,0.506817,0.380000,0.488641,0.376841,0.489141,0.127000,0.190090,
0.127000,-0.587846,0.211346,-0.711884,0.214346,-0.726349,0.220000,-0.740000,0.218118,-0.744543,0.219116,-0.749355,0.211010,-0.761703,0.205355,-0.775355,0.200813,-0.777237,0.198115,-0.781346,0.183652,-0.784345,0.170000,-0.790000,-0.120000,-0.790000,-0.130398,-0.785693,-0.141637,-0.785076,-0.147391,-0.778654,-0.155355,-0.775355,-0.159662,-0.764957,-0.167173,-0.756574,-0.166701,-0.747965,
-0.170000,-0.740000,-0.165693,-0.729602,-0.165076,-0.718363,-0.127000,-0.639038,-0.127000,0.213346,-0.320215,0.401476,-0.430000,0.384087,-0.539983,0.401507,-0.639200,0.452060,-0.717940,0.530800,-0.768493,0.630017,-0.780316,0.704660,-0.475881,0.704660,-0.472794,0.697206,-0.464310,0.693692,-0.475123,0.703531,-0.475881,0.704660,-0.780316,0.704660,-0.785913,0.740000,-0.768493,0.849983,
-0.737725,0.910369,-0.799077,0.971721,-0.851824,1.075244,-0.870000,1.190000,-0.851824,1.304756,-0.799077,1.408279,-0.716920,1.490436,-0.613397,1.543183,-0.498641,1.561359,-0.461265,1.555439,-0.350213,1.652316,-0.213384,1.722939,-0.063658,1.758885,0.090320,1.758079,0.090320,1.758079,$1*%
%AMFreePoly13*
4,1,208,0.063500,0.109985,0.083519,0.089966,0.097776,0.081900,0.103817,0.071645,0.249279,-0.050521,0.421852,-0.154522,0.608504,-0.230409,0.804689,-0.276334,1.005630,-0.291179,1.206434,-0.274582,1.402211,-0.226948,1.588193,-0.149436,1.759853,-0.043934,1.904247,0.079499,1.910196,0.089803,1.967128,0.122673,2.032868,0.122672,2.089801,0.089802,2.092709,0.084766,2.097774,0.081900,
2.103815,0.071645,2.249277,-0.050521,2.421850,-0.154522,2.608502,-0.230409,2.804687,-0.276334,3.005628,-0.291179,3.206432,-0.274582,3.402209,-0.226948,3.588191,-0.149436,3.759851,-0.043934,3.904245,0.079499,3.910194,0.089803,3.967126,0.122673,4.032866,0.122672,4.089799,0.089802,4.092707,0.084766,4.097772,0.081900,4.103813,0.071645,4.249275,-0.050521,4.421848,-0.154522,
4.608500,-0.230409,4.804685,-0.276334,5.005626,-0.291179,5.206430,-0.274582,5.402207,-0.226948,5.588189,-0.149436,5.759849,-0.043934,5.904243,0.079499,5.910192,0.089803,5.967124,0.122673,6.032864,0.122672,6.089797,0.089802,6.092705,0.084766,6.097770,0.081900,6.103811,0.071645,6.249273,-0.050521,6.421846,-0.154522,6.608498,-0.230409,6.804683,-0.276334,7.005624,-0.291179,
7.206428,-0.274582,7.402205,-0.226948,7.588187,-0.149436,7.759847,-0.043934,7.904241,0.079499,7.910190,0.089803,7.967122,0.122673,8.032862,0.122672,8.089795,0.089802,8.092703,0.084766,8.097768,0.081900,8.103809,0.071645,8.249271,-0.050521,8.421844,-0.154522,8.608496,-0.230409,8.804681,-0.276334,9.005622,-0.291179,9.206426,-0.274582,9.402203,-0.226948,9.588185,-0.149436,
9.759845,-0.043934,9.904239,0.079499,9.910188,0.089803,9.967120,0.122673,10.032860,0.122672,10.089793,0.089802,10.092701,0.084766,10.097766,0.081900,10.103807,0.071645,10.249269,-0.050521,10.421842,-0.154522,10.608494,-0.230409,10.804679,-0.276334,11.005620,-0.291179,11.206424,-0.274582,11.402201,-0.226948,11.588183,-0.149436,11.759843,-0.043934,11.904237,0.079499,11.910186,0.089803,
11.967118,0.122673,12.032858,0.122672,12.089791,0.089802,12.092699,0.084766,12.097764,0.081900,12.103805,0.071645,12.249267,-0.050521,12.421840,-0.154522,12.608492,-0.230409,12.804677,-0.276334,13.005618,-0.291179,13.206422,-0.274582,13.402199,-0.226948,13.588181,-0.149436,13.759841,-0.043934,13.904235,0.079499,13.910184,0.089803,13.967116,0.122673,14.032856,0.122672,14.089789,0.089802,
14.122659,0.032870,14.122658,-0.032870,14.089788,-0.089803,14.089785,-0.089805,13.924578,-0.233071,13.740755,-0.351516,13.542018,-0.442752,13.332369,-0.504943,13.116029,-0.536836,12.897353,-0.537790,12.680743,-0.507785,12.470560,-0.447425,12.271035,-0.357925,12.086185,-0.241088,12.000007,-0.167662,11.924580,-0.233071,11.740757,-0.351516,11.542020,-0.442752,11.332371,-0.504943,11.116031,-0.536836,
10.897355,-0.537790,10.680745,-0.507785,10.470562,-0.447425,10.271037,-0.357925,10.086187,-0.241088,10.000009,-0.167662,9.924582,-0.233071,9.740759,-0.351516,9.542022,-0.442752,9.332373,-0.504943,9.116033,-0.536836,8.897357,-0.537790,8.680747,-0.507785,8.470564,-0.447425,8.271039,-0.357925,8.086189,-0.241088,8.000011,-0.167662,7.924584,-0.233071,7.740761,-0.351516,7.542024,-0.442752,
7.332375,-0.504943,7.116035,-0.536836,6.897359,-0.537790,6.680749,-0.507785,6.470566,-0.447425,6.271041,-0.357925,6.086191,-0.241088,6.000013,-0.167662,5.924586,-0.233071,5.740763,-0.351516,5.542026,-0.442752,5.332377,-0.504943,5.116037,-0.536836,4.897361,-0.537790,4.680751,-0.507785,4.470568,-0.447425,4.271043,-0.357925,4.086193,-0.241088,4.000015,-0.167662,3.924588,-0.233071,
3.740765,-0.351516,3.542028,-0.442752,3.332379,-0.504943,3.116039,-0.536836,2.897363,-0.537790,2.680753,-0.507785,2.470570,-0.447425,2.271045,-0.357925,2.086195,-0.241088,2.000017,-0.167662,1.924590,-0.233071,1.740767,-0.351516,1.542030,-0.442752,1.332381,-0.504943,1.116041,-0.536836,0.897365,-0.537790,0.680755,-0.507785,0.470572,-0.447425,0.271047,-0.357925,0.086197,-0.241088,
-0.080256,-0.099266,-0.088909,-0.084576,-0.109985,-0.063500,-0.127000,0.000000,-0.109985,0.063500,-0.063500,0.109985,0.000000,0.127000,0.063500,0.109985,0.063500,0.109985,$1*%
%AMFreePoly14*
4,1,6,1.000000,0.000000,0.500000,-0.750000,-0.500000,-0.750000,-0.500000,0.750000,0.500000,0.750000,1.000000,0.000000,1.000000,0.000000,$1*%
%AMFreePoly15*
4,1,6,0.500000,-0.750000,-0.650000,-0.750000,-0.150000,0.000000,-0.650000,0.750000,0.500000,0.750000,0.500000,-0.750000,0.500000,-0.750000,$1*%
G04 Aperture macros list end*
%ADD10C,0.240000*%
%ADD11RotRect,1.650000X0.820000X345.000000*%
%ADD12RoundRect,0.205000X-0.651932X-0.037547X0.545816X-0.358483X0.651932X0.037547X-0.545816X0.358483X0*%
%ADD13R,1.650000X0.820000*%
%ADD14RoundRect,0.205000X-0.620000X-0.205000X0.620000X-0.205000X0.620000X0.205000X-0.620000X0.205000X0*%
%ADD15RotRect,1.650000X0.820000X330.000000*%
%ADD16RoundRect,0.205000X-0.639436X0.132465X0.434436X-0.487535X0.639436X-0.132465X-0.434436X0.487535X0*%
%ADD17C,1.200000*%
%ADD18O,2.500000X1.700000*%
%ADD19C,1.524000*%
%ADD20C,4.400000*%
%ADD21C,3.400000*%
%ADD22R,3.200000X2.000000*%
%ADD23C,1.700000*%
%ADD24R,2.000000X2.000000*%
%ADD25C,2.000000*%
%ADD26R,0.800000X0.900000*%
%ADD27RotRect,0.900000X0.800000X75.000000*%
%ADD28RotRect,0.900000X0.800000X45.000000*%
%ADD29RotRect,3.200000X2.000000X150.000000*%
%ADD30RotRect,2.000000X2.000000X150.000000*%
%ADD31R,1.397000X1.397000*%
%ADD32FreePoly0,270.000000*%
%ADD33FreePoly1,270.000000*%
%ADD34RoundRect,0.250100X0.449900X-0.262400X0.449900X0.262400X-0.449900X0.262400X-0.449900X-0.262400X0*%
%ADD35RoundRect,0.249998X0.450002X-0.262502X0.450002X0.262502X-0.450002X0.262502X-0.450002X-0.262502X0*%
%ADD36C,5.000000*%
%ADD37R,1.700000X1.700000*%
%ADD38O,1.700000X1.700000*%
%ADD39RoundRect,0.250000X-0.250000X-0.475000X0.250000X-0.475000X0.250000X0.475000X-0.250000X0.475000X0*%
%ADD40R,1.100000X1.800000*%
%ADD41FreePoly2,90.000000*%
%ADD42FreePoly3,295.000000*%
%ADD43C,1.600000*%
%ADD44FreePoly4,0.000000*%
%ADD45FreePoly5,0.000000*%
%ADD46FreePoly6,0.000000*%
%ADD47FreePoly7,0.000000*%
%ADD48FreePoly8,0.000000*%
%ADD49FreePoly9,0.000000*%
%ADD50FreePoly10,0.000000*%
%ADD51FreePoly11,0.000000*%
%ADD52FreePoly12,0.000000*%
%ADD53FreePoly13,0.000000*%
%ADD54FreePoly14,270.000000*%
%ADD55FreePoly15,270.000000*%
%ADD56R,0.900000X0.800000*%
G04 APERTURE END LIST*
D10*
X141847619Y-107714285D02*
X141847619Y-105914285D01*
X141847619Y-106771428D02*
X142761904Y-106771428D01*
X142761904Y-107714285D02*
X142761904Y-105914285D01*
X143523809Y-107714285D02*
X143523809Y-106514285D01*
X143523809Y-105914285D02*
X143447619Y-106000000D01*
X143523809Y-106085714D01*
X143600000Y-106000000D01*
X143523809Y-105914285D01*
X143523809Y-106085714D01*
X144514285Y-107714285D02*
X144361904Y-107628571D01*
X144285714Y-107457142D01*
X144285714Y-105914285D01*
X145352380Y-107714285D02*
X145200000Y-107628571D01*
X145123809Y-107457142D01*
X145123809Y-105914285D01*
X145885714Y-107628571D02*
X146038095Y-107714285D01*
X146342857Y-107714285D01*
X146495238Y-107628571D01*
X146571428Y-107457142D01*
X146571428Y-107371428D01*
X146495238Y-107200000D01*
X146342857Y-107114285D01*
X146114285Y-107114285D01*
X145961904Y-107028571D01*
X145885714Y-106857142D01*
X145885714Y-106771428D01*
X145961904Y-106600000D01*
X146114285Y-106514285D01*
X146342857Y-106514285D01*
X146495238Y-106600000D01*
X147257142Y-107714285D02*
X147257142Y-106514285D01*
X147257142Y-105914285D02*
X147180952Y-106000000D01*
X147257142Y-106085714D01*
X147333333Y-106000000D01*
X147257142Y-105914285D01*
X147257142Y-106085714D01*
X148704761Y-107714285D02*
X148704761Y-105914285D01*
X148704761Y-107628571D02*
X148552380Y-107714285D01*
X148247619Y-107714285D01*
X148095238Y-107628571D01*
X148019047Y-107542857D01*
X147942857Y-107371428D01*
X147942857Y-106857142D01*
X148019047Y-106685714D01*
X148095238Y-106600000D01*
X148247619Y-106514285D01*
X148552380Y-106514285D01*
X148704761Y-106600000D01*
X150076190Y-107628571D02*
X149923809Y-107714285D01*
X149619047Y-107714285D01*
X149466666Y-107628571D01*
X149390476Y-107457142D01*
X149390476Y-106771428D01*
X149466666Y-106600000D01*
X149619047Y-106514285D01*
X149923809Y-106514285D01*
X150076190Y-106600000D01*
X150152380Y-106771428D01*
X150152380Y-106942857D01*
X149390476Y-107114285D01*
X151600000Y-105914285D02*
X150838095Y-105914285D01*
X150761904Y-106771428D01*
X150838095Y-106685714D01*
X150990476Y-106600000D01*
X151371428Y-106600000D01*
X151523809Y-106685714D01*
X151600000Y-106771428D01*
X151676190Y-106942857D01*
X151676190Y-107371428D01*
X151600000Y-107542857D01*
X151523809Y-107628571D01*
X151371428Y-107714285D01*
X150990476Y-107714285D01*
X150838095Y-107628571D01*
X150761904Y-107542857D01*
X153047619Y-105914285D02*
X152742857Y-105914285D01*
X152590476Y-106000000D01*
X152514285Y-106085714D01*
X152361904Y-106342857D01*
X152285714Y-106685714D01*
X152285714Y-107371428D01*
X152361904Y-107542857D01*
X152438095Y-107628571D01*
X152590476Y-107714285D01*
X152895238Y-107714285D01*
X153047619Y-107628571D01*
X153123809Y-107542857D01*
X153200000Y-107371428D01*
X153200000Y-106942857D01*
X153123809Y-106771428D01*
X153047619Y-106685714D01*
X152895238Y-106600000D01*
X152590476Y-106600000D01*
X152438095Y-106685714D01*
X152361904Y-106771428D01*
X152285714Y-106942857D01*
X155409523Y-105914285D02*
X155561904Y-105914285D01*
X155714285Y-106000000D01*
X155790476Y-106085714D01*
X155866666Y-106257142D01*
X155942857Y-106600000D01*
X155942857Y-107028571D01*
X155866666Y-107371428D01*
X155790476Y-107542857D01*
X155714285Y-107628571D01*
X155561904Y-107714285D01*
X155409523Y-107714285D01*
X155257142Y-107628571D01*
X155180952Y-107542857D01*
X155104761Y-107371428D01*
X155028571Y-107028571D01*
X155028571Y-106600000D01*
X155104761Y-106257142D01*
X155180952Y-106085714D01*
X155257142Y-106000000D01*
X155409523Y-105914285D01*
X156628571Y-107542857D02*
X156704761Y-107628571D01*
X156628571Y-107714285D01*
X156552380Y-107628571D01*
X156628571Y-107542857D01*
X156628571Y-107714285D01*
X158228571Y-107714285D02*
X157314285Y-107714285D01*
X157771428Y-107714285D02*
X157771428Y-105914285D01*
X157619047Y-106171428D01*
X157466666Y-106342857D01*
X157314285Y-106428571D01*
D11*
%TO.C,D3*%
X180246659Y-115196391D03*
X180634887Y-113747503D03*
D12*
X185609405Y-115080421D03*
D11*
X185221177Y-116529309D03*
%TD*%
D13*
%TO.C,D5*%
X125155000Y-113360000D03*
X125155000Y-111860000D03*
D14*
X130305000Y-111860000D03*
D13*
X130305000Y-113360000D03*
%TD*%
D15*
%TO.C,D2*%
X197062148Y-122240898D03*
X197812148Y-120941860D03*
D16*
X202272178Y-123516860D03*
D15*
X201522178Y-124815898D03*
%TD*%
D17*
%TO.C,J2*%
X213980000Y-125110000D03*
X220980000Y-125110000D03*
X220980000Y-126860000D03*
X213980000Y-126860000D03*
D18*
X216180000Y-123010000D03*
X219180000Y-123010000D03*
X210680000Y-127210000D03*
X212180000Y-123010000D03*
%TD*%
D19*
%TO.C,U1*%
X197110000Y-68112000D03*
X197110000Y-70652000D03*
X197110000Y-73192000D03*
X197110000Y-75732000D03*
X197110000Y-78272000D03*
X197110000Y-80812000D03*
X197110000Y-83352000D03*
X197110000Y-85892000D03*
X197110000Y-88432000D03*
X197110000Y-90972000D03*
X197110000Y-93512000D03*
X197110000Y-96052000D03*
X212350000Y-96052000D03*
X212350000Y-93512000D03*
X212350000Y-90972000D03*
X212350000Y-88432000D03*
X212350000Y-85892000D03*
X212350000Y-83352000D03*
X212350000Y-80812000D03*
X212350000Y-78272000D03*
X212350000Y-75732000D03*
X212350000Y-73192000D03*
X212350000Y-70652000D03*
X212350000Y-68112000D03*
%TD*%
D20*
%TO.C,H1*%
X159010000Y-60410000D03*
X159010000Y-98510000D03*
X139960000Y-79460000D03*
X178060000Y-79460000D03*
%TD*%
D21*
%TO.C,K22*%
X132000000Y-121000000D03*
D22*
X132000000Y-115400000D03*
D23*
X126500000Y-121000000D03*
D24*
X139500000Y-123500000D03*
D25*
X139500000Y-118500000D03*
D23*
X137500000Y-121000000D03*
D25*
X139500000Y-121000000D03*
X132000000Y-126900000D03*
X125000000Y-118500000D03*
X125000000Y-123500000D03*
X137000000Y-124800000D03*
%TD*%
D26*
%TO.C,D7*%
X113050000Y-78250000D03*
X114950000Y-78250000D03*
X114000000Y-76250000D03*
%TD*%
%TO.C,D13*%
X113050000Y-121750000D03*
X114950000Y-121750000D03*
X114000000Y-119750000D03*
%TD*%
D21*
%TO.C,K13*%
X96000000Y-116000000D03*
D23*
X90500000Y-116000000D03*
X101500000Y-116000000D03*
D25*
X96000000Y-110100000D03*
X91000000Y-112200000D03*
%TD*%
D21*
%TO.C,K14*%
X114000000Y-116000000D03*
D23*
X119500000Y-116000000D03*
X108500000Y-116000000D03*
D25*
X114000000Y-110100000D03*
X109000000Y-112200000D03*
%TD*%
D26*
%TO.C,D8*%
X131050000Y-66300000D03*
X132950000Y-66300000D03*
X132000000Y-64300000D03*
%TD*%
%TO.C,D10*%
X113050000Y-95300000D03*
X114950000Y-95300000D03*
X114000000Y-93300000D03*
%TD*%
D21*
%TO.C,K1*%
X96000000Y-82000000D03*
D23*
X90500000Y-82000000D03*
X101500000Y-82000000D03*
D25*
X96000000Y-87900000D03*
X101000000Y-85800000D03*
%TD*%
D23*
%TO.C,K3*%
X126500000Y-70000000D03*
X137500000Y-70000000D03*
D21*
X132000000Y-70000000D03*
D25*
X132000000Y-75900000D03*
X137000000Y-73800000D03*
%TD*%
D21*
%TO.C,K4*%
X150000000Y-63000000D03*
D23*
X144500000Y-63000000D03*
X155500000Y-63000000D03*
D25*
X150000000Y-68900000D03*
X155000000Y-66800000D03*
%TD*%
D23*
%TO.C,K8*%
X108500000Y-99000000D03*
X119500000Y-99000000D03*
D21*
X114000000Y-99000000D03*
D25*
X114000000Y-104900000D03*
X119000000Y-102800000D03*
%TD*%
D26*
%TO.C,D11*%
X131050000Y-83300000D03*
X132950000Y-83300000D03*
X132000000Y-81300000D03*
%TD*%
D21*
%TO.C,K9*%
X132000000Y-87000000D03*
D23*
X137500000Y-87000000D03*
X126500000Y-87000000D03*
D25*
X132000000Y-92900000D03*
X137000000Y-90800000D03*
%TD*%
D21*
%TO.C,K10*%
X150000000Y-80000000D03*
D23*
X144500000Y-80000000D03*
X155500000Y-80000000D03*
D25*
X150000000Y-85900000D03*
X155000000Y-83800000D03*
%TD*%
D21*
%TO.C,K15*%
X132000000Y-104000000D03*
D23*
X126500000Y-104000000D03*
X137500000Y-104000000D03*
D25*
X132000000Y-109900000D03*
X137000000Y-107800000D03*
%TD*%
D23*
%TO.C,K16*%
X144500000Y-97000000D03*
D21*
X150000000Y-97000000D03*
D23*
X155500000Y-97000000D03*
D25*
X150000000Y-102900000D03*
X155000000Y-100800000D03*
%TD*%
D26*
%TO.C,D14*%
X131050000Y-100300000D03*
X132950000Y-100300000D03*
X132000000Y-98300000D03*
%TD*%
%TO.C,D9*%
X167050000Y-64800000D03*
X168950000Y-64800000D03*
X168000000Y-62800000D03*
%TD*%
%TO.C,D12*%
X167050000Y-81800000D03*
X168950000Y-81800000D03*
X168000000Y-79800000D03*
%TD*%
%TO.C,D15*%
X167050000Y-98800000D03*
X168950000Y-98800000D03*
X168000000Y-96800000D03*
%TD*%
D23*
%TO.C,K5*%
X173500000Y-68500000D03*
X162500000Y-68500000D03*
D21*
X168000000Y-68500000D03*
D25*
X168000000Y-74400000D03*
X173000000Y-72300000D03*
%TD*%
D23*
%TO.C,K6*%
X180500000Y-71000000D03*
D21*
X186000000Y-71000000D03*
D23*
X191500000Y-71000000D03*
D25*
X186000000Y-76900000D03*
X191000000Y-74800000D03*
%TD*%
D21*
%TO.C,K11*%
X168000000Y-85500000D03*
D23*
X162500000Y-85500000D03*
X173500000Y-85500000D03*
D25*
X168000000Y-91400000D03*
X173000000Y-89300000D03*
%TD*%
D23*
%TO.C,K12*%
X191500000Y-88000000D03*
X180500000Y-88000000D03*
D21*
X186000000Y-88000000D03*
D25*
X186000000Y-93900000D03*
X191000000Y-91800000D03*
%TD*%
D23*
%TO.C,K17*%
X162500000Y-102500000D03*
X173500000Y-102500000D03*
D21*
X168000000Y-102500000D03*
D25*
X168000000Y-108400000D03*
X173000000Y-106300000D03*
%TD*%
D21*
%TO.C,K18*%
X186000000Y-105000000D03*
D23*
X180500000Y-105000000D03*
X191500000Y-105000000D03*
D25*
X186000000Y-110900000D03*
X191000000Y-108800000D03*
%TD*%
D22*
%TO.C,K25*%
X157500000Y-125100000D03*
D21*
X157500000Y-119500000D03*
D23*
X163000000Y-119500000D03*
D24*
X150000000Y-117000000D03*
D25*
X150000000Y-122000000D03*
X150000000Y-119500000D03*
D23*
X152000000Y-119500000D03*
D25*
X164500000Y-122000000D03*
X157500000Y-113600000D03*
X152500000Y-115700000D03*
X164500000Y-117000000D03*
%TD*%
D23*
%TO.C,K2*%
X119500000Y-82000000D03*
X108500000Y-82000000D03*
D21*
X114000000Y-82000000D03*
D25*
X114000000Y-87900000D03*
X119000000Y-85800000D03*
%TD*%
D27*
%TO.C,D20*%
X174717102Y-127646565D03*
X176552361Y-128138321D03*
X176152370Y-125960591D03*
%TD*%
D23*
%TO.C,K27*%
X190715137Y-127299920D03*
D21*
X195478277Y-130049920D03*
D23*
X200241417Y-132799920D03*
D25*
X192528277Y-135159470D03*
X197908404Y-135840817D03*
%TD*%
D28*
%TO.C,D21*%
X206438088Y-145550005D03*
X207781591Y-146893508D03*
X208524053Y-144807543D03*
%TD*%
D26*
%TO.C,D19*%
X171960000Y-112800000D03*
X173860000Y-112800000D03*
X172910000Y-110800000D03*
%TD*%
D29*
%TO.C,K19*%
X206778277Y-110477746D03*
D23*
X199215137Y-112577488D03*
D21*
X203978277Y-115327488D03*
D30*
X209223468Y-121242552D03*
D25*
X211723468Y-116912425D03*
X210473468Y-119077488D03*
D23*
X208741417Y-118077488D03*
D25*
X199166099Y-109662425D03*
X201028277Y-120437038D03*
X196666099Y-113992552D03*
X206408404Y-121118385D03*
%TD*%
D23*
%TO.C,K28*%
X207251261Y-138302161D03*
D21*
X211140348Y-142191248D03*
D23*
X215029435Y-146080335D03*
D25*
X215312278Y-138019318D03*
X210291820Y-135968708D03*
%TD*%
D13*
%TO.C,D4*%
X158893488Y-111765922D03*
X158893488Y-110265922D03*
D14*
X164043488Y-110265922D03*
D13*
X164043488Y-111765922D03*
%TD*%
D15*
%TO.C,D1*%
X202496441Y-105754417D03*
X203246441Y-104455379D03*
D16*
X207706471Y-107030379D03*
D15*
X206956471Y-108329417D03*
%TD*%
D31*
%TO.C,J4*%
X209800000Y-64790000D03*
%TD*%
D32*
%TO.C,JP1*%
X218230000Y-77130000D03*
D33*
X218230000Y-78430000D03*
%TD*%
D34*
%TO.C,R2*%
X216870000Y-88932500D03*
D35*
X216870000Y-87107500D03*
%TD*%
D36*
%TO.C,J1*%
X218220000Y-82877500D03*
D37*
X216550000Y-102227500D03*
D38*
X214010000Y-102227500D03*
X211470000Y-102227500D03*
X208930000Y-102227500D03*
X206390000Y-102227500D03*
%TD*%
D39*
%TO.C,C1*%
X204550000Y-64720000D03*
X206450000Y-64720000D03*
%TD*%
D40*
%TO.C,SW1*%
X218850000Y-137700000D03*
D41*
X218850000Y-134600000D03*
D40*
X218850000Y-131500000D03*
X222550000Y-137700000D03*
D41*
X222550000Y-134600000D03*
D40*
X222550000Y-131500000D03*
%TD*%
D23*
%TO.C,K7*%
X90500000Y-99000000D03*
X101500000Y-99000000D03*
D21*
X96000000Y-99000000D03*
D25*
X96000000Y-104900000D03*
X101000000Y-102800000D03*
%TD*%
D42*
%TO.C,SW2*%
X213198046Y-107681551D03*
D43*
X216188862Y-106286910D03*
X217245408Y-108552680D03*
D42*
X214254592Y-109947320D03*
D43*
X218301954Y-110818449D03*
D42*
X215311138Y-112213090D03*
%TD*%
D44*
%TO.C,H3*%
X141610000Y-124620000D03*
D45*
X142910000Y-117270000D03*
D46*
X143660000Y-122570000D03*
X146010000Y-120820000D03*
D47*
X137110000Y-126970000D03*
D48*
X147590000Y-110870000D03*
D44*
X141610000Y-125130000D03*
D49*
X141810000Y-122770000D03*
D50*
X147310000Y-120870000D03*
D51*
X142360000Y-115620000D03*
D46*
X143310000Y-119270000D03*
X146860000Y-117820000D03*
D52*
X145730000Y-112210000D03*
D53*
X138510000Y-126120000D03*
%TD*%
D20*
%TO.C,H4*%
X123000000Y-78500000D03*
%TD*%
%TO.C,H5*%
X114000000Y-127000000D03*
%TD*%
%TO.C,H6*%
X206100000Y-132400000D03*
%TD*%
%TO.C,H7*%
X177000000Y-65500000D03*
%TD*%
D34*
%TO.C,R1*%
X216845000Y-95032500D03*
D35*
X216845000Y-93207500D03*
%TD*%
D31*
%TO.C,J3*%
X200900000Y-64790000D03*
%TD*%
%TO.C,J5*%
X199350000Y-98920000D03*
%TD*%
D54*
%TO.C,JP2*%
X177000000Y-86250000D03*
D55*
X177000000Y-87700000D03*
%TD*%
D31*
%TO.C,J6*%
X211760000Y-98920000D03*
%TD*%
D26*
%TO.C,D16*%
X113050000Y-143750000D03*
X114950000Y-143750000D03*
X114000000Y-141750000D03*
%TD*%
%TO.C,D18*%
X149050000Y-143750000D03*
X150950000Y-143750000D03*
X150000000Y-141750000D03*
%TD*%
D23*
%TO.C,K21*%
X108500000Y-138000000D03*
D21*
X114000000Y-138000000D03*
D23*
X119500000Y-138000000D03*
D25*
X114000000Y-132100000D03*
X109000000Y-134200000D03*
%TD*%
D23*
%TO.C,K24*%
X155500000Y-138000000D03*
D21*
X150000000Y-138000000D03*
D23*
X144500000Y-138000000D03*
D25*
X150000000Y-132100000D03*
X145000000Y-134200000D03*
%TD*%
D23*
%TO.C,K26*%
X182422593Y-123810171D03*
D21*
X177110001Y-122386666D03*
D23*
X171797409Y-120963161D03*
D25*
X178637033Y-116687704D03*
X173263884Y-117422053D03*
%TD*%
D21*
%TO.C,K20*%
X96000000Y-133000000D03*
D23*
X90500000Y-133000000D03*
X101500000Y-133000000D03*
D25*
X96000000Y-127100000D03*
X91000000Y-129200000D03*
%TD*%
D56*
%TO.C,D17*%
X124150000Y-101950000D03*
X124150000Y-100050000D03*
X122150000Y-101000000D03*
%TD*%
D23*
%TO.C,K23*%
X126500000Y-138000000D03*
D22*
X132000000Y-132400000D03*
D21*
X132000000Y-138000000D03*
D24*
X139500000Y-140500000D03*
D25*
X139500000Y-135500000D03*
X139500000Y-138000000D03*
D23*
X137500000Y-138000000D03*
D25*
X125000000Y-135500000D03*
X132000000Y-143900000D03*
X137000000Y-141800000D03*
X125000000Y-140500000D03*
%TD*%
M02*
