%TF.GenerationSoftware,KiCad,Pcbnew,(6.0.1-0)*%
%TF.CreationDate,2022-01-24T00:31:25-08:00*%
%TF.ProjectId,hillside56,68696c6c-7369-4646-9535-362e6b696361,0.1.0-alpha*%
%TF.SameCoordinates,Original*%
%TF.FileFunction,AssemblyDrawing,Top*%
%FSLAX46Y46*%
G04 Gerber Fmt 4.6, Leading zero omitted, Abs format (unit mm)*
G04 Created by KiCad (PCBNEW (6.0.1-0)) date 2022-01-24 00:31:25*
%MOMM*%
%LPD*%
G01*
G04 APERTURE LIST*
%ADD10C,0.200000*%
%ADD11C,0.150000*%
%ADD12C,0.100000*%
%ADD13C,0.075000*%
%ADD14C,0.153000*%
%ADD15C,0.080000*%
%ADD16C,0.060000*%
%ADD17C,0.120000*%
G04 APERTURE END LIST*
D10*
X122404761Y-129072142D02*
X122357142Y-129119761D01*
X122214285Y-129167380D01*
X122119047Y-129167380D01*
X121976190Y-129119761D01*
X121880952Y-129024523D01*
X121833333Y-128929285D01*
X121785714Y-128738809D01*
X121785714Y-128595952D01*
X121833333Y-128405476D01*
X121880952Y-128310238D01*
X121976190Y-128215000D01*
X122119047Y-128167380D01*
X122214285Y-128167380D01*
X122357142Y-128215000D01*
X122404761Y-128262619D01*
X122833333Y-128167380D02*
X122833333Y-128976904D01*
X122880952Y-129072142D01*
X122928571Y-129119761D01*
X123023809Y-129167380D01*
X123214285Y-129167380D01*
X123309523Y-129119761D01*
X123357142Y-129072142D01*
X123404761Y-128976904D01*
X123404761Y-128167380D01*
X123738095Y-128167380D02*
X124309523Y-128167380D01*
X124023809Y-129167380D02*
X124023809Y-128167380D01*
X122000000Y-129777380D02*
X122190476Y-129777380D01*
X122285714Y-129825000D01*
X122380952Y-129920238D01*
X122428571Y-130110714D01*
X122428571Y-130444047D01*
X122380952Y-130634523D01*
X122285714Y-130729761D01*
X122190476Y-130777380D01*
X122000000Y-130777380D01*
X121904761Y-130729761D01*
X121809523Y-130634523D01*
X121761904Y-130444047D01*
X121761904Y-130110714D01*
X121809523Y-129920238D01*
X121904761Y-129825000D01*
X122000000Y-129777380D01*
X122857142Y-129777380D02*
X122857142Y-130586904D01*
X122904761Y-130682142D01*
X122952380Y-130729761D01*
X123047619Y-130777380D01*
X123238095Y-130777380D01*
X123333333Y-130729761D01*
X123380952Y-130682142D01*
X123428571Y-130586904D01*
X123428571Y-129777380D01*
X123761904Y-129777380D02*
X124333333Y-129777380D01*
X124047619Y-130777380D02*
X124047619Y-129777380D01*
X105457142Y-92904761D02*
X105504761Y-92952380D01*
X105552380Y-93095238D01*
X105552380Y-93190476D01*
X105504761Y-93333333D01*
X105409523Y-93428571D01*
X105314285Y-93476190D01*
X105123809Y-93523809D01*
X104980952Y-93523809D01*
X104790476Y-93476190D01*
X104695238Y-93428571D01*
X104600000Y-93333333D01*
X104552380Y-93190476D01*
X104552380Y-93095238D01*
X104600000Y-92952380D01*
X104647619Y-92904761D01*
X104552380Y-92476190D02*
X105361904Y-92476190D01*
X105457142Y-92428571D01*
X105504761Y-92380952D01*
X105552380Y-92285714D01*
X105552380Y-92095238D01*
X105504761Y-92000000D01*
X105457142Y-91952380D01*
X105361904Y-91904761D01*
X104552380Y-91904761D01*
X104552380Y-91571428D02*
X104552380Y-91000000D01*
X105552380Y-91285714D02*
X104552380Y-91285714D01*
X104552380Y-89714285D02*
X104552380Y-89523809D01*
X104600000Y-89428571D01*
X104695238Y-89333333D01*
X104885714Y-89285714D01*
X105219047Y-89285714D01*
X105409523Y-89333333D01*
X105504761Y-89428571D01*
X105552380Y-89523809D01*
X105552380Y-89714285D01*
X105504761Y-89809523D01*
X105409523Y-89904761D01*
X105219047Y-89952380D01*
X104885714Y-89952380D01*
X104695238Y-89904761D01*
X104600000Y-89809523D01*
X104552380Y-89714285D01*
X104552380Y-88857142D02*
X105361904Y-88857142D01*
X105457142Y-88809523D01*
X105504761Y-88761904D01*
X105552380Y-88666666D01*
X105552380Y-88476190D01*
X105504761Y-88380952D01*
X105457142Y-88333333D01*
X105361904Y-88285714D01*
X104552380Y-88285714D01*
X104552380Y-87952380D02*
X104552380Y-87380952D01*
X105552380Y-87666666D02*
X104552380Y-87666666D01*
X105457142Y-109904761D02*
X105504761Y-109952380D01*
X105552380Y-110095238D01*
X105552380Y-110190476D01*
X105504761Y-110333333D01*
X105409523Y-110428571D01*
X105314285Y-110476190D01*
X105123809Y-110523809D01*
X104980952Y-110523809D01*
X104790476Y-110476190D01*
X104695238Y-110428571D01*
X104600000Y-110333333D01*
X104552380Y-110190476D01*
X104552380Y-110095238D01*
X104600000Y-109952380D01*
X104647619Y-109904761D01*
X104552380Y-109476190D02*
X105361904Y-109476190D01*
X105457142Y-109428571D01*
X105504761Y-109380952D01*
X105552380Y-109285714D01*
X105552380Y-109095238D01*
X105504761Y-109000000D01*
X105457142Y-108952380D01*
X105361904Y-108904761D01*
X104552380Y-108904761D01*
X104552380Y-108571428D02*
X104552380Y-108000000D01*
X105552380Y-108285714D02*
X104552380Y-108285714D01*
X104552380Y-106714285D02*
X104552380Y-106523809D01*
X104600000Y-106428571D01*
X104695238Y-106333333D01*
X104885714Y-106285714D01*
X105219047Y-106285714D01*
X105409523Y-106333333D01*
X105504761Y-106428571D01*
X105552380Y-106523809D01*
X105552380Y-106714285D01*
X105504761Y-106809523D01*
X105409523Y-106904761D01*
X105219047Y-106952380D01*
X104885714Y-106952380D01*
X104695238Y-106904761D01*
X104600000Y-106809523D01*
X104552380Y-106714285D01*
X104552380Y-105857142D02*
X105361904Y-105857142D01*
X105457142Y-105809523D01*
X105504761Y-105761904D01*
X105552380Y-105666666D01*
X105552380Y-105476190D01*
X105504761Y-105380952D01*
X105457142Y-105333333D01*
X105361904Y-105285714D01*
X104552380Y-105285714D01*
X104552380Y-104952380D02*
X104552380Y-104380952D01*
X105552380Y-104666666D02*
X104552380Y-104666666D01*
X105457142Y-130904761D02*
X105504761Y-130952380D01*
X105552380Y-131095238D01*
X105552380Y-131190476D01*
X105504761Y-131333333D01*
X105409523Y-131428571D01*
X105314285Y-131476190D01*
X105123809Y-131523809D01*
X104980952Y-131523809D01*
X104790476Y-131476190D01*
X104695238Y-131428571D01*
X104600000Y-131333333D01*
X104552380Y-131190476D01*
X104552380Y-131095238D01*
X104600000Y-130952380D01*
X104647619Y-130904761D01*
X104552380Y-130476190D02*
X105361904Y-130476190D01*
X105457142Y-130428571D01*
X105504761Y-130380952D01*
X105552380Y-130285714D01*
X105552380Y-130095238D01*
X105504761Y-130000000D01*
X105457142Y-129952380D01*
X105361904Y-129904761D01*
X104552380Y-129904761D01*
X104552380Y-129571428D02*
X104552380Y-129000000D01*
X105552380Y-129285714D02*
X104552380Y-129285714D01*
X104552380Y-127714285D02*
X104552380Y-127523809D01*
X104600000Y-127428571D01*
X104695238Y-127333333D01*
X104885714Y-127285714D01*
X105219047Y-127285714D01*
X105409523Y-127333333D01*
X105504761Y-127428571D01*
X105552380Y-127523809D01*
X105552380Y-127714285D01*
X105504761Y-127809523D01*
X105409523Y-127904761D01*
X105219047Y-127952380D01*
X104885714Y-127952380D01*
X104695238Y-127904761D01*
X104600000Y-127809523D01*
X104552380Y-127714285D01*
X104552380Y-126857142D02*
X105361904Y-126857142D01*
X105457142Y-126809523D01*
X105504761Y-126761904D01*
X105552380Y-126666666D01*
X105552380Y-126476190D01*
X105504761Y-126380952D01*
X105457142Y-126333333D01*
X105361904Y-126285714D01*
X104552380Y-126285714D01*
X104552380Y-125952380D02*
X104552380Y-125380952D01*
X105552380Y-125666666D02*
X104552380Y-125666666D01*
D11*
%TO.C,D3*%
X182658422Y-114534722D02*
X182839596Y-113858574D01*
X183000583Y-113901710D01*
X183088549Y-113959790D01*
X183135689Y-114041439D01*
X183150632Y-114114462D01*
X183148320Y-114251879D01*
X183122439Y-114348472D01*
X183055732Y-114468635D01*
X183006280Y-114524402D01*
X182924630Y-114571543D01*
X182819410Y-114577858D01*
X182658422Y-114534722D01*
X183451349Y-114022492D02*
X183869917Y-114134647D01*
X183575516Y-114331837D01*
X183672108Y-114357718D01*
X183727876Y-114407171D01*
X183751446Y-114447995D01*
X183766389Y-114521018D01*
X183723253Y-114682005D01*
X183673800Y-114737773D01*
X183632976Y-114761343D01*
X183559953Y-114776286D01*
X183366768Y-114724522D01*
X183311000Y-114675070D01*
X183287430Y-114634246D01*
D12*
X183343322Y-115067769D02*
X183381814Y-115045546D01*
X183481021Y-115039591D01*
X183541736Y-115055859D01*
X183624675Y-115110620D01*
X183669122Y-115187604D01*
X183683211Y-115256454D01*
X183681031Y-115386019D01*
X183656628Y-115477092D01*
X183593733Y-115590388D01*
X183547107Y-115642969D01*
X183470123Y-115687416D01*
X183370916Y-115693370D01*
X183310200Y-115677102D01*
X183227262Y-115622341D01*
X183205038Y-115583849D01*
X182915551Y-115571356D02*
X183053834Y-115055275D01*
X183039745Y-114986426D01*
X183017522Y-114947934D01*
X182964941Y-114901307D01*
X182843510Y-114868770D01*
X182774660Y-114882859D01*
X182736168Y-114905083D01*
X182689542Y-114957664D01*
X182551259Y-115473744D01*
X182338755Y-115416804D02*
X181974463Y-115319192D01*
X182327430Y-114730487D02*
X182156609Y-115367998D01*
X183231296Y-116556650D02*
X183109865Y-116524113D01*
X183057284Y-116477487D01*
X183012838Y-116400503D01*
X183015017Y-116270938D01*
X183071957Y-116058434D01*
X183134852Y-115945138D01*
X183211836Y-115900691D01*
X183280686Y-115886602D01*
X183402117Y-115919139D01*
X183454698Y-115965766D01*
X183499144Y-116042749D01*
X183496965Y-116172314D01*
X183440024Y-116384818D01*
X183377130Y-116498115D01*
X183300146Y-116542561D01*
X183231296Y-116556650D01*
X182684858Y-116410233D02*
X182823141Y-115894152D01*
X182809052Y-115825303D01*
X182786829Y-115786811D01*
X182734248Y-115740184D01*
X182612817Y-115707647D01*
X182543967Y-115721736D01*
X182505475Y-115743959D01*
X182458849Y-115796541D01*
X182320566Y-116312621D01*
X182108062Y-116255681D02*
X181743770Y-116158069D01*
X182096737Y-115569364D02*
X181925916Y-116206875D01*
D11*
%TO.C,D5*%
X127313333Y-112096666D02*
X127313333Y-111396666D01*
X127480000Y-111396666D01*
X127580000Y-111430000D01*
X127646666Y-111496666D01*
X127680000Y-111563333D01*
X127713333Y-111696666D01*
X127713333Y-111796666D01*
X127680000Y-111930000D01*
X127646666Y-111996666D01*
X127580000Y-112063333D01*
X127480000Y-112096666D01*
X127313333Y-112096666D01*
X128346666Y-111396666D02*
X128013333Y-111396666D01*
X127980000Y-111730000D01*
X128013333Y-111696666D01*
X128080000Y-111663333D01*
X128246666Y-111663333D01*
X128313333Y-111696666D01*
X128346666Y-111730000D01*
X128380000Y-111796666D01*
X128380000Y-111963333D01*
X128346666Y-112030000D01*
X128313333Y-112063333D01*
X128246666Y-112096666D01*
X128080000Y-112096666D01*
X128013333Y-112063333D01*
X127980000Y-112030000D01*
D12*
X127327142Y-112905714D02*
X127295714Y-112937142D01*
X127201428Y-112968571D01*
X127138571Y-112968571D01*
X127044285Y-112937142D01*
X126981428Y-112874285D01*
X126950000Y-112811428D01*
X126918571Y-112685714D01*
X126918571Y-112591428D01*
X126950000Y-112465714D01*
X126981428Y-112402857D01*
X127044285Y-112340000D01*
X127138571Y-112308571D01*
X127201428Y-112308571D01*
X127295714Y-112340000D01*
X127327142Y-112371428D01*
X127610000Y-112308571D02*
X127610000Y-112842857D01*
X127641428Y-112905714D01*
X127672857Y-112937142D01*
X127735714Y-112968571D01*
X127861428Y-112968571D01*
X127924285Y-112937142D01*
X127955714Y-112905714D01*
X127987142Y-112842857D01*
X127987142Y-112308571D01*
X128207142Y-112308571D02*
X128584285Y-112308571D01*
X128395714Y-112968571D02*
X128395714Y-112308571D01*
X127070000Y-113178571D02*
X127195714Y-113178571D01*
X127258571Y-113210000D01*
X127321428Y-113272857D01*
X127352857Y-113398571D01*
X127352857Y-113618571D01*
X127321428Y-113744285D01*
X127258571Y-113807142D01*
X127195714Y-113838571D01*
X127070000Y-113838571D01*
X127007142Y-113807142D01*
X126944285Y-113744285D01*
X126912857Y-113618571D01*
X126912857Y-113398571D01*
X126944285Y-113272857D01*
X127007142Y-113210000D01*
X127070000Y-113178571D01*
X127635714Y-113178571D02*
X127635714Y-113712857D01*
X127667142Y-113775714D01*
X127698571Y-113807142D01*
X127761428Y-113838571D01*
X127887142Y-113838571D01*
X127950000Y-113807142D01*
X127981428Y-113775714D01*
X128012857Y-113712857D01*
X128012857Y-113178571D01*
X128232857Y-113178571D02*
X128610000Y-113178571D01*
X128421428Y-113838571D02*
X128421428Y-113178571D01*
D11*
%TO.C,D2*%
X199562986Y-122225986D02*
X199912986Y-121619768D01*
X200057323Y-121703101D01*
X200127259Y-121781969D01*
X200151661Y-121873037D01*
X200147195Y-121947439D01*
X200109396Y-122079575D01*
X200059396Y-122166178D01*
X199963862Y-122264981D01*
X199901661Y-122306050D01*
X199810592Y-122330451D01*
X199707323Y-122309319D01*
X199562986Y-122225986D01*
X200457003Y-122010836D02*
X200502537Y-121998635D01*
X200576939Y-122003101D01*
X200721276Y-122086434D01*
X200762344Y-122148635D01*
X200774545Y-122194169D01*
X200770079Y-122268571D01*
X200736746Y-122326306D01*
X200657879Y-122396242D01*
X200111468Y-122542652D01*
X200486746Y-122759319D01*
D12*
X200086584Y-122918135D02*
X200129516Y-122906631D01*
X200226884Y-122926556D01*
X200281320Y-122957984D01*
X200347260Y-123032345D01*
X200370267Y-123118210D01*
X200366056Y-123188360D01*
X200330417Y-123312946D01*
X200283274Y-123394600D01*
X200193199Y-123487757D01*
X200134553Y-123526479D01*
X200048688Y-123549486D01*
X199951320Y-123529561D01*
X199896884Y-123498133D01*
X199830945Y-123423772D01*
X199819441Y-123380840D01*
X199543051Y-123293847D02*
X199810194Y-122831142D01*
X199814404Y-122760992D01*
X199802901Y-122718059D01*
X199764179Y-122659413D01*
X199655307Y-122596556D01*
X199585157Y-122592345D01*
X199542225Y-122603849D01*
X199483579Y-122642570D01*
X199216436Y-123105275D01*
X199025910Y-122995275D02*
X198699295Y-122806704D01*
X199192602Y-122329413D02*
X198862602Y-122900990D01*
X199593025Y-124327289D02*
X199484153Y-124264432D01*
X199445432Y-124205785D01*
X199422424Y-124119921D01*
X199458064Y-123995335D01*
X199568064Y-123804809D01*
X199658139Y-123711652D01*
X199744003Y-123688644D01*
X199814153Y-123692855D01*
X199923025Y-123755712D01*
X199961747Y-123814359D01*
X199984754Y-123900223D01*
X199949115Y-124024809D01*
X199839115Y-124215335D01*
X199749040Y-124308492D01*
X199663175Y-124331499D01*
X199593025Y-124327289D01*
X199103102Y-124044432D02*
X199370245Y-123581727D01*
X199374456Y-123511577D01*
X199362952Y-123468644D01*
X199324230Y-123409998D01*
X199215359Y-123347141D01*
X199145208Y-123342930D01*
X199102276Y-123354434D01*
X199043630Y-123393155D01*
X198776487Y-123855860D01*
X198585961Y-123745860D02*
X198259346Y-123557289D01*
X198752654Y-123079998D02*
X198422654Y-123651575D01*
D11*
%TO.C,J2*%
X220752380Y-129183333D02*
X221466666Y-129183333D01*
X221609523Y-129230952D01*
X221704761Y-129326190D01*
X221752380Y-129469047D01*
X221752380Y-129564285D01*
X220847619Y-128754761D02*
X220800000Y-128707142D01*
X220752380Y-128611904D01*
X220752380Y-128373809D01*
X220800000Y-128278571D01*
X220847619Y-128230952D01*
X220942857Y-128183333D01*
X221038095Y-128183333D01*
X221180952Y-128230952D01*
X221752380Y-128802380D01*
X221752380Y-128183333D01*
%TO.C,H1*%
X165931595Y-81372880D02*
X165931595Y-80372880D01*
X165931595Y-80849071D02*
X166503023Y-80849071D01*
X166503023Y-81372880D02*
X166503023Y-80372880D01*
X167503023Y-81372880D02*
X166931595Y-81372880D01*
X167217309Y-81372880D02*
X167217309Y-80372880D01*
X167122071Y-80515738D01*
X167026833Y-80610976D01*
X166931595Y-80658595D01*
X162026880Y-77054880D02*
X162026880Y-76054880D01*
X162360214Y-76769166D01*
X162693547Y-76054880D01*
X162693547Y-77054880D01*
X163312595Y-77054880D02*
X163217357Y-77007261D01*
X163169738Y-76959642D01*
X163122119Y-76864404D01*
X163122119Y-76578690D01*
X163169738Y-76483452D01*
X163217357Y-76435833D01*
X163312595Y-76388214D01*
X163455452Y-76388214D01*
X163550690Y-76435833D01*
X163598309Y-76483452D01*
X163645928Y-76578690D01*
X163645928Y-76864404D01*
X163598309Y-76959642D01*
X163550690Y-77007261D01*
X163455452Y-77054880D01*
X163312595Y-77054880D01*
X164503071Y-76388214D02*
X164503071Y-77054880D01*
X164074500Y-76388214D02*
X164074500Y-76912023D01*
X164122119Y-77007261D01*
X164217357Y-77054880D01*
X164360214Y-77054880D01*
X164455452Y-77007261D01*
X164503071Y-76959642D01*
X164979261Y-76388214D02*
X164979261Y-77054880D01*
X164979261Y-76483452D02*
X165026880Y-76435833D01*
X165122119Y-76388214D01*
X165264976Y-76388214D01*
X165360214Y-76435833D01*
X165407833Y-76531071D01*
X165407833Y-77054880D01*
X165741166Y-76388214D02*
X166122119Y-76388214D01*
X165884023Y-76054880D02*
X165884023Y-76912023D01*
X165931642Y-77007261D01*
X166026880Y-77054880D01*
X166122119Y-77054880D01*
X166217357Y-77150119D02*
X166979261Y-77150119D01*
X167074500Y-76054880D02*
X167645928Y-76054880D01*
X167360214Y-77054880D02*
X167360214Y-76054880D01*
X168360214Y-77007261D02*
X168264976Y-77054880D01*
X168074500Y-77054880D01*
X167979261Y-77007261D01*
X167931642Y-76912023D01*
X167931642Y-76531071D01*
X167979261Y-76435833D01*
X168074500Y-76388214D01*
X168264976Y-76388214D01*
X168360214Y-76435833D01*
X168407833Y-76531071D01*
X168407833Y-76626309D01*
X167931642Y-76721547D01*
X168836404Y-76388214D02*
X168836404Y-77054880D01*
X168836404Y-76483452D02*
X168884023Y-76435833D01*
X168979261Y-76388214D01*
X169122119Y-76388214D01*
X169217357Y-76435833D01*
X169264976Y-76531071D01*
X169264976Y-77054880D01*
X169598309Y-76388214D02*
X169979261Y-76388214D01*
X169741166Y-76054880D02*
X169741166Y-76912023D01*
X169788785Y-77007261D01*
X169884023Y-77054880D01*
X169979261Y-77054880D01*
X170312595Y-77054880D02*
X170312595Y-76388214D01*
X170312595Y-76054880D02*
X170264976Y-76102500D01*
X170312595Y-76150119D01*
X170360214Y-76102500D01*
X170312595Y-76054880D01*
X170312595Y-76150119D01*
X170788785Y-76388214D02*
X170788785Y-77054880D01*
X170788785Y-76483452D02*
X170836404Y-76435833D01*
X170931642Y-76388214D01*
X171074500Y-76388214D01*
X171169738Y-76435833D01*
X171217357Y-76531071D01*
X171217357Y-77054880D01*
X172122119Y-76388214D02*
X172122119Y-77197738D01*
X172074500Y-77292976D01*
X172026880Y-77340595D01*
X171931642Y-77388214D01*
X171788785Y-77388214D01*
X171693547Y-77340595D01*
X172122119Y-77007261D02*
X172026880Y-77054880D01*
X171836404Y-77054880D01*
X171741166Y-77007261D01*
X171693547Y-76959642D01*
X171645928Y-76864404D01*
X171645928Y-76578690D01*
X171693547Y-76483452D01*
X171741166Y-76435833D01*
X171836404Y-76388214D01*
X172026880Y-76388214D01*
X172122119Y-76435833D01*
%TO.C,K22*%
X130735714Y-117452380D02*
X130735714Y-116452380D01*
X131307142Y-117452380D02*
X130878571Y-116880952D01*
X131307142Y-116452380D02*
X130735714Y-117023809D01*
X131688095Y-116547619D02*
X131735714Y-116500000D01*
X131830952Y-116452380D01*
X132069047Y-116452380D01*
X132164285Y-116500000D01*
X132211904Y-116547619D01*
X132259523Y-116642857D01*
X132259523Y-116738095D01*
X132211904Y-116880952D01*
X131640476Y-117452380D01*
X132259523Y-117452380D01*
X132640476Y-116547619D02*
X132688095Y-116500000D01*
X132783333Y-116452380D01*
X133021428Y-116452380D01*
X133116666Y-116500000D01*
X133164285Y-116547619D01*
X133211904Y-116642857D01*
X133211904Y-116738095D01*
X133164285Y-116880952D01*
X132592857Y-117452380D01*
X133211904Y-117452380D01*
D13*
%TO.C,D7*%
X113630952Y-77476190D02*
X113630952Y-76976190D01*
X113750000Y-76976190D01*
X113821428Y-77000000D01*
X113869047Y-77047619D01*
X113892857Y-77095238D01*
X113916666Y-77190476D01*
X113916666Y-77261904D01*
X113892857Y-77357142D01*
X113869047Y-77404761D01*
X113821428Y-77452380D01*
X113750000Y-77476190D01*
X113630952Y-77476190D01*
X114083333Y-76976190D02*
X114416666Y-76976190D01*
X114202380Y-77476190D01*
%TO.C,D13*%
X113392857Y-120976190D02*
X113392857Y-120476190D01*
X113511904Y-120476190D01*
X113583333Y-120500000D01*
X113630952Y-120547619D01*
X113654761Y-120595238D01*
X113678571Y-120690476D01*
X113678571Y-120761904D01*
X113654761Y-120857142D01*
X113630952Y-120904761D01*
X113583333Y-120952380D01*
X113511904Y-120976190D01*
X113392857Y-120976190D01*
X114154761Y-120976190D02*
X113869047Y-120976190D01*
X114011904Y-120976190D02*
X114011904Y-120476190D01*
X113964285Y-120547619D01*
X113916666Y-120595238D01*
X113869047Y-120619047D01*
X114321428Y-120476190D02*
X114630952Y-120476190D01*
X114464285Y-120666666D01*
X114535714Y-120666666D01*
X114583333Y-120690476D01*
X114607142Y-120714285D01*
X114630952Y-120761904D01*
X114630952Y-120880952D01*
X114607142Y-120928571D01*
X114583333Y-120952380D01*
X114535714Y-120976190D01*
X114392857Y-120976190D01*
X114345238Y-120952380D01*
X114321428Y-120928571D01*
D11*
%TO.C,K13*%
X94785714Y-123452380D02*
X94785714Y-122452380D01*
X95357142Y-123452380D02*
X94928571Y-122880952D01*
X95357142Y-122452380D02*
X94785714Y-123023809D01*
X96309523Y-123452380D02*
X95738095Y-123452380D01*
X96023809Y-123452380D02*
X96023809Y-122452380D01*
X95928571Y-122595238D01*
X95833333Y-122690476D01*
X95738095Y-122738095D01*
X96642857Y-122452380D02*
X97261904Y-122452380D01*
X96928571Y-122833333D01*
X97071428Y-122833333D01*
X97166666Y-122880952D01*
X97214285Y-122928571D01*
X97261904Y-123023809D01*
X97261904Y-123261904D01*
X97214285Y-123357142D01*
X97166666Y-123404761D01*
X97071428Y-123452380D01*
X96785714Y-123452380D01*
X96690476Y-123404761D01*
X96642857Y-123357142D01*
%TO.C,K14*%
X112785714Y-123452380D02*
X112785714Y-122452380D01*
X113357142Y-123452380D02*
X112928571Y-122880952D01*
X113357142Y-122452380D02*
X112785714Y-123023809D01*
X114309523Y-123452380D02*
X113738095Y-123452380D01*
X114023809Y-123452380D02*
X114023809Y-122452380D01*
X113928571Y-122595238D01*
X113833333Y-122690476D01*
X113738095Y-122738095D01*
X115166666Y-122785714D02*
X115166666Y-123452380D01*
X114928571Y-122404761D02*
X114690476Y-123119047D01*
X115309523Y-123119047D01*
D13*
%TO.C,D8*%
X131630952Y-65526190D02*
X131630952Y-65026190D01*
X131750000Y-65026190D01*
X131821428Y-65050000D01*
X131869047Y-65097619D01*
X131892857Y-65145238D01*
X131916666Y-65240476D01*
X131916666Y-65311904D01*
X131892857Y-65407142D01*
X131869047Y-65454761D01*
X131821428Y-65502380D01*
X131750000Y-65526190D01*
X131630952Y-65526190D01*
X132202380Y-65240476D02*
X132154761Y-65216666D01*
X132130952Y-65192857D01*
X132107142Y-65145238D01*
X132107142Y-65121428D01*
X132130952Y-65073809D01*
X132154761Y-65050000D01*
X132202380Y-65026190D01*
X132297619Y-65026190D01*
X132345238Y-65050000D01*
X132369047Y-65073809D01*
X132392857Y-65121428D01*
X132392857Y-65145238D01*
X132369047Y-65192857D01*
X132345238Y-65216666D01*
X132297619Y-65240476D01*
X132202380Y-65240476D01*
X132154761Y-65264285D01*
X132130952Y-65288095D01*
X132107142Y-65335714D01*
X132107142Y-65430952D01*
X132130952Y-65478571D01*
X132154761Y-65502380D01*
X132202380Y-65526190D01*
X132297619Y-65526190D01*
X132345238Y-65502380D01*
X132369047Y-65478571D01*
X132392857Y-65430952D01*
X132392857Y-65335714D01*
X132369047Y-65288095D01*
X132345238Y-65264285D01*
X132297619Y-65240476D01*
%TO.C,D10*%
X113392857Y-94526190D02*
X113392857Y-94026190D01*
X113511904Y-94026190D01*
X113583333Y-94050000D01*
X113630952Y-94097619D01*
X113654761Y-94145238D01*
X113678571Y-94240476D01*
X113678571Y-94311904D01*
X113654761Y-94407142D01*
X113630952Y-94454761D01*
X113583333Y-94502380D01*
X113511904Y-94526190D01*
X113392857Y-94526190D01*
X114154761Y-94526190D02*
X113869047Y-94526190D01*
X114011904Y-94526190D02*
X114011904Y-94026190D01*
X113964285Y-94097619D01*
X113916666Y-94145238D01*
X113869047Y-94169047D01*
X114464285Y-94026190D02*
X114511904Y-94026190D01*
X114559523Y-94050000D01*
X114583333Y-94073809D01*
X114607142Y-94121428D01*
X114630952Y-94216666D01*
X114630952Y-94335714D01*
X114607142Y-94430952D01*
X114583333Y-94478571D01*
X114559523Y-94502380D01*
X114511904Y-94526190D01*
X114464285Y-94526190D01*
X114416666Y-94502380D01*
X114392857Y-94478571D01*
X114369047Y-94430952D01*
X114345238Y-94335714D01*
X114345238Y-94216666D01*
X114369047Y-94121428D01*
X114392857Y-94073809D01*
X114416666Y-94050000D01*
X114464285Y-94026190D01*
D11*
%TO.C,K1*%
X95261904Y-75452380D02*
X95261904Y-74452380D01*
X95833333Y-75452380D02*
X95404761Y-74880952D01*
X95833333Y-74452380D02*
X95261904Y-75023809D01*
X96785714Y-75452380D02*
X96214285Y-75452380D01*
X96500000Y-75452380D02*
X96500000Y-74452380D01*
X96404761Y-74595238D01*
X96309523Y-74690476D01*
X96214285Y-74738095D01*
%TO.C,K3*%
X131261904Y-63452380D02*
X131261904Y-62452380D01*
X131833333Y-63452380D02*
X131404761Y-62880952D01*
X131833333Y-62452380D02*
X131261904Y-63023809D01*
X132166666Y-62452380D02*
X132785714Y-62452380D01*
X132452380Y-62833333D01*
X132595238Y-62833333D01*
X132690476Y-62880952D01*
X132738095Y-62928571D01*
X132785714Y-63023809D01*
X132785714Y-63261904D01*
X132738095Y-63357142D01*
X132690476Y-63404761D01*
X132595238Y-63452380D01*
X132309523Y-63452380D01*
X132214285Y-63404761D01*
X132166666Y-63357142D01*
%TO.C,K4*%
X149261904Y-56452380D02*
X149261904Y-55452380D01*
X149833333Y-56452380D02*
X149404761Y-55880952D01*
X149833333Y-55452380D02*
X149261904Y-56023809D01*
X150690476Y-55785714D02*
X150690476Y-56452380D01*
X150452380Y-55404761D02*
X150214285Y-56119047D01*
X150833333Y-56119047D01*
%TO.C,K8*%
X113261904Y-92452380D02*
X113261904Y-91452380D01*
X113833333Y-92452380D02*
X113404761Y-91880952D01*
X113833333Y-91452380D02*
X113261904Y-92023809D01*
X114404761Y-91880952D02*
X114309523Y-91833333D01*
X114261904Y-91785714D01*
X114214285Y-91690476D01*
X114214285Y-91642857D01*
X114261904Y-91547619D01*
X114309523Y-91500000D01*
X114404761Y-91452380D01*
X114595238Y-91452380D01*
X114690476Y-91500000D01*
X114738095Y-91547619D01*
X114785714Y-91642857D01*
X114785714Y-91690476D01*
X114738095Y-91785714D01*
X114690476Y-91833333D01*
X114595238Y-91880952D01*
X114404761Y-91880952D01*
X114309523Y-91928571D01*
X114261904Y-91976190D01*
X114214285Y-92071428D01*
X114214285Y-92261904D01*
X114261904Y-92357142D01*
X114309523Y-92404761D01*
X114404761Y-92452380D01*
X114595238Y-92452380D01*
X114690476Y-92404761D01*
X114738095Y-92357142D01*
X114785714Y-92261904D01*
X114785714Y-92071428D01*
X114738095Y-91976190D01*
X114690476Y-91928571D01*
X114595238Y-91880952D01*
D13*
%TO.C,D11*%
X131392857Y-82526190D02*
X131392857Y-82026190D01*
X131511904Y-82026190D01*
X131583333Y-82050000D01*
X131630952Y-82097619D01*
X131654761Y-82145238D01*
X131678571Y-82240476D01*
X131678571Y-82311904D01*
X131654761Y-82407142D01*
X131630952Y-82454761D01*
X131583333Y-82502380D01*
X131511904Y-82526190D01*
X131392857Y-82526190D01*
X132154761Y-82526190D02*
X131869047Y-82526190D01*
X132011904Y-82526190D02*
X132011904Y-82026190D01*
X131964285Y-82097619D01*
X131916666Y-82145238D01*
X131869047Y-82169047D01*
X132630952Y-82526190D02*
X132345238Y-82526190D01*
X132488095Y-82526190D02*
X132488095Y-82026190D01*
X132440476Y-82097619D01*
X132392857Y-82145238D01*
X132345238Y-82169047D01*
D11*
%TO.C,K9*%
X131261904Y-80452380D02*
X131261904Y-79452380D01*
X131833333Y-80452380D02*
X131404761Y-79880952D01*
X131833333Y-79452380D02*
X131261904Y-80023809D01*
X132309523Y-80452380D02*
X132500000Y-80452380D01*
X132595238Y-80404761D01*
X132642857Y-80357142D01*
X132738095Y-80214285D01*
X132785714Y-80023809D01*
X132785714Y-79642857D01*
X132738095Y-79547619D01*
X132690476Y-79500000D01*
X132595238Y-79452380D01*
X132404761Y-79452380D01*
X132309523Y-79500000D01*
X132261904Y-79547619D01*
X132214285Y-79642857D01*
X132214285Y-79880952D01*
X132261904Y-79976190D01*
X132309523Y-80023809D01*
X132404761Y-80071428D01*
X132595238Y-80071428D01*
X132690476Y-80023809D01*
X132738095Y-79976190D01*
X132785714Y-79880952D01*
%TO.C,K10*%
X148785714Y-73452380D02*
X148785714Y-72452380D01*
X149357142Y-73452380D02*
X148928571Y-72880952D01*
X149357142Y-72452380D02*
X148785714Y-73023809D01*
X150309523Y-73452380D02*
X149738095Y-73452380D01*
X150023809Y-73452380D02*
X150023809Y-72452380D01*
X149928571Y-72595238D01*
X149833333Y-72690476D01*
X149738095Y-72738095D01*
X150928571Y-72452380D02*
X151023809Y-72452380D01*
X151119047Y-72500000D01*
X151166666Y-72547619D01*
X151214285Y-72642857D01*
X151261904Y-72833333D01*
X151261904Y-73071428D01*
X151214285Y-73261904D01*
X151166666Y-73357142D01*
X151119047Y-73404761D01*
X151023809Y-73452380D01*
X150928571Y-73452380D01*
X150833333Y-73404761D01*
X150785714Y-73357142D01*
X150738095Y-73261904D01*
X150690476Y-73071428D01*
X150690476Y-72833333D01*
X150738095Y-72642857D01*
X150785714Y-72547619D01*
X150833333Y-72500000D01*
X150928571Y-72452380D01*
%TO.C,K15*%
X130785714Y-97452380D02*
X130785714Y-96452380D01*
X131357142Y-97452380D02*
X130928571Y-96880952D01*
X131357142Y-96452380D02*
X130785714Y-97023809D01*
X132309523Y-97452380D02*
X131738095Y-97452380D01*
X132023809Y-97452380D02*
X132023809Y-96452380D01*
X131928571Y-96595238D01*
X131833333Y-96690476D01*
X131738095Y-96738095D01*
X133214285Y-96452380D02*
X132738095Y-96452380D01*
X132690476Y-96928571D01*
X132738095Y-96880952D01*
X132833333Y-96833333D01*
X133071428Y-96833333D01*
X133166666Y-96880952D01*
X133214285Y-96928571D01*
X133261904Y-97023809D01*
X133261904Y-97261904D01*
X133214285Y-97357142D01*
X133166666Y-97404761D01*
X133071428Y-97452380D01*
X132833333Y-97452380D01*
X132738095Y-97404761D01*
X132690476Y-97357142D01*
%TO.C,K16*%
X148785714Y-90452380D02*
X148785714Y-89452380D01*
X149357142Y-90452380D02*
X148928571Y-89880952D01*
X149357142Y-89452380D02*
X148785714Y-90023809D01*
X150309523Y-90452380D02*
X149738095Y-90452380D01*
X150023809Y-90452380D02*
X150023809Y-89452380D01*
X149928571Y-89595238D01*
X149833333Y-89690476D01*
X149738095Y-89738095D01*
X151166666Y-89452380D02*
X150976190Y-89452380D01*
X150880952Y-89500000D01*
X150833333Y-89547619D01*
X150738095Y-89690476D01*
X150690476Y-89880952D01*
X150690476Y-90261904D01*
X150738095Y-90357142D01*
X150785714Y-90404761D01*
X150880952Y-90452380D01*
X151071428Y-90452380D01*
X151166666Y-90404761D01*
X151214285Y-90357142D01*
X151261904Y-90261904D01*
X151261904Y-90023809D01*
X151214285Y-89928571D01*
X151166666Y-89880952D01*
X151071428Y-89833333D01*
X150880952Y-89833333D01*
X150785714Y-89880952D01*
X150738095Y-89928571D01*
X150690476Y-90023809D01*
D13*
%TO.C,D14*%
X131392857Y-99526190D02*
X131392857Y-99026190D01*
X131511904Y-99026190D01*
X131583333Y-99050000D01*
X131630952Y-99097619D01*
X131654761Y-99145238D01*
X131678571Y-99240476D01*
X131678571Y-99311904D01*
X131654761Y-99407142D01*
X131630952Y-99454761D01*
X131583333Y-99502380D01*
X131511904Y-99526190D01*
X131392857Y-99526190D01*
X132154761Y-99526190D02*
X131869047Y-99526190D01*
X132011904Y-99526190D02*
X132011904Y-99026190D01*
X131964285Y-99097619D01*
X131916666Y-99145238D01*
X131869047Y-99169047D01*
X132583333Y-99192857D02*
X132583333Y-99526190D01*
X132464285Y-99002380D02*
X132345238Y-99359523D01*
X132654761Y-99359523D01*
%TO.C,D9*%
X167630952Y-64026190D02*
X167630952Y-63526190D01*
X167750000Y-63526190D01*
X167821428Y-63550000D01*
X167869047Y-63597619D01*
X167892857Y-63645238D01*
X167916666Y-63740476D01*
X167916666Y-63811904D01*
X167892857Y-63907142D01*
X167869047Y-63954761D01*
X167821428Y-64002380D01*
X167750000Y-64026190D01*
X167630952Y-64026190D01*
X168154761Y-64026190D02*
X168250000Y-64026190D01*
X168297619Y-64002380D01*
X168321428Y-63978571D01*
X168369047Y-63907142D01*
X168392857Y-63811904D01*
X168392857Y-63621428D01*
X168369047Y-63573809D01*
X168345238Y-63550000D01*
X168297619Y-63526190D01*
X168202380Y-63526190D01*
X168154761Y-63550000D01*
X168130952Y-63573809D01*
X168107142Y-63621428D01*
X168107142Y-63740476D01*
X168130952Y-63788095D01*
X168154761Y-63811904D01*
X168202380Y-63835714D01*
X168297619Y-63835714D01*
X168345238Y-63811904D01*
X168369047Y-63788095D01*
X168392857Y-63740476D01*
%TO.C,D12*%
X167392857Y-81026190D02*
X167392857Y-80526190D01*
X167511904Y-80526190D01*
X167583333Y-80550000D01*
X167630952Y-80597619D01*
X167654761Y-80645238D01*
X167678571Y-80740476D01*
X167678571Y-80811904D01*
X167654761Y-80907142D01*
X167630952Y-80954761D01*
X167583333Y-81002380D01*
X167511904Y-81026190D01*
X167392857Y-81026190D01*
X168154761Y-81026190D02*
X167869047Y-81026190D01*
X168011904Y-81026190D02*
X168011904Y-80526190D01*
X167964285Y-80597619D01*
X167916666Y-80645238D01*
X167869047Y-80669047D01*
X168345238Y-80573809D02*
X168369047Y-80550000D01*
X168416666Y-80526190D01*
X168535714Y-80526190D01*
X168583333Y-80550000D01*
X168607142Y-80573809D01*
X168630952Y-80621428D01*
X168630952Y-80669047D01*
X168607142Y-80740476D01*
X168321428Y-81026190D01*
X168630952Y-81026190D01*
%TO.C,D15*%
X167392857Y-98026190D02*
X167392857Y-97526190D01*
X167511904Y-97526190D01*
X167583333Y-97550000D01*
X167630952Y-97597619D01*
X167654761Y-97645238D01*
X167678571Y-97740476D01*
X167678571Y-97811904D01*
X167654761Y-97907142D01*
X167630952Y-97954761D01*
X167583333Y-98002380D01*
X167511904Y-98026190D01*
X167392857Y-98026190D01*
X168154761Y-98026190D02*
X167869047Y-98026190D01*
X168011904Y-98026190D02*
X168011904Y-97526190D01*
X167964285Y-97597619D01*
X167916666Y-97645238D01*
X167869047Y-97669047D01*
X168607142Y-97526190D02*
X168369047Y-97526190D01*
X168345238Y-97764285D01*
X168369047Y-97740476D01*
X168416666Y-97716666D01*
X168535714Y-97716666D01*
X168583333Y-97740476D01*
X168607142Y-97764285D01*
X168630952Y-97811904D01*
X168630952Y-97930952D01*
X168607142Y-97978571D01*
X168583333Y-98002380D01*
X168535714Y-98026190D01*
X168416666Y-98026190D01*
X168369047Y-98002380D01*
X168345238Y-97978571D01*
D11*
%TO.C,K5*%
X167261904Y-61952380D02*
X167261904Y-60952380D01*
X167833333Y-61952380D02*
X167404761Y-61380952D01*
X167833333Y-60952380D02*
X167261904Y-61523809D01*
X168738095Y-60952380D02*
X168261904Y-60952380D01*
X168214285Y-61428571D01*
X168261904Y-61380952D01*
X168357142Y-61333333D01*
X168595238Y-61333333D01*
X168690476Y-61380952D01*
X168738095Y-61428571D01*
X168785714Y-61523809D01*
X168785714Y-61761904D01*
X168738095Y-61857142D01*
X168690476Y-61904761D01*
X168595238Y-61952380D01*
X168357142Y-61952380D01*
X168261904Y-61904761D01*
X168214285Y-61857142D01*
%TO.C,K6*%
X185261904Y-64452380D02*
X185261904Y-63452380D01*
X185833333Y-64452380D02*
X185404761Y-63880952D01*
X185833333Y-63452380D02*
X185261904Y-64023809D01*
X186690476Y-63452380D02*
X186500000Y-63452380D01*
X186404761Y-63500000D01*
X186357142Y-63547619D01*
X186261904Y-63690476D01*
X186214285Y-63880952D01*
X186214285Y-64261904D01*
X186261904Y-64357142D01*
X186309523Y-64404761D01*
X186404761Y-64452380D01*
X186595238Y-64452380D01*
X186690476Y-64404761D01*
X186738095Y-64357142D01*
X186785714Y-64261904D01*
X186785714Y-64023809D01*
X186738095Y-63928571D01*
X186690476Y-63880952D01*
X186595238Y-63833333D01*
X186404761Y-63833333D01*
X186309523Y-63880952D01*
X186261904Y-63928571D01*
X186214285Y-64023809D01*
%TO.C,K11*%
X166785714Y-78952380D02*
X166785714Y-77952380D01*
X167357142Y-78952380D02*
X166928571Y-78380952D01*
X167357142Y-77952380D02*
X166785714Y-78523809D01*
X168309523Y-78952380D02*
X167738095Y-78952380D01*
X168023809Y-78952380D02*
X168023809Y-77952380D01*
X167928571Y-78095238D01*
X167833333Y-78190476D01*
X167738095Y-78238095D01*
X169261904Y-78952380D02*
X168690476Y-78952380D01*
X168976190Y-78952380D02*
X168976190Y-77952380D01*
X168880952Y-78095238D01*
X168785714Y-78190476D01*
X168690476Y-78238095D01*
%TO.C,K12*%
X184785714Y-81452380D02*
X184785714Y-80452380D01*
X185357142Y-81452380D02*
X184928571Y-80880952D01*
X185357142Y-80452380D02*
X184785714Y-81023809D01*
X186309523Y-81452380D02*
X185738095Y-81452380D01*
X186023809Y-81452380D02*
X186023809Y-80452380D01*
X185928571Y-80595238D01*
X185833333Y-80690476D01*
X185738095Y-80738095D01*
X186690476Y-80547619D02*
X186738095Y-80500000D01*
X186833333Y-80452380D01*
X187071428Y-80452380D01*
X187166666Y-80500000D01*
X187214285Y-80547619D01*
X187261904Y-80642857D01*
X187261904Y-80738095D01*
X187214285Y-80880952D01*
X186642857Y-81452380D01*
X187261904Y-81452380D01*
%TO.C,K17*%
X166785714Y-95952380D02*
X166785714Y-94952380D01*
X167357142Y-95952380D02*
X166928571Y-95380952D01*
X167357142Y-94952380D02*
X166785714Y-95523809D01*
X168309523Y-95952380D02*
X167738095Y-95952380D01*
X168023809Y-95952380D02*
X168023809Y-94952380D01*
X167928571Y-95095238D01*
X167833333Y-95190476D01*
X167738095Y-95238095D01*
X168642857Y-94952380D02*
X169309523Y-94952380D01*
X168880952Y-95952380D01*
%TO.C,K18*%
X184785714Y-98452380D02*
X184785714Y-97452380D01*
X185357142Y-98452380D02*
X184928571Y-97880952D01*
X185357142Y-97452380D02*
X184785714Y-98023809D01*
X186309523Y-98452380D02*
X185738095Y-98452380D01*
X186023809Y-98452380D02*
X186023809Y-97452380D01*
X185928571Y-97595238D01*
X185833333Y-97690476D01*
X185738095Y-97738095D01*
X186880952Y-97880952D02*
X186785714Y-97833333D01*
X186738095Y-97785714D01*
X186690476Y-97690476D01*
X186690476Y-97642857D01*
X186738095Y-97547619D01*
X186785714Y-97500000D01*
X186880952Y-97452380D01*
X187071428Y-97452380D01*
X187166666Y-97500000D01*
X187214285Y-97547619D01*
X187261904Y-97642857D01*
X187261904Y-97690476D01*
X187214285Y-97785714D01*
X187166666Y-97833333D01*
X187071428Y-97880952D01*
X186880952Y-97880952D01*
X186785714Y-97928571D01*
X186738095Y-97976190D01*
X186690476Y-98071428D01*
X186690476Y-98261904D01*
X186738095Y-98357142D01*
X186785714Y-98404761D01*
X186880952Y-98452380D01*
X187071428Y-98452380D01*
X187166666Y-98404761D01*
X187214285Y-98357142D01*
X187261904Y-98261904D01*
X187261904Y-98071428D01*
X187214285Y-97976190D01*
X187166666Y-97928571D01*
X187071428Y-97880952D01*
%TO.C,K25*%
X156335714Y-123952380D02*
X156335714Y-122952380D01*
X156907142Y-123952380D02*
X156478571Y-123380952D01*
X156907142Y-122952380D02*
X156335714Y-123523809D01*
X157288095Y-123047619D02*
X157335714Y-123000000D01*
X157430952Y-122952380D01*
X157669047Y-122952380D01*
X157764285Y-123000000D01*
X157811904Y-123047619D01*
X157859523Y-123142857D01*
X157859523Y-123238095D01*
X157811904Y-123380952D01*
X157240476Y-123952380D01*
X157859523Y-123952380D01*
X158764285Y-122952380D02*
X158288095Y-122952380D01*
X158240476Y-123428571D01*
X158288095Y-123380952D01*
X158383333Y-123333333D01*
X158621428Y-123333333D01*
X158716666Y-123380952D01*
X158764285Y-123428571D01*
X158811904Y-123523809D01*
X158811904Y-123761904D01*
X158764285Y-123857142D01*
X158716666Y-123904761D01*
X158621428Y-123952380D01*
X158383333Y-123952380D01*
X158288095Y-123904761D01*
X158240476Y-123857142D01*
%TO.C,K2*%
X113261904Y-75452380D02*
X113261904Y-74452380D01*
X113833333Y-75452380D02*
X113404761Y-74880952D01*
X113833333Y-74452380D02*
X113261904Y-75023809D01*
X114214285Y-74547619D02*
X114261904Y-74500000D01*
X114357142Y-74452380D01*
X114595238Y-74452380D01*
X114690476Y-74500000D01*
X114738095Y-74547619D01*
X114785714Y-74642857D01*
X114785714Y-74738095D01*
X114738095Y-74880952D01*
X114166666Y-75452380D01*
X114785714Y-75452380D01*
D13*
%TO.C,D20*%
X176538548Y-126865173D02*
X176409138Y-127348136D01*
X176294147Y-127317325D01*
X176231315Y-127275839D01*
X176197643Y-127217518D01*
X176186970Y-127165359D01*
X176188621Y-127067204D01*
X176207108Y-126998209D01*
X176254756Y-126912379D01*
X176290078Y-126872545D01*
X176348400Y-126838873D01*
X176423557Y-126834362D01*
X176538548Y-126865173D01*
X175961498Y-127178893D02*
X175932338Y-127195729D01*
X175880179Y-127206402D01*
X175765188Y-127175590D01*
X175725354Y-127140267D01*
X175708518Y-127111107D01*
X175697844Y-127058948D01*
X175710169Y-127012951D01*
X175751654Y-126950119D01*
X176101581Y-126748089D01*
X175802604Y-126667978D01*
X175374218Y-127070830D02*
X175328221Y-127058505D01*
X175288387Y-127023183D01*
X175271551Y-126994022D01*
X175260878Y-126941863D01*
X175262529Y-126843708D01*
X175293341Y-126728717D01*
X175340989Y-126642886D01*
X175376311Y-126603052D01*
X175405472Y-126586216D01*
X175457631Y-126575543D01*
X175503627Y-126587867D01*
X175543461Y-126623190D01*
X175560297Y-126652351D01*
X175570971Y-126704510D01*
X175569320Y-126802665D01*
X175538508Y-126917656D01*
X175490860Y-127003487D01*
X175455537Y-127043321D01*
X175426377Y-127060157D01*
X175374218Y-127070830D01*
D11*
%TO.C,K27*%
X200256069Y-124203111D02*
X199756069Y-125069136D01*
X199761198Y-123917397D02*
X199846637Y-124626554D01*
X199261198Y-124783422D02*
X200041784Y-124574265D01*
X198978902Y-124510467D02*
X198913853Y-124527897D01*
X198807565Y-124521517D01*
X198601369Y-124402470D01*
X198542700Y-124313611D01*
X198525270Y-124248563D01*
X198531650Y-124142274D01*
X198579269Y-124059796D01*
X198691937Y-123959887D01*
X199472522Y-123750730D01*
X198936411Y-123441206D01*
X198147736Y-124140565D02*
X197570386Y-123807232D01*
X198441540Y-123155492D01*
D13*
%TO.C,D21*%
X208406201Y-145784024D02*
X208052648Y-146137577D01*
X207968468Y-146053398D01*
X207934797Y-145986054D01*
X207934797Y-145918711D01*
X207951633Y-145868203D01*
X208002140Y-145784024D01*
X208052648Y-145733516D01*
X208136827Y-145683008D01*
X208187335Y-145666172D01*
X208254678Y-145666172D01*
X208322022Y-145699844D01*
X208406201Y-145784024D01*
X207749602Y-145767188D02*
X207715930Y-145767188D01*
X207665423Y-145750352D01*
X207581243Y-145666172D01*
X207564407Y-145615665D01*
X207564407Y-145581993D01*
X207581243Y-145531485D01*
X207614915Y-145497814D01*
X207682258Y-145464142D01*
X208086320Y-145464142D01*
X207867453Y-145245275D01*
X207530736Y-144908558D02*
X207732766Y-145110588D01*
X207631751Y-145009573D02*
X207278197Y-145363127D01*
X207362377Y-145346291D01*
X207429720Y-145346291D01*
X207480228Y-145363127D01*
%TO.C,D19*%
X172302857Y-112026190D02*
X172302857Y-111526190D01*
X172421904Y-111526190D01*
X172493333Y-111550000D01*
X172540952Y-111597619D01*
X172564761Y-111645238D01*
X172588571Y-111740476D01*
X172588571Y-111811904D01*
X172564761Y-111907142D01*
X172540952Y-111954761D01*
X172493333Y-112002380D01*
X172421904Y-112026190D01*
X172302857Y-112026190D01*
X173064761Y-112026190D02*
X172779047Y-112026190D01*
X172921904Y-112026190D02*
X172921904Y-111526190D01*
X172874285Y-111597619D01*
X172826666Y-111645238D01*
X172779047Y-111669047D01*
X173302857Y-112026190D02*
X173398095Y-112026190D01*
X173445714Y-112002380D01*
X173469523Y-111978571D01*
X173517142Y-111907142D01*
X173540952Y-111811904D01*
X173540952Y-111621428D01*
X173517142Y-111573809D01*
X173493333Y-111550000D01*
X173445714Y-111526190D01*
X173350476Y-111526190D01*
X173302857Y-111550000D01*
X173279047Y-111573809D01*
X173255238Y-111621428D01*
X173255238Y-111740476D01*
X173279047Y-111788095D01*
X173302857Y-111811904D01*
X173350476Y-111835714D01*
X173445714Y-111835714D01*
X173493333Y-111811904D01*
X173517142Y-111788095D01*
X173540952Y-111740476D01*
D11*
%TO.C,K19*%
X207212768Y-112053756D02*
X206712768Y-112919781D01*
X206717897Y-111768042D02*
X206803336Y-112477199D01*
X206217897Y-112634067D02*
X206998483Y-112424910D01*
X205893110Y-111291851D02*
X206387982Y-111577565D01*
X206140546Y-111434708D02*
X205640546Y-112300734D01*
X205794454Y-112224635D01*
X205924551Y-112189775D01*
X206030839Y-112196155D01*
X205480717Y-111053756D02*
X205315760Y-110958518D01*
X205209472Y-110952138D01*
X205144423Y-110969568D01*
X204990516Y-111045667D01*
X204854039Y-111186814D01*
X204663562Y-111516729D01*
X204657183Y-111623017D01*
X204674613Y-111688066D01*
X204733282Y-111776924D01*
X204898239Y-111872162D01*
X205004527Y-111878542D01*
X205069576Y-111861112D01*
X205158434Y-111802443D01*
X205277482Y-111596247D01*
X205283862Y-111489959D01*
X205266432Y-111424910D01*
X205207763Y-111336051D01*
X205042805Y-111240813D01*
X204936517Y-111234434D01*
X204871468Y-111251863D01*
X204782610Y-111310532D01*
%TO.C,K28*%
X205012089Y-146602246D02*
X205719196Y-145895140D01*
X205416150Y-147006307D02*
X205517165Y-146299201D01*
X206123257Y-146299201D02*
X205315135Y-146299201D01*
X206325288Y-146635918D02*
X206392631Y-146635918D01*
X206493646Y-146669590D01*
X206662005Y-146837949D01*
X206695677Y-146938964D01*
X206695677Y-147006307D01*
X206662005Y-147107323D01*
X206594662Y-147174666D01*
X206459975Y-147242010D01*
X205651852Y-147242010D01*
X206089585Y-147679743D01*
X206897707Y-147679743D02*
X206864036Y-147578727D01*
X206864036Y-147511384D01*
X206897707Y-147410369D01*
X206931379Y-147376697D01*
X207032394Y-147343025D01*
X207099738Y-147343025D01*
X207200753Y-147376697D01*
X207335440Y-147511384D01*
X207369112Y-147612399D01*
X207369112Y-147679743D01*
X207335440Y-147780758D01*
X207301768Y-147814430D01*
X207200753Y-147848101D01*
X207133410Y-147848101D01*
X207032394Y-147814430D01*
X206897707Y-147679743D01*
X206796692Y-147646071D01*
X206729349Y-147646071D01*
X206628333Y-147679743D01*
X206493646Y-147814430D01*
X206459975Y-147915445D01*
X206459975Y-147982788D01*
X206493646Y-148083804D01*
X206628333Y-148218491D01*
X206729349Y-148252162D01*
X206796692Y-148252162D01*
X206897707Y-148218491D01*
X207032394Y-148083804D01*
X207066066Y-147982788D01*
X207066066Y-147915445D01*
X207032394Y-147814430D01*
%TO.C,D4*%
X161051821Y-110502588D02*
X161051821Y-109802588D01*
X161218488Y-109802588D01*
X161318488Y-109835922D01*
X161385154Y-109902588D01*
X161418488Y-109969255D01*
X161451821Y-110102588D01*
X161451821Y-110202588D01*
X161418488Y-110335922D01*
X161385154Y-110402588D01*
X161318488Y-110469255D01*
X161218488Y-110502588D01*
X161051821Y-110502588D01*
X162051821Y-110035922D02*
X162051821Y-110502588D01*
X161885154Y-109769255D02*
X161718488Y-110269255D01*
X162151821Y-110269255D01*
D12*
X160808488Y-111584493D02*
X160934202Y-111584493D01*
X160997059Y-111615922D01*
X161059916Y-111678779D01*
X161091345Y-111804493D01*
X161091345Y-112024493D01*
X161059916Y-112150207D01*
X160997059Y-112213064D01*
X160934202Y-112244493D01*
X160808488Y-112244493D01*
X160745630Y-112213064D01*
X160682773Y-112150207D01*
X160651345Y-112024493D01*
X160651345Y-111804493D01*
X160682773Y-111678779D01*
X160745630Y-111615922D01*
X160808488Y-111584493D01*
X161374202Y-111584493D02*
X161374202Y-112118779D01*
X161405630Y-112181636D01*
X161437059Y-112213064D01*
X161499916Y-112244493D01*
X161625630Y-112244493D01*
X161688488Y-112213064D01*
X161719916Y-112181636D01*
X161751345Y-112118779D01*
X161751345Y-111584493D01*
X161971345Y-111584493D02*
X162348488Y-111584493D01*
X162159916Y-112244493D02*
X162159916Y-111584493D01*
X161065630Y-111311636D02*
X161034202Y-111343064D01*
X160939916Y-111374493D01*
X160877059Y-111374493D01*
X160782773Y-111343064D01*
X160719916Y-111280207D01*
X160688488Y-111217350D01*
X160657059Y-111091636D01*
X160657059Y-110997350D01*
X160688488Y-110871636D01*
X160719916Y-110808779D01*
X160782773Y-110745922D01*
X160877059Y-110714493D01*
X160939916Y-110714493D01*
X161034202Y-110745922D01*
X161065630Y-110777350D01*
X161348488Y-110714493D02*
X161348488Y-111248779D01*
X161379916Y-111311636D01*
X161411345Y-111343064D01*
X161474202Y-111374493D01*
X161599916Y-111374493D01*
X161662773Y-111343064D01*
X161694202Y-111311636D01*
X161725630Y-111248779D01*
X161725630Y-110714493D01*
X161945630Y-110714493D02*
X162322773Y-110714493D01*
X162134202Y-111374493D02*
X162134202Y-110714493D01*
D11*
%TO.C,D1*%
X204997279Y-105739505D02*
X205347279Y-105133287D01*
X205491616Y-105216620D01*
X205561552Y-105295488D01*
X205585954Y-105386556D01*
X205581488Y-105460958D01*
X205543689Y-105593094D01*
X205493689Y-105679697D01*
X205398155Y-105778500D01*
X205335954Y-105819569D01*
X205244885Y-105843970D01*
X205141616Y-105822838D01*
X204997279Y-105739505D01*
X205921039Y-106272838D02*
X205574629Y-106072838D01*
X205747834Y-106172838D02*
X206097834Y-105566620D01*
X205990099Y-105619889D01*
X205899031Y-105644291D01*
X205824629Y-105639825D01*
D12*
X205027318Y-107840808D02*
X204918446Y-107777951D01*
X204879725Y-107719304D01*
X204856717Y-107633440D01*
X204892357Y-107508854D01*
X205002357Y-107318328D01*
X205092432Y-107225171D01*
X205178296Y-107202163D01*
X205248446Y-107206374D01*
X205357318Y-107269231D01*
X205396040Y-107327878D01*
X205419047Y-107413742D01*
X205383408Y-107538328D01*
X205273408Y-107728854D01*
X205183333Y-107822011D01*
X205097468Y-107845018D01*
X205027318Y-107840808D01*
X204537395Y-107557951D02*
X204804538Y-107095246D01*
X204808749Y-107025096D01*
X204797245Y-106982163D01*
X204758523Y-106923517D01*
X204649652Y-106860660D01*
X204579501Y-106856449D01*
X204536569Y-106867953D01*
X204477923Y-106906674D01*
X204210780Y-107369379D01*
X204020254Y-107259379D02*
X203693639Y-107070808D01*
X204186947Y-106593517D02*
X203856947Y-107165094D01*
X205520877Y-106431654D02*
X205563809Y-106420150D01*
X205661177Y-106440075D01*
X205715613Y-106471503D01*
X205781553Y-106545864D01*
X205804560Y-106631729D01*
X205800349Y-106701879D01*
X205764710Y-106826465D01*
X205717567Y-106908119D01*
X205627492Y-107001276D01*
X205568846Y-107039998D01*
X205482981Y-107063005D01*
X205385613Y-107043080D01*
X205331177Y-107011652D01*
X205265238Y-106937291D01*
X205253734Y-106894359D01*
X204977344Y-106807366D02*
X205244487Y-106344661D01*
X205248697Y-106274511D01*
X205237194Y-106231578D01*
X205198472Y-106172932D01*
X205089600Y-106110075D01*
X205019450Y-106105864D01*
X204976518Y-106117368D01*
X204917872Y-106156089D01*
X204650729Y-106618794D01*
X204460203Y-106508794D02*
X204133588Y-106320223D01*
X204626895Y-105842932D02*
X204296895Y-106414509D01*
D11*
%TO.C,J4*%
X209600000Y-65948142D02*
X209600000Y-66591000D01*
X209571428Y-66719571D01*
X209514285Y-66805285D01*
X209428571Y-66848142D01*
X209371428Y-66848142D01*
X210142857Y-66248142D02*
X210142857Y-66848142D01*
X210000000Y-65905285D02*
X209857142Y-66548142D01*
X210228571Y-66548142D01*
%TO.C,JP1*%
X216072380Y-78603333D02*
X216786666Y-78603333D01*
X216929523Y-78650952D01*
X217024761Y-78746190D01*
X217072380Y-78889047D01*
X217072380Y-78984285D01*
X217072380Y-78127142D02*
X216072380Y-78127142D01*
X216072380Y-77746190D01*
X216120000Y-77650952D01*
X216167619Y-77603333D01*
X216262857Y-77555714D01*
X216405714Y-77555714D01*
X216500952Y-77603333D01*
X216548571Y-77650952D01*
X216596190Y-77746190D01*
X216596190Y-78127142D01*
X217072380Y-76603333D02*
X217072380Y-77174761D01*
X217072380Y-76889047D02*
X216072380Y-76889047D01*
X216215238Y-76984285D01*
X216310476Y-77079523D01*
X216358095Y-77174761D01*
X219382380Y-80220952D02*
X220382380Y-79887619D01*
X219382380Y-79554285D01*
X220334761Y-78792380D02*
X220382380Y-78887619D01*
X220382380Y-79078095D01*
X220334761Y-79173333D01*
X220287142Y-79220952D01*
X220191904Y-79268571D01*
X219906190Y-79268571D01*
X219810952Y-79220952D01*
X219763333Y-79173333D01*
X219715714Y-79078095D01*
X219715714Y-78887619D01*
X219763333Y-78792380D01*
X220334761Y-77935238D02*
X220382380Y-78030476D01*
X220382380Y-78220952D01*
X220334761Y-78316190D01*
X220287142Y-78363809D01*
X220191904Y-78411428D01*
X219906190Y-78411428D01*
X219810952Y-78363809D01*
X219763333Y-78316190D01*
X219715714Y-78220952D01*
X219715714Y-78030476D01*
X219763333Y-77935238D01*
X219382380Y-77220952D02*
X220096666Y-77220952D01*
X220239523Y-77268571D01*
X220334761Y-77363809D01*
X220382380Y-77506666D01*
X220382380Y-77601904D01*
X219715714Y-76316190D02*
X220382380Y-76316190D01*
X219715714Y-76744761D02*
X220239523Y-76744761D01*
X220334761Y-76697142D01*
X220382380Y-76601904D01*
X220382380Y-76459047D01*
X220334761Y-76363809D01*
X220287142Y-76316190D01*
X220382380Y-75840000D02*
X219715714Y-75840000D01*
X219810952Y-75840000D02*
X219763333Y-75792380D01*
X219715714Y-75697142D01*
X219715714Y-75554285D01*
X219763333Y-75459047D01*
X219858571Y-75411428D01*
X220382380Y-75411428D01*
X219858571Y-75411428D02*
X219763333Y-75363809D01*
X219715714Y-75268571D01*
X219715714Y-75125714D01*
X219763333Y-75030476D01*
X219858571Y-74982857D01*
X220382380Y-74982857D01*
X219715714Y-74506666D02*
X220715714Y-74506666D01*
X219763333Y-74506666D02*
X219715714Y-74411428D01*
X219715714Y-74220952D01*
X219763333Y-74125714D01*
X219810952Y-74078095D01*
X219906190Y-74030476D01*
X220191904Y-74030476D01*
X220287142Y-74078095D01*
X220334761Y-74125714D01*
X220382380Y-74220952D01*
X220382380Y-74411428D01*
X220334761Y-74506666D01*
X220334761Y-73220952D02*
X220382380Y-73316190D01*
X220382380Y-73506666D01*
X220334761Y-73601904D01*
X220239523Y-73649523D01*
X219858571Y-73649523D01*
X219763333Y-73601904D01*
X219715714Y-73506666D01*
X219715714Y-73316190D01*
X219763333Y-73220952D01*
X219858571Y-73173333D01*
X219953809Y-73173333D01*
X220049047Y-73649523D01*
X220382380Y-72744761D02*
X219715714Y-72744761D01*
X219906190Y-72744761D02*
X219810952Y-72697142D01*
X219763333Y-72649523D01*
X219715714Y-72554285D01*
X219715714Y-72459047D01*
D14*
%TO.C,R2*%
X218522380Y-85656666D02*
X218046190Y-85990000D01*
X218522380Y-86228095D02*
X217522380Y-86228095D01*
X217522380Y-85847142D01*
X217570000Y-85751904D01*
X217617619Y-85704285D01*
X217712857Y-85656666D01*
X217855714Y-85656666D01*
X217950952Y-85704285D01*
X217998571Y-85751904D01*
X218046190Y-85847142D01*
X218046190Y-86228095D01*
X217617619Y-85275714D02*
X217570000Y-85228095D01*
X217522380Y-85132857D01*
X217522380Y-84894761D01*
X217570000Y-84799523D01*
X217617619Y-84751904D01*
X217712857Y-84704285D01*
X217808095Y-84704285D01*
X217950952Y-84751904D01*
X218522380Y-85323333D01*
X218522380Y-84704285D01*
D11*
%TO.C,C1*%
X204741904Y-63225714D02*
X204741904Y-63892380D01*
X204503809Y-62844761D02*
X204265714Y-63559047D01*
X204884761Y-63559047D01*
X205694285Y-63225714D02*
X205694285Y-63892380D01*
X205265714Y-63225714D02*
X205265714Y-63749523D01*
X205313333Y-63844761D01*
X205408571Y-63892380D01*
X205551428Y-63892380D01*
X205646666Y-63844761D01*
X205694285Y-63797142D01*
X206075238Y-62892380D02*
X206741904Y-62892380D01*
X206313333Y-63892380D01*
D15*
X205416666Y-64898571D02*
X205392857Y-64922380D01*
X205321428Y-64946190D01*
X205273809Y-64946190D01*
X205202380Y-64922380D01*
X205154761Y-64874761D01*
X205130952Y-64827142D01*
X205107142Y-64731904D01*
X205107142Y-64660476D01*
X205130952Y-64565238D01*
X205154761Y-64517619D01*
X205202380Y-64470000D01*
X205273809Y-64446190D01*
X205321428Y-64446190D01*
X205392857Y-64470000D01*
X205416666Y-64493809D01*
X205892857Y-64946190D02*
X205607142Y-64946190D01*
X205750000Y-64946190D02*
X205750000Y-64446190D01*
X205702380Y-64517619D01*
X205654761Y-64565238D01*
X205607142Y-64589047D01*
D11*
%TO.C,SW1*%
X219416666Y-139904761D02*
X219559523Y-139952380D01*
X219797619Y-139952380D01*
X219892857Y-139904761D01*
X219940476Y-139857142D01*
X219988095Y-139761904D01*
X219988095Y-139666666D01*
X219940476Y-139571428D01*
X219892857Y-139523809D01*
X219797619Y-139476190D01*
X219607142Y-139428571D01*
X219511904Y-139380952D01*
X219464285Y-139333333D01*
X219416666Y-139238095D01*
X219416666Y-139142857D01*
X219464285Y-139047619D01*
X219511904Y-139000000D01*
X219607142Y-138952380D01*
X219845238Y-138952380D01*
X219988095Y-139000000D01*
X220321428Y-138952380D02*
X220559523Y-139952380D01*
X220750000Y-139238095D01*
X220940476Y-139952380D01*
X221178571Y-138952380D01*
X222083333Y-139952380D02*
X221511904Y-139952380D01*
X221797619Y-139952380D02*
X221797619Y-138952380D01*
X221702380Y-139095238D01*
X221607142Y-139190476D01*
X221511904Y-139238095D01*
D16*
X220861904Y-135133333D02*
X220880952Y-135076190D01*
X220880952Y-134980952D01*
X220861904Y-134942857D01*
X220842857Y-134923809D01*
X220804761Y-134904761D01*
X220766666Y-134904761D01*
X220728571Y-134923809D01*
X220709523Y-134942857D01*
X220690476Y-134980952D01*
X220671428Y-135057142D01*
X220652380Y-135095238D01*
X220633333Y-135114285D01*
X220595238Y-135133333D01*
X220557142Y-135133333D01*
X220519047Y-135114285D01*
X220500000Y-135095238D01*
X220480952Y-135057142D01*
X220480952Y-134961904D01*
X220500000Y-134904761D01*
X220480952Y-134771428D02*
X220880952Y-134676190D01*
X220595238Y-134600000D01*
X220880952Y-134523809D01*
X220480952Y-134428571D01*
X220880952Y-134066666D02*
X220880952Y-134295238D01*
X220880952Y-134180952D02*
X220480952Y-134180952D01*
X220538095Y-134219047D01*
X220576190Y-134257142D01*
X220595238Y-134295238D01*
D11*
%TO.C,K7*%
X95261904Y-92452380D02*
X95261904Y-91452380D01*
X95833333Y-92452380D02*
X95404761Y-91880952D01*
X95833333Y-91452380D02*
X95261904Y-92023809D01*
X96166666Y-91452380D02*
X96833333Y-91452380D01*
X96404761Y-92452380D01*
%TO.C,SW2*%
X213710644Y-111727306D02*
X213693428Y-111577709D01*
X213592804Y-111361921D01*
X213509398Y-111295731D01*
X213446115Y-111272698D01*
X213339676Y-111269790D01*
X213253361Y-111310039D01*
X213187170Y-111393446D01*
X213164137Y-111456728D01*
X213161229Y-111563168D01*
X213198571Y-111755923D01*
X213195662Y-111862363D01*
X213172630Y-111925645D01*
X213106439Y-112009052D01*
X213020124Y-112049301D01*
X212913684Y-112046393D01*
X212850402Y-112023360D01*
X212766995Y-111957170D01*
X212666372Y-111741382D01*
X212649155Y-111591785D01*
X212465125Y-111309807D02*
X213270810Y-110671401D01*
X212542948Y-110800641D01*
X213109812Y-110326141D01*
X212102881Y-110532972D01*
X212048323Y-110190620D02*
X211985041Y-110167587D01*
X211901634Y-110101397D01*
X211801011Y-109885609D01*
X211803919Y-109779169D01*
X211826952Y-109715887D01*
X211893142Y-109632480D01*
X211979457Y-109592231D01*
X212129054Y-109575014D01*
X212888441Y-109851408D01*
X212626820Y-109290361D01*
%TO.C,H3*%
X147598095Y-105202380D02*
X147598095Y-104202380D01*
X147598095Y-104678571D02*
X148169523Y-104678571D01*
X148169523Y-105202380D02*
X148169523Y-104202380D01*
X148550476Y-104202380D02*
X149169523Y-104202380D01*
X148836190Y-104583333D01*
X148979047Y-104583333D01*
X149074285Y-104630952D01*
X149121904Y-104678571D01*
X149169523Y-104773809D01*
X149169523Y-105011904D01*
X149121904Y-105107142D01*
X149074285Y-105154761D01*
X148979047Y-105202380D01*
X148693333Y-105202380D01*
X148598095Y-105154761D01*
X148550476Y-105107142D01*
X142612380Y-105162380D02*
X142136190Y-105162380D01*
X142136190Y-104162380D01*
X143088571Y-105162380D02*
X142993333Y-105114761D01*
X142945714Y-105067142D01*
X142898095Y-104971904D01*
X142898095Y-104686190D01*
X142945714Y-104590952D01*
X142993333Y-104543333D01*
X143088571Y-104495714D01*
X143231428Y-104495714D01*
X143326666Y-104543333D01*
X143374285Y-104590952D01*
X143421904Y-104686190D01*
X143421904Y-104971904D01*
X143374285Y-105067142D01*
X143326666Y-105114761D01*
X143231428Y-105162380D01*
X143088571Y-105162380D01*
X144279047Y-104495714D02*
X144279047Y-105305238D01*
X144231428Y-105400476D01*
X144183809Y-105448095D01*
X144088571Y-105495714D01*
X143945714Y-105495714D01*
X143850476Y-105448095D01*
X144279047Y-105114761D02*
X144183809Y-105162380D01*
X143993333Y-105162380D01*
X143898095Y-105114761D01*
X143850476Y-105067142D01*
X143802857Y-104971904D01*
X143802857Y-104686190D01*
X143850476Y-104590952D01*
X143898095Y-104543333D01*
X143993333Y-104495714D01*
X144183809Y-104495714D01*
X144279047Y-104543333D01*
X144898095Y-105162380D02*
X144802857Y-105114761D01*
X144755238Y-105067142D01*
X144707619Y-104971904D01*
X144707619Y-104686190D01*
X144755238Y-104590952D01*
X144802857Y-104543333D01*
X144898095Y-104495714D01*
X145040952Y-104495714D01*
X145136190Y-104543333D01*
X145183809Y-104590952D01*
X145231428Y-104686190D01*
X145231428Y-104971904D01*
X145183809Y-105067142D01*
X145136190Y-105114761D01*
X145040952Y-105162380D01*
X144898095Y-105162380D01*
%TO.C,H4*%
X122538095Y-78952380D02*
X122538095Y-77952380D01*
X122538095Y-78428571D02*
X123109523Y-78428571D01*
X123109523Y-78952380D02*
X123109523Y-77952380D01*
X124014285Y-78285714D02*
X124014285Y-78952380D01*
X123776190Y-77904761D02*
X123538095Y-78619047D01*
X124157142Y-78619047D01*
%TO.C,H5*%
X113538095Y-127452380D02*
X113538095Y-126452380D01*
X113538095Y-126928571D02*
X114109523Y-126928571D01*
X114109523Y-127452380D02*
X114109523Y-126452380D01*
X115061904Y-126452380D02*
X114585714Y-126452380D01*
X114538095Y-126928571D01*
X114585714Y-126880952D01*
X114680952Y-126833333D01*
X114919047Y-126833333D01*
X115014285Y-126880952D01*
X115061904Y-126928571D01*
X115109523Y-127023809D01*
X115109523Y-127261904D01*
X115061904Y-127357142D01*
X115014285Y-127404761D01*
X114919047Y-127452380D01*
X114680952Y-127452380D01*
X114585714Y-127404761D01*
X114538095Y-127357142D01*
%TO.C,H6*%
X205638095Y-132852380D02*
X205638095Y-131852380D01*
X205638095Y-132328571D02*
X206209523Y-132328571D01*
X206209523Y-132852380D02*
X206209523Y-131852380D01*
X207114285Y-131852380D02*
X206923809Y-131852380D01*
X206828571Y-131900000D01*
X206780952Y-131947619D01*
X206685714Y-132090476D01*
X206638095Y-132280952D01*
X206638095Y-132661904D01*
X206685714Y-132757142D01*
X206733333Y-132804761D01*
X206828571Y-132852380D01*
X207019047Y-132852380D01*
X207114285Y-132804761D01*
X207161904Y-132757142D01*
X207209523Y-132661904D01*
X207209523Y-132423809D01*
X207161904Y-132328571D01*
X207114285Y-132280952D01*
X207019047Y-132233333D01*
X206828571Y-132233333D01*
X206733333Y-132280952D01*
X206685714Y-132328571D01*
X206638095Y-132423809D01*
%TO.C,H7*%
X176538095Y-65952380D02*
X176538095Y-64952380D01*
X176538095Y-65428571D02*
X177109523Y-65428571D01*
X177109523Y-65952380D02*
X177109523Y-64952380D01*
X177490476Y-64952380D02*
X178157142Y-64952380D01*
X177728571Y-65952380D01*
D14*
%TO.C,R1*%
X218477380Y-91596666D02*
X218001190Y-91930000D01*
X218477380Y-92168095D02*
X217477380Y-92168095D01*
X217477380Y-91787142D01*
X217525000Y-91691904D01*
X217572619Y-91644285D01*
X217667857Y-91596666D01*
X217810714Y-91596666D01*
X217905952Y-91644285D01*
X217953571Y-91691904D01*
X218001190Y-91787142D01*
X218001190Y-92168095D01*
X218477380Y-90644285D02*
X218477380Y-91215714D01*
X218477380Y-90930000D02*
X217477380Y-90930000D01*
X217620238Y-91025238D01*
X217715476Y-91120476D01*
X217763095Y-91215714D01*
D15*
X217071190Y-94203333D02*
X216833095Y-94370000D01*
X217071190Y-94489047D02*
X216571190Y-94489047D01*
X216571190Y-94298571D01*
X216595000Y-94250952D01*
X216618809Y-94227142D01*
X216666428Y-94203333D01*
X216737857Y-94203333D01*
X216785476Y-94227142D01*
X216809285Y-94250952D01*
X216833095Y-94298571D01*
X216833095Y-94489047D01*
X217071190Y-93727142D02*
X217071190Y-94012857D01*
X217071190Y-93870000D02*
X216571190Y-93870000D01*
X216642619Y-93917619D01*
X216690238Y-93965238D01*
X216714047Y-94012857D01*
D11*
%TO.C,J3*%
X200700000Y-65948142D02*
X200700000Y-66591000D01*
X200671428Y-66719571D01*
X200614285Y-66805285D01*
X200528571Y-66848142D01*
X200471428Y-66848142D01*
X200928571Y-65948142D02*
X201300000Y-65948142D01*
X201100000Y-66291000D01*
X201185714Y-66291000D01*
X201242857Y-66333857D01*
X201271428Y-66376714D01*
X201300000Y-66462428D01*
X201300000Y-66676714D01*
X201271428Y-66762428D01*
X201242857Y-66805285D01*
X201185714Y-66848142D01*
X201014285Y-66848142D01*
X200957142Y-66805285D01*
X200928571Y-66762428D01*
%TO.C,J5*%
X199150000Y-100078142D02*
X199150000Y-100721000D01*
X199121428Y-100849571D01*
X199064285Y-100935285D01*
X198978571Y-100978142D01*
X198921428Y-100978142D01*
X199721428Y-100078142D02*
X199435714Y-100078142D01*
X199407142Y-100506714D01*
X199435714Y-100463857D01*
X199492857Y-100421000D01*
X199635714Y-100421000D01*
X199692857Y-100463857D01*
X199721428Y-100506714D01*
X199750000Y-100592428D01*
X199750000Y-100806714D01*
X199721428Y-100892428D01*
X199692857Y-100935285D01*
X199635714Y-100978142D01*
X199492857Y-100978142D01*
X199435714Y-100935285D01*
X199407142Y-100892428D01*
%TO.C,JP2*%
X174452380Y-87808333D02*
X175166666Y-87808333D01*
X175309523Y-87855952D01*
X175404761Y-87951190D01*
X175452380Y-88094047D01*
X175452380Y-88189285D01*
X175452380Y-87332142D02*
X174452380Y-87332142D01*
X174452380Y-86951190D01*
X174500000Y-86855952D01*
X174547619Y-86808333D01*
X174642857Y-86760714D01*
X174785714Y-86760714D01*
X174880952Y-86808333D01*
X174928571Y-86855952D01*
X174976190Y-86951190D01*
X174976190Y-87332142D01*
X174547619Y-86379761D02*
X174500000Y-86332142D01*
X174452380Y-86236904D01*
X174452380Y-85998809D01*
X174500000Y-85903571D01*
X174547619Y-85855952D01*
X174642857Y-85808333D01*
X174738095Y-85808333D01*
X174880952Y-85855952D01*
X175452380Y-86427380D01*
X175452380Y-85808333D01*
%TO.C,J6*%
X211560000Y-96776142D02*
X211560000Y-97419000D01*
X211531428Y-97547571D01*
X211474285Y-97633285D01*
X211388571Y-97676142D01*
X211331428Y-97676142D01*
X212102857Y-96776142D02*
X211988571Y-96776142D01*
X211931428Y-96819000D01*
X211902857Y-96861857D01*
X211845714Y-96990428D01*
X211817142Y-97161857D01*
X211817142Y-97504714D01*
X211845714Y-97590428D01*
X211874285Y-97633285D01*
X211931428Y-97676142D01*
X212045714Y-97676142D01*
X212102857Y-97633285D01*
X212131428Y-97590428D01*
X212160000Y-97504714D01*
X212160000Y-97290428D01*
X212131428Y-97204714D01*
X212102857Y-97161857D01*
X212045714Y-97119000D01*
X211931428Y-97119000D01*
X211874285Y-97161857D01*
X211845714Y-97204714D01*
X211817142Y-97290428D01*
D13*
%TO.C,D16*%
X113392857Y-142976190D02*
X113392857Y-142476190D01*
X113511904Y-142476190D01*
X113583333Y-142500000D01*
X113630952Y-142547619D01*
X113654761Y-142595238D01*
X113678571Y-142690476D01*
X113678571Y-142761904D01*
X113654761Y-142857142D01*
X113630952Y-142904761D01*
X113583333Y-142952380D01*
X113511904Y-142976190D01*
X113392857Y-142976190D01*
X114154761Y-142976190D02*
X113869047Y-142976190D01*
X114011904Y-142976190D02*
X114011904Y-142476190D01*
X113964285Y-142547619D01*
X113916666Y-142595238D01*
X113869047Y-142619047D01*
X114583333Y-142476190D02*
X114488095Y-142476190D01*
X114440476Y-142500000D01*
X114416666Y-142523809D01*
X114369047Y-142595238D01*
X114345238Y-142690476D01*
X114345238Y-142880952D01*
X114369047Y-142928571D01*
X114392857Y-142952380D01*
X114440476Y-142976190D01*
X114535714Y-142976190D01*
X114583333Y-142952380D01*
X114607142Y-142928571D01*
X114630952Y-142880952D01*
X114630952Y-142761904D01*
X114607142Y-142714285D01*
X114583333Y-142690476D01*
X114535714Y-142666666D01*
X114440476Y-142666666D01*
X114392857Y-142690476D01*
X114369047Y-142714285D01*
X114345238Y-142761904D01*
%TO.C,D18*%
X149392857Y-142976190D02*
X149392857Y-142476190D01*
X149511904Y-142476190D01*
X149583333Y-142500000D01*
X149630952Y-142547619D01*
X149654761Y-142595238D01*
X149678571Y-142690476D01*
X149678571Y-142761904D01*
X149654761Y-142857142D01*
X149630952Y-142904761D01*
X149583333Y-142952380D01*
X149511904Y-142976190D01*
X149392857Y-142976190D01*
X150154761Y-142976190D02*
X149869047Y-142976190D01*
X150011904Y-142976190D02*
X150011904Y-142476190D01*
X149964285Y-142547619D01*
X149916666Y-142595238D01*
X149869047Y-142619047D01*
X150440476Y-142690476D02*
X150392857Y-142666666D01*
X150369047Y-142642857D01*
X150345238Y-142595238D01*
X150345238Y-142571428D01*
X150369047Y-142523809D01*
X150392857Y-142500000D01*
X150440476Y-142476190D01*
X150535714Y-142476190D01*
X150583333Y-142500000D01*
X150607142Y-142523809D01*
X150630952Y-142571428D01*
X150630952Y-142595238D01*
X150607142Y-142642857D01*
X150583333Y-142666666D01*
X150535714Y-142690476D01*
X150440476Y-142690476D01*
X150392857Y-142714285D01*
X150369047Y-142738095D01*
X150345238Y-142785714D01*
X150345238Y-142880952D01*
X150369047Y-142928571D01*
X150392857Y-142952380D01*
X150440476Y-142976190D01*
X150535714Y-142976190D01*
X150583333Y-142952380D01*
X150607142Y-142928571D01*
X150630952Y-142880952D01*
X150630952Y-142785714D01*
X150607142Y-142738095D01*
X150583333Y-142714285D01*
X150535714Y-142690476D01*
D11*
%TO.C,K21*%
X112785714Y-145452380D02*
X112785714Y-144452380D01*
X113357142Y-145452380D02*
X112928571Y-144880952D01*
X113357142Y-144452380D02*
X112785714Y-145023809D01*
X113738095Y-144547619D02*
X113785714Y-144500000D01*
X113880952Y-144452380D01*
X114119047Y-144452380D01*
X114214285Y-144500000D01*
X114261904Y-144547619D01*
X114309523Y-144642857D01*
X114309523Y-144738095D01*
X114261904Y-144880952D01*
X113690476Y-145452380D01*
X114309523Y-145452380D01*
X115261904Y-145452380D02*
X114690476Y-145452380D01*
X114976190Y-145452380D02*
X114976190Y-144452380D01*
X114880952Y-144595238D01*
X114785714Y-144690476D01*
X114690476Y-144738095D01*
%TO.C,K24*%
X148785714Y-145452380D02*
X148785714Y-144452380D01*
X149357142Y-145452380D02*
X148928571Y-144880952D01*
X149357142Y-144452380D02*
X148785714Y-145023809D01*
X149738095Y-144547619D02*
X149785714Y-144500000D01*
X149880952Y-144452380D01*
X150119047Y-144452380D01*
X150214285Y-144500000D01*
X150261904Y-144547619D01*
X150309523Y-144642857D01*
X150309523Y-144738095D01*
X150261904Y-144880952D01*
X149690476Y-145452380D01*
X150309523Y-145452380D01*
X151166666Y-144785714D02*
X151166666Y-145452380D01*
X150928571Y-144404761D02*
X150690476Y-145119047D01*
X151309523Y-145119047D01*
%TO.C,K26*%
X176588262Y-129025459D02*
X176329443Y-129991385D01*
X176036305Y-128877563D02*
X176302376Y-129540443D01*
X175777486Y-129843489D02*
X176477340Y-129439428D01*
X175434163Y-129652898D02*
X175375842Y-129686570D01*
X175271524Y-129707917D01*
X175041542Y-129646293D01*
X174961874Y-129575647D01*
X174928202Y-129517326D01*
X174906855Y-129413008D01*
X174931505Y-129321015D01*
X175014475Y-129195351D01*
X175714329Y-128791290D01*
X175116375Y-128631068D01*
X174029620Y-129375149D02*
X174213606Y-129424448D01*
X174317923Y-129403101D01*
X174376245Y-129369429D01*
X174505212Y-129256089D01*
X174600507Y-129084428D01*
X174699105Y-128716457D01*
X174677758Y-128612139D01*
X174644086Y-128553818D01*
X174564418Y-128483172D01*
X174380432Y-128433873D01*
X174276114Y-128455220D01*
X174217793Y-128488892D01*
X174147147Y-128568560D01*
X174085523Y-128798542D01*
X174106870Y-128902860D01*
X174140542Y-128961181D01*
X174220210Y-129031827D01*
X174404196Y-129081126D01*
X174508514Y-129059779D01*
X174566835Y-129026107D01*
X174637481Y-128946439D01*
%TO.C,K20*%
X94785714Y-140452380D02*
X94785714Y-139452380D01*
X95357142Y-140452380D02*
X94928571Y-139880952D01*
X95357142Y-139452380D02*
X94785714Y-140023809D01*
X95738095Y-139547619D02*
X95785714Y-139500000D01*
X95880952Y-139452380D01*
X96119047Y-139452380D01*
X96214285Y-139500000D01*
X96261904Y-139547619D01*
X96309523Y-139642857D01*
X96309523Y-139738095D01*
X96261904Y-139880952D01*
X95690476Y-140452380D01*
X96309523Y-140452380D01*
X96928571Y-139452380D02*
X97023809Y-139452380D01*
X97119047Y-139500000D01*
X97166666Y-139547619D01*
X97214285Y-139642857D01*
X97261904Y-139833333D01*
X97261904Y-140071428D01*
X97214285Y-140261904D01*
X97166666Y-140357142D01*
X97119047Y-140404761D01*
X97023809Y-140452380D01*
X96928571Y-140452380D01*
X96833333Y-140404761D01*
X96785714Y-140357142D01*
X96738095Y-140261904D01*
X96690476Y-140071428D01*
X96690476Y-139833333D01*
X96738095Y-139642857D01*
X96785714Y-139547619D01*
X96833333Y-139500000D01*
X96928571Y-139452380D01*
D13*
%TO.C,D17*%
X123376190Y-101607142D02*
X122876190Y-101607142D01*
X122876190Y-101488095D01*
X122900000Y-101416666D01*
X122947619Y-101369047D01*
X122995238Y-101345238D01*
X123090476Y-101321428D01*
X123161904Y-101321428D01*
X123257142Y-101345238D01*
X123304761Y-101369047D01*
X123352380Y-101416666D01*
X123376190Y-101488095D01*
X123376190Y-101607142D01*
X123376190Y-100845238D02*
X123376190Y-101130952D01*
X123376190Y-100988095D02*
X122876190Y-100988095D01*
X122947619Y-101035714D01*
X122995238Y-101083333D01*
X123019047Y-101130952D01*
X122876190Y-100678571D02*
X122876190Y-100345238D01*
X123376190Y-100559523D01*
D11*
%TO.C,K23*%
X130735714Y-134452380D02*
X130735714Y-133452380D01*
X131307142Y-134452380D02*
X130878571Y-133880952D01*
X131307142Y-133452380D02*
X130735714Y-134023809D01*
X131688095Y-133547619D02*
X131735714Y-133500000D01*
X131830952Y-133452380D01*
X132069047Y-133452380D01*
X132164285Y-133500000D01*
X132211904Y-133547619D01*
X132259523Y-133642857D01*
X132259523Y-133738095D01*
X132211904Y-133880952D01*
X131640476Y-134452380D01*
X132259523Y-134452380D01*
X132592857Y-133452380D02*
X133211904Y-133452380D01*
X132878571Y-133833333D01*
X133021428Y-133833333D01*
X133116666Y-133880952D01*
X133164285Y-133928571D01*
X133211904Y-134023809D01*
X133211904Y-134261904D01*
X133164285Y-134357142D01*
X133116666Y-134404761D01*
X133021428Y-134452380D01*
X132735714Y-134452380D01*
X132640476Y-134404761D01*
X132592857Y-134357142D01*
%TO.C,U1*%
X195840000Y-64302000D02*
X213620000Y-64302000D01*
X197155000Y-63032000D02*
X214935000Y-63032000D01*
X197155000Y-96052000D02*
X197155000Y-63032000D01*
X195840000Y-97322000D02*
X195840000Y-64302000D01*
X213620000Y-97322000D02*
X195840000Y-97322000D01*
X213620000Y-64302000D02*
X213620000Y-97322000D01*
X214935000Y-63032000D02*
X214935000Y-96052000D01*
X214935000Y-96052000D02*
X197155000Y-96052000D01*
D17*
%TO.C,K22*%
X126000000Y-115200000D02*
X138000000Y-115200000D01*
X137000000Y-126800000D02*
X126000000Y-126800000D01*
X138000000Y-125700000D02*
X137000000Y-126800000D01*
X138000000Y-115200000D02*
X138000000Y-125700000D01*
X126000000Y-126800000D02*
X126000000Y-115200000D01*
D12*
%TO.C,D7*%
X113050000Y-77950000D02*
X112480000Y-77400000D01*
X112480000Y-76550000D02*
X115520000Y-76550000D01*
X112480000Y-77400000D02*
X112480000Y-76550000D01*
X115520000Y-77950000D02*
X115520000Y-76550000D01*
X113800000Y-78450000D02*
X114200000Y-78450000D01*
X114000000Y-78150000D02*
X113800000Y-78450000D01*
X113800000Y-78150000D02*
X114200000Y-78150000D01*
X113050000Y-77950000D02*
X115500000Y-77950000D01*
X114000000Y-78450000D02*
X114000000Y-78700000D01*
X114200000Y-78450000D02*
X114000000Y-78150000D01*
X114000000Y-78150000D02*
X114000000Y-77900000D01*
%TO.C,D13*%
X112480000Y-120900000D02*
X112480000Y-120050000D01*
X113050000Y-121450000D02*
X115500000Y-121450000D01*
X112480000Y-120050000D02*
X115520000Y-120050000D01*
X113800000Y-121950000D02*
X114200000Y-121950000D01*
X115520000Y-121450000D02*
X115520000Y-120050000D01*
X113050000Y-121450000D02*
X112480000Y-120900000D01*
X114200000Y-121950000D02*
X114000000Y-121650000D01*
X114000000Y-121650000D02*
X114000000Y-121400000D01*
X114000000Y-121650000D02*
X113800000Y-121950000D01*
X113800000Y-121650000D02*
X114200000Y-121650000D01*
X114000000Y-121950000D02*
X114000000Y-122200000D01*
%TO.C,D8*%
X132000000Y-66500000D02*
X132000000Y-66750000D01*
X132000000Y-66200000D02*
X132000000Y-65950000D01*
X131050000Y-66000000D02*
X133500000Y-66000000D01*
X132000000Y-66200000D02*
X131800000Y-66500000D01*
X130480000Y-65450000D02*
X130480000Y-64600000D01*
X131800000Y-66200000D02*
X132200000Y-66200000D01*
X132200000Y-66500000D02*
X132000000Y-66200000D01*
X133520000Y-66000000D02*
X133520000Y-64600000D01*
X131800000Y-66500000D02*
X132200000Y-66500000D01*
X131050000Y-66000000D02*
X130480000Y-65450000D01*
X130480000Y-64600000D02*
X133520000Y-64600000D01*
%TO.C,D10*%
X114000000Y-95500000D02*
X114000000Y-95750000D01*
X112480000Y-94450000D02*
X112480000Y-93600000D01*
X113050000Y-95000000D02*
X115500000Y-95000000D01*
X112480000Y-93600000D02*
X115520000Y-93600000D01*
X113050000Y-95000000D02*
X112480000Y-94450000D01*
X113800000Y-95200000D02*
X114200000Y-95200000D01*
X114000000Y-95200000D02*
X113800000Y-95500000D01*
X115520000Y-95000000D02*
X115520000Y-93600000D01*
X113800000Y-95500000D02*
X114200000Y-95500000D01*
X114200000Y-95500000D02*
X114000000Y-95200000D01*
X114000000Y-95200000D02*
X114000000Y-94950000D01*
%TO.C,D11*%
X131800000Y-83500000D02*
X132200000Y-83500000D01*
X132200000Y-83500000D02*
X132000000Y-83200000D01*
X132000000Y-83500000D02*
X132000000Y-83750000D01*
X132000000Y-83200000D02*
X132000000Y-82950000D01*
X132000000Y-83200000D02*
X131800000Y-83500000D01*
X130480000Y-82450000D02*
X130480000Y-81600000D01*
X131800000Y-83200000D02*
X132200000Y-83200000D01*
X131050000Y-83000000D02*
X130480000Y-82450000D01*
X131050000Y-83000000D02*
X133500000Y-83000000D01*
X133520000Y-83000000D02*
X133520000Y-81600000D01*
X130480000Y-81600000D02*
X133520000Y-81600000D01*
%TO.C,D14*%
X131050000Y-100000000D02*
X133500000Y-100000000D01*
X130480000Y-99450000D02*
X130480000Y-98600000D01*
X131050000Y-100000000D02*
X130480000Y-99450000D01*
X131800000Y-100200000D02*
X132200000Y-100200000D01*
X133520000Y-100000000D02*
X133520000Y-98600000D01*
X131800000Y-100500000D02*
X132200000Y-100500000D01*
X132000000Y-100200000D02*
X131800000Y-100500000D01*
X132000000Y-100500000D02*
X132000000Y-100750000D01*
X132200000Y-100500000D02*
X132000000Y-100200000D01*
X132000000Y-100200000D02*
X132000000Y-99950000D01*
X130480000Y-98600000D02*
X133520000Y-98600000D01*
%TO.C,D9*%
X166480000Y-63100000D02*
X169520000Y-63100000D01*
X168000000Y-64700000D02*
X168000000Y-64450000D01*
X167050000Y-64500000D02*
X166480000Y-63950000D01*
X167800000Y-65000000D02*
X168200000Y-65000000D01*
X168000000Y-64700000D02*
X167800000Y-65000000D01*
X167800000Y-64700000D02*
X168200000Y-64700000D01*
X166480000Y-63950000D02*
X166480000Y-63100000D01*
X168000000Y-65000000D02*
X168000000Y-65250000D01*
X167050000Y-64500000D02*
X169500000Y-64500000D01*
X169520000Y-64500000D02*
X169520000Y-63100000D01*
X168200000Y-65000000D02*
X168000000Y-64700000D01*
%TO.C,D12*%
X168000000Y-81700000D02*
X168000000Y-81450000D01*
X168000000Y-82000000D02*
X168000000Y-82250000D01*
X168000000Y-81700000D02*
X167800000Y-82000000D01*
X167050000Y-81500000D02*
X166480000Y-80950000D01*
X166480000Y-80100000D02*
X169520000Y-80100000D01*
X167800000Y-81700000D02*
X168200000Y-81700000D01*
X169520000Y-81500000D02*
X169520000Y-80100000D01*
X167050000Y-81500000D02*
X169500000Y-81500000D01*
X168200000Y-82000000D02*
X168000000Y-81700000D01*
X166480000Y-80950000D02*
X166480000Y-80100000D01*
X167800000Y-82000000D02*
X168200000Y-82000000D01*
%TO.C,D15*%
X166480000Y-97950000D02*
X166480000Y-97100000D01*
X168000000Y-99000000D02*
X168000000Y-99250000D01*
X167050000Y-98500000D02*
X169500000Y-98500000D01*
X167800000Y-99000000D02*
X168200000Y-99000000D01*
X169520000Y-98500000D02*
X169520000Y-97100000D01*
X166480000Y-97100000D02*
X169520000Y-97100000D01*
X167050000Y-98500000D02*
X166480000Y-97950000D01*
X168200000Y-99000000D02*
X168000000Y-98700000D01*
X168000000Y-98700000D02*
X168000000Y-98450000D01*
X167800000Y-98700000D02*
X168200000Y-98700000D01*
X168000000Y-98700000D02*
X167800000Y-99000000D01*
D17*
%TO.C,K25*%
X151500000Y-114800000D02*
X152500000Y-113700000D01*
X152500000Y-113700000D02*
X163500000Y-113700000D01*
X163500000Y-113700000D02*
X163500000Y-125300000D01*
X151500000Y-125300000D02*
X151500000Y-114800000D01*
X163500000Y-125300000D02*
X151500000Y-125300000D01*
D12*
%TO.C,D20*%
X175389783Y-128033864D02*
X175776153Y-128137392D01*
X175582968Y-128085628D02*
X175518263Y-128327109D01*
X177180585Y-127996070D02*
X177542932Y-126643774D01*
X175776153Y-128137392D02*
X175660614Y-127795850D01*
X174606517Y-125856964D02*
X177542932Y-126643774D01*
X174794748Y-127356787D02*
X174386521Y-126678001D01*
X175660614Y-127795850D02*
X175389783Y-128033864D01*
X174386521Y-126678001D02*
X174606517Y-125856964D01*
X174794748Y-127356787D02*
X177161266Y-127990894D01*
X175660614Y-127795850D02*
X175725319Y-127554369D01*
X175467429Y-127744086D02*
X175853799Y-127847614D01*
%TO.C,D21*%
X208396774Y-147084427D02*
X209386723Y-146094478D01*
X206968418Y-146363178D02*
X206791641Y-146539955D01*
X206650220Y-145337873D02*
X206636078Y-144545914D01*
X206826997Y-146221757D02*
X207109839Y-146504599D01*
X206636078Y-144545914D02*
X207237118Y-143944873D01*
X207237118Y-143944873D02*
X209386723Y-146094478D01*
X207180550Y-146151046D02*
X207357327Y-145974269D01*
X207109839Y-146504599D02*
X207180550Y-146151046D01*
X207039129Y-146009625D02*
X207321971Y-146292467D01*
X206650220Y-145337873D02*
X208382631Y-147070285D01*
X207180550Y-146151046D02*
X206826997Y-146221757D01*
%TO.C,D19*%
X171960000Y-112500000D02*
X171390000Y-111950000D01*
X171960000Y-112500000D02*
X174410000Y-112500000D01*
X172710000Y-112700000D02*
X173110000Y-112700000D01*
X172910000Y-112700000D02*
X172710000Y-113000000D01*
X174430000Y-112500000D02*
X174430000Y-111100000D01*
X172910000Y-113000000D02*
X172910000Y-113250000D01*
X171390000Y-111950000D02*
X171390000Y-111100000D01*
X173110000Y-113000000D02*
X172910000Y-112700000D01*
X172910000Y-112700000D02*
X172910000Y-112450000D01*
X172710000Y-113000000D02*
X173110000Y-113000000D01*
X171390000Y-111100000D02*
X174430000Y-111100000D01*
D17*
%TO.C,K19*%
X206824429Y-122397808D02*
X205408404Y-122850436D01*
X195882125Y-117350436D02*
X201682125Y-107304541D01*
X205408404Y-122850436D02*
X195882125Y-117350436D01*
X212074429Y-113304541D02*
X206824429Y-122397808D01*
X201682125Y-107304541D02*
X212074429Y-113304541D01*
D12*
%TO.C,R2*%
X217495000Y-87020000D02*
X217495000Y-89020000D01*
X217495000Y-89020000D02*
X216245000Y-89020000D01*
X216245000Y-89020000D02*
X216245000Y-87020000D01*
X216245000Y-87020000D02*
X217495000Y-87020000D01*
%TO.C,J1*%
X205120000Y-103497500D02*
X205120000Y-100957500D01*
X205120000Y-100957500D02*
X217185000Y-100957500D01*
X217185000Y-100957500D02*
X217820000Y-101592500D01*
X217820000Y-103497500D02*
X205120000Y-103497500D01*
X217820000Y-101592500D02*
X217820000Y-103497500D01*
%TO.C,C1*%
X204500000Y-64095000D02*
X206500000Y-64095000D01*
X206500000Y-65345000D02*
X204500000Y-65345000D01*
X204500000Y-65345000D02*
X204500000Y-64095000D01*
X206500000Y-64095000D02*
X206500000Y-65345000D01*
%TO.C,SW1*%
X219300000Y-132000000D02*
X222100000Y-132000000D01*
X219300000Y-137200000D02*
X218100000Y-136000000D01*
X219750000Y-132735000D02*
X221650000Y-132735000D01*
X222565000Y-133650000D02*
X221650000Y-132735000D01*
X223300000Y-136000000D02*
X222100000Y-137200000D01*
X222565000Y-135550000D02*
X221650000Y-136465000D01*
X222100000Y-137200000D02*
X219300000Y-137200000D01*
X222565000Y-133650000D02*
X222565000Y-135550000D01*
X218100000Y-136000000D02*
X218100000Y-133200000D01*
X221650000Y-136465000D02*
X219750000Y-136465000D01*
X218835000Y-135550000D02*
X219750000Y-136465000D01*
X218100000Y-133200000D02*
X219300000Y-132000000D01*
X222100000Y-132000000D02*
X223300000Y-133200000D01*
X218835000Y-133650000D02*
X219750000Y-132735000D01*
X223300000Y-133200000D02*
X223300000Y-136000000D01*
X218835000Y-135550000D02*
X218835000Y-133650000D01*
X221700000Y-134600000D02*
G75*
G03*
X221700000Y-134600000I-1000000J0D01*
G01*
%TO.C,R1*%
X216220000Y-93120000D02*
X217470000Y-93120000D01*
X216220000Y-95120000D02*
X216220000Y-93120000D01*
X217470000Y-95120000D02*
X216220000Y-95120000D01*
X217470000Y-93120000D02*
X217470000Y-95120000D01*
%TO.C,D16*%
X112480000Y-142050000D02*
X115520000Y-142050000D01*
X113800000Y-143950000D02*
X114200000Y-143950000D01*
X115520000Y-143450000D02*
X115520000Y-142050000D01*
X113050000Y-143450000D02*
X115500000Y-143450000D01*
X114000000Y-143650000D02*
X114000000Y-143400000D01*
X113800000Y-143650000D02*
X114200000Y-143650000D01*
X113050000Y-143450000D02*
X112480000Y-142900000D01*
X114000000Y-143950000D02*
X114000000Y-144200000D01*
X114200000Y-143950000D02*
X114000000Y-143650000D01*
X112480000Y-142900000D02*
X112480000Y-142050000D01*
X114000000Y-143650000D02*
X113800000Y-143950000D01*
%TO.C,D18*%
X150000000Y-143650000D02*
X150000000Y-143400000D01*
X151520000Y-143450000D02*
X151520000Y-142050000D01*
X150000000Y-143950000D02*
X150000000Y-144200000D01*
X149050000Y-143450000D02*
X148480000Y-142900000D01*
X149800000Y-143950000D02*
X150200000Y-143950000D01*
X149050000Y-143450000D02*
X151500000Y-143450000D01*
X150000000Y-143650000D02*
X149800000Y-143950000D01*
X150200000Y-143950000D02*
X150000000Y-143650000D01*
X149800000Y-143650000D02*
X150200000Y-143650000D01*
X148480000Y-142900000D02*
X148480000Y-142050000D01*
X148480000Y-142050000D02*
X151520000Y-142050000D01*
%TO.C,D17*%
X123850000Y-101950000D02*
X123850000Y-99500000D01*
X123300000Y-102520000D02*
X122450000Y-102520000D01*
X124050000Y-101000000D02*
X123800000Y-101000000D01*
X124350000Y-101000000D02*
X124600000Y-101000000D01*
X123850000Y-101950000D02*
X123300000Y-102520000D01*
X124350000Y-100800000D02*
X124050000Y-101000000D01*
X124350000Y-101200000D02*
X124350000Y-100800000D01*
X122450000Y-102520000D02*
X122450000Y-99480000D01*
X124050000Y-101200000D02*
X124050000Y-100800000D01*
X124050000Y-101000000D02*
X124350000Y-101200000D01*
X123850000Y-99480000D02*
X122450000Y-99480000D01*
D17*
%TO.C,K23*%
X138000000Y-132200000D02*
X138000000Y-142700000D01*
X137000000Y-143800000D02*
X126000000Y-143800000D01*
X126000000Y-132200000D02*
X138000000Y-132200000D01*
X138000000Y-142700000D02*
X137000000Y-143800000D01*
X126000000Y-143800000D02*
X126000000Y-132200000D01*
%TD*%
M02*
