%TF.GenerationSoftware,KiCad,Pcbnew,(6.0.1-0)*%
%TF.CreationDate,2022-01-24T00:31:25-08:00*%
%TF.ProjectId,hillside56,68696c6c-7369-4646-9535-362e6b696361,0.1.0-alpha*%
%TF.SameCoordinates,Original*%
%TF.FileFunction,Profile,NP*%
%FSLAX46Y46*%
G04 Gerber Fmt 4.6, Leading zero omitted, Abs format (unit mm)*
G04 Created by KiCad (PCBNEW (6.0.1-0)) date 2022-01-24 00:31:25*
%MOMM*%
%LPD*%
G01*
G04 APERTURE LIST*
%TA.AperFunction,Profile*%
%ADD10C,0.050000*%
%TD*%
%ADD11C,0.050000*%
%TA.AperFunction,Profile*%
%ADD12C,0.120000*%
%TD*%
G04 APERTURE END LIST*
D10*
X157750000Y-54500000D02*
X143010000Y-54500000D01*
X222226474Y-144533863D02*
X212945238Y-153817984D01*
X86500000Y-75750000D02*
X86500000Y-139250000D01*
X216750000Y-64500000D02*
G75*
G03*
X214750000Y-62500000I-1999999J1D01*
G01*
X224075326Y-138290747D02*
X224075326Y-119966984D01*
X105500000Y-101500000D02*
G75*
G03*
X104500000Y-101500000I-500000J0D01*
G01*
X105500000Y-101500000D02*
X105500000Y-113500000D01*
X221000000Y-105510000D02*
X221000000Y-75795534D01*
X104500000Y-96500000D02*
X104500000Y-77500000D01*
D11*
X201550000Y-62500000D02*
X200487484Y-62477050D01*
X199523315Y-62410156D01*
X198645681Y-62302246D01*
X197842773Y-62156250D01*
X197102780Y-61975097D01*
X196413891Y-61761718D01*
X195764297Y-61519042D01*
X195142187Y-61250000D01*
X194535751Y-60957519D01*
X193933178Y-60644531D01*
X193322659Y-60313964D01*
X192692382Y-59968750D01*
X192030538Y-59611816D01*
X191325317Y-59246093D01*
X190564907Y-58874511D01*
X189737500Y-58500000D01*
X188831283Y-58125488D01*
X187834448Y-57753906D01*
X186735183Y-57388183D01*
X185521679Y-57031250D01*
X184182125Y-56686035D01*
X182704711Y-56355468D01*
X181077627Y-56042480D01*
X179289062Y-55750000D01*
X177327206Y-55480957D01*
X175180249Y-55238281D01*
X172836380Y-55024902D01*
X170283789Y-54843750D01*
X167510665Y-54697753D01*
X164505200Y-54589843D01*
X161255581Y-54522949D01*
X157750000Y-54500000D01*
X143010000Y-54500000D02*
X140775204Y-54553637D01*
X138661755Y-54709960D01*
X136662618Y-54962084D01*
X134770761Y-55303125D01*
X132979151Y-55726196D01*
X131280754Y-56224414D01*
X129668537Y-56790893D01*
X128135468Y-57418750D01*
X126674513Y-58101098D01*
X125278640Y-58831054D01*
X123940814Y-59601733D01*
X122654003Y-60406250D01*
X121411175Y-61237719D01*
X120205295Y-62089257D01*
X119029331Y-62953979D01*
X117876250Y-63825000D01*
X116739018Y-64695434D01*
X115610603Y-65558398D01*
X114483971Y-66407006D01*
X113352089Y-67234375D01*
X112207925Y-68033618D01*
X111044445Y-68797851D01*
X109854617Y-69520190D01*
X108631406Y-70193750D01*
X107367780Y-70811645D01*
X106056706Y-71366992D01*
X104691151Y-71852905D01*
X103264082Y-72262500D01*
X101768465Y-72588891D01*
X100197268Y-72825195D01*
X98543457Y-72964526D01*
X96800000Y-73000000D01*
D10*
X105500000Y-77500000D02*
X105500000Y-96500000D01*
D11*
X222226474Y-144533863D02*
X222380762Y-144378331D01*
X222526263Y-144216462D01*
X222663232Y-144048634D01*
X222791925Y-143875226D01*
X222912599Y-143696616D01*
X223025509Y-143513182D01*
X223130912Y-143325304D01*
X223229064Y-143133360D01*
X223320221Y-142937727D01*
X223404639Y-142738785D01*
X223482574Y-142536912D01*
X223554283Y-142332486D01*
X223620021Y-142125886D01*
X223680045Y-141917490D01*
X223734611Y-141707677D01*
X223783975Y-141496826D01*
X223828392Y-141285314D01*
X223868120Y-141073520D01*
X223903415Y-140861823D01*
X223934532Y-140650600D01*
X223961727Y-140440232D01*
X223985258Y-140231095D01*
X224005379Y-140023569D01*
X224022348Y-139818031D01*
X224036419Y-139614861D01*
X224047850Y-139414437D01*
X224056897Y-139217137D01*
X224063815Y-139023340D01*
X224068860Y-138833423D01*
X224072290Y-138647767D01*
X224074360Y-138466748D01*
X224075326Y-138290747D01*
D10*
X96800000Y-73000000D02*
X89250000Y-73000000D01*
D11*
X206265000Y-151580000D02*
X205612141Y-150971127D01*
X204939141Y-150340661D01*
X204246398Y-149691266D01*
X203534306Y-149025605D01*
X202803263Y-148346343D01*
X202053665Y-147656145D01*
X201285909Y-146957673D01*
X200500390Y-146253593D01*
X199697506Y-145546569D01*
X198877652Y-144839265D01*
X198041226Y-144134344D01*
X197188623Y-143434472D01*
X196320240Y-142742312D01*
X195436473Y-142060529D01*
X194537719Y-141391787D01*
X193624375Y-140738750D01*
X192696836Y-140104081D01*
X191755499Y-139490446D01*
X190800760Y-138900509D01*
X189833017Y-138336933D01*
X188852665Y-137802383D01*
X187860101Y-137299523D01*
X186855721Y-136831018D01*
X185839921Y-136399531D01*
X184813099Y-136007726D01*
X183775650Y-135658269D01*
X182727971Y-135353822D01*
X181670458Y-135097050D01*
X180603509Y-134890618D01*
X179527518Y-134737189D01*
X178442883Y-134639429D01*
X177350000Y-134600000D01*
X221000000Y-75795534D02*
X220987808Y-75448541D01*
X220952270Y-75109518D01*
X220894943Y-74777963D01*
X220817382Y-74453375D01*
X220721145Y-74135253D01*
X220607788Y-73823097D01*
X220478866Y-73516406D01*
X220335937Y-73214678D01*
X220180557Y-72917413D01*
X220014282Y-72624110D01*
X219838668Y-72334268D01*
X219655273Y-72047386D01*
X219465652Y-71762963D01*
X219271362Y-71480499D01*
X219073959Y-71199492D01*
X218875000Y-70919441D01*
X218676040Y-70639847D01*
X218478637Y-70360207D01*
X218284347Y-70080021D01*
X218094726Y-69798787D01*
X217911331Y-69516006D01*
X217735717Y-69231177D01*
X217569442Y-68943797D01*
X217414062Y-68653367D01*
X217271133Y-68359386D01*
X217142211Y-68061352D01*
X217028854Y-67758765D01*
X216932617Y-67451124D01*
X216855056Y-67137927D01*
X216797729Y-66818675D01*
X216762191Y-66492866D01*
X216750000Y-66160000D01*
D10*
X105500000Y-77500000D02*
G75*
G03*
X104500000Y-77500000I-500000J0D01*
G01*
X96750000Y-142000000D02*
X89250000Y-142000000D01*
X104500000Y-140750000D02*
X104500000Y-118500000D01*
X216750000Y-64500000D02*
X216750000Y-66160000D01*
D11*
X177350000Y-134600000D02*
X176076199Y-134635571D01*
X174877563Y-134739257D01*
X173750741Y-134906518D01*
X172692382Y-135132812D01*
X171699136Y-135413598D01*
X170767651Y-135744335D01*
X169894577Y-136120483D01*
X169076562Y-136537500D01*
X168310256Y-136990844D01*
X167592309Y-137475976D01*
X166919369Y-137988354D01*
X166288085Y-138523437D01*
X165695108Y-139076684D01*
X165137084Y-139643554D01*
X164610665Y-140219506D01*
X164112500Y-140800000D01*
X163639236Y-141380493D01*
X163187524Y-141956445D01*
X162754013Y-142523315D01*
X162335351Y-143076562D01*
X161928189Y-143611645D01*
X161529174Y-144124023D01*
X161134957Y-144609155D01*
X160742187Y-145062500D01*
X160347512Y-145479516D01*
X159947583Y-145855664D01*
X159539047Y-146186401D01*
X159118554Y-146467187D01*
X158682754Y-146693481D01*
X158228295Y-146860742D01*
X157751828Y-146964428D01*
X157250000Y-147000000D01*
D10*
X86500000Y-139250000D02*
G75*
G03*
X89250000Y-142000000I2749989J-11D01*
G01*
D11*
X224075326Y-119966984D02*
X224066503Y-119288388D01*
X224040788Y-118650898D01*
X223999306Y-118051865D01*
X223943183Y-117488643D01*
X223873545Y-116958584D01*
X223791519Y-116459041D01*
X223698230Y-115987367D01*
X223594806Y-115540915D01*
X223482372Y-115117037D01*
X223362054Y-114713087D01*
X223234979Y-114326417D01*
X223102273Y-113954380D01*
X222965062Y-113594330D01*
X222824473Y-113243618D01*
X222681631Y-112899598D01*
X222537663Y-112559623D01*
X222393694Y-112221044D01*
X222250852Y-111881217D01*
X222110263Y-111537492D01*
X221973052Y-111187223D01*
X221840346Y-110827763D01*
X221713271Y-110456465D01*
X221592953Y-110070681D01*
X221480519Y-109667765D01*
X221377095Y-109245069D01*
X221283806Y-108799945D01*
X221201780Y-108329748D01*
X221132142Y-107831830D01*
X221076019Y-107303543D01*
X221034537Y-106742240D01*
X221008822Y-106145275D01*
X221000000Y-105510000D01*
X96750000Y-142000000D02*
X97020442Y-142014343D01*
X97279357Y-142056152D01*
X97527818Y-142123596D01*
X97766894Y-142214843D01*
X97997657Y-142328063D01*
X98221179Y-142461425D01*
X98438529Y-142613098D01*
X98650781Y-142781250D01*
X98859004Y-142964050D01*
X99064270Y-143159667D01*
X99267649Y-143366271D01*
X99470214Y-143582031D01*
X99673036Y-143805114D01*
X99877185Y-144033691D01*
X100083732Y-144265930D01*
X100293750Y-144500000D01*
X100508308Y-144734069D01*
X100728479Y-144966308D01*
X100955332Y-145194885D01*
X101189941Y-145417968D01*
X101433375Y-145633728D01*
X101686706Y-145840332D01*
X101951005Y-146035949D01*
X102227343Y-146218750D01*
X102516792Y-146386901D01*
X102820422Y-146538574D01*
X103139305Y-146671936D01*
X103474511Y-146785156D01*
X103827113Y-146876403D01*
X104198181Y-146943847D01*
X104588786Y-146985656D01*
X105000000Y-147000000D01*
D10*
X104500000Y-140750000D02*
G75*
G03*
X105500000Y-140750000I500000J0D01*
G01*
X104500000Y-113500000D02*
X104500000Y-101500000D01*
X105500000Y-118500000D02*
X105500000Y-140750000D01*
X125675000Y-147000000D02*
X105000000Y-147000000D01*
X126429000Y-129679000D02*
G75*
G03*
X126429000Y-129679000I-3429000J0D01*
G01*
X138625000Y-147000000D02*
X125675000Y-147000000D01*
X105500000Y-118500000D02*
G75*
G03*
X104500000Y-118500000I-500000J0D01*
G01*
X214750000Y-62500000D02*
X201550000Y-62500000D01*
X104500000Y-96500000D02*
G75*
G03*
X105500000Y-96500000I500000J0D01*
G01*
X157250000Y-147000000D02*
X138625000Y-147000000D01*
X104500000Y-113500000D02*
G75*
G03*
X105500000Y-113500000I500000J0D01*
G01*
D11*
X212945238Y-153817984D02*
X212778328Y-153961878D01*
X212601560Y-154082562D01*
X212415649Y-154180976D01*
X212221311Y-154258063D01*
X212019262Y-154314763D01*
X211810217Y-154352019D01*
X211594894Y-154370771D01*
X211374006Y-154371962D01*
X211148271Y-154356532D01*
X210918404Y-154325424D01*
X210685122Y-154279578D01*
X210449140Y-154219937D01*
X210211173Y-154147442D01*
X209971939Y-154063034D01*
X209732152Y-153967656D01*
X209492529Y-153862248D01*
X209253786Y-153747751D01*
X209016638Y-153625109D01*
X208781802Y-153495262D01*
X208549993Y-153359151D01*
X208321927Y-153217719D01*
X208098320Y-153071906D01*
X207879888Y-152922654D01*
X207667347Y-152770906D01*
X207461413Y-152617601D01*
X207262801Y-152463683D01*
X207072228Y-152310091D01*
X206890410Y-152157769D01*
X206718062Y-152007657D01*
X206555900Y-151860697D01*
X206404641Y-151717831D01*
X206265000Y-151580000D01*
D10*
X89250000Y-73000000D02*
G75*
G03*
X86500000Y-75750000I-11J-2749989D01*
G01*
D12*
%TO.C,D3*%
X182446927Y-113456580D02*
X184185594Y-113922454D01*
X184958334Y-114129510D02*
X184181877Y-117027287D01*
X180897730Y-116147302D02*
X181674187Y-113249525D01*
X183409137Y-116820232D02*
X181670470Y-116354358D01*
X180897730Y-116147302D02*
G75*
G03*
X181670470Y-116354358I386370J-103528D01*
G01*
X182446927Y-113456580D02*
G75*
G03*
X181674187Y-113249525I-386370J103527D01*
G01*
X184958334Y-114129510D02*
G75*
G03*
X184185594Y-113922454I-386370J103528D01*
G01*
X183409137Y-116820232D02*
G75*
G03*
X184181877Y-117027287I386370J-103527D01*
G01*
%TO.C,D5*%
X126030000Y-114110000D02*
X126030000Y-111110000D01*
X126830000Y-111110000D02*
X128630000Y-111110000D01*
X129430000Y-111110000D02*
X129430000Y-114110000D01*
X128630000Y-114110000D02*
X126830000Y-114110000D01*
X126830000Y-111110000D02*
G75*
G03*
X126030000Y-111110000I-400000J0D01*
G01*
X126030000Y-114110000D02*
G75*
G03*
X126830000Y-114110000I400000J0D01*
G01*
X129430000Y-111110000D02*
G75*
G03*
X128630000Y-111110000I-400000J0D01*
G01*
X128630000Y-114110000D02*
G75*
G03*
X129430000Y-114110000I400000J0D01*
G01*
%TO.C,D2*%
X199637740Y-121129841D02*
X201196586Y-122029841D01*
X197444920Y-123327917D02*
X198944920Y-120729841D01*
X201889406Y-122429841D02*
X200389406Y-125027917D01*
X199696586Y-124627917D02*
X198137740Y-123727917D01*
X201889406Y-122429841D02*
G75*
G03*
X201196586Y-122029841I-346410J200000D01*
G01*
X199637740Y-121129841D02*
G75*
G03*
X198944920Y-120729841I-346410J200000D01*
G01*
X197444920Y-123327917D02*
G75*
G03*
X198137740Y-123727917I346410J-200000D01*
G01*
X199696586Y-124627917D02*
G75*
G03*
X200389406Y-125027917I346410J-200000D01*
G01*
%TO.C,D4*%
X163168488Y-109515922D02*
X163168488Y-112515922D01*
X162368488Y-112515922D02*
X160568488Y-112515922D01*
X160568488Y-109515922D02*
X162368488Y-109515922D01*
X159768488Y-112515922D02*
X159768488Y-109515922D01*
X163168488Y-109515922D02*
G75*
G03*
X162368488Y-109515922I-400000J0D01*
G01*
X159768488Y-112515922D02*
G75*
G03*
X160568488Y-112515922I400000J0D01*
G01*
X162368488Y-112515922D02*
G75*
G03*
X163168488Y-112515922I400000J0D01*
G01*
X160568488Y-109515922D02*
G75*
G03*
X159768488Y-109515922I-400000J0D01*
G01*
%TO.C,D1*%
X207323699Y-105943360D02*
X205823699Y-108541436D01*
X205072033Y-104643360D02*
X206630879Y-105543360D01*
X205130879Y-108141436D02*
X203572033Y-107241436D01*
X202879213Y-106841436D02*
X204379213Y-104243360D01*
X202879213Y-106841436D02*
G75*
G03*
X203572033Y-107241436I346410J-200000D01*
G01*
X205072033Y-104643360D02*
G75*
G03*
X204379213Y-104243360I-346410J200000D01*
G01*
X207323699Y-105943360D02*
G75*
G03*
X206630879Y-105543360I-346410J200000D01*
G01*
X205130879Y-108141436D02*
G75*
G03*
X205823699Y-108541436I346410J-200000D01*
G01*
%TD*%
M02*
