M48
; DRILL file {KiCad (6.0.1-0)} date Monday, January 24, 2022 at 12:31:30 AM
; FORMAT={-:-/ absolute / inch / decimal}
; #@! TF.CreationDate,2022-01-24T00:31:30-08:00
; #@! TF.GenerationSoftware,Kicad,Pcbnew,(6.0.1-0)
; #@! TF.FileFunction,NonPlated,1,2,NPTH
FMAT,2
INCH
; #@! TA.AperFunction,NonPlated,NPTH,ComponentDrill
T1C0.0472
; #@! TA.AperFunction,NonPlated,NPTH,ComponentDrill
T2C0.0591
; #@! TA.AperFunction,NonPlated,NPTH,ComponentDrill
T3C0.0669
; #@! TA.AperFunction,NonPlated,NPTH,ComponentDrill
T4C0.1339
%
G90
G05
T1
X8.4244Y-4.9256
X8.4244Y-4.9945
X8.7Y-4.9256
X8.7Y-4.9945
T3
X3.563Y-3.2283
X3.563Y-3.8976
X3.563Y-4.5669
X3.563Y-5.2362
X3.9961Y-3.2283
X3.9961Y-3.8976
X3.9961Y-4.5669
X3.9961Y-5.2362
X4.2717Y-3.2283
X4.2717Y-3.8976
X4.2717Y-4.5669
X4.2717Y-5.4331
X4.7047Y-3.2283
X4.7047Y-3.8976
X4.7047Y-4.5669
X4.7047Y-5.4331
X4.9803Y-2.7559
X4.9803Y-3.4252
X4.9803Y-4.0945
X4.9803Y-4.7638
X4.9803Y-5.4331
X5.4134Y-2.7559
X5.4134Y-3.4252
X5.4134Y-4.0945
X5.689Y-2.4803
X5.689Y-3.1496
X5.689Y-3.8189
X5.689Y-5.4331
X6.122Y-2.4803
X6.122Y-3.1496
X6.122Y-3.8189
X6.122Y-5.4331
X6.3976Y-2.6969
X6.3976Y-3.3661
X6.3976Y-4.0354
X6.4173Y-4.7047
X6.7637Y-4.7623
X6.8307Y-2.6969
X6.8307Y-3.3661
X6.8307Y-4.0354
X7.1063Y-2.7953
X7.1063Y-3.4646
X7.1063Y-4.1339
X7.182Y-4.8744
X7.5085Y-5.0118
X7.5394Y-2.7953
X7.5394Y-3.4646
X7.5394Y-4.1339
X7.8431Y-4.4322
X7.8835Y-5.2283
X8.1595Y-5.445
X8.4657Y-5.7512
T4
X3.7795Y-3.2283
X3.7795Y-3.8976
X3.7795Y-4.5669
X3.7795Y-5.2362
X4.4882Y-3.2283
X4.4882Y-3.8976
X4.4882Y-4.5669
X4.4882Y-5.4331
X5.1969Y-2.7559
X5.1969Y-3.4252
X5.1969Y-4.0945
X5.1969Y-4.7638
X5.1969Y-5.4331
X5.9055Y-2.4803
X5.9055Y-3.1496
X5.9055Y-3.8189
X5.9055Y-5.4331
X6.2008Y-4.7047
X6.6142Y-2.6969
X6.6142Y-3.3661
X6.6142Y-4.0354
X6.9728Y-4.8184
X7.3228Y-2.7953
X7.3228Y-3.4646
X7.3228Y-4.1339
X7.696Y-5.1201
X8.0306Y-4.5405
X8.3126Y-5.5981
T2
G00X5.2224Y-4.5433
M15
G01X5.1713Y-4.5433
M16
G05
G00X5.2224Y-5.2126
M15
G01X5.1713Y-5.2126
M16
G05
G00X6.1752Y-4.9252
M15
G01X6.2264Y-4.9252
M16
G05
G00X8.163Y-4.3623
M15
G01X8.1187Y-4.3367
M16
G05
T0
M30
